<svg xmlns="http://www.w3.org/2000/svg" xmlns:xlink="http://www.w3.org/1999/xlink" width="128" height="128" viewBox="0 0 128 128">
  <defs>
    <clipPath id="clip-path">
      <rect id="Rectángulo_459899" data-name="Rectángulo 459899" width="128" height="128" fill="none"/>
    </clipPath>
    <clipPath id="clip-path-2">
      <rect id="Rectángulo_465362" data-name="Rectángulo 465362" width="61.188" height="60.71" fill="#12263f"/>
    </clipPath>
  </defs>
  <g id="Grupo_1212480" data-name="Grupo 1212480" transform="translate(5900.254 1141.278)">
    <g id="Grupo_1211139" data-name="Grupo 1211139" transform="translate(-5900.254 -1141.278)">
      <g id="Grupo_1188515" data-name="Grupo 1188515" clip-path="url(#clip-path)">
        <path id="Trazado_1033015" data-name="Trazado 1033015" d="M128,64A64,64,0,1,1,64,0a64,64,0,0,1,64,64" fill="#fff"/>
        <path id="Trazado_1033016" data-name="Trazado 1033016" d="M154.441,185.937l.625-.59c-.045-.02-.215.119-.625.59" transform="translate(-131.184 -157.435)" fill="#e4cbc1"/>
        <path id="Trazado_1033017" data-name="Trazado 1033017" d="M374.691,757.713l-.2.008a.74.74,0,0,0,.2-.008" transform="translate(-318.095 -643.61)" fill="#e4cbc1"/>
        <path id="Trazado_1033018" data-name="Trazado 1033018" d="M342.621,99.876l-.041.008-.2.065Z" transform="translate(-290.823 -84.836)" fill="#e4cbc1"/>
        <path id="Trazado_1033019" data-name="Trazado 1033019" d="M81.364,97.171a46.672,46.672,0,0,1,3.779-5.711c1.133-1.6,2.359-2.8,3.473-4.1.6-.615,1.228-1.2,1.858-1.825l.97-.96,1.1-.927a47.547,47.547,0,0,1,5.5-4.2,46.375,46.375,0,0,1,14.737-5.883c2.322-.985,6.71-.887,9.606-1.239l1.123.269a11.86,11.86,0,0,1,3.182.125l-.069.054c1.5.046,3.178.288,3.916.385l-.072.049,1.79.338-.325.025c.647.092,1.3.178,1.95.3l1.9.5c.625.176,1.248.337,1.843.538l1.707.68-.095-.313c.586.256,1.127.482,1.636.685s.956.45,1.4.64c.875.4,1.663.733,2.437,1.063.743.389,1.473.772,2.258,1.217.39.226.8.452,1.22.731.4.3.829.621,1.28.979l-.087.017c.647.335,1.251.674,1.819,1.016.55.366,1.04.768,1.521,1.149s.933.772,1.375,1.157.817.833,1.223,1.245c1.618,1.661,3.114,3.436,5.222,5.6-.519-.547.09.338,0,.328l1.3,1.6c.419.52.765,1.051,1.108,1.479.671.868,1.2,1.425,1.432,1.308,1.071,1.738.7,1.516.678,1.837.172-.117,1.176,1.354,1.91,2.769-.137-.2-.255-.419-.406-.615.7,1.351,1.393,2.708,2.057,4.079.025-.338,0-.658.006-.99.887,2.273-.217.771.773,2.875l.313-.159a19.563,19.563,0,0,1,.732,2.189c.165.694.3,1.349.426,2s.257,1.3.371,1.981c.091.692.2,1.416.339,2.21a73.426,73.426,0,0,1,1.768,9.989,51.748,51.748,0,0,1-.063,10.205l-.136,1.264-.068.631-.127.619-.512,2.466a17.435,17.435,0,0,1-.677,2.4c-.26.785-.5,1.577-.779,2.345l-1.018,2.217a17.671,17.671,0,0,1-1.094,2.137,29.664,29.664,0,0,1-2.668,3.842l-.541.266c-.411-.047-1.68,2.982-2.322,3.054-.289.381-.56.782-.872,1.147-.34.231-1,.763-.546.208a16.966,16.966,0,0,0-1.6,1.672c-.4.26-.832.482-1.247.718a74.424,74.424,0,0,1-6.176,4.184,35.986,35.986,0,0,1-6.974,3.266,93.37,93.37,0,0,1-12.7,2.748,98.083,98.083,0,0,1-13.538.888,49.735,49.735,0,0,1-15.981-2.551A67.158,67.158,0,0,1,89.2,160.415a3.592,3.592,0,0,0-1.043-.6c-.607-.5-1.191-1.018-1.788-1.524l-.892-.764-.814-.843L83.038,155l-1.448-1.839-.312-.392-.37-.462-.431-.661a34.528,34.528,0,0,1-2.393-4.01,21.288,21.288,0,0,1-1.264-2.643c-.367-.945-.809-1.89-1.144-2.87-.6-1.985-1.275-3.931-1.646-5.694-.817-3.5-1.184-6.012-1.59-5.364a10.1,10.1,0,0,0-.38,3.632,36.74,36.74,0,0,0,.261,4.12c.111.827.29,1.722.463,2.705l.285,1.536c.1.534.292,1.062.445,1.627l-.169-.205L74,146.362l.315.882c.12.281.257.548.381.813.513,1.057.982,2.038,1.479,2.94a23.866,23.866,0,0,0,3.582,4.589,2,2,0,0,0,.442.92c.138.2.3.413.48.634l.634.637c.893.855,1.832,1.78,2.277,2.258l-.123-.049c1.44.94,2.657,2.2,4.065,3.215a21.712,21.712,0,0,0,2.08,1.531,20.226,20.226,0,0,0,2.212,1.179,1.586,1.586,0,0,1-.914-.312c.528.279,1.088.616,1.669.891l1.672.779a6.405,6.405,0,0,1,1.806,1.055,58.146,58.146,0,0,0,8.915,2.859,38.937,38.937,0,0,0,4.323.8,21.527,21.527,0,0,0,3.393.24l-.255.051c2.064-.038,2.637.242,4.926.254.122.048.282.081.255.1,2.224-.154,6.453.16,8.246-.044l.121.2c1.471-.063,2.943-.144,4.411-.283-.55.035-1.1.057-1.651.072.528-.57,3.368.143,6.519-.667,3.013-.374,5.76-2.2,8.767-2.816,1.338-.666-1.123.779.93-.058.158.256-.934.483-.32.533,2.031-.8,3.509-.855,5.925-2.117l.192.158c3.044-1.81,6.1-2.831,7.832-4.521a12.491,12.491,0,0,1,2.589-1.686,7.231,7.231,0,0,0,2.446-2.076l1.289-.82c1.182-1.163.579-1.085,1.894-2.356.081.221,1.608-1.677,1.065-.73a25.026,25.026,0,0,0,3.654-5.365l.793-1.559.736-1.663c.517-1.127,1.131-2.276,1.628-3.56a11.286,11.286,0,0,1,.554-2.482,9.248,9.248,0,0,0,.349-2.272,16.21,16.21,0,0,0,.622-2.336c.152-.953.277-1.513.255.045,0,.268-.128.724-.177.682l.135.4a8.52,8.52,0,0,0,.506-2.205c.091-.724.141-1.434.179-2.142a18.33,18.33,0,0,0,0-2.137c-.016-.721-.015-1.456.03-2.224-.107.909-.136,2.118-.254,1.3.024-.946.144-1.9.088-2.841l.208.59-.069-4.248-.2.6a16.372,16.372,0,0,0-.374-5.124c-.338-1.012-.031,1.981-.416-.161-.2-1.358-.356-3.084-.717-4.868a47.607,47.607,0,0,0-1.326-5.338c-.14.392-.431-.509-.79-1.414l.174-.182c-.748-1.716-.836-2.047-.821-2.419-.007-.362-.007-.729-.825-2.405l.267.242c-.262-.244-.534-.481-.824-.708a6.605,6.605,0,0,1-1.153-2.355,5.909,5.909,0,0,0-1.474-2.5c.758,1.259-.091.834-.892-.773l.412.289a17.513,17.513,0,0,1-1.063-1.687c.382.462.457.091-.4-1.112l.772.684L165.6,92.049A18.783,18.783,0,0,0,163.509,89c-.376-.488-.727-.946-1-1.338a5.175,5.175,0,0,1-.606-.9s-.743-.9-1.609-1.864a12.043,12.043,0,0,0-1.381-1.336,6.591,6.591,0,0,0-1.09-.81c.821.5-.989-1.34-.3-1.013-.495-.363-1.516-1.015-2.5-1.751-.491-.366-.978-.748-1.4-1.107s-.833-.633-1.091-.89l.241.13c-4.218-3.29-7.918-4.417-12.214-6.37.112.317-2.184-.685-1.71-.156-2.377-.551-4.454-1.343-6.252-1.734a13.7,13.7,0,0,0-2.393-.462,4.062,4.062,0,0,0-1.764.222c-2.186-.246-2.573-.514-3.715-.623l.531-.029-2.636-.075c-.744,0-1.38.051-1.982.066-1.2.058-2.278.029-3.809.226a11.52,11.52,0,0,0-1.761.507,19.819,19.819,0,0,1-2.645.594c.836-.354-.258-.107-1.266.089.637-.154.826-.261-.529-.127-.174.095-.456.176-.712.289-.014-.011-.069-.008-.047-.035-1.639.529-1.333.5-.561.314-.031.039.043.056.292.041a27.084,27.084,0,0,0-3.085.739c-.993.322-1.784.633-1.945.51A39.849,39.849,0,0,0,93.325,78.8c-.489.15.229-.557,1.2-1.347L92.1,79.3c-.129-.2,1.332-1.145,2.065-1.738a23.017,23.017,0,0,0-2.311,1.553c-.7.628-1.394,1.3-2.1,1.976-.724.657-1.373,1.412-2.064,2.155s-1.47,1.433-2.187,2.216l-.418.8-.185.174a4.4,4.4,0,0,1-.788,1.37c-.537.337-.39-.359-1.6,1.363a15.244,15.244,0,0,0-1.861,2.669l-1.695,3.217c.627-.986.539-.6.34-.138a21.883,21.883,0,0,0-1.241,2.11l-.3-.041c.213-.121-.039.517-.352,1.233a11.516,11.516,0,0,0-.648,1.74c-.422.46.467-1.565.487-1.848-.9,1.893-1.062,2.4-1.285,2.87-.185.49-.478.937-1.159,2.919-.567,2.169.389-.287.255.8-.673,1.844-.967,3.743-1.775,5.846l.442-.615c-.41,1.784-.623,3.233-.95,4.5-.267,1.282-.49,2.422-.822,3.621-.138,1.7-.086,3.229-.119,4.563.031,1.339.145,2.5.214,3.5a20.484,20.484,0,0,0,.348,2.542c.127.7.243,1.26.35,1.7.443,1.757.753,1.614.887.617a39.933,39.933,0,0,0,.33-4.258c.147-1.525.229-2.806.229-2.806a116.086,116.086,0,0,1,2.145-12.969l.788-3.08c.294-1.051.671-2.117,1.03-3.257a53.709,53.709,0,0,1,3.2-7.432" transform="translate(-61.023 -58.519)" fill="#3a552a"/>
      </g>
    </g>
    <g id="Grupo_1212331" data-name="Grupo 1212331" transform="translate(-5790.041 -1126.453)">
      <g id="Grupo_1212330" data-name="Grupo 1212330" transform="translate(-78 16)" clip-path="url(#clip-path-2)">
        <path id="Trazado_1273950" data-name="Trazado 1273950" d="M3.327,60.711c-1.836,0-3.042-.872-3.295-2.538a2.884,2.884,0,0,1,2.576-3.281L.041,46.164a1.087,1.087,0,0,1,.225-.974,1.17,1.17,0,0,1,.923-.33l6.275-.006a3.3,3.3,0,0,1,1.98-3.181l3.647-1.535a8.66,8.66,0,0,0-2.166-.085,2.711,2.711,0,0,1-2.762-2.639V31.761c0-5.78,5.53-9.841,11.133-8.7a4.384,4.384,0,0,1,1.879-1.881,3.475,3.475,0,0,1-.423-1.72l0-9.408A9.977,9.977,0,0,1,30.367.007,9.833,9.833,0,0,1,40.616,9.542l.036,9.924a3.457,3.457,0,0,1-.583,2.011,4.781,4.781,0,0,1,1.945,2.118,6.806,6.806,0,0,1,7.648,1.11,6.983,6.983,0,0,1,1.685,7.571c-.337.972.506,3.452-1.1,5.863,3.543.824,6.25,2.98,6.566,6.729l3.375.023a.983.983,0,0,1,.949,1.273L58.4,54.85a2.937,2.937,0,1,1-.429,5.858ZM32.434,8.736c2.352,1.421,4.405.081,4.728,2.171a6.805,6.805,0,0,1-2.956,6.88c.41,1.733,3.388,2.944,3.962,2.6a.945.945,0,0,0,.4-.756L38.476,9.392a7.77,7.77,0,0,0-7.952-7.259A7.656,7.656,0,0,0,22.9,9.545l-.019,10.748a7.8,7.8,0,0,0,2.1-.623c.944-.257,2.022-1.409,1.821-2.37a7.821,7.821,0,0,1-2.21-3.446C23.366,9.507,24.537,4.98,29,3.922a1.192,1.192,0,0,1,1,.093c.938.59-.323,3.057,2.433,4.721m.326,7.419a4.538,4.538,0,0,0,2.362-4.562,6.807,6.807,0,0,1-6.732-5.251,4.21,4.21,0,0,0-2.048,2.837,8.076,8.076,0,0,0,.649,5,4.38,4.38,0,0,0,5.769,1.979m1.717,5.125c-1.253-.5-1.647-1.84-2.326-2.605-1.1-.178-2.338.177-3.355-.372A5.754,5.754,0,0,1,27.035,21,3.842,3.842,0,0,0,31.1,23.565a3.671,3.671,0,0,0,3.376-2.285M31.851,44.829a6.62,6.62,0,0,1,1.689-4.12,9.477,9.477,0,0,1,4.84-2.606c-.417-.518-.465-1.426-.883-1.815-.533-.393-1.212-.465-1.623-1.076a3.3,3.3,0,0,1,.518-4.455,5.05,5.05,0,0,1,3.189-7,9.414,9.414,0,0,0-3.243-1.477,6.059,6.059,0,0,1-7.317,3.158,5.875,5.875,0,0,1-3.987-3.58c-1.346.508-2.969.889-3.685,1.941a8.935,8.935,0,0,1,5.159,7.943l0,5.693a2.693,2.693,0,0,1-2.773,2.605,4.836,4.836,0,0,0-1.427.055c2.775,1.1,5.395,1.591,5.2,4.764ZM22.191,29.707a.969.969,0,0,1,.909,1.011l.012,4.084a6.791,6.791,0,0,1-.95,3.122l1.555.015a.66.66,0,0,0,.687-.655l-.041-5.719A7.01,7.01,0,0,0,17.244,25a6.924,6.924,0,0,0-6.981,6.727l-.024,5.555a.658.658,0,0,0,.7.644l1.548-.006a6.872,6.872,0,0,1-.954-3.061c-.039-1.4-.058-2.748.022-4.153a.983.983,0,0,1,.91-1Zm19.977-.768a1.252,1.252,0,0,1,1.03.3,11.021,11.021,0,0,0,6.284,1.814,4.7,4.7,0,0,0-1.7-5.154,4.829,4.829,0,0,0-5.293-.2,3.6,3.6,0,0,0-4.119,1.524,3.459,3.459,0,0,0,.453,3.705c2.87.063,2.407-1.787,3.347-1.994m2.058,10.109c2.332.048,4.437-1.191,4.853-3.651a9.539,9.539,0,0,0,.032-2.268,12.719,12.719,0,0,1-6.231-1.63,5.309,5.309,0,0,1-3.43,1.52,2.356,2.356,0,0,1-1.919-.314c-.374.422-.21,1.36.248,1.36.511,0,.872-.193,1.243.093.743.573.295,4.789,5.2,4.891m-25.635-.765a3.626,3.626,0,0,0,2.395-3.368l.043-3.163-7.407,0,.036,3.172A3.637,3.637,0,0,0,16,38.269a4.068,4.068,0,0,0,2.592.014m36.095,6.581a4.594,4.594,0,0,0-2.3-3.647,9.026,9.026,0,0,0-3.207-1.161,1.255,1.255,0,0,0-1.553.817,17.846,17.846,0,0,1-2.137,2.538c-.328.43-.672.808-1.184.8a1.623,1.623,0,0,1-1.188-.8A19.14,19.14,0,0,1,41,40.871a1.265,1.265,0,0,0-1.562-.814c-3,.617-5.526,2.065-5.527,5.3l0,9.546,3.7-.044,2.876-9.039c.151-.475.325-.925.921-.926ZM20.366,41.573a8.471,8.471,0,0,1-1.057-1.285,10.053,10.053,0,0,1-3.616.157,5.678,5.678,0,0,1-1.316,1.363A3.164,3.164,0,0,0,17.556,43.5a3.194,3.194,0,0,0,2.81-1.928m5.058,13.312-.035-10.84a5.714,5.714,0,0,0-3.125-1.594,4.818,4.818,0,0,1-2.925,2.781L22.215,54.9ZM9.6,44.889l4.741-.054a5.409,5.409,0,0,1-1.9-2.154l-1.847.813a1.436,1.436,0,0,0-1,1.394m10.4,9.993L17.673,47l-15.219-.01,2.335,7.921Zm11.766.014.009-7.916-4.28,0,.025,7.934ZM56.2,54.881l2.479-7.887L42.272,47,39.79,54.918Zm1.927,3.744a.811.811,0,0,0,.91-.914c-.028-.442-.3-.741-.914-.741l-55.19,0a.814.814,0,0,0-.835.876.844.844,0,0,0,.833.771Z" transform="translate(0 -0.001)" fill="#12263f"/>
        <path id="Trazado_1273951" data-name="Trazado 1273951" d="M255.111,216.73a3.159,3.159,0,0,1-2.114.019,1.076,1.076,0,0,1-.787-1.256,1.036,1.036,0,0,1,1.435-.739c.648.207,1.765-.522,2.142.608a1.069,1.069,0,0,1-.676,1.367" transform="translate(-209.794 -178.597)" fill="#12263f"/>
        <path id="Trazado_1273952" data-name="Trazado 1273952" d="M173.4,79.318a3.938,3.938,0,0,1-2.744.007,1.049,1.049,0,0,1-.717-1.342,1.015,1.015,0,0,1,1.365-.649c1.1.382,2.383-.588,2.762.519a1.083,1.083,0,0,1-.666,1.464" transform="translate(-141.34 -64.278)" fill="#12263f"/>
        <path id="Trazado_1273953" data-name="Trazado 1273953" d="M95.04,212.81c-1.314.485-2.813.056-2.9-.933-.038-.414.275-1.063.822-1.062l2.025,0c.518,0,.788.552.806.924a1.019,1.019,0,0,1-.749,1.069" transform="translate(-76.646 -175.379)" fill="#12263f"/>
      </g>
    </g>
  </g>
</svg>
