<svg xmlns="http://www.w3.org/2000/svg" xmlns:xlink="http://www.w3.org/1999/xlink" width="187.711" height="123.275" viewBox="0 0 187.711 123.275">
  <defs>
    <clipPath id="clip-path">
      <rect id="Rectángulo_465367" data-name="Rectángulo 465367" width="76.082" height="76.092" fill="#12263f"/>
    </clipPath>
  </defs>
  <g id="Grupo_1212342" data-name="Grupo 1212342" transform="translate(-290 -14726.525)">
    <g id="Grupo_1211162" data-name="Grupo 1211162" transform="translate(5.735 5863.779)">
      <g id="Grupo_1204518" data-name="Grupo 1204518" transform="translate(289.277 8868.039)">
        <rect id="Rectángulo_455283" data-name="Rectángulo 455283" width="182.698" height="117.983" fill="#3a552a"/>
      </g>
    </g>
    <g id="Grupo_1211163" data-name="Grupo 1211163" transform="translate(0.723 5858.486)">
      <g id="Grupo_1204518-2" data-name="Grupo 1204518" transform="translate(289.277 8868.039)">
        <rect id="Rectángulo_455283-2" data-name="Rectángulo 455283" width="183.422" height="118.45" fill="#ceffb3"/>
      </g>
    </g>
    <g id="Grupo_1212341" data-name="Grupo 1212341" transform="translate(343.67 14747.705)">
      <g id="Grupo_1212340" data-name="Grupo 1212340" clip-path="url(#clip-path)">
        <path id="Trazado_1273964" data-name="Trazado 1273964" d="M38.091,71.956l-9.038,3.866a3.061,3.061,0,0,1-3.212-.43,3.26,3.26,0,0,1-1.169-2.873l.89-9.589-6.1-6.96a3.394,3.394,0,0,1-.933-3.56,3.043,3.043,0,0,1,2.831-2.067l-.034-7.386a8.535,8.535,0,0,0-9-8.242A8.8,8.8,0,0,0,3.979,43.8l.04,12.251,11.539.038a1.869,1.869,0,0,1,1.758,1.935,1.929,1.929,0,0,1-1.923,2.021L1.94,60.05A1.969,1.969,0,0,1,0,58.117L.054,42.726A12.186,12.186,0,0,1,6.442,32.351a9.358,9.358,0,1,1,12.489-.082l2.469,1.8a16.866,16.866,0,0,1,9.55-13.849,11.359,11.359,0,1,1,14.189,0,16.894,16.894,0,0,1,9.545,13.838l2.5-1.73a9.341,9.341,0,1,1,12.506-.013c3.737,2.309,6.325,6.028,6.34,10.417l.053,15.389a1.967,1.967,0,0,1-1.944,1.931l-13.65-.025a1.989,1.989,0,0,1,.214-3.959l11.379-.014-.026-12.9a8.575,8.575,0,0,0-8.492-8.445,8.674,8.674,0,0,0-8.792,8.047l-.054,7.58a3.076,3.076,0,0,1,2.833,2.076,3.408,3.408,0,0,1-.93,3.562l-6.1,6.957.888,9.759a3.152,3.152,0,0,1-4.533,3.087ZM36.328,4.216a7.333,7.333,0,1,0,8.848,5.407,7.289,7.289,0,0,0-8.848-5.407m-25,15.994a5.277,5.277,0,0,0-3.8,6.574,5.332,5.332,0,0,0,10.321-2.676,5.275,5.275,0,0,0-6.519-3.9m50.635.031A5.288,5.288,0,0,0,58.338,27a5.337,5.337,0,1,0,3.63-6.759M40.7,39.778l5.062,8.478,4.963,1.11-.031-14.317A12.533,12.533,0,0,0,38.149,22.695c-6.733-.053-12.713,5.206-12.739,12.14l-.054,14.534,4.967-1.115,5.2-8.661a2.943,2.943,0,0,1,2.61-1.282A3.017,3.017,0,0,1,40.7,39.778M39.119,68.052l8.166,3.537-.8-8.863a2.178,2.178,0,0,1,.6-1.984L52.964,54l-8.634-1.97a2.282,2.282,0,0,1-1.415-.718l-4.872-8.158-4.635,7.757a1.907,1.907,0,0,1-1.315,1.048L23.129,54l5.768,6.63a2.288,2.288,0,0,1,.685,2.269L28.8,71.586l8.254-3.557a2.4,2.4,0,0,1,2.066.024" transform="translate(0 0)" fill="#12263f"/>
      </g>
    </g>
  </g>
</svg>
