<svg xmlns="http://www.w3.org/2000/svg" xmlns:xlink="http://www.w3.org/1999/xlink" width="84" height="84" viewBox="0 0 84 84">
  <defs>
    <clipPath id="clip-path">
      <rect id="Rectángulo_465348" data-name="Rectángulo 465348" width="52.606" height="58.558" fill="#12263f"/>
    </clipPath>
  </defs>
  <g id="Grupo_1211095" data-name="Grupo 1211095" transform="translate(-705.629 -410)">
    <g id="Grupo_1188476" data-name="Grupo 1188476" transform="translate(2.841 -1273.207)">
      <g id="Grupo_1185067" data-name="Grupo 1185067" transform="translate(719.227 1696)">
        <path id="Trazado_997620" data-name="Trazado 997620" d="M133.124,646.71a15.477,15.477,0,1,0-14.332-.01" transform="translate(-99.168 -604.804)" fill="#3a552a" stroke="#000" stroke-miterlimit="10" stroke-width="2"/>
        <rect id="Rectángulo_454823" data-name="Rectángulo 454823" width="14.333" height="4.288" transform="translate(19.625 41.893)" fill="#3a552a" stroke="#000" stroke-miterlimit="10" stroke-width="2"/>
        <rect id="Rectángulo_454824" data-name="Rectángulo 454824" width="14.333" height="4.288" transform="translate(19.625 46.181)" fill="#3a552a" stroke="#000" stroke-miterlimit="10" stroke-width="2"/>
        <path id="Trazado_997621" data-name="Trazado 997621" d="M135.492,688.628h-6.283a4.025,4.025,0,0,1-4.025-4.025v-.263h14.333v.263A4.025,4.025,0,0,1,135.492,688.628Z" transform="translate(-105.559 -633.871)" fill="#3a552a" stroke="#000" stroke-miterlimit="10" stroke-width="2"/>
        <line id="Línea_3231" data-name="Línea 3231" y1="7.578" transform="translate(26.797)" fill="none" stroke="#000" stroke-miterlimit="10" stroke-width="2"/>
        <line id="Línea_3232" data-name="Línea 3232" x1="4.454" y1="6.13" transform="translate(10.236 5.387)" fill="none" stroke="#000" stroke-miterlimit="10" stroke-width="2"/>
        <line id="Línea_3233" data-name="Línea 3233" x1="7.2" y1="2.336" transform="translate(0 19.477)" fill="none" stroke="#000" stroke-miterlimit="10" stroke-width="2"/>
        <line id="Línea_3234" data-name="Línea 3234" x1="7.2" y2="2.341" transform="translate(0 34.55)" fill="none" stroke="#000" stroke-miterlimit="10" stroke-width="2"/>
        <line id="Línea_3235" data-name="Línea 3235" x1="7.2" y1="2.341" transform="translate(46.398 34.55)" fill="none" stroke="#000" stroke-miterlimit="10" stroke-width="2"/>
        <line id="Línea_3236" data-name="Línea 3236" x1="7.2" y2="2.336" transform="translate(46.398 19.477)" fill="none" stroke="#000" stroke-miterlimit="10" stroke-width="2"/>
        <line id="Línea_3237" data-name="Línea 3237" x1="4.454" y2="6.125" transform="translate(38.91 5.387)" fill="none" stroke="#000" stroke-miterlimit="10" stroke-width="2"/>
        <path id="Trazado_997622" data-name="Trazado 997622" d="M119,638.208a10.647,10.647,0,0,1,4.484-8.693" transform="translate(-102.867 -610.025)" fill="#3a552a" stroke="#000" stroke-miterlimit="10" stroke-width="2"/>
        <line id="Línea_3238" data-name="Línea 3238" y2="8.634" transform="translate(26.797 33.258)" fill="none" stroke="#000" stroke-miterlimit="10" stroke-width="2"/>
        <path id="Trazado_997623" data-name="Trazado 997623" d="M133.157,647.74l2.669,3.47,3-3.47" transform="translate(-109.027 -617.951)" fill="#3a552a" stroke="#000" stroke-miterlimit="10" stroke-width="2"/>
        <path id="Trazado_997624" data-name="Trazado 997624" d="M132.431,691.931a3.07,3.07,0,1,0,6.14,0" transform="translate(-108.711 -637.173)" fill="#3a552a" stroke="#000" stroke-miterlimit="10" stroke-width="2"/>
      </g>
      <rect id="Rectángulo_459857" data-name="Rectángulo 459857" width="81" height="79" transform="translate(705.788 1688.207)" fill="#3a552a"/>
    </g>
    <g id="Grupo_1188599" data-name="Grupo 1188599" transform="translate(0.371 -1278)">
      <g id="Grupo_1185067-2" data-name="Grupo 1185067" transform="translate(718.472 1696)">
        <path id="Trazado_997620-2" data-name="Trazado 997620" d="M133.124,646.71a15.477,15.477,0,1,0-14.332-.01" transform="translate(-99.168 -604.804)" fill="#fff006" stroke="#000" stroke-miterlimit="10" stroke-width="2"/>
        <rect id="Rectángulo_454823-2" data-name="Rectángulo 454823" width="14.333" height="4.288" transform="translate(19.625 41.893)" fill="#fff006" stroke="#000" stroke-miterlimit="10" stroke-width="2"/>
        <rect id="Rectángulo_454824-2" data-name="Rectángulo 454824" width="14.333" height="4.288" transform="translate(19.625 46.181)" fill="#fff006" stroke="#000" stroke-miterlimit="10" stroke-width="2"/>
        <path id="Trazado_997621-2" data-name="Trazado 997621" d="M135.492,688.628h-6.283a4.025,4.025,0,0,1-4.025-4.025v-.263h14.333v.263A4.025,4.025,0,0,1,135.492,688.628Z" transform="translate(-105.559 -633.871)" fill="#fff006" stroke="#000" stroke-miterlimit="10" stroke-width="2"/>
        <line id="Línea_3231-2" data-name="Línea 3231" y1="7.578" transform="translate(26.797)" fill="none" stroke="#000" stroke-miterlimit="10" stroke-width="2"/>
        <line id="Línea_3232-2" data-name="Línea 3232" x1="4.454" y1="6.13" transform="translate(10.236 5.387)" fill="none" stroke="#000" stroke-miterlimit="10" stroke-width="2"/>
        <line id="Línea_3233-2" data-name="Línea 3233" x1="7.2" y1="2.336" transform="translate(0 19.477)" fill="none" stroke="#000" stroke-miterlimit="10" stroke-width="2"/>
        <line id="Línea_3234-2" data-name="Línea 3234" x1="7.2" y2="2.341" transform="translate(0 34.55)" fill="none" stroke="#000" stroke-miterlimit="10" stroke-width="2"/>
        <line id="Línea_3235-2" data-name="Línea 3235" x1="7.2" y1="2.341" transform="translate(46.398 34.55)" fill="none" stroke="#000" stroke-miterlimit="10" stroke-width="2"/>
        <line id="Línea_3236-2" data-name="Línea 3236" x1="7.2" y2="2.336" transform="translate(46.398 19.477)" fill="none" stroke="#000" stroke-miterlimit="10" stroke-width="2"/>
        <line id="Línea_3237-2" data-name="Línea 3237" x1="4.454" y2="6.125" transform="translate(38.91 5.387)" fill="none" stroke="#000" stroke-miterlimit="10" stroke-width="2"/>
        <path id="Trazado_997622-2" data-name="Trazado 997622" d="M119,638.208a10.647,10.647,0,0,1,4.484-8.693" transform="translate(-102.867 -610.025)" fill="#fff006" stroke="#000" stroke-miterlimit="10" stroke-width="2"/>
        <line id="Línea_3238-2" data-name="Línea 3238" y2="8.634" transform="translate(26.797 33.258)" fill="none" stroke="#000" stroke-miterlimit="10" stroke-width="2"/>
        <path id="Trazado_997623-2" data-name="Trazado 997623" d="M133.157,647.74l2.669,3.47,3-3.47" transform="translate(-109.027 -617.951)" fill="#fff006" stroke="#000" stroke-miterlimit="10" stroke-width="2"/>
        <path id="Trazado_997624-2" data-name="Trazado 997624" d="M132.431,691.931a3.07,3.07,0,1,0,6.14,0" transform="translate(-108.711 -637.173)" fill="#fff006" stroke="#000" stroke-miterlimit="10" stroke-width="2"/>
      </g>
      <rect id="Rectángulo_459857-2" data-name="Rectángulo 459857" width="80" height="80" transform="translate(705.258 1688)" fill="#fff006"/>
    </g>
    <g id="Grupo_1212302" data-name="Grupo 1212302" transform="translate(719.326 420.721)">
      <g id="Grupo_1212301" data-name="Grupo 1212301" clip-path="url(#clip-path)">
        <path id="Trazado_1273818" data-name="Trazado 1273818" d="M18.834,49.229a11.45,11.45,0,0,1,2.407-2.347,5.426,5.426,0,0,1-.642-2.53l.007-2.649a5.608,5.608,0,0,1,5.625-5.464,5.668,5.668,0,0,1,5.756,5.326v3.074a5.016,5.016,0,0,1-.624,2.245,11.819,11.819,0,0,1,2.41,2.341,6.275,6.275,0,0,1,1.057-.835,6.441,6.441,0,0,1-.482-3.46,5.079,5.079,0,0,1,9.777-2.536A23.871,23.871,0,0,0,50.29,26.47a3.208,3.208,0,0,1-3.114.257c-1.236.875-2.758,1.19-4-.031s-1.533-2.317-2.549-3.2c-.393.336-.406.8-.557,1.247a5.027,5.027,0,0,1-2.55,3.141,2.455,2.455,0,0,1-2.409-.126c-1.609-1.107-.637-3.219-1.469-4.065a8.434,8.434,0,0,1-2.078-2.97A3.432,3.432,0,0,1,28.028,19.5c-1.235-1.527-2.566-.1-3.871-1.315-1.156-1.075-.744-3.673.453-4.8.935-.884,2.891-.552,2.987-1.383a8.041,8.041,0,0,1,.519-2.761l-2.345-.955A4.612,4.612,0,0,1,23.4,6.134c-1.061-2.066,1.286-2.726,0-3.66a24.612,24.612,0,0,0-6.917,1.878,1.106,1.106,0,0,1-1.368-.691,1.15,1.15,0,0,1,.605-1.446A26.3,26.3,0,0,1,44.406,45.361a5.619,5.619,0,0,1-.472,2.994,8.052,8.052,0,0,1,3.453,6.676l0,2.353a1.139,1.139,0,0,1-1.2,1.174H6.423a1.135,1.135,0,0,1-1.2-1.174V54.735a7.838,7.838,0,0,1,3.442-6.383,5.423,5.423,0,0,1-.457-2.983,26.276,26.276,0,0,1-1.342-36.8,1.156,1.156,0,1,1,1.79,1.448,19.613,19.613,0,0,0-2.14,2.684c1.443.726,3.339-.042,4.144,1.927l.833,2.037a26.326,26.326,0,0,0,2.8,1.052c2.177.84,4.088,2.125,4.688,4.4a2.731,2.731,0,0,1-1.429,3.248,5.171,5.171,0,0,1-3.814.359c-1.461-.475-2.061-2.25-2.821-1.965a.613.613,0,0,0-.376.92l1.09,2.406a2.636,2.636,0,0,1-.572,3.04,2.611,2.611,0,0,1-3.656.435c-1.421-1.042-1.941-2.468-2.875-2a5.746,5.746,0,0,1-2.1.6A23.964,23.964,0,0,0,8.481,42.39a5.058,5.058,0,0,1,6-3.13,5.109,5.109,0,0,1,3.771,5.672,6.435,6.435,0,0,1-.484,3.455,5.941,5.941,0,0,1,1.061.843M33.534,19.6a7.7,7.7,0,0,0,1.8,2.561A5.057,5.057,0,0,1,36.4,25.819c1.435-.377,1.386-2.208,2.164-3.462a2.326,2.326,0,0,1,3.414-.711c1.6,1.171,1.815,2.9,3.183,3.619l1.013-.714a1.779,1.779,0,0,1,2.39.231l1.632-.746A24,24,0,0,0,25.972,2.274a2.751,2.751,0,0,1-.566,2.813c.764,1.27,2.348,1.361,3.769,2.133a2.21,2.21,0,0,1,1.1,2.616c-.6,1.959.025,3.439-1.779,4.5a9.972,9.972,0,0,1-2.315.746,1.688,1.688,0,0,0-.388,1.37A4,4,0,0,1,29.634,17.9a1.487,1.487,0,0,0,1.535.605,2.207,2.207,0,0,1,2.365,1.1M14.6,23.584a2.1,2.1,0,0,0,2.039-.441c.4-.662-.328-1.536-.83-1.955-2.237-1.869-5.294-1.749-6.32-3.347l-1-2.444A6.723,6.723,0,0,1,5.262,14.7a23.652,23.652,0,0,0-2.989,12.2,5.623,5.623,0,0,0,1.312-.423c3.54-1.615,4.831,3.54,5.884,1.985.309-.457-.617-1.731-1.125-3.167a2.823,2.823,0,0,1,1.937-3.738c2.538-.879,2.979,1.48,4.317,2.021M29.68,44.651l0-3.1a3.377,3.377,0,0,0-3.448-3.031A3.33,3.33,0,0,0,22.893,41.7l-.014,2.517a3.439,3.439,0,0,0,3.228,3.455,3.291,3.291,0,0,0,3.573-3.02M16.012,46.185l.006-1.983a2.774,2.774,0,0,0-2.527-2.793,2.717,2.717,0,0,0-3,2.355l-.025,2.5A2.707,2.707,0,0,0,13.335,48.9a2.761,2.761,0,0,0,2.677-2.711m26.14-.131-.042-2.29a2.723,2.723,0,0,0-3-2.356A2.775,2.775,0,0,0,36.588,44.2l.009,2.042a2.779,2.779,0,0,0,5.555-.189m-8.981,10.2-.022-2.235a6.807,6.807,0,0,0-3.28-5.327,5.675,5.675,0,0,1-7.131.007,6.715,6.715,0,0,0-3.254,5.071l-.043,2.49Zm-15.456-4.9a6.284,6.284,0,0,0-1.418-1.21,5.015,5.015,0,0,1-6.13,0C8.026,51.481,7.3,53.668,7.552,56.258l9.614,0a12.131,12.131,0,0,1,.549-4.9m27.34,4.9.014-1.523a5.4,5.4,0,0,0-2.621-4.593,5.032,5.032,0,0,1-6.136.01A4.857,4.857,0,0,0,34.888,51.4a11.751,11.751,0,0,1,.554,4.855Z" transform="translate(0 0)" fill="#12263f"/>
        <path id="Trazado_1273819" data-name="Trazado 1273819" d="M72.892,31.949a1.136,1.136,0,0,1,1.471.638,1.138,1.138,0,1,1-2.123.821,1.122,1.122,0,0,1,.651-1.459" transform="translate(-61.598 -27.203)" fill="#12263f"/>
      </g>
    </g>
  </g>
</svg>
