<svg xmlns="http://www.w3.org/2000/svg" xmlns:xlink="http://www.w3.org/1999/xlink" width="84" height="84" viewBox="0 0 84 84">
  <defs>
    <clipPath id="clip-path">
      <rect id="Rectángulo_465364" data-name="Rectángulo 465364" width="55.963" height="55.53" fill="#12263f"/>
    </clipPath>
  </defs>
  <g id="Grupo_1211147" data-name="Grupo 1211147" transform="translate(-705.629 -410)">
    <g id="Grupo_1188476" data-name="Grupo 1188476" transform="translate(2.841 -1273.207)">
      <g id="Grupo_1185067" data-name="Grupo 1185067" transform="translate(719.227 1696)">
        <path id="Trazado_997620" data-name="Trazado 997620" d="M133.124,646.71a15.477,15.477,0,1,0-14.332-.01" transform="translate(-99.168 -604.804)" fill="#3a552a" stroke="#000" stroke-miterlimit="10" stroke-width="2"/>
        <rect id="Rectángulo_454823" data-name="Rectángulo 454823" width="14.333" height="4.288" transform="translate(19.625 41.893)" fill="#3a552a" stroke="#000" stroke-miterlimit="10" stroke-width="2"/>
        <rect id="Rectángulo_454824" data-name="Rectángulo 454824" width="14.333" height="4.288" transform="translate(19.625 46.181)" fill="#3a552a" stroke="#000" stroke-miterlimit="10" stroke-width="2"/>
        <path id="Trazado_997621" data-name="Trazado 997621" d="M135.492,688.628h-6.283a4.025,4.025,0,0,1-4.025-4.025v-.263h14.333v.263A4.025,4.025,0,0,1,135.492,688.628Z" transform="translate(-105.559 -633.871)" fill="#3a552a" stroke="#000" stroke-miterlimit="10" stroke-width="2"/>
        <line id="Línea_3231" data-name="Línea 3231" y1="7.578" transform="translate(26.797)" fill="none" stroke="#000" stroke-miterlimit="10" stroke-width="2"/>
        <line id="Línea_3232" data-name="Línea 3232" x1="4.454" y1="6.13" transform="translate(10.236 5.387)" fill="none" stroke="#000" stroke-miterlimit="10" stroke-width="2"/>
        <line id="Línea_3233" data-name="Línea 3233" x1="7.2" y1="2.336" transform="translate(0 19.477)" fill="none" stroke="#000" stroke-miterlimit="10" stroke-width="2"/>
        <line id="Línea_3234" data-name="Línea 3234" x1="7.2" y2="2.341" transform="translate(0 34.55)" fill="none" stroke="#000" stroke-miterlimit="10" stroke-width="2"/>
        <line id="Línea_3235" data-name="Línea 3235" x1="7.2" y1="2.341" transform="translate(46.398 34.55)" fill="none" stroke="#000" stroke-miterlimit="10" stroke-width="2"/>
        <line id="Línea_3236" data-name="Línea 3236" x1="7.2" y2="2.336" transform="translate(46.398 19.477)" fill="none" stroke="#000" stroke-miterlimit="10" stroke-width="2"/>
        <line id="Línea_3237" data-name="Línea 3237" x1="4.454" y2="6.125" transform="translate(38.91 5.387)" fill="none" stroke="#000" stroke-miterlimit="10" stroke-width="2"/>
        <path id="Trazado_997622" data-name="Trazado 997622" d="M119,638.208a10.647,10.647,0,0,1,4.484-8.693" transform="translate(-102.867 -610.025)" fill="#3a552a" stroke="#000" stroke-miterlimit="10" stroke-width="2"/>
        <line id="Línea_3238" data-name="Línea 3238" y2="8.634" transform="translate(26.797 33.258)" fill="none" stroke="#000" stroke-miterlimit="10" stroke-width="2"/>
        <path id="Trazado_997623" data-name="Trazado 997623" d="M133.157,647.74l2.669,3.47,3-3.47" transform="translate(-109.027 -617.951)" fill="#3a552a" stroke="#000" stroke-miterlimit="10" stroke-width="2"/>
        <path id="Trazado_997624" data-name="Trazado 997624" d="M132.431,691.931a3.07,3.07,0,1,0,6.14,0" transform="translate(-108.711 -637.173)" fill="#3a552a" stroke="#000" stroke-miterlimit="10" stroke-width="2"/>
      </g>
      <rect id="Rectángulo_459857" data-name="Rectángulo 459857" width="81" height="79" transform="translate(705.788 1688.207)" fill="#3a552a"/>
    </g>
    <g id="Grupo_1188599" data-name="Grupo 1188599" transform="translate(0.371 -1278)">
      <g id="Grupo_1185067-2" data-name="Grupo 1185067" transform="translate(718.472 1696)">
        <path id="Trazado_997620-2" data-name="Trazado 997620" d="M133.124,646.71a15.477,15.477,0,1,0-14.332-.01" transform="translate(-99.168 -604.804)" fill="#fff006" stroke="#000" stroke-miterlimit="10" stroke-width="2"/>
        <rect id="Rectángulo_454823-2" data-name="Rectángulo 454823" width="14.333" height="4.288" transform="translate(19.625 41.893)" fill="#fff006" stroke="#000" stroke-miterlimit="10" stroke-width="2"/>
        <rect id="Rectángulo_454824-2" data-name="Rectángulo 454824" width="14.333" height="4.288" transform="translate(19.625 46.181)" fill="#fff006" stroke="#000" stroke-miterlimit="10" stroke-width="2"/>
        <path id="Trazado_997621-2" data-name="Trazado 997621" d="M135.492,688.628h-6.283a4.025,4.025,0,0,1-4.025-4.025v-.263h14.333v.263A4.025,4.025,0,0,1,135.492,688.628Z" transform="translate(-105.559 -633.871)" fill="#fff006" stroke="#000" stroke-miterlimit="10" stroke-width="2"/>
        <line id="Línea_3231-2" data-name="Línea 3231" y1="7.578" transform="translate(26.797)" fill="none" stroke="#000" stroke-miterlimit="10" stroke-width="2"/>
        <line id="Línea_3232-2" data-name="Línea 3232" x1="4.454" y1="6.13" transform="translate(10.236 5.387)" fill="none" stroke="#000" stroke-miterlimit="10" stroke-width="2"/>
        <line id="Línea_3233-2" data-name="Línea 3233" x1="7.2" y1="2.336" transform="translate(0 19.477)" fill="none" stroke="#000" stroke-miterlimit="10" stroke-width="2"/>
        <line id="Línea_3234-2" data-name="Línea 3234" x1="7.2" y2="2.341" transform="translate(0 34.55)" fill="none" stroke="#000" stroke-miterlimit="10" stroke-width="2"/>
        <line id="Línea_3235-2" data-name="Línea 3235" x1="7.2" y1="2.341" transform="translate(46.398 34.55)" fill="none" stroke="#000" stroke-miterlimit="10" stroke-width="2"/>
        <line id="Línea_3236-2" data-name="Línea 3236" x1="7.2" y2="2.336" transform="translate(46.398 19.477)" fill="none" stroke="#000" stroke-miterlimit="10" stroke-width="2"/>
        <line id="Línea_3237-2" data-name="Línea 3237" x1="4.454" y2="6.125" transform="translate(38.91 5.387)" fill="none" stroke="#000" stroke-miterlimit="10" stroke-width="2"/>
        <path id="Trazado_997622-2" data-name="Trazado 997622" d="M119,638.208a10.647,10.647,0,0,1,4.484-8.693" transform="translate(-102.867 -610.025)" fill="#fff006" stroke="#000" stroke-miterlimit="10" stroke-width="2"/>
        <line id="Línea_3238-2" data-name="Línea 3238" y2="8.634" transform="translate(26.797 33.258)" fill="none" stroke="#000" stroke-miterlimit="10" stroke-width="2"/>
        <path id="Trazado_997623-2" data-name="Trazado 997623" d="M133.157,647.74l2.669,3.47,3-3.47" transform="translate(-109.027 -617.951)" fill="#fff006" stroke="#000" stroke-miterlimit="10" stroke-width="2"/>
        <path id="Trazado_997624-2" data-name="Trazado 997624" d="M132.431,691.931a3.07,3.07,0,1,0,6.14,0" transform="translate(-108.711 -637.173)" fill="#fff006" stroke="#000" stroke-miterlimit="10" stroke-width="2"/>
      </g>
      <rect id="Rectángulo_459857-2" data-name="Rectángulo 459857" width="80" height="80" transform="translate(705.258 1688)" fill="#fff006"/>
    </g>
    <g id="Grupo_1212335" data-name="Grupo 1212335" transform="translate(717.168 421.79)">
      <g id="Grupo_1212334" data-name="Grupo 1212334" clip-path="url(#clip-path)">
        <path id="Trazado_1273956" data-name="Trazado 1273956" d="M46.569,31.208l-2.576-2.794a1.062,1.062,0,0,1-.331-.929l1.354-9.76a2.556,2.556,0,0,1-.751-2.206l-2.26.056a5.88,5.88,0,0,0-4.011,1.86l-3.95,4.007c-.32.325-.95.7-1.368.289l-4.8-4.755a1.952,1.952,0,0,0-2.747.037,1.983,1.983,0,0,0-.089,2.813l6.585,6.655a1.959,1.959,0,0,0,2.728.273l4.364-4.314a.918.918,0,0,1,1.542.757l0,9.28a.919.919,0,1,1-1.83,0v-7.1l-2.689,2.651a3.728,3.728,0,0,1-5.113.025c-2.468-2.42-4.9-4.767-7.192-7.353a3.749,3.749,0,0,1,.456-5.055,3.823,3.823,0,0,1,5.216-.047l4.1,4.062,3.728-3.727a8.664,8.664,0,0,1,6.594-2.255A9.5,9.5,0,0,1,40.7,5.509a6.518,6.518,0,0,1,7.651-5.4,6.666,6.666,0,0,1,5.28,7.753,9.328,9.328,0,0,1-2.876,5.833A9.014,9.014,0,0,1,57.9,16.425l3.192,3.239,4.1-4.069a3.827,3.827,0,0,1,5.284.111,3.742,3.742,0,0,1,.212,5.244l-7.02,7.1a3.659,3.659,0,0,1-5.036.039l-2.712-2.639-.028,7.03a.936.936,0,0,1-.875,1,.9.9,0,0,1-.972-.867l-.006-9.556a.928.928,0,0,1,.524-.774.907.907,0,0,1,1.017.15l4.366,4.33a1.878,1.878,0,0,0,2.489-.076l6.828-6.86a2.032,2.032,0,0,0-.017-2.745,1.951,1.951,0,0,0-2.742-.173l-4.879,4.836a.9.9,0,0,1-1.058-.042l-4.339-4.335c-1.6-1.6-3.847-1.982-6.172-1.841a2.717,2.717,0,0,1-.773,2.244L50.708,27.9,47.85,31.117a.916.916,0,0,1-1.281.091M51.857,6.839a4.707,4.707,0,0,0-9.386-.721c-.244,3,1.384,6.939,4.625,6.993,3.028.05,4.606-3.186,4.76-6.272M48.77,27.289l-1.393-9.774c-.169-1.182,1.174-1.014.756-1.93a6.092,6.092,0,0,0-1.9-.013c-.276.039-.189.747.174.861a.865.865,0,0,1,.558.868l-1.44,10.1a19.558,19.558,0,0,1,1.635,1.772Z" transform="translate(-19.315 0)" fill="#12263f"/>
        <path id="Trazado_1273957" data-name="Trazado 1273957" d="M41.62,241.039a3.757,3.757,0,0,0-3.676,3.539L37.9,248.36a.857.857,0,0,1-.857.947.885.885,0,0,1-.943-.808l-.074-4.107a4,4,0,0,0-3.913-3.4H23.847a4,4,0,0,0-3.913,3.4L19.86,248.5a.875.875,0,0,1-.942.8.861.861,0,0,1-.86-.942L18.03,244.7a3.789,3.789,0,0,0-3.64-3.656l-8.8-.017a3.854,3.854,0,0,0-3.655,3.188l-.071,3.994c-.01.586-.256,1.015-.789,1.086A.937.937,0,0,1,0,248.348l.039-3.966a6.083,6.083,0,0,1,6.387-5.307,8.867,8.867,0,0,1-2.239-5.094,5.816,5.816,0,1,1,11.507-.1,8.4,8.4,0,0,1-2.218,5.191,6.465,6.465,0,0,1,5.488,2.746,6.436,6.436,0,0,1,5.52-2.745,8.068,8.068,0,0,1-2.242-5.152,5.8,5.8,0,1,1,11.455.143,8.244,8.244,0,0,1-2.218,5.01A6.43,6.43,0,0,1,37,241.818a6.463,6.463,0,0,1,5.488-2.747,8.338,8.338,0,0,1-2.213-5.191,5.811,5.811,0,1,1,11.513-.024,8.892,8.892,0,0,1-2.248,5.22,6.08,6.08,0,0,1,6.385,5.306l.041,3.965a.939.939,0,0,1-.935.956c-.62,0-.929-.458-.937-1.094l-.046-3.863a3.85,3.85,0,0,0-3.677-3.321ZM13.9,233.032a3.941,3.941,0,0,0-7.837-.575c-.344,2.66,1.122,6.16,3.872,6.167,2.552.007,3.994-2.99,3.966-5.592m18.027.577a3.978,3.978,0,1,0-7.886,0c.3,2.624,1.649,5.138,4.149,5.018,2.288-.11,3.465-2.6,3.737-5.017m17.98-1.151a3.939,3.939,0,0,0-7.83.425c-.109,2.721,1.466,5.867,4.095,5.738,2.686-.132,4.072-3.581,3.735-6.164" transform="translate(-0.001 -193.777)" fill="#12263f"/>
        <path id="Trazado_1273958" data-name="Trazado 1273958" d="M259.332,12.15l-3.958,3.14a.952.952,0,0,1-.927-.046.878.878,0,0,1-.4-.773l-.012-2.319a3,3,0,0,1-2.255-.578,2.7,2.7,0,0,1-.925-2.113l.024-6.652A2.337,2.337,0,0,1,252.921.485l11.5,0a2.309,2.309,0,0,1,2.034,2.18l.006,7.087a2.51,2.51,0,0,1-2.62,2.422Zm-3.371.313,2.626-2.1,5.363-.044a.748.748,0,0,0,.711-.743l0-6.579a.768.768,0,0,0-.834-.774l-10.454.01a.7.7,0,0,0-.672.643l-.008,6.668a.778.778,0,0,0,.823.792l1.465.006c1.115,0,.788,1.137.982,2.116" transform="translate(-213.891 -0.41)" fill="#12263f"/>
        <path id="Trazado_1273959" data-name="Trazado 1273959" d="M282.148,45.589l-7.073.02a.963.963,0,0,1-.866-.929.935.935,0,0,1,1-.913l6.888.012a.914.914,0,0,1,.867.789.929.929,0,0,1-.81,1.022" transform="translate(-233.805 -37.318)" fill="#12263f"/>
        <path id="Trazado_1273960" data-name="Trazado 1273960" d="M295.809,25.289l-4.544.03a.983.983,0,0,1-1-.812.915.915,0,0,1,.824-1.059H295.8a.952.952,0,0,1,.846.821.929.929,0,0,1-.838,1.021" transform="translate(-247.488 -19.992)" fill="#12263f"/>
        <path id="Trazado_1273961" data-name="Trazado 1273961" d="M274.836,23.415a.9.9,0,0,1,1.177.521.961.961,0,0,1-.56,1.217.917.917,0,0,1-1.156-.517.935.935,0,0,1,.539-1.222" transform="translate(-233.819 -19.908)" fill="#12263f"/>
      </g>
    </g>
  </g>
</svg>
