<svg xmlns="http://www.w3.org/2000/svg" xmlns:xlink="http://www.w3.org/1999/xlink" width="84" height="84" viewBox="0 0 84 84">
  <defs>
    <clipPath id="clip-path">
      <rect id="Rectángulo_465339" data-name="Rectángulo 465339" width="56.684" height="63.895" fill="#12263f"/>
    </clipPath>
  </defs>
  <g id="Grupo_1188705" data-name="Grupo 1188705" transform="translate(-705.629 -410)">
    <g id="Grupo_1188476" data-name="Grupo 1188476" transform="translate(2.841 -1273.207)">
      <g id="Grupo_1185067" data-name="Grupo 1185067" transform="translate(719.227 1696)">
        <path id="Trazado_997620" data-name="Trazado 997620" d="M133.124,646.71a15.477,15.477,0,1,0-14.332-.01" transform="translate(-99.168 -604.804)" fill="#3a552a" stroke="#000" stroke-miterlimit="10" stroke-width="2"/>
        <rect id="Rectángulo_454823" data-name="Rectángulo 454823" width="14.333" height="4.288" transform="translate(19.625 41.893)" fill="#3a552a" stroke="#000" stroke-miterlimit="10" stroke-width="2"/>
        <rect id="Rectángulo_454824" data-name="Rectángulo 454824" width="14.333" height="4.288" transform="translate(19.625 46.181)" fill="#3a552a" stroke="#000" stroke-miterlimit="10" stroke-width="2"/>
        <path id="Trazado_997621" data-name="Trazado 997621" d="M135.492,688.628h-6.283a4.025,4.025,0,0,1-4.025-4.025v-.263h14.333v.263A4.025,4.025,0,0,1,135.492,688.628Z" transform="translate(-105.559 -633.871)" fill="#3a552a" stroke="#000" stroke-miterlimit="10" stroke-width="2"/>
        <line id="Línea_3231" data-name="Línea 3231" y1="7.578" transform="translate(26.797)" fill="none" stroke="#000" stroke-miterlimit="10" stroke-width="2"/>
        <line id="Línea_3232" data-name="Línea 3232" x1="4.454" y1="6.13" transform="translate(10.236 5.387)" fill="none" stroke="#000" stroke-miterlimit="10" stroke-width="2"/>
        <line id="Línea_3233" data-name="Línea 3233" x1="7.2" y1="2.336" transform="translate(0 19.477)" fill="none" stroke="#000" stroke-miterlimit="10" stroke-width="2"/>
        <line id="Línea_3234" data-name="Línea 3234" x1="7.2" y2="2.341" transform="translate(0 34.55)" fill="none" stroke="#000" stroke-miterlimit="10" stroke-width="2"/>
        <line id="Línea_3235" data-name="Línea 3235" x1="7.2" y1="2.341" transform="translate(46.398 34.55)" fill="none" stroke="#000" stroke-miterlimit="10" stroke-width="2"/>
        <line id="Línea_3236" data-name="Línea 3236" x1="7.2" y2="2.336" transform="translate(46.398 19.477)" fill="none" stroke="#000" stroke-miterlimit="10" stroke-width="2"/>
        <line id="Línea_3237" data-name="Línea 3237" x1="4.454" y2="6.125" transform="translate(38.91 5.387)" fill="none" stroke="#000" stroke-miterlimit="10" stroke-width="2"/>
        <path id="Trazado_997622" data-name="Trazado 997622" d="M119,638.208a10.647,10.647,0,0,1,4.484-8.693" transform="translate(-102.867 -610.025)" fill="#3a552a" stroke="#000" stroke-miterlimit="10" stroke-width="2"/>
        <line id="Línea_3238" data-name="Línea 3238" y2="8.634" transform="translate(26.797 33.258)" fill="none" stroke="#000" stroke-miterlimit="10" stroke-width="2"/>
        <path id="Trazado_997623" data-name="Trazado 997623" d="M133.157,647.74l2.669,3.47,3-3.47" transform="translate(-109.027 -617.951)" fill="#3a552a" stroke="#000" stroke-miterlimit="10" stroke-width="2"/>
        <path id="Trazado_997624" data-name="Trazado 997624" d="M132.431,691.931a3.07,3.07,0,1,0,6.14,0" transform="translate(-108.711 -637.173)" fill="#3a552a" stroke="#000" stroke-miterlimit="10" stroke-width="2"/>
      </g>
      <rect id="Rectángulo_459857" data-name="Rectángulo 459857" width="81" height="79" transform="translate(705.788 1688.207)" fill="#3a552a"/>
    </g>
    <g id="Grupo_1188599" data-name="Grupo 1188599" transform="translate(0.371 -1278)">
      <g id="Grupo_1185067-2" data-name="Grupo 1185067" transform="translate(718.472 1696)">
        <path id="Trazado_997620-2" data-name="Trazado 997620" d="M133.124,646.71a15.477,15.477,0,1,0-14.332-.01" transform="translate(-99.168 -604.804)" fill="#fff006" stroke="#000" stroke-miterlimit="10" stroke-width="2"/>
        <rect id="Rectángulo_454823-2" data-name="Rectángulo 454823" width="14.333" height="4.288" transform="translate(19.625 41.893)" fill="#fff006" stroke="#000" stroke-miterlimit="10" stroke-width="2"/>
        <rect id="Rectángulo_454824-2" data-name="Rectángulo 454824" width="14.333" height="4.288" transform="translate(19.625 46.181)" fill="#fff006" stroke="#000" stroke-miterlimit="10" stroke-width="2"/>
        <path id="Trazado_997621-2" data-name="Trazado 997621" d="M135.492,688.628h-6.283a4.025,4.025,0,0,1-4.025-4.025v-.263h14.333v.263A4.025,4.025,0,0,1,135.492,688.628Z" transform="translate(-105.559 -633.871)" fill="#fff006" stroke="#000" stroke-miterlimit="10" stroke-width="2"/>
        <line id="Línea_3231-2" data-name="Línea 3231" y1="7.578" transform="translate(26.797)" fill="none" stroke="#000" stroke-miterlimit="10" stroke-width="2"/>
        <line id="Línea_3232-2" data-name="Línea 3232" x1="4.454" y1="6.13" transform="translate(10.236 5.387)" fill="none" stroke="#000" stroke-miterlimit="10" stroke-width="2"/>
        <line id="Línea_3233-2" data-name="Línea 3233" x1="7.2" y1="2.336" transform="translate(0 19.477)" fill="none" stroke="#000" stroke-miterlimit="10" stroke-width="2"/>
        <line id="Línea_3234-2" data-name="Línea 3234" x1="7.2" y2="2.341" transform="translate(0 34.55)" fill="none" stroke="#000" stroke-miterlimit="10" stroke-width="2"/>
        <line id="Línea_3235-2" data-name="Línea 3235" x1="7.2" y1="2.341" transform="translate(46.398 34.55)" fill="none" stroke="#000" stroke-miterlimit="10" stroke-width="2"/>
        <line id="Línea_3236-2" data-name="Línea 3236" x1="7.2" y2="2.336" transform="translate(46.398 19.477)" fill="none" stroke="#000" stroke-miterlimit="10" stroke-width="2"/>
        <line id="Línea_3237-2" data-name="Línea 3237" x1="4.454" y2="6.125" transform="translate(38.91 5.387)" fill="none" stroke="#000" stroke-miterlimit="10" stroke-width="2"/>
        <path id="Trazado_997622-2" data-name="Trazado 997622" d="M119,638.208a10.647,10.647,0,0,1,4.484-8.693" transform="translate(-102.867 -610.025)" fill="#fff006" stroke="#000" stroke-miterlimit="10" stroke-width="2"/>
        <line id="Línea_3238-2" data-name="Línea 3238" y2="8.634" transform="translate(26.797 33.258)" fill="none" stroke="#000" stroke-miterlimit="10" stroke-width="2"/>
        <path id="Trazado_997623-2" data-name="Trazado 997623" d="M133.157,647.74l2.669,3.47,3-3.47" transform="translate(-109.027 -617.951)" fill="#fff006" stroke="#000" stroke-miterlimit="10" stroke-width="2"/>
        <path id="Trazado_997624-2" data-name="Trazado 997624" d="M132.431,691.931a3.07,3.07,0,1,0,6.14,0" transform="translate(-108.711 -637.173)" fill="#fff006" stroke="#000" stroke-miterlimit="10" stroke-width="2"/>
      </g>
      <rect id="Rectángulo_459857-2" data-name="Rectángulo 459857" width="80" height="80" transform="translate(705.258 1688)" fill="#fff006"/>
    </g>
    <g id="Grupo_1212284" data-name="Grupo 1212284" transform="translate(717.287 418.052)">
      <g id="Grupo_1212283" data-name="Grupo 1212283" clip-path="url(#clip-path)">
        <path id="Trazado_1273759" data-name="Trazado 1273759" d="M33.127,57.168a5.123,5.123,0,0,1-1.754,5.7,4.978,4.978,0,0,1-5.961.067,5.056,5.056,0,0,1-1.835-5.753L8.836,48.668a5.028,5.028,0,0,1-8.494-5.1,5.084,5.084,0,0,1,3.737-3.124l0-17.005A5.045,5.045,0,0,1,2.919,13.91a4.965,4.965,0,0,1,5.929,1.3L23.578,6.7a5.046,5.046,0,1,1,9.532,0l14.73,8.505a4.951,4.951,0,0,1,5.93-1.3,5.046,5.046,0,0,1-1.162,9.528v17a5.046,5.046,0,0,1,.665,9.727,4.926,4.926,0,0,1-5.425-1.5Zm-5.537-55.2a3.138,3.138,0,0,0-2.306,3.891,3.171,3.171,0,1,0,2.306-3.891M32.2,55.559,46.9,47.052a4.988,4.988,0,0,1-.017-3.288l-3.119-1.841a.99.99,0,0,1-.365-1.242.9.9,0,0,1,1.214-.393l3.215,1.8a5.458,5.458,0,0,1,2.9-1.661V23.452a5.515,5.515,0,0,1-2.9-1.667l-3.1,1.772a.921.921,0,0,1-1.373-.474c-.164-.615.131-1,.691-1.32l2.842-1.645a5.245,5.245,0,0,1-.014-3.293l-14.684-8.5A5.817,5.817,0,0,1,29.28,10l0,3.562a.938.938,0,1,1-1.876,0V10a5.749,5.749,0,0,1-2.91-1.67L9.791,16.841a5.05,5.05,0,0,1,.017,3.265l3.366,2.052c.374.228.2,1-.006,1.238a.971.971,0,0,1-1.094.214L8.858,21.783a5.479,5.479,0,0,1-2.908,1.67L5.969,40.47A4.987,4.987,0,0,1,8.863,42.1l3.092-1.775a.994.994,0,0,1,1.276.258.972.972,0,0,1-.217,1.272L9.8,43.768a5.015,5.015,0,0,1-.014,3.277L24.5,55.557A5.432,5.432,0,0,1,27.409,53.9L27.4,50.317a.941.941,0,1,1,1.881,0l.019,3.611A5.041,5.041,0,0,1,32.2,55.559M4.224,15.427a3.158,3.158,0,1,0,1.631,6.1,3.173,3.173,0,0,0,2.262-3.791,3.136,3.136,0,0,0-3.893-2.311m46.637-.007a3.132,3.132,0,0,0-2.267,3.874,3.166,3.166,0,1,0,2.267-3.874M4.847,42.261a3.125,3.125,0,0,0-2.962,3.454A3.168,3.168,0,0,0,8.2,45.151a3.15,3.15,0,0,0-3.349-2.89m46.643,0a3.159,3.159,0,1,0,.389,6.306,3.2,3.2,0,0,0,2.933-3.39,3.147,3.147,0,0,0-3.322-2.915m-24.1,13.593a3.139,3.139,0,0,0-2.066,3.967,3.171,3.171,0,1,0,2.066-3.967" transform="translate(0 0)" fill="#12263f"/>
        <path id="Trazado_1273760" data-name="Trazado 1273760" d="M106,125.816a6.523,6.523,0,0,0-4.161-6.1,5.455,5.455,0,0,1-4.528,0,6.49,6.49,0,0,0-4.166,6.179.89.89,0,0,1-1,.732.924.924,0,0,1-.856-.877,8.334,8.334,0,0,1,4.186-7.251,5.939,5.939,0,0,1-1.374-2.2c-1.1.373-2.291-.117-3.322-.244a6.139,6.139,0,0,0-4.145,5.847.919.919,0,0,1-.892.978.9.9,0,0,1-.964-.829,8.282,8.282,0,0,1,4.17-7.3,5.814,5.814,0,0,1,4.429-9.927,5.723,5.723,0,0,1,5.127,3.851,4.854,4.854,0,0,1,2.117.037,5.812,5.812,0,1,1,9.584,6.04,8.278,8.278,0,0,1,4.17,7.3.908.908,0,0,1-.96.836c-.636-.072-.891-.467-.912-1.147a6.085,6.085,0,0,0-4.124-5.683c-1.041.12-2.22.618-3.334.239a5.856,5.856,0,0,1-1.369,2.207,8.412,8.412,0,0,1,4.19,7.247.933.933,0,0,1-.859.879.914.914,0,0,1-1.006-.819m-9.24-16.543a3.946,3.946,0,1,0-3.007,5.227,5.946,5.946,0,0,1,3.007-5.227m8.651,5.245a4,4,0,0,0,4.545-3.073A3.937,3.937,0,0,0,102.4,109.3a5.955,5.955,0,0,1,3.011,5.221m-6.48-4a3.927,3.927,0,1,0,4.53,3.311,3.925,3.925,0,0,0-4.53-3.311" transform="translate(-71.235 -88.074)" fill="#12263f"/>
        <path id="Trazado_1273761" data-name="Trazado 1273761" d="M139.264,285.306l-16.01.015a.9.9,0,0,1-.808-.891.929.929,0,0,1,.962-.946l15.64,0a.957.957,0,0,1,.955.8c.054.306-.142,1.021-.739,1.022" transform="translate(-102.884 -238.192)" fill="#12263f"/>
        <path id="Trazado_1273762" data-name="Trazado 1273762" d="M207.207,262.4l-2.937.05a.914.914,0,0,1-.977-.926.885.885,0,0,1,.92-.937l2.833,0a.933.933,0,0,1,.891.791c.053.369-.177,1.008-.73,1.018" transform="translate(-170.815 -218.957)" fill="#12263f"/>
        <path id="Trazado_1273763" data-name="Trazado 1273763" d="M163.52,260.684a.967.967,0,0,1,1.4.308.919.919,0,0,1-.241,1.171.938.938,0,0,1-1.307-.1.957.957,0,0,1,.147-1.374" transform="translate(-137.086 -218.888)" fill="#12263f"/>
        <path id="Trazado_1273764" data-name="Trazado 1273764" d="M122.9,260.81a.924.924,0,0,1,1.325.417.964.964,0,0,1-.378,1.175.931.931,0,0,1-1.27-.312.868.868,0,0,1,.323-1.279" transform="translate(-102.86 -219.036)" fill="#12263f"/>
        <path id="Trazado_1273765" data-name="Trazado 1273765" d="M143.258,260.82a.928.928,0,1,1,.957,1.587.917.917,0,0,1-1.255-.337.906.906,0,0,1,.3-1.25" transform="translate(-120.01 -219.037)" fill="#12263f"/>
      </g>
    </g>
  </g>
</svg>
