<svg xmlns="http://www.w3.org/2000/svg" xmlns:xlink="http://www.w3.org/1999/xlink" width="84" height="84" viewBox="0 0 84 84">
  <defs>
    <clipPath id="clip-path">
      <rect id="Rectángulo_465365" data-name="Rectángulo 465365" width="52.837" height="55.208" fill="#12263f"/>
    </clipPath>
  </defs>
  <g id="Grupo_1211160" data-name="Grupo 1211160" transform="translate(-705.629 -410)">
    <g id="Grupo_1188476" data-name="Grupo 1188476" transform="translate(2.841 -1273.207)">
      <g id="Grupo_1185067" data-name="Grupo 1185067" transform="translate(719.227 1696)">
        <path id="Trazado_997620" data-name="Trazado 997620" d="M133.124,646.71a15.477,15.477,0,1,0-14.332-.01" transform="translate(-99.168 -604.804)" fill="#3a552a" stroke="#000" stroke-miterlimit="10" stroke-width="2"/>
        <rect id="Rectángulo_454823" data-name="Rectángulo 454823" width="14.333" height="4.288" transform="translate(19.625 41.893)" fill="#3a552a" stroke="#000" stroke-miterlimit="10" stroke-width="2"/>
        <rect id="Rectángulo_454824" data-name="Rectángulo 454824" width="14.333" height="4.288" transform="translate(19.625 46.181)" fill="#3a552a" stroke="#000" stroke-miterlimit="10" stroke-width="2"/>
        <path id="Trazado_997621" data-name="Trazado 997621" d="M135.492,688.628h-6.283a4.025,4.025,0,0,1-4.025-4.025v-.263h14.333v.263A4.025,4.025,0,0,1,135.492,688.628Z" transform="translate(-105.559 -633.871)" fill="#3a552a" stroke="#000" stroke-miterlimit="10" stroke-width="2"/>
        <line id="Línea_3231" data-name="Línea 3231" y1="7.578" transform="translate(26.797)" fill="none" stroke="#000" stroke-miterlimit="10" stroke-width="2"/>
        <line id="Línea_3232" data-name="Línea 3232" x1="4.454" y1="6.13" transform="translate(10.236 5.387)" fill="none" stroke="#000" stroke-miterlimit="10" stroke-width="2"/>
        <line id="Línea_3233" data-name="Línea 3233" x1="7.2" y1="2.336" transform="translate(0 19.477)" fill="none" stroke="#000" stroke-miterlimit="10" stroke-width="2"/>
        <line id="Línea_3234" data-name="Línea 3234" x1="7.2" y2="2.341" transform="translate(0 34.55)" fill="none" stroke="#000" stroke-miterlimit="10" stroke-width="2"/>
        <line id="Línea_3235" data-name="Línea 3235" x1="7.2" y1="2.341" transform="translate(46.398 34.55)" fill="none" stroke="#000" stroke-miterlimit="10" stroke-width="2"/>
        <line id="Línea_3236" data-name="Línea 3236" x1="7.2" y2="2.336" transform="translate(46.398 19.477)" fill="none" stroke="#000" stroke-miterlimit="10" stroke-width="2"/>
        <line id="Línea_3237" data-name="Línea 3237" x1="4.454" y2="6.125" transform="translate(38.91 5.387)" fill="none" stroke="#000" stroke-miterlimit="10" stroke-width="2"/>
        <path id="Trazado_997622" data-name="Trazado 997622" d="M119,638.208a10.647,10.647,0,0,1,4.484-8.693" transform="translate(-102.867 -610.025)" fill="#3a552a" stroke="#000" stroke-miterlimit="10" stroke-width="2"/>
        <line id="Línea_3238" data-name="Línea 3238" y2="8.634" transform="translate(26.797 33.258)" fill="none" stroke="#000" stroke-miterlimit="10" stroke-width="2"/>
        <path id="Trazado_997623" data-name="Trazado 997623" d="M133.157,647.74l2.669,3.47,3-3.47" transform="translate(-109.027 -617.951)" fill="#3a552a" stroke="#000" stroke-miterlimit="10" stroke-width="2"/>
        <path id="Trazado_997624" data-name="Trazado 997624" d="M132.431,691.931a3.07,3.07,0,1,0,6.14,0" transform="translate(-108.711 -637.173)" fill="#3a552a" stroke="#000" stroke-miterlimit="10" stroke-width="2"/>
      </g>
      <rect id="Rectángulo_459857" data-name="Rectángulo 459857" width="81" height="79" transform="translate(705.788 1688.207)" fill="#3a552a"/>
    </g>
    <g id="Grupo_1188599" data-name="Grupo 1188599" transform="translate(0.371 -1278)">
      <g id="Grupo_1185067-2" data-name="Grupo 1185067" transform="translate(718.472 1696)">
        <path id="Trazado_997620-2" data-name="Trazado 997620" d="M133.124,646.71a15.477,15.477,0,1,0-14.332-.01" transform="translate(-99.168 -604.804)" fill="#fff006" stroke="#000" stroke-miterlimit="10" stroke-width="2"/>
        <rect id="Rectángulo_454823-2" data-name="Rectángulo 454823" width="14.333" height="4.288" transform="translate(19.625 41.893)" fill="#fff006" stroke="#000" stroke-miterlimit="10" stroke-width="2"/>
        <rect id="Rectángulo_454824-2" data-name="Rectángulo 454824" width="14.333" height="4.288" transform="translate(19.625 46.181)" fill="#fff006" stroke="#000" stroke-miterlimit="10" stroke-width="2"/>
        <path id="Trazado_997621-2" data-name="Trazado 997621" d="M135.492,688.628h-6.283a4.025,4.025,0,0,1-4.025-4.025v-.263h14.333v.263A4.025,4.025,0,0,1,135.492,688.628Z" transform="translate(-105.559 -633.871)" fill="#fff006" stroke="#000" stroke-miterlimit="10" stroke-width="2"/>
        <line id="Línea_3231-2" data-name="Línea 3231" y1="7.578" transform="translate(26.797)" fill="none" stroke="#000" stroke-miterlimit="10" stroke-width="2"/>
        <line id="Línea_3232-2" data-name="Línea 3232" x1="4.454" y1="6.13" transform="translate(10.236 5.387)" fill="none" stroke="#000" stroke-miterlimit="10" stroke-width="2"/>
        <line id="Línea_3233-2" data-name="Línea 3233" x1="7.2" y1="2.336" transform="translate(0 19.477)" fill="none" stroke="#000" stroke-miterlimit="10" stroke-width="2"/>
        <line id="Línea_3234-2" data-name="Línea 3234" x1="7.2" y2="2.341" transform="translate(0 34.55)" fill="none" stroke="#000" stroke-miterlimit="10" stroke-width="2"/>
        <line id="Línea_3235-2" data-name="Línea 3235" x1="7.2" y1="2.341" transform="translate(46.398 34.55)" fill="none" stroke="#000" stroke-miterlimit="10" stroke-width="2"/>
        <line id="Línea_3236-2" data-name="Línea 3236" x1="7.2" y2="2.336" transform="translate(46.398 19.477)" fill="none" stroke="#000" stroke-miterlimit="10" stroke-width="2"/>
        <line id="Línea_3237-2" data-name="Línea 3237" x1="4.454" y2="6.125" transform="translate(38.91 5.387)" fill="none" stroke="#000" stroke-miterlimit="10" stroke-width="2"/>
        <path id="Trazado_997622-2" data-name="Trazado 997622" d="M119,638.208a10.647,10.647,0,0,1,4.484-8.693" transform="translate(-102.867 -610.025)" fill="#fff006" stroke="#000" stroke-miterlimit="10" stroke-width="2"/>
        <line id="Línea_3238-2" data-name="Línea 3238" y2="8.634" transform="translate(26.797 33.258)" fill="none" stroke="#000" stroke-miterlimit="10" stroke-width="2"/>
        <path id="Trazado_997623-2" data-name="Trazado 997623" d="M133.157,647.74l2.669,3.47,3-3.47" transform="translate(-109.027 -617.951)" fill="#fff006" stroke="#000" stroke-miterlimit="10" stroke-width="2"/>
        <path id="Trazado_997624-2" data-name="Trazado 997624" d="M132.431,691.931a3.07,3.07,0,1,0,6.14,0" transform="translate(-108.711 -637.173)" fill="#fff006" stroke="#000" stroke-miterlimit="10" stroke-width="2"/>
      </g>
      <rect id="Rectángulo_459857-2" data-name="Rectángulo 459857" width="80" height="80" transform="translate(705.258 1688)" fill="#fff006"/>
    </g>
    <g id="Grupo_1212337" data-name="Grupo 1212337" transform="translate(719.21 421.396)">
      <g id="Grupo_1212336" data-name="Grupo 1212336" clip-path="url(#clip-path)">
        <path id="Trazado_1273962" data-name="Trazado 1273962" d="M36.136,55.188l-19.385.02c-1.224,0-.868-1.866-.319-3.407l-15.5.007c-.423,0-.97-.282-.933-.793a10.519,10.519,0,0,1,6.981-9.057,5.792,5.792,0,0,1,1.394-9.973,27.964,27.964,0,0,1-1.163-3.276L3.939,27.436a.865.865,0,0,1-.6-.838l.011-6.261a.761.761,0,0,1,.49-.659l3.376-1.323a20.663,20.663,0,0,1,2.1-5.038L7.85,10A.915.915,0,0,1,8.1,8.989l4.2-4.2a.957.957,0,0,1,1-.255l3.327,1.445A20.635,20.635,0,0,1,21.681,3.9L22.94.63A.969.969,0,0,1,23.86,0h5.967a.977.977,0,0,1,.931.6l1.273,3.288A20.845,20.845,0,0,1,37.083,6l3-1.335c.329-.146.859-.317,1.166-.012l4.347,4.325a1.094,1.094,0,0,1,.141,1.347l-1.353,2.962A21.585,21.585,0,0,1,46.5,18.348l3.357,1.321a.95.95,0,0,1,.533.943l-.027,6.121c0,.337-.344.6-.606.7L46.5,28.717a24.3,24.3,0,0,1-1.345,3.6,5.8,5.8,0,0,1,.69,9.648,10.552,10.552,0,0,1,6.99,8.964.838.838,0,0,1-.8.877L36.4,51.8c.529,1.477.907,3.384-.263,3.385M31.265,37.6a5.912,5.912,0,0,1,.949,3.652,17.761,17.761,0,0,0,4.613-2.1,5.7,5.7,0,0,1,1.217-5.676A5.8,5.8,0,0,1,43.463,31.7a19.392,19.392,0,0,0,1.412-3.866.964.964,0,0,1,.621-.658L48.6,26l.006-4.911-3.19-1.243a1.1,1.1,0,0,1-.606-.822,18.589,18.589,0,0,0-2.236-5.3c-.2-.333,0-.729.129-1.023l1.247-2.83L40.506,6.447,36.953,7.974a19.422,19.422,0,0,0-5.588-2.4,1.158,1.158,0,0,1-.876-.712L29.331,1.826,24.4,1.806l-1.157,2.97c-.1.267-.261.626-.583.7a20.312,20.312,0,0,0-5.9,2.488L13.193,6.432,9.751,9.888l1.37,3.1a1.062,1.062,0,0,1-.146,1.028,17.784,17.784,0,0,0-2.083,5.025,1.017,1.017,0,0,1-.61.825L5.117,21.093l.006,4.864,3.609,1.492a20.152,20.152,0,0,0,1.453,4.127,5.827,5.827,0,0,1,5.764,7.838,1.176,1.176,0,0,1,1.275-.068,17.6,17.6,0,0,0,3.384,1.6,5.977,5.977,0,0,1,1.114-3.6,14.735,14.735,0,1,1,9.544.25m-.5-11.379a13.514,13.514,0,0,1,6.678,4.747,12.947,12.947,0,1,0-21.182.022,13.335,13.335,0,0,1,6.677-4.772,7.065,7.065,0,1,1,7.827,0M25.841,15.153a5.279,5.279,0,1,0,6.2,4.177,5.269,5.269,0,0,0-6.2-4.177M25.535,29.21,23.7,27.864c-.146-.107-.349.088-.26.25l1.2,2.182a3.569,3.569,0,0,0,.889-1.086M29.064,30.3l1.262-2.485c-.917.212-1.371.929-2.124,1.374a2.717,2.717,0,0,0,.863,1.11m-4.592,2.521c-.266-.131-.534-.2-.632-.368l-2.188-3.791a11.451,11.451,0,0,0-4.208,3.752,13.03,13.03,0,0,0,5.674,3.532l.846-.436a21.157,21.157,0,0,1,.507-2.688m5.182,2.655c-.031.2-.145.394-.015.48.061.04.224.175.349.144a12.807,12.807,0,0,0,6.264-3.687,10.82,10.82,0,0,0-4.238-3.748L29.76,32.626c-1.1.077.116,1.431-.107,2.852m-1.781-.487-1.011-4.566-1.035,4.558Zm-18.4-1.478a4,4,0,1,0,4.922,2.859,3.99,3.99,0,0,0-4.922-2.859m31.748.012a3.969,3.969,0,0,0-2.707,5.089,4.006,4.006,0,1,0,2.707-5.089M25.844,36.789a4,4,0,1,0,1.191,7.9,4,4,0,0,0-1.191-7.9M22.9,45.312a7.1,7.1,0,0,1-1.839-2.242,26.707,26.707,0,0,1-4.433-2.021l-2.237,1.033a10.8,10.8,0,0,1,5.47,4.924A12.858,12.858,0,0,1,22.9,45.312M32.98,46.98a10.564,10.564,0,0,1,5.812-5,5.57,5.57,0,0,0-1.72-.9,20.777,20.777,0,0,1-5.472,2.2,6,6,0,0,1-1.661,2.059,12.788,12.788,0,0,1,3.04,1.636M17.244,50.058a9.093,9.093,0,0,1,1.265-1.749,8.787,8.787,0,0,0-16.583,1.76Zm18.4.011,15.261,0a8.79,8.79,0,0,0-16.584-1.76,15.1,15.1,0,0,1,1.323,1.762M35,53.377a8.8,8.8,0,0,0-17.163.02Z" transform="translate(0)" fill="#12263f"/>
      </g>
    </g>
  </g>
</svg>
