<svg xmlns="http://www.w3.org/2000/svg" xmlns:xlink="http://www.w3.org/1999/xlink" width="84" height="84" viewBox="0 0 84 84">
  <defs>
    <clipPath id="clip-path">
      <rect id="Rectángulo_465355" data-name="Rectángulo 465355" width="56" height="56" transform="translate(0 0)" fill="#12263f"/>
    </clipPath>
  </defs>
  <g id="Grupo_1211115" data-name="Grupo 1211115" transform="translate(-705.629 -410)">
    <g id="Grupo_1188476" data-name="Grupo 1188476" transform="translate(2.841 -1273.207)">
      <g id="Grupo_1185067" data-name="Grupo 1185067" transform="translate(719.227 1696)">
        <path id="Trazado_997620" data-name="Trazado 997620" d="M133.124,646.71a15.477,15.477,0,1,0-14.332-.01" transform="translate(-99.168 -604.804)" fill="#3a552a" stroke="#000" stroke-miterlimit="10" stroke-width="2"/>
        <rect id="Rectángulo_454823" data-name="Rectángulo 454823" width="14.333" height="4.288" transform="translate(19.625 41.893)" fill="#3a552a" stroke="#000" stroke-miterlimit="10" stroke-width="2"/>
        <rect id="Rectángulo_454824" data-name="Rectángulo 454824" width="14.333" height="4.288" transform="translate(19.625 46.181)" fill="#3a552a" stroke="#000" stroke-miterlimit="10" stroke-width="2"/>
        <path id="Trazado_997621" data-name="Trazado 997621" d="M135.492,688.628h-6.283a4.025,4.025,0,0,1-4.025-4.025v-.263h14.333v.263A4.025,4.025,0,0,1,135.492,688.628Z" transform="translate(-105.559 -633.871)" fill="#3a552a" stroke="#000" stroke-miterlimit="10" stroke-width="2"/>
        <line id="Línea_3231" data-name="Línea 3231" y1="7.578" transform="translate(26.797)" fill="none" stroke="#000" stroke-miterlimit="10" stroke-width="2"/>
        <line id="Línea_3232" data-name="Línea 3232" x1="4.454" y1="6.13" transform="translate(10.236 5.387)" fill="none" stroke="#000" stroke-miterlimit="10" stroke-width="2"/>
        <line id="Línea_3233" data-name="Línea 3233" x1="7.2" y1="2.336" transform="translate(0 19.477)" fill="none" stroke="#000" stroke-miterlimit="10" stroke-width="2"/>
        <line id="Línea_3234" data-name="Línea 3234" x1="7.2" y2="2.341" transform="translate(0 34.55)" fill="none" stroke="#000" stroke-miterlimit="10" stroke-width="2"/>
        <line id="Línea_3235" data-name="Línea 3235" x1="7.2" y1="2.341" transform="translate(46.398 34.55)" fill="none" stroke="#000" stroke-miterlimit="10" stroke-width="2"/>
        <line id="Línea_3236" data-name="Línea 3236" x1="7.2" y2="2.336" transform="translate(46.398 19.477)" fill="none" stroke="#000" stroke-miterlimit="10" stroke-width="2"/>
        <line id="Línea_3237" data-name="Línea 3237" x1="4.454" y2="6.125" transform="translate(38.91 5.387)" fill="none" stroke="#000" stroke-miterlimit="10" stroke-width="2"/>
        <path id="Trazado_997622" data-name="Trazado 997622" d="M119,638.208a10.647,10.647,0,0,1,4.484-8.693" transform="translate(-102.867 -610.025)" fill="#3a552a" stroke="#000" stroke-miterlimit="10" stroke-width="2"/>
        <line id="Línea_3238" data-name="Línea 3238" y2="8.634" transform="translate(26.797 33.258)" fill="none" stroke="#000" stroke-miterlimit="10" stroke-width="2"/>
        <path id="Trazado_997623" data-name="Trazado 997623" d="M133.157,647.74l2.669,3.47,3-3.47" transform="translate(-109.027 -617.951)" fill="#3a552a" stroke="#000" stroke-miterlimit="10" stroke-width="2"/>
        <path id="Trazado_997624" data-name="Trazado 997624" d="M132.431,691.931a3.07,3.07,0,1,0,6.14,0" transform="translate(-108.711 -637.173)" fill="#3a552a" stroke="#000" stroke-miterlimit="10" stroke-width="2"/>
      </g>
      <rect id="Rectángulo_459857" data-name="Rectángulo 459857" width="81" height="79" transform="translate(705.788 1688.207)" fill="#3a552a"/>
    </g>
    <g id="Grupo_1188599" data-name="Grupo 1188599" transform="translate(0.371 -1278)">
      <g id="Grupo_1185067-2" data-name="Grupo 1185067" transform="translate(718.472 1696)">
        <path id="Trazado_997620-2" data-name="Trazado 997620" d="M133.124,646.71a15.477,15.477,0,1,0-14.332-.01" transform="translate(-99.168 -604.804)" fill="#fff006" stroke="#000" stroke-miterlimit="10" stroke-width="2"/>
        <rect id="Rectángulo_454823-2" data-name="Rectángulo 454823" width="14.333" height="4.288" transform="translate(19.625 41.893)" fill="#fff006" stroke="#000" stroke-miterlimit="10" stroke-width="2"/>
        <rect id="Rectángulo_454824-2" data-name="Rectángulo 454824" width="14.333" height="4.288" transform="translate(19.625 46.181)" fill="#fff006" stroke="#000" stroke-miterlimit="10" stroke-width="2"/>
        <path id="Trazado_997621-2" data-name="Trazado 997621" d="M135.492,688.628h-6.283a4.025,4.025,0,0,1-4.025-4.025v-.263h14.333v.263A4.025,4.025,0,0,1,135.492,688.628Z" transform="translate(-105.559 -633.871)" fill="#fff006" stroke="#000" stroke-miterlimit="10" stroke-width="2"/>
        <line id="Línea_3231-2" data-name="Línea 3231" y1="7.578" transform="translate(26.797)" fill="none" stroke="#000" stroke-miterlimit="10" stroke-width="2"/>
        <line id="Línea_3232-2" data-name="Línea 3232" x1="4.454" y1="6.13" transform="translate(10.236 5.387)" fill="none" stroke="#000" stroke-miterlimit="10" stroke-width="2"/>
        <line id="Línea_3233-2" data-name="Línea 3233" x1="7.2" y1="2.336" transform="translate(0 19.477)" fill="none" stroke="#000" stroke-miterlimit="10" stroke-width="2"/>
        <line id="Línea_3234-2" data-name="Línea 3234" x1="7.2" y2="2.341" transform="translate(0 34.55)" fill="none" stroke="#000" stroke-miterlimit="10" stroke-width="2"/>
        <line id="Línea_3235-2" data-name="Línea 3235" x1="7.2" y1="2.341" transform="translate(46.398 34.55)" fill="none" stroke="#000" stroke-miterlimit="10" stroke-width="2"/>
        <line id="Línea_3236-2" data-name="Línea 3236" x1="7.2" y2="2.336" transform="translate(46.398 19.477)" fill="none" stroke="#000" stroke-miterlimit="10" stroke-width="2"/>
        <line id="Línea_3237-2" data-name="Línea 3237" x1="4.454" y2="6.125" transform="translate(38.91 5.387)" fill="none" stroke="#000" stroke-miterlimit="10" stroke-width="2"/>
        <path id="Trazado_997622-2" data-name="Trazado 997622" d="M119,638.208a10.647,10.647,0,0,1,4.484-8.693" transform="translate(-102.867 -610.025)" fill="#fff006" stroke="#000" stroke-miterlimit="10" stroke-width="2"/>
        <line id="Línea_3238-2" data-name="Línea 3238" y2="8.634" transform="translate(26.797 33.258)" fill="none" stroke="#000" stroke-miterlimit="10" stroke-width="2"/>
        <path id="Trazado_997623-2" data-name="Trazado 997623" d="M133.157,647.74l2.669,3.47,3-3.47" transform="translate(-109.027 -617.951)" fill="#fff006" stroke="#000" stroke-miterlimit="10" stroke-width="2"/>
        <path id="Trazado_997624-2" data-name="Trazado 997624" d="M132.431,691.931a3.07,3.07,0,1,0,6.14,0" transform="translate(-108.711 -637.173)" fill="#fff006" stroke="#000" stroke-miterlimit="10" stroke-width="2"/>
      </g>
      <rect id="Rectángulo_459857-2" data-name="Rectángulo 459857" width="80" height="80" transform="translate(705.258 1688)" fill="#fff006"/>
    </g>
    <g id="Grupo_1212317" data-name="Grupo 1212317" transform="translate(717.826 421.217)">
      <g id="Grupo_1212316" data-name="Grupo 1212316" transform="translate(-0.197 -0.192)" clip-path="url(#clip-path)">
        <path id="Trazado_1273879" data-name="Trazado 1273879" d="M40.135,52.881a24.432,24.432,0,0,1-24.179.006c-2.615,1.264-5.392.858-8.2-.156a4.381,4.381,0,1,1-6.17-6.163C.125,42.5.061,38.156,3.895,35.876A24.519,24.519,0,0,1,18.5,8.934l.833-1.121A14.692,14.692,0,0,1,23.7,4.754a4.37,4.37,0,1,1,8.707.006A14.859,14.859,0,0,1,36.69,7.74l.889,1.2A24.432,24.432,0,0,1,52.184,35.875c3.852,2.275,3.77,6.625,2.321,10.7a4.376,4.376,0,1,1-6.153,6.168c-2.737.945-5.614,1.471-8.218.14M27.2,1.906a2.6,2.6,0,0,0-1.645,3.306,2.631,2.631,0,0,0,5.024-1.556A2.565,2.565,0,0,0,27.2,1.906M37.539,50.29l-2.426-4.223A3.026,3.026,0,0,1,36.4,41.922a3.138,3.138,0,0,1,4.125,1.236L42.234,46.1c.176.3,1.744.21,1.506,1.35a.89.89,0,0,1-1.108.672l-1.543-.468-2.165-3.718a1.276,1.276,0,0,0-1.863-.378,1.341,1.341,0,0,0-.314,1.864l2.707,4.561c1.438,2.423,5.375,2.218,8.058,1.179a4.361,4.361,0,0,1,5.409-5.416c1.063-2.872,1.3-6.65-1.411-8.23l-4.428-2.577a1.3,1.3,0,0,0-1.8.416,1.276,1.276,0,0,0,.345,1.752l3.688,2.2c.412.246.367,1,.52,1.408a.892.892,0,0,1-.63,1.255c-1.09.289-1.066-1.344-1.339-1.5l-3.1-1.82a3.027,3.027,0,0,1-.935-4.275,3.075,3.075,0,0,1,4.177-.921l2.569,1.467a22.788,22.788,0,0,0-12.084-23.63,8.26,8.26,0,0,1-.1,2.547L37.048,18.8a3.051,3.051,0,0,1-3.859,2.074,3.137,3.137,0,0,1-2.01-3.865l.885-3.262-.379-.716a.9.9,0,0,1,.412-1.349c1.052-.371,1.827,1.662,1.767,1.9l-1.032,4.076a1.288,1.288,0,0,0,1.16,1.6c.781.08,1.266-.45,1.469-1.232l1.263-4.868c.76-2.93-2.184-5.469-4.837-6.656a4.41,4.41,0,0,1-7.687,0c-2.731,1.233-5.6,3.753-4.81,6.782l1.242,4.748c.217.83.748,1.365,1.6,1.212a1.28,1.28,0,0,0,1.022-1.584l-1.032-4.074c-.064-.251.755-2.379,1.867-1.852a.908.908,0,0,1,.258,1.395c-.128.186-.336.475-.267.734l.831,3.149A3.145,3.145,0,0,1,22.9,20.874,3.049,3.049,0,0,1,19.04,18.8L17.726,13.95a8.926,8.926,0,0,1-.174-2.646A22.776,22.776,0,0,0,5.5,34.909l2.762-1.561A3.064,3.064,0,0,1,11.243,38.7l-3.02,1.762c-.265.154-.256,1.794-1.338,1.506a.892.892,0,0,1-.629-1.255c.152-.4.108-1.164.519-1.409L10.468,37.1a1.3,1.3,0,0,0,.239-1.889,1.356,1.356,0,0,0-1.794-.23L5.176,37.125C1.808,39.058,2,42.225,3.169,45.743a4.361,4.361,0,0,1,5.407,5.415c3.156,1.1,6.655,1.343,8.4-1.674l2.41-4.163A1.317,1.317,0,0,0,18.94,43.5a1.278,1.278,0,0,0-1.775.434L15,47.652l-1.543.467a.886.886,0,0,1-1.125-.795c-.078-1.066,1.333-.863,1.587-1.3l1.648-2.86a3.13,3.13,0,0,1,4.216-1.189,3.019,3.019,0,0,1,1.193,4.1l-2.4,4.18A10.01,10.01,0,0,1,17.5,51.725a22.683,22.683,0,0,0,21.084,0ZM3.505,47.483A2.617,2.617,0,0,0,5.15,52.452,2.646,2.646,0,0,0,6.9,49.2a2.593,2.593,0,0,0-3.392-1.722m47.4-.016a2.566,2.566,0,0,0-1.667,3.328,2.624,2.624,0,0,0,5.017-1.53,2.615,2.615,0,0,0-3.35-1.8" transform="translate(0.161 0.156)" fill="#12263f"/>
        <path id="Trazado_1273880" data-name="Trazado 1273880" d="M141.312,176.447l-8.212-.009a2.76,2.76,0,0,1-2.875-3.062c.017-.172,0-.394-.138-.468a.5.5,0,0,0-.468.084l-3.079,3.086a.876.876,0,0,1-.964.28.916.916,0,0,1-.619-.874l.013-10.512a2.6,2.6,0,0,1,2.7-2.6l10.44.008a2.756,2.756,0,0,1,2.592,3.469l2.717.037a2.569,2.569,0,0,1,2.572,2.589L146,178.99a.914.914,0,0,1-.618.873.945.945,0,0,1-1.037-.346Zm-3.059-5.321a.821.821,0,0,0,.725-.832v-5.32a.83.83,0,0,0-.848-.838l-10.5,0a.864.864,0,0,0-.905.836l.014,8.349,2.236-2.145Zm-5.356,3.521,9.088.028,2.24,2.148,0-8.481c0-.445-.519-.7-.873-.7l-2.6,0-.007,2.63a2.706,2.706,0,0,1-2.768,2.654l-5.974,0a3.4,3.4,0,0,0,0,1,.834.834,0,0,0,.9.721" transform="translate(-107.273 -139.448)" fill="#12263f"/>
        <path id="Trazado_1273881" data-name="Trazado 1273881" d="M150.492,193.84a.866.866,0,1,1-.283,1.236.877.877,0,0,1,.283-1.236" transform="translate(-128.862 -166.402)" fill="#12263f"/>
        <path id="Trazado_1273882" data-name="Trazado 1273882" d="M175.492,193.84a.866.866,0,1,1-.283,1.236.877.877,0,0,1,.283-1.236" transform="translate(-150.356 -166.402)" fill="#12263f"/>
        <path id="Trazado_1273883" data-name="Trazado 1273883" d="M200.492,193.84a.866.866,0,1,1-.283,1.236.877.877,0,0,1,.283-1.236" transform="translate(-171.85 -166.402)" fill="#12263f"/>
      </g>
    </g>
  </g>
</svg>
