<svg xmlns="http://www.w3.org/2000/svg" xmlns:xlink="http://www.w3.org/1999/xlink" width="187.711" height="145.743" viewBox="0 0 187.711 145.743">
  <defs>
    <clipPath id="clip-path">
      <rect id="Rectángulo_465354" data-name="Rectángulo 465354" width="101.721" height="101.411" fill="#12263f"/>
    </clipPath>
  </defs>
  <g id="Grupo_1212315" data-name="Grupo 1212315" transform="translate(-290 -5813.862)">
    <g id="Grupo_1211103" data-name="Grupo 1211103" transform="translate(295.013 5819.155)">
      <g id="Grupo_1204518" data-name="Grupo 1204518">
        <rect id="Rectángulo_455283" data-name="Rectángulo 455283" width="182.698" height="140.45" fill="#3a552a"/>
      </g>
    </g>
    <g id="Grupo_1211104" data-name="Grupo 1211104" transform="translate(290 5813.862)">
      <g id="Grupo_1204518-2" data-name="Grupo 1204518" transform="translate(0 0)">
        <rect id="Rectángulo_455283-2" data-name="Rectángulo 455283" width="183.422" height="140.918" fill="#ffe4b3"/>
      </g>
    </g>
    <g id="Grupo_1212314" data-name="Grupo 1212314" transform="translate(330.85 5833.615)">
      <g id="Grupo_1212313" data-name="Grupo 1212313" clip-path="url(#clip-path)">
        <path id="Trazado_1273872" data-name="Trazado 1273872" d="M110.239,134.233h0l20.707-.007c1.556,0,3.1-1.942,3.11-3.391l.127-12.895a3.762,3.762,0,0,0,4.7-.487L151.235,104.3a4.537,4.537,0,0,0,1.181-3.6,5.288,5.288,0,0,0-2.1-3.751c-2.336-1.686-5.158-1.27-7.365,1.088l-6.11,6.527a36.51,36.51,0,0,1-3.453-3.168c-2.585-2.584-5.258-5.255-9.058-5.255h-7.5a10.138,10.138,0,0,0-9.7,9.97l.013,24.828a3.744,3.744,0,0,0,3.093,3.294m13.106-12.73a5.128,5.128,0,0,0,5.147-4.964,5.361,5.361,0,0,0-1.449-3.912,4.686,4.686,0,0,0-3.386-1.483l-6.282-.05-.066-3.163a1.743,1.743,0,0,0-1.734-1.76h-.013a1.778,1.778,0,0,0-1.248.511,1.649,1.649,0,0,0-.488,1.2l.011,5.007a1.734,1.734,0,0,0,1.9,1.774l8.022.06a1.048,1.048,0,0,1,.758.341,1.884,1.884,0,0,1,.5,1.24,1.677,1.677,0,0,1-1.534,1.68l-12.914,0-.034-11.033a7.746,7.746,0,0,1,2.176-5.487,6.187,6.187,0,0,1,4.462-1.858h.016l7.053.016c2.125,0,3.533,1.314,5.037,2.713l6.234,5.8a1.986,1.986,0,0,0,3.033-.194l7.9-8.365a.844.844,0,0,1,.743-.216,2.172,2.172,0,0,1,1.433.811,1.7,1.7,0,0,1-.253,2.167L136.378,115.1a9.131,9.131,0,0,1-1.85-1.4c-.892-.81-1.733-1.575-2.835-1.125a1.812,1.812,0,0,0-1.062,1.873l-.04,16.335-19.885.043-.158-9.221Z" transform="translate(-76.36 -68.369)" fill="#12263f"/>
        <path id="Trazado_1273873" data-name="Trazado 1273873" d="M37.978,205.3l-2.8-.083a6.616,6.616,0,0,0-1.642-4.613,6.126,6.126,0,0,0-4.31-2.034l-2.854-.139a8.468,8.468,0,0,0-12.746-11.021A8.445,8.445,0,0,0,12.5,198.424l-2.65.128a6.391,6.391,0,0,0-6.178,6.472l.035,15.516a6.193,6.193,0,0,0,6.087,6.1l23.261.035h0a1.711,1.711,0,0,0,1.525-1.291l5.055-17.993a1.541,1.541,0,0,0-.247-1.354,1.856,1.856,0,0,0-1.412-.74M24.225,192.234a4.978,4.978,0,1,1-9.214-.973,4.9,4.9,0,0,1,2.938-2.424,4.992,4.992,0,0,1,3.913.373,4.873,4.873,0,0,1,2.362,3.025m7.462,13.043-8.964.032a1.7,1.7,0,0,0-1.584,1.19l-3.117,11.063-4.08.017-.069-3.947a1.606,1.606,0,0,0-.594-1.2,1.692,1.692,0,0,0-1.29-.411,1.806,1.806,0,0,0-1.607,1.895l0,5.2a1.861,1.861,0,0,0,1.715,2l11.3.013a3.878,3.878,0,0,1-3.514,2.081h-.02l-10.1-.044a2.774,2.774,0,0,1-2.515-2.345l-.008-16.377a2.762,2.762,0,0,1,2.275-2.285l19.538-.023h0a2.483,2.483,0,0,1,1.915.938,3.106,3.106,0,0,1,.714,2.21M27.1,218.455a1.709,1.709,0,0,0-1.491-.815l-3.994-.017,2.494-8.808,11.481-.009-3.981,14.337-5.279,0c.755-1.595,1.414-3.564.769-4.69" transform="translate(-2.617 -131.949)" fill="#12263f"/>
        <path id="Trazado_1273874" data-name="Trazado 1273874" d="M182.593,227.148a8.408,8.408,0,0,0,2.588-10.019,8.5,8.5,0,0,0-9.214-4.966,8.312,8.312,0,0,0-6.755,6.2,8.593,8.593,0,0,0,2.674,8.569A16.058,16.058,0,0,0,168,230.3l-4.36,5.287-9.707.184a3.662,3.662,0,0,0-2.65,1.249,5.681,5.681,0,0,0-1.423,4.006c.135,2.286,1.938,4.765,4.617,4.785l12.175.089.037,2.823a3.919,3.919,0,0,0,4.017,3.823l12.445.007h0a3.941,3.941,0,0,0,2.8-1.168,4.314,4.314,0,0,0,1.246-3.037l-.015-12.65a10.289,10.289,0,0,0-4.592-8.553m-12.384,17.588,5.623-6.665a1.434,1.434,0,0,0,.293-1.089,1.721,1.721,0,0,0-3.094-.926l-5.437,6.344-12.525-.011a1.623,1.623,0,0,1-1.711-1.434,1.766,1.766,0,0,1,.394-1.361,1.347,1.347,0,0,1,1.033-.45l9.72-.054c1-.006,2.043-1.379,3.491-3.28,2.663-3.494,6.308-8.281,11.4-6.365a6.749,6.749,0,0,1,4.269,6.382L183.593,249H170.286a18.337,18.337,0,0,1-.076-4.259m8.594-19.47a4.938,4.938,0,0,1-6.085-3.173,5.067,5.067,0,0,1,.317-4.01,4.762,4.762,0,0,1,3.033-2.342,4.895,4.895,0,0,1,6.131,3.406,5.011,5.011,0,0,1-3.4,6.118" transform="translate(-106.804 -151.145)" fill="#12263f"/>
        <path id="Trazado_1273875" data-name="Trazado 1273875" d="M288.756,131.036a3.9,3.9,0,0,0-2.791-1.149l-17.9-.012a3.953,3.953,0,0,0-4.082,3.887l-.028,18.95a1.813,1.813,0,0,0,1.355,1.873,1.369,1.369,0,0,0,.375.051,2,2,0,0,0,1.5-.774l4.738-5.92H286.55l.086-.013c1.44-.453,3.126-1.58,3.138-3.269l.078-10.914a3.778,3.778,0,0,0-1.1-2.71m-2.394,13.3-16.032.15-2.855,3.253.059-14.317,18.8.042Z" transform="translate(-188.13 -92.568)" fill="#12263f"/>
        <path id="Trazado_1273876" data-name="Trazado 1273876" d="M192.067,24.747a1.791,1.791,0,0,0,.385.043,1.719,1.719,0,0,0,1.365-.72l4.778-6.008,14.461-.107a3.712,3.712,0,0,0,3.479-3.772l0-10.336a3.913,3.913,0,0,0-1.159-2.74A3.684,3.684,0,0,0,212.765,0h0L194.409.018a3.781,3.781,0,0,0-3.72,3.822l-.014,19.246a1.683,1.683,0,0,0,1.392,1.661M194.134,4.13a.645.645,0,0,1,.188-.479.6.6,0,0,1,.426-.156h.048l18.183.042.087,10.888-16.01.186-2.878,3.272Z" transform="translate(-135.903 0)" fill="#12263f"/>
        <path id="Trazado_1273877" data-name="Trazado 1273877" d="M3.749,109.462l14.166.047,4.641,5.839a1.91,1.91,0,0,0,1.5.834,1.884,1.884,0,0,0,.531-.08,1.644,1.644,0,0,0,1.258-1.461l.015-19.215a4.172,4.172,0,0,0-1.057-2.76,3.582,3.582,0,0,0-2.679-1.225l-18.4-.015h0a3.77,3.77,0,0,0-3.7,3.412L0,105.795a3.809,3.809,0,0,0,3.749,3.667m-.325-4.255.086-10.28,18.285-.046h0a.646.646,0,0,1,.593.586L22.35,109.3l-2.777-3.232-15.262-.061a.834.834,0,0,1-.657-.19.8.8,0,0,1-.231-.61" transform="translate(0 -65.164)" fill="#12263f"/>
        <path id="Trazado_1273878" data-name="Trazado 1273878" d="M133,48.636a8.3,8.3,0,0,0,1.072-.07,8.479,8.479,0,1,0-9.472-7.2,8.58,8.58,0,0,0,8.4,7.266m-3.965-11.5a5.007,5.007,0,0,1,3.41-1.9,4.814,4.814,0,0,1,3.6,1.011,4.966,4.966,0,1,1-7.008.894" transform="translate(-88.743 -22.602)" fill="#12263f"/>
      </g>
    </g>
  </g>
</svg>
