<svg xmlns="http://www.w3.org/2000/svg" xmlns:xlink="http://www.w3.org/1999/xlink" width="187.711" height="123.275" viewBox="0 0 187.711 123.275">
  <defs>
    <clipPath id="clip-path">
      <rect id="Rectángulo_465379" data-name="Rectángulo 465379" width="84.881" height="81.556" fill="#12263f"/>
    </clipPath>
  </defs>
  <g id="Grupo_1212368" data-name="Grupo 1212368" transform="translate(-290 -6435)">
    <g id="Grupo_1211208" data-name="Grupo 1211208" transform="translate(5.735 -2427.746)">
      <g id="Grupo_1204518" data-name="Grupo 1204518" transform="translate(289.277 8868.039)">
        <rect id="Rectángulo_455283" data-name="Rectángulo 455283" width="182.698" height="117.983" fill="#3a552a"/>
      </g>
    </g>
    <g id="Grupo_1211209" data-name="Grupo 1211209" transform="translate(0.723 -2433.039)">
      <g id="Grupo_1204518-2" data-name="Grupo 1204518" transform="translate(289.277 8868.039)">
        <rect id="Rectángulo_455283-2" data-name="Rectángulo 455283" width="183.422" height="118.45" fill="#ffe4b3"/>
      </g>
    </g>
    <g id="Grupo_1212367" data-name="Grupo 1212367" transform="translate(339.271 6453.447)">
      <g id="Grupo_1212366" data-name="Grupo 1212366" clip-path="url(#clip-path)">
        <path id="Trazado_1274054" data-name="Trazado 1274054" d="M41.375,171.679l.034,5.455a1.255,1.255,0,0,1-1.333,1.361L8.712,178.5a1.277,1.277,0,0,1-1.422-1.2l-.008-4.857a16.84,16.84,0,0,1,3.8-10.6A19.584,19.584,0,0,1,5.574,153.7a5.915,5.915,0,0,1-4.321-9.535,29.389,29.389,0,0,1,1.514-7.352,15.356,15.356,0,0,1,4.812-6.864,1.208,1.208,0,0,1,1.642.072,1.268,1.268,0,0,1-.131,1.859c-3.105,2.6-4.591,6.4-5.084,10.4a6.739,6.739,0,0,1,2.155-.357,12.036,12.036,0,0,1,16.518-4.452,3.01,3.01,0,0,0,3.285.046A12.018,12.018,0,0,1,42.5,141.844l2.228.286a35.859,35.859,0,0,0-2.529-16.3,51.425,51.425,0,0,1-10.913,1.733l-10.221.41a27.275,27.275,0,0,0-7.914,1.58,1.192,1.192,0,0,1-1.534-.932,1.261,1.261,0,0,1,.989-1.507c8.685-3.178,18.31-.5,29.43-3.877.794-.241,1.573-.343,1.976.524a39.447,39.447,0,0,1,2.19,6.368,23.817,23.817,0,0,1,25.37-2.1,1.217,1.217,0,0,1,.457,1.691,1.249,1.249,0,0,1-1.606.525,21.26,21.26,0,0,0-23.638,2.654c.273,1.464.419,2.674.571,4.244a11.893,11.893,0,0,1,11.42.3,3.16,3.16,0,0,0,3.431.023,12.049,12.049,0,0,1,16.509,4.446l1.615.118a19.47,19.47,0,0,0-5.885-9,1.27,1.27,0,0,1-.291-1.775,1.246,1.246,0,0,1,1.842-.2,22.394,22.394,0,0,1,7.362,12.777,5.949,5.949,0,0,1,1.05,6.289,5.879,5.879,0,0,1-5.1,3.58,19.483,19.483,0,0,1-5.515,8.137,17.389,17.389,0,0,1,3.818,11.026l0,4.247a1.323,1.323,0,0,1-1.444,1.39l-31.366,0c-.632,0-1.277-.382-1.281-.969l-.036-5.935a16.962,16.962,0,0,1,3.771-9.747,19.514,19.514,0,0,1-4.816-6.368,19.949,19.949,0,0,1-4.819,6.374,15.769,15.769,0,0,1,3.751,9.828m-4.386-31.991a9.5,9.5,0,0,0-9.588-.11,5.816,5.816,0,0,1-6.059.027,9.453,9.453,0,0,0-9.984.317,9.62,9.62,0,0,0-4.224,8.988,16.382,16.382,0,0,0,6.483,11.811,17.6,17.6,0,0,0,23.21-1.533c5.9-5.925,6.624-15.762.162-19.5m40.769,9a9.476,9.476,0,0,0-6.11-9.7,10.406,10.406,0,0,0-8.688.89,5.486,5.486,0,0,1-5.45-.282,9.617,9.617,0,0,0-10.15.432l-.307,3.746a5.747,5.747,0,0,1,1.384,5.826,6.188,6.188,0,0,1-4.106,3.945,17.264,17.264,0,0,0,14.413,10.724c9.475,1.005,18.355-5.837,19.013-15.581M5.014,144.572a3.364,3.364,0,0,0-.1,6.486,17.829,17.829,0,0,1,.1-6.486m38.811,6.469a3.278,3.278,0,0,0,2.392-3.311,3.194,3.194,0,0,0-2.537-3.127,15.106,15.106,0,0,1,.145,6.438m36.186,0a3.313,3.313,0,0,0,2.376-3.32,3.377,3.377,0,0,0-2.518-3.159,19.4,19.4,0,0,1,.143,6.479M16.447,169.852l.066,6.176,3.287-.068.774-5.812a5.814,5.814,0,0,1-.968-3.876,19.486,19.486,0,0,1-6.542-2.86,14.16,14.16,0,0,0-3.3,9.247l-.005,3.383L14,176.036l-.015-5.714a1.315,1.315,0,0,1,.994-1.469,1.137,1.137,0,0,1,1.466,1m18.232.259.037,5.9,4.233-.046-.016-3.781a13.832,13.832,0,0,0-3.261-8.782,20.305,20.305,0,0,1-6.613,2.908,5.341,5.341,0,0,1-.884,3.814l.786,5.851a16.466,16.466,0,0,0,3.239-.006l.045-6.071a1.222,1.222,0,0,1,2.433.21M52.649,170l.035,5.979,3.238-.01.786-5.846a5.309,5.309,0,0,1-.882-3.813A20.4,20.4,0,0,1,49.2,163.4a14.551,14.551,0,0,0-3.267,9.312l0,3.277,4.264,0-.01-5.657c0-.815.284-1.409,1.074-1.495A1.177,1.177,0,0,1,52.649,170m15.787-.149a1.132,1.132,0,0,1,1.465-1,1.216,1.216,0,0,1,.982,1.257v5.926l4.248,0-.034-4.022a13.445,13.445,0,0,0-3.28-8.61,19.518,19.518,0,0,1-6.54,2.865,5.8,5.8,0,0,1-.969,3.874l.812,5.876,3.252-.017Zm-41.948-3.188a12.883,12.883,0,0,1-4.306.01,2.364,2.364,0,0,0,.849,2.409,2.046,2.046,0,0,0,2.607.032,2.157,2.157,0,0,0,.851-2.451m36.231.055a23.9,23.9,0,0,1-4.381.006,2.314,2.314,0,0,0,1.017,2.49,2.155,2.155,0,0,0,2.509-.124,2.357,2.357,0,0,0,.856-2.373M26.4,176.014l-.5-4.18a5.368,5.368,0,0,1-3.02.015L22.312,176Zm36.189-.04L62,171.846a5.342,5.342,0,0,1-3.017-.012l-.474,4.2Z" transform="translate(0 -96.944)" fill="#12263f"/>
        <path id="Trazado_1274055" data-name="Trazado 1274055" d="M36.662,20.993l1.273,3a2.106,2.106,0,0,1-.388,2.371,2.08,2.08,0,0,1-2.6.167l-8.269-5.541L21.455,20.9A10.593,10.593,0,0,1,11.872,10.41C11.87,5.2,15.89,0,21.429,0l18.48.013c5.476,0,9.464,5.283,9.44,10.386a10.586,10.586,0,0,1-9.5,10.505Zm-3.13-.818a1.22,1.22,0,0,1,1.1-1.694l4.021-.018a8.157,8.157,0,0,0,8.2-7.817,7.925,7.925,0,0,0-7.634-8.261l-17.1-.013a8.04,8.04,0,0,0,.153,16.074l5.07.022,7.48,4.928Z" transform="translate(-9.352 0.001)" fill="#12263f"/>
        <path id="Trazado_1274056" data-name="Trazado 1274056" d="M225.776,26.567a2.051,2.051,0,0,1-2.532-.2A2.123,2.123,0,0,1,222.851,24l1.309-3.032-3.228-.062a10.58,10.58,0,0,1-9.494-10.5C211.412,5.3,215.4.22,220.876.014L239.355,0c5.543,0,9.56,5.2,9.558,10.411a10.592,10.592,0,0,1-9.583,10.494L234.105,21Zm.249-3.219,7.421-4.874,5.067-.024a8.041,8.041,0,0,0,.155-16.075l-17.1.013a7.909,7.909,0,0,0-7.63,7.636,8.068,8.068,0,0,0,6.769,8.313l5.072.1c.878.017,1.886.629,1.532,1.555Z" transform="translate(-166.552 -0.002)" fill="#12263f"/>
        <path id="Trazado_1274057" data-name="Trazado 1274057" d="M99.5,237.963c2.016,1.966,3.368-1.388,4.77-.179a1.271,1.271,0,0,1,.057,1.808,4.619,4.619,0,0,1-6.566.151,1.258,1.258,0,1,1,1.74-1.781" transform="translate(-76.61 -187.077)" fill="#12263f"/>
        <path id="Trazado_1274058" data-name="Trazado 1274058" d="M72.319,232.973a1.318,1.318,0,0,1-.959,1.409,1.214,1.214,0,0,1-1.485-.949c-.307-1.455-.045-2.847,1.089-2.935a1.161,1.161,0,0,1,1.327,1.135Z" transform="translate(-54.948 -181.563)" fill="#12263f"/>
        <path id="Trazado_1274059" data-name="Trazado 1274059" d="M149.8,233.606a1.206,1.206,0,0,1-2.256.06c-.363-1.458-.223-2.928.921-3.136a1.117,1.117,0,0,1,1.246.549,4.779,4.779,0,0,1,.089,2.527" transform="translate(-116.083 -181.575)" fill="#12263f"/>
        <path id="Trazado_1274060" data-name="Trazado 1274060" d="M269.747,237.817c2.2,2.218,3.562-1.376,4.966-.014a1.312,1.312,0,0,1-.149,1.918,4.625,4.625,0,0,1-6.569-.155,1.283,1.283,0,0,1-.049-1.7,1.259,1.259,0,0,1,1.8-.049" transform="translate(-210.83 -187.051)" fill="#12263f"/>
        <path id="Trazado_1274061" data-name="Trazado 1274061" d="M320.624,233.167a1.221,1.221,0,0,1-1.14,1.243,1.176,1.176,0,0,1-1.323-1.149v-1.627a1.144,1.144,0,0,1,1.121-1.137,1.18,1.18,0,0,1,1.331,1.137Z" transform="translate(-250.619 -181.562)" fill="#12263f"/>
        <path id="Trazado_1274062" data-name="Trazado 1274062" d="M242.842,233.623a1.085,1.085,0,0,1-1.131.837,1.108,1.108,0,0,1-1.126-.718,5.407,5.407,0,0,1,0-2.481,1.084,1.084,0,0,1,1.123-.7,1.107,1.107,0,0,1,1.109.731,5.173,5.173,0,0,1,.024,2.328" transform="translate(-189.399 -181.618)" fill="#12263f"/>
      </g>
    </g>
  </g>
</svg>
