<svg xmlns="http://www.w3.org/2000/svg" xmlns:xlink="http://www.w3.org/1999/xlink" width="128" height="128" viewBox="0 0 128 128">
  <defs>
    <clipPath id="clip-path">
      <rect id="Rectángulo_459899" data-name="Rectángulo 459899" width="128" height="128" fill="none"/>
    </clipPath>
    <clipPath id="clip-path-2">
      <rect id="Rectángulo_465377" data-name="Rectángulo 465377" width="62.099" height="60.937" fill="#12263f"/>
    </clipPath>
  </defs>
  <g id="Grupo_1212487" data-name="Grupo 1212487" transform="translate(-1624.746 5785.656)">
    <g id="Grupo_1211201" data-name="Grupo 1211201" transform="translate(1624.746 -5785.656)">
      <g id="Grupo_1188515" data-name="Grupo 1188515" clip-path="url(#clip-path)">
        <path id="Trazado_1033015" data-name="Trazado 1033015" d="M128,64A64,64,0,1,1,64,0a64,64,0,0,1,64,64" fill="#fff"/>
        <path id="Trazado_1033016" data-name="Trazado 1033016" d="M154.441,185.937l.625-.59c-.045-.02-.215.119-.625.59" transform="translate(-131.184 -157.435)" fill="#e4cbc1"/>
        <path id="Trazado_1033017" data-name="Trazado 1033017" d="M374.691,757.713l-.2.008a.74.74,0,0,0,.2-.008" transform="translate(-318.095 -643.61)" fill="#e4cbc1"/>
        <path id="Trazado_1033018" data-name="Trazado 1033018" d="M342.621,99.876l-.041.008-.2.065Z" transform="translate(-290.823 -84.836)" fill="#e4cbc1"/>
        <path id="Trazado_1033019" data-name="Trazado 1033019" d="M81.364,97.171a46.672,46.672,0,0,1,3.779-5.711c1.133-1.6,2.359-2.8,3.473-4.1.6-.615,1.228-1.2,1.858-1.825l.97-.96,1.1-.927a47.547,47.547,0,0,1,5.5-4.2,46.375,46.375,0,0,1,14.737-5.883c2.322-.985,6.71-.887,9.606-1.239l1.123.269a11.86,11.86,0,0,1,3.182.125l-.069.054c1.5.046,3.178.288,3.916.385l-.072.049,1.79.338-.325.025c.647.092,1.3.178,1.95.3l1.9.5c.625.176,1.248.337,1.843.538l1.707.68-.095-.313c.586.256,1.127.482,1.636.685s.956.45,1.4.64c.875.4,1.663.733,2.437,1.063.743.389,1.473.772,2.258,1.217.39.226.8.452,1.22.731.4.3.829.621,1.28.979l-.087.017c.647.335,1.251.674,1.819,1.016.55.366,1.04.768,1.521,1.149s.933.772,1.375,1.157.817.833,1.223,1.245c1.618,1.661,3.114,3.436,5.222,5.6-.519-.547.09.338,0,.328l1.3,1.6c.419.52.765,1.051,1.108,1.479.671.868,1.2,1.425,1.432,1.308,1.071,1.738.7,1.516.678,1.837.172-.117,1.176,1.354,1.91,2.769-.137-.2-.255-.419-.406-.615.7,1.351,1.393,2.708,2.057,4.079.025-.338,0-.658.006-.99.887,2.273-.217.771.773,2.875l.313-.159a19.563,19.563,0,0,1,.732,2.189c.165.694.3,1.349.426,2s.257,1.3.371,1.981c.091.692.2,1.416.339,2.21a73.426,73.426,0,0,1,1.768,9.989,51.748,51.748,0,0,1-.063,10.205l-.136,1.264-.068.631-.127.619-.512,2.466a17.435,17.435,0,0,1-.677,2.4c-.26.785-.5,1.577-.779,2.345l-1.018,2.217a17.671,17.671,0,0,1-1.094,2.137,29.664,29.664,0,0,1-2.668,3.842l-.541.266c-.411-.047-1.68,2.982-2.322,3.054-.289.381-.56.782-.872,1.147-.34.231-1,.763-.546.208a16.966,16.966,0,0,0-1.6,1.672c-.4.26-.832.482-1.247.718a74.424,74.424,0,0,1-6.176,4.184,35.986,35.986,0,0,1-6.974,3.266,93.37,93.37,0,0,1-12.7,2.748,98.083,98.083,0,0,1-13.538.888,49.735,49.735,0,0,1-15.981-2.551A67.158,67.158,0,0,1,89.2,160.415a3.592,3.592,0,0,0-1.043-.6c-.607-.5-1.191-1.018-1.788-1.524l-.892-.764-.814-.843L83.038,155l-1.448-1.839-.312-.392-.37-.462-.431-.661a34.528,34.528,0,0,1-2.393-4.01,21.288,21.288,0,0,1-1.264-2.643c-.367-.945-.809-1.89-1.144-2.87-.6-1.985-1.275-3.931-1.646-5.694-.817-3.5-1.184-6.012-1.59-5.364a10.1,10.1,0,0,0-.38,3.632,36.74,36.74,0,0,0,.261,4.12c.111.827.29,1.722.463,2.705l.285,1.536c.1.534.292,1.062.445,1.627l-.169-.205L74,146.362l.315.882c.12.281.257.548.381.813.513,1.057.982,2.038,1.479,2.94a23.866,23.866,0,0,0,3.582,4.589,2,2,0,0,0,.442.92c.138.2.3.413.48.634l.634.637c.893.855,1.832,1.78,2.277,2.258l-.123-.049c1.44.94,2.657,2.2,4.065,3.215a21.712,21.712,0,0,0,2.08,1.531,20.226,20.226,0,0,0,2.212,1.179,1.586,1.586,0,0,1-.914-.312c.528.279,1.088.616,1.669.891l1.672.779a6.405,6.405,0,0,1,1.806,1.055,58.146,58.146,0,0,0,8.915,2.859,38.937,38.937,0,0,0,4.323.8,21.527,21.527,0,0,0,3.393.24l-.255.051c2.064-.038,2.637.242,4.926.254.122.048.282.081.255.1,2.224-.154,6.453.16,8.246-.044l.121.2c1.471-.063,2.943-.144,4.411-.283-.55.035-1.1.057-1.651.072.528-.57,3.368.143,6.519-.667,3.013-.374,5.76-2.2,8.767-2.816,1.338-.666-1.123.779.93-.058.158.256-.934.483-.32.533,2.031-.8,3.509-.855,5.925-2.117l.192.158c3.044-1.81,6.1-2.831,7.832-4.521a12.491,12.491,0,0,1,2.589-1.686,7.231,7.231,0,0,0,2.446-2.076l1.289-.82c1.182-1.163.579-1.085,1.894-2.356.081.221,1.608-1.677,1.065-.73a25.026,25.026,0,0,0,3.654-5.365l.793-1.559.736-1.663c.517-1.127,1.131-2.276,1.628-3.56a11.286,11.286,0,0,1,.554-2.482,9.248,9.248,0,0,0,.349-2.272,16.21,16.21,0,0,0,.622-2.336c.152-.953.277-1.513.255.045,0,.268-.128.724-.177.682l.135.4a8.52,8.52,0,0,0,.506-2.205c.091-.724.141-1.434.179-2.142a18.33,18.33,0,0,0,0-2.137c-.016-.721-.015-1.456.03-2.224-.107.909-.136,2.118-.254,1.3.024-.946.144-1.9.088-2.841l.208.59-.069-4.248-.2.6a16.372,16.372,0,0,0-.374-5.124c-.338-1.012-.031,1.981-.416-.161-.2-1.358-.356-3.084-.717-4.868a47.607,47.607,0,0,0-1.326-5.338c-.14.392-.431-.509-.79-1.414l.174-.182c-.748-1.716-.836-2.047-.821-2.419-.007-.362-.007-.729-.825-2.405l.267.242c-.262-.244-.534-.481-.824-.708a6.605,6.605,0,0,1-1.153-2.355,5.909,5.909,0,0,0-1.474-2.5c.758,1.259-.091.834-.892-.773l.412.289a17.513,17.513,0,0,1-1.063-1.687c.382.462.457.091-.4-1.112l.772.684L165.6,92.049A18.783,18.783,0,0,0,163.509,89c-.376-.488-.727-.946-1-1.338a5.175,5.175,0,0,1-.606-.9s-.743-.9-1.609-1.864a12.043,12.043,0,0,0-1.381-1.336,6.591,6.591,0,0,0-1.09-.81c.821.5-.989-1.34-.3-1.013-.495-.363-1.516-1.015-2.5-1.751-.491-.366-.978-.748-1.4-1.107s-.833-.633-1.091-.89l.241.13c-4.218-3.29-7.918-4.417-12.214-6.37.112.317-2.184-.685-1.71-.156-2.377-.551-4.454-1.343-6.252-1.734a13.7,13.7,0,0,0-2.393-.462,4.062,4.062,0,0,0-1.764.222c-2.186-.246-2.573-.514-3.715-.623l.531-.029-2.636-.075c-.744,0-1.38.051-1.982.066-1.2.058-2.278.029-3.809.226a11.52,11.52,0,0,0-1.761.507,19.819,19.819,0,0,1-2.645.594c.836-.354-.258-.107-1.266.089.637-.154.826-.261-.529-.127-.174.095-.456.176-.712.289-.014-.011-.069-.008-.047-.035-1.639.529-1.333.5-.561.314-.031.039.043.056.292.041a27.084,27.084,0,0,0-3.085.739c-.993.322-1.784.633-1.945.51A39.849,39.849,0,0,0,93.325,78.8c-.489.15.229-.557,1.2-1.347L92.1,79.3c-.129-.2,1.332-1.145,2.065-1.738a23.017,23.017,0,0,0-2.311,1.553c-.7.628-1.394,1.3-2.1,1.976-.724.657-1.373,1.412-2.064,2.155s-1.47,1.433-2.187,2.216l-.418.8-.185.174a4.4,4.4,0,0,1-.788,1.37c-.537.337-.39-.359-1.6,1.363a15.244,15.244,0,0,0-1.861,2.669l-1.695,3.217c.627-.986.539-.6.34-.138a21.883,21.883,0,0,0-1.241,2.11l-.3-.041c.213-.121-.039.517-.352,1.233a11.516,11.516,0,0,0-.648,1.74c-.422.46.467-1.565.487-1.848-.9,1.893-1.062,2.4-1.285,2.87-.185.49-.478.937-1.159,2.919-.567,2.169.389-.287.255.8-.673,1.844-.967,3.743-1.775,5.846l.442-.615c-.41,1.784-.623,3.233-.95,4.5-.267,1.282-.49,2.422-.822,3.621-.138,1.7-.086,3.229-.119,4.563.031,1.339.145,2.5.214,3.5a20.484,20.484,0,0,0,.348,2.542c.127.7.243,1.26.35,1.7.443,1.757.753,1.614.887.617a39.933,39.933,0,0,0,.33-4.258c.147-1.525.229-2.806.229-2.806a116.086,116.086,0,0,1,2.145-12.969l.788-3.08c.294-1.051.671-2.117,1.03-3.257a53.709,53.709,0,0,1,3.2-7.432" transform="translate(-61.023 -58.519)" fill="#3a552a"/>
      </g>
    </g>
    <g id="Grupo_1212363" data-name="Grupo 1212363" transform="translate(1657.197 -5754.918)">
      <g id="Grupo_1212362" data-name="Grupo 1212362" clip-path="url(#clip-path-2)">
        <path id="Trazado_1274035" data-name="Trazado 1274035" d="M11.384,44.313a1.831,1.831,0,0,1-.837-1.614l.018-3.117c.009-1.594,1.575-1.667,3.273-1.725a8.533,8.533,0,0,1,.648-1.541,9.274,9.274,0,0,0-1.14-1.357,1.592,1.592,0,0,1-.082-2.163l2.657-2.625a1.629,1.629,0,0,1,2.139.228,12.64,12.64,0,0,0,1.135.987l1.789-.681.185-1.978a1.538,1.538,0,0,1,1.6-1.311l3.258.006a1.628,1.628,0,0,1,1.641,1.614l.13,1.706,1.592.666c1.213-1.2,2.425-2.184,3.6-1.013l2.1,2.094a1.718,1.718,0,0,1,.365,2.152,14,14,0,0,1-1.392,1.615,8.806,8.806,0,0,1,.668,1.564l1.679.165a1.615,1.615,0,0,1,1.6,1.484l.062,2.672a1.594,1.594,0,0,1,1.09-.527H41.5c1.721,0,1.3,1.778,1.63,3.237L44.518,43.7a1.4,1.4,0,0,1,1.9-.026l1.914,1.966c.237.243.146.72.163,1.1l7.1,3.863a16.151,16.151,0,0,1,1.711-3.245c.979-1.2,2.565-1.012,3.788-.371a2.827,2.827,0,0,1,1.337,3.942l-.678,1.308a4.19,4.19,0,0,1-1.078,1.465,4.341,4.341,0,0,1,.928,2.392l0,3.948c0,.425-.492.752-.807.8a.839.839,0,0,1-.963-.742l-.048-3.863A2.359,2.359,0,0,0,58.4,54.186L47.895,48.521a3.229,3.229,0,0,0,1.353,2.415l8.18,5.017a.9.9,0,0,1,.073,1.43c-.42.384-1.035.269-1.533-.259l-.136,5.211L59.8,63.948c-.068-.817.276-1.232.862-1.271a.908.908,0,0,1,.951,1l-.03,1.786-1.7,6.945,3.735,7.15a1.048,1.048,0,0,1,.161.878.814.814,0,0,1-.7.62l-2.791-.019-5.84-6.72a6.968,6.968,0,0,1-.681-1.088l-.572,6.926a.945.945,0,0,1-.982.92l-2.031,0a.874.874,0,0,1-.9-.834l-.89-8.273a3.438,3.438,0,0,1,.724-2.551L54,62.649l.091-6.6L49.9,53.5c-.31.168-.546.429-.856.461l-2.161.218,1.063,1.326a1.439,1.439,0,0,1,.178,1.907l-1.856,1.864c-.591.593-1.442.265-2.027-.231l-1.183-1-.154,1.888A1.36,1.36,0,0,1,41.5,61.214H39.312a1.383,1.383,0,0,1-1.457-1.224l-.23-1.961-1.465,1.217a1.415,1.415,0,0,1-1.977-.087L32.64,57.61a1.5,1.5,0,0,1,.06-2.127A7.006,7.006,0,0,0,33.749,54.2c-1.132-.3-2.1.1-2.879-.644-.363-.349-.255-.884-.416-1.347-.2-.565-.872-.832-1.267-1.242l-1.4.6-.14,1.834a1.583,1.583,0,0,1-1.585,1.491l-1.555.01a4.508,4.508,0,0,1-4.28,3.514,36.4,36.4,0,0,1-4.675.436c-.922-.059-1.613-.807-2.54-1.212L12.93,61.29c.552.491.952,1.033,1.443,1.541l4.505,4.662c.683.706,1.411,1.757.979,2.818L15.741,80.422a.871.871,0,0,1-.787.53l-2.2.006a1,1,0,0,1-.768-.3,1.064,1.064,0,0,1-.185-.861L13.629,71.6c-.856-1.265-2.4-2-1.507-2.913a.912.912,0,0,1,1.362.015l1.561,1.668a1.706,1.706,0,0,1,.377,1.68l-1.562,6.858c-.041.182.087.354.386.311l3.706-8.966a1.141,1.141,0,0,0-.2-1.347l-5.339-5.527L6.535,80.372a.878.878,0,0,1-.9.584l-2.19.01a1,1,0,0,1-.846-.378,1.041,1.041,0,0,1-.135-.858l2.259-18.02.149-7.521a4.846,4.846,0,0,1,1.907-3.577l-.437-1.175a13.245,13.245,0,0,1,.182-2.881A2.637,2.637,0,0,1,8.77,44.135a6.007,6.007,0,0,1,2.458.254Zm14.436,8.774.17-2.321c.066-.9,1.279-.8,2.909-1.715a.968.968,0,0,1,1.186.234l1.562,1.343,1.981-2.009-1.237-1.478a1.156,1.156,0,0,1-.179-1.459c.843-1.36.828-2.744,1.534-2.8l2.46-.195,0-2.9a13.844,13.844,0,0,1-2.572-.27c-.552-.138-.581-1.535-1.368-2.819-.354-.578-.088-1.056.326-1.518L33.8,33.835l-2.076-2.067-1.276,1.126a1.309,1.309,0,0,1-1.8.258c-1.086-.754-2.573-.71-2.64-1.5l-.206-2.413-2.877.017-.155,2.177c-.071.995-1.335.849-3.118,1.854-1.008.568-1.677-.7-2.864-1.5l-2.008,2.011,1.467,1.693c.7.8-.36,1.516-.8,3.382-.235,1-1.659.785-3.083.938l0,2.847,2.4.217a.844.844,0,0,1,.721.669c.435,1.794,1.491,2.646.944,3.285L14.9,48.614l2.053,2.058,1.774-1.552c.677-.592,1.509.446,3.226.856a.99.99,0,0,1,.82.88l.143,2.238ZM43.6,56.125a13.66,13.66,0,0,1,1.781,1.5l1.046-1.016-1.441-1.859c-.337-.435.251-1.066.376-1.48.4-1.329,1.129-.761,2.482-1.112-.538-.379-.813-1.176-1.258-1.452a1.617,1.617,0,0,1-1.292-1.3c-.116-.417-.573-.952-.2-1.4l1.408-1.7a5.97,5.97,0,0,0-.976-.962L43.6,46.722a2.693,2.693,0,0,1-2.2-.9c-.416-.687-.119-1.6-.252-2.328a5.793,5.793,0,0,0-1.5-.025c-.175.792.052,1.648-.322,2.391a3.172,3.172,0,0,1-2.272.863l-1.927-1.366a6.049,6.049,0,0,0-1,.957l1.164,1.345a1.044,1.044,0,0,1,.077,1.494l-2.635,3.023,2.033.243c.393.589,1.093,1.537.88,2.292l-1.4,1.877,1.038,1.05a10.684,10.684,0,0,1,1.782-1.511,3.257,3.257,0,0,1,2.335.926l.293,2.323a4.674,4.674,0,0,0,1.439,0l.1-1.888c.055-1.014,2.039-1.551,2.372-1.356M11.535,44.374l-.177.113a2.822,2.822,0,0,1,1.411,2.872l-.228,2.106a2.8,2.8,0,0,1-.775,1.528l4.613,2.815,4.749-.4-.1-1.754-1.656-.711c-1.137,1.139-2.4,2.3-3.5,1.2l-2.465-2.474a1.564,1.564,0,0,1,.01-2.117l1.125-1.311-.694-1.663a9.3,9.3,0,0,1-2.319-.207m-.882,4.994a9.577,9.577,0,0,0,.267-2.625c-.043-.922-1.812-.976-2.269-.641a1.02,1.02,0,0,0-.317.686l-.2,1.969a.954.954,0,0,0,.376.9c.18.143,1.948.511,2.146-.292m49.165,2.569,1.08-2.113c.317-.62-.275-1-.755-1.253-.518-.269-1.212-.543-1.536.067l-1.02,1.922a.981.981,0,0,0-.028.968c.215.419,1.819,1.269,2.258.411m-43.924,5.2,4.914-.666a2.195,2.195,0,0,0,1.677-1.406l-5.207.575a3.062,3.062,0,0,1-2.189-.37L9.625,51.792a1.618,1.618,0,0,0-2.142.658,3.254,3.254,0,0,0-.814,2.05l-.046,6.366,4.5-.109.058-4.134-1.635-.915a.914.914,0,0,1-.421-1.224.9.9,0,0,1,1.145-.434ZM5.086,79.011l5.64-16.356L6.471,62.7,4.383,79.13a.754.754,0,0,0,.7-.119m53.32-5.463a2.773,2.773,0,0,1-.186-2.013l1.4-5.668-3.864-1.6-.319,8.387,5.88,6.694Zm-6.993,5.666.524-6.207a3.569,3.569,0,0,1,1.711-2.375l.191-4.6-3.684,5.082.816,7.743a.9.9,0,0,0,.122.4c.033.046.309.07.319-.053" transform="translate(-2.059 -23.159)" fill="#12263f"/>
        <path id="Trazado_1274036" data-name="Trazado 1274036" d="M28.136,10.836l-3.209,1.188a.943.943,0,0,1-.9-.371L22.844,8.484a.894.894,0,0,1,.415-1.152.884.884,0,0,1,1.185.31l.474,1.071A17.237,17.237,0,0,1,40.32.008c.524.015.724.761.624,1.084a1.03,1.03,0,0,1-1.064.723,15.483,15.483,0,0,0-13.246,7.6c.4-.012.655-.229.994-.273a.872.872,0,0,1,1.012.617.861.861,0,0,1-.5,1.081" transform="translate(-19.241 -0.001)" fill="#12263f"/>
        <path id="Trazado_1274037" data-name="Trazado 1274037" d="M261.458,99.508l-2.914-.738a.916.916,0,0,1-.62-.858c.008-.414.3-.917.776-.872l.99.1a10.541,10.541,0,0,0-8.13-3.908.926.926,0,0,1-1.007-.9.869.869,0,0,1,.9-.924,12.392,12.392,0,0,1,9.877,4.866c.184-.647.367-1.124.882-1.22.494-.093,1.214.293,1.073.9l-.66,2.862a.941.941,0,0,1-1.164.7" transform="translate(-211.652 -77.209)" fill="#12263f"/>
        <path id="Trazado_1274038" data-name="Trazado 1274038" d="M65,382.6l-3.665.014a.955.955,0,0,1-.92-.825c-.046-.382.206-.983.7-.983h4.042c.479,0,.728.5.744.869a.917.917,0,0,1-.9.924" transform="translate(-51.026 -321.68)" fill="#12263f"/>
        <path id="Trazado_1274039" data-name="Trazado 1274039" d="M4.648,382.611l-3.658.02a.963.963,0,0,1-.984-.819.862.862,0,0,1,.766-.99l4.016.011c.487,0,.688.489.695.843a.861.861,0,0,1-.835.934" transform="translate(0 -321.694)" fill="#12263f"/>
        <path id="Trazado_1274040" data-name="Trazado 1274040" d="M299.408,382.471l-3.773.021a.871.871,0,0,1-.879-.941.888.888,0,0,1,.96-.881l3.58,0a.9.9,0,0,1,.934.739.871.871,0,0,1-.822,1.06" transform="translate(-248.99 -321.565)" fill="#12263f"/>
        <path id="Trazado_1274041" data-name="Trazado 1274041" d="M369.3,382.472l-3.775.035a.9.9,0,0,1-.89-.8c-.048-.435.154-.985.687-.99l3.87-.037a.9.9,0,0,1,.108,1.789" transform="translate(-308.011 -321.576)" fill="#12263f"/>
        <path id="Trazado_1274042" data-name="Trazado 1274042" d="M110.175,76.008a4.873,4.873,0,0,0-6.248.047,4.825,4.825,0,1,0,7.865,2.722.9.9,0,0,1,.74-1.126.883.883,0,0,1,1.056.813,6.646,6.646,0,1,1-2.347-3.916.892.892,0,0,1,.138,1.207.851.851,0,0,1-1.2.252" transform="translate(-84.83 -61.726)" fill="#12263f"/>
        <path id="Trazado_1274043" data-name="Trazado 1274043" d="M226.918,159.421a3.485,3.485,0,0,1,3.877,3.1,3.517,3.517,0,0,1-6.977.886,3.484,3.484,0,0,1,3.1-3.985m-.005,1.845a1.664,1.664,0,0,0-1.227,2.116,1.7,1.7,0,0,0,2.029,1.173,1.73,1.73,0,0,0,1.23-2.035,1.68,1.68,0,0,0-2.032-1.255" transform="translate(-189.038 -134.649)" fill="#12263f"/>
      </g>
    </g>
  </g>
</svg>
