<svg xmlns="http://www.w3.org/2000/svg" xmlns:xlink="http://www.w3.org/1999/xlink" width="128" height="128" viewBox="0 0 128 128">
  <defs>
    <clipPath id="clip-path">
      <rect id="Rectángulo_459899" data-name="Rectángulo 459899" width="128" height="128" fill="none"/>
    </clipPath>
    <clipPath id="clip-path-2">
      <rect id="Rectángulo_465373" data-name="Rectángulo 465373" width="54.886" height="54.95" fill="#12263f"/>
    </clipPath>
  </defs>
  <g id="Grupo_1212483" data-name="Grupo 1212483" transform="translate(-735.746 -5893.31)">
    <g id="Grupo_1211191" data-name="Grupo 1211191" transform="translate(735.746 5893.31)">
      <g id="Grupo_1188515" data-name="Grupo 1188515" clip-path="url(#clip-path)">
        <path id="Trazado_1033015" data-name="Trazado 1033015" d="M128,64A64,64,0,1,1,64,0a64,64,0,0,1,64,64" fill="#fff"/>
        <path id="Trazado_1033016" data-name="Trazado 1033016" d="M154.441,185.937l.625-.59c-.045-.02-.215.119-.625.59" transform="translate(-131.184 -157.435)" fill="#e4cbc1"/>
        <path id="Trazado_1033017" data-name="Trazado 1033017" d="M374.691,757.713l-.2.008a.74.74,0,0,0,.2-.008" transform="translate(-318.095 -643.61)" fill="#e4cbc1"/>
        <path id="Trazado_1033018" data-name="Trazado 1033018" d="M342.621,99.876l-.041.008-.2.065Z" transform="translate(-290.823 -84.836)" fill="#e4cbc1"/>
        <path id="Trazado_1033019" data-name="Trazado 1033019" d="M81.364,97.171a46.672,46.672,0,0,1,3.779-5.711c1.133-1.6,2.359-2.8,3.473-4.1.6-.615,1.228-1.2,1.858-1.825l.97-.96,1.1-.927a47.547,47.547,0,0,1,5.5-4.2,46.375,46.375,0,0,1,14.737-5.883c2.322-.985,6.71-.887,9.606-1.239l1.123.269a11.86,11.86,0,0,1,3.182.125l-.069.054c1.5.046,3.178.288,3.916.385l-.072.049,1.79.338-.325.025c.647.092,1.3.178,1.95.3l1.9.5c.625.176,1.248.337,1.843.538l1.707.68-.095-.313c.586.256,1.127.482,1.636.685s.956.45,1.4.64c.875.4,1.663.733,2.437,1.063.743.389,1.473.772,2.258,1.217.39.226.8.452,1.22.731.4.3.829.621,1.28.979l-.087.017c.647.335,1.251.674,1.819,1.016.55.366,1.04.768,1.521,1.149s.933.772,1.375,1.157.817.833,1.223,1.245c1.618,1.661,3.114,3.436,5.222,5.6-.519-.547.09.338,0,.328l1.3,1.6c.419.52.765,1.051,1.108,1.479.671.868,1.2,1.425,1.432,1.308,1.071,1.738.7,1.516.678,1.837.172-.117,1.176,1.354,1.91,2.769-.137-.2-.255-.419-.406-.615.7,1.351,1.393,2.708,2.057,4.079.025-.338,0-.658.006-.99.887,2.273-.217.771.773,2.875l.313-.159a19.563,19.563,0,0,1,.732,2.189c.165.694.3,1.349.426,2s.257,1.3.371,1.981c.091.692.2,1.416.339,2.21a73.426,73.426,0,0,1,1.768,9.989,51.748,51.748,0,0,1-.063,10.205l-.136,1.264-.068.631-.127.619-.512,2.466a17.435,17.435,0,0,1-.677,2.4c-.26.785-.5,1.577-.779,2.345l-1.018,2.217a17.671,17.671,0,0,1-1.094,2.137,29.664,29.664,0,0,1-2.668,3.842l-.541.266c-.411-.047-1.68,2.982-2.322,3.054-.289.381-.56.782-.872,1.147-.34.231-1,.763-.546.208a16.966,16.966,0,0,0-1.6,1.672c-.4.26-.832.482-1.247.718a74.424,74.424,0,0,1-6.176,4.184,35.986,35.986,0,0,1-6.974,3.266,93.37,93.37,0,0,1-12.7,2.748,98.083,98.083,0,0,1-13.538.888,49.735,49.735,0,0,1-15.981-2.551A67.158,67.158,0,0,1,89.2,160.415a3.592,3.592,0,0,0-1.043-.6c-.607-.5-1.191-1.018-1.788-1.524l-.892-.764-.814-.843L83.038,155l-1.448-1.839-.312-.392-.37-.462-.431-.661a34.528,34.528,0,0,1-2.393-4.01,21.288,21.288,0,0,1-1.264-2.643c-.367-.945-.809-1.89-1.144-2.87-.6-1.985-1.275-3.931-1.646-5.694-.817-3.5-1.184-6.012-1.59-5.364a10.1,10.1,0,0,0-.38,3.632,36.74,36.74,0,0,0,.261,4.12c.111.827.29,1.722.463,2.705l.285,1.536c.1.534.292,1.062.445,1.627l-.169-.205L74,146.362l.315.882c.12.281.257.548.381.813.513,1.057.982,2.038,1.479,2.94a23.866,23.866,0,0,0,3.582,4.589,2,2,0,0,0,.442.92c.138.2.3.413.48.634l.634.637c.893.855,1.832,1.78,2.277,2.258l-.123-.049c1.44.94,2.657,2.2,4.065,3.215a21.712,21.712,0,0,0,2.08,1.531,20.226,20.226,0,0,0,2.212,1.179,1.586,1.586,0,0,1-.914-.312c.528.279,1.088.616,1.669.891l1.672.779a6.405,6.405,0,0,1,1.806,1.055,58.146,58.146,0,0,0,8.915,2.859,38.937,38.937,0,0,0,4.323.8,21.527,21.527,0,0,0,3.393.24l-.255.051c2.064-.038,2.637.242,4.926.254.122.048.282.081.255.1,2.224-.154,6.453.16,8.246-.044l.121.2c1.471-.063,2.943-.144,4.411-.283-.55.035-1.1.057-1.651.072.528-.57,3.368.143,6.519-.667,3.013-.374,5.76-2.2,8.767-2.816,1.338-.666-1.123.779.93-.058.158.256-.934.483-.32.533,2.031-.8,3.509-.855,5.925-2.117l.192.158c3.044-1.81,6.1-2.831,7.832-4.521a12.491,12.491,0,0,1,2.589-1.686,7.231,7.231,0,0,0,2.446-2.076l1.289-.82c1.182-1.163.579-1.085,1.894-2.356.081.221,1.608-1.677,1.065-.73a25.026,25.026,0,0,0,3.654-5.365l.793-1.559.736-1.663c.517-1.127,1.131-2.276,1.628-3.56a11.286,11.286,0,0,1,.554-2.482,9.248,9.248,0,0,0,.349-2.272,16.21,16.21,0,0,0,.622-2.336c.152-.953.277-1.513.255.045,0,.268-.128.724-.177.682l.135.4a8.52,8.52,0,0,0,.506-2.205c.091-.724.141-1.434.179-2.142a18.33,18.33,0,0,0,0-2.137c-.016-.721-.015-1.456.03-2.224-.107.909-.136,2.118-.254,1.3.024-.946.144-1.9.088-2.841l.208.59-.069-4.248-.2.6a16.372,16.372,0,0,0-.374-5.124c-.338-1.012-.031,1.981-.416-.161-.2-1.358-.356-3.084-.717-4.868a47.607,47.607,0,0,0-1.326-5.338c-.14.392-.431-.509-.79-1.414l.174-.182c-.748-1.716-.836-2.047-.821-2.419-.007-.362-.007-.729-.825-2.405l.267.242c-.262-.244-.534-.481-.824-.708a6.605,6.605,0,0,1-1.153-2.355,5.909,5.909,0,0,0-1.474-2.5c.758,1.259-.091.834-.892-.773l.412.289a17.513,17.513,0,0,1-1.063-1.687c.382.462.457.091-.4-1.112l.772.684L165.6,92.049A18.783,18.783,0,0,0,163.509,89c-.376-.488-.727-.946-1-1.338a5.175,5.175,0,0,1-.606-.9s-.743-.9-1.609-1.864a12.043,12.043,0,0,0-1.381-1.336,6.591,6.591,0,0,0-1.09-.81c.821.5-.989-1.34-.3-1.013-.495-.363-1.516-1.015-2.5-1.751-.491-.366-.978-.748-1.4-1.107s-.833-.633-1.091-.89l.241.13c-4.218-3.29-7.918-4.417-12.214-6.37.112.317-2.184-.685-1.71-.156-2.377-.551-4.454-1.343-6.252-1.734a13.7,13.7,0,0,0-2.393-.462,4.062,4.062,0,0,0-1.764.222c-2.186-.246-2.573-.514-3.715-.623l.531-.029-2.636-.075c-.744,0-1.38.051-1.982.066-1.2.058-2.278.029-3.809.226a11.52,11.52,0,0,0-1.761.507,19.819,19.819,0,0,1-2.645.594c.836-.354-.258-.107-1.266.089.637-.154.826-.261-.529-.127-.174.095-.456.176-.712.289-.014-.011-.069-.008-.047-.035-1.639.529-1.333.5-.561.314-.031.039.043.056.292.041a27.084,27.084,0,0,0-3.085.739c-.993.322-1.784.633-1.945.51A39.849,39.849,0,0,0,93.325,78.8c-.489.15.229-.557,1.2-1.347L92.1,79.3c-.129-.2,1.332-1.145,2.065-1.738a23.017,23.017,0,0,0-2.311,1.553c-.7.628-1.394,1.3-2.1,1.976-.724.657-1.373,1.412-2.064,2.155s-1.47,1.433-2.187,2.216l-.418.8-.185.174a4.4,4.4,0,0,1-.788,1.37c-.537.337-.39-.359-1.6,1.363a15.244,15.244,0,0,0-1.861,2.669l-1.695,3.217c.627-.986.539-.6.34-.138a21.883,21.883,0,0,0-1.241,2.11l-.3-.041c.213-.121-.039.517-.352,1.233a11.516,11.516,0,0,0-.648,1.74c-.422.46.467-1.565.487-1.848-.9,1.893-1.062,2.4-1.285,2.87-.185.49-.478.937-1.159,2.919-.567,2.169.389-.287.255.8-.673,1.844-.967,3.743-1.775,5.846l.442-.615c-.41,1.784-.623,3.233-.95,4.5-.267,1.282-.49,2.422-.822,3.621-.138,1.7-.086,3.229-.119,4.563.031,1.339.145,2.5.214,3.5a20.484,20.484,0,0,0,.348,2.542c.127.7.243,1.26.35,1.7.443,1.757.753,1.614.887.617a39.933,39.933,0,0,0,.33-4.258c.147-1.525.229-2.806.229-2.806a116.086,116.086,0,0,1,2.145-12.969l.788-3.08c.294-1.051.671-2.117,1.03-3.257a53.709,53.709,0,0,1,3.2-7.432" transform="translate(-61.023 -58.519)" fill="#3a552a"/>
      </g>
    </g>
    <g id="Grupo_1211192" data-name="Grupo 1211192" transform="translate(351.006 -2507.688)">
      <rect id="Rectángulo_459838" data-name="Rectángulo 459838" width="66" height="66" transform="translate(415.74 8431.997)" fill="#fff"/>
      <g id="Grupo_1212355" data-name="Grupo 1212355" transform="translate(420.205 8437.381)">
        <g id="Grupo_1212354" data-name="Grupo 1212354" clip-path="url(#clip-path-2)">
          <path id="Trazado_1274004" data-name="Trazado 1274004" d="M201.378,50.974a2.369,2.369,0,0,1-.775-1.8l0-11.11.306-1.114-2.99-2.945a1.538,1.538,0,0,1-.014-2.087l4.187-4.184a1.532,1.532,0,0,1,2.033-.078l3.082,3.015,1.118-.273,7.652-.012a21.14,21.14,0,0,0,0-5.8l-7.53-.021a2.427,2.427,0,0,1-1.676-4.1l1.712-1.721a2.135,2.135,0,0,1,2.66-.3,5.559,5.559,0,0,1,1.282,1.179l1.825-.389a18.23,18.23,0,0,0-8.709-8.5L203.22,15.8l.463,1.04a1.989,1.989,0,0,1-.393,2.342L201.8,20.71a2.338,2.338,0,0,1-3.175.228A2.562,2.562,0,0,1,197.48,18.3l2.786-10.393a6.527,6.527,0,0,1,1.751-2.359C204.881,2.287,208.8-1.028,213.247.3l1.886.563a10.842,10.842,0,0,1,4.826-.8,5.607,5.607,0,0,1,5.17,5.322,11.376,11.376,0,0,1-.85,4.768,9.272,9.272,0,0,1,.573,6.427l-.554,1.913a.81.81,0,1,1-1.554-.454l.65-2.377a5.908,5.908,0,0,0-.174-3.571,35.7,35.7,0,0,1-4.139,5.154l-.822,2.331a.946.946,0,0,1-.8.741l-1.363.224-.008,2.407,3.678-.037c1.256-1.073,1.682-3.014,2.744-2.291a.8.8,0,0,1,.213,1.108c-.851,1.321-1.845,2.847-3.293,2.856l-1.834.011a22.058,22.058,0,0,1,0,5.779l1.943.036a2.47,2.47,0,0,1,1.858,1.016,16.886,16.886,0,0,1,3.5,7.187,10.145,10.145,0,0,1-1.008,7.051,5.7,5.7,0,0,1-8,8.029,10.535,10.535,0,0,1-5.273,1.238,16.08,16.08,0,0,1-9.238-3.954m1.588-38.464c.464-1.013.82-1.9,1.309-2.781l3.7-3.582a30.074,30.074,0,0,1,5.093-4.213,6.3,6.3,0,0,0-5.4.765,22.871,22.871,0,0,0-4.9,4.416,3.786,3.786,0,0,0-1.036,1.436l-.9,3.394Zm14.472,2.012L214.9,17.108a12.068,12.068,0,0,1,.975,1.818,1.727,1.727,0,0,0,.952-.225l.881-2.415c2.793-2.963,5.633-5.953,5.836-10.216a4.236,4.236,0,0,0-1.3-3.333,4.288,4.288,0,0,0-3.39-1.085c-3.525.214-6.47,2.471-8.981,4.887l-3.068,2.951a5.488,5.488,0,0,0,1.34.745l2.667-2.619c1.7-1.672,4.33-.639,6.633-.533a.755.755,0,0,1,.657.7c.073,2.263,1.191,4.85-.665,6.743m-1.889-3.839,1.366.605-.43-2.677c-.907-.069-1.691-.221-2.587-.356l.595,1.389-.228,1.263ZM213.6,12.495a1.052,1.052,0,0,1-.956-1.074l.1-1.6c.027-.44-.345-.887-.559-1.25a30.37,30.37,0,0,0-2.714,2.589,21.162,21.162,0,0,1,4.518,4.526l2.623-2.7-1.334-.609a4.231,4.231,0,0,1-1.675.118m-12.1,3.238.755-1.706-1.85-.508-1.365,5.227c-.127.487.769,1.335,1.244,1.037a11.492,11.492,0,0,0,1.983-1.907c-.04-.871-.981-1.662-.769-2.143m12.945,5.151-2.161.437c-.577.117-.869-.165-1.17-.67-.2-.338-.892-1.177-1.25-.848l-1.809,1.658a.915.915,0,0,0-.283.966.767.767,0,0,0,.665.52l6.015.005Zm-7.711,17.709,2.062-2.08-1.955-1.943a2.51,2.51,0,0,1-.594-2.623l-3.057-3.016-4.04,4.032,3.092,3.071a2.415,2.415,0,0,1,2.453.543Zm4.436-4.192.028-2.383-2.761.01a.742.742,0,0,0-.625.416.8.8,0,0,0,.048.836l1.938,1.907a.728.728,0,0,0,.878-.019,1.061,1.061,0,0,0,.5-.767m4.712,1.639a19.451,19.451,0,0,1-2.12,3.549c3.928-.518,6.328,2.231,8.915,4.833a8.237,8.237,0,0,0,.548-5.908,14.878,14.878,0,0,0-3.439-6.468l-6.948-.033.005,1.77,4.624.882a.966.966,0,0,1,.8.721l.844,2.581a.82.82,0,0,1-.583,1.045.829.829,0,0,1-.966-.6l-.7-2.168a2.12,2.12,0,0,0-.977-.207m-10.329,6.4.374,1.614a18.315,18.315,0,0,0,8.33-8.334l-1.732-.36a2.9,2.9,0,0,1-1.9,1.587l-3.516,3.512a2.746,2.746,0,0,1-1.557,1.981m-.96-1.426a.9.9,0,0,0,.865-.658.976.976,0,0,0-.251-1l-1.572-1.576a.814.814,0,0,0-.958-.193.827.827,0,0,0-.448.74l.012,2.717ZM215.4,42.5l1.881-.666a5.152,5.152,0,0,0-4.416-.369c.318.29.517.726.9.864a3.03,3.03,0,0,0,1.63.171m-9.157,3.166a1.629,1.629,0,0,0,.224.95l2.325.819a.764.764,0,0,1,.363,1.023.777.777,0,0,1-.975.435l-2.6-.847c-.191-.062-.574-.255-.619-.474l-1-4.929-1.746,0,.037,6.908A14.537,14.537,0,0,0,208.611,53a8.292,8.292,0,0,0,6.037-.537l-2.584-2.649a8.917,8.917,0,0,1-1.8-2.87,7.536,7.536,0,0,1-.441-3.411,18.62,18.62,0,0,1-3.577,2.141m6.482-.561a3.421,3.421,0,0,0-.145-1.5c-.111-.367-.556-.627-.9-.949a5.234,5.234,0,0,0,.422,4.361Zm1.837,5.013,2.164,2.155a3.976,3.976,0,0,0,5.591-.124,3.909,3.909,0,0,0,.273-5.47l-2.466-2.468a3.2,3.2,0,0,0-3.95-.2c-1.077.676-1.806-.208-1.924.131-.082.236.594.834-.056,1.869a3.262,3.262,0,0,0,.368,4.106" transform="translate(-170.302 0)" fill="#12263f"/>
          <path id="Trazado_1274005" data-name="Trazado 1274005" d="M12.35.367A7.245,7.245,0,0,1,15.629.273a16.632,16.632,0,0,1,7.98,3.669,2.644,2.644,0,0,1,.955,2.09l0,1.669c1.849-.173,3.929-.578,3.685.725-.2,1.09-1.977.5-3.714.9l.113,3.246,1.2,1.921a3.849,3.849,0,0,1-.268,3.443c-.614,1.026-1.767,1.322-2.878,1.713l-3.292,3.105a3.583,3.583,0,0,1-4.186,3.473,6.758,6.758,0,0,1-2.71-1.441l-3.33-.1A20.954,20.954,0,0,0,9,28.833a.83.83,0,0,1-.736.795.754.754,0,0,1-.844-.679,21.5,21.5,0,0,1,.133-4.235l-1.939-.027a2.4,2.4,0,0,1-1.789-.964A16.707,16.707,0,0,1,.215,16.238a10.127,10.127,0,0,1,1.05-6.825,5.736,5.736,0,0,1,.429-7.638A5.683,5.683,0,0,1,9.4,1.533l2.411,2.4a4.7,4.7,0,0,1,.735,5.786,2.469,2.469,0,0,1-.38,2.587c-.693.777-1.757.487-2.558.465-3.2,1.334-4.948.281-7.141-2.113A8.3,8.3,0,0,0,2.061,17a4.235,4.235,0,0,0,.78,1.82,2.181,2.181,0,0,0,2.658.04,1.2,1.2,0,0,0,.588-1.64A.812.812,0,1,1,7.6,16.66l.73,2.163a1.17,1.17,0,0,0,.966.12,20.146,20.146,0,0,1,9.545-9.52c.038-.316.019-.861-.227-.993L16.445,7.69a.8.8,0,0,1-.484-.981.811.811,0,0,1,1.112-.49,1.232,1.232,0,0,0,1.692-.657c.4-.729.732-2.075-.176-2.642a8.995,8.995,0,0,0-5.523-1.089c-.513.05-.844.059-1.069-.378-.155-.3-.142-.939.352-1.085m-4.157,5.6c.367-.46,1.294,0,1.686-.947A1,1,0,0,0,9.6,3.949L8.428,2.79a4.013,4.013,0,0,0-5.59.133A4.027,4.027,0,0,0,2.553,8.4L4.062,9.912A.85.85,0,0,0,5.107,9.9c.7-.518.246-1.322.847-1.654S7.366,8.793,8,8.092s-.291-1.517.194-2.126M23.774,17.517c1.481-1.338.535-2.949-.824-4.273l-.031-7.628a7.252,7.252,0,0,0-2.088-1.68A4.722,4.722,0,0,1,19.69,7l.52.492,1.212,7.117c1.532.039,2.265,1.309,2.352,2.909M9.1,11.11c.536-.344,1.611.467,1.937.009.354-.5-.394-1.373-.057-1.883a3.3,3.3,0,0,0,.3-3.365A2.456,2.456,0,0,1,9.9,7.095a2.743,2.743,0,0,1-2.957,2.949A2.379,2.379,0,0,1,5.76,11.41a3.258,3.258,0,0,0,3.336-.3m10.82,4.33-.768-4.38A18.442,18.442,0,0,0,10.916,19.3l4.4.737Zm-1.858,6.4,3.721-3.739a1.194,1.194,0,0,0-.313-1.916l-5.432,5.453a1.275,1.275,0,0,0,2.025.2m-.705,2.1c-1.663-.185-2.82-.923-2.887-2.427L7.938,20.455c-.463-.075-.833-.159-1.016-.694a4.33,4.33,0,0,1-3.141,1.153A9.586,9.586,0,0,0,5.4,23.041l7.693.042,1.379,1.124a2.117,2.117,0,0,0,2.883-.261" transform="translate(-0.011 -0.113)" fill="#12263f"/>
          <path id="Trazado_1274006" data-name="Trazado 1274006" d="M23.442,243.921a42.783,42.783,0,0,1-5.808,6.07,7.163,7.163,0,0,1-3.27,1.654,10.253,10.253,0,0,1-5.111-1.21,5.694,5.694,0,0,1-8.014-7.993c-.957-2.18-1.849-4.654-.658-6.749,1.524-2.679,4.221-4.974,6.6-6.987a2.479,2.479,0,0,1,2.814-.372l5.025,2.45c2.227-1.226,4.579-2.258,6.386-.454,1.868,1.865.713,4.069-.49,6.376l2.739,5.651a26.832,26.832,0,0,0,4.458.4.739.739,0,0,1,.668.76.811.811,0,0,1-.8.8,18.913,18.913,0,0,1-4.535-.4m-3.889-6.353-1.748.253,1.2,3.868a.956.956,0,0,1-.267.9l-1.991,2.4a.806.806,0,1,1-1.269-.993l1.91-2.355a20.525,20.525,0,0,1-7.363-7.353l-2.262,1.859a.832.832,0,0,1-1.1.088.776.776,0,0,1-.1-1.159l2.669-2.256a.942.942,0,0,1,.9-.1l3.716,1.143.244-1.745-4.547-2.223a1.271,1.271,0,0,0-1.607.261,41.835,41.835,0,0,0-4.6,4.451c-2,2.423-2.223,3.167-.905,6.55l2.533-2.456c.213-.206.755-.058,1.023,0a5.571,5.571,0,0,1,3.838.659,4.09,4.09,0,0,1,1.658-.157c1.13.126,1.152,1.356.856,2.708a5.037,5.037,0,0,1-.154,5.528l-1.677,1.792c3.859,1.658,4.755.718,7.43-1.665a41.325,41.325,0,0,0,3.948-4.294.794.794,0,0,0,.045-.783Zm-3.029-3.583,2.964-3a6.991,6.991,0,0,0-3.715,1.2l-.311,2.043a1.2,1.2,0,0,0,1.062-.248m2.989,1.933c.6-1.24,1.54-2.737,1.158-3.772l-2.831,2.813a1.193,1.193,0,0,0-.373,1.271Zm-3.718-.036a11.166,11.166,0,0,1-3.2-.692,14.854,14.854,0,0,0,3.866,3.865,12.692,12.692,0,0,1-.668-3.172m-5.144,5.928.247-1-1.291.285a5.227,5.227,0,0,0-2.3-.895,14.421,14.421,0,0,1,3.547,6.313c1.634-2.342-.373-4.01-.2-4.7M8.877,248.46c1.427-2.019-1.621-6.064-3.491-7.926l-2.893,2.958a4.045,4.045,0,1,0,6.384,4.968" transform="translate(0 -196.738)" fill="#12263f"/>
        </g>
      </g>
    </g>
  </g>
</svg>
