<svg xmlns="http://www.w3.org/2000/svg" xmlns:xlink="http://www.w3.org/1999/xlink" width="84" height="84" viewBox="0 0 84 84">
  <defs>
    <clipPath id="clip-path">
      <rect id="Rectángulo_465371" data-name="Rectángulo 465371" width="56.734" height="56.887" fill="#12263f"/>
    </clipPath>
  </defs>
  <g id="Grupo_1211183" data-name="Grupo 1211183" transform="translate(-705.629 -410)">
    <g id="Grupo_1188476" data-name="Grupo 1188476" transform="translate(2.841 -1273.207)">
      <g id="Grupo_1185067" data-name="Grupo 1185067" transform="translate(719.227 1696)">
        <path id="Trazado_997620" data-name="Trazado 997620" d="M133.124,646.71a15.477,15.477,0,1,0-14.332-.01" transform="translate(-99.168 -604.804)" fill="#3a552a" stroke="#000" stroke-miterlimit="10" stroke-width="2"/>
        <rect id="Rectángulo_454823" data-name="Rectángulo 454823" width="14.333" height="4.288" transform="translate(19.625 41.893)" fill="#3a552a" stroke="#000" stroke-miterlimit="10" stroke-width="2"/>
        <rect id="Rectángulo_454824" data-name="Rectángulo 454824" width="14.333" height="4.288" transform="translate(19.625 46.181)" fill="#3a552a" stroke="#000" stroke-miterlimit="10" stroke-width="2"/>
        <path id="Trazado_997621" data-name="Trazado 997621" d="M135.492,688.628h-6.283a4.025,4.025,0,0,1-4.025-4.025v-.263h14.333v.263A4.025,4.025,0,0,1,135.492,688.628Z" transform="translate(-105.559 -633.871)" fill="#3a552a" stroke="#000" stroke-miterlimit="10" stroke-width="2"/>
        <line id="Línea_3231" data-name="Línea 3231" y1="7.578" transform="translate(26.797)" fill="none" stroke="#000" stroke-miterlimit="10" stroke-width="2"/>
        <line id="Línea_3232" data-name="Línea 3232" x1="4.454" y1="6.13" transform="translate(10.236 5.387)" fill="none" stroke="#000" stroke-miterlimit="10" stroke-width="2"/>
        <line id="Línea_3233" data-name="Línea 3233" x1="7.2" y1="2.336" transform="translate(0 19.477)" fill="none" stroke="#000" stroke-miterlimit="10" stroke-width="2"/>
        <line id="Línea_3234" data-name="Línea 3234" x1="7.2" y2="2.341" transform="translate(0 34.55)" fill="none" stroke="#000" stroke-miterlimit="10" stroke-width="2"/>
        <line id="Línea_3235" data-name="Línea 3235" x1="7.2" y1="2.341" transform="translate(46.398 34.55)" fill="none" stroke="#000" stroke-miterlimit="10" stroke-width="2"/>
        <line id="Línea_3236" data-name="Línea 3236" x1="7.2" y2="2.336" transform="translate(46.398 19.477)" fill="none" stroke="#000" stroke-miterlimit="10" stroke-width="2"/>
        <line id="Línea_3237" data-name="Línea 3237" x1="4.454" y2="6.125" transform="translate(38.91 5.387)" fill="none" stroke="#000" stroke-miterlimit="10" stroke-width="2"/>
        <path id="Trazado_997622" data-name="Trazado 997622" d="M119,638.208a10.647,10.647,0,0,1,4.484-8.693" transform="translate(-102.867 -610.025)" fill="#3a552a" stroke="#000" stroke-miterlimit="10" stroke-width="2"/>
        <line id="Línea_3238" data-name="Línea 3238" y2="8.634" transform="translate(26.797 33.258)" fill="none" stroke="#000" stroke-miterlimit="10" stroke-width="2"/>
        <path id="Trazado_997623" data-name="Trazado 997623" d="M133.157,647.74l2.669,3.47,3-3.47" transform="translate(-109.027 -617.951)" fill="#3a552a" stroke="#000" stroke-miterlimit="10" stroke-width="2"/>
        <path id="Trazado_997624" data-name="Trazado 997624" d="M132.431,691.931a3.07,3.07,0,1,0,6.14,0" transform="translate(-108.711 -637.173)" fill="#3a552a" stroke="#000" stroke-miterlimit="10" stroke-width="2"/>
      </g>
      <rect id="Rectángulo_459857" data-name="Rectángulo 459857" width="81" height="79" transform="translate(705.788 1688.207)" fill="#3a552a"/>
    </g>
    <g id="Grupo_1188599" data-name="Grupo 1188599" transform="translate(0.371 -1278)">
      <g id="Grupo_1185067-2" data-name="Grupo 1185067" transform="translate(718.472 1696)">
        <path id="Trazado_997620-2" data-name="Trazado 997620" d="M133.124,646.71a15.477,15.477,0,1,0-14.332-.01" transform="translate(-99.168 -604.804)" fill="#fff006" stroke="#000" stroke-miterlimit="10" stroke-width="2"/>
        <rect id="Rectángulo_454823-2" data-name="Rectángulo 454823" width="14.333" height="4.288" transform="translate(19.625 41.893)" fill="#fff006" stroke="#000" stroke-miterlimit="10" stroke-width="2"/>
        <rect id="Rectángulo_454824-2" data-name="Rectángulo 454824" width="14.333" height="4.288" transform="translate(19.625 46.181)" fill="#fff006" stroke="#000" stroke-miterlimit="10" stroke-width="2"/>
        <path id="Trazado_997621-2" data-name="Trazado 997621" d="M135.492,688.628h-6.283a4.025,4.025,0,0,1-4.025-4.025v-.263h14.333v.263A4.025,4.025,0,0,1,135.492,688.628Z" transform="translate(-105.559 -633.871)" fill="#fff006" stroke="#000" stroke-miterlimit="10" stroke-width="2"/>
        <line id="Línea_3231-2" data-name="Línea 3231" y1="7.578" transform="translate(26.797)" fill="none" stroke="#000" stroke-miterlimit="10" stroke-width="2"/>
        <line id="Línea_3232-2" data-name="Línea 3232" x1="4.454" y1="6.13" transform="translate(10.236 5.387)" fill="none" stroke="#000" stroke-miterlimit="10" stroke-width="2"/>
        <line id="Línea_3233-2" data-name="Línea 3233" x1="7.2" y1="2.336" transform="translate(0 19.477)" fill="none" stroke="#000" stroke-miterlimit="10" stroke-width="2"/>
        <line id="Línea_3234-2" data-name="Línea 3234" x1="7.2" y2="2.341" transform="translate(0 34.55)" fill="none" stroke="#000" stroke-miterlimit="10" stroke-width="2"/>
        <line id="Línea_3235-2" data-name="Línea 3235" x1="7.2" y1="2.341" transform="translate(46.398 34.55)" fill="none" stroke="#000" stroke-miterlimit="10" stroke-width="2"/>
        <line id="Línea_3236-2" data-name="Línea 3236" x1="7.2" y2="2.336" transform="translate(46.398 19.477)" fill="none" stroke="#000" stroke-miterlimit="10" stroke-width="2"/>
        <line id="Línea_3237-2" data-name="Línea 3237" x1="4.454" y2="6.125" transform="translate(38.91 5.387)" fill="none" stroke="#000" stroke-miterlimit="10" stroke-width="2"/>
        <path id="Trazado_997622-2" data-name="Trazado 997622" d="M119,638.208a10.647,10.647,0,0,1,4.484-8.693" transform="translate(-102.867 -610.025)" fill="#fff006" stroke="#000" stroke-miterlimit="10" stroke-width="2"/>
        <line id="Línea_3238-2" data-name="Línea 3238" y2="8.634" transform="translate(26.797 33.258)" fill="none" stroke="#000" stroke-miterlimit="10" stroke-width="2"/>
        <path id="Trazado_997623-2" data-name="Trazado 997623" d="M133.157,647.74l2.669,3.47,3-3.47" transform="translate(-109.027 -617.951)" fill="#fff006" stroke="#000" stroke-miterlimit="10" stroke-width="2"/>
        <path id="Trazado_997624-2" data-name="Trazado 997624" d="M132.431,691.931a3.07,3.07,0,1,0,6.14,0" transform="translate(-108.711 -637.173)" fill="#fff006" stroke="#000" stroke-miterlimit="10" stroke-width="2"/>
      </g>
      <rect id="Rectángulo_459857-2" data-name="Rectángulo 459857" width="80" height="80" transform="translate(705.258 1688)" fill="#fff006"/>
    </g>
    <g id="Grupo_1212351" data-name="Grupo 1212351" transform="translate(716.944 421.241)">
      <g id="Grupo_1212350" data-name="Grupo 1212350" clip-path="url(#clip-path)">
        <path id="Trazado_1273987" data-name="Trazado 1273987" d="M40.373,192.182l-24.066,0a1.811,1.811,0,0,1-1.758-1.7l-.047-5.1-12.73-.025a1.884,1.884,0,0,1-1.759-1.974L.021,179.8a.828.828,0,0,1,.7-.832.79.79,0,0,1,.929.7l.072,4.053,12.785.015.015-5.071a6,6,0,0,1,4.877-5.794,3,3,0,0,0-2.688-1.481l-5.1.008,0,3.657a7.021,7.021,0,0,1-1.672.007l-.017-3.691-5.451.06a3.056,3.056,0,0,0-2.8,3.379,4.316,4.316,0,0,1-.076,1.408.7.7,0,0,1-.757.495c-.258,0-.706-.1-.755-.491a9.16,9.16,0,0,1,0-2.523,4.729,4.729,0,0,1,4.508-4l1.889-.059a6.2,6.2,0,1,1,8.554.013l2.357.088a4.768,4.768,0,0,1,3.817,3l2.065-.021c.241-.124.273-.864.031-1.072a7.88,7.88,0,1,1,10.119,0c-.232.2-.144.778-.071,1.064l2.177.03a4.741,4.741,0,0,1,3.687-2.985l2.49-.1a6.2,6.2,0,1,1,8.529,0l1.623.033a4.766,4.766,0,0,1,4.839,4.56l.032,9.111a1.954,1.954,0,0,1-2.038,2.013l-2.136-.024a.739.739,0,0,1-.668-.784.8.8,0,0,1,.8-.833l2.357-.057.005-9.251a2.977,2.977,0,0,0-2.774-3l-5.457-.06-.015,3.69-1.661.027-.009-3.69-5.1-.008a3,3,0,0,0-2.689,1.484,5.982,5.982,0,0,1,4.877,5.793l.016,5.065,6.48-.006a.84.84,0,0,1,.924.748c.038.3-.169.884-.638.885l-6.749.014-.044,4.973a1.853,1.853,0,0,1-1.841,1.836m-13.29-32.629a6.192,6.192,0,0,0,2.5,12.13,6.23,6.23,0,0,0,4.89-7.183,6.156,6.156,0,0,0-7.388-4.947m-16.929,1.131a4.525,4.525,0,1,0,5.107,3.854,4.5,4.5,0,0,0-5.107-3.854m35.148.007a4.524,4.524,0,1,0,5.148,3.829,4.5,4.5,0,0,0-5.148-3.829m-17.75,12.775a12.445,12.445,0,0,1-2.45-.693l.008,2.357Zm4.062,1.634-.021-2.322a11.684,11.684,0,0,1-2.409.693Zm1.712-.672-.015,1.383a1.279,1.279,0,0,1-.558,1.077,1.2,1.2,0,0,1-1.285.1l-2.243-1.452-.031,3.817a.826.826,0,0,1-1.649,0l-.029-3.817-2.243,1.452a1.213,1.213,0,0,1-1.284-.107,1.167,1.167,0,0,1-.547-.949l-.032-1.509-3.023.012a4.264,4.264,0,0,0-4.17,4.134l-.026,11.932H27.53v-7.4a.845.845,0,0,1,1.685.126v7.279l11.338,0-.027-11.931a4.264,4.264,0,0,0-4.169-4.134Z" transform="translate(0 -135.295)" fill="#12263f"/>
        <path id="Trazado_1273988" data-name="Trazado 1273988" d="M163.4,39.141c-1.051-.037-2.657,1.361-3.731.5s-.231-2.581-.583-3.638c-.36-1.083-2.075-1.969-1.611-3.389.381-1.165,2.422-.992,3.275-1.642s1.261-2.523,2.576-2.571c1.381-.05,1.779,1.865,2.674,2.569.754.593,2.722.517,3.189,1.453.736,1.473-1.135,2.428-1.521,3.6-.356,1.084.489,2.726-.59,3.62a1.391,1.391,0,0,1-1.315.23Zm.023-1.759,2.522.754A12.6,12.6,0,0,1,166,35.5a11,11,0,0,1,1.506-2.182l-2.429-.858c-.758-.519-1.095-1.489-1.7-2.2-.607.715-.943,1.686-1.7,2.2l-2.43.857a11.036,11.036,0,0,1,1.5,2.177,12.28,12.28,0,0,1,.054,2.651c.879-.11,1.692-.786,2.618-.761" transform="translate(-135.002 -24.362)" fill="#12263f"/>
        <path id="Trazado_1273989" data-name="Trazado 1273989" d="M54.348,64.031a.779.779,0,0,1-.795.752c-.269.011-.822-.232-.826-.636l-.05-5.734a3.839,3.839,0,1,1,1.707.068ZM52.93,52.679a2.165,2.165,0,0,0,1.506,4.059,2.165,2.165,0,0,0-1.506-4.059" transform="translate(-42.759 -43.632)" fill="#12263f"/>
        <path id="Trazado_1273990" data-name="Trazado 1273990" d="M301.757,64.015a.847.847,0,0,1-.749.784.78.78,0,0,1-.89-.681l-.028-5.676a3.839,3.839,0,1,1,4.812-4.05,3.912,3.912,0,0,1-3.129,4.125ZM300.4,52.683a2.162,2.162,0,1,0,2.762,1.468,2.155,2.155,0,0,0-2.762-1.468" transform="translate(-254.955 -43.654)" fill="#12263f"/>
        <path id="Trazado_1273991" data-name="Trazado 1273991" d="M129.07,66.142a.807.807,0,0,1,.522,1.038c-.174.527-.693.577-1.215.583s-.948-.118-1.12-.561a.8.8,0,0,1,.5-1.063,2.765,2.765,0,0,1,1.313,0" transform="translate(-109.106 -56.663)" fill="#12263f"/>
        <path id="Trazado_1273992" data-name="Trazado 1273992" d="M256.411,66.13a.785.785,0,0,1,.55,1.069c-.319.8-1.97.738-2.293.082a.828.828,0,0,1,.433-1.132,2.681,2.681,0,0,1,1.31-.019" transform="translate(-218.369 -56.661)" fill="#12263f"/>
        <path id="Trazado_1273993" data-name="Trazado 1273993" d="M194.564.085c.651.3.61,1.831.1,2.168a.891.891,0,0,1-.972,0,1.7,1.7,0,0,1-.084-2.048.9.9,0,0,1,.957-.121" transform="translate(-165.804 0)" fill="#12263f"/>
        <path id="Trazado_1273994" data-name="Trazado 1273994" d="M194.549,127.259c.676.347.624,1.793.143,2.169a.829.829,0,0,1-1.022,0,1.7,1.7,0,0,1-.031-2.05.829.829,0,0,1,.911-.118" transform="translate(-165.808 -109.08)" fill="#12263f"/>
        <path id="Trazado_1273995" data-name="Trazado 1273995" d="M248.8,33.911c.056.794-1.287,1.431-1.714,1.269a.853.853,0,0,1-.583-.842c-.006-.642,1.176-1.3,1.7-1.146a.8.8,0,0,1,.594.719" transform="translate(-211.43 -28.45)" fill="#12263f"/>
        <path id="Trazado_1273996" data-name="Trazado 1273996" d="M161.451,8.787a1.635,1.635,0,0,1,1.033,1.868.827.827,0,0,1-.855.443,1.726,1.726,0,0,1-1.044-1.753.83.83,0,0,1,.866-.558" transform="translate(-137.714 -7.536)" fill="#12263f"/>
        <path id="Trazado_1273997" data-name="Trazado 1273997" d="M138,33.547a.88.88,0,0,1,.345,1.3c-.565.822-1.963-.165-2.089-.576a.822.822,0,0,1,.4-1.042c.465-.227.9.051,1.345.321" transform="translate(-116.826 -28.428)" fill="#12263f"/>
        <path id="Trazado_1273998" data-name="Trazado 1273998" d="M138.512,97.724c.019.8-1.28,1.358-1.732,1.214a.845.845,0,0,1-.56-.909c.032-.6,1.2-1.211,1.76-1.038a.778.778,0,0,1,.531.733" transform="translate(-116.839 -83.167)" fill="#12263f"/>
        <path id="Trazado_1273999" data-name="Trazado 1273999" d="M246.953,97.066c.586-.276,1.825.385,1.86,1a.86.86,0,0,1-.447.865A1.731,1.731,0,0,1,246.543,98a.824.824,0,0,1,.41-.936" transform="translate(-211.451 -83.201)" fill="#12263f"/>
        <path id="Trazado_1274000" data-name="Trazado 1274000" d="M226.153,9.186c.393.648-.374,1.792-.825,1.907a.83.83,0,0,1-.978-.414,1.733,1.733,0,0,1,.9-1.851.83.83,0,0,1,.9.358" transform="translate(-192.375 -7.559)" fill="#12263f"/>
        <path id="Trazado_1274001" data-name="Trazado 1274001" d="M162.428,119.381c.463.569-.293,1.825-.824,1.938a.826.826,0,0,1-.974-.449,1.761,1.761,0,0,1,.929-1.806.859.859,0,0,1,.869.316" transform="translate(-137.735 -102.105)" fill="#12263f"/>
        <path id="Trazado_1274002" data-name="Trazado 1274002" d="M225.135,119.046a1.69,1.69,0,0,1,1.039,1.825.823.823,0,0,1-.845.476c-.6-.03-1.28-1.2-1.063-1.779a.88.88,0,0,1,.869-.522" transform="translate(-192.325 -102.107)" fill="#12263f"/>
      </g>
    </g>
  </g>
</svg>
