<svg xmlns="http://www.w3.org/2000/svg" xmlns:xlink="http://www.w3.org/1999/xlink" width="96" height="96" viewBox="0 0 96 96">
  <defs>
    <clipPath id="clip-path">
      <rect id="Rectángulo_465383" data-name="Rectángulo 465383" width="51.637" height="56.765" fill="#12263f"/>
    </clipPath>
  </defs>
  <g id="Grupo_1211217" data-name="Grupo 1211217" transform="translate(-735.745 -9122)">
    <g id="Grupo_1188527" data-name="Grupo 1188527" transform="translate(-728.818 -89.375)">
      <g id="Grupo_1188526" data-name="Grupo 1188526">
        <path id="Trazado_1033015" data-name="Trazado 1033015" d="M96,47.778A48,48,0,1,1,48,0,47.889,47.889,0,0,1,96,47.778" transform="translate(1464.564 9211.818)" fill="#ebffe0"/>
        <path id="Trazado_1033017" data-name="Trazado 1033017" d="M374.691,757.713l-.2.008a.74.74,0,0,0,.2-.008" transform="translate(1131.201 8546.583)" fill="#ffe4b3"/>
        <path id="Trazado_1033018" data-name="Trazado 1033018" d="M342.621,99.876l-.041.008-.2.065Z" transform="translate(1158.943 9116.164)" fill="#ffe4b3"/>
        <path id="Trazado_1033019" data-name="Trazado 1033019" d="M80.427,94.229a41.8,41.8,0,0,1,3.407-5.117c1.022-1.43,2.127-2.505,3.131-3.67.537-.551,1.107-1.071,1.675-1.635l.874-.861.988-.831a42.841,42.841,0,0,1,4.961-3.764,41.965,41.965,0,0,1,13.287-5.271c2.094-.883,6.05-.794,8.661-1.11l1.013.241a10.76,10.76,0,0,1,2.869.112l-.062.048c1.352.041,2.866.258,3.531.345l-.065.044,1.614.3-.293.022c.584.083,1.175.16,1.758.273l1.713.445c.563.158,1.125.3,1.661.482l1.539.609-.086-.28c.528.23,1.016.432,1.475.614s.862.4,1.26.574c.789.36,1.5.656,2.2.952.67.348,1.328.692,2.036,1.091.352.2.724.405,1.1.655.365.267.748.556,1.154.877l-.078.015c.584.3,1.128.6,1.64.91.5.328.937.688,1.371,1.03s.841.692,1.24,1.036.737.747,1.1,1.116c1.459,1.488,2.808,3.078,4.708,5.018-.468-.49.081.3,0,.294l1.17,1.437c.378.466.69.941,1,1.325.6.777,1.085,1.276,1.291,1.172.965,1.557.633,1.359.611,1.646.155-.1,1.06,1.213,1.723,2.481-.123-.183-.23-.375-.366-.551.629,1.21,1.256,2.426,1.855,3.655.022-.3,0-.59.006-.887.8,2.036-.2.691.7,2.576l.282-.142a17.451,17.451,0,0,1,.66,1.962c.149.622.27,1.209.384,1.792s.232,1.161.334,1.775c.082.62.178,1.269.306,1.981a65.415,65.415,0,0,1,1.594,8.95,46.076,46.076,0,0,1-.056,9.144l-.122,1.132-.061.566-.114.554-.461,2.21a15.544,15.544,0,0,1-.611,2.151c-.235.7-.447,1.413-.7,2.1l-.917,1.986a15.794,15.794,0,0,1-.986,1.915,26.575,26.575,0,0,1-2.405,3.442l-.488.238c-.371-.042-1.515,2.672-2.094,2.736-.26.341-.5.7-.786,1.028-.306.207-.9.684-.493.186a15.244,15.244,0,0,0-1.439,1.5c-.362.233-.75.432-1.124.643-1.886,1.387-3.667,2.621-5.568,3.749a32.54,32.54,0,0,1-6.288,2.926,84.641,84.641,0,0,1-11.452,2.462,88.983,88.983,0,0,1-12.206.8,45.1,45.1,0,0,1-14.409-2.286,60.716,60.716,0,0,1-13.085-6.251,3.245,3.245,0,0,0-.941-.534c-.547-.444-1.073-.912-1.612-1.366l-.8-.684-.734-.756-1.464-1.513-1.305-1.648-.282-.351-.334-.414-.388-.593a30.9,30.9,0,0,1-2.157-3.593,19.02,19.02,0,0,1-1.14-2.368c-.33-.847-.729-1.693-1.031-2.571-.537-1.779-1.15-3.522-1.484-5.1-.737-3.134-1.067-5.386-1.434-4.806a9,9,0,0,0-.342,3.254,32.714,32.714,0,0,0,.235,3.691c.1.741.261,1.543.417,2.424l.257,1.376c.089.478.263.952.4,1.458l-.152-.184.594,1.688.284.79c.108.251.231.491.344.729.463.947.885,1.826,1.333,2.634a21.4,21.4,0,0,0,3.229,4.111,1.784,1.784,0,0,0,.4.825c.125.176.269.37.433.568l.571.57c.805.766,1.652,1.595,2.053,2.023l-.111-.044c1.3.842,2.4,1.97,3.665,2.881a19.571,19.571,0,0,0,1.875,1.371,18.278,18.278,0,0,0,1.994,1.056,1.437,1.437,0,0,1-.824-.28c.476.25.981.552,1.5.8l1.508.7a5.782,5.782,0,0,1,1.629.945,52.663,52.663,0,0,0,8.038,2.562,35.3,35.3,0,0,0,3.9.714,19.528,19.528,0,0,0,3.059.215l-.23.046c1.861-.034,2.378.217,4.442.228.11.043.254.072.23.085,2-.138,5.818.144,7.435-.04l.109.175c1.327-.056,2.653-.129,3.977-.254-.5.032-.992.051-1.489.064.476-.511,3.037.128,5.877-.6,2.716-.335,5.194-1.969,7.9-2.523,1.207-.6-1.012.7.839-.052.142.229-.842.433-.288.478,1.831-.715,3.164-.766,5.342-1.9l.173.141c2.745-1.622,5.5-2.536,7.062-4.051a11.272,11.272,0,0,1,2.334-1.51,6.512,6.512,0,0,0,2.206-1.86l1.162-.735c1.066-1.042.522-.972,1.707-2.111.073.2,1.45-1.5.96-.654a22.416,22.416,0,0,0,3.295-4.807l.715-1.4.664-1.49c.466-1.01,1.02-2.039,1.468-3.189a10.057,10.057,0,0,1,.5-2.224,8.237,8.237,0,0,0,.315-2.036,14.452,14.452,0,0,0,.561-2.093c.137-.854.25-1.355.229.04,0,.241-.115.649-.159.611l.122.361a7.593,7.593,0,0,0,.456-1.976c.082-.649.127-1.285.161-1.92a16.32,16.32,0,0,0,0-1.915c-.014-.646-.014-1.3.027-1.992-.1.815-.122,1.9-.229,1.168.022-.848.129-1.7.079-2.545l.188.528-.062-3.806-.183.538a14.58,14.58,0,0,0-.338-4.591c-.305-.907-.028,1.775-.375-.144-.183-1.216-.321-2.764-.647-4.361a42.437,42.437,0,0,0-1.2-4.783c-.126.352-.389-.456-.712-1.267l.157-.163c-.675-1.538-.754-1.834-.74-2.168-.006-.324-.006-.654-.744-2.155l.24.217c-.236-.219-.481-.431-.743-.635a5.9,5.9,0,0,1-1.04-2.11,5.285,5.285,0,0,0-1.329-2.239c.683,1.128-.082.747-.8-.692l.371.259a15.676,15.676,0,0,1-.958-1.511c.344.414.412.082-.359-1l.7.612-1.683-1.893a16.825,16.825,0,0,0-1.884-2.73c-.339-.437-.656-.847-.9-1.2a4.635,4.635,0,0,1-.547-.809s-.67-.8-1.451-1.67a10.827,10.827,0,0,0-1.245-1.2,5.941,5.941,0,0,0-.983-.726c.74.447-.892-1.2-.267-.908-.446-.326-1.367-.909-2.25-1.569-.443-.328-.882-.67-1.265-.992s-.751-.567-.984-.8l.217.116c-3.8-2.948-7.139-3.957-11.012-5.707.1.284-1.969-.613-1.542-.14-2.143-.493-4.016-1.2-5.637-1.553a12.427,12.427,0,0,0-2.157-.414,3.684,3.684,0,0,0-1.59.2c-1.971-.22-2.32-.46-3.349-.558L120,68.96l-2.376-.067c-.671,0-1.244.046-1.787.059-1.085.052-2.054.026-3.435.2a10.437,10.437,0,0,0-1.587.454,17.964,17.964,0,0,1-2.385.532c.753-.317-.233-.1-1.141.079.574-.138.745-.234-.477-.114-.157.085-.412.158-.642.259-.013-.01-.062-.007-.042-.031-1.478.474-1.2.452-.506.282-.028.035.038.05.263.037a24.548,24.548,0,0,0-2.782.662c-.9.288-1.609.567-1.753.457a35.975,35.975,0,0,0-10.14,5.994c-.441.135.207-.5,1.084-1.207l-2.188,1.655c-.116-.182,1.2-1.026,1.862-1.557a20.761,20.761,0,0,0-2.084,1.392c-.634.562-1.257,1.161-1.889,1.77-.653.589-1.238,1.265-1.861,1.931s-1.326,1.284-1.972,1.985l-.377.716-.167.156c.076.049-.374.78-.71,1.228-.484.3-.352-.321-1.44,1.221a13.658,13.658,0,0,0-1.677,2.391L78.264,92.33c.565-.883.486-.537.307-.124a19.579,19.579,0,0,0-1.119,1.89l-.268-.036c.192-.109-.035.463-.317,1.1a10.276,10.276,0,0,0-.585,1.559c-.38.413.421-1.4.439-1.656-.814,1.7-.957,2.147-1.158,2.572a28.127,28.127,0,0,0-1.045,2.615c-.511,1.944.351-.257.23.716-.606,1.652-.872,3.353-1.6,5.238l.4-.551c-.37,1.6-.562,2.9-.856,4.034-.241,1.149-.442,2.17-.741,3.245-.124,1.526-.078,2.893-.107,4.088.028,1.2.131,2.242.193,3.139a18.244,18.244,0,0,0,.314,2.278c.114.628.22,1.129.316,1.523.4,1.574.679,1.446.8.552a35.559,35.559,0,0,0,.3-3.815c.133-1.366.207-2.514.207-2.514a103.412,103.412,0,0,1,1.934-11.62l.71-2.76c.265-.942.6-1.9.928-2.918a47.962,47.962,0,0,1,2.887-6.659" transform="translate(1392.723 9142.481)" fill="#3a552a"/>
      </g>
    </g>
    <g id="Grupo_1212376" data-name="Grupo 1212376" transform="translate(757.927 9139.432)">
      <g id="Grupo_1212375" data-name="Grupo 1212375" clip-path="url(#clip-path)">
        <path id="Trazado_1274078" data-name="Trazado 1274078" d="M33.678,252.539a37,37,0,0,1-6.137,3.447l-5.128.155-14.466.06a2.145,2.145,0,0,1-1.816,1.031l-4.373.005A1.827,1.827,0,0,1,0,255.419l.009-12.431a1.785,1.785,0,0,1,1.774-1.8l4.354-.05a1.915,1.915,0,0,1,1.97,1.549l10.33-5.877a6.478,6.478,0,0,1,4.617-.738A2.668,2.668,0,0,1,25,239.755a4.254,4.254,0,0,1-1.819,2.082c-1.914,1.122-3.844,2.059-5.67,3.348l6.941.525c1.613-.524,3.107-1.047,4.639-1.713l6.25-4.425a5.578,5.578,0,0,1,4.077-1.038,2.467,2.467,0,0,1,2.107,1.837c2.132-.887,4.9-.145,5.06,1.653a2.354,2.354,0,0,1-.788,2.042c-3.962,2.913-7.924,5.706-12.117,8.475m8.081-10.5L32.322,247.2a5.916,5.916,0,0,1-2.6.294,72.565,72.565,0,0,1-11.673-.807,8.918,8.918,0,0,1-2.448-.575c-.6-.29-.226-1.242.207-1.608A34.226,34.226,0,0,1,21.6,240.85c1.328-.731,2.522-1.764,1.835-2.76-.616-.893-2.745-.531-4.2.119l-11.1,6.36L8.1,254.55,22.14,254.5l5-.129a30.791,30.791,0,0,0,5.758-3.273l11.755-8.181a.684.684,0,0,0,.265-.742c-.261-.623-1.987-.777-3.162-.134m-10.006,3.625,7.661-4.246c.3-.167.592-.872.274-1.041a3.2,3.2,0,0,0-3.242.458L30.1,245.289c-.31.217-.605.3-.89.542.835-.041,1.8.245,2.548-.169m-25.294,9.9.008-12.754-4.815.039L1.644,255.58Z" transform="translate(0 -200.472)" fill="#12263f"/>
        <path id="Trazado_1274079" data-name="Trazado 1274079" d="M105.205,59.543l-3.534.014a.776.776,0,0,1-.785-.805l-.034-1.578a10.965,10.965,0,0,1-2.465-1.03l-1.1,1.077a.831.831,0,0,1-1.2.032l-2.329-2.314a.916.916,0,0,1,.035-1.367l.978-1a13.141,13.141,0,0,1-.984-2.468L92.2,50.088a.792.792,0,0,1-.8-.805V45.816c0-1.025,1.111-.7,2.4-.834a11.059,11.059,0,0,1,1.013-2.457l-1.151-1.179a.83.83,0,0,1,.035-1.108l2.395-2.4c.775-.777,1.4.313,2.34,1.083a10.7,10.7,0,0,1,2.424-1l.031-1.574a.74.74,0,0,1,.788-.78l3.465,0a.726.726,0,0,1,.772.778l.039,1.576a9.856,9.856,0,0,1,2.463,1.038c.88-.935,1.57-1.822,2.286-1.117l2.348,2.313a.863.863,0,0,1,.032,1.28L112,42.53A11.3,11.3,0,0,1,113.017,45l1.6.037a.771.771,0,0,1,.8.723l.014,3.461a.889.889,0,0,1-.967.881l-1.446,0A11.188,11.188,0,0,1,112,52.561l1.143,1.18a.786.786,0,0,1-.044,1.107l-2.4,2.394a.857.857,0,0,1-1.27-.089l-1.019-1.016a10.861,10.861,0,0,1-2.454,1.043l-.034,1.577a.744.744,0,0,1-.72.786M104.3,56.6a.858.858,0,0,1,.655-.891c2.63-.495,3.333-2.014,4.211-1.151l.943.926,1.244-1.239-.859-.868A.907.907,0,0,1,110.3,52.2c1.423-2.153,1-3.734,2.071-3.764l1.435-.041-.022-1.749-1.446-.014c-1.048-.01-.6-1.616-2.034-3.735a.791.791,0,0,1,.051-1.01l1-1.031L110.1,39.6l-1.021.995c-.76.741-1.441-.646-4.12-1.2-.975-.2-.592-1.229-.783-2.223l-1.647.006,0,1.275c0,1.339-1.581.674-3.854,2.26a.736.736,0,0,1-.935-.114l-1.027-1-1.239,1.248.994,1.028a.846.846,0,0,1,0,1.127c-.78.975-.907,2.2-1.4,3.3-.267.59-1.412.362-1.94.336a5.142,5.142,0,0,0-.055,1.776l1.456.047c.991.032.6,1.665,2,3.709a.808.808,0,0,1-.064,1.051l-.993,1.022,1.239,1.242.941-.922c.892-.874,1.6.656,4.205,1.144a.835.835,0,0,1,.68.8l.025,1.375,1.706-.009Z" transform="translate(-77.663 -30.225)" fill="#12263f"/>
        <path id="Trazado_1274080" data-name="Trazado 1274080" d="M21.544,93.2l-8.029-.009a.85.85,0,0,1-.768-.81l.007-8.082a.743.743,0,0,1,.752-.648l8.114.008a.773.773,0,0,1,.692.792v7.906a.869.869,0,0,1-.767.843m-.885-1.657L20.652,85.3l-6.254,0V91.53Z" transform="translate(-10.831 -71.08)" fill="#12263f"/>
        <path id="Trazado_1274081" data-name="Trazado 1274081" d="M274.735,83.247l-6.069.009a.929.929,0,0,1-.9-.608l-1.92-5.894a.8.8,0,0,1,.236-.869l4.867-3.554a.976.976,0,0,1,1.154-.166l5.038,3.657a.813.813,0,0,1,.317.924l-1.959,6a.861.861,0,0,1-.769.5m-.553-1.668,1.528-4.771-4.067-2.948-4.05,2.948,1.566,4.793Z" transform="translate(-225.867 -61.208)" fill="#12263f"/>
        <path id="Trazado_1274082" data-name="Trazado 1274082" d="M84.93,178.456a17.686,17.686,0,0,1-9.491-5.288l.04,1.064a.808.808,0,0,1-.773.821.779.779,0,0,1-.861-.781l-.3-3.78a.78.78,0,0,1,1.065-.876l3.571,1.685a.808.808,0,0,1,.441,1c-.136.409-.489.545-1.049.635a15.943,15.943,0,0,0,7.931,3.98.767.767,0,0,1,.5.973.827.827,0,0,1-1.073.565" transform="translate(-62.492 -144.082)" fill="#12263f"/>
        <path id="Trazado_1274083" data-name="Trazado 1274083" d="M198.254,9.534a.887.887,0,0,1-.3.814.873.873,0,0,1-.9.114l-3.36-1.6a.891.891,0,0,1-.579-.947c.091-.475.486-.677,1.088-.75a15.769,15.769,0,0,0-7.814-3.923.81.81,0,0,1-.67-.912.794.794,0,0,1,.919-.694,17.616,17.616,0,0,1,9.7,5.307l-.03-1.209c-.009-.385.373-.615.692-.7.288-.074.84.128.88.541Z" transform="translate(-157.8 -1.379)" fill="#12263f"/>
        <path id="Trazado_1274084" data-name="Trazado 1274084" d="M129.491,1.621a16.682,16.682,0,0,0-5.465,1.234.813.813,0,0,1-.964-.475.8.8,0,0,1,.4-1.033A16.368,16.368,0,0,1,129.562,0a.746.746,0,0,1,.711.794.839.839,0,0,1-.782.826" transform="translate(-104.522 0)" fill="#12263f"/>
        <path id="Trazado_1274085" data-name="Trazado 1274085" d="M171.81,214.22a.786.786,0,0,1-.736-.8.805.805,0,0,1,.714-.818,15.523,15.523,0,0,0,5.408-1.227.932.932,0,0,1,1.057.343.806.806,0,0,1-.274,1.076,15.8,15.8,0,0,1-6.169,1.422" transform="translate(-145.366 -179.568)" fill="#12263f"/>
        <path id="Trazado_1274086" data-name="Trazado 1274086" d="M231.921,182.027a.8.8,0,0,1-1.039-.156.764.764,0,0,1-.023-1.047,20.422,20.422,0,0,0,3.187-3.112.906.906,0,0,1,1.088-.38.818.818,0,0,1,.4,1.123,15.37,15.37,0,0,1-3.615,3.573" transform="translate(-195.998 -150.628)" fill="#12263f"/>
        <path id="Trazado_1274087" data-name="Trazado 1274087" d="M83.315,22.26c-2.484,1.81-3.213,3.841-4.206,3.164a.835.835,0,0,1-.145-1.213,18.042,18.042,0,0,1,3.423-3.327.832.832,0,1,1,.929,1.376" transform="translate(-66.931 -17.596)" fill="#12263f"/>
        <path id="Trazado_1274088" data-name="Trazado 1274088" d="M139.387,78.329a5.564,5.564,0,1,1-5.178,6.057,5.525,5.525,0,0,1,5.178-6.057m-.005,1.644a3.916,3.916,0,0,0-3.515,4.395,3.924,3.924,0,0,0,7.8-.869,3.9,3.9,0,0,0-4.284-3.526" transform="translate(-114.022 -66.548)" fill="#12263f"/>
      </g>
    </g>
  </g>
</svg>
