<svg xmlns="http://www.w3.org/2000/svg" xmlns:xlink="http://www.w3.org/1999/xlink" width="128" height="128" viewBox="0 0 128 128">
  <defs>
    <clipPath id="clip-path">
      <rect id="Rectángulo_459899" data-name="Rectángulo 459899" width="128" height="128" fill="none"/>
    </clipPath>
    <clipPath id="clip-path-2">
      <rect id="Rectángulo_465398" data-name="Rectángulo 465398" width="57.946" height="57.91" fill="#12263f"/>
    </clipPath>
  </defs>
  <g id="Grupo_1212500" data-name="Grupo 1212500" transform="translate(-3008.574 5124.281)">
    <g id="Grupo_1211269" data-name="Grupo 1211269" transform="translate(3008.574 -5124.281)">
      <g id="Grupo_1188515" data-name="Grupo 1188515" clip-path="url(#clip-path)">
        <path id="Trazado_1033015" data-name="Trazado 1033015" d="M128,64A64,64,0,1,1,64,0a64,64,0,0,1,64,64" fill="#fff"/>
        <path id="Trazado_1033016" data-name="Trazado 1033016" d="M154.441,185.937l.625-.59c-.045-.02-.215.119-.625.59" transform="translate(-131.184 -157.435)" fill="#e4cbc1"/>
        <path id="Trazado_1033017" data-name="Trazado 1033017" d="M374.691,757.713l-.2.008a.74.74,0,0,0,.2-.008" transform="translate(-318.095 -643.61)" fill="#e4cbc1"/>
        <path id="Trazado_1033018" data-name="Trazado 1033018" d="M342.621,99.876l-.041.008-.2.065Z" transform="translate(-290.823 -84.836)" fill="#e4cbc1"/>
        <path id="Trazado_1033019" data-name="Trazado 1033019" d="M81.364,97.171a46.672,46.672,0,0,1,3.779-5.711c1.133-1.6,2.359-2.8,3.473-4.1.6-.615,1.228-1.2,1.858-1.825l.97-.96,1.1-.927a47.547,47.547,0,0,1,5.5-4.2,46.375,46.375,0,0,1,14.737-5.883c2.322-.985,6.71-.887,9.606-1.239l1.123.269a11.86,11.86,0,0,1,3.182.125l-.069.054c1.5.046,3.178.288,3.916.385l-.072.049,1.79.338-.325.025c.647.092,1.3.178,1.95.3l1.9.5c.625.176,1.248.337,1.843.538l1.707.68-.095-.313c.586.256,1.127.482,1.636.685s.956.45,1.4.64c.875.4,1.663.733,2.437,1.063.743.389,1.473.772,2.258,1.217.39.226.8.452,1.22.731.4.3.829.621,1.28.979l-.087.017c.647.335,1.251.674,1.819,1.016.55.366,1.04.768,1.521,1.149s.933.772,1.375,1.157.817.833,1.223,1.245c1.618,1.661,3.114,3.436,5.222,5.6-.519-.547.09.338,0,.328l1.3,1.6c.419.52.765,1.051,1.108,1.479.671.868,1.2,1.425,1.432,1.308,1.071,1.738.7,1.516.678,1.837.172-.117,1.176,1.354,1.91,2.769-.137-.2-.255-.419-.406-.615.7,1.351,1.393,2.708,2.057,4.079.025-.338,0-.658.006-.99.887,2.273-.217.771.773,2.875l.313-.159a19.563,19.563,0,0,1,.732,2.189c.165.694.3,1.349.426,2s.257,1.3.371,1.981c.091.692.2,1.416.339,2.21a73.426,73.426,0,0,1,1.768,9.989,51.748,51.748,0,0,1-.063,10.205l-.136,1.264-.068.631-.127.619-.512,2.466a17.435,17.435,0,0,1-.677,2.4c-.26.785-.5,1.577-.779,2.345l-1.018,2.217a17.671,17.671,0,0,1-1.094,2.137,29.664,29.664,0,0,1-2.668,3.842l-.541.266c-.411-.047-1.68,2.982-2.322,3.054-.289.381-.56.782-.872,1.147-.34.231-1,.763-.546.208a16.966,16.966,0,0,0-1.6,1.672c-.4.26-.832.482-1.247.718a74.424,74.424,0,0,1-6.176,4.184,35.986,35.986,0,0,1-6.974,3.266,93.37,93.37,0,0,1-12.7,2.748,98.083,98.083,0,0,1-13.538.888,49.735,49.735,0,0,1-15.981-2.551A67.158,67.158,0,0,1,89.2,160.415a3.592,3.592,0,0,0-1.043-.6c-.607-.5-1.191-1.018-1.788-1.524l-.892-.764-.814-.843L83.038,155l-1.448-1.839-.312-.392-.37-.462-.431-.661a34.528,34.528,0,0,1-2.393-4.01,21.288,21.288,0,0,1-1.264-2.643c-.367-.945-.809-1.89-1.144-2.87-.6-1.985-1.275-3.931-1.646-5.694-.817-3.5-1.184-6.012-1.59-5.364a10.1,10.1,0,0,0-.38,3.632,36.74,36.74,0,0,0,.261,4.12c.111.827.29,1.722.463,2.705l.285,1.536c.1.534.292,1.062.445,1.627l-.169-.205L74,146.362l.315.882c.12.281.257.548.381.813.513,1.057.982,2.038,1.479,2.94a23.866,23.866,0,0,0,3.582,4.589,2,2,0,0,0,.442.92c.138.2.3.413.48.634l.634.637c.893.855,1.832,1.78,2.277,2.258l-.123-.049c1.44.94,2.657,2.2,4.065,3.215a21.712,21.712,0,0,0,2.08,1.531,20.226,20.226,0,0,0,2.212,1.179,1.586,1.586,0,0,1-.914-.312c.528.279,1.088.616,1.669.891l1.672.779a6.405,6.405,0,0,1,1.806,1.055,58.146,58.146,0,0,0,8.915,2.859,38.937,38.937,0,0,0,4.323.8,21.527,21.527,0,0,0,3.393.24l-.255.051c2.064-.038,2.637.242,4.926.254.122.048.282.081.255.1,2.224-.154,6.453.16,8.246-.044l.121.2c1.471-.063,2.943-.144,4.411-.283-.55.035-1.1.057-1.651.072.528-.57,3.368.143,6.519-.667,3.013-.374,5.76-2.2,8.767-2.816,1.338-.666-1.123.779.93-.058.158.256-.934.483-.32.533,2.031-.8,3.509-.855,5.925-2.117l.192.158c3.044-1.81,6.1-2.831,7.832-4.521a12.491,12.491,0,0,1,2.589-1.686,7.231,7.231,0,0,0,2.446-2.076l1.289-.82c1.182-1.163.579-1.085,1.894-2.356.081.221,1.608-1.677,1.065-.73a25.026,25.026,0,0,0,3.654-5.365l.793-1.559.736-1.663c.517-1.127,1.131-2.276,1.628-3.56a11.286,11.286,0,0,1,.554-2.482,9.248,9.248,0,0,0,.349-2.272,16.21,16.21,0,0,0,.622-2.336c.152-.953.277-1.513.255.045,0,.268-.128.724-.177.682l.135.4a8.52,8.52,0,0,0,.506-2.205c.091-.724.141-1.434.179-2.142a18.33,18.33,0,0,0,0-2.137c-.016-.721-.015-1.456.03-2.224-.107.909-.136,2.118-.254,1.3.024-.946.144-1.9.088-2.841l.208.59-.069-4.248-.2.6a16.372,16.372,0,0,0-.374-5.124c-.338-1.012-.031,1.981-.416-.161-.2-1.358-.356-3.084-.717-4.868a47.607,47.607,0,0,0-1.326-5.338c-.14.392-.431-.509-.79-1.414l.174-.182c-.748-1.716-.836-2.047-.821-2.419-.007-.362-.007-.729-.825-2.405l.267.242c-.262-.244-.534-.481-.824-.708a6.605,6.605,0,0,1-1.153-2.355,5.909,5.909,0,0,0-1.474-2.5c.758,1.259-.091.834-.892-.773l.412.289a17.513,17.513,0,0,1-1.063-1.687c.382.462.457.091-.4-1.112l.772.684L165.6,92.049A18.783,18.783,0,0,0,163.509,89c-.376-.488-.727-.946-1-1.338a5.175,5.175,0,0,1-.606-.9s-.743-.9-1.609-1.864a12.043,12.043,0,0,0-1.381-1.336,6.591,6.591,0,0,0-1.09-.81c.821.5-.989-1.34-.3-1.013-.495-.363-1.516-1.015-2.5-1.751-.491-.366-.978-.748-1.4-1.107s-.833-.633-1.091-.89l.241.13c-4.218-3.29-7.918-4.417-12.214-6.37.112.317-2.184-.685-1.71-.156-2.377-.551-4.454-1.343-6.252-1.734a13.7,13.7,0,0,0-2.393-.462,4.062,4.062,0,0,0-1.764.222c-2.186-.246-2.573-.514-3.715-.623l.531-.029-2.636-.075c-.744,0-1.38.051-1.982.066-1.2.058-2.278.029-3.809.226a11.52,11.52,0,0,0-1.761.507,19.819,19.819,0,0,1-2.645.594c.836-.354-.258-.107-1.266.089.637-.154.826-.261-.529-.127-.174.095-.456.176-.712.289-.014-.011-.069-.008-.047-.035-1.639.529-1.333.5-.561.314-.031.039.043.056.292.041a27.084,27.084,0,0,0-3.085.739c-.993.322-1.784.633-1.945.51A39.849,39.849,0,0,0,93.325,78.8c-.489.15.229-.557,1.2-1.347L92.1,79.3c-.129-.2,1.332-1.145,2.065-1.738a23.017,23.017,0,0,0-2.311,1.553c-.7.628-1.394,1.3-2.1,1.976-.724.657-1.373,1.412-2.064,2.155s-1.47,1.433-2.187,2.216l-.418.8-.185.174a4.4,4.4,0,0,1-.788,1.37c-.537.337-.39-.359-1.6,1.363a15.244,15.244,0,0,0-1.861,2.669l-1.695,3.217c.627-.986.539-.6.34-.138a21.883,21.883,0,0,0-1.241,2.11l-.3-.041c.213-.121-.039.517-.352,1.233a11.516,11.516,0,0,0-.648,1.74c-.422.46.467-1.565.487-1.848-.9,1.893-1.062,2.4-1.285,2.87-.185.49-.478.937-1.159,2.919-.567,2.169.389-.287.255.8-.673,1.844-.967,3.743-1.775,5.846l.442-.615c-.41,1.784-.623,3.233-.95,4.5-.267,1.282-.49,2.422-.822,3.621-.138,1.7-.086,3.229-.119,4.563.031,1.339.145,2.5.214,3.5a20.484,20.484,0,0,0,.348,2.542c.127.7.243,1.26.35,1.7.443,1.757.753,1.614.887.617a39.933,39.933,0,0,0,.33-4.258c.147-1.525.229-2.806.229-2.806a116.086,116.086,0,0,1,2.145-12.969l.788-3.08c.294-1.051.671-2.117,1.03-3.257a53.709,53.709,0,0,1,3.2-7.432" transform="translate(-61.023 -58.519)" fill="#3a552a"/>
      </g>
    </g>
    <g id="Grupo_1212407" data-name="Grupo 1212407" transform="translate(3042.101 -5089.236)">
      <g id="Grupo_1212406" data-name="Grupo 1212406" clip-path="url(#clip-path-2)">
        <path id="Trazado_1274221" data-name="Trazado 1274221" d="M8.212,57.608a.95.95,0,0,1-1.424-.045.983.983,0,0,1,.076-1.383l3.29-3.266c1.431-1.42,3.343-1.357,5-3.011l4.881-4.87a.477.477,0,0,0,0-.56.43.43,0,0,0-.6-.032l-2.009,1.987a.985.985,0,0,1-1.445.034A1.039,1.039,0,0,1,16.022,45l2.946-2.964a.441.441,0,0,0,.11-.463c-.037-.149-.351-.417-.5-.268l-2.847,2.762a1,1,0,0,1-1.323-.186A1.027,1.027,0,0,1,14.41,42.6l3.031-3.051a.475.475,0,0,0,.089-.578.436.436,0,0,0-.571-.075L13.68,42.038a.922.922,0,0,1-1.232-.06.948.948,0,0,1-.137-1.309l2.142-2.183a.485.485,0,0,0-.005-.587.417.417,0,0,0-.62-.032L8.322,43.39a1.081,1.081,0,0,1-1.2.268,1.034,1.034,0,0,1-.6-.953l.159-3.359A.6.6,0,0,0,6.1,38.7a.577.577,0,0,0-.622.615L5,47.632a4.465,4.465,0,0,1-1.489,2.631L1.745,52.181a1.02,1.02,0,0,1-1.361.12A1,1,0,0,1,.19,50.945l2.2-2.426a1.856,1.856,0,0,0,.6-1.184l.548-8.715c.034-.535.565-.89.824-1.366A25.856,25.856,0,0,1,6,16.874c-1.213-1.435-1.423-3.356-2.5-4.453L.187,9.032C-.167,8.67.069,8,.393,7.724a1.016,1.016,0,0,1,1.349.069L4.918,11c1.5,1.51,1.612,3.6,2.7,4.691l5.251,5.29a.409.409,0,0,0,.615-.03.456.456,0,0,0-.1-.64L11.5,18.357a.992.992,0,0,1-.071-1.384.941.941,0,0,1,1.362-.066l3.054,3.028a.461.461,0,0,0,.562.1.426.426,0,0,0,.128-.625L14.05,16.92a1.034,1.034,0,0,1-.186-1.36.962.962,0,0,1,1.414-.187l3.067,3.015a.489.489,0,0,0,.634.065.483.483,0,0,0-.026-.664L16,14.818a1.006,1.006,0,1,1,1.42-1.424l2.005,2a.427.427,0,0,0,.55.037.406.406,0,0,0,.04-.633L14.425,9.2a1.112,1.112,0,0,1-.187-1.078c.448-1.47,4.59.231,4.96-.875.088-.263-.076-.765-.464-.787l-8.313-.469a3.479,3.479,0,0,1-2.2-1A28.912,28.912,0,0,1,5.529,2.4c-.351-.427.055-1.084.422-1.287A1.1,1.1,0,0,1,7.3,1.427L8.972,2.971c.362.333.852.934,1.394.968l7.225.457,2.2.216A26.1,26.1,0,0,1,41.627,6.3a10.426,10.426,0,0,1,3.3-1.843,5.31,5.31,0,0,0,1.9-1.306L49.8.219a.973.973,0,0,1,1.284.056A.94.94,0,0,1,51.2,1.6l-3.445,3.43c-1.348,1.342-3.445,1.463-4.69,2.7l-5.13,5.091a.474.474,0,0,0,.007.6.394.394,0,0,0,.609.024l2.012-1.985a.987.987,0,0,1,1.34-.056,1.007,1.007,0,0,1,.066,1.472l-3.017,3.045a.422.422,0,0,0,.044.62c.207.151.415.088.617-.113L42.1,13.956a1.023,1.023,0,0,1,1.38.005,1.008,1.008,0,0,1,.03,1.408l-3.034,3.059a.425.425,0,0,0,.032.581.343.343,0,0,0,.451.049c1.116-.931,2.079-1.954,3.1-2.978a.987.987,0,0,1,1.442-.114.972.972,0,0,1,.039,1.424L43.533,19.4a.6.6,0,0,0-.047.639.463.463,0,0,0,.6.05L49.6,14.575a1.066,1.066,0,0,1,1.131-.337.9.9,0,0,1,.694.811L51.3,18.544c-.014.384.149.618.439.682a.6.6,0,0,0,.75-.538l.419-7.828a4,4,0,0,1,1.05-2.673c.732-.763,1.439-1.526,2.131-2.326a1.07,1.07,0,0,1,1.406-.267,1.02,1.02,0,0,1,.176,1.524l-1.831,2A2.7,2.7,0,0,0,54.9,10.9l-.411,7.63a2.709,2.709,0,0,1-.927,2.07A25.921,25.921,0,0,1,51.6,41.658,9.017,9.017,0,0,1,53.4,44.8a5.464,5.464,0,0,0,1.436,2.081l2.814,2.776a1.053,1.053,0,0,1,.111,1.328.942.942,0,0,1-1.345.236L52.9,47.7c-1.378-1.383-1.266-3.253-2.932-4.922l-4.791-4.8a.45.45,0,0,0-.546-.124.424.424,0,0,0-.13.639l1.983,2.016a1.01,1.01,0,1,1-1.428,1.424l-3.178-3.1c-.145-.142-.653.32-.573.484l2.74,2.813a1,1,0,0,1-.025,1.343.986.986,0,0,1-1.366.06l-3.136-3.093a.382.382,0,0,0-.555.077.407.407,0,0,0,.053.579L41.864,44a1.068,1.068,0,0,1,.345,1.227c-.212.513-.948.861-1.385.447l-2.287-2.167a.459.459,0,0,0-.514-.066.447.447,0,0,0-.1.661l5.6,5.606a1,1,0,0,1,.185,1.142,1.06,1.06,0,0,1-1.013.576l-3.043-.132c-.447-.02-.753-.021-.882.415a.614.614,0,0,0,.564.773l7.576.4a4.431,4.431,0,0,1,2.934,1.089l2.245,2.058a1.082,1.082,0,0,1,.3,1.438,1.034,1.034,0,0,1-1.565.157l-1.9-1.76a3.193,3.193,0,0,0-2.239-1l-7.37-.39a2.573,2.573,0,0,1-1.93-.925,25.813,25.813,0,0,1-21.064-1.957c-1.659,1.588-3.66,1.631-5.091,3.042ZM19.517,11.261a20.043,20.043,0,0,1,17.657-.552L40.14,7.721A24.539,24.539,0,0,0,21.1,6.229a2.591,2.591,0,0,1-.673,2.645,3.193,3.193,0,0,1-2.748.7ZM36.191,45.375a2.453,2.453,0,0,1,.715-3.644,2.562,2.562,0,0,1,.341-2.444,2.615,2.615,0,0,1,2.2-.913,2.393,2.393,0,0,1,3.2-1.288A2.329,2.329,0,0,1,45.471,36a17.977,17.977,0,0,0-.126-14.365,2.371,2.371,0,0,1-3.627-.686,2.588,2.588,0,0,1-2.445-.331,3.146,3.146,0,0,1-.977-2.157c-1.138-.767-1.885-1.968-1.246-3.28a2.373,2.373,0,0,1-1.1-2.837,18.158,18.158,0,0,0-15.019.485,2.9,2.9,0,0,1,1.237,2.385c0,.822-.725,1.441-1.147,1.978a3.077,3.077,0,0,1-.5,2.468,2.546,2.546,0,0,1-2.143.845,2.427,2.427,0,0,1-3.2,1.334,2.453,2.453,0,0,1-3.156.96,17.88,17.88,0,0,0,.434,13.464,2.574,2.574,0,0,1,3.725.623,2.909,2.909,0,0,1,2.488.451,3.328,3.328,0,0,1,.873,2.089c1.128.732,1.891,1.937,1.235,3.258a2.37,2.37,0,0,1,1.11,2.849,17.87,17.87,0,0,0,14.311-.157m13.938-5.208a23.873,23.873,0,0,0,1.511-18.92A2.746,2.746,0,0,1,49.3,17.794l-2.4,2.361A19.988,19.988,0,0,1,47.152,37.2ZM10.937,37.685A19.984,19.984,0,0,1,10.4,21.352L7.369,18.358A23.889,23.889,0,0,0,6.2,36.618a2.789,2.789,0,0,1,2.363,3.465ZM36.616,51.639A2.737,2.737,0,0,1,40.062,49.3L37.7,46.9a19.857,19.857,0,0,1-17.06.255l-3,2.963a23.819,23.819,0,0,0,18.978,1.523" transform="translate(0.001 0)" fill="#12263f"/>
        <path id="Trazado_1274222" data-name="Trazado 1274222" d="M114.69,146.741a4.122,4.122,0,0,1-.475-5.649,3.987,3.987,0,0,1,5.6-.511l1.959,1.944,6.542-6.3a3.952,3.952,0,0,1,5.488,5.665l-9.291,9.223a3.934,3.934,0,0,1-5.3.163Zm1.191-1.65,4.392,4.462a2.051,2.051,0,0,0,2.987,0l3.714-3.653,5.306-5.243a1.977,1.977,0,0,0-.12-2.9,2.055,2.055,0,0,0-2.849.243l-5.961,5.867a2.033,2.033,0,0,1-2.971.131l-1.753-1.771a1.981,1.981,0,0,0-2.745,2.857" transform="translate(-95.168 -113.602)" fill="#12263f"/>
      </g>
    </g>
  </g>
</svg>
