<svg xmlns="http://www.w3.org/2000/svg" xmlns:xlink="http://www.w3.org/1999/xlink" width="96" height="96" viewBox="0 0 96 96">
  <defs>
    <clipPath id="clip-path">
      <rect id="Rectángulo_465385" data-name="Rectángulo 465385" width="52.922" height="56.738" fill="#12263f"/>
    </clipPath>
  </defs>
  <g id="Grupo_1211218" data-name="Grupo 1211218" transform="translate(-735.745 -9122)">
    <g id="Grupo_1188527" data-name="Grupo 1188527" transform="translate(-728.818 -89.375)">
      <g id="Grupo_1188526" data-name="Grupo 1188526">
        <path id="Trazado_1033015" data-name="Trazado 1033015" d="M96,47.778A48,48,0,1,1,48,0,47.889,47.889,0,0,1,96,47.778" transform="translate(1464.564 9211.818)" fill="#ebffe0"/>
        <path id="Trazado_1033017" data-name="Trazado 1033017" d="M374.691,757.713l-.2.008a.74.74,0,0,0,.2-.008" transform="translate(1131.201 8546.583)" fill="#ffe4b3"/>
        <path id="Trazado_1033018" data-name="Trazado 1033018" d="M342.621,99.876l-.041.008-.2.065Z" transform="translate(1158.943 9116.164)" fill="#ffe4b3"/>
        <path id="Trazado_1033019" data-name="Trazado 1033019" d="M80.427,94.229a41.8,41.8,0,0,1,3.407-5.117c1.022-1.43,2.127-2.505,3.131-3.67.537-.551,1.107-1.071,1.675-1.635l.874-.861.988-.831a42.841,42.841,0,0,1,4.961-3.764,41.965,41.965,0,0,1,13.287-5.271c2.094-.883,6.05-.794,8.661-1.11l1.013.241a10.76,10.76,0,0,1,2.869.112l-.062.048c1.352.041,2.866.258,3.531.345l-.065.044,1.614.3-.293.022c.584.083,1.175.16,1.758.273l1.713.445c.563.158,1.125.3,1.661.482l1.539.609-.086-.28c.528.23,1.016.432,1.475.614s.862.4,1.26.574c.789.36,1.5.656,2.2.952.67.348,1.328.692,2.036,1.091.352.2.724.405,1.1.655.365.267.748.556,1.154.877l-.078.015c.584.3,1.128.6,1.64.91.5.328.937.688,1.371,1.03s.841.692,1.24,1.036.737.747,1.1,1.116c1.459,1.488,2.808,3.078,4.708,5.018-.468-.49.081.3,0,.294l1.17,1.437c.378.466.69.941,1,1.325.6.777,1.085,1.276,1.291,1.172.965,1.557.633,1.359.611,1.646.155-.1,1.06,1.213,1.723,2.481-.123-.183-.23-.375-.366-.551.629,1.21,1.256,2.426,1.855,3.655.022-.3,0-.59.006-.887.8,2.036-.2.691.7,2.576l.282-.142a17.451,17.451,0,0,1,.66,1.962c.149.622.27,1.209.384,1.792s.232,1.161.334,1.775c.082.62.178,1.269.306,1.981a65.415,65.415,0,0,1,1.594,8.95,46.076,46.076,0,0,1-.056,9.144l-.122,1.132-.061.566-.114.554-.461,2.21a15.544,15.544,0,0,1-.611,2.151c-.235.7-.447,1.413-.7,2.1l-.917,1.986a15.794,15.794,0,0,1-.986,1.915,26.575,26.575,0,0,1-2.405,3.442l-.488.238c-.371-.042-1.515,2.672-2.094,2.736-.26.341-.5.7-.786,1.028-.306.207-.9.684-.493.186a15.244,15.244,0,0,0-1.439,1.5c-.362.233-.75.432-1.124.643-1.886,1.387-3.667,2.621-5.568,3.749a32.54,32.54,0,0,1-6.288,2.926,84.641,84.641,0,0,1-11.452,2.462,88.983,88.983,0,0,1-12.206.8,45.1,45.1,0,0,1-14.409-2.286,60.716,60.716,0,0,1-13.085-6.251,3.245,3.245,0,0,0-.941-.534c-.547-.444-1.073-.912-1.612-1.366l-.8-.684-.734-.756-1.464-1.513-1.305-1.648-.282-.351-.334-.414-.388-.593a30.9,30.9,0,0,1-2.157-3.593,19.02,19.02,0,0,1-1.14-2.368c-.33-.847-.729-1.693-1.031-2.571-.537-1.779-1.15-3.522-1.484-5.1-.737-3.134-1.067-5.386-1.434-4.806a9,9,0,0,0-.342,3.254,32.714,32.714,0,0,0,.235,3.691c.1.741.261,1.543.417,2.424l.257,1.376c.089.478.263.952.4,1.458l-.152-.184.594,1.688.284.79c.108.251.231.491.344.729.463.947.885,1.826,1.333,2.634a21.4,21.4,0,0,0,3.229,4.111,1.784,1.784,0,0,0,.4.825c.125.176.269.37.433.568l.571.57c.805.766,1.652,1.595,2.053,2.023l-.111-.044c1.3.842,2.4,1.97,3.665,2.881a19.571,19.571,0,0,0,1.875,1.371,18.278,18.278,0,0,0,1.994,1.056,1.437,1.437,0,0,1-.824-.28c.476.25.981.552,1.5.8l1.508.7a5.782,5.782,0,0,1,1.629.945,52.663,52.663,0,0,0,8.038,2.562,35.3,35.3,0,0,0,3.9.714,19.528,19.528,0,0,0,3.059.215l-.23.046c1.861-.034,2.378.217,4.442.228.11.043.254.072.23.085,2-.138,5.818.144,7.435-.04l.109.175c1.327-.056,2.653-.129,3.977-.254-.5.032-.992.051-1.489.064.476-.511,3.037.128,5.877-.6,2.716-.335,5.194-1.969,7.9-2.523,1.207-.6-1.012.7.839-.052.142.229-.842.433-.288.478,1.831-.715,3.164-.766,5.342-1.9l.173.141c2.745-1.622,5.5-2.536,7.062-4.051a11.272,11.272,0,0,1,2.334-1.51,6.512,6.512,0,0,0,2.206-1.86l1.162-.735c1.066-1.042.522-.972,1.707-2.111.073.2,1.45-1.5.96-.654a22.416,22.416,0,0,0,3.295-4.807l.715-1.4.664-1.49c.466-1.01,1.02-2.039,1.468-3.189a10.057,10.057,0,0,1,.5-2.224,8.237,8.237,0,0,0,.315-2.036,14.452,14.452,0,0,0,.561-2.093c.137-.854.25-1.355.229.04,0,.241-.115.649-.159.611l.122.361a7.593,7.593,0,0,0,.456-1.976c.082-.649.127-1.285.161-1.92a16.32,16.32,0,0,0,0-1.915c-.014-.646-.014-1.3.027-1.992-.1.815-.122,1.9-.229,1.168.022-.848.129-1.7.079-2.545l.188.528-.062-3.806-.183.538a14.58,14.58,0,0,0-.338-4.591c-.305-.907-.028,1.775-.375-.144-.183-1.216-.321-2.764-.647-4.361a42.437,42.437,0,0,0-1.2-4.783c-.126.352-.389-.456-.712-1.267l.157-.163c-.675-1.538-.754-1.834-.74-2.168-.006-.324-.006-.654-.744-2.155l.24.217c-.236-.219-.481-.431-.743-.635a5.9,5.9,0,0,1-1.04-2.11,5.285,5.285,0,0,0-1.329-2.239c.683,1.128-.082.747-.8-.692l.371.259a15.676,15.676,0,0,1-.958-1.511c.344.414.412.082-.359-1l.7.612-1.683-1.893a16.825,16.825,0,0,0-1.884-2.73c-.339-.437-.656-.847-.9-1.2a4.635,4.635,0,0,1-.547-.809s-.67-.8-1.451-1.67a10.827,10.827,0,0,0-1.245-1.2,5.941,5.941,0,0,0-.983-.726c.74.447-.892-1.2-.267-.908-.446-.326-1.367-.909-2.25-1.569-.443-.328-.882-.67-1.265-.992s-.751-.567-.984-.8l.217.116c-3.8-2.948-7.139-3.957-11.012-5.707.1.284-1.969-.613-1.542-.14-2.143-.493-4.016-1.2-5.637-1.553a12.427,12.427,0,0,0-2.157-.414,3.684,3.684,0,0,0-1.59.2c-1.971-.22-2.32-.46-3.349-.558L120,68.96l-2.376-.067c-.671,0-1.244.046-1.787.059-1.085.052-2.054.026-3.435.2a10.437,10.437,0,0,0-1.587.454,17.964,17.964,0,0,1-2.385.532c.753-.317-.233-.1-1.141.079.574-.138.745-.234-.477-.114-.157.085-.412.158-.642.259-.013-.01-.062-.007-.042-.031-1.478.474-1.2.452-.506.282-.028.035.038.05.263.037a24.548,24.548,0,0,0-2.782.662c-.9.288-1.609.567-1.753.457a35.975,35.975,0,0,0-10.14,5.994c-.441.135.207-.5,1.084-1.207l-2.188,1.655c-.116-.182,1.2-1.026,1.862-1.557a20.761,20.761,0,0,0-2.084,1.392c-.634.562-1.257,1.161-1.889,1.77-.653.589-1.238,1.265-1.861,1.931s-1.326,1.284-1.972,1.985l-.377.716-.167.156c.076.049-.374.78-.71,1.228-.484.3-.352-.321-1.44,1.221a13.658,13.658,0,0,0-1.677,2.391L78.264,92.33c.565-.883.486-.537.307-.124a19.579,19.579,0,0,0-1.119,1.89l-.268-.036c.192-.109-.035.463-.317,1.1a10.276,10.276,0,0,0-.585,1.559c-.38.413.421-1.4.439-1.656-.814,1.7-.957,2.147-1.158,2.572a28.127,28.127,0,0,0-1.045,2.615c-.511,1.944.351-.257.23.716-.606,1.652-.872,3.353-1.6,5.238l.4-.551c-.37,1.6-.562,2.9-.856,4.034-.241,1.149-.442,2.17-.741,3.245-.124,1.526-.078,2.893-.107,4.088.028,1.2.131,2.242.193,3.139a18.244,18.244,0,0,0,.314,2.278c.114.628.22,1.129.316,1.523.4,1.574.679,1.446.8.552a35.559,35.559,0,0,0,.3-3.815c.133-1.366.207-2.514.207-2.514a103.412,103.412,0,0,1,1.934-11.62l.71-2.76c.265-.942.6-1.9.928-2.918a47.962,47.962,0,0,1,2.887-6.659" transform="translate(1392.723 9142.481)" fill="#3a552a"/>
      </g>
    </g>
    <g id="Grupo_1212380" data-name="Grupo 1212380" transform="translate(755.666 9140.126)">
      <g id="Grupo_1212379" data-name="Grupo 1212379" clip-path="url(#clip-path)">
        <path id="Trazado_1274093" data-name="Trazado 1274093" d="M97.1,164.124H65.521l0,1.744h26.17a.872.872,0,0,1,.981.776.906.906,0,0,1-.816,1l-27.309,0a.92.92,0,0,1-.871-.985l.024-3.53a.8.8,0,0,1,.8-.758l1.522-.036.032-2.36a10.211,10.211,0,0,1,2.721-6.643l0-6.543a.909.909,0,0,1,.791-.907l4.763-.047A13.166,13.166,0,0,1,72.818,139a18.44,18.44,0,0,1,.618-5.259,5.947,5.947,0,0,1,4.451-4.09,14.671,14.671,0,0,1,6.771-.018,6.048,6.048,0,0,1,4.659,4.714,23.184,23.184,0,0,1,.356,6.829,12.26,12.26,0,0,1-1.4,4.668l4.692.033a.863.863,0,0,1,.833.862l.013,6.589a10.243,10.243,0,0,1,2.73,6.652l.025,2.38,1.426.011a.858.858,0,0,1,.895.874l.012,3.415a.927.927,0,0,1-.922.984l-3.54.012a.893.893,0,0,1-.963-.919.915.915,0,0,1,1-.872l2.643-.025Zm-18.956-28.45a8.6,8.6,0,0,0,9.818,3.594c.052-3.487-.126-7.213-3.853-7.964a13.083,13.083,0,0,0-6.118.143c-2.891.92-3.31,3.6-3.32,6.483,1.435-.985,1.817-2.719,2.689-2.719a.937.937,0,0,1,.785.463m8.056,10.167a10.522,10.522,0,0,0,1.71-4.725,10.365,10.365,0,0,1-10.529-3.448,10.112,10.112,0,0,1-2.744,2.51,10.014,10.014,0,0,0,1.811,5.687ZM83.8,157.651a.773.773,0,0,1,.75.761l.055,1.076,7.417-.021V147.642H70.578l0,11.832,7.309.014a1.01,1.01,0,0,0,.11-.777.972.972,0,0,1,1.018-1.083Zm-5.867,3.6-8.175.016a.918.918,0,0,1-.978-.872l-.049-3.76a10.351,10.351,0,0,0-.9,5.716l10.125.023a2.32,2.32,0,0,0-.026-1.122m6.671.02a1.8,1.8,0,0,0,.044,1.1H94.736a10.923,10.923,0,0,0-.859-5.743l-.079,3.73c-.023.4-.323.891-.775.893Zm-1.79,1-.012-2.881-3,0,0,2.964a17.808,17.808,0,0,0,3.009-.085" transform="translate(-54.648 -110.914)" fill="#12263f"/>
        <path id="Trazado_1274094" data-name="Trazado 1274094" d="M10.245,127.99a2.754,2.754,0,0,1-2.582,2.326,2.689,2.689,0,0,1-2.817-2.269c-2.1-.592-1.277-2.469-1.6-2.75a1.813,1.813,0,0,1-.712-1.4c-.006-1.245-1.444-1.978-2.033-3.508a7.372,7.372,0,0,1,5.582-9.9,7.49,7.49,0,0,1,8.906,6.321,6.655,6.655,0,0,1-1.863,5.68c-.947.979-.219,1.825-1.311,2.813-.335.3.445,2.24-1.569,2.69m.493-4.22a4.182,4.182,0,0,1,1.128-2.551,4.925,4.925,0,0,0,1.232-4.812,5.7,5.7,0,0,0-5.707-4.284A5.716,5.716,0,0,0,1.9,116.636a4.928,4.928,0,0,0,1.22,4.523,4.376,4.376,0,0,1,1.225,2.628Zm-.816,2.51a1.306,1.306,0,0,0-.02-.713l-4.735.035a.633.633,0,0,0,.044.7ZM8.317,128.1l-1.589-.043a.787.787,0,0,0,.8.461.813.813,0,0,0,.787-.417" transform="translate(0 -94.699)" fill="#12263f"/>
        <path id="Trazado_1274095" data-name="Trazado 1274095" d="M139.231,15.029c-.242.48-.116,1.307-.615,1.578a6.15,6.15,0,0,1-3.273.3c-1.412-.071-1.176-.914-1.6-1.878a3.5,3.5,0,0,1-1.531.753,7.1,7.1,0,0,1-2.938-3.035c-.123-.539.488-1.087.676-1.481-.787-.46-1.662-.136-1.817-1.371a7,7,0,0,1,.265-3.618,5.507,5.507,0,0,1,1.574-.505c-.16-.477-.827-.949-.695-1.518A6.066,6.066,0,0,1,132.1,1.3c.577-.293,1.159.386,1.693.657a8.2,8.2,0,0,1,.519-1.626,7.1,7.1,0,0,1,4.242-.018c.534.185.483,1.422.691,1.528.285.145,1.091-.91,1.743-.538a7.323,7.323,0,0,1,2.7,2.688c.375.655-.656,1.5-.542,1.744s1.323.172,1.519.693a6.168,6.168,0,0,1-.006,4.156c-.167.465-1.283.376-1.464.593-.25.3.911,1.132.475,1.83a7.031,7.031,0,0,1-2.831,2.7c-.538.247-1.076-.482-1.6-.682m.077-1.832c.5-.111.893.411,1.268.535a2.371,2.371,0,0,0,1.148-1.228c-.106-.4-.682-.787-.52-1.28.444-1.351.512-1.7,1.9-1.877a3.343,3.343,0,0,0-.015-1.782,1.5,1.5,0,0,1-1.646-1.077c-.242-.616-.443-1.136.123-1.7a.559.559,0,0,0,.075-.653,4.332,4.332,0,0,0-.9-.839c-.524-.191-.9,1-2.168.261-.315-.183-.815-.211-.938-.625l-.324-1.091-1.684.029c-.092.383-.042.936-.363,1.21a2.911,2.911,0,0,1-1.753.717l-1.153-.574A5.957,5.957,0,0,0,131.218,4.4c.256.425.721.882.568,1.4-.4,1.347-.523,1.642-1.879,1.827a3.734,3.734,0,0,0,0,1.767,1.531,1.531,0,0,1,1.658,1.073,1.585,1.585,0,0,1-.378,2.059,3.978,3.978,0,0,0,1.185,1.226L133.5,13.2a2.667,2.667,0,0,1,1.784.719c.311.312.259.815.362,1.213a4.575,4.575,0,0,0,1.741-.033c.074-1.269.553-1.6,1.921-1.906" transform="translate(-109.863 0)" fill="#12263f"/>
        <path id="Trazado_1274096" data-name="Trazado 1274096" d="M285.7,139.314l-12.536,0a.868.868,0,0,1-.907-.918l0-14.583c0-.613.51-.872,1.037-.871l10.857.023,2.4,2.413.009,13.108a.849.849,0,0,1-.869.824m-.922-13.237-1.431-1.368-9.33.022v12.831h10.769Z" transform="translate(-233.643 -105.511)" fill="#12263f"/>
        <path id="Trazado_1274097" data-name="Trazado 1274097" d="M162.838,31.369a4.044,4.044,0,1,1-3.361,4.75,4.039,4.039,0,0,1,3.361-4.75m-.018,1.816a2.251,2.251,0,0,0-1.542,2.846,2.267,2.267,0,0,0,4.356-1.259,2.243,2.243,0,0,0-2.814-1.587" transform="translate(-136.8 -26.877)" fill="#12263f"/>
        <path id="Trazado_1274098" data-name="Trazado 1274098" d="M296.212,161.532l-1.818-2.343a.865.865,0,0,1,.241-1.189.928.928,0,0,1,1.26.241l1.041,1.335,3.71-4.158a.927.927,0,0,1,1.386-.145.917.917,0,0,1-.049,1.347l-4.368,4.837a.9.9,0,0,1-1.406.073" transform="translate(-252.52 -133.039)" fill="#12263f"/>
      </g>
    </g>
  </g>
</svg>
