<svg xmlns="http://www.w3.org/2000/svg" xmlns:xlink="http://www.w3.org/1999/xlink" width="96" height="96" viewBox="0 0 96 96">
  <defs>
    <clipPath id="clip-path">
      <rect id="Rectángulo_465384" data-name="Rectángulo 465384" width="48.347" height="55.636" fill="#12263f"/>
    </clipPath>
  </defs>
  <g id="Grupo_1211216" data-name="Grupo 1211216" transform="translate(-735.745 -9122)">
    <g id="Grupo_1188527" data-name="Grupo 1188527" transform="translate(-728.818 -89.375)">
      <g id="Grupo_1188526" data-name="Grupo 1188526">
        <path id="Trazado_1033015" data-name="Trazado 1033015" d="M96,47.778A48,48,0,1,1,48,0,47.889,47.889,0,0,1,96,47.778" transform="translate(1464.564 9211.818)" fill="#ebffe0"/>
        <path id="Trazado_1033017" data-name="Trazado 1033017" d="M374.691,757.713l-.2.008a.74.74,0,0,0,.2-.008" transform="translate(1131.201 8546.583)" fill="#ffe4b3"/>
        <path id="Trazado_1033018" data-name="Trazado 1033018" d="M342.621,99.876l-.041.008-.2.065Z" transform="translate(1158.943 9116.164)" fill="#ffe4b3"/>
        <path id="Trazado_1033019" data-name="Trazado 1033019" d="M80.427,94.229a41.8,41.8,0,0,1,3.407-5.117c1.022-1.43,2.127-2.505,3.131-3.67.537-.551,1.107-1.071,1.675-1.635l.874-.861.988-.831a42.841,42.841,0,0,1,4.961-3.764,41.965,41.965,0,0,1,13.287-5.271c2.094-.883,6.05-.794,8.661-1.11l1.013.241a10.76,10.76,0,0,1,2.869.112l-.062.048c1.352.041,2.866.258,3.531.345l-.065.044,1.614.3-.293.022c.584.083,1.175.16,1.758.273l1.713.445c.563.158,1.125.3,1.661.482l1.539.609-.086-.28c.528.23,1.016.432,1.475.614s.862.4,1.26.574c.789.36,1.5.656,2.2.952.67.348,1.328.692,2.036,1.091.352.2.724.405,1.1.655.365.267.748.556,1.154.877l-.078.015c.584.3,1.128.6,1.64.91.5.328.937.688,1.371,1.03s.841.692,1.24,1.036.737.747,1.1,1.116c1.459,1.488,2.808,3.078,4.708,5.018-.468-.49.081.3,0,.294l1.17,1.437c.378.466.69.941,1,1.325.6.777,1.085,1.276,1.291,1.172.965,1.557.633,1.359.611,1.646.155-.1,1.06,1.213,1.723,2.481-.123-.183-.23-.375-.366-.551.629,1.21,1.256,2.426,1.855,3.655.022-.3,0-.59.006-.887.8,2.036-.2.691.7,2.576l.282-.142a17.451,17.451,0,0,1,.66,1.962c.149.622.27,1.209.384,1.792s.232,1.161.334,1.775c.082.62.178,1.269.306,1.981a65.415,65.415,0,0,1,1.594,8.95,46.076,46.076,0,0,1-.056,9.144l-.122,1.132-.061.566-.114.554-.461,2.21a15.544,15.544,0,0,1-.611,2.151c-.235.7-.447,1.413-.7,2.1l-.917,1.986a15.794,15.794,0,0,1-.986,1.915,26.575,26.575,0,0,1-2.405,3.442l-.488.238c-.371-.042-1.515,2.672-2.094,2.736-.26.341-.5.7-.786,1.028-.306.207-.9.684-.493.186a15.244,15.244,0,0,0-1.439,1.5c-.362.233-.75.432-1.124.643-1.886,1.387-3.667,2.621-5.568,3.749a32.54,32.54,0,0,1-6.288,2.926,84.641,84.641,0,0,1-11.452,2.462,88.983,88.983,0,0,1-12.206.8,45.1,45.1,0,0,1-14.409-2.286,60.716,60.716,0,0,1-13.085-6.251,3.245,3.245,0,0,0-.941-.534c-.547-.444-1.073-.912-1.612-1.366l-.8-.684-.734-.756-1.464-1.513-1.305-1.648-.282-.351-.334-.414-.388-.593a30.9,30.9,0,0,1-2.157-3.593,19.02,19.02,0,0,1-1.14-2.368c-.33-.847-.729-1.693-1.031-2.571-.537-1.779-1.15-3.522-1.484-5.1-.737-3.134-1.067-5.386-1.434-4.806a9,9,0,0,0-.342,3.254,32.714,32.714,0,0,0,.235,3.691c.1.741.261,1.543.417,2.424l.257,1.376c.089.478.263.952.4,1.458l-.152-.184.594,1.688.284.79c.108.251.231.491.344.729.463.947.885,1.826,1.333,2.634a21.4,21.4,0,0,0,3.229,4.111,1.784,1.784,0,0,0,.4.825c.125.176.269.37.433.568l.571.57c.805.766,1.652,1.595,2.053,2.023l-.111-.044c1.3.842,2.4,1.97,3.665,2.881a19.571,19.571,0,0,0,1.875,1.371,18.278,18.278,0,0,0,1.994,1.056,1.437,1.437,0,0,1-.824-.28c.476.25.981.552,1.5.8l1.508.7a5.782,5.782,0,0,1,1.629.945,52.663,52.663,0,0,0,8.038,2.562,35.3,35.3,0,0,0,3.9.714,19.528,19.528,0,0,0,3.059.215l-.23.046c1.861-.034,2.378.217,4.442.228.11.043.254.072.23.085,2-.138,5.818.144,7.435-.04l.109.175c1.327-.056,2.653-.129,3.977-.254-.5.032-.992.051-1.489.064.476-.511,3.037.128,5.877-.6,2.716-.335,5.194-1.969,7.9-2.523,1.207-.6-1.012.7.839-.052.142.229-.842.433-.288.478,1.831-.715,3.164-.766,5.342-1.9l.173.141c2.745-1.622,5.5-2.536,7.062-4.051a11.272,11.272,0,0,1,2.334-1.51,6.512,6.512,0,0,0,2.206-1.86l1.162-.735c1.066-1.042.522-.972,1.707-2.111.073.2,1.45-1.5.96-.654a22.416,22.416,0,0,0,3.295-4.807l.715-1.4.664-1.49c.466-1.01,1.02-2.039,1.468-3.189a10.057,10.057,0,0,1,.5-2.224,8.237,8.237,0,0,0,.315-2.036,14.452,14.452,0,0,0,.561-2.093c.137-.854.25-1.355.229.04,0,.241-.115.649-.159.611l.122.361a7.593,7.593,0,0,0,.456-1.976c.082-.649.127-1.285.161-1.92a16.32,16.32,0,0,0,0-1.915c-.014-.646-.014-1.3.027-1.992-.1.815-.122,1.9-.229,1.168.022-.848.129-1.7.079-2.545l.188.528-.062-3.806-.183.538a14.58,14.58,0,0,0-.338-4.591c-.305-.907-.028,1.775-.375-.144-.183-1.216-.321-2.764-.647-4.361a42.437,42.437,0,0,0-1.2-4.783c-.126.352-.389-.456-.712-1.267l.157-.163c-.675-1.538-.754-1.834-.74-2.168-.006-.324-.006-.654-.744-2.155l.24.217c-.236-.219-.481-.431-.743-.635a5.9,5.9,0,0,1-1.04-2.11,5.285,5.285,0,0,0-1.329-2.239c.683,1.128-.082.747-.8-.692l.371.259a15.676,15.676,0,0,1-.958-1.511c.344.414.412.082-.359-1l.7.612-1.683-1.893a16.825,16.825,0,0,0-1.884-2.73c-.339-.437-.656-.847-.9-1.2a4.635,4.635,0,0,1-.547-.809s-.67-.8-1.451-1.67a10.827,10.827,0,0,0-1.245-1.2,5.941,5.941,0,0,0-.983-.726c.74.447-.892-1.2-.267-.908-.446-.326-1.367-.909-2.25-1.569-.443-.328-.882-.67-1.265-.992s-.751-.567-.984-.8l.217.116c-3.8-2.948-7.139-3.957-11.012-5.707.1.284-1.969-.613-1.542-.14-2.143-.493-4.016-1.2-5.637-1.553a12.427,12.427,0,0,0-2.157-.414,3.684,3.684,0,0,0-1.59.2c-1.971-.22-2.32-.46-3.349-.558L120,68.96l-2.376-.067c-.671,0-1.244.046-1.787.059-1.085.052-2.054.026-3.435.2a10.437,10.437,0,0,0-1.587.454,17.964,17.964,0,0,1-2.385.532c.753-.317-.233-.1-1.141.079.574-.138.745-.234-.477-.114-.157.085-.412.158-.642.259-.013-.01-.062-.007-.042-.031-1.478.474-1.2.452-.506.282-.028.035.038.05.263.037a24.548,24.548,0,0,0-2.782.662c-.9.288-1.609.567-1.753.457a35.975,35.975,0,0,0-10.14,5.994c-.441.135.207-.5,1.084-1.207l-2.188,1.655c-.116-.182,1.2-1.026,1.862-1.557a20.761,20.761,0,0,0-2.084,1.392c-.634.562-1.257,1.161-1.889,1.77-.653.589-1.238,1.265-1.861,1.931s-1.326,1.284-1.972,1.985l-.377.716-.167.156c.076.049-.374.78-.71,1.228-.484.3-.352-.321-1.44,1.221a13.658,13.658,0,0,0-1.677,2.391L78.264,92.33c.565-.883.486-.537.307-.124a19.579,19.579,0,0,0-1.119,1.89l-.268-.036c.192-.109-.035.463-.317,1.1a10.276,10.276,0,0,0-.585,1.559c-.38.413.421-1.4.439-1.656-.814,1.7-.957,2.147-1.158,2.572a28.127,28.127,0,0,0-1.045,2.615c-.511,1.944.351-.257.23.716-.606,1.652-.872,3.353-1.6,5.238l.4-.551c-.37,1.6-.562,2.9-.856,4.034-.241,1.149-.442,2.17-.741,3.245-.124,1.526-.078,2.893-.107,4.088.028,1.2.131,2.242.193,3.139a18.244,18.244,0,0,0,.314,2.278c.114.628.22,1.129.316,1.523.4,1.574.679,1.446.8.552a35.559,35.559,0,0,0,.3-3.815c.133-1.366.207-2.514.207-2.514a103.412,103.412,0,0,1,1.934-11.62l.71-2.76c.265-.942.6-1.9.928-2.918a47.962,47.962,0,0,1,2.887-6.659" transform="translate(1392.723 9142.481)" fill="#3a552a"/>
      </g>
    </g>
    <g id="Grupo_1212378" data-name="Grupo 1212378" transform="translate(759.572 9142.182)">
      <g id="Grupo_1212377" data-name="Grupo 1212377" clip-path="url(#clip-path)">
        <path id="Trazado_1274089" data-name="Trazado 1274089" d="M59.1,25.7c.293,1.639,1.954,2.715.855,3.8L57.343,32.1a.838.838,0,0,1-.921.25L53.738,31a11.961,11.961,0,0,1-2.486,1.042l-.95,2.8a.886.886,0,0,1-.878.539l-3.8.006a.932.932,0,0,1-.929-.651l-.905-2.686A11.789,11.789,0,0,1,41.309,31l-2.575,1.3a.83.83,0,0,1-.959-.127L34.8,29.156c-.364-.368.033-1.026.207-1.369l1.024-2.022-.687-1.421-11.819-.017a2.768,2.768,0,0,1-2.244-4.006L32.294,1.227A2.69,2.69,0,0,1,34.791,0a2.765,2.765,0,0,1,2.28,1.466L40.414,7.28c.171.3.5.825.912.7.834-.258,1.581-.746,2.468-.948l.9-2.738a.849.849,0,0,1,.829-.577h3.992a.839.839,0,0,1,.834.588l.941,2.679c.722.4,1.677.585,2.428,1.07L56.2,6.8a.942.942,0,0,1,1.135.14l2.679,2.672a1.1,1.1,0,0,1,.179,1.348l-1.212,2.33a15.307,15.307,0,0,1,1.038,2.5l2.708.908a.852.852,0,0,1,.619.836v3.955a1.011,1.011,0,0,1-.82.948l-2.523.816ZM45.512,22.65a1.047,1.047,0,0,0,.98-.7,1.16,1.16,0,0,0-.152-1.052L35.55,2.225a1.019,1.019,0,0,0-.9-.555,1.114,1.114,0,0,0-.89.411L22.793,21.051a1.064,1.064,0,0,0,.079,1.145,1.109,1.109,0,0,0,.978.466Zm8.753,6.71L56.54,30.5l1.95-1.934-1.119-2.249c-.49-.984.561-1.718,1.151-3.937a1,1,0,0,1,.743-.671l2.392-.769,0-2.845c-1.32-.435-2.922-.638-3.149-1.449a11.443,11.443,0,0,0-1.158-2.788,1.06,1.06,0,0,1-.023-1.038L58.5,10.547l-1.969-2L53.67,9.922a14.646,14.646,0,0,0-3.055-1.309,1.24,1.24,0,0,1-.923-.831L48.912,5.41,46.119,5.4l-.77,2.382c-.328,1.016-2.007.962-3.523,1.9l1.48,2.544a8.43,8.43,0,1,1-2.727,12.105l-3.353.021c.2.464.8,1.007.58,1.489l-1.259,2.726,1.953,1.94,2.122-1.076c1.213-.615,1.8.572,3.667.963a1.407,1.407,0,0,1,1.136,1.1l.691,2.151,2.8,0,.835-2.508c.269-.807,1.594-.676,3.339-1.715a1.146,1.146,0,0,1,1.178-.06M45.4,24.342l-2.547.033a6.66,6.66,0,0,0,9.174.158A6.738,6.738,0,0,0,44.138,13.7l3.785,6.579a2.676,2.676,0,0,1-.125,2.8,2.745,2.745,0,0,1-2.4,1.26" transform="translate(-17.648 0)" fill="#12263f"/>
        <path id="Trazado_1274090" data-name="Trazado 1274090" d="M5.686,224,.217,212.381a2.491,2.491,0,0,1,1.512-3.323l2.49-1.134a2.462,2.462,0,0,1,3.21,1.3l8.845-4.747a3.837,3.837,0,0,1,3.476-.109l7.382,3.331a3.019,3.019,0,0,1,1.859,2.581,2.633,2.633,0,0,0,1.868-.391l7.077-4.745a37.488,37.488,0,0,1,5.314-3.056,4.491,4.491,0,0,1,4.064-.063,1.881,1.881,0,0,1,.81,2.576,11.146,11.146,0,0,1-2.239,2.989,68.427,68.427,0,0,1-13.983,10.6,14.308,14.308,0,0,1-4.333,1.827c-5.175,1.052-8.205-.506-9.856-.5a10.64,10.64,0,0,0-4.775,1.416,2.48,2.48,0,0,1-1.073,2.809l-2.9,1.4A2.462,2.462,0,0,1,5.686,224m13.238-18.182a2.674,2.674,0,0,0-1.716.079l-9.075,4.868,4.068,8.621a14.016,14.016,0,0,1,5.36-1.583,18.081,18.081,0,0,1,3.061.514,14.213,14.213,0,0,0,4.712.315,11.157,11.157,0,0,0,5.042-1.511,67.405,67.405,0,0,0,14-10.411,10.6,10.6,0,0,0,2.332-3.046,2.471,2.471,0,0,0-2.608-.1,29.93,29.93,0,0,0-4.743,2.68l-7.466,4.983a4.861,4.861,0,0,1-3.264.736,2.684,2.684,0,0,1-3.075,1.591l-5.162-1.77c-.774-.265-3.21.943-3.234-.594a.858.858,0,0,1,.872-.876c.791-.014,1.737-.51,2.518-.25l5.539,1.841c.569.189,1.035-.6,1.146-.983s.153-1.186-.336-1.413Zm-10.3,17.612,2.4-1.16c.321-.155.361-.659.2-1.008L5.9,210.011a.833.833,0,0,0-1.027-.516,26.781,26.781,0,0,0-2.9,1.366c-.295.161-.3.694-.156,1l5.3,11.253a.939.939,0,0,0,.583.53,1.3,1.3,0,0,0,.922-.221" transform="translate(-0.001 -169.735)" fill="#12263f"/>
        <path id="Trazado_1274091" data-name="Trazado 1274091" d="M94.543,42.4a1.752,1.752,0,0,1-1.907,1.368A1.844,1.844,0,0,1,90.9,42.277l-.886-6.894c-.191-1.489,1.5-2.43,2.831-2.365a2.625,2.625,0,0,1,2.7,2.39Zm-1.807-.225,1.141-6.91a1.328,1.328,0,0,0-1.246-.536c-.291,0-.873.162-.978.609a56.406,56.406,0,0,0,1.083,6.836" transform="translate(-75.785 -27.801)" fill="#12263f"/>
        <path id="Trazado_1274092" data-name="Trazado 1274092" d="M93.344,104.537a2.534,2.534,0,0,1,2.889,2.2,2.563,2.563,0,0,1-5.069.759,2.536,2.536,0,0,1,2.18-2.96m.07,1.705a.878.878,0,0,0-.495,1.212.857.857,0,0,0,1.19.379.9.9,0,0,0,.38-1.133.866.866,0,0,0-1.075-.457" transform="translate(-76.736 -88.007)" fill="#12263f"/>
      </g>
    </g>
  </g>
</svg>
