<svg xmlns="http://www.w3.org/2000/svg" xmlns:xlink="http://www.w3.org/1999/xlink" width="84" height="84" viewBox="0 0 84 84">
  <defs>
    <clipPath id="clip-path">
      <rect id="Rectángulo_465386" data-name="Rectángulo 465386" width="58.841" height="56.601" fill="#12263f"/>
    </clipPath>
  </defs>
  <g id="Grupo_1211219" data-name="Grupo 1211219" transform="translate(-705.629 -410)">
    <g id="Grupo_1188476" data-name="Grupo 1188476" transform="translate(2.841 -1273.207)">
      <g id="Grupo_1185067" data-name="Grupo 1185067" transform="translate(719.227 1696)">
        <path id="Trazado_997620" data-name="Trazado 997620" d="M133.124,646.71a15.477,15.477,0,1,0-14.332-.01" transform="translate(-99.168 -604.804)" fill="#3a552a" stroke="#000" stroke-miterlimit="10" stroke-width="2"/>
        <rect id="Rectángulo_454823" data-name="Rectángulo 454823" width="14.333" height="4.288" transform="translate(19.625 41.893)" fill="#3a552a" stroke="#000" stroke-miterlimit="10" stroke-width="2"/>
        <rect id="Rectángulo_454824" data-name="Rectángulo 454824" width="14.333" height="4.288" transform="translate(19.625 46.181)" fill="#3a552a" stroke="#000" stroke-miterlimit="10" stroke-width="2"/>
        <path id="Trazado_997621" data-name="Trazado 997621" d="M135.492,688.628h-6.283a4.025,4.025,0,0,1-4.025-4.025v-.263h14.333v.263A4.025,4.025,0,0,1,135.492,688.628Z" transform="translate(-105.559 -633.871)" fill="#3a552a" stroke="#000" stroke-miterlimit="10" stroke-width="2"/>
        <line id="Línea_3231" data-name="Línea 3231" y1="7.578" transform="translate(26.797)" fill="none" stroke="#000" stroke-miterlimit="10" stroke-width="2"/>
        <line id="Línea_3232" data-name="Línea 3232" x1="4.454" y1="6.13" transform="translate(10.236 5.387)" fill="none" stroke="#000" stroke-miterlimit="10" stroke-width="2"/>
        <line id="Línea_3233" data-name="Línea 3233" x1="7.2" y1="2.336" transform="translate(0 19.477)" fill="none" stroke="#000" stroke-miterlimit="10" stroke-width="2"/>
        <line id="Línea_3234" data-name="Línea 3234" x1="7.2" y2="2.341" transform="translate(0 34.55)" fill="none" stroke="#000" stroke-miterlimit="10" stroke-width="2"/>
        <line id="Línea_3235" data-name="Línea 3235" x1="7.2" y1="2.341" transform="translate(46.398 34.55)" fill="none" stroke="#000" stroke-miterlimit="10" stroke-width="2"/>
        <line id="Línea_3236" data-name="Línea 3236" x1="7.2" y2="2.336" transform="translate(46.398 19.477)" fill="none" stroke="#000" stroke-miterlimit="10" stroke-width="2"/>
        <line id="Línea_3237" data-name="Línea 3237" x1="4.454" y2="6.125" transform="translate(38.91 5.387)" fill="none" stroke="#000" stroke-miterlimit="10" stroke-width="2"/>
        <path id="Trazado_997622" data-name="Trazado 997622" d="M119,638.208a10.647,10.647,0,0,1,4.484-8.693" transform="translate(-102.867 -610.025)" fill="#3a552a" stroke="#000" stroke-miterlimit="10" stroke-width="2"/>
        <line id="Línea_3238" data-name="Línea 3238" y2="8.634" transform="translate(26.797 33.258)" fill="none" stroke="#000" stroke-miterlimit="10" stroke-width="2"/>
        <path id="Trazado_997623" data-name="Trazado 997623" d="M133.157,647.74l2.669,3.47,3-3.47" transform="translate(-109.027 -617.951)" fill="#3a552a" stroke="#000" stroke-miterlimit="10" stroke-width="2"/>
        <path id="Trazado_997624" data-name="Trazado 997624" d="M132.431,691.931a3.07,3.07,0,1,0,6.14,0" transform="translate(-108.711 -637.173)" fill="#3a552a" stroke="#000" stroke-miterlimit="10" stroke-width="2"/>
      </g>
      <rect id="Rectángulo_459857" data-name="Rectángulo 459857" width="81" height="79" transform="translate(705.788 1688.207)" fill="#3a552a"/>
    </g>
    <g id="Grupo_1188599" data-name="Grupo 1188599" transform="translate(0.371 -1278)">
      <g id="Grupo_1185067-2" data-name="Grupo 1185067" transform="translate(718.472 1696)">
        <path id="Trazado_997620-2" data-name="Trazado 997620" d="M133.124,646.71a15.477,15.477,0,1,0-14.332-.01" transform="translate(-99.168 -604.804)" fill="#fff006" stroke="#000" stroke-miterlimit="10" stroke-width="2"/>
        <rect id="Rectángulo_454823-2" data-name="Rectángulo 454823" width="14.333" height="4.288" transform="translate(19.625 41.893)" fill="#fff006" stroke="#000" stroke-miterlimit="10" stroke-width="2"/>
        <rect id="Rectángulo_454824-2" data-name="Rectángulo 454824" width="14.333" height="4.288" transform="translate(19.625 46.181)" fill="#fff006" stroke="#000" stroke-miterlimit="10" stroke-width="2"/>
        <path id="Trazado_997621-2" data-name="Trazado 997621" d="M135.492,688.628h-6.283a4.025,4.025,0,0,1-4.025-4.025v-.263h14.333v.263A4.025,4.025,0,0,1,135.492,688.628Z" transform="translate(-105.559 -633.871)" fill="#fff006" stroke="#000" stroke-miterlimit="10" stroke-width="2"/>
        <line id="Línea_3231-2" data-name="Línea 3231" y1="7.578" transform="translate(26.797)" fill="none" stroke="#000" stroke-miterlimit="10" stroke-width="2"/>
        <line id="Línea_3232-2" data-name="Línea 3232" x1="4.454" y1="6.13" transform="translate(10.236 5.387)" fill="none" stroke="#000" stroke-miterlimit="10" stroke-width="2"/>
        <line id="Línea_3233-2" data-name="Línea 3233" x1="7.2" y1="2.336" transform="translate(0 19.477)" fill="none" stroke="#000" stroke-miterlimit="10" stroke-width="2"/>
        <line id="Línea_3234-2" data-name="Línea 3234" x1="7.2" y2="2.341" transform="translate(0 34.55)" fill="none" stroke="#000" stroke-miterlimit="10" stroke-width="2"/>
        <line id="Línea_3235-2" data-name="Línea 3235" x1="7.2" y1="2.341" transform="translate(46.398 34.55)" fill="none" stroke="#000" stroke-miterlimit="10" stroke-width="2"/>
        <line id="Línea_3236-2" data-name="Línea 3236" x1="7.2" y2="2.336" transform="translate(46.398 19.477)" fill="none" stroke="#000" stroke-miterlimit="10" stroke-width="2"/>
        <line id="Línea_3237-2" data-name="Línea 3237" x1="4.454" y2="6.125" transform="translate(38.91 5.387)" fill="none" stroke="#000" stroke-miterlimit="10" stroke-width="2"/>
        <path id="Trazado_997622-2" data-name="Trazado 997622" d="M119,638.208a10.647,10.647,0,0,1,4.484-8.693" transform="translate(-102.867 -610.025)" fill="#fff006" stroke="#000" stroke-miterlimit="10" stroke-width="2"/>
        <line id="Línea_3238-2" data-name="Línea 3238" y2="8.634" transform="translate(26.797 33.258)" fill="none" stroke="#000" stroke-miterlimit="10" stroke-width="2"/>
        <path id="Trazado_997623-2" data-name="Trazado 997623" d="M133.157,647.74l2.669,3.47,3-3.47" transform="translate(-109.027 -617.951)" fill="#fff006" stroke="#000" stroke-miterlimit="10" stroke-width="2"/>
        <path id="Trazado_997624-2" data-name="Trazado 997624" d="M132.431,691.931a3.07,3.07,0,1,0,6.14,0" transform="translate(-108.711 -637.173)" fill="#fff006" stroke="#000" stroke-miterlimit="10" stroke-width="2"/>
      </g>
      <rect id="Rectángulo_459857-2" data-name="Rectángulo 459857" width="80" height="80" transform="translate(705.258 1688)" fill="#fff006"/>
    </g>
    <g id="Grupo_1212382" data-name="Grupo 1212382" transform="translate(714.629 420.867)">
      <g id="Grupo_1212381" data-name="Grupo 1212381" clip-path="url(#clip-path)">
        <path id="Trazado_1274099" data-name="Trazado 1274099" d="M156.062,75.169a12.917,12.917,0,0,0-12.787-14.958h-.055a12.945,12.945,0,0,0-6.685,24l-.019,4.4a3.9,3.9,0,0,0,2.277,3.594,4.635,4.635,0,0,0,8.949.037,3.842,3.842,0,0,0,2.269-3.328l.035-4.73a12.959,12.959,0,0,0,6.017-9.021m-14.835-1.329a2.18,2.18,0,0,1,1.309-1.166,2.234,2.234,0,0,1,2.857,1.371,2.26,2.26,0,0,1-1.385,2.869,2.254,2.254,0,0,1-2.781-3.075m-2.875,8.384a3.322,3.322,0,0,1,3.286-3.335h3.272a3.16,3.16,0,0,1,2.27.964,3.717,3.717,0,0,1,1.037,2.668l-.013,2.221-9.859,0Zm7.669-10.417a4.067,4.067,0,0,0-5.923,5.539,5.256,5.256,0,0,0-3.566,4.659,11.025,11.025,0,0,1-4.343-7.778,11.11,11.11,0,0,1,11.08-12.2h0a11.1,11.1,0,0,1,11.08,12.2A10.988,10.988,0,0,1,150.022,82a5.361,5.361,0,0,0-3.534-4.662,4.122,4.122,0,0,0-.467-5.53m2.193,16.819a2.179,2.179,0,0,1-.613,1.541,1.867,1.867,0,0,1-1.35.557l-5.871.014h-.005a1.98,1.98,0,0,1-2.025-1.971l-.005-2.194h9.86ZM145.6,92.569a2.792,2.792,0,0,1-4.649,0Z" transform="translate(-110.507 -51.057)" fill="#12263f"/>
        <path id="Trazado_1274100" data-name="Trazado 1274100" d="M287.176,240.088a2.453,2.453,0,0,0-1.029-1.681,2.193,2.193,0,0,0,.97-1.287,1.951,1.951,0,0,0-.9-2.148c-2.945-2.238-11.919-2.425-15.486-.323a2.3,2.3,0,0,0-1.422,2.315,2.224,2.224,0,0,0,1.006,1.448,2.3,2.3,0,0,0-1.037,1.818,2.136,2.136,0,0,0,1.043,1.74,2.212,2.212,0,0,0-1.041,1.755,2.135,2.135,0,0,0,1.055,1.773,2.211,2.211,0,0,0-1.055,1.859,2.348,2.348,0,0,0,1.017,1.691,2.166,2.166,0,0,0-1.011,1.681c-.051,1.6,2.01,2.622,3.956,3.046a23.319,23.319,0,0,0,4.98.543,22.817,22.817,0,0,0,5.5-.674c1.7-.421,3.616-1.475,3.44-3.062a2.3,2.3,0,0,0-1.023-1.536,2.278,2.278,0,0,0,1.034-1.827,2.18,2.18,0,0,0-1.035-1.7,2.284,2.284,0,0,0,1.036-1.8,2.355,2.355,0,0,0-.982-1.746,2.269,2.269,0,0,0,.98-1.884m-14.82-.634a23.661,23.661,0,0,0,11.74.012c.365-.089.8.32,1.114.62l.119.111a2.64,2.64,0,0,1-1.444.912,19.809,19.809,0,0,1-11.168.046,3.482,3.482,0,0,1-1.613-.924,2.023,2.023,0,0,1,1.252-.777m-.019,3.535a23.8,23.8,0,0,0,11.757.008c.468-.116,1.051.523,1.241.752a4.374,4.374,0,0,1-2.221,1.119,21.531,21.531,0,0,1-9.722.014,4.451,4.451,0,0,1-2.289-1.138c.277-.329.805-.81,1.234-.754m10.731-5.163a21.014,21.014,0,0,1-9.637.006,5.706,5.706,0,0,1-2.336-1.082,2.2,2.2,0,0,1,1.227-.854,19.721,19.721,0,0,1,12.114.119,1.749,1.749,0,0,1,.928.669,4.352,4.352,0,0,1-2.3,1.142m-10.7,8.666a23.383,23.383,0,0,0,11.725.024c.418-.057.938.375,1.276.784a5.635,5.635,0,0,1-2.716,1.2,20.633,20.633,0,0,1-9.988-.308,3.148,3.148,0,0,1-1.568-.956,2.661,2.661,0,0,1,1.27-.747m-.031,3.555a23.615,23.615,0,0,0,11.781-.018,2.227,2.227,0,0,1,1.257.755,4.483,4.483,0,0,1-2.4,1.169,21.019,21.019,0,0,1-9.523-.007,4.724,4.724,0,0,1-2.363-1.129,1.875,1.875,0,0,1,1.245-.769" transform="translate(-228.344 -197.727)" fill="#12263f"/>
        <path id="Trazado_1274101" data-name="Trazado 1274101" d="M24.634,215.767l-2.183-.817-.578-1.466.969-2.227a1.054,1.054,0,0,0-.332-1.226l-1.826-1.822a1,1,0,0,0-1.117-.231l-2.321.933-1.332-.489-.982-2.477a.886.886,0,0,0-.859-.473l-2.749,0h0a.991.991,0,0,0-.994.655l-.891,2.256-1.394.578-2.23-.975a.97.97,0,0,0-.956.072l-2.274,2.286c-.355.357-.064.993.06,1.264l.86,1.882-.6,1.449-2.161.814a.962.962,0,0,0-.736.914L0,219.542a.9.9,0,0,0,.6.905l2.328.971c.262.6.447,1.039.551,1.318l-1.011,2.422a.93.93,0,0,0,.283.985l1.9,1.9A1.1,1.1,0,0,0,6,228.233l2-.9,1.479.592L10.255,230a1.145,1.145,0,0,0,1.1.832h.006l2.746-.013a.931.931,0,0,0,.859-.538l.911-2.376,1.4-.576,2.121.921A1.069,1.069,0,0,0,20.712,228l1.892-1.9a.984.984,0,0,0,.221-1.146l-.963-2.217.559-1.363,2.373-.938a.923.923,0,0,0,.558-.906l0-2.724a1.052,1.052,0,0,0-.721-1.045M5.446,222.735l-.739-1.83a1.988,1.988,0,0,0-1.247-1.3l-1.612-.612-.009-.158a5.7,5.7,0,0,1,.049-1.579,5.775,5.775,0,0,1,.931-.345,3.756,3.756,0,0,0,1.444-.68l.014-.016a12.436,12.436,0,0,0,1.115-2.665l0-.016,0-.016A4.918,4.918,0,0,0,4.82,212a8.5,8.5,0,0,1-.4-.867l1.164-1.265,2.56,1.1.033-.018a16.4,16.4,0,0,1,2.562-1.09l.032-.011,1.079-2.532c.127,0,.255-.012.382-.019a3.39,3.39,0,0,1,1.336.09,5.02,5.02,0,0,1,.349.941,2.748,2.748,0,0,0,.768,1.463l2.55,1.192,2.479-1.1,1.212,1.2-1,2.434.008.026a12.723,12.723,0,0,0,1.156,2.7l.013.019,2.391,1.026a6.951,6.951,0,0,1,.018,1.679l-2.438,1.074-1.221,2.675,1.1,2.505L19.779,226.4l-2.37-.971c-.344-.141-.694.083-1,.28a2.862,2.862,0,0,1-.346.2,3.407,3.407,0,0,1-.507.163,1.757,1.757,0,0,0-1,.511,4.708,4.708,0,0,0-.654,1.421,8.685,8.685,0,0,1-.362.956,5.844,5.844,0,0,1-1.661.023l-1.085-2.42-.019-.012a12.11,12.11,0,0,0-2.706-1.147l-.026-.008L5.6,226.4l-1.178-1.159Z" transform="translate(0 -174.231)" fill="#12263f"/>
        <path id="Trazado_1274102" data-name="Trazado 1274102" d="M303.755,76.109a.846.846,0,0,0,.249.038.778.778,0,0,0,.393-.107l4.561-2.639a.754.754,0,0,0,.356-.513.971.971,0,0,0-.158-.756.909.909,0,0,0-1.2-.241l-4.428,2.555a.889.889,0,0,0-.362,1.182,1.009,1.009,0,0,0,.587.48" transform="translate(-256.995 -60.852)" fill="#12263f"/>
        <path id="Trazado_1274103" data-name="Trazado 1274103" d="M84.327,73.475l4.536,2.6a.7.7,0,0,0,.35.093.814.814,0,0,0,.239-.037.993.993,0,0,0,.582-.479.918.918,0,0,0-.413-1.227L85.239,71.9a.9.9,0,0,0-.715-.075.889.889,0,0,0-.542.428.914.914,0,0,0,.345,1.218" transform="translate(-71.125 -60.874)" fill="#12263f"/>
        <path id="Trazado_1274104" data-name="Trazado 1274104" d="M209.041,6.94h.011a.928.928,0,0,0,.64-.264.909.909,0,0,0,.264-.665L209.944.764c0-.512-.54-.758-.9-.764a1.026,1.026,0,0,0-.674.268.554.554,0,0,0-.178.4l-.041,5.273a.924.924,0,0,0,.893,1" transform="translate(-176.503 -0.001)" fill="#12263f"/>
        <path id="Trazado_1274105" data-name="Trazado 1274105" d="M318.1,143.832a.992.992,0,0,0-.2.78.944.944,0,0,0,.839.759h0l5.236-.01a.791.791,0,0,0,.607-.281.983.983,0,0,0,.242-.724.893.893,0,0,0-.918-.8H323.9l-5.3.024a.647.647,0,0,0-.51.252" transform="translate(-269.556 -121.731)" fill="#12263f"/>
        <path id="Trazado_1274106" data-name="Trazado 1274106" d="M65.642,145.472h0l5.226-.018a.886.886,0,0,0,.81-.89.937.937,0,0,0-.237-.685.68.68,0,0,0-.5-.209h0l-5.549.022a.53.53,0,0,0-.42.207,1.068,1.068,0,0,0-.183.808.88.88,0,0,0,.856.764" transform="translate(-54.922 -121.828)" fill="#12263f"/>
        <path id="Trazado_1274107" data-name="Trazado 1274107" d="M139.088,24.975a.882.882,0,0,0,.556.429.914.914,0,0,0,.7-.107.926.926,0,0,0,.287-1.28l-2.592-4.472a.737.737,0,0,0-.5-.349.983.983,0,0,0-.775.177.911.911,0,0,0-.23,1.17Z" transform="translate(-115.673 -16.261)" fill="#12263f"/>
        <path id="Trazado_1274108" data-name="Trazado 1274108" d="M263.429,25.422a.974.974,0,0,0,.731.1.849.849,0,0,0,.533-.407l2.606-4.531a.772.772,0,0,0,.041-.687.905.905,0,0,0-.54-.521.939.939,0,0,0-1.186.49L263.173,24.1a.915.915,0,0,0,.256,1.32" transform="translate(-223.019 -16.386)" fill="#12263f"/>
        <path id="Trazado_1274109" data-name="Trazado 1274109" d="M44.419,256.906q.283,0,.57-.023a6.977,6.977,0,1,0-5.927-11.448,6.986,6.986,0,0,0,5.356,11.472m-4.053-10.19a5.169,5.169,0,0,1,9.17,2.582,5.163,5.163,0,1,1-9.17-2.582" transform="translate(-31.742 -206.014)" fill="#12263f"/>
        <path id="Trazado_1274110" data-name="Trazado 1274110" d="M59.048,276.9a.726.726,0,0,0,.51-.168l4.3-4.346a.626.626,0,0,0,.153-.559,1.01,1.01,0,0,0-.476-.7.931.931,0,0,0-1.088.147l-3.4,3.4-1.254-1.219a.885.885,0,0,0-.665-.256.977.977,0,0,0-.691.332.947.947,0,0,0,.131,1.3l1.913,1.888a.855.855,0,0,0,.568.18" transform="translate(-47.683 -229.814)" fill="#12263f"/>
      </g>
    </g>
  </g>
</svg>
