<svg xmlns="http://www.w3.org/2000/svg" xmlns:xlink="http://www.w3.org/1999/xlink" width="128" height="128" viewBox="0 0 128 128">
  <defs>
    <clipPath id="clip-path">
      <rect id="Rectángulo_459899" data-name="Rectángulo 459899" width="128" height="128" fill="none"/>
    </clipPath>
    <clipPath id="clip-path-2">
      <rect id="Rectángulo_465394" data-name="Rectángulo 465394" width="69.5" height="51.885" fill="#12263f"/>
    </clipPath>
  </defs>
  <g id="Grupo_1212496" data-name="Grupo 1212496" transform="translate(-2302.574 5607.281)">
    <g id="Grupo_1211260" data-name="Grupo 1211260" transform="translate(2302.574 -5607.281)">
      <g id="Grupo_1188515" data-name="Grupo 1188515" clip-path="url(#clip-path)">
        <path id="Trazado_1033015" data-name="Trazado 1033015" d="M128,64A64,64,0,1,1,64,0a64,64,0,0,1,64,64" fill="#fff"/>
        <path id="Trazado_1033016" data-name="Trazado 1033016" d="M154.441,185.937l.625-.59c-.045-.02-.215.119-.625.59" transform="translate(-131.184 -157.435)" fill="#e4cbc1"/>
        <path id="Trazado_1033017" data-name="Trazado 1033017" d="M374.691,757.713l-.2.008a.74.74,0,0,0,.2-.008" transform="translate(-318.095 -643.61)" fill="#e4cbc1"/>
        <path id="Trazado_1033018" data-name="Trazado 1033018" d="M342.621,99.876l-.041.008-.2.065Z" transform="translate(-290.823 -84.836)" fill="#e4cbc1"/>
        <path id="Trazado_1033019" data-name="Trazado 1033019" d="M81.364,97.171a46.672,46.672,0,0,1,3.779-5.711c1.133-1.6,2.359-2.8,3.473-4.1.6-.615,1.228-1.2,1.858-1.825l.97-.96,1.1-.927a47.547,47.547,0,0,1,5.5-4.2,46.375,46.375,0,0,1,14.737-5.883c2.322-.985,6.71-.887,9.606-1.239l1.123.269a11.86,11.86,0,0,1,3.182.125l-.069.054c1.5.046,3.178.288,3.916.385l-.072.049,1.79.338-.325.025c.647.092,1.3.178,1.95.3l1.9.5c.625.176,1.248.337,1.843.538l1.707.68-.095-.313c.586.256,1.127.482,1.636.685s.956.45,1.4.64c.875.4,1.663.733,2.437,1.063.743.389,1.473.772,2.258,1.217.39.226.8.452,1.22.731.4.3.829.621,1.28.979l-.087.017c.647.335,1.251.674,1.819,1.016.55.366,1.04.768,1.521,1.149s.933.772,1.375,1.157.817.833,1.223,1.245c1.618,1.661,3.114,3.436,5.222,5.6-.519-.547.09.338,0,.328l1.3,1.6c.419.52.765,1.051,1.108,1.479.671.868,1.2,1.425,1.432,1.308,1.071,1.738.7,1.516.678,1.837.172-.117,1.176,1.354,1.91,2.769-.137-.2-.255-.419-.406-.615.7,1.351,1.393,2.708,2.057,4.079.025-.338,0-.658.006-.99.887,2.273-.217.771.773,2.875l.313-.159a19.563,19.563,0,0,1,.732,2.189c.165.694.3,1.349.426,2s.257,1.3.371,1.981c.091.692.2,1.416.339,2.21a73.426,73.426,0,0,1,1.768,9.989,51.748,51.748,0,0,1-.063,10.205l-.136,1.264-.068.631-.127.619-.512,2.466a17.435,17.435,0,0,1-.677,2.4c-.26.785-.5,1.577-.779,2.345l-1.018,2.217a17.671,17.671,0,0,1-1.094,2.137,29.664,29.664,0,0,1-2.668,3.842l-.541.266c-.411-.047-1.68,2.982-2.322,3.054-.289.381-.56.782-.872,1.147-.34.231-1,.763-.546.208a16.966,16.966,0,0,0-1.6,1.672c-.4.26-.832.482-1.247.718a74.424,74.424,0,0,1-6.176,4.184,35.986,35.986,0,0,1-6.974,3.266,93.37,93.37,0,0,1-12.7,2.748,98.083,98.083,0,0,1-13.538.888,49.735,49.735,0,0,1-15.981-2.551A67.158,67.158,0,0,1,89.2,160.415a3.592,3.592,0,0,0-1.043-.6c-.607-.5-1.191-1.018-1.788-1.524l-.892-.764-.814-.843L83.038,155l-1.448-1.839-.312-.392-.37-.462-.431-.661a34.528,34.528,0,0,1-2.393-4.01,21.288,21.288,0,0,1-1.264-2.643c-.367-.945-.809-1.89-1.144-2.87-.6-1.985-1.275-3.931-1.646-5.694-.817-3.5-1.184-6.012-1.59-5.364a10.1,10.1,0,0,0-.38,3.632,36.74,36.74,0,0,0,.261,4.12c.111.827.29,1.722.463,2.705l.285,1.536c.1.534.292,1.062.445,1.627l-.169-.205L74,146.362l.315.882c.12.281.257.548.381.813.513,1.057.982,2.038,1.479,2.94a23.866,23.866,0,0,0,3.582,4.589,2,2,0,0,0,.442.92c.138.2.3.413.48.634l.634.637c.893.855,1.832,1.78,2.277,2.258l-.123-.049c1.44.94,2.657,2.2,4.065,3.215a21.712,21.712,0,0,0,2.08,1.531,20.226,20.226,0,0,0,2.212,1.179,1.586,1.586,0,0,1-.914-.312c.528.279,1.088.616,1.669.891l1.672.779a6.405,6.405,0,0,1,1.806,1.055,58.146,58.146,0,0,0,8.915,2.859,38.937,38.937,0,0,0,4.323.8,21.527,21.527,0,0,0,3.393.24l-.255.051c2.064-.038,2.637.242,4.926.254.122.048.282.081.255.1,2.224-.154,6.453.16,8.246-.044l.121.2c1.471-.063,2.943-.144,4.411-.283-.55.035-1.1.057-1.651.072.528-.57,3.368.143,6.519-.667,3.013-.374,5.76-2.2,8.767-2.816,1.338-.666-1.123.779.93-.058.158.256-.934.483-.32.533,2.031-.8,3.509-.855,5.925-2.117l.192.158c3.044-1.81,6.1-2.831,7.832-4.521a12.491,12.491,0,0,1,2.589-1.686,7.231,7.231,0,0,0,2.446-2.076l1.289-.82c1.182-1.163.579-1.085,1.894-2.356.081.221,1.608-1.677,1.065-.73a25.026,25.026,0,0,0,3.654-5.365l.793-1.559.736-1.663c.517-1.127,1.131-2.276,1.628-3.56a11.286,11.286,0,0,1,.554-2.482,9.248,9.248,0,0,0,.349-2.272,16.21,16.21,0,0,0,.622-2.336c.152-.953.277-1.513.255.045,0,.268-.128.724-.177.682l.135.4a8.52,8.52,0,0,0,.506-2.205c.091-.724.141-1.434.179-2.142a18.33,18.33,0,0,0,0-2.137c-.016-.721-.015-1.456.03-2.224-.107.909-.136,2.118-.254,1.3.024-.946.144-1.9.088-2.841l.208.59-.069-4.248-.2.6a16.372,16.372,0,0,0-.374-5.124c-.338-1.012-.031,1.981-.416-.161-.2-1.358-.356-3.084-.717-4.868a47.607,47.607,0,0,0-1.326-5.338c-.14.392-.431-.509-.79-1.414l.174-.182c-.748-1.716-.836-2.047-.821-2.419-.007-.362-.007-.729-.825-2.405l.267.242c-.262-.244-.534-.481-.824-.708a6.605,6.605,0,0,1-1.153-2.355,5.909,5.909,0,0,0-1.474-2.5c.758,1.259-.091.834-.892-.773l.412.289a17.513,17.513,0,0,1-1.063-1.687c.382.462.457.091-.4-1.112l.772.684L165.6,92.049A18.783,18.783,0,0,0,163.509,89c-.376-.488-.727-.946-1-1.338a5.175,5.175,0,0,1-.606-.9s-.743-.9-1.609-1.864a12.043,12.043,0,0,0-1.381-1.336,6.591,6.591,0,0,0-1.09-.81c.821.5-.989-1.34-.3-1.013-.495-.363-1.516-1.015-2.5-1.751-.491-.366-.978-.748-1.4-1.107s-.833-.633-1.091-.89l.241.13c-4.218-3.29-7.918-4.417-12.214-6.37.112.317-2.184-.685-1.71-.156-2.377-.551-4.454-1.343-6.252-1.734a13.7,13.7,0,0,0-2.393-.462,4.062,4.062,0,0,0-1.764.222c-2.186-.246-2.573-.514-3.715-.623l.531-.029-2.636-.075c-.744,0-1.38.051-1.982.066-1.2.058-2.278.029-3.809.226a11.52,11.52,0,0,0-1.761.507,19.819,19.819,0,0,1-2.645.594c.836-.354-.258-.107-1.266.089.637-.154.826-.261-.529-.127-.174.095-.456.176-.712.289-.014-.011-.069-.008-.047-.035-1.639.529-1.333.5-.561.314-.031.039.043.056.292.041a27.084,27.084,0,0,0-3.085.739c-.993.322-1.784.633-1.945.51A39.849,39.849,0,0,0,93.325,78.8c-.489.15.229-.557,1.2-1.347L92.1,79.3c-.129-.2,1.332-1.145,2.065-1.738a23.017,23.017,0,0,0-2.311,1.553c-.7.628-1.394,1.3-2.1,1.976-.724.657-1.373,1.412-2.064,2.155s-1.47,1.433-2.187,2.216l-.418.8-.185.174a4.4,4.4,0,0,1-.788,1.37c-.537.337-.39-.359-1.6,1.363a15.244,15.244,0,0,0-1.861,2.669l-1.695,3.217c.627-.986.539-.6.34-.138a21.883,21.883,0,0,0-1.241,2.11l-.3-.041c.213-.121-.039.517-.352,1.233a11.516,11.516,0,0,0-.648,1.74c-.422.46.467-1.565.487-1.848-.9,1.893-1.062,2.4-1.285,2.87-.185.49-.478.937-1.159,2.919-.567,2.169.389-.287.255.8-.673,1.844-.967,3.743-1.775,5.846l.442-.615c-.41,1.784-.623,3.233-.95,4.5-.267,1.282-.49,2.422-.822,3.621-.138,1.7-.086,3.229-.119,4.563.031,1.339.145,2.5.214,3.5a20.484,20.484,0,0,0,.348,2.542c.127.7.243,1.26.35,1.7.443,1.757.753,1.614.887.617a39.933,39.933,0,0,0,.33-4.258c.147-1.525.229-2.806.229-2.806a116.086,116.086,0,0,1,2.145-12.969l.788-3.08c.294-1.051.671-2.117,1.03-3.257a53.709,53.709,0,0,1,3.2-7.432" transform="translate(-61.023 -58.519)" fill="#3a552a"/>
      </g>
    </g>
    <g id="Grupo_1212399" data-name="Grupo 1212399" transform="translate(2329.324 -5569.224)">
      <g id="Grupo_1212398" data-name="Grupo 1212398" clip-path="url(#clip-path-2)">
        <path id="Trazado_1274190" data-name="Trazado 1274190" d="M23.29,47.917a1.219,1.219,0,0,1-1.237.9l-2.393-.012a1.2,1.2,0,0,1-1.144-1.329l.4-4.352a1.283,1.283,0,0,0-.673-1.218L16,40.642l-.606,1.545a3.437,3.437,0,0,1-1.5,1.829l-6.708,3.85a1.79,1.79,0,0,1-2.023-.34L4.2,46.736a1.568,1.568,0,0,1-.629-1.425,1.832,1.832,0,0,1,.86-1.226c1-.735,2.013-2.213,2.91-1.114a.884.884,0,0,1,.067,1.142L6.05,45.44c-.119.116.277.561.493.437l6.645-3.825,1.046-2.459a7.308,7.308,0,0,1-2.282-2.321l-.489,2.209a3.967,3.967,0,0,1-.905,2.044,1.082,1.082,0,0,1-1.607.035A1.157,1.157,0,0,1,9.3,39.873l2.38-11.757L7.644,30.1a3.8,3.8,0,0,1-5.011-.991,1.5,1.5,0,0,1-2.166.243A1.431,1.431,0,0,1,.56,27.165l11.8-10.578a1.032,1.032,0,0,1,1.54.009c.478.55.25,1.13-.265,1.6L7.412,23.889,18.076,17.6,28,11.716a1.875,1.875,0,0,1,2.593.648l7.576,11.995L49.3,17.731a13.679,13.679,0,0,0,1.763-.871c1.537-1.023,3.113-1.839,4.71-2.767l4.505-2.616a1.386,1.386,0,0,1,1.924.373l2.92,4.053L67.369,3.736,55.209,2.193l2.869,4.05a1.324,1.324,0,0,1-.391,1.975L41.23,17.978a1.274,1.274,0,0,1-1.57-.655L31.151,2.5,16.583,15.538a1.018,1.018,0,0,1-1.437-.3,1.076,1.076,0,0,1,.267-1.382L29.953.816a1.853,1.853,0,0,1,2.786.363L41.074,15.71,56,6.847,52.847,2.433A1.47,1.47,0,0,1,54.235.017L68.1,1.751a1.471,1.471,0,0,1,1.374,1.741l-2.55,13.9A1.544,1.544,0,0,1,65.9,18.768a1.514,1.514,0,0,1-1.7-.566l-3.313-4.686-2.659,1.522a8,8,0,0,1,1.4,2.346A2.968,2.968,0,0,1,58.4,20.893l-2.528,1.468a3.166,3.166,0,0,1-1.828.3,9.267,9.267,0,0,1-.629,2.641l-2.481,6.678L55.7,38.674a3.024,3.024,0,0,1,.589,2.534l-1.459,6.335a1.453,1.453,0,0,1-1.5,1.295l-2.215-.022a1.12,1.12,0,0,1-1.17-1.191l.378-4.5c.06-.719-.532-1.154-1.081-1.457l-1.786-.988-.849,1.976A3.867,3.867,0,0,1,44.8,44.32l-5.827,3.368a1.944,1.944,0,0,1-2.48-.244L35.238,46.3a1.6,1.6,0,0,1,.522-2.168l4.907-4.182L42.8,29.824c.118-.559.817-.68,1.211-.616.552.089.749.674.778,1.3l4.29.545,2.565-6.835a4.25,4.25,0,0,0-1.027-4.744L35.957,28.05a1.257,1.257,0,0,0,1.694.428l9.109-4.431a1.01,1.01,0,0,1,1.268.491,1.041,1.041,0,0,1-.445,1.383l-9.321,4.5a3.436,3.436,0,0,1-4.585-2.181,1.149,1.149,0,0,1,.519-1.493L36.415,25.4,28.92,13.542l-2.307,1.374a5.8,5.8,0,0,1,1.135,1.494,3.122,3.122,0,0,1-.8,4.5l-1.854,1.1a3.707,3.707,0,0,1-2.507.642,5.969,5.969,0,0,1-.475,2.29L19.525,32l5,7.069a2.93,2.93,0,0,1,.282,2.459Zm.377-27.441,2.317-1.4c.807-.486-.222-2.4-.81-2.633a1.268,1.268,0,0,0-1.152.141l-1.774,1.005a1.378,1.378,0,0,0-.774.948,3.632,3.632,0,0,0,1.048,1.987,1.143,1.143,0,0,0,1.147-.052m30.947.144a10.657,10.657,0,0,0,2.7-1.485c.7-.481.353-1.282.006-1.865-.316-.531-.8-1.209-1.479-.819L53.335,17.9c-.65.374-.467,1.021-.124,1.571.285.458.578,1.408,1.4,1.153M13.99,26.979l-.657,3.589c1.486.063,2.789.279,4.308.478l2.578-6.794a4.18,4.18,0,0,0-1.147-4.85L4.523,28.075a1.265,1.265,0,0,0,1.581.468l8.981-4.381a1.046,1.046,0,0,1,1.5.381,1.025,1.025,0,0,1-.43,1.372Zm6.658,19.765a2.078,2.078,0,0,0,.841-.017l1.453-6.349-5.167-7.317c-1.75-.109-3.258-.362-4.9-.547a5.511,5.511,0,0,0,2.989,5.676l3.506,2.046a3.271,3.271,0,0,1,1.548,3.236Zm31.464-.067c.064.16.75.141.792-.011l1.482-6.276-5.139-7.282-4.919-.6a5.473,5.473,0,0,0,2.543,5.457L50.4,39.977a3.723,3.723,0,0,1,1.959,3.676Zm-14.051-.832,6.564-3.784,1.024-2.452a9.021,9.021,0,0,1-2.3-2.29l-.617,2.818a3.512,3.512,0,0,1-1.389,1.95l-3.93,3.342c-.014.2.364.579.648.416" transform="translate(0 -0.001)" fill="#12263f"/>
        <path id="Trazado_1274191" data-name="Trazado 1274191" d="M10.226,271.631a1.047,1.047,0,0,1,.181,1.4.933.933,0,0,1-1.339.282l-3.515-3.066a1.009,1.009,0,0,1-.119-1.179c.194-.4.938-.738,1.344-.389Z" transform="translate(-4.378 -221.863)" fill="#12263f"/>
        <path id="Trazado_1274192" data-name="Trazado 1274192" d="M190.933,271.579a1.218,1.218,0,0,1,.5,1.344c-.154.452-.835,1.011-1.315.6l-3.47-2.945a1.084,1.084,0,0,1-.287-1.375.988.988,0,0,1,1.441-.3Z" transform="translate(-153.865 -222.008)" fill="#12263f"/>
        <path id="Trazado_1274193" data-name="Trazado 1274193" d="M292.3,289.112l-3.834.006a1.033,1.033,0,0,1-1.135-.9c-.06-.4.2-1.087.793-1.087l4.52.005c.588,0,.822.693.762,1.117a1,1,0,0,1-1.106.854" transform="translate(-237.387 -237.233)" fill="#12263f"/>
        <path id="Trazado_1274194" data-name="Trazado 1274194" d="M111.586,289.09l-3.925.006a.99.99,0,0,1-1.1-.853c-.058-.439.153-1.118.751-1.119l4.523-.007c.532,0,.8.577.791.958a.984.984,0,0,1-1.044,1.016" transform="translate(-88.036 -237.216)" fill="#12263f"/>
      </g>
    </g>
  </g>
</svg>
