<svg xmlns="http://www.w3.org/2000/svg" xmlns:xlink="http://www.w3.org/1999/xlink" width="128" height="128" viewBox="0 0 128 128">
  <defs>
    <clipPath id="clip-path">
      <rect id="Rectángulo_459899" data-name="Rectángulo 459899" width="128" height="128" fill="none"/>
    </clipPath>
    <clipPath id="clip-path-2">
      <rect id="Rectángulo_465392" data-name="Rectángulo 465392" width="61.212" height="61.224" fill="#12263f"/>
    </clipPath>
  </defs>
  <g id="Grupo_1212494" data-name="Grupo 1212494" transform="translate(-2655.574 6090.281)">
    <g id="Grupo_1211252" data-name="Grupo 1211252" transform="translate(2655.574 -6090.281)">
      <g id="Grupo_1188515" data-name="Grupo 1188515" clip-path="url(#clip-path)">
        <path id="Trazado_1033015" data-name="Trazado 1033015" d="M128,64A64,64,0,1,1,64,0a64,64,0,0,1,64,64" fill="#fff"/>
        <path id="Trazado_1033016" data-name="Trazado 1033016" d="M154.441,185.937l.625-.59c-.045-.02-.215.119-.625.59" transform="translate(-131.184 -157.435)" fill="#e4cbc1"/>
        <path id="Trazado_1033017" data-name="Trazado 1033017" d="M374.691,757.713l-.2.008a.74.74,0,0,0,.2-.008" transform="translate(-318.095 -643.61)" fill="#e4cbc1"/>
        <path id="Trazado_1033018" data-name="Trazado 1033018" d="M342.621,99.876l-.041.008-.2.065Z" transform="translate(-290.823 -84.836)" fill="#e4cbc1"/>
        <path id="Trazado_1033019" data-name="Trazado 1033019" d="M81.364,97.171a46.672,46.672,0,0,1,3.779-5.711c1.133-1.6,2.359-2.8,3.473-4.1.6-.615,1.228-1.2,1.858-1.825l.97-.96,1.1-.927a47.547,47.547,0,0,1,5.5-4.2,46.375,46.375,0,0,1,14.737-5.883c2.322-.985,6.71-.887,9.606-1.239l1.123.269a11.86,11.86,0,0,1,3.182.125l-.069.054c1.5.046,3.178.288,3.916.385l-.072.049,1.79.338-.325.025c.647.092,1.3.178,1.95.3l1.9.5c.625.176,1.248.337,1.843.538l1.707.68-.095-.313c.586.256,1.127.482,1.636.685s.956.45,1.4.64c.875.4,1.663.733,2.437,1.063.743.389,1.473.772,2.258,1.217.39.226.8.452,1.22.731.4.3.829.621,1.28.979l-.087.017c.647.335,1.251.674,1.819,1.016.55.366,1.04.768,1.521,1.149s.933.772,1.375,1.157.817.833,1.223,1.245c1.618,1.661,3.114,3.436,5.222,5.6-.519-.547.09.338,0,.328l1.3,1.6c.419.52.765,1.051,1.108,1.479.671.868,1.2,1.425,1.432,1.308,1.071,1.738.7,1.516.678,1.837.172-.117,1.176,1.354,1.91,2.769-.137-.2-.255-.419-.406-.615.7,1.351,1.393,2.708,2.057,4.079.025-.338,0-.658.006-.99.887,2.273-.217.771.773,2.875l.313-.159a19.563,19.563,0,0,1,.732,2.189c.165.694.3,1.349.426,2s.257,1.3.371,1.981c.091.692.2,1.416.339,2.21a73.426,73.426,0,0,1,1.768,9.989,51.748,51.748,0,0,1-.063,10.205l-.136,1.264-.068.631-.127.619-.512,2.466a17.435,17.435,0,0,1-.677,2.4c-.26.785-.5,1.577-.779,2.345l-1.018,2.217a17.671,17.671,0,0,1-1.094,2.137,29.664,29.664,0,0,1-2.668,3.842l-.541.266c-.411-.047-1.68,2.982-2.322,3.054-.289.381-.56.782-.872,1.147-.34.231-1,.763-.546.208a16.966,16.966,0,0,0-1.6,1.672c-.4.26-.832.482-1.247.718a74.424,74.424,0,0,1-6.176,4.184,35.986,35.986,0,0,1-6.974,3.266,93.37,93.37,0,0,1-12.7,2.748,98.083,98.083,0,0,1-13.538.888,49.735,49.735,0,0,1-15.981-2.551A67.158,67.158,0,0,1,89.2,160.415a3.592,3.592,0,0,0-1.043-.6c-.607-.5-1.191-1.018-1.788-1.524l-.892-.764-.814-.843L83.038,155l-1.448-1.839-.312-.392-.37-.462-.431-.661a34.528,34.528,0,0,1-2.393-4.01,21.288,21.288,0,0,1-1.264-2.643c-.367-.945-.809-1.89-1.144-2.87-.6-1.985-1.275-3.931-1.646-5.694-.817-3.5-1.184-6.012-1.59-5.364a10.1,10.1,0,0,0-.38,3.632,36.74,36.74,0,0,0,.261,4.12c.111.827.29,1.722.463,2.705l.285,1.536c.1.534.292,1.062.445,1.627l-.169-.205L74,146.362l.315.882c.12.281.257.548.381.813.513,1.057.982,2.038,1.479,2.94a23.866,23.866,0,0,0,3.582,4.589,2,2,0,0,0,.442.92c.138.2.3.413.48.634l.634.637c.893.855,1.832,1.78,2.277,2.258l-.123-.049c1.44.94,2.657,2.2,4.065,3.215a21.712,21.712,0,0,0,2.08,1.531,20.226,20.226,0,0,0,2.212,1.179,1.586,1.586,0,0,1-.914-.312c.528.279,1.088.616,1.669.891l1.672.779a6.405,6.405,0,0,1,1.806,1.055,58.146,58.146,0,0,0,8.915,2.859,38.937,38.937,0,0,0,4.323.8,21.527,21.527,0,0,0,3.393.24l-.255.051c2.064-.038,2.637.242,4.926.254.122.048.282.081.255.1,2.224-.154,6.453.16,8.246-.044l.121.2c1.471-.063,2.943-.144,4.411-.283-.55.035-1.1.057-1.651.072.528-.57,3.368.143,6.519-.667,3.013-.374,5.76-2.2,8.767-2.816,1.338-.666-1.123.779.93-.058.158.256-.934.483-.32.533,2.031-.8,3.509-.855,5.925-2.117l.192.158c3.044-1.81,6.1-2.831,7.832-4.521a12.491,12.491,0,0,1,2.589-1.686,7.231,7.231,0,0,0,2.446-2.076l1.289-.82c1.182-1.163.579-1.085,1.894-2.356.081.221,1.608-1.677,1.065-.73a25.026,25.026,0,0,0,3.654-5.365l.793-1.559.736-1.663c.517-1.127,1.131-2.276,1.628-3.56a11.286,11.286,0,0,1,.554-2.482,9.248,9.248,0,0,0,.349-2.272,16.21,16.21,0,0,0,.622-2.336c.152-.953.277-1.513.255.045,0,.268-.128.724-.177.682l.135.4a8.52,8.52,0,0,0,.506-2.205c.091-.724.141-1.434.179-2.142a18.33,18.33,0,0,0,0-2.137c-.016-.721-.015-1.456.03-2.224-.107.909-.136,2.118-.254,1.3.024-.946.144-1.9.088-2.841l.208.59-.069-4.248-.2.6a16.372,16.372,0,0,0-.374-5.124c-.338-1.012-.031,1.981-.416-.161-.2-1.358-.356-3.084-.717-4.868a47.607,47.607,0,0,0-1.326-5.338c-.14.392-.431-.509-.79-1.414l.174-.182c-.748-1.716-.836-2.047-.821-2.419-.007-.362-.007-.729-.825-2.405l.267.242c-.262-.244-.534-.481-.824-.708a6.605,6.605,0,0,1-1.153-2.355,5.909,5.909,0,0,0-1.474-2.5c.758,1.259-.091.834-.892-.773l.412.289a17.513,17.513,0,0,1-1.063-1.687c.382.462.457.091-.4-1.112l.772.684L165.6,92.049A18.783,18.783,0,0,0,163.509,89c-.376-.488-.727-.946-1-1.338a5.175,5.175,0,0,1-.606-.9s-.743-.9-1.609-1.864a12.043,12.043,0,0,0-1.381-1.336,6.591,6.591,0,0,0-1.09-.81c.821.5-.989-1.34-.3-1.013-.495-.363-1.516-1.015-2.5-1.751-.491-.366-.978-.748-1.4-1.107s-.833-.633-1.091-.89l.241.13c-4.218-3.29-7.918-4.417-12.214-6.37.112.317-2.184-.685-1.71-.156-2.377-.551-4.454-1.343-6.252-1.734a13.7,13.7,0,0,0-2.393-.462,4.062,4.062,0,0,0-1.764.222c-2.186-.246-2.573-.514-3.715-.623l.531-.029-2.636-.075c-.744,0-1.38.051-1.982.066-1.2.058-2.278.029-3.809.226a11.52,11.52,0,0,0-1.761.507,19.819,19.819,0,0,1-2.645.594c.836-.354-.258-.107-1.266.089.637-.154.826-.261-.529-.127-.174.095-.456.176-.712.289-.014-.011-.069-.008-.047-.035-1.639.529-1.333.5-.561.314-.031.039.043.056.292.041a27.084,27.084,0,0,0-3.085.739c-.993.322-1.784.633-1.945.51A39.849,39.849,0,0,0,93.325,78.8c-.489.15.229-.557,1.2-1.347L92.1,79.3c-.129-.2,1.332-1.145,2.065-1.738a23.017,23.017,0,0,0-2.311,1.553c-.7.628-1.394,1.3-2.1,1.976-.724.657-1.373,1.412-2.064,2.155s-1.47,1.433-2.187,2.216l-.418.8-.185.174a4.4,4.4,0,0,1-.788,1.37c-.537.337-.39-.359-1.6,1.363a15.244,15.244,0,0,0-1.861,2.669l-1.695,3.217c.627-.986.539-.6.34-.138a21.883,21.883,0,0,0-1.241,2.11l-.3-.041c.213-.121-.039.517-.352,1.233a11.516,11.516,0,0,0-.648,1.74c-.422.46.467-1.565.487-1.848-.9,1.893-1.062,2.4-1.285,2.87-.185.49-.478.937-1.159,2.919-.567,2.169.389-.287.255.8-.673,1.844-.967,3.743-1.775,5.846l.442-.615c-.41,1.784-.623,3.233-.95,4.5-.267,1.282-.49,2.422-.822,3.621-.138,1.7-.086,3.229-.119,4.563.031,1.339.145,2.5.214,3.5a20.484,20.484,0,0,0,.348,2.542c.127.7.243,1.26.35,1.7.443,1.757.753,1.614.887.617a39.933,39.933,0,0,0,.33-4.258c.147-1.525.229-2.806.229-2.806a116.086,116.086,0,0,1,2.145-12.969l.788-3.08c.294-1.051.671-2.117,1.03-3.257a53.709,53.709,0,0,1,3.2-7.432" transform="translate(-61.023 -58.519)" fill="#3a552a"/>
      </g>
    </g>
    <g id="Grupo_1212395" data-name="Grupo 1212395" transform="translate(2692.968 -6059.893)">
      <g id="Grupo_1212394" data-name="Grupo 1212394" clip-path="url(#clip-path-2)">
        <path id="Trazado_1274178" data-name="Trazado 1274178" d="M52.776,28.073a.972.972,0,0,1,.946-.312.986.986,0,0,1,.682.65l1.909,4.2L60.6,34.575a.934.934,0,0,1,.579.6,1.016,1.016,0,0,1-.24.973L54.3,42.794c-.762.763-1.81.063-3.1.2A12.467,12.467,0,0,1,40.077,61.224L4.468,61.173a4.659,4.659,0,0,1-4.453-4.72L0,12.561a4.7,4.7,0,0,1,4.6-4.9L8.72,7.64A3.983,3.983,0,0,1,12.7,4.757l3.637.024a5.747,5.747,0,0,1,11.326-.024l4.156.035a3.639,3.639,0,0,1,3.45,2.841l4.22.038a4.606,4.606,0,0,1,4.331,3.44,12.92,12.92,0,0,1,.212,2.567L50.472,7.3a2.8,2.8,0,0,1,3.883.15l1.4,1.407a2.755,2.755,0,0,1,.134,3.718L44.021,24.5,44,36.9l2.051.9a17.148,17.148,0,0,1-.257-2.729Zm-21.014-10.9A1.92,1.92,0,0,0,33.5,15.157l-.014-6.593a1.808,1.808,0,0,0-1.64-1.825L26.793,6.71a.934.934,0,0,1-.936-.906A3.858,3.858,0,0,0,22.11,1.924a3.784,3.784,0,0,0-3.9,3.57c-.03.647-.356,1.213-1.075,1.216l-4.888.021a1.845,1.845,0,0,0-1.714,1.975l.011,6.589a1.9,1.9,0,0,0,2.027,1.919Zm22.687-6.8a7.419,7.419,0,0,0-1.714-1.716c-.625-.426-1.342.2-1.73.769l2.6,2.7c.561-.268,1.316-1.1.839-1.757M6.86,55.5a2.9,2.9,0,0,1-3.022-2.891l0-38.364a2.767,2.767,0,0,1,2.729-2.765l2.03-.013-.01-1.919-4.32.1a2.64,2.64,0,0,0-2.337,2.605l0,44.34a2.848,2.848,0,0,0,2.672,2.7l28.855-.018a13.588,13.588,0,0,1-3.729-3.767ZM40.247,17.452,42.1,15.6l-.029-3.377a2.6,2.6,0,0,0-2.422-2.592l-4.259-.057,0,1.9,1.969.007a2.771,2.771,0,0,1,2.812,2.679Zm.634,7.536L52.32,13.527l-2.737-2.72L38.1,22.289ZM30.6,29.438a2.778,2.778,0,0,0-2.889-2.656l-10.547.024c.377,1.96-.741,3.764-2.615,3.777l-3.838.028A2.831,2.831,0,0,1,7.688,28l-.021-4.142a2.8,2.8,0,0,1,2.806-2.809l4.01.007c1.925,0,3.05,1.836,2.7,3.8l10.609.021a4.747,4.747,0,0,1,4.736,4.772l.026,1.951c1.983-.345,3.762.776,3.795,2.739l.043,2.566,1.879-.46,0-8.427-2.607.643a.972.972,0,0,1-1.009-.334,1.026,1.026,0,0,1-.183-.89l1.484-5.564,2.293-2.442-.009-5.171a.923.923,0,0,0-1.031-.84l-1.828.011-.032,2.337a3.808,3.808,0,0,1-3.826,3.367l-19.115-.012A3.866,3.866,0,0,1,8.6,15.161L8.59,13.388c-1.5.108-2.836-.251-2.837.866l-.006,38.2a1,1,0,0,0,1.019,1.1l21.92-.009A11.672,11.672,0,0,1,28.1,51.7l-7.986-.03a.982.982,0,0,1-.978-.943.88.88,0,0,1,.785-.966l7.828-.025-.022-1.879-7.614-.013a.984.984,0,0,1-.978-.944.88.88,0,0,1,.787-.966l8.166-.027a11.992,11.992,0,0,1,2.265-4.764,3.217,3.217,0,0,1-2.83-.972,3.436,3.436,0,0,1-.71-2.859l-10.894.047a2.657,2.657,0,0,0-2.5,2.542v2.244c1.945-.389,3.774.733,3.786,2.668L17.23,48.6a2.948,2.948,0,0,1-2.9,3.07L10.6,51.663a2.849,2.849,0,0,1-2.926-2.851l.04-4.269a2.922,2.922,0,0,1,3.7-2.4l.081-2.074a4.694,4.694,0,0,1,4.6-4.666l10.73-.039a3.371,3.371,0,0,1,.867-3.027,3.47,3.47,0,0,1,2.921-.764Zm-16.347-.746A1,1,0,0,0,15.3,27.683l0-3.809a.9.9,0,0,0-.912-.915l-3.831-.007a.967.967,0,0,0-.988.97l0,3.833a.918.918,0,0,0,.985.935ZM38.9,25.837l-1.608-1.608-.5,2.167Zm1.3,10.537,1.9.075-.034-10.013a2.6,2.6,0,0,1-1.887,1.079Zm9.36,4.416,3.585.41,5.413-5.406-3.685-1.749L53.142,30.38l-5.406,5.4.427,3.638,2.618-2.581a.964.964,0,0,1,1.3.082.976.976,0,0,1-.029,1.347ZM32.276,39.064c.81-.329,1.366-1.009,2.163-1.28l-.007-3.355a.9.9,0,0,0-.9-.937l-3.841,0a.911.911,0,0,0-.979.932l0,3.84a.857.857,0,0,0,.855.912,8.091,8.091,0,0,0,2.712-.111m7.114,1.163a8.5,8.5,0,0,1,6.072,1.76,1.624,1.624,0,0,0,.829-.715c.137-.253.154-.925-.109-1.111a10.5,10.5,0,1,0,2.588,2.567c-.892-.414-1.213-.087-1.844.714a8.608,8.608,0,1,1-7.535-3.215m3.468,4.554,1.3-1.372A6.7,6.7,0,1,0,45.544,44.8l-1.357,1.381a4.774,4.774,0,1,1-7.7-.431,4.832,4.832,0,0,1,6.373-.966m-28.4,4.957A.962.962,0,0,0,15.3,48.8l0-3.818c0-.423-.3-.933-.749-.935l-4.15-.015a.79.79,0,0,0-.816.763l-.02,3.959a.992.992,0,0,0,1,.974Zm24.892-1.448L41.4,46.18a2.865,2.865,0,0,0-3.223,4.646,2.825,2.825,0,0,0,3.66.277,2.865,2.865,0,0,0,.934-3.536L40.8,49.505a.935.935,0,0,1-1.3-.017.88.88,0,0,1-.153-1.2" transform="translate(0 0)" fill="#12263f"/>
        <path id="Trazado_1274179" data-name="Trazado 1274179" d="M130.877,276.884l-4.717.008a.975.975,0,0,1-.937-.828.862.862,0,0,1,.747-1.072l4.878-.032a.963.963,0,1,1,.029,1.924" transform="translate(-106.045 -232.879)" fill="#12263f"/>
        <path id="Trazado_1274180" data-name="Trazado 1274180" d="M138.243,31.2a.945.945,0,0,1,1.114.676,1.016,1.016,0,0,1-.684,1.2.984.984,0,0,1-1.163-.729.961.961,0,0,1,.734-1.15" transform="translate(-116.44 -26.398)" fill="#12263f"/>
      </g>
    </g>
  </g>
</svg>
