<svg xmlns="http://www.w3.org/2000/svg" xmlns:xlink="http://www.w3.org/1999/xlink" width="128" height="128" viewBox="0 0 128 128">
  <defs>
    <clipPath id="clip-path">
      <rect id="Rectángulo_459899" data-name="Rectángulo 459899" width="128" height="128" fill="none"/>
    </clipPath>
    <clipPath id="clip-path-2">
      <rect id="Rectángulo_465414" data-name="Rectángulo 465414" width="53.003" height="58.761" fill="#12263f"/>
    </clipPath>
  </defs>
  <g id="Grupo_1212507" data-name="Grupo 1212507" transform="translate(-6769.5 8347.52)">
    <g id="Grupo_1211304" data-name="Grupo 1211304" transform="translate(6769.5 -8347.52)">
      <g id="Grupo_1188515" data-name="Grupo 1188515" clip-path="url(#clip-path)">
        <path id="Trazado_1033015" data-name="Trazado 1033015" d="M128,64A64,64,0,1,1,64,0a64,64,0,0,1,64,64" fill="#fff"/>
        <path id="Trazado_1033016" data-name="Trazado 1033016" d="M154.441,185.937l.625-.59c-.045-.02-.215.119-.625.59" transform="translate(-131.184 -157.435)" fill="#e4cbc1"/>
        <path id="Trazado_1033017" data-name="Trazado 1033017" d="M374.691,757.713l-.2.008a.74.74,0,0,0,.2-.008" transform="translate(-318.095 -643.61)" fill="#e4cbc1"/>
        <path id="Trazado_1033018" data-name="Trazado 1033018" d="M342.621,99.876l-.041.008-.2.065Z" transform="translate(-290.823 -84.836)" fill="#e4cbc1"/>
        <path id="Trazado_1033019" data-name="Trazado 1033019" d="M81.364,97.171a46.672,46.672,0,0,1,3.779-5.711c1.133-1.6,2.359-2.8,3.473-4.1.6-.615,1.228-1.2,1.858-1.825l.97-.96,1.1-.927a47.547,47.547,0,0,1,5.5-4.2,46.375,46.375,0,0,1,14.737-5.883c2.322-.985,6.71-.887,9.606-1.239l1.123.269a11.86,11.86,0,0,1,3.182.125l-.069.054c1.5.046,3.178.288,3.916.385l-.072.049,1.79.338-.325.025c.647.092,1.3.178,1.95.3l1.9.5c.625.176,1.248.337,1.843.538l1.707.68-.095-.313c.586.256,1.127.482,1.636.685s.956.45,1.4.64c.875.4,1.663.733,2.437,1.063.743.389,1.473.772,2.258,1.217.39.226.8.452,1.22.731.4.3.829.621,1.28.979l-.087.017c.647.335,1.251.674,1.819,1.016.55.366,1.04.768,1.521,1.149s.933.772,1.375,1.157.817.833,1.223,1.245c1.618,1.661,3.114,3.436,5.222,5.6-.519-.547.09.338,0,.328l1.3,1.6c.419.52.765,1.051,1.108,1.479.671.868,1.2,1.425,1.432,1.308,1.071,1.738.7,1.516.678,1.837.172-.117,1.176,1.354,1.91,2.769-.137-.2-.255-.419-.406-.615.7,1.351,1.393,2.708,2.057,4.079.025-.338,0-.658.006-.99.887,2.273-.217.771.773,2.875l.313-.159a19.563,19.563,0,0,1,.732,2.189c.165.694.3,1.349.426,2s.257,1.3.371,1.981c.091.692.2,1.416.339,2.21a73.426,73.426,0,0,1,1.768,9.989,51.748,51.748,0,0,1-.063,10.205l-.136,1.264-.068.631-.127.619-.512,2.466a17.435,17.435,0,0,1-.677,2.4c-.26.785-.5,1.577-.779,2.345l-1.018,2.217a17.671,17.671,0,0,1-1.094,2.137,29.664,29.664,0,0,1-2.668,3.842l-.541.266c-.411-.047-1.68,2.982-2.322,3.054-.289.381-.56.782-.872,1.147-.34.231-1,.763-.546.208a16.966,16.966,0,0,0-1.6,1.672c-.4.26-.832.482-1.247.718a74.424,74.424,0,0,1-6.176,4.184,35.986,35.986,0,0,1-6.974,3.266,93.37,93.37,0,0,1-12.7,2.748,98.083,98.083,0,0,1-13.538.888,49.735,49.735,0,0,1-15.981-2.551A67.158,67.158,0,0,1,89.2,160.415a3.592,3.592,0,0,0-1.043-.6c-.607-.5-1.191-1.018-1.788-1.524l-.892-.764-.814-.843L83.038,155l-1.448-1.839-.312-.392-.37-.462-.431-.661a34.528,34.528,0,0,1-2.393-4.01,21.288,21.288,0,0,1-1.264-2.643c-.367-.945-.809-1.89-1.144-2.87-.6-1.985-1.275-3.931-1.646-5.694-.817-3.5-1.184-6.012-1.59-5.364a10.1,10.1,0,0,0-.38,3.632,36.74,36.74,0,0,0,.261,4.12c.111.827.29,1.722.463,2.705l.285,1.536c.1.534.292,1.062.445,1.627l-.169-.205L74,146.362l.315.882c.12.281.257.548.381.813.513,1.057.982,2.038,1.479,2.94a23.866,23.866,0,0,0,3.582,4.589,2,2,0,0,0,.442.92c.138.2.3.413.48.634l.634.637c.893.855,1.832,1.78,2.277,2.258l-.123-.049c1.44.94,2.657,2.2,4.065,3.215a21.712,21.712,0,0,0,2.08,1.531,20.226,20.226,0,0,0,2.212,1.179,1.586,1.586,0,0,1-.914-.312c.528.279,1.088.616,1.669.891l1.672.779a6.405,6.405,0,0,1,1.806,1.055,58.146,58.146,0,0,0,8.915,2.859,38.937,38.937,0,0,0,4.323.8,21.527,21.527,0,0,0,3.393.24l-.255.051c2.064-.038,2.637.242,4.926.254.122.048.282.081.255.1,2.224-.154,6.453.16,8.246-.044l.121.2c1.471-.063,2.943-.144,4.411-.283-.55.035-1.1.057-1.651.072.528-.57,3.368.143,6.519-.667,3.013-.374,5.76-2.2,8.767-2.816,1.338-.666-1.123.779.93-.058.158.256-.934.483-.32.533,2.031-.8,3.509-.855,5.925-2.117l.192.158c3.044-1.81,6.1-2.831,7.832-4.521a12.491,12.491,0,0,1,2.589-1.686,7.231,7.231,0,0,0,2.446-2.076l1.289-.82c1.182-1.163.579-1.085,1.894-2.356.081.221,1.608-1.677,1.065-.73a25.026,25.026,0,0,0,3.654-5.365l.793-1.559.736-1.663c.517-1.127,1.131-2.276,1.628-3.56a11.286,11.286,0,0,1,.554-2.482,9.248,9.248,0,0,0,.349-2.272,16.21,16.21,0,0,0,.622-2.336c.152-.953.277-1.513.255.045,0,.268-.128.724-.177.682l.135.4a8.52,8.52,0,0,0,.506-2.205c.091-.724.141-1.434.179-2.142a18.33,18.33,0,0,0,0-2.137c-.016-.721-.015-1.456.03-2.224-.107.909-.136,2.118-.254,1.3.024-.946.144-1.9.088-2.841l.208.59-.069-4.248-.2.6a16.372,16.372,0,0,0-.374-5.124c-.338-1.012-.031,1.981-.416-.161-.2-1.358-.356-3.084-.717-4.868a47.607,47.607,0,0,0-1.326-5.338c-.14.392-.431-.509-.79-1.414l.174-.182c-.748-1.716-.836-2.047-.821-2.419-.007-.362-.007-.729-.825-2.405l.267.242c-.262-.244-.534-.481-.824-.708a6.605,6.605,0,0,1-1.153-2.355,5.909,5.909,0,0,0-1.474-2.5c.758,1.259-.091.834-.892-.773l.412.289a17.513,17.513,0,0,1-1.063-1.687c.382.462.457.091-.4-1.112l.772.684L165.6,92.049A18.783,18.783,0,0,0,163.509,89c-.376-.488-.727-.946-1-1.338a5.175,5.175,0,0,1-.606-.9s-.743-.9-1.609-1.864a12.043,12.043,0,0,0-1.381-1.336,6.591,6.591,0,0,0-1.09-.81c.821.5-.989-1.34-.3-1.013-.495-.363-1.516-1.015-2.5-1.751-.491-.366-.978-.748-1.4-1.107s-.833-.633-1.091-.89l.241.13c-4.218-3.29-7.918-4.417-12.214-6.37.112.317-2.184-.685-1.71-.156-2.377-.551-4.454-1.343-6.252-1.734a13.7,13.7,0,0,0-2.393-.462,4.062,4.062,0,0,0-1.764.222c-2.186-.246-2.573-.514-3.715-.623l.531-.029-2.636-.075c-.744,0-1.38.051-1.982.066-1.2.058-2.278.029-3.809.226a11.52,11.52,0,0,0-1.761.507,19.819,19.819,0,0,1-2.645.594c.836-.354-.258-.107-1.266.089.637-.154.826-.261-.529-.127-.174.095-.456.176-.712.289-.014-.011-.069-.008-.047-.035-1.639.529-1.333.5-.561.314-.031.039.043.056.292.041a27.084,27.084,0,0,0-3.085.739c-.993.322-1.784.633-1.945.51A39.849,39.849,0,0,0,93.325,78.8c-.489.15.229-.557,1.2-1.347L92.1,79.3c-.129-.2,1.332-1.145,2.065-1.738a23.017,23.017,0,0,0-2.311,1.553c-.7.628-1.394,1.3-2.1,1.976-.724.657-1.373,1.412-2.064,2.155s-1.47,1.433-2.187,2.216l-.418.8-.185.174a4.4,4.4,0,0,1-.788,1.37c-.537.337-.39-.359-1.6,1.363a15.244,15.244,0,0,0-1.861,2.669l-1.695,3.217c.627-.986.539-.6.34-.138a21.883,21.883,0,0,0-1.241,2.11l-.3-.041c.213-.121-.039.517-.352,1.233a11.516,11.516,0,0,0-.648,1.74c-.422.46.467-1.565.487-1.848-.9,1.893-1.062,2.4-1.285,2.87-.185.49-.478.937-1.159,2.919-.567,2.169.389-.287.255.8-.673,1.844-.967,3.743-1.775,5.846l.442-.615c-.41,1.784-.623,3.233-.95,4.5-.267,1.282-.49,2.422-.822,3.621-.138,1.7-.086,3.229-.119,4.563.031,1.339.145,2.5.214,3.5a20.484,20.484,0,0,0,.348,2.542c.127.7.243,1.26.35,1.7.443,1.757.753,1.614.887.617a39.933,39.933,0,0,0,.33-4.258c.147-1.525.229-2.806.229-2.806a116.086,116.086,0,0,1,2.145-12.969l.788-3.08c.294-1.051.671-2.117,1.03-3.257a53.709,53.709,0,0,1,3.2-7.432" transform="translate(-61.023 -58.519)" fill="#3a552a"/>
      </g>
    </g>
    <g id="Grupo_1212440" data-name="Grupo 1212440" transform="translate(6804.498 -8314.9)">
      <g id="Grupo_1212439" data-name="Grupo 1212439" clip-path="url(#clip-path-2)">
        <path id="Trazado_1274316" data-name="Trazado 1274316" d="M6.372,52.279a6.062,6.062,0,0,1-.624-4.986c.366-1.355-1.2-1.337-1.927-2.317-.462-.619,0-1.384.017-2.03-.359-.411-1.106-.7-1.24-1.3-.314-1.4,1.687-2.971.855-3.781L1.269,36.509a2.486,2.486,0,0,1-1.269-2,3.964,3.964,0,0,1,1.078-2.348,37.312,37.312,0,0,0,4.694-7.725,5.637,5.637,0,0,0-1.158-1.262,3.037,3.037,0,0,1-.773-3.677,25.7,25.7,0,0,0,1.747-5.028,17.859,17.859,0,0,1,5.523-9.277A16.153,16.153,0,0,1,17.58,1.951,61.136,61.136,0,0,1,28.247.113,22.535,22.535,0,0,1,41.566,2.825a32.688,32.688,0,0,1,5.558,3.856,15.906,15.906,0,0,1,4.87,7.741,29.773,29.773,0,0,1,.982,6.713,15.968,15.968,0,0,1-3.064,10.5l-2.169,2.981c-3.931,5.4-3.419,12.024-1.326,18.142.8,2.326,2.116,3.425,2.511,4.7a.959.959,0,0,1-.874,1.288l-24.636.01a1.133,1.133,0,0,1-1.17-.92c-.63-2.344-1.872-5.215-3.9-6.541a75.637,75.637,0,0,1-8.185,2.438,3.537,3.537,0,0,1-3.789-1.459m12.506-3.24,3.893-1.34c2.069-.712,4.251-1.707,4.419-3.822a.9.9,0,0,1,1.11-.718.909.909,0,0,1,.764.918c.061,2.709-2.513,4.263-4.975,5.23L20.55,50.55A15.5,15.5,0,0,1,24,56.832l22.265-.025a16.513,16.513,0,0,1-1.912-4.033c-2.127-6.683-2.388-13.556,1.861-19.39l2.11-2.9a13.609,13.609,0,0,0,2.709-8.318c-.071-5.357-1.056-10.478-5.22-14.035a31.311,31.311,0,0,0-5.219-3.6A21.08,21.08,0,0,0,27.5,2.145c-4.817.6-11.528,1.409-15.084,4.5a15.842,15.842,0,0,0-4.86,8.042,24.872,24.872,0,0,1-1.81,5.276c-.164.321-.392.921-.217,1.23a6.822,6.822,0,0,0,1.181,1.241c.559.6,1.245,1.7.888,2.612A37,37,0,0,1,2.68,33.319a3.69,3.69,0,0,0-.737,1.172c1.548,1.387,4,1.656,3.638,4.257a5.586,5.586,0,0,1-.952,2.261l1.257,1.029c.6.49.335,1.262-.3,1.923a3.221,3.221,0,0,1,2.028,4,4.257,4.257,0,0,0,.06,2.558,1.726,1.726,0,0,0,2.052,1.3,87,87,0,0,0,9.157-2.785" transform="translate(0 0)" fill="#12263f"/>
        <path id="Trazado_1274317" data-name="Trazado 1274317" d="M150.23,61.5a13.772,13.772,0,0,1-4.929-.011,1.035,1.035,0,0,1-.77-1.036l-.03-1.972a10.98,10.98,0,0,1-2.135-.884l-1.445,1.407a1.033,1.033,0,0,1-1.236.145c-1.476-1.012-4.379-3.684-3.5-4.6l1.532-1.6a10.9,10.9,0,0,1-.866-2.15l-2.124-.042a.88.88,0,0,1-.881-.754,12.417,12.417,0,0,1,.077-5.217c.091-.367.616-.511.935-.512l1.951,0a14.231,14.231,0,0,1,.912-2.194l-1.336-1.353a1.146,1.146,0,0,1-.05-1.6,15.143,15.143,0,0,1,3.175-3.133,1.071,1.071,0,0,1,1.423.034l1.441,1.414a11,11,0,0,1,2.13-.889l.031-1.977a1.029,1.029,0,0,1,.766-1.033,15.156,15.156,0,0,1,5.009,0,1.105,1.105,0,0,1,.772,1.175l.023,1.833a10.866,10.866,0,0,1,2.131.891l1.371-1.353a1.071,1.071,0,0,1,1.316-.206,13.059,13.059,0,0,1,3.568,3.609,1,1,0,0,1-.189,1.14l-1.411,1.446a10.669,10.669,0,0,1,.872,2.156l2.108.048a.921.921,0,0,1,.924.864,13.762,13.762,0,0,1-.03,4.863.946.946,0,0,1-1.024.762l-1.98.028a10.675,10.675,0,0,1-.866,2.154l1.333,1.356a1.114,1.114,0,0,1,.106,1.508,14.576,14.576,0,0,1-3.32,3.279,1.091,1.091,0,0,1-1.413-.154L153.236,57.6a11.887,11.887,0,0,1-2.136.886l-.031,1.97a1.042,1.042,0,0,1-.84,1.047m-1.115-1.818,0-2.032c0-1.068,1.628-.768,3.673-2.062a1.067,1.067,0,0,1,1.2-.015l1.546,1.438,1.8-1.8-1.475-1.511a1.041,1.041,0,0,1,.01-1.2c1.377-2.148.884-3.679,2.206-3.68h1.894a15.342,15.342,0,0,0,0-2.616h-1.9c-1.278,0-.85-1.486-2.2-3.684a1.043,1.043,0,0,1-.014-1.2l1.467-1.525-1.79-1.775-1.633,1.488c-.37.337-.933.063-1.305-.162-2.052-1.246-3.5-.837-3.5-2.11l0-1.876a18.991,18.991,0,0,0-2.617,0v1.876a.978.978,0,0,1-.774,1.008c-2.282.518-3.4,1.883-4.113,1.216l-1.545-1.445-1.8,1.782,1.349,1.364a1.1,1.1,0,0,1,.106,1.366c-1.343,2.113-.905,3.684-2.2,3.683h-1.9a15.346,15.346,0,0,0,.007,2.616h1.894c1.321,0,.832,1.545,2.2,3.677a1.09,1.09,0,0,1-.115,1.362l-1.346,1.366,1.8,1.784,1.546-1.433c.42-.389,1.054-.112,1.482.163,1.853,1.192,3.4.732,3.4,2.052V59.69a17.427,17.427,0,0,0,2.622-.006" transform="translate(-113.971 -28.434)" fill="#12263f"/>
        <path id="Trazado_1274318" data-name="Trazado 1274318" d="M74.9,169.165l-.99.411-.033,1.072a1.007,1.007,0,0,1-1.011,1.025,1.064,1.064,0,0,1-.96-1.171c.069-.6.075-.919-.513-1.167-.427-.179-.68-.071-1.084.45a1.059,1.059,0,0,1-1.484.233.986.986,0,0,1-.045-1.488l.736-.733c-.139-.274-.186-.717-.458-.958l-1.167-.078a.919.919,0,0,1-.855-1.039c.078-1.259,1.713-.724,2.033-1,.252-.219.314-.655.449-.942a7.017,7.017,0,0,1-.932-.992.951.951,0,0,1,.323-1.27c1.126-.729,1.575,1.062,2.369.78.671-.238.713-.566.629-1.214a1.055,1.055,0,0,1,.834-1.146.985.985,0,0,1,1.134,1l.037,1.075.961.4.9-.851a.924.924,0,0,1,1.318.139.97.97,0,0,1-.031,1.3l-.749.768a2.286,2.286,0,0,0,.389.94c.187.2.669.115.917.107a.99.99,0,1,1,.142,1.969l-1.089.046-.362.987c.812.7,1.327,1.346.785,2.064a.918.918,0,0,1-1.319.141Zm-2.694-5.188a1.932,1.932,0,0,0-1.156,2.471,1.955,1.955,0,0,0,3.708-1.238,1.94,1.94,0,0,0-2.552-1.233" transform="translate(-57.187 -136.427)" fill="#12263f"/>
        <path id="Trazado_1274319" data-name="Trazado 1274319" d="M66.119,95.25a.98.98,0,0,1-.946,1.207.994.994,0,0,1-.991-1.2c.033-.289-.018-.522-.276-.631a.525.525,0,0,0-.666.24,1.019,1.019,0,0,1-1.526.2,1.039,1.039,0,0,1,.152-1.578c.247-.185.346-.4.266-.6-.243-.594-1.757.059-1.866-1.241-.112-1.33,1.645-.8,1.863-1.355.176-.445-1.287-1.2-.483-2.1a1.029,1.029,0,0,1,1.59.122.53.53,0,0,0,.561.276c.328-.083.427-.326.387-.668a.993.993,0,1,1,1.94.008c-.037.3-.011.541.319.645.493.157,1.232-1.371,2.178-.451.882.857-.507,1.66-.463,2.068.08.735,1.214.1,1.705.823a1.049,1.049,0,0,1,.056,1.053c-.4.8-1.516.25-1.729.787-.228.576.782.788.687,1.578a.918.918,0,0,1-.637.851c-1.007.212-1.327-.765-1.692-.7s-.483.317-.431.669m-1.464-4.9a1.323,1.323,0,0,0-.739,1.786,1.356,1.356,0,0,0,1.772.719,1.386,1.386,0,0,0,.772-1.671,1.347,1.347,0,0,0-1.8-.834" transform="translate(-51.407 -73.977)" fill="#12263f"/>
        <path id="Trazado_1274320" data-name="Trazado 1274320" d="M191.993,86.784a6.361,6.361,0,1,1-4.875,7.631,6.323,6.323,0,0,1,4.875-7.631m.731,1.874a4.384,4.384,0,1,0,4.948,3.722,4.358,4.358,0,0,0-4.948-3.722" transform="translate(-159.489 -73.913)" fill="#12263f"/>
      </g>
    </g>
  </g>
</svg>
