<svg xmlns="http://www.w3.org/2000/svg" xmlns:xlink="http://www.w3.org/1999/xlink" width="84" height="84" viewBox="0 0 84 84">
  <defs>
    <clipPath id="clip-path">
      <rect id="Rectángulo_465420" data-name="Rectángulo 465420" width="56.427" height="56.447" fill="#12263f"/>
    </clipPath>
  </defs>
  <g id="Grupo_1211313" data-name="Grupo 1211313" transform="translate(-705.629 -410)">
    <g id="Grupo_1188476" data-name="Grupo 1188476" transform="translate(2.841 -1273.207)">
      <g id="Grupo_1185067" data-name="Grupo 1185067" transform="translate(719.227 1696)">
        <path id="Trazado_997620" data-name="Trazado 997620" d="M133.124,646.71a15.477,15.477,0,1,0-14.332-.01" transform="translate(-99.168 -604.804)" fill="#3a552a" stroke="#000" stroke-miterlimit="10" stroke-width="2"/>
        <rect id="Rectángulo_454823" data-name="Rectángulo 454823" width="14.333" height="4.288" transform="translate(19.625 41.893)" fill="#3a552a" stroke="#000" stroke-miterlimit="10" stroke-width="2"/>
        <rect id="Rectángulo_454824" data-name="Rectángulo 454824" width="14.333" height="4.288" transform="translate(19.625 46.181)" fill="#3a552a" stroke="#000" stroke-miterlimit="10" stroke-width="2"/>
        <path id="Trazado_997621" data-name="Trazado 997621" d="M135.492,688.628h-6.283a4.025,4.025,0,0,1-4.025-4.025v-.263h14.333v.263A4.025,4.025,0,0,1,135.492,688.628Z" transform="translate(-105.559 -633.871)" fill="#3a552a" stroke="#000" stroke-miterlimit="10" stroke-width="2"/>
        <line id="Línea_3231" data-name="Línea 3231" y1="7.578" transform="translate(26.797)" fill="none" stroke="#000" stroke-miterlimit="10" stroke-width="2"/>
        <line id="Línea_3232" data-name="Línea 3232" x1="4.454" y1="6.13" transform="translate(10.236 5.387)" fill="none" stroke="#000" stroke-miterlimit="10" stroke-width="2"/>
        <line id="Línea_3233" data-name="Línea 3233" x1="7.2" y1="2.336" transform="translate(0 19.477)" fill="none" stroke="#000" stroke-miterlimit="10" stroke-width="2"/>
        <line id="Línea_3234" data-name="Línea 3234" x1="7.2" y2="2.341" transform="translate(0 34.55)" fill="none" stroke="#000" stroke-miterlimit="10" stroke-width="2"/>
        <line id="Línea_3235" data-name="Línea 3235" x1="7.2" y1="2.341" transform="translate(46.398 34.55)" fill="none" stroke="#000" stroke-miterlimit="10" stroke-width="2"/>
        <line id="Línea_3236" data-name="Línea 3236" x1="7.2" y2="2.336" transform="translate(46.398 19.477)" fill="none" stroke="#000" stroke-miterlimit="10" stroke-width="2"/>
        <line id="Línea_3237" data-name="Línea 3237" x1="4.454" y2="6.125" transform="translate(38.91 5.387)" fill="none" stroke="#000" stroke-miterlimit="10" stroke-width="2"/>
        <path id="Trazado_997622" data-name="Trazado 997622" d="M119,638.208a10.647,10.647,0,0,1,4.484-8.693" transform="translate(-102.867 -610.025)" fill="#3a552a" stroke="#000" stroke-miterlimit="10" stroke-width="2"/>
        <line id="Línea_3238" data-name="Línea 3238" y2="8.634" transform="translate(26.797 33.258)" fill="none" stroke="#000" stroke-miterlimit="10" stroke-width="2"/>
        <path id="Trazado_997623" data-name="Trazado 997623" d="M133.157,647.74l2.669,3.47,3-3.47" transform="translate(-109.027 -617.951)" fill="#3a552a" stroke="#000" stroke-miterlimit="10" stroke-width="2"/>
        <path id="Trazado_997624" data-name="Trazado 997624" d="M132.431,691.931a3.07,3.07,0,1,0,6.14,0" transform="translate(-108.711 -637.173)" fill="#3a552a" stroke="#000" stroke-miterlimit="10" stroke-width="2"/>
      </g>
      <rect id="Rectángulo_459857" data-name="Rectángulo 459857" width="81" height="79" transform="translate(705.788 1688.207)" fill="#3a552a"/>
    </g>
    <g id="Grupo_1188599" data-name="Grupo 1188599" transform="translate(0.371 -1278)">
      <g id="Grupo_1185067-2" data-name="Grupo 1185067" transform="translate(718.472 1696)">
        <path id="Trazado_997620-2" data-name="Trazado 997620" d="M133.124,646.71a15.477,15.477,0,1,0-14.332-.01" transform="translate(-99.168 -604.804)" fill="#fff006" stroke="#000" stroke-miterlimit="10" stroke-width="2"/>
        <rect id="Rectángulo_454823-2" data-name="Rectángulo 454823" width="14.333" height="4.288" transform="translate(19.625 41.893)" fill="#fff006" stroke="#000" stroke-miterlimit="10" stroke-width="2"/>
        <rect id="Rectángulo_454824-2" data-name="Rectángulo 454824" width="14.333" height="4.288" transform="translate(19.625 46.181)" fill="#fff006" stroke="#000" stroke-miterlimit="10" stroke-width="2"/>
        <path id="Trazado_997621-2" data-name="Trazado 997621" d="M135.492,688.628h-6.283a4.025,4.025,0,0,1-4.025-4.025v-.263h14.333v.263A4.025,4.025,0,0,1,135.492,688.628Z" transform="translate(-105.559 -633.871)" fill="#fff006" stroke="#000" stroke-miterlimit="10" stroke-width="2"/>
        <line id="Línea_3231-2" data-name="Línea 3231" y1="7.578" transform="translate(26.797)" fill="none" stroke="#000" stroke-miterlimit="10" stroke-width="2"/>
        <line id="Línea_3232-2" data-name="Línea 3232" x1="4.454" y1="6.13" transform="translate(10.236 5.387)" fill="none" stroke="#000" stroke-miterlimit="10" stroke-width="2"/>
        <line id="Línea_3233-2" data-name="Línea 3233" x1="7.2" y1="2.336" transform="translate(0 19.477)" fill="none" stroke="#000" stroke-miterlimit="10" stroke-width="2"/>
        <line id="Línea_3234-2" data-name="Línea 3234" x1="7.2" y2="2.341" transform="translate(0 34.55)" fill="none" stroke="#000" stroke-miterlimit="10" stroke-width="2"/>
        <line id="Línea_3235-2" data-name="Línea 3235" x1="7.2" y1="2.341" transform="translate(46.398 34.55)" fill="none" stroke="#000" stroke-miterlimit="10" stroke-width="2"/>
        <line id="Línea_3236-2" data-name="Línea 3236" x1="7.2" y2="2.336" transform="translate(46.398 19.477)" fill="none" stroke="#000" stroke-miterlimit="10" stroke-width="2"/>
        <line id="Línea_3237-2" data-name="Línea 3237" x1="4.454" y2="6.125" transform="translate(38.91 5.387)" fill="none" stroke="#000" stroke-miterlimit="10" stroke-width="2"/>
        <path id="Trazado_997622-2" data-name="Trazado 997622" d="M119,638.208a10.647,10.647,0,0,1,4.484-8.693" transform="translate(-102.867 -610.025)" fill="#fff006" stroke="#000" stroke-miterlimit="10" stroke-width="2"/>
        <line id="Línea_3238-2" data-name="Línea 3238" y2="8.634" transform="translate(26.797 33.258)" fill="none" stroke="#000" stroke-miterlimit="10" stroke-width="2"/>
        <path id="Trazado_997623-2" data-name="Trazado 997623" d="M133.157,647.74l2.669,3.47,3-3.47" transform="translate(-109.027 -617.951)" fill="#fff006" stroke="#000" stroke-miterlimit="10" stroke-width="2"/>
        <path id="Trazado_997624-2" data-name="Trazado 997624" d="M132.431,691.931a3.07,3.07,0,1,0,6.14,0" transform="translate(-108.711 -637.173)" fill="#fff006" stroke="#000" stroke-miterlimit="10" stroke-width="2"/>
      </g>
      <rect id="Rectángulo_459857-2" data-name="Rectángulo 459857" width="80" height="80" transform="translate(705.258 1688)" fill="#fff006"/>
    </g>
    <g id="Grupo_1212452" data-name="Grupo 1212452" transform="translate(717.415 421.777)">
      <g id="Grupo_1212451" data-name="Grupo 1212451" clip-path="url(#clip-path)">
        <path id="Trazado_1274334" data-name="Trazado 1274334" d="M48.4,36.227l-5.558,3.584A11.278,11.278,0,1,1,22.2,48.672L17.862,49.7a4.7,4.7,0,0,1-9.238,1.381A4.694,4.694,0,0,1,17.4,47.856l4.368-1a11.218,11.218,0,0,1,2.881-9.365l-3.695-4.08a11.242,11.242,0,0,1-11.5,1.325L7.717,37.861a4.6,4.6,0,0,1,.827,6.193,4.684,4.684,0,1,1-2.47-7.122l1.744-3.109a11.268,11.268,0,0,1,.6-19.105L5.81,9.247A4.683,4.683,0,1,1,7.525,8.43l2.594,5.476a11.26,11.26,0,0,1,13.938,5.286l10.372-4.387a11.315,11.315,0,0,1-.156-6.493L31.246,7.167a4.665,4.665,0,1,1,.663-1.787L34.9,6.5a11.974,11.974,0,0,1,4.932-5.172,11.275,11.275,0,1,1,2.375,20.822L37.623,34.9a11.642,11.642,0,0,1,4.188,3.348l5.544-3.621a4.7,4.7,0,1,1,1.048,1.6M4.359,1.913a2.8,2.8,0,1,0,3.108,2.4,2.8,2.8,0,0,0-3.108-2.4m22.584,0a2.8,2.8,0,1,0,3.111,2.4,2.786,2.786,0,0,0-3.111-2.4M48.526,13.629a6.781,6.781,0,0,1,3.719,3.782,9.389,9.389,0,1,0-14.2,0,6.722,6.722,0,0,1,3.747-3.789,4.692,4.692,0,0,1,6.684-6.586,4.761,4.761,0,0,1,.051,6.59M44.864,7.557a2.806,2.806,0,1,0,3.075,2.429,2.79,2.79,0,0,0-3.075-2.429m-27.4,19.231a6.923,6.923,0,0,1,3.728,3.83,9.4,9.4,0,1,0-14.216-.055A6.724,6.724,0,0,1,10.748,26.8a4.683,4.683,0,1,1,6.712-.011m33.225-7.935a4.582,4.582,0,0,0-4.4-3.77H44.007a4.559,4.559,0,0,0-4.389,3.787,9.263,9.263,0,0,0,11.066-.017M35.861,34.261l4.574-12.713a11.809,11.809,0,0,1-5.271-4.995L24.808,20.936a11.193,11.193,0,0,1-2.459,11.2L26.076,36.2a11.254,11.254,0,0,1,9.785-1.944M13.375,20.814a2.766,2.766,0,0,0-1.983,3.534,2.813,2.813,0,0,0,5.425-1.484,2.77,2.77,0,0,0-3.442-2.05m6.237,11.194a4.594,4.594,0,0,0-4.385-3.759l-2.4,0A4.63,4.63,0,0,0,8.558,32.04a9.2,9.2,0,0,0,11.054-.032M51.5,30.132a2.767,2.767,0,0,0-2.537,3.2,2.808,2.808,0,1,0,2.537-3.2M36.271,47.5A6.867,6.867,0,0,1,40,51.28a9.382,9.382,0,1,0-14.2,0,6.83,6.83,0,0,1,3.744-3.8A4.686,4.686,0,0,1,36.216,40.9a4.733,4.733,0,0,1,.054,6.6M4.363,38.6a2.808,2.808,0,1,0,3.1,2.4,2.8,2.8,0,0,0-3.1-2.4M32.7,41.427A2.782,2.782,0,0,0,30.094,44.5a2.81,2.81,0,0,0,5.6-.518,2.775,2.775,0,0,0-2.986-2.55M12.949,47.062a2.808,2.808,0,0,0,.383,5.6,2.808,2.808,0,1,0-.383-5.6m25.488,5.643a4.686,4.686,0,0,0-3.768-3.669,13.925,13.925,0,0,0-3.345-.025,4.545,4.545,0,0,0-3.952,3.717,9.152,9.152,0,0,0,11.064-.023" transform="translate(0 -0.001)" fill="#12263f"/>
      </g>
    </g>
  </g>
</svg>
