<svg xmlns="http://www.w3.org/2000/svg" xmlns:xlink="http://www.w3.org/1999/xlink" width="187.711" height="123.276" viewBox="0 0 187.711 123.276">
  <defs>
    <clipPath id="clip-path">
      <rect id="Rectángulo_465407" data-name="Rectángulo 465407" width="90.978" height="90.089" fill="#12263f"/>
    </clipPath>
  </defs>
  <g id="Grupo_1212426" data-name="Grupo 1212426" transform="translate(-290.289 -1286)">
    <g id="Grupo_1211282" data-name="Grupo 1211282" transform="translate(6.024 -7576.746)">
      <g id="Grupo_1204518" data-name="Grupo 1204518" transform="translate(289.277 8868.039)">
        <rect id="Rectángulo_455283" data-name="Rectángulo 455283" width="182.698" height="117.983" fill="#3a552a"/>
      </g>
    </g>
    <g id="Grupo_1211283" data-name="Grupo 1211283" transform="translate(1.012 -7582.039)">
      <g id="Grupo_1204518-2" data-name="Grupo 1204518" transform="translate(289.277 8868.039)">
        <rect id="Rectángulo_455283-2" data-name="Rectángulo 455283" width="183.422" height="118.45" fill="#ffe4b3"/>
      </g>
    </g>
    <g id="Grupo_1212425" data-name="Grupo 1212425" transform="translate(336.511 1300.18)">
      <g id="Grupo_1212424" data-name="Grupo 1212424" clip-path="url(#clip-path)">
        <path id="Trazado_1274257" data-name="Trazado 1274257" d="M127.054,90.064l-21.387.025a1.774,1.774,0,0,1-1.223-.621,1.938,1.938,0,0,1-.268-1.431,12.33,12.33,0,0,1,7.335-9.559,6.894,6.894,0,0,1,3.309-11.694l.048-5.189A16.682,16.682,0,0,1,99.756,46.463l-5.665.012a1.49,1.49,0,0,1-1.6-1.153,1.352,1.352,0,0,1,1.148-1.7l6.116-.044a16.6,16.6,0,0,1,15.111-15.119l.009-4.98-9.3-.026a1.526,1.526,0,0,1-1.424-1.83,12.3,12.3,0,0,1,7.361-9.765,6.87,6.87,0,0,1-.124-9.8,6.91,6.91,0,1,1,9.743,9.8,12.318,12.318,0,0,1,7.356,9.763,1.588,1.588,0,0,1-1.636,1.86l-9.082-.007.009,4.987a16.6,16.6,0,0,1,15.11,15.118l6.113.038a1.333,1.333,0,0,1,1.177,1.5,1.476,1.476,0,0,1-1.628,1.362l-5.667-.013a16.685,16.685,0,0,1-15.11,15.132V66.76a6.956,6.956,0,0,1,5.123,4.611,6.858,6.858,0,0,1-1.761,7.1,12.335,12.335,0,0,1,7.354,9.8,1.52,1.52,0,0,1-1.437,1.794M115.388,3.031a3.979,3.979,0,0,0,1.873,7.734,4.017,4.017,0,0,0,2.921-4.826,3.962,3.962,0,0,0-4.794-2.908m9.864,17.41a9.334,9.334,0,0,0-17.866.034Zm-9.63,10.906A13.69,13.69,0,1,0,130,44.311a13.671,13.671,0,0,0-14.375-12.964m-.463,38.371a3.935,3.935,0,0,0-2.578,5.115,3.972,3.972,0,1,0,2.578-5.115m10.1,17.371a9.323,9.323,0,0,0-17.872.032Z" transform="translate(-70.833 0)" fill="#12263f"/>
        <path id="Trazado_1274258" data-name="Trazado 1274258" d="M307.814,165.833l-21.586-.009a1.451,1.451,0,0,1-1.334-1.66,12.205,12.205,0,0,1,7.361-9.931,6.9,6.9,0,1,1,9.6.005,12.313,12.313,0,0,1,7.345,9.605,1.6,1.6,0,0,1-1.389,1.99m-11.1-20.507a3.969,3.969,0,0,0,.617,7.914,3.969,3.969,0,1,0-.617-7.914m9.275,17.528a9.32,9.32,0,0,0-17.878.048Z" transform="translate(-218.254 -109.077)" fill="#12263f"/>
        <path id="Trazado_1274259" data-name="Trazado 1274259" d="M22.9,165.832l-21.376,0A1.51,1.51,0,0,1,0,164.385,12.155,12.155,0,0,1,7.366,154.24a6.909,6.909,0,1,1,9.614-.008,12.234,12.234,0,0,1,7.346,9.792,1.478,1.478,0,0,1-1.426,1.808M11.788,145.344a3.964,3.964,0,1,0,4.325,3.438,3.882,3.882,0,0,0-4.325-3.438m9.312,17.5a9.316,9.316,0,0,0-17.87.067Z" transform="translate(0 -109.079)" fill="#12263f"/>
        <path id="Trazado_1274260" data-name="Trazado 1274260" d="M57.176,66.235a1.46,1.46,0,0,1-2.063.753c-.874-.461-.931-1.321-.5-2.231a35.917,35.917,0,0,1,22-19.054c.777-.233,1.559.7,1.615,1.232a1.586,1.586,0,0,1-1.2,1.7,32.968,32.968,0,0,0-19.853,17.6" transform="translate(-41.64 -34.985)" fill="#12263f"/>
        <path id="Trazado_1274261" data-name="Trazado 1274261" d="M232.849,271.728a1.482,1.482,0,0,1-2.073-.863,1.438,1.438,0,0,1,.859-1.848,33.214,33.214,0,0,0,20.144-17,1.525,1.525,0,0,1,1.909-.79,1.452,1.452,0,0,1,.743,2.041,36.247,36.247,0,0,1-21.582,18.464" transform="translate(-176.741 -192.408)" fill="#12263f"/>
        <path id="Trazado_1274262" data-name="Trazado 1274262" d="M76.984,266.535c1.026.351,1.446.965,1.241,1.872a1.476,1.476,0,0,1-1.872,1.025A36.225,36.225,0,0,1,55.12,250.695a1.512,1.512,0,0,1,.517-2.081,1.446,1.446,0,0,1,2.069.672,33.112,33.112,0,0,0,19.278,17.25" transform="translate(-42.069 -190.306)" fill="#12263f"/>
        <path id="Trazado_1274263" data-name="Trazado 1274263" d="M260.11,66.187c.475,1,.313,1.78-.49,2.229a1.484,1.484,0,0,1-2.049-.71,33.116,33.116,0,0,0-18.995-17.413,1.511,1.511,0,0,1-.823-1.9,1.412,1.412,0,0,1,1.9-.831A36.129,36.129,0,0,1,260.11,66.187" transform="translate(-182.084 -36.354)" fill="#12263f"/>
        <path id="Trazado_1274264" data-name="Trazado 1274264" d="M184.7,180.689a2.783,2.783,0,0,1,3.361,1.971,2.834,2.834,0,0,1-1.989,3.4,2.8,2.8,0,0,1-3.323-1.83,2.749,2.749,0,0,1,1.951-3.538" transform="translate(-139.885 -138.351)" fill="#12263f"/>
        <path id="Trazado_1274265" data-name="Trazado 1274265" d="M216.2,180.669a2.777,2.777,0,1,1-1.785,3.592,2.763,2.763,0,0,1,1.785-3.592" transform="translate(-164.145 -138.317)" fill="#12263f"/>
        <path id="Trazado_1274266" data-name="Trazado 1274266" d="M153.132,180.7a2.775,2.775,0,1,1-1.8,3.58,2.757,2.757,0,0,1,1.8-3.58" transform="translate(-115.815 -138.346)" fill="#12263f"/>
      </g>
    </g>
  </g>
</svg>
