<svg xmlns="http://www.w3.org/2000/svg" xmlns:xlink="http://www.w3.org/1999/xlink" width="96" height="96" viewBox="0 0 96 96">
  <defs>
    <clipPath id="clip-path">
      <rect id="Rectángulo_465401" data-name="Rectángulo 465401" width="52.097" height="52.098" fill="#12263f"/>
    </clipPath>
  </defs>
  <g id="Grupo_1211276" data-name="Grupo 1211276" transform="translate(-735.745 -9122)">
    <g id="Grupo_1188527" data-name="Grupo 1188527" transform="translate(-728.818 -89.375)">
      <g id="Grupo_1188526" data-name="Grupo 1188526">
        <path id="Trazado_1033015" data-name="Trazado 1033015" d="M96,47.778A48,48,0,1,1,48,0,47.889,47.889,0,0,1,96,47.778" transform="translate(1464.564 9211.818)" fill="#ebffe0"/>
        <path id="Trazado_1033017" data-name="Trazado 1033017" d="M374.691,757.713l-.2.008a.74.74,0,0,0,.2-.008" transform="translate(1131.201 8546.583)" fill="#ffe4b3"/>
        <path id="Trazado_1033018" data-name="Trazado 1033018" d="M342.621,99.876l-.041.008-.2.065Z" transform="translate(1158.943 9116.164)" fill="#ffe4b3"/>
        <path id="Trazado_1033019" data-name="Trazado 1033019" d="M80.427,94.229a41.8,41.8,0,0,1,3.407-5.117c1.022-1.43,2.127-2.505,3.131-3.67.537-.551,1.107-1.071,1.675-1.635l.874-.861.988-.831a42.841,42.841,0,0,1,4.961-3.764,41.965,41.965,0,0,1,13.287-5.271c2.094-.883,6.05-.794,8.661-1.11l1.013.241a10.76,10.76,0,0,1,2.869.112l-.062.048c1.352.041,2.866.258,3.531.345l-.065.044,1.614.3-.293.022c.584.083,1.175.16,1.758.273l1.713.445c.563.158,1.125.3,1.661.482l1.539.609-.086-.28c.528.23,1.016.432,1.475.614s.862.4,1.26.574c.789.36,1.5.656,2.2.952.67.348,1.328.692,2.036,1.091.352.2.724.405,1.1.655.365.267.748.556,1.154.877l-.078.015c.584.3,1.128.6,1.64.91.5.328.937.688,1.371,1.03s.841.692,1.24,1.036.737.747,1.1,1.116c1.459,1.488,2.808,3.078,4.708,5.018-.468-.49.081.3,0,.294l1.17,1.437c.378.466.69.941,1,1.325.6.777,1.085,1.276,1.291,1.172.965,1.557.633,1.359.611,1.646.155-.1,1.06,1.213,1.723,2.481-.123-.183-.23-.375-.366-.551.629,1.21,1.256,2.426,1.855,3.655.022-.3,0-.59.006-.887.8,2.036-.2.691.7,2.576l.282-.142a17.451,17.451,0,0,1,.66,1.962c.149.622.27,1.209.384,1.792s.232,1.161.334,1.775c.082.62.178,1.269.306,1.981a65.415,65.415,0,0,1,1.594,8.95,46.076,46.076,0,0,1-.056,9.144l-.122,1.132-.061.566-.114.554-.461,2.21a15.544,15.544,0,0,1-.611,2.151c-.235.7-.447,1.413-.7,2.1l-.917,1.986a15.794,15.794,0,0,1-.986,1.915,26.575,26.575,0,0,1-2.405,3.442l-.488.238c-.371-.042-1.515,2.672-2.094,2.736-.26.341-.5.7-.786,1.028-.306.207-.9.684-.493.186a15.244,15.244,0,0,0-1.439,1.5c-.362.233-.75.432-1.124.643-1.886,1.387-3.667,2.621-5.568,3.749a32.54,32.54,0,0,1-6.288,2.926,84.641,84.641,0,0,1-11.452,2.462,88.983,88.983,0,0,1-12.206.8,45.1,45.1,0,0,1-14.409-2.286,60.716,60.716,0,0,1-13.085-6.251,3.245,3.245,0,0,0-.941-.534c-.547-.444-1.073-.912-1.612-1.366l-.8-.684-.734-.756-1.464-1.513-1.305-1.648-.282-.351-.334-.414-.388-.593a30.9,30.9,0,0,1-2.157-3.593,19.02,19.02,0,0,1-1.14-2.368c-.33-.847-.729-1.693-1.031-2.571-.537-1.779-1.15-3.522-1.484-5.1-.737-3.134-1.067-5.386-1.434-4.806a9,9,0,0,0-.342,3.254,32.714,32.714,0,0,0,.235,3.691c.1.741.261,1.543.417,2.424l.257,1.376c.089.478.263.952.4,1.458l-.152-.184.594,1.688.284.79c.108.251.231.491.344.729.463.947.885,1.826,1.333,2.634a21.4,21.4,0,0,0,3.229,4.111,1.784,1.784,0,0,0,.4.825c.125.176.269.37.433.568l.571.57c.805.766,1.652,1.595,2.053,2.023l-.111-.044c1.3.842,2.4,1.97,3.665,2.881a19.571,19.571,0,0,0,1.875,1.371,18.278,18.278,0,0,0,1.994,1.056,1.437,1.437,0,0,1-.824-.28c.476.25.981.552,1.5.8l1.508.7a5.782,5.782,0,0,1,1.629.945,52.663,52.663,0,0,0,8.038,2.562,35.3,35.3,0,0,0,3.9.714,19.528,19.528,0,0,0,3.059.215l-.23.046c1.861-.034,2.378.217,4.442.228.11.043.254.072.23.085,2-.138,5.818.144,7.435-.04l.109.175c1.327-.056,2.653-.129,3.977-.254-.5.032-.992.051-1.489.064.476-.511,3.037.128,5.877-.6,2.716-.335,5.194-1.969,7.9-2.523,1.207-.6-1.012.7.839-.052.142.229-.842.433-.288.478,1.831-.715,3.164-.766,5.342-1.9l.173.141c2.745-1.622,5.5-2.536,7.062-4.051a11.272,11.272,0,0,1,2.334-1.51,6.512,6.512,0,0,0,2.206-1.86l1.162-.735c1.066-1.042.522-.972,1.707-2.111.073.2,1.45-1.5.96-.654a22.416,22.416,0,0,0,3.295-4.807l.715-1.4.664-1.49c.466-1.01,1.02-2.039,1.468-3.189a10.057,10.057,0,0,1,.5-2.224,8.237,8.237,0,0,0,.315-2.036,14.452,14.452,0,0,0,.561-2.093c.137-.854.25-1.355.229.04,0,.241-.115.649-.159.611l.122.361a7.593,7.593,0,0,0,.456-1.976c.082-.649.127-1.285.161-1.92a16.32,16.32,0,0,0,0-1.915c-.014-.646-.014-1.3.027-1.992-.1.815-.122,1.9-.229,1.168.022-.848.129-1.7.079-2.545l.188.528-.062-3.806-.183.538a14.58,14.58,0,0,0-.338-4.591c-.305-.907-.028,1.775-.375-.144-.183-1.216-.321-2.764-.647-4.361a42.437,42.437,0,0,0-1.2-4.783c-.126.352-.389-.456-.712-1.267l.157-.163c-.675-1.538-.754-1.834-.74-2.168-.006-.324-.006-.654-.744-2.155l.24.217c-.236-.219-.481-.431-.743-.635a5.9,5.9,0,0,1-1.04-2.11,5.285,5.285,0,0,0-1.329-2.239c.683,1.128-.082.747-.8-.692l.371.259a15.676,15.676,0,0,1-.958-1.511c.344.414.412.082-.359-1l.7.612-1.683-1.893a16.825,16.825,0,0,0-1.884-2.73c-.339-.437-.656-.847-.9-1.2a4.635,4.635,0,0,1-.547-.809s-.67-.8-1.451-1.67a10.827,10.827,0,0,0-1.245-1.2,5.941,5.941,0,0,0-.983-.726c.74.447-.892-1.2-.267-.908-.446-.326-1.367-.909-2.25-1.569-.443-.328-.882-.67-1.265-.992s-.751-.567-.984-.8l.217.116c-3.8-2.948-7.139-3.957-11.012-5.707.1.284-1.969-.613-1.542-.14-2.143-.493-4.016-1.2-5.637-1.553a12.427,12.427,0,0,0-2.157-.414,3.684,3.684,0,0,0-1.59.2c-1.971-.22-2.32-.46-3.349-.558L120,68.96l-2.376-.067c-.671,0-1.244.046-1.787.059-1.085.052-2.054.026-3.435.2a10.437,10.437,0,0,0-1.587.454,17.964,17.964,0,0,1-2.385.532c.753-.317-.233-.1-1.141.079.574-.138.745-.234-.477-.114-.157.085-.412.158-.642.259-.013-.01-.062-.007-.042-.031-1.478.474-1.2.452-.506.282-.028.035.038.05.263.037a24.548,24.548,0,0,0-2.782.662c-.9.288-1.609.567-1.753.457a35.975,35.975,0,0,0-10.14,5.994c-.441.135.207-.5,1.084-1.207l-2.188,1.655c-.116-.182,1.2-1.026,1.862-1.557a20.761,20.761,0,0,0-2.084,1.392c-.634.562-1.257,1.161-1.889,1.77-.653.589-1.238,1.265-1.861,1.931s-1.326,1.284-1.972,1.985l-.377.716-.167.156c.076.049-.374.78-.71,1.228-.484.3-.352-.321-1.44,1.221a13.658,13.658,0,0,0-1.677,2.391L78.264,92.33c.565-.883.486-.537.307-.124a19.579,19.579,0,0,0-1.119,1.89l-.268-.036c.192-.109-.035.463-.317,1.1a10.276,10.276,0,0,0-.585,1.559c-.38.413.421-1.4.439-1.656-.814,1.7-.957,2.147-1.158,2.572a28.127,28.127,0,0,0-1.045,2.615c-.511,1.944.351-.257.23.716-.606,1.652-.872,3.353-1.6,5.238l.4-.551c-.37,1.6-.562,2.9-.856,4.034-.241,1.149-.442,2.17-.741,3.245-.124,1.526-.078,2.893-.107,4.088.028,1.2.131,2.242.193,3.139a18.244,18.244,0,0,0,.314,2.278c.114.628.22,1.129.316,1.523.4,1.574.679,1.446.8.552a35.559,35.559,0,0,0,.3-3.815c.133-1.366.207-2.514.207-2.514a103.412,103.412,0,0,1,1.934-11.62l.71-2.76c.265-.942.6-1.9.928-2.918a47.962,47.962,0,0,1,2.887-6.659" transform="translate(1392.723 9142.481)" fill="#3a552a"/>
      </g>
    </g>
    <g id="Grupo_1212413" data-name="Grupo 1212413" transform="translate(756.274 9143.951)">
      <g id="Grupo_1212412" data-name="Grupo 1212412" clip-path="url(#clip-path)">
        <path id="Trazado_1274226" data-name="Trazado 1274226" d="M16.885,38.56a2.227,2.227,0,0,1-.321,2.088L8.218,48.943a3.469,3.469,0,0,1-4.88-.257A3.511,3.511,0,0,1,3.2,43.8l8.305-8.332c.546-.548,1.337-.26,1.979-.358.56-.085.618-1.142.341-1.608A14.41,14.41,0,0,1,13.581,19,9.857,9.857,0,1,1,19,13.579a14.443,14.443,0,0,1,14.073-.019A9.868,9.868,0,1,1,38.516,19a14.423,14.423,0,0,1,.01,14.076A9.872,9.872,0,0,1,49.239,49.167,9.868,9.868,0,0,1,33.092,38.507a14.36,14.36,0,0,1-14.415-.193,1.406,1.406,0,0,0-1.792.246M12.406,10.5a7.211,7.211,0,0,1,4.271,4.233,8.4,8.4,0,1,0-13.643.011A7.165,7.165,0,0,1,7.3,10.5a3.857,3.857,0,1,1,5.1,0m32.4,0a7.18,7.18,0,0,1,4.259,4.248,8.4,8.4,0,1,0-13.644-.008A7.243,7.243,0,0,1,39.688,10.5a3.852,3.852,0,1,1,5.114,0M9.635,5.219A2.376,2.376,0,0,0,7.467,7.9a2.4,2.4,0,0,0,4.773-.531A2.371,2.371,0,0,0,9.635,5.219m32.416,0a2.366,2.366,0,0,0-2.183,2.7,2.4,2.4,0,0,0,4.771-.523,2.376,2.376,0,0,0-2.588-2.177M15.567,15.984a5.863,5.863,0,0,0-11.412.027,8.323,8.323,0,0,0,11.412-.027m32.39,0a5.861,5.861,0,0,0-5.835-4.5,5.8,5.8,0,0,0-5.574,4.531,8.331,8.331,0,0,0,11.409-.029M16,37.355a2.983,2.983,0,0,1,3.471-.262A12.857,12.857,0,1,0,15,32.613a3.007,3.007,0,0,1-.284,3.511A4.789,4.789,0,0,0,16,37.355m28.823,5.5a7.474,7.474,0,0,1,4.248,4.271,8.4,8.4,0,1,0-13.664-.012,7.455,7.455,0,0,1,4.259-4.246,3.857,3.857,0,1,1,5.157-.013m-29.5-2.976a.72.72,0,0,0,.034-1.031l-2.119-2.122a.723.723,0,0,0-.991,0L4.275,44.737a2.143,2.143,0,0,0,.144,3,2.1,2.1,0,0,0,2.935.077ZM41.8,37.633a2.4,2.4,0,1,0,2.816,1.946A2.393,2.393,0,0,0,41.8,37.633m6.157,10.758a5.844,5.844,0,0,0-5.83-4.522,5.781,5.781,0,0,0-5.578,4.539,8.367,8.367,0,0,0,11.408-.017" transform="translate(0 0)" fill="#12263f"/>
        <path id="Trazado_1274227" data-name="Trazado 1274227" d="M26.394,175.745a.737.737,0,0,1-.2,1,.747.747,0,0,1-1.024-.219,23.107,23.107,0,0,1-2.761-16.165c.079-.408.64-.517.9-.424a.753.753,0,0,1,.477.862,21.822,21.822,0,0,0,2.606,14.95" transform="translate(-19.074 -138.746)" fill="#12263f"/>
        <path id="Trazado_1274228" data-name="Trazado 1274228" d="M121.492,340.273c.537-.092.9.068,1.031.433a.727.727,0,0,1-.516.947,23.059,23.059,0,0,1-15.961-2.813.747.747,0,0,1-.265-.935.718.718,0,0,1,.991-.31,21.7,21.7,0,0,0,14.72,2.678" transform="translate(-91.735 -292.85)" fill="#12263f"/>
        <path id="Trazado_1274229" data-name="Trazado 1274229" d="M170.15,23.793a23.271,23.271,0,0,0-7.542-.015.8.8,0,0,1-.91-.347c-.188-.33-.084-.936.356-1.021a24.278,24.278,0,0,1,8.135-.081c.477.069.768.313.752.8a.712.712,0,0,1-.791.667" transform="translate(-140.226 -19.112)" fill="#12263f"/>
        <path id="Trazado_1274230" data-name="Trazado 1274230" d="M359.79,170.078c-.081.529-.312.83-.8.81a.727.727,0,0,1-.66-.89,22.885,22.885,0,0,0,0-7.552.731.731,0,0,1,.538-.872c.546-.1.836.228.914.731a24.984,24.984,0,0,1,.01,7.774" transform="translate(-310.907 -140.18)" fill="#12263f"/>
        <path id="Trazado_1274231" data-name="Trazado 1274231" d="M123.2,113.759a11.01,11.01,0,1,1-9.442,12.468,11.005,11.005,0,0,1,9.442-12.468m0,1.464a9.562,9.562,0,1,0,10.913,7.987,9.558,9.558,0,0,0-10.913-7.987" transform="translate(-98.609 -98.622)" fill="#12263f"/>
        <path id="Trazado_1274232" data-name="Trazado 1274232" d="M184.421,153.856l-2.935-.012a.709.709,0,0,1-.68-.779v-11.9a.643.643,0,0,1,.623-.712l3.009,0a.648.648,0,0,1,.62.716v11.9a.77.77,0,0,1-.639.791m-.808-1.5-.019-10.455-1.335.037v10.447a4.793,4.793,0,0,0,1.355-.029" transform="translate(-156.884 -121.87)" fill="#12263f"/>
        <path id="Trazado_1274233" data-name="Trazado 1274233" d="M221.59,174.048l-2.71-.006a.755.755,0,0,1-.768-.8l.01-8.819a.724.724,0,0,1,.742-.706h2.8a.715.715,0,0,1,.725.63l0,8.982a.77.77,0,0,1-.8.718m-.649-1.522v-7.338h-1.375v7.389a4.48,4.48,0,0,0,1.375-.052" transform="translate(-189.255 -142.057)" fill="#12263f"/>
        <path id="Trazado_1274234" data-name="Trazado 1274234" d="M146.893,192.3l-2.7.02a.8.8,0,0,1-.865-.721l.007-6.106a.705.705,0,0,1,.726-.717l2.791-.005a.716.716,0,0,1,.74.7l.011,6.16a.729.729,0,0,1-.707.672m-.74-1.469,0-4.6-1.377,0,.005,4.577a4.884,4.884,0,0,0,1.375.017" transform="translate(-124.363 -160.328)" fill="#12263f"/>
      </g>
    </g>
  </g>
</svg>
