<svg xmlns="http://www.w3.org/2000/svg" xmlns:xlink="http://www.w3.org/1999/xlink" width="84" height="84" viewBox="0 0 84 84">
  <defs>
    <clipPath id="clip-path">
      <rect id="Rectángulo_465419" data-name="Rectángulo 465419" width="57.703" height="57.188" fill="#12263f"/>
    </clipPath>
  </defs>
  <g id="Grupo_1211310" data-name="Grupo 1211310" transform="translate(-705.629 -410)">
    <g id="Grupo_1188476" data-name="Grupo 1188476" transform="translate(2.841 -1273.207)">
      <g id="Grupo_1185067" data-name="Grupo 1185067" transform="translate(719.227 1696)">
        <path id="Trazado_997620" data-name="Trazado 997620" d="M133.124,646.71a15.477,15.477,0,1,0-14.332-.01" transform="translate(-99.168 -604.804)" fill="#3a552a" stroke="#000" stroke-miterlimit="10" stroke-width="2"/>
        <rect id="Rectángulo_454823" data-name="Rectángulo 454823" width="14.333" height="4.288" transform="translate(19.625 41.893)" fill="#3a552a" stroke="#000" stroke-miterlimit="10" stroke-width="2"/>
        <rect id="Rectángulo_454824" data-name="Rectángulo 454824" width="14.333" height="4.288" transform="translate(19.625 46.181)" fill="#3a552a" stroke="#000" stroke-miterlimit="10" stroke-width="2"/>
        <path id="Trazado_997621" data-name="Trazado 997621" d="M135.492,688.628h-6.283a4.025,4.025,0,0,1-4.025-4.025v-.263h14.333v.263A4.025,4.025,0,0,1,135.492,688.628Z" transform="translate(-105.559 -633.871)" fill="#3a552a" stroke="#000" stroke-miterlimit="10" stroke-width="2"/>
        <line id="Línea_3231" data-name="Línea 3231" y1="7.578" transform="translate(26.797)" fill="none" stroke="#000" stroke-miterlimit="10" stroke-width="2"/>
        <line id="Línea_3232" data-name="Línea 3232" x1="4.454" y1="6.13" transform="translate(10.236 5.387)" fill="none" stroke="#000" stroke-miterlimit="10" stroke-width="2"/>
        <line id="Línea_3233" data-name="Línea 3233" x1="7.2" y1="2.336" transform="translate(0 19.477)" fill="none" stroke="#000" stroke-miterlimit="10" stroke-width="2"/>
        <line id="Línea_3234" data-name="Línea 3234" x1="7.2" y2="2.341" transform="translate(0 34.55)" fill="none" stroke="#000" stroke-miterlimit="10" stroke-width="2"/>
        <line id="Línea_3235" data-name="Línea 3235" x1="7.2" y1="2.341" transform="translate(46.398 34.55)" fill="none" stroke="#000" stroke-miterlimit="10" stroke-width="2"/>
        <line id="Línea_3236" data-name="Línea 3236" x1="7.2" y2="2.336" transform="translate(46.398 19.477)" fill="none" stroke="#000" stroke-miterlimit="10" stroke-width="2"/>
        <line id="Línea_3237" data-name="Línea 3237" x1="4.454" y2="6.125" transform="translate(38.91 5.387)" fill="none" stroke="#000" stroke-miterlimit="10" stroke-width="2"/>
        <path id="Trazado_997622" data-name="Trazado 997622" d="M119,638.208a10.647,10.647,0,0,1,4.484-8.693" transform="translate(-102.867 -610.025)" fill="#3a552a" stroke="#000" stroke-miterlimit="10" stroke-width="2"/>
        <line id="Línea_3238" data-name="Línea 3238" y2="8.634" transform="translate(26.797 33.258)" fill="none" stroke="#000" stroke-miterlimit="10" stroke-width="2"/>
        <path id="Trazado_997623" data-name="Trazado 997623" d="M133.157,647.74l2.669,3.47,3-3.47" transform="translate(-109.027 -617.951)" fill="#3a552a" stroke="#000" stroke-miterlimit="10" stroke-width="2"/>
        <path id="Trazado_997624" data-name="Trazado 997624" d="M132.431,691.931a3.07,3.07,0,1,0,6.14,0" transform="translate(-108.711 -637.173)" fill="#3a552a" stroke="#000" stroke-miterlimit="10" stroke-width="2"/>
      </g>
      <rect id="Rectángulo_459857" data-name="Rectángulo 459857" width="81" height="79" transform="translate(705.788 1688.207)" fill="#3a552a"/>
    </g>
    <g id="Grupo_1188599" data-name="Grupo 1188599" transform="translate(0.371 -1278)">
      <g id="Grupo_1185067-2" data-name="Grupo 1185067" transform="translate(718.472 1696)">
        <path id="Trazado_997620-2" data-name="Trazado 997620" d="M133.124,646.71a15.477,15.477,0,1,0-14.332-.01" transform="translate(-99.168 -604.804)" fill="#fff006" stroke="#000" stroke-miterlimit="10" stroke-width="2"/>
        <rect id="Rectángulo_454823-2" data-name="Rectángulo 454823" width="14.333" height="4.288" transform="translate(19.625 41.893)" fill="#fff006" stroke="#000" stroke-miterlimit="10" stroke-width="2"/>
        <rect id="Rectángulo_454824-2" data-name="Rectángulo 454824" width="14.333" height="4.288" transform="translate(19.625 46.181)" fill="#fff006" stroke="#000" stroke-miterlimit="10" stroke-width="2"/>
        <path id="Trazado_997621-2" data-name="Trazado 997621" d="M135.492,688.628h-6.283a4.025,4.025,0,0,1-4.025-4.025v-.263h14.333v.263A4.025,4.025,0,0,1,135.492,688.628Z" transform="translate(-105.559 -633.871)" fill="#fff006" stroke="#000" stroke-miterlimit="10" stroke-width="2"/>
        <line id="Línea_3231-2" data-name="Línea 3231" y1="7.578" transform="translate(26.797)" fill="none" stroke="#000" stroke-miterlimit="10" stroke-width="2"/>
        <line id="Línea_3232-2" data-name="Línea 3232" x1="4.454" y1="6.13" transform="translate(10.236 5.387)" fill="none" stroke="#000" stroke-miterlimit="10" stroke-width="2"/>
        <line id="Línea_3233-2" data-name="Línea 3233" x1="7.2" y1="2.336" transform="translate(0 19.477)" fill="none" stroke="#000" stroke-miterlimit="10" stroke-width="2"/>
        <line id="Línea_3234-2" data-name="Línea 3234" x1="7.2" y2="2.341" transform="translate(0 34.55)" fill="none" stroke="#000" stroke-miterlimit="10" stroke-width="2"/>
        <line id="Línea_3235-2" data-name="Línea 3235" x1="7.2" y1="2.341" transform="translate(46.398 34.55)" fill="none" stroke="#000" stroke-miterlimit="10" stroke-width="2"/>
        <line id="Línea_3236-2" data-name="Línea 3236" x1="7.2" y2="2.336" transform="translate(46.398 19.477)" fill="none" stroke="#000" stroke-miterlimit="10" stroke-width="2"/>
        <line id="Línea_3237-2" data-name="Línea 3237" x1="4.454" y2="6.125" transform="translate(38.91 5.387)" fill="none" stroke="#000" stroke-miterlimit="10" stroke-width="2"/>
        <path id="Trazado_997622-2" data-name="Trazado 997622" d="M119,638.208a10.647,10.647,0,0,1,4.484-8.693" transform="translate(-102.867 -610.025)" fill="#fff006" stroke="#000" stroke-miterlimit="10" stroke-width="2"/>
        <line id="Línea_3238-2" data-name="Línea 3238" y2="8.634" transform="translate(26.797 33.258)" fill="none" stroke="#000" stroke-miterlimit="10" stroke-width="2"/>
        <path id="Trazado_997623-2" data-name="Trazado 997623" d="M133.157,647.74l2.669,3.47,3-3.47" transform="translate(-109.027 -617.951)" fill="#fff006" stroke="#000" stroke-miterlimit="10" stroke-width="2"/>
        <path id="Trazado_997624-2" data-name="Trazado 997624" d="M132.431,691.931a3.07,3.07,0,1,0,6.14,0" transform="translate(-108.711 -637.173)" fill="#fff006" stroke="#000" stroke-miterlimit="10" stroke-width="2"/>
      </g>
      <rect id="Rectángulo_459857-2" data-name="Rectángulo 459857" width="80" height="80" transform="translate(705.258 1688)" fill="#fff006"/>
    </g>
    <g id="Grupo_1212450" data-name="Grupo 1212450" transform="translate(716.278 420.906)">
      <g id="Grupo_1212449" data-name="Grupo 1212449" clip-path="url(#clip-path)">
        <path id="Trazado_1274329" data-name="Trazado 1274329" d="M23,50.826a4.977,4.977,0,0,1-4.978-4.92l-.043-10.185-5.226,3.447a2.753,2.753,0,0,1-2.88.143A2.7,2.7,0,0,1,8.389,36.95l-.015-3.63-3.542-.026A5.1,5.1,0,0,1,.013,27.872a9.942,9.942,0,0,1,.051-1.69.784.784,0,0,1,.961-.544.909.909,0,0,1,.7.927l.029,2.173A3.07,3.07,0,0,0,4.8,31.573l4.445.037a.837.837,0,0,1,.835.885l.008,4.467a1.049,1.049,0,0,0,.64.9,1.092,1.092,0,0,0,1.164-.135L18,33.671l.023-11.59-11.342-.01a.854.854,0,0,1-.753-.779.8.8,0,0,1,.734-.91l11.861-.026a4.8,4.8,0,0,1,4.067-2.773L38,17.528l0-12.438A3.344,3.344,0,0,0,34.83,1.674L4.967,1.693a3.217,3.217,0,0,0-3.226,3.1L1.7,23.073a.835.835,0,0,1-.89.818.84.84,0,0,1-.8-.935l0-17.889A4.909,4.909,0,0,1,4.633.057L35.049,0A5.046,5.046,0,0,1,39.7,5.088v12.44l13.213.044A4.919,4.919,0,0,1,57.7,22.394l0,23.351a5.041,5.041,0,0,1-4.745,5.079l-3.62.023,0,3.564a2.832,2.832,0,0,1-1.445,2.42,2.865,2.865,0,0,1-3.069-.2l-2.942-1.969a.858.858,0,0,1-.337-1.088.816.816,0,0,1,1.11-.4l3.124,2.047a1.1,1.1,0,0,0,1.183.194,1.085,1.085,0,0,0,.675-1.01V50.086a.91.91,0,0,1,.87-.947l4.172-.01a3.289,3.289,0,0,0,3.323-3.24l-.01-23.5a3.235,3.235,0,0,0-3.2-3.156l-29.828,0a3.248,3.248,0,0,0-3.225,3.159l-.026,23.347A3.313,3.313,0,0,0,23.1,49.132l13.463,0,3.491,2.3a.788.788,0,0,1,.19,1c-.182.316-.66.674-1.035.427l-3.07-2.021Z" transform="translate(0 -0.001)" fill="#12263f"/>
        <path id="Trazado_1274330" data-name="Trazado 1274330" d="M227.473,232.943l-7.729.041c-1.627.009-2.975-.967-2.918-2.61a2.483,2.483,0,0,1,3.06-2.341v-3.379a2.54,2.54,0,0,1-3.05-2.2,2.477,2.477,0,0,1,2.507-2.746l5.674,0a2.385,2.385,0,0,1,2.3,2.413l.026,5.864a2.481,2.481,0,1,1,.126,4.956M219.4,231.3l7.968-.008a.917.917,0,0,0,.814-.427.867.867,0,0,0-.08-.93c-.553-.569-2.429.13-2.438-.943l-.055-6.876a.74.74,0,0,0-.833-.72l-5.326-.012a.868.868,0,0,0-.91.65c-.075.345.084.886.495.9l1.689.063a.843.843,0,0,1,.855.833l.009,4.885a.947.947,0,0,1-1.013.964l-1.419.017a.732.732,0,0,0-.609.958.888.888,0,0,0,.852.645" transform="translate(-185.548 -188.017)" fill="#12263f"/>
        <path id="Trazado_1274331" data-name="Trazado 1274331" d="M66.121,58.875l-24.157,0a.866.866,0,0,1-.915-.778.808.808,0,0,1,.743-.921l24.6,0a.845.845,0,0,1,.57.912.927.927,0,0,1-.84.794" transform="translate(-35.125 -48.923)" fill="#12263f"/>
        <path id="Trazado_1274332" data-name="Trazado 1274332" d="M66.258,100.9l-24.3-.006a.877.877,0,0,1-.913-.779.8.8,0,0,1,.744-.914l24.187-.009c.541,0,.913.219.978.684a.932.932,0,0,1-.7,1.025" transform="translate(-35.121 -84.882)" fill="#12263f"/>
        <path id="Trazado_1274333" data-name="Trazado 1274333" d="M241.305,162.5a3.657,3.657,0,0,1,4.231,3.132,3.71,3.71,0,0,1-7.313,1.242,3.684,3.684,0,0,1,3.081-4.374m0,1.725a1.991,1.991,0,0,0-1.329,2.616,2.011,2.011,0,0,0,3.827-1.231,1.99,1.99,0,0,0-2.5-1.385" transform="translate(-203.804 -139.023)" fill="#12263f"/>
      </g>
    </g>
  </g>
</svg>
