<svg xmlns="http://www.w3.org/2000/svg" xmlns:xlink="http://www.w3.org/1999/xlink" width="96" height="96" viewBox="0 0 96 96">
  <defs>
    <clipPath id="clip-path">
      <rect id="Rectángulo_465402" data-name="Rectángulo 465402" width="61" height="57.158" fill="#12263f"/>
    </clipPath>
  </defs>
  <g id="Grupo_1211277" data-name="Grupo 1211277" transform="translate(-735.745 -9122)">
    <g id="Grupo_1188527" data-name="Grupo 1188527" transform="translate(-728.818 -89.375)">
      <g id="Grupo_1188526" data-name="Grupo 1188526">
        <path id="Trazado_1033015" data-name="Trazado 1033015" d="M96,47.778A48,48,0,1,1,48,0,47.889,47.889,0,0,1,96,47.778" transform="translate(1464.564 9211.818)" fill="#ebffe0"/>
        <path id="Trazado_1033017" data-name="Trazado 1033017" d="M374.691,757.713l-.2.008a.74.74,0,0,0,.2-.008" transform="translate(1131.201 8546.583)" fill="#ffe4b3"/>
        <path id="Trazado_1033018" data-name="Trazado 1033018" d="M342.621,99.876l-.041.008-.2.065Z" transform="translate(1158.943 9116.164)" fill="#ffe4b3"/>
        <path id="Trazado_1033019" data-name="Trazado 1033019" d="M80.427,94.229a41.8,41.8,0,0,1,3.407-5.117c1.022-1.43,2.127-2.505,3.131-3.67.537-.551,1.107-1.071,1.675-1.635l.874-.861.988-.831a42.841,42.841,0,0,1,4.961-3.764,41.965,41.965,0,0,1,13.287-5.271c2.094-.883,6.05-.794,8.661-1.11l1.013.241a10.76,10.76,0,0,1,2.869.112l-.062.048c1.352.041,2.866.258,3.531.345l-.065.044,1.614.3-.293.022c.584.083,1.175.16,1.758.273l1.713.445c.563.158,1.125.3,1.661.482l1.539.609-.086-.28c.528.23,1.016.432,1.475.614s.862.4,1.26.574c.789.36,1.5.656,2.2.952.67.348,1.328.692,2.036,1.091.352.2.724.405,1.1.655.365.267.748.556,1.154.877l-.078.015c.584.3,1.128.6,1.64.91.5.328.937.688,1.371,1.03s.841.692,1.24,1.036.737.747,1.1,1.116c1.459,1.488,2.808,3.078,4.708,5.018-.468-.49.081.3,0,.294l1.17,1.437c.378.466.69.941,1,1.325.6.777,1.085,1.276,1.291,1.172.965,1.557.633,1.359.611,1.646.155-.1,1.06,1.213,1.723,2.481-.123-.183-.23-.375-.366-.551.629,1.21,1.256,2.426,1.855,3.655.022-.3,0-.59.006-.887.8,2.036-.2.691.7,2.576l.282-.142a17.451,17.451,0,0,1,.66,1.962c.149.622.27,1.209.384,1.792s.232,1.161.334,1.775c.082.62.178,1.269.306,1.981a65.415,65.415,0,0,1,1.594,8.95,46.076,46.076,0,0,1-.056,9.144l-.122,1.132-.061.566-.114.554-.461,2.21a15.544,15.544,0,0,1-.611,2.151c-.235.7-.447,1.413-.7,2.1l-.917,1.986a15.794,15.794,0,0,1-.986,1.915,26.575,26.575,0,0,1-2.405,3.442l-.488.238c-.371-.042-1.515,2.672-2.094,2.736-.26.341-.5.7-.786,1.028-.306.207-.9.684-.493.186a15.244,15.244,0,0,0-1.439,1.5c-.362.233-.75.432-1.124.643-1.886,1.387-3.667,2.621-5.568,3.749a32.54,32.54,0,0,1-6.288,2.926,84.641,84.641,0,0,1-11.452,2.462,88.983,88.983,0,0,1-12.206.8,45.1,45.1,0,0,1-14.409-2.286,60.716,60.716,0,0,1-13.085-6.251,3.245,3.245,0,0,0-.941-.534c-.547-.444-1.073-.912-1.612-1.366l-.8-.684-.734-.756-1.464-1.513-1.305-1.648-.282-.351-.334-.414-.388-.593a30.9,30.9,0,0,1-2.157-3.593,19.02,19.02,0,0,1-1.14-2.368c-.33-.847-.729-1.693-1.031-2.571-.537-1.779-1.15-3.522-1.484-5.1-.737-3.134-1.067-5.386-1.434-4.806a9,9,0,0,0-.342,3.254,32.714,32.714,0,0,0,.235,3.691c.1.741.261,1.543.417,2.424l.257,1.376c.089.478.263.952.4,1.458l-.152-.184.594,1.688.284.79c.108.251.231.491.344.729.463.947.885,1.826,1.333,2.634a21.4,21.4,0,0,0,3.229,4.111,1.784,1.784,0,0,0,.4.825c.125.176.269.37.433.568l.571.57c.805.766,1.652,1.595,2.053,2.023l-.111-.044c1.3.842,2.4,1.97,3.665,2.881a19.571,19.571,0,0,0,1.875,1.371,18.278,18.278,0,0,0,1.994,1.056,1.437,1.437,0,0,1-.824-.28c.476.25.981.552,1.5.8l1.508.7a5.782,5.782,0,0,1,1.629.945,52.663,52.663,0,0,0,8.038,2.562,35.3,35.3,0,0,0,3.9.714,19.528,19.528,0,0,0,3.059.215l-.23.046c1.861-.034,2.378.217,4.442.228.11.043.254.072.23.085,2-.138,5.818.144,7.435-.04l.109.175c1.327-.056,2.653-.129,3.977-.254-.5.032-.992.051-1.489.064.476-.511,3.037.128,5.877-.6,2.716-.335,5.194-1.969,7.9-2.523,1.207-.6-1.012.7.839-.052.142.229-.842.433-.288.478,1.831-.715,3.164-.766,5.342-1.9l.173.141c2.745-1.622,5.5-2.536,7.062-4.051a11.272,11.272,0,0,1,2.334-1.51,6.512,6.512,0,0,0,2.206-1.86l1.162-.735c1.066-1.042.522-.972,1.707-2.111.073.2,1.45-1.5.96-.654a22.416,22.416,0,0,0,3.295-4.807l.715-1.4.664-1.49c.466-1.01,1.02-2.039,1.468-3.189a10.057,10.057,0,0,1,.5-2.224,8.237,8.237,0,0,0,.315-2.036,14.452,14.452,0,0,0,.561-2.093c.137-.854.25-1.355.229.04,0,.241-.115.649-.159.611l.122.361a7.593,7.593,0,0,0,.456-1.976c.082-.649.127-1.285.161-1.92a16.32,16.32,0,0,0,0-1.915c-.014-.646-.014-1.3.027-1.992-.1.815-.122,1.9-.229,1.168.022-.848.129-1.7.079-2.545l.188.528-.062-3.806-.183.538a14.58,14.58,0,0,0-.338-4.591c-.305-.907-.028,1.775-.375-.144-.183-1.216-.321-2.764-.647-4.361a42.437,42.437,0,0,0-1.2-4.783c-.126.352-.389-.456-.712-1.267l.157-.163c-.675-1.538-.754-1.834-.74-2.168-.006-.324-.006-.654-.744-2.155l.24.217c-.236-.219-.481-.431-.743-.635a5.9,5.9,0,0,1-1.04-2.11,5.285,5.285,0,0,0-1.329-2.239c.683,1.128-.082.747-.8-.692l.371.259a15.676,15.676,0,0,1-.958-1.511c.344.414.412.082-.359-1l.7.612-1.683-1.893a16.825,16.825,0,0,0-1.884-2.73c-.339-.437-.656-.847-.9-1.2a4.635,4.635,0,0,1-.547-.809s-.67-.8-1.451-1.67a10.827,10.827,0,0,0-1.245-1.2,5.941,5.941,0,0,0-.983-.726c.74.447-.892-1.2-.267-.908-.446-.326-1.367-.909-2.25-1.569-.443-.328-.882-.67-1.265-.992s-.751-.567-.984-.8l.217.116c-3.8-2.948-7.139-3.957-11.012-5.707.1.284-1.969-.613-1.542-.14-2.143-.493-4.016-1.2-5.637-1.553a12.427,12.427,0,0,0-2.157-.414,3.684,3.684,0,0,0-1.59.2c-1.971-.22-2.32-.46-3.349-.558L120,68.96l-2.376-.067c-.671,0-1.244.046-1.787.059-1.085.052-2.054.026-3.435.2a10.437,10.437,0,0,0-1.587.454,17.964,17.964,0,0,1-2.385.532c.753-.317-.233-.1-1.141.079.574-.138.745-.234-.477-.114-.157.085-.412.158-.642.259-.013-.01-.062-.007-.042-.031-1.478.474-1.2.452-.506.282-.028.035.038.05.263.037a24.548,24.548,0,0,0-2.782.662c-.9.288-1.609.567-1.753.457a35.975,35.975,0,0,0-10.14,5.994c-.441.135.207-.5,1.084-1.207l-2.188,1.655c-.116-.182,1.2-1.026,1.862-1.557a20.761,20.761,0,0,0-2.084,1.392c-.634.562-1.257,1.161-1.889,1.77-.653.589-1.238,1.265-1.861,1.931s-1.326,1.284-1.972,1.985l-.377.716-.167.156c.076.049-.374.78-.71,1.228-.484.3-.352-.321-1.44,1.221a13.658,13.658,0,0,0-1.677,2.391L78.264,92.33c.565-.883.486-.537.307-.124a19.579,19.579,0,0,0-1.119,1.89l-.268-.036c.192-.109-.035.463-.317,1.1a10.276,10.276,0,0,0-.585,1.559c-.38.413.421-1.4.439-1.656-.814,1.7-.957,2.147-1.158,2.572a28.127,28.127,0,0,0-1.045,2.615c-.511,1.944.351-.257.23.716-.606,1.652-.872,3.353-1.6,5.238l.4-.551c-.37,1.6-.562,2.9-.856,4.034-.241,1.149-.442,2.17-.741,3.245-.124,1.526-.078,2.893-.107,4.088.028,1.2.131,2.242.193,3.139a18.244,18.244,0,0,0,.314,2.278c.114.628.22,1.129.316,1.523.4,1.574.679,1.446.8.552a35.559,35.559,0,0,0,.3-3.815c.133-1.366.207-2.514.207-2.514a103.412,103.412,0,0,1,1.934-11.62l.71-2.76c.265-.942.6-1.9.928-2.918a47.962,47.962,0,0,1,2.887-6.659" transform="translate(1392.723 9142.481)" fill="#3a552a"/>
      </g>
    </g>
    <g id="Grupo_1212415" data-name="Grupo 1212415" transform="translate(755 9139)">
      <g id="Grupo_1212414" data-name="Grupo 1212414" clip-path="url(#clip-path)">
        <path id="Trazado_1274235" data-name="Trazado 1274235" d="M137.983,40.591l-5.427-8.168a2.325,2.325,0,0,0-2.113-.84l-2.829-4.249a4.863,4.863,0,0,1-.032-.537,2.68,2.68,0,0,0-.316-1.453,15.255,15.255,0,1,0-26.278-6.565,7.807,7.807,0,0,0-2.017,15.47,7.815,7.815,0,0,0,8.945-5.959,15.058,15.058,0,0,0,12.793,1.4,2.44,2.44,0,0,0,1.637,1.076l2.815,4.258a2.462,2.462,0,0,0-.057,2.329l5.642,8.418a2.48,2.48,0,0,0,2.083,1.077,2.8,2.8,0,0,0,1.554-.476l2.977-1.987a2.7,2.7,0,0,0,.623-3.794m-1.607,2.392-2.762,1.861a1.368,1.368,0,0,1-1,.234.836.836,0,0,1-.545-.36l-5.445-8.169a.4.4,0,0,1,.052-.589l3.885-2.59a.508.508,0,0,1,.279-.1.34.34,0,0,1,.068.007.679.679,0,0,1,.382.313l5.281,7.994a1,1,0,0,1-.2,1.4m-10.567-18.6c-.042.046-.083.088-.123.129a1.139,1.139,0,0,0-.366.572,1.7,1.7,0,0,0,.4,1.16c.176.277.3.493.223.547l-3.362,2.25c-.125.084-.368-.248-.564-.515-.262-.357-.554-.755-.908-.755a.507.507,0,0,0-.19.038,13.627,13.627,0,0,1-16.974-6.077,13.54,13.54,0,1,1,21.865,2.651m.56,4.25,2.523,3.8-2.277,1.522-2.583-3.758ZM99.04,25.347a1.188,1.188,0,0,1,.612-.721,1.4,1.4,0,0,1,1.088-.1,1.38,1.38,0,0,1,.789.737,1.328,1.328,0,0,1-2.4,1.136,1.4,1.4,0,0,1-.092-1.055m1.151,4.283a3.777,3.777,0,0,1,3.473,1.975,5.987,5.987,0,0,1-6.734.021,3.731,3.731,0,0,1,3.261-2m1.965-1.421a3.254,3.254,0,0,0,1.169-2.13,3,3,0,0,0-.764-2.33,3.047,3.047,0,0,0-4.593.065,2.973,2.973,0,0,0-.7,2.342,3.175,3.175,0,0,0,1.166,2.052,5.772,5.772,0,0,0-2.826,2.253,6.079,6.079,0,0,1-.575-7,6.172,6.172,0,0,1,5.3-3.007,6,6,0,0,1,1.2.12,15.6,15.6,0,0,0,4.826,6.638,6.03,6.03,0,0,1-1.381,3.243,5.822,5.822,0,0,0-2.824-2.246" transform="translate(-77.492 0)" fill="#12263f"/>
        <path id="Trazado_1274236" data-name="Trazado 1274236" d="M209.861,196.292a.916.916,0,0,0-.625-.209h0l-10.207.007a.8.8,0,0,0-.794.86v23.615a.88.88,0,0,0,.765.888l10.316.006.012,0a.845.845,0,0,0,.791-.89V196.943a.843.843,0,0,0-.256-.65m-9.927,1.506,8.472-.007.006,21.934-8.473.034Z" transform="translate(-166.101 -164.301)" fill="#12263f"/>
        <path id="Trazado_1274237" data-name="Trazado 1274237" d="M115.046,219.219h-10.2a.814.814,0,0,0-.829.836l0,19.907a.888.888,0,0,0,.807.878l10.315,0,.021-.006a.913.913,0,0,0,.738-.87V220.04a.837.837,0,0,0-.848-.821m-.845,19.886-8.462.046-.009-18.245,8.467-.008Z" transform="translate(-87.154 -183.687)" fill="#12263f"/>
        <path id="Trazado_1274238" data-name="Trazado 1274238" d="M10.731,155.175a6.928,6.928,0,0,0-5.246-1.007,6.724,6.724,0,0,0-4.37,2.95,7,7,0,0,0-.943,5.335,6.9,6.9,0,0,0,6.688,5.361,6.691,6.691,0,0,0,1.36-.14,6.912,6.912,0,0,0,2.511-12.5M9.643,165.231a5.036,5.036,0,0,1-5.513.052A3.042,3.042,0,0,1,6.777,163.7a3.127,3.127,0,0,1,2.866,1.536m-3.724-5.388a.86.86,0,0,1,.468-.519,1.277,1.277,0,0,1,.525-.12,1.017,1.017,0,0,1,.469,1.919,1,1,0,0,1-1.392-.389,1.177,1.177,0,0,1-.071-.891m3.713.645a2.766,2.766,0,0,0-4.763-2.15,2.718,2.718,0,0,0-.74,2.076,2.861,2.861,0,0,0,.926,1.885A5.255,5.255,0,0,0,2.83,164.09a5.167,5.167,0,1,1,8.119,0,5.289,5.289,0,0,0-2.268-1.793,2.807,2.807,0,0,0,.951-1.805" transform="translate(0 -129.061)" fill="#12263f"/>
        <path id="Trazado_1274239" data-name="Trazado 1274239" d="M20.894,248.208h-10.2a.859.859,0,0,0-.859.813l0,15.233a.821.821,0,0,0,.859.874l10.287.005.024-.007a.882.882,0,0,0,.718-.876l0-15.207a.811.811,0,0,0-.824-.834m-9.368,1.687,8.466,0L20,263.409l-8.475.03Z" transform="translate(-8.239 -207.976)" fill="#12263f"/>
        <path id="Trazado_1274240" data-name="Trazado 1274240" d="M187.148,29.011a10.879,10.879,0,1,0,4.388,7.047,10.856,10.856,0,0,0-4.388-7.047m-8.417,6.632a2.247,2.247,0,0,1,1.413-1.109,2.514,2.514,0,0,1,.667-.092,2.227,2.227,0,0,1,2.17,1.672,2.312,2.312,0,0,1-1.577,2.846,2.321,2.321,0,0,1-2.673-3.317m1.957,6.266h.05A5.932,5.932,0,0,1,186.13,45.3a9.073,9.073,0,0,1-10.714.025,5.837,5.837,0,0,1,5.272-3.419m4.053-5.844a4.079,4.079,0,0,0-3.894-3.351h-.07a4.03,4.03,0,0,0-1.747,7.655,7.784,7.784,0,0,0-4.946,3.808,9.2,9.2,0,1,1,13.38-.012,7.883,7.883,0,0,0-4.925-3.8,4.117,4.117,0,0,0,2.2-4.3" transform="translate(-142.332 -22.594)" fill="#12263f"/>
      </g>
    </g>
  </g>
</svg>
