<svg xmlns="http://www.w3.org/2000/svg" xmlns:xlink="http://www.w3.org/1999/xlink" width="96" height="96" viewBox="0 0 96 96">
  <defs>
    <clipPath id="clip-path">
      <rect id="Rectángulo_465403" data-name="Rectángulo 465403" width="53.459" height="53.497" fill="#12263f"/>
    </clipPath>
  </defs>
  <g id="Grupo_1211278" data-name="Grupo 1211278" transform="translate(-735.745 -9122)">
    <g id="Grupo_1188527" data-name="Grupo 1188527" transform="translate(-728.818 -89.375)">
      <g id="Grupo_1188526" data-name="Grupo 1188526">
        <path id="Trazado_1033015" data-name="Trazado 1033015" d="M96,47.778A48,48,0,1,1,48,0,47.889,47.889,0,0,1,96,47.778" transform="translate(1464.564 9211.818)" fill="#ebffe0"/>
        <path id="Trazado_1033017" data-name="Trazado 1033017" d="M374.691,757.713l-.2.008a.74.74,0,0,0,.2-.008" transform="translate(1131.201 8546.583)" fill="#ffe4b3"/>
        <path id="Trazado_1033018" data-name="Trazado 1033018" d="M342.621,99.876l-.041.008-.2.065Z" transform="translate(1158.943 9116.164)" fill="#ffe4b3"/>
        <path id="Trazado_1033019" data-name="Trazado 1033019" d="M80.427,94.229a41.8,41.8,0,0,1,3.407-5.117c1.022-1.43,2.127-2.505,3.131-3.67.537-.551,1.107-1.071,1.675-1.635l.874-.861.988-.831a42.841,42.841,0,0,1,4.961-3.764,41.965,41.965,0,0,1,13.287-5.271c2.094-.883,6.05-.794,8.661-1.11l1.013.241a10.76,10.76,0,0,1,2.869.112l-.062.048c1.352.041,2.866.258,3.531.345l-.065.044,1.614.3-.293.022c.584.083,1.175.16,1.758.273l1.713.445c.563.158,1.125.3,1.661.482l1.539.609-.086-.28c.528.23,1.016.432,1.475.614s.862.4,1.26.574c.789.36,1.5.656,2.2.952.67.348,1.328.692,2.036,1.091.352.2.724.405,1.1.655.365.267.748.556,1.154.877l-.078.015c.584.3,1.128.6,1.64.91.5.328.937.688,1.371,1.03s.841.692,1.24,1.036.737.747,1.1,1.116c1.459,1.488,2.808,3.078,4.708,5.018-.468-.49.081.3,0,.294l1.17,1.437c.378.466.69.941,1,1.325.6.777,1.085,1.276,1.291,1.172.965,1.557.633,1.359.611,1.646.155-.1,1.06,1.213,1.723,2.481-.123-.183-.23-.375-.366-.551.629,1.21,1.256,2.426,1.855,3.655.022-.3,0-.59.006-.887.8,2.036-.2.691.7,2.576l.282-.142a17.451,17.451,0,0,1,.66,1.962c.149.622.27,1.209.384,1.792s.232,1.161.334,1.775c.082.62.178,1.269.306,1.981a65.415,65.415,0,0,1,1.594,8.95,46.076,46.076,0,0,1-.056,9.144l-.122,1.132-.061.566-.114.554-.461,2.21a15.544,15.544,0,0,1-.611,2.151c-.235.7-.447,1.413-.7,2.1l-.917,1.986a15.794,15.794,0,0,1-.986,1.915,26.575,26.575,0,0,1-2.405,3.442l-.488.238c-.371-.042-1.515,2.672-2.094,2.736-.26.341-.5.7-.786,1.028-.306.207-.9.684-.493.186a15.244,15.244,0,0,0-1.439,1.5c-.362.233-.75.432-1.124.643-1.886,1.387-3.667,2.621-5.568,3.749a32.54,32.54,0,0,1-6.288,2.926,84.641,84.641,0,0,1-11.452,2.462,88.983,88.983,0,0,1-12.206.8,45.1,45.1,0,0,1-14.409-2.286,60.716,60.716,0,0,1-13.085-6.251,3.245,3.245,0,0,0-.941-.534c-.547-.444-1.073-.912-1.612-1.366l-.8-.684-.734-.756-1.464-1.513-1.305-1.648-.282-.351-.334-.414-.388-.593a30.9,30.9,0,0,1-2.157-3.593,19.02,19.02,0,0,1-1.14-2.368c-.33-.847-.729-1.693-1.031-2.571-.537-1.779-1.15-3.522-1.484-5.1-.737-3.134-1.067-5.386-1.434-4.806a9,9,0,0,0-.342,3.254,32.714,32.714,0,0,0,.235,3.691c.1.741.261,1.543.417,2.424l.257,1.376c.089.478.263.952.4,1.458l-.152-.184.594,1.688.284.79c.108.251.231.491.344.729.463.947.885,1.826,1.333,2.634a21.4,21.4,0,0,0,3.229,4.111,1.784,1.784,0,0,0,.4.825c.125.176.269.37.433.568l.571.57c.805.766,1.652,1.595,2.053,2.023l-.111-.044c1.3.842,2.4,1.97,3.665,2.881a19.571,19.571,0,0,0,1.875,1.371,18.278,18.278,0,0,0,1.994,1.056,1.437,1.437,0,0,1-.824-.28c.476.25.981.552,1.5.8l1.508.7a5.782,5.782,0,0,1,1.629.945,52.663,52.663,0,0,0,8.038,2.562,35.3,35.3,0,0,0,3.9.714,19.528,19.528,0,0,0,3.059.215l-.23.046c1.861-.034,2.378.217,4.442.228.11.043.254.072.23.085,2-.138,5.818.144,7.435-.04l.109.175c1.327-.056,2.653-.129,3.977-.254-.5.032-.992.051-1.489.064.476-.511,3.037.128,5.877-.6,2.716-.335,5.194-1.969,7.9-2.523,1.207-.6-1.012.7.839-.052.142.229-.842.433-.288.478,1.831-.715,3.164-.766,5.342-1.9l.173.141c2.745-1.622,5.5-2.536,7.062-4.051a11.272,11.272,0,0,1,2.334-1.51,6.512,6.512,0,0,0,2.206-1.86l1.162-.735c1.066-1.042.522-.972,1.707-2.111.073.2,1.45-1.5.96-.654a22.416,22.416,0,0,0,3.295-4.807l.715-1.4.664-1.49c.466-1.01,1.02-2.039,1.468-3.189a10.057,10.057,0,0,1,.5-2.224,8.237,8.237,0,0,0,.315-2.036,14.452,14.452,0,0,0,.561-2.093c.137-.854.25-1.355.229.04,0,.241-.115.649-.159.611l.122.361a7.593,7.593,0,0,0,.456-1.976c.082-.649.127-1.285.161-1.92a16.32,16.32,0,0,0,0-1.915c-.014-.646-.014-1.3.027-1.992-.1.815-.122,1.9-.229,1.168.022-.848.129-1.7.079-2.545l.188.528-.062-3.806-.183.538a14.58,14.58,0,0,0-.338-4.591c-.305-.907-.028,1.775-.375-.144-.183-1.216-.321-2.764-.647-4.361a42.437,42.437,0,0,0-1.2-4.783c-.126.352-.389-.456-.712-1.267l.157-.163c-.675-1.538-.754-1.834-.74-2.168-.006-.324-.006-.654-.744-2.155l.24.217c-.236-.219-.481-.431-.743-.635a5.9,5.9,0,0,1-1.04-2.11,5.285,5.285,0,0,0-1.329-2.239c.683,1.128-.082.747-.8-.692l.371.259a15.676,15.676,0,0,1-.958-1.511c.344.414.412.082-.359-1l.7.612-1.683-1.893a16.825,16.825,0,0,0-1.884-2.73c-.339-.437-.656-.847-.9-1.2a4.635,4.635,0,0,1-.547-.809s-.67-.8-1.451-1.67a10.827,10.827,0,0,0-1.245-1.2,5.941,5.941,0,0,0-.983-.726c.74.447-.892-1.2-.267-.908-.446-.326-1.367-.909-2.25-1.569-.443-.328-.882-.67-1.265-.992s-.751-.567-.984-.8l.217.116c-3.8-2.948-7.139-3.957-11.012-5.707.1.284-1.969-.613-1.542-.14-2.143-.493-4.016-1.2-5.637-1.553a12.427,12.427,0,0,0-2.157-.414,3.684,3.684,0,0,0-1.59.2c-1.971-.22-2.32-.46-3.349-.558L120,68.96l-2.376-.067c-.671,0-1.244.046-1.787.059-1.085.052-2.054.026-3.435.2a10.437,10.437,0,0,0-1.587.454,17.964,17.964,0,0,1-2.385.532c.753-.317-.233-.1-1.141.079.574-.138.745-.234-.477-.114-.157.085-.412.158-.642.259-.013-.01-.062-.007-.042-.031-1.478.474-1.2.452-.506.282-.028.035.038.05.263.037a24.548,24.548,0,0,0-2.782.662c-.9.288-1.609.567-1.753.457a35.975,35.975,0,0,0-10.14,5.994c-.441.135.207-.5,1.084-1.207l-2.188,1.655c-.116-.182,1.2-1.026,1.862-1.557a20.761,20.761,0,0,0-2.084,1.392c-.634.562-1.257,1.161-1.889,1.77-.653.589-1.238,1.265-1.861,1.931s-1.326,1.284-1.972,1.985l-.377.716-.167.156c.076.049-.374.78-.71,1.228-.484.3-.352-.321-1.44,1.221a13.658,13.658,0,0,0-1.677,2.391L78.264,92.33c.565-.883.486-.537.307-.124a19.579,19.579,0,0,0-1.119,1.89l-.268-.036c.192-.109-.035.463-.317,1.1a10.276,10.276,0,0,0-.585,1.559c-.38.413.421-1.4.439-1.656-.814,1.7-.957,2.147-1.158,2.572a28.127,28.127,0,0,0-1.045,2.615c-.511,1.944.351-.257.23.716-.606,1.652-.872,3.353-1.6,5.238l.4-.551c-.37,1.6-.562,2.9-.856,4.034-.241,1.149-.442,2.17-.741,3.245-.124,1.526-.078,2.893-.107,4.088.028,1.2.131,2.242.193,3.139a18.244,18.244,0,0,0,.314,2.278c.114.628.22,1.129.316,1.523.4,1.574.679,1.446.8.552a35.559,35.559,0,0,0,.3-3.815c.133-1.366.207-2.514.207-2.514a103.412,103.412,0,0,1,1.934-11.62l.71-2.76c.265-.942.6-1.9.928-2.918a47.962,47.962,0,0,1,2.887-6.659" transform="translate(1392.723 9142.481)" fill="#3a552a"/>
      </g>
    </g>
    <g id="Grupo_1212417" data-name="Grupo 1212417" transform="translate(757.516 9142)">
      <g id="Grupo_1212416" data-name="Grupo 1212416" clip-path="url(#clip-path)">
        <path id="Trazado_1274241" data-name="Trazado 1274241" d="M71.17,34.131c-1.87.207-4.455.882-4.457-.456l0-4.9a3.419,3.419,0,0,1-.025-6.623l.008-4.095H61.941a.776.776,0,0,1-.828-.77,1.859,1.859,0,0,0-1.756-1.831,1.83,1.83,0,0,0-1.863,1.859.8.8,0,0,1-.864.746H51.16a.846.846,0,0,1-.892-.837,17.247,17.247,0,1,1,34.153,3.438A11.711,11.711,0,0,1,92.1,39.269l.827,1.5A2.133,2.133,0,0,1,92.5,43.2l3.356,5.849a2.878,2.878,0,0,1-.752,3.9,2.72,2.72,0,0,1-3.871-.6l-3.722-6.27a1.9,1.9,0,0,1-2.387-.622l-.952-1.612A11.717,11.717,0,0,1,71.17,34.131m-4.427-22.7c0-.414.494-.6.778-.616a1.786,1.786,0,0,0,1.77-1.69A1.664,1.664,0,0,0,67.823,7.3c-.454-.046-1.085-.242-1.09-.8l-.044-4.865a15.629,15.629,0,0,0-14.778,14.8L56,16.423a3.386,3.386,0,0,1,3.345-2.586,3.453,3.453,0,0,1,3.291,2.6l4.054,0Zm7.217,5.927a1.818,1.818,0,0,0,1.917,1.661,1.865,1.865,0,0,0,1.671-1.855.742.742,0,0,1,.772-.726l4.806-.029a15.609,15.609,0,0,0-14.81-14.77l.021,4.088a3.36,3.36,0,0,1,2.574,3.4,3.4,3.4,0,0,1-2.589,3.2v4.106l4.823,0c.539,0,.773.364.816.92m-2.92,15.077a11.671,11.671,0,0,1,11.771-11.9l.312-2.479-4.065.009a3.419,3.419,0,0,1-6.629-.006l-4.1,0-.017,4.865a.768.768,0,0,1-.763.75,1.744,1.744,0,0,0-1.794,1.838,1.785,1.785,0,0,0,1.767,1.743.823.823,0,0,1,.805.832l0,4.742a9.147,9.147,0,0,0,2.715-.4M81.113,22.285a10.088,10.088,0,1,0,11.579,8.321,10.057,10.057,0,0,0-11.579-8.321M86.658,44.7,91.6,41.821a5.1,5.1,0,0,0-.66-1.225,11.666,11.666,0,0,1-5.067,2.894,2.572,2.572,0,0,0,.783,1.21m5.888,6.706a1.2,1.2,0,0,0,1.691.213,1.222,1.222,0,0,0,.321-1.554L91.073,44.01l-2.139,1.244Z" transform="translate(-42.85 0.001)" fill="#12263f"/>
        <path id="Trazado_1274242" data-name="Trazado 1274242" d="M12.919,160.5l.008,1.776a1.621,1.621,0,0,1-1.663,1.613l-8.7,0a1.547,1.547,0,0,1-1.578-1.474L1,160.385a1.5,1.5,0,0,1,1.687-1.378A14.016,14.016,0,0,0,1.6,152.472c-1.394-3.73-2.474-8.177-.587-11.742a19.7,19.7,0,0,1-.255-5.619c.061-.592.277-1,.932-1l4.976-.005a3.514,3.514,0,0,1,6.826,0l5.129.018a.786.786,0,0,1,.765.838l-.041,5.885c0,.558-.715.694-1.151.742a1.77,1.77,0,0,0-1.489,1.995,1.861,1.861,0,0,0,1.807,1.678.862.862,0,0,1,.871.914l0,5.617a.812.812,0,0,1-.617.848,18.8,18.8,0,0,1-6.105-.041c.985,2.465-.3,4-1.026,6.336.7.311,1.284.76,1.288,1.559m1.1-13.97a22.443,22.443,0,0,1-1.845,4.293,16.191,16.191,0,0,0,5.584.357l0-4.387a3.472,3.472,0,0,1-2.677-3.484,3.559,3.559,0,0,1,2.676-3.329l0-4.261-5.013-.006a.749.749,0,0,1-.78-.721,1.881,1.881,0,0,0-1.955-1.94,1.828,1.828,0,0,0-1.805,1.919.81.81,0,0,1-.778.744l-5.1.021C2,140.593,3.4,145.112,7.154,148.314c1.248-2.695,4.184-6.018,6.357-3.985a2.232,2.232,0,0,1,.507,2.2m-1.821-1.2c-.906-.193-2.161,1.33-2.887,2.438a10.409,10.409,0,0,0-1.733,4.6.839.839,0,0,1-.943.749.8.8,0,0,1-.667-.884l.428-2.355c.048-.264-.457-.435-.613-.575a16.612,16.612,0,0,1-4.043-5.836,11.236,11.236,0,0,0,.18,4.376c.792,3.956,2.821,6.9,2.393,11.134l5.706-.111a16.169,16.169,0,0,1,.966-2.78,4.034,4.034,0,0,0-.015-3.416,2.857,2.857,0,0,1-.04-3c.713-1.385,2.162-4.152,1.268-4.342m-.919,16.939,0-1.663-8.693.013v1.65Z" transform="translate(0 -112.038)" fill="#12263f"/>
        <path id="Trazado_1274243" data-name="Trazado 1274243" d="M201.441,63.512l-1.219-2.085a.794.794,0,0,1,1.312-.881l.688,1.153,2.467-2.474a.8.8,0,0,1,1.094-.184c.314.211.591.712.239,1.07l-3.367,3.424a.742.742,0,0,1-1.214-.024" transform="translate(-170.596 -50.208)" fill="#12263f"/>
        <path id="Trazado_1274244" data-name="Trazado 1274244" d="M114.056,51.733a.8.8,0,0,1-1.245,1.016l-1.057-1.054-1.241,1.2c-.335.325-.849.081-1.063-.239-.553-.825.518-1.231,1.124-2.121l-1.011-1.032a.83.83,0,0,1-.076-1.113.816.816,0,0,1,1.152-.1l1.144,1.1,1.094-1.078a.815.815,0,0,1,1.152.039.873.873,0,0,1-.1,1.162l-.984,1Z" transform="translate(-93.169 -41.002)" fill="#12263f"/>
        <path id="Trazado_1274245" data-name="Trazado 1274245" d="M217.594,157.79a8.968,8.968,0,1,1-8.038,9.912,8.949,8.949,0,0,1,8.038-9.912m0,1.623a7.351,7.351,0,1,0,8.171,6.419,7.322,7.322,0,0,0-8.171-6.419" transform="translate(-178.586 -134.468)" fill="#12263f"/>
        <path id="Trazado_1274246" data-name="Trazado 1274246" d="M253.829,194.748a2.66,2.66,0,0,1,1.579-2.728,1.824,1.824,0,0,0,1.034-2.3,1.273,1.273,0,0,0-1.346-.758c-1.611.1-1.068,1.5-1.716,1.88-.316.185-.978.151-1.1-.292a2.529,2.529,0,0,1,1.745-3,3.481,3.481,0,0,1,2.278-.011,2.707,2.707,0,0,1,1.858,2.771c-.027,3.2-2.876,2.673-2.705,4.419a.8.8,0,0,1-.8.93c-.549.016-.789-.349-.825-.917" transform="translate(-214.979 -159.711)" fill="#12263f"/>
        <path id="Trazado_1274247" data-name="Trazado 1274247" d="M265.164,246.089c.036.675-.161,1.066-.71,1.135-.512.065-.9-.3-.925-.908a.9.9,0,0,1,.654-1.026.79.79,0,0,1,.981.8" transform="translate(-224.641 -209.083)" fill="#12263f"/>
      </g>
    </g>
  </g>
</svg>
