<svg xmlns="http://www.w3.org/2000/svg" xmlns:xlink="http://www.w3.org/1999/xlink" width="84" height="84" viewBox="0 0 84 84">
  <defs>
    <clipPath id="clip-path">
      <rect id="Rectángulo_465322" data-name="Rectángulo 465322" width="55.229" height="62.567" fill="#12263f"/>
    </clipPath>
  </defs>
  <g id="Grupo_1211024" data-name="Grupo 1211024" transform="translate(-705.629 -410)">
    <g id="Grupo_1188476" data-name="Grupo 1188476" transform="translate(2.841 -1273.207)">
      <g id="Grupo_1185067" data-name="Grupo 1185067" transform="translate(719.227 1696)">
        <path id="Trazado_997620" data-name="Trazado 997620" d="M133.124,646.71a15.477,15.477,0,1,0-14.332-.01" transform="translate(-99.168 -604.804)" fill="#3a552a" stroke="#000" stroke-miterlimit="10" stroke-width="2"/>
        <rect id="Rectángulo_454823" data-name="Rectángulo 454823" width="14.333" height="4.288" transform="translate(19.625 41.893)" fill="#3a552a" stroke="#000" stroke-miterlimit="10" stroke-width="2"/>
        <rect id="Rectángulo_454824" data-name="Rectángulo 454824" width="14.333" height="4.288" transform="translate(19.625 46.181)" fill="#3a552a" stroke="#000" stroke-miterlimit="10" stroke-width="2"/>
        <path id="Trazado_997621" data-name="Trazado 997621" d="M135.492,688.628h-6.283a4.025,4.025,0,0,1-4.025-4.025v-.263h14.333v.263A4.025,4.025,0,0,1,135.492,688.628Z" transform="translate(-105.559 -633.871)" fill="#3a552a" stroke="#000" stroke-miterlimit="10" stroke-width="2"/>
        <line id="Línea_3231" data-name="Línea 3231" y1="7.578" transform="translate(26.797)" fill="none" stroke="#000" stroke-miterlimit="10" stroke-width="2"/>
        <line id="Línea_3232" data-name="Línea 3232" x1="4.454" y1="6.13" transform="translate(10.236 5.387)" fill="none" stroke="#000" stroke-miterlimit="10" stroke-width="2"/>
        <line id="Línea_3233" data-name="Línea 3233" x1="7.2" y1="2.336" transform="translate(0 19.477)" fill="none" stroke="#000" stroke-miterlimit="10" stroke-width="2"/>
        <line id="Línea_3234" data-name="Línea 3234" x1="7.2" y2="2.341" transform="translate(0 34.55)" fill="none" stroke="#000" stroke-miterlimit="10" stroke-width="2"/>
        <line id="Línea_3235" data-name="Línea 3235" x1="7.2" y1="2.341" transform="translate(46.398 34.55)" fill="none" stroke="#000" stroke-miterlimit="10" stroke-width="2"/>
        <line id="Línea_3236" data-name="Línea 3236" x1="7.2" y2="2.336" transform="translate(46.398 19.477)" fill="none" stroke="#000" stroke-miterlimit="10" stroke-width="2"/>
        <line id="Línea_3237" data-name="Línea 3237" x1="4.454" y2="6.125" transform="translate(38.91 5.387)" fill="none" stroke="#000" stroke-miterlimit="10" stroke-width="2"/>
        <path id="Trazado_997622" data-name="Trazado 997622" d="M119,638.208a10.647,10.647,0,0,1,4.484-8.693" transform="translate(-102.867 -610.025)" fill="#3a552a" stroke="#000" stroke-miterlimit="10" stroke-width="2"/>
        <line id="Línea_3238" data-name="Línea 3238" y2="8.634" transform="translate(26.797 33.258)" fill="none" stroke="#000" stroke-miterlimit="10" stroke-width="2"/>
        <path id="Trazado_997623" data-name="Trazado 997623" d="M133.157,647.74l2.669,3.47,3-3.47" transform="translate(-109.027 -617.951)" fill="#3a552a" stroke="#000" stroke-miterlimit="10" stroke-width="2"/>
        <path id="Trazado_997624" data-name="Trazado 997624" d="M132.431,691.931a3.07,3.07,0,1,0,6.14,0" transform="translate(-108.711 -637.173)" fill="#3a552a" stroke="#000" stroke-miterlimit="10" stroke-width="2"/>
      </g>
      <rect id="Rectángulo_459857" data-name="Rectángulo 459857" width="81" height="79" transform="translate(705.788 1688.207)" fill="#3a552a"/>
    </g>
    <g id="Grupo_1188599" data-name="Grupo 1188599" transform="translate(0.371 -1278)">
      <g id="Grupo_1185067-2" data-name="Grupo 1185067" transform="translate(718.472 1696)">
        <path id="Trazado_997620-2" data-name="Trazado 997620" d="M133.124,646.71a15.477,15.477,0,1,0-14.332-.01" transform="translate(-99.168 -604.804)" fill="#fff006" stroke="#000" stroke-miterlimit="10" stroke-width="2"/>
        <rect id="Rectángulo_454823-2" data-name="Rectángulo 454823" width="14.333" height="4.288" transform="translate(19.625 41.893)" fill="#fff006" stroke="#000" stroke-miterlimit="10" stroke-width="2"/>
        <rect id="Rectángulo_454824-2" data-name="Rectángulo 454824" width="14.333" height="4.288" transform="translate(19.625 46.181)" fill="#fff006" stroke="#000" stroke-miterlimit="10" stroke-width="2"/>
        <path id="Trazado_997621-2" data-name="Trazado 997621" d="M135.492,688.628h-6.283a4.025,4.025,0,0,1-4.025-4.025v-.263h14.333v.263A4.025,4.025,0,0,1,135.492,688.628Z" transform="translate(-105.559 -633.871)" fill="#fff006" stroke="#000" stroke-miterlimit="10" stroke-width="2"/>
        <line id="Línea_3231-2" data-name="Línea 3231" y1="7.578" transform="translate(26.797)" fill="none" stroke="#000" stroke-miterlimit="10" stroke-width="2"/>
        <line id="Línea_3232-2" data-name="Línea 3232" x1="4.454" y1="6.13" transform="translate(10.236 5.387)" fill="none" stroke="#000" stroke-miterlimit="10" stroke-width="2"/>
        <line id="Línea_3233-2" data-name="Línea 3233" x1="7.2" y1="2.336" transform="translate(0 19.477)" fill="none" stroke="#000" stroke-miterlimit="10" stroke-width="2"/>
        <line id="Línea_3234-2" data-name="Línea 3234" x1="7.2" y2="2.341" transform="translate(0 34.55)" fill="none" stroke="#000" stroke-miterlimit="10" stroke-width="2"/>
        <line id="Línea_3235-2" data-name="Línea 3235" x1="7.2" y1="2.341" transform="translate(46.398 34.55)" fill="none" stroke="#000" stroke-miterlimit="10" stroke-width="2"/>
        <line id="Línea_3236-2" data-name="Línea 3236" x1="7.2" y2="2.336" transform="translate(46.398 19.477)" fill="none" stroke="#000" stroke-miterlimit="10" stroke-width="2"/>
        <line id="Línea_3237-2" data-name="Línea 3237" x1="4.454" y2="6.125" transform="translate(38.91 5.387)" fill="none" stroke="#000" stroke-miterlimit="10" stroke-width="2"/>
        <path id="Trazado_997622-2" data-name="Trazado 997622" d="M119,638.208a10.647,10.647,0,0,1,4.484-8.693" transform="translate(-102.867 -610.025)" fill="#fff006" stroke="#000" stroke-miterlimit="10" stroke-width="2"/>
        <line id="Línea_3238-2" data-name="Línea 3238" y2="8.634" transform="translate(26.797 33.258)" fill="none" stroke="#000" stroke-miterlimit="10" stroke-width="2"/>
        <path id="Trazado_997623-2" data-name="Trazado 997623" d="M133.157,647.74l2.669,3.47,3-3.47" transform="translate(-109.027 -617.951)" fill="#fff006" stroke="#000" stroke-miterlimit="10" stroke-width="2"/>
        <path id="Trazado_997624-2" data-name="Trazado 997624" d="M132.431,691.931a3.07,3.07,0,1,0,6.14,0" transform="translate(-108.711 -637.173)" fill="#fff006" stroke="#000" stroke-miterlimit="10" stroke-width="2"/>
      </g>
      <rect id="Rectángulo_459857-2" data-name="Rectángulo 459857" width="80" height="80" transform="translate(705.258 1688)" fill="#fff006"/>
    </g>
    <g id="Grupo_1212250" data-name="Grupo 1212250" transform="translate(718.014 418.717)">
      <g id="Grupo_1212249" data-name="Grupo 1212249" clip-path="url(#clip-path)">
        <path id="Trazado_1273643" data-name="Trazado 1273643" d="M28.525,54.765a3.96,3.96,0,1,1-1.844.006l-.012-2.345-1.893-.167a3.014,3.014,0,0,1-2.521-3.543,1.764,1.764,0,0,0-1.105-1.995,15.461,15.461,0,0,1-3.715-2.151,1.777,1.777,0,0,0-2.189.062,3.091,3.091,0,0,1-4.446-.5l-1.01-1.462-2.054,1.2A3.945,3.945,0,0,1,.569,47a3.967,3.967,0,0,1,.92-5.143,3.912,3.912,0,0,1,5.266.346l2.073-1.126-.647-1.4a3.131,3.131,0,0,1,1.616-4.311c.606-.271,1.345-.911,1.235-1.655a19.994,19.994,0,0,1-.006-5.023c.064-.653-.715-1.25-1.233-1.491a3.093,3.093,0,0,1-1.873-3.517,8.885,8.885,0,0,1,.929-2.131L6.812,20.326a3.9,3.9,0,0,1-5.229.452A3.946,3.946,0,0,1,5.45,13.968a3.978,3.978,0,0,1,2.281,4.794c.807.362,1.386.775,2.052,1.136a11.222,11.222,0,0,1,1.262-1.739,3.23,3.23,0,0,1,4.3-.166,1.616,1.616,0,0,0,1.982.062,17.078,17.078,0,0,1,3.8-2.211,1.755,1.755,0,0,0,1.113-2,3.123,3.123,0,0,1,1.737-3.276,7.94,7.94,0,0,1,2.68-.4l.019-2.383A3.946,3.946,0,0,1,27.525,0a3.983,3.983,0,0,1,4.018,3.424,4,4,0,0,1-2.994,4.369l.021,2.371a7.98,7.98,0,0,1,2.673.4,3.2,3.2,0,0,1,1.736,3.453,1.642,1.642,0,0,0,.988,1.767A17.433,17.433,0,0,1,37.9,18.057a1.624,1.624,0,0,0,1.98-.065,3.265,3.265,0,0,1,4.217.079L45.45,19.9,47.5,18.763a3.954,3.954,0,1,1,6.242,1.943,3.847,3.847,0,0,1-5.262-.355L46.4,21.48l.649,1.407A3.14,3.14,0,0,1,45.438,27.2c-.618.273-1.337.9-1.236,1.658a17.86,17.86,0,0,1,0,4.853c-.1.768.617,1.369,1.24,1.658a3.1,3.1,0,0,1,1.87,3.513,8.762,8.762,0,0,1-.93,2.139l2.042,1.207a3.951,3.951,0,0,1,6.3,4.672,3.941,3.941,0,0,1-7.22-3.028l-2.059-1.208-.857,1.273a3.143,3.143,0,0,1-4.6.691,1.744,1.744,0,0,0-2.078-.119,22.356,22.356,0,0,1-4.266,2.474c-.589.274-.712,1.113-.653,1.717a3.063,3.063,0,0,1-2.676,3.588l-1.752.141ZM26.913,2.028a2.007,2.007,0,0,0-1.192,2.74A2.067,2.067,0,0,0,29.581,3.3a2.04,2.04,0,0,0-2.668-1.273m3.294,48.333a1.227,1.227,0,0,0,.9-1.459,3.64,3.64,0,0,1,2.273-3.926,13.3,13.3,0,0,0,3.17-1.829,3.585,3.585,0,0,1,4.49-.069c.452.33,1.3.565,1.726.075,1.132-1.313,3.079-4.46,2.632-5.384-.423-.875-3.507-1.428-3.046-4.554a15.043,15.043,0,0,0-.01-4.021c-.363-3.022,2.646-3.512,3.057-4.4.431-.935-1.519-4.108-2.635-5.379-.467-.532-1.34-.212-1.819.135a3.375,3.375,0,0,1-4.081.069,17.059,17.059,0,0,0-3.484-2.024,3.631,3.631,0,0,1-2.261-3.921,1.266,1.266,0,0,0-1.109-1.518,18.381,18.381,0,0,0-4.921.034,1.228,1.228,0,0,0-.957,1.477,3.652,3.652,0,0,1-2.272,3.927,15.476,15.476,0,0,0-3.378,1.959,3.384,3.384,0,0,1-4.178-.01c-.413-.3-1.3-.666-1.739-.2-1.166,1.227-3.164,4.52-2.723,5.451.426.9,3.5,1.4,3.047,4.554a13.541,13.541,0,0,0,0,3.87c.447,3.141-2.611,3.663-3.046,4.552-.455.929,1.491,4.059,2.63,5.377.44.51,1.253.26,1.725-.075a3.5,3.5,0,0,1,4.069-.19,18.461,18.461,0,0,0,3.6,2.1,3.614,3.614,0,0,1,2.26,3.917,1.264,1.264,0,0,0,.968,1.491,14.43,14.43,0,0,0,5.122-.024M3.269,15.665a2.024,2.024,0,0,0-1.214,2.753,2.069,2.069,0,0,0,2.533,1.166A2.088,2.088,0,0,0,5.9,16.993a2.04,2.04,0,0,0-2.628-1.328m47.32.017a2.06,2.06,0,0,0,1.33,3.9,2.086,2.086,0,0,0,1.316-2.647,2.025,2.025,0,0,0-2.646-1.251M3.464,42.96A2.055,2.055,0,1,0,4.5,46.935a2.1,2.1,0,0,0,1.429-2.5,2.032,2.032,0,0,0-2.47-1.479m47.461-.032A2.058,2.058,0,1,0,53.3,44.533a2.059,2.059,0,0,0-2.377-1.605m-23.5,13.656a2.033,2.033,0,0,0-1.847,2.373,2.067,2.067,0,0,0,4.087-.615,2.039,2.039,0,0,0-2.241-1.758" transform="translate(0 0)" fill="#12263f"/>
        <path id="Trazado_1273644" data-name="Trazado 1273644" d="M108.208,140.523l-6.311.07a7.659,7.659,0,1,1-5.533-13.808l.027-1.952a3.591,3.591,0,0,1,3.427-3.6l8.312.006a3.581,3.581,0,0,1,3.382,3.635l.032,11.73c.005,1.889-1.3,3.892-3.335,3.914m-.158-13.661a2.055,2.055,0,0,0,1.581-1.935c.01-.725-.6-1.785-1.52-1.785H99.83a1.762,1.762,0,0,0-1.532,1.95,1.887,1.887,0,0,0,1.8,1.749Zm-3.742,3.9a15.226,15.226,0,0,0,3.28.114,1.962,1.962,0,0,0,1.678-.825,2.159,2.159,0,0,0,.316-1.794,3.84,3.84,0,0,1-1.743.483l-5.146.076c.7.506,1.038,1.446,1.615,1.945m-8.125-2.009a5.7,5.7,0,0,0-4.351,6.941,5.762,5.762,0,1,0,4.351-6.941m8.977,6.125,2.272,0a2.261,2.261,0,0,0,1.764-.751,2.415,2.415,0,0,0,.438-1.819l-1.555.439-3.131.016Zm-1.341,3.8,4.437-.079c1.061-.019,1.541-1.477,1.337-2.338a5.061,5.061,0,0,1-1.49.479l-3.4.03c-.259.72-.572,1.226-.886,1.908" transform="translate(-74.284 -100.31)" fill="#12263f"/>
        <path id="Trazado_1273645" data-name="Trazado 1273645" d="M122.605,178.164c-.2.484-.272,1.241-.946,1.273s-.927-.45-1.136-1.1c-.312-.237-1.067-.267-1.145-.809-.069-.481.056-1.146.693-1.178l2.116-.106c.15-.007.1-.464-.011-.471-1.357-.085-2.655-.191-3.095-1.711a2.406,2.406,0,0,1,1.488-2.759c.105-.575.269-1.227.921-1.248.792-.026.789.662,1.158,1.117.261.321,1.243.154,1.214.937-.022.6-.279,1.113-1.089,1.1a4.964,4.964,0,0,0-1.766.087c-.144.054-.11.362-.019.414.474.275,2.476-.284,3.08,1.587a2.31,2.31,0,0,1-1.462,2.868" transform="translate(-98.455 -140.701)" fill="#12263f"/>
      </g>
    </g>
  </g>
</svg>
