<svg xmlns="http://www.w3.org/2000/svg" xmlns:xlink="http://www.w3.org/1999/xlink" width="84" height="84" viewBox="0 0 84 84">
  <defs>
    <clipPath id="clip-path">
      <rect id="Rectángulo_465330" data-name="Rectángulo 465330" width="55.982" height="55.955" fill="#12263f"/>
    </clipPath>
  </defs>
  <g id="Grupo_1211035" data-name="Grupo 1211035" transform="translate(-705.629 -410)">
    <g id="Grupo_1188476" data-name="Grupo 1188476" transform="translate(2.841 -1273.207)">
      <g id="Grupo_1185067" data-name="Grupo 1185067" transform="translate(719.227 1696)">
        <path id="Trazado_997620" data-name="Trazado 997620" d="M133.124,646.71a15.477,15.477,0,1,0-14.332-.01" transform="translate(-99.168 -604.804)" fill="#3a552a" stroke="#000" stroke-miterlimit="10" stroke-width="2"/>
        <rect id="Rectángulo_454823" data-name="Rectángulo 454823" width="14.333" height="4.288" transform="translate(19.625 41.893)" fill="#3a552a" stroke="#000" stroke-miterlimit="10" stroke-width="2"/>
        <rect id="Rectángulo_454824" data-name="Rectángulo 454824" width="14.333" height="4.288" transform="translate(19.625 46.181)" fill="#3a552a" stroke="#000" stroke-miterlimit="10" stroke-width="2"/>
        <path id="Trazado_997621" data-name="Trazado 997621" d="M135.492,688.628h-6.283a4.025,4.025,0,0,1-4.025-4.025v-.263h14.333v.263A4.025,4.025,0,0,1,135.492,688.628Z" transform="translate(-105.559 -633.871)" fill="#3a552a" stroke="#000" stroke-miterlimit="10" stroke-width="2"/>
        <line id="Línea_3231" data-name="Línea 3231" y1="7.578" transform="translate(26.797)" fill="none" stroke="#000" stroke-miterlimit="10" stroke-width="2"/>
        <line id="Línea_3232" data-name="Línea 3232" x1="4.454" y1="6.13" transform="translate(10.236 5.387)" fill="none" stroke="#000" stroke-miterlimit="10" stroke-width="2"/>
        <line id="Línea_3233" data-name="Línea 3233" x1="7.2" y1="2.336" transform="translate(0 19.477)" fill="none" stroke="#000" stroke-miterlimit="10" stroke-width="2"/>
        <line id="Línea_3234" data-name="Línea 3234" x1="7.2" y2="2.341" transform="translate(0 34.55)" fill="none" stroke="#000" stroke-miterlimit="10" stroke-width="2"/>
        <line id="Línea_3235" data-name="Línea 3235" x1="7.2" y1="2.341" transform="translate(46.398 34.55)" fill="none" stroke="#000" stroke-miterlimit="10" stroke-width="2"/>
        <line id="Línea_3236" data-name="Línea 3236" x1="7.2" y2="2.336" transform="translate(46.398 19.477)" fill="none" stroke="#000" stroke-miterlimit="10" stroke-width="2"/>
        <line id="Línea_3237" data-name="Línea 3237" x1="4.454" y2="6.125" transform="translate(38.91 5.387)" fill="none" stroke="#000" stroke-miterlimit="10" stroke-width="2"/>
        <path id="Trazado_997622" data-name="Trazado 997622" d="M119,638.208a10.647,10.647,0,0,1,4.484-8.693" transform="translate(-102.867 -610.025)" fill="#3a552a" stroke="#000" stroke-miterlimit="10" stroke-width="2"/>
        <line id="Línea_3238" data-name="Línea 3238" y2="8.634" transform="translate(26.797 33.258)" fill="none" stroke="#000" stroke-miterlimit="10" stroke-width="2"/>
        <path id="Trazado_997623" data-name="Trazado 997623" d="M133.157,647.74l2.669,3.47,3-3.47" transform="translate(-109.027 -617.951)" fill="#3a552a" stroke="#000" stroke-miterlimit="10" stroke-width="2"/>
        <path id="Trazado_997624" data-name="Trazado 997624" d="M132.431,691.931a3.07,3.07,0,1,0,6.14,0" transform="translate(-108.711 -637.173)" fill="#3a552a" stroke="#000" stroke-miterlimit="10" stroke-width="2"/>
      </g>
      <rect id="Rectángulo_459857" data-name="Rectángulo 459857" width="81" height="79" transform="translate(705.788 1688.207)" fill="#3a552a"/>
    </g>
    <g id="Grupo_1188599" data-name="Grupo 1188599" transform="translate(0.371 -1278)">
      <g id="Grupo_1185067-2" data-name="Grupo 1185067" transform="translate(718.472 1696)">
        <path id="Trazado_997620-2" data-name="Trazado 997620" d="M133.124,646.71a15.477,15.477,0,1,0-14.332-.01" transform="translate(-99.168 -604.804)" fill="#fff006" stroke="#000" stroke-miterlimit="10" stroke-width="2"/>
        <rect id="Rectángulo_454823-2" data-name="Rectángulo 454823" width="14.333" height="4.288" transform="translate(19.625 41.893)" fill="#fff006" stroke="#000" stroke-miterlimit="10" stroke-width="2"/>
        <rect id="Rectángulo_454824-2" data-name="Rectángulo 454824" width="14.333" height="4.288" transform="translate(19.625 46.181)" fill="#fff006" stroke="#000" stroke-miterlimit="10" stroke-width="2"/>
        <path id="Trazado_997621-2" data-name="Trazado 997621" d="M135.492,688.628h-6.283a4.025,4.025,0,0,1-4.025-4.025v-.263h14.333v.263A4.025,4.025,0,0,1,135.492,688.628Z" transform="translate(-105.559 -633.871)" fill="#fff006" stroke="#000" stroke-miterlimit="10" stroke-width="2"/>
        <line id="Línea_3231-2" data-name="Línea 3231" y1="7.578" transform="translate(26.797)" fill="none" stroke="#000" stroke-miterlimit="10" stroke-width="2"/>
        <line id="Línea_3232-2" data-name="Línea 3232" x1="4.454" y1="6.13" transform="translate(10.236 5.387)" fill="none" stroke="#000" stroke-miterlimit="10" stroke-width="2"/>
        <line id="Línea_3233-2" data-name="Línea 3233" x1="7.2" y1="2.336" transform="translate(0 19.477)" fill="none" stroke="#000" stroke-miterlimit="10" stroke-width="2"/>
        <line id="Línea_3234-2" data-name="Línea 3234" x1="7.2" y2="2.341" transform="translate(0 34.55)" fill="none" stroke="#000" stroke-miterlimit="10" stroke-width="2"/>
        <line id="Línea_3235-2" data-name="Línea 3235" x1="7.2" y1="2.341" transform="translate(46.398 34.55)" fill="none" stroke="#000" stroke-miterlimit="10" stroke-width="2"/>
        <line id="Línea_3236-2" data-name="Línea 3236" x1="7.2" y2="2.336" transform="translate(46.398 19.477)" fill="none" stroke="#000" stroke-miterlimit="10" stroke-width="2"/>
        <line id="Línea_3237-2" data-name="Línea 3237" x1="4.454" y2="6.125" transform="translate(38.91 5.387)" fill="none" stroke="#000" stroke-miterlimit="10" stroke-width="2"/>
        <path id="Trazado_997622-2" data-name="Trazado 997622" d="M119,638.208a10.647,10.647,0,0,1,4.484-8.693" transform="translate(-102.867 -610.025)" fill="#fff006" stroke="#000" stroke-miterlimit="10" stroke-width="2"/>
        <line id="Línea_3238-2" data-name="Línea 3238" y2="8.634" transform="translate(26.797 33.258)" fill="none" stroke="#000" stroke-miterlimit="10" stroke-width="2"/>
        <path id="Trazado_997623-2" data-name="Trazado 997623" d="M133.157,647.74l2.669,3.47,3-3.47" transform="translate(-109.027 -617.951)" fill="#fff006" stroke="#000" stroke-miterlimit="10" stroke-width="2"/>
        <path id="Trazado_997624-2" data-name="Trazado 997624" d="M132.431,691.931a3.07,3.07,0,1,0,6.14,0" transform="translate(-108.711 -637.173)" fill="#fff006" stroke="#000" stroke-miterlimit="10" stroke-width="2"/>
      </g>
      <rect id="Rectángulo_459857-2" data-name="Rectángulo 459857" width="80" height="80" transform="translate(705.258 1688)" fill="#fff006"/>
    </g>
    <g id="Grupo_1212266" data-name="Grupo 1212266" transform="translate(717.638 420.63)">
      <g id="Grupo_1212265" data-name="Grupo 1212265" clip-path="url(#clip-path)">
        <path id="Trazado_1273715" data-name="Trazado 1273715" d="M55.982,52.451l-.018,1.833a1.718,1.718,0,0,1-1.7,1.672H1.734a1.708,1.708,0,0,1-1.7-1.662l.034-1.819C-.26,51.619.683,51.227.9,50.7c.486-1.2.647-2.464,1.668-3.452a10.007,10.007,0,0,1-2.549-6.4l0-5.75a9.9,9.9,0,0,1,7.218-9.45l0-14.819A1.837,1.837,0,0,1,5.426,9.09l0-1.849A1.753,1.753,0,0,1,7.013,5.447L18.668,5.4A8.588,8.588,0,0,1,26.733,0l2.39,0a8.581,8.581,0,0,1,8.209,5.4l11.653.039A1.755,1.755,0,0,1,50.574,7.24V8.949a1.836,1.836,0,0,1-1.815,1.88V24.661a9.5,9.5,0,0,0,2.907-1.511L53.2,25.159a9.154,9.154,0,0,1,1.889,5.6l.005,4.216a2.74,2.74,0,0,1-2.073,4.745,7.364,7.364,0,0,1-3.739,4.646.792.792,0,0,0,.178.775,6.226,6.226,0,0,1,5.49,5.537,2,2,0,0,1,1.033,1.767m-27.11-43.4.035-1.174a2.626,2.626,0,0,1,2.805-2.462,2.687,2.687,0,0,1,2.6,2.619,2.656,2.656,0,0,1-2.531,2.771l-1.075.024.042,5.3c.1.239.626.012.785-.15l2.781-2.837a6.564,6.564,0,0,0,1.2-7.378A6.7,6.7,0,0,0,29.54,1.807H26.457a6.7,6.7,0,0,0-5.975,3.964,6.555,6.555,0,0,0,1.2,7.379l2.783,2.834c.162.166.669.388.787.152l.041-5.291c-1.964.149-3.461-.766-3.6-2.524a2.683,2.683,0,0,1,2.452-2.895A2.645,2.645,0,0,1,27.089,7.88l.053,1.176Zm-10.78-.009a11.961,11.961,0,0,1,.083-1.809l-10.908,0L7.251,9.053Zm6.462-1.8a.875.875,0,0,0-1.038.659.914.914,0,0,0,.676,1.076A2.139,2.139,0,0,0,25.252,9c.121-.943.047-1.622-.7-1.752m7.491,1.621A.858.858,0,0,0,32.4,7.7a.884.884,0,0,0-1.077-.421.827.827,0,0,0-.609.856L30.738,9a1.77,1.77,0,0,0,1.307-.131m16.706.174L48.727,7.23l-10.9.008c.078.67.081,1.215.1,1.826ZM37.6,10.828a7.176,7.176,0,0,1-1.76,3.31l-3.312,3.378-.02,1.516a4.507,4.507,0,0,1-9.013,0l-.013-1.523-3.335-3.36a8.593,8.593,0,0,1-1.755-3.334H9.047l.01,14.507A9.954,9.954,0,0,1,19.174,31.48,8.169,8.169,0,0,1,28,25.324a8.232,8.232,0,0,1,9.045,7.192,6.381,6.381,0,0,1,6.634-7.237,15.5,15.5,0,0,0,3.271-.162v-14.3Zm-8.7,5.36-.018-5.376-1.776.024.016,5.377Zm1.741,1.863-5.308,0a3.148,3.148,0,0,0,.613,2.63,2.732,2.732,0,0,0,2.192.985,2.863,2.863,0,0,0,2.5-3.619M43.249,29.383a5.778,5.778,0,0,0,5.739,3.1,3.849,3.849,0,0,1,3.473,1.37c.195.262.335.494.807.422l-.019-3.989a7.188,7.188,0,0,0-2.03-4.7,12.724,12.724,0,0,1-7.133,1.491A4.608,4.608,0,0,0,38.835,31.5l.075,2.908A4.34,4.34,0,0,1,42.6,31.659a5.435,5.435,0,0,1-.944-1.474Zm-37.69.78,1.577-.788a5.724,5.724,0,0,0,5.747,3.109,4.109,4.109,0,0,1,3.261,1.1c.935.923.988,2.062,1.051,3.342a7.517,7.517,0,0,1-4.137,7.459l.286.773a6.685,6.685,0,0,1,2.605.92,7.911,7.911,0,0,0,2.107-5.233v-5.87a8,8,0,0,0-8.042-7.89,7.964,7.964,0,0,0-8.163,7.746l.006,6.3a7.882,7.882,0,0,0,2.054,4.94,7.543,7.543,0,0,1,2.631-.945.827.827,0,0,0,.17-.768A7.348,7.348,0,0,1,2.7,37.775l0-2.39a3.563,3.563,0,0,1,1.887-3.118,10.016,10.016,0,0,1,1.851-.632,5.554,5.554,0,0,1-.882-1.472m25.449,2.324A3.8,3.8,0,0,1,34.593,34.1c.148.223.591.275.611.052a6.3,6.3,0,0,0-5.528-6.991H26.32a6.263,6.263,0,0,0-5.47,7.226,4.263,4.263,0,0,1,3.679-2.695,7.266,7.266,0,0,1-.914-1.515l1.59-.783a5.789,5.789,0,0,0,5.8,3.093M15.26,38.735a10.929,10.929,0,0,0,.006-3.061,1.95,1.95,0,0,0-2.227-1.411,7.657,7.657,0,0,1-4.914-1.155,14.374,14.374,0,0,0-1.811.452,1.976,1.976,0,0,0-1.8,1.972L4.52,37.92a5.412,5.412,0,0,0,5.028,5.375,5.356,5.356,0,0,0,5.712-4.56m18.1-.25a12.509,12.509,0,0,0-.009-2.735,1.957,1.957,0,0,0-2.268-1.486A7.64,7.64,0,0,1,26.177,33.1c-1.888.467-3.6.6-3.593,2.449l0,2.229A5.451,5.451,0,0,0,27.719,43.3a5.374,5.374,0,0,0,5.64-4.818m18.079-.193-.008-2.436c0-1.133-1.22-1.685-2.3-1.592a7.675,7.675,0,0,1-4.9-1.157c-1.691.383-3.565.647-3.566,2.194l0,2.832a5.314,5.314,0,0,0,5.327,5.176,5.4,5.4,0,0,0,5.453-5.018M20.751,36.1a.878.878,0,0,0-.864,1.021.787.787,0,0,0,.883.726Zm14.513,1.8a.884.884,0,0,0,.843-1.028.787.787,0,0,0-.877-.733ZM38.8,36.1a.871.871,0,0,0-.87.895.86.86,0,0,0,.872.887Zm14.513,1.8a.875.875,0,0,0,.844-1.028.78.78,0,0,0-.879-.732ZM37.021,50.686c.724-3.134,2.636-5.11,5.531-5.513.263-.089.451-.7.193-.846a7.29,7.29,0,0,1-3.668-4.621c-.819.2-1.43-.389-2.041-.6-.576.15-1.235.82-2.062.6a7.307,7.307,0,0,1-3.748,4.66c-.1.229.02.775.268.808,3,.4,4.876,2.556,5.527,5.513M24.538,45.155c.236-.033.338-.646.222-.8a7.218,7.218,0,0,1-3.7-4.563l-1.211-.2A10.044,10.044,0,0,1,17.3,47.258c.963.955,1.172,2.07,1.7,3.453a6.449,6.449,0,0,1,5.533-5.557m-13.3-.116a9.968,9.968,0,0,1-2.64.02c-.76.694-.039,2.435.336,2.633a2.951,2.951,0,0,0,2.114-.065c.293-.209,1-1.981.19-2.587m18.387.545c-.037-.151-.132-.585-.352-.547-2.134.369-2.818-.485-2.9.644a2.146,2.146,0,0,0,1.7,1.274c.716-.02,1.627-1.061,1.55-1.37m18.063,0c-.044-.154-.141-.593-.365-.553-2.158.385-2.769-.5-2.9.649a2.139,2.139,0,0,0,1.7,1.27c.731-.023,1.646-1.079,1.564-1.367m-34.47,1.422a3,3,0,0,1-3.269,2.7,3.056,3.056,0,0,1-3.311-2.741A4.481,4.481,0,0,0,2.877,50.55l14.109,0a4.324,4.324,0,0,0-3.771-3.54M26.1,48.079l-1.177-1.1a4.355,4.355,0,0,0-3.972,3.568l4.537,0Zm4.432,2.483,4.517-.026a4.321,4.321,0,0,0-4.041-3.544L29.9,48.122Zm13.624-2.482-1.188-1.111A4.392,4.392,0,0,0,39,50.542h4.541Zm4.44,2.48,4.511-.025a4.334,4.334,0,0,0-4.051-3.541L47.97,48.117ZM28.65,50.481l-.424-1.634c-.063-.175-.4-.177-.448,0l-.428,1.663a3.222,3.222,0,0,0,1.3-.034m18.066.02-.44-1.648c-.049-.185-.408-.183-.453,0l-.416,1.667a3.989,3.989,0,0,0,1.308-.017m7.419,3.644.005-1.8H1.857l0,1.8Z" transform="translate(0 -0.001)" fill="#12263f"/>
        <path id="Trazado_1273716" data-name="Trazado 1273716" d="M88.2,109.811a5.409,5.409,0,1,1-4.065,6.556,5.386,5.386,0,0,1,4.065-6.556m.3,4.634-.031-2.837a3.464,3.464,0,0,0-2.6,3.9Zm4.473,1a3.538,3.538,0,0,0-2.656-3.836l.021,2.89Zm-.667,1.758-2.891-1.168L86.493,117.2a3.56,3.56,0,0,0,2.889,1.48,3.623,3.623,0,0,0,2.925-1.471" transform="translate(-72.23 -94.327)" fill="#12263f"/>
        <path id="Trazado_1273717" data-name="Trazado 1273717" d="M238.789,108.656a1.719,1.719,0,0,1,1.592-1.812l2.35.011a1.63,1.63,0,0,1,1.458,1.6l.022,1.911a1.837,1.837,0,0,0,.912.032v-5.428a1.679,1.679,0,0,1,1.581-1.754l2.069-.017a1.755,1.755,0,0,1,1.748,1.664v5.691a1.794,1.794,0,0,1-1.758,1.671l-8.23,0a1.776,1.776,0,0,1-1.735-1.772Zm9.934,1.711-.03-5.367-1.761,0v5.42Zm-6.311.014-.041-1.762-1.74-.01v1.811Z" transform="translate(-205.379 -88.76)" fill="#12263f"/>
        <path id="Trazado_1273718" data-name="Trazado 1273718" d="M106.884,92.044l-3.627.009,0-1.785,3.62-.006Z" transform="translate(-88.808 -77.632)" fill="#12263f"/>
        <path id="Trazado_1273719" data-name="Trazado 1273719" d="M79.359,92.114l-1.813.025,0-1.783,1.809.006Z" transform="translate(-66.692 -77.715)" fill="#12263f"/>
        <path id="Trazado_1273720" data-name="Trazado 1273720" d="M58.177,277.855l0-1.816,1.536,0a2.354,2.354,0,0,0,2.122-1.277,8.559,8.559,0,0,1,1.631.789,4.155,4.155,0,0,1-3.369,2.277Z" transform="translate(-50.034 -236.316)" fill="#12263f"/>
        <path id="Trazado_1273721" data-name="Trazado 1273721" d="M187.224,277.6l0-1.818,1.793-.022a2.258,2.258,0,0,0,1.918-1.3l1.587.813a4.136,4.136,0,0,1-3.245,2.285Z" transform="translate(-161.026 -236.061)" fill="#12263f"/>
        <path id="Trazado_1273722" data-name="Trazado 1273722" d="M316.222,277.615l0-1.818,1.793-.022a2.242,2.242,0,0,0,1.917-1.3l1.6.8a4.175,4.175,0,0,1-3.381,2.312Z" transform="translate(-271.976 -236.076)" fill="#12263f"/>
      </g>
    </g>
  </g>
</svg>
