<svg xmlns="http://www.w3.org/2000/svg" xmlns:xlink="http://www.w3.org/1999/xlink" width="96" height="96" viewBox="0 0 96 96">
  <defs>
    <clipPath id="clip-path">
      <rect id="Rectángulo_465329" data-name="Rectángulo 465329" width="59.833" height="53.693" fill="#12263f"/>
    </clipPath>
  </defs>
  <g id="Grupo_1211033" data-name="Grupo 1211033" transform="translate(-735.745 -9122)">
    <g id="Grupo_1188527" data-name="Grupo 1188527" transform="translate(-728.818 -89.375)">
      <g id="Grupo_1188526" data-name="Grupo 1188526">
        <path id="Trazado_1033015" data-name="Trazado 1033015" d="M96,47.778A48,48,0,1,1,48,0,47.889,47.889,0,0,1,96,47.778" transform="translate(1464.564 9211.818)" fill="#ebffe0"/>
        <path id="Trazado_1033017" data-name="Trazado 1033017" d="M374.691,757.713l-.2.008a.74.74,0,0,0,.2-.008" transform="translate(1131.201 8546.583)" fill="#ffe4b3"/>
        <path id="Trazado_1033018" data-name="Trazado 1033018" d="M342.621,99.876l-.041.008-.2.065Z" transform="translate(1158.943 9116.164)" fill="#ffe4b3"/>
        <path id="Trazado_1033019" data-name="Trazado 1033019" d="M80.427,94.229a41.8,41.8,0,0,1,3.407-5.117c1.022-1.43,2.127-2.505,3.131-3.67.537-.551,1.107-1.071,1.675-1.635l.874-.861.988-.831a42.841,42.841,0,0,1,4.961-3.764,41.965,41.965,0,0,1,13.287-5.271c2.094-.883,6.05-.794,8.661-1.11l1.013.241a10.76,10.76,0,0,1,2.869.112l-.062.048c1.352.041,2.866.258,3.531.345l-.065.044,1.614.3-.293.022c.584.083,1.175.16,1.758.273l1.713.445c.563.158,1.125.3,1.661.482l1.539.609-.086-.28c.528.23,1.016.432,1.475.614s.862.4,1.26.574c.789.36,1.5.656,2.2.952.67.348,1.328.692,2.036,1.091.352.2.724.405,1.1.655.365.267.748.556,1.154.877l-.078.015c.584.3,1.128.6,1.64.91.5.328.937.688,1.371,1.03s.841.692,1.24,1.036.737.747,1.1,1.116c1.459,1.488,2.808,3.078,4.708,5.018-.468-.49.081.3,0,.294l1.17,1.437c.378.466.69.941,1,1.325.6.777,1.085,1.276,1.291,1.172.965,1.557.633,1.359.611,1.646.155-.1,1.06,1.213,1.723,2.481-.123-.183-.23-.375-.366-.551.629,1.21,1.256,2.426,1.855,3.655.022-.3,0-.59.006-.887.8,2.036-.2.691.7,2.576l.282-.142a17.451,17.451,0,0,1,.66,1.962c.149.622.27,1.209.384,1.792s.232,1.161.334,1.775c.082.62.178,1.269.306,1.981a65.415,65.415,0,0,1,1.594,8.95,46.076,46.076,0,0,1-.056,9.144l-.122,1.132-.061.566-.114.554-.461,2.21a15.544,15.544,0,0,1-.611,2.151c-.235.7-.447,1.413-.7,2.1l-.917,1.986a15.794,15.794,0,0,1-.986,1.915,26.575,26.575,0,0,1-2.405,3.442l-.488.238c-.371-.042-1.515,2.672-2.094,2.736-.26.341-.5.7-.786,1.028-.306.207-.9.684-.493.186a15.244,15.244,0,0,0-1.439,1.5c-.362.233-.75.432-1.124.643-1.886,1.387-3.667,2.621-5.568,3.749a32.54,32.54,0,0,1-6.288,2.926,84.641,84.641,0,0,1-11.452,2.462,88.983,88.983,0,0,1-12.206.8,45.1,45.1,0,0,1-14.409-2.286,60.716,60.716,0,0,1-13.085-6.251,3.245,3.245,0,0,0-.941-.534c-.547-.444-1.073-.912-1.612-1.366l-.8-.684-.734-.756-1.464-1.513-1.305-1.648-.282-.351-.334-.414-.388-.593a30.9,30.9,0,0,1-2.157-3.593,19.02,19.02,0,0,1-1.14-2.368c-.33-.847-.729-1.693-1.031-2.571-.537-1.779-1.15-3.522-1.484-5.1-.737-3.134-1.067-5.386-1.434-4.806a9,9,0,0,0-.342,3.254,32.714,32.714,0,0,0,.235,3.691c.1.741.261,1.543.417,2.424l.257,1.376c.089.478.263.952.4,1.458l-.152-.184.594,1.688.284.79c.108.251.231.491.344.729.463.947.885,1.826,1.333,2.634a21.4,21.4,0,0,0,3.229,4.111,1.784,1.784,0,0,0,.4.825c.125.176.269.37.433.568l.571.57c.805.766,1.652,1.595,2.053,2.023l-.111-.044c1.3.842,2.4,1.97,3.665,2.881a19.571,19.571,0,0,0,1.875,1.371,18.278,18.278,0,0,0,1.994,1.056,1.437,1.437,0,0,1-.824-.28c.476.25.981.552,1.5.8l1.508.7a5.782,5.782,0,0,1,1.629.945,52.663,52.663,0,0,0,8.038,2.562,35.3,35.3,0,0,0,3.9.714,19.528,19.528,0,0,0,3.059.215l-.23.046c1.861-.034,2.378.217,4.442.228.11.043.254.072.23.085,2-.138,5.818.144,7.435-.04l.109.175c1.327-.056,2.653-.129,3.977-.254-.5.032-.992.051-1.489.064.476-.511,3.037.128,5.877-.6,2.716-.335,5.194-1.969,7.9-2.523,1.207-.6-1.012.7.839-.052.142.229-.842.433-.288.478,1.831-.715,3.164-.766,5.342-1.9l.173.141c2.745-1.622,5.5-2.536,7.062-4.051a11.272,11.272,0,0,1,2.334-1.51,6.512,6.512,0,0,0,2.206-1.86l1.162-.735c1.066-1.042.522-.972,1.707-2.111.073.2,1.45-1.5.96-.654a22.416,22.416,0,0,0,3.295-4.807l.715-1.4.664-1.49c.466-1.01,1.02-2.039,1.468-3.189a10.057,10.057,0,0,1,.5-2.224,8.237,8.237,0,0,0,.315-2.036,14.452,14.452,0,0,0,.561-2.093c.137-.854.25-1.355.229.04,0,.241-.115.649-.159.611l.122.361a7.593,7.593,0,0,0,.456-1.976c.082-.649.127-1.285.161-1.92a16.32,16.32,0,0,0,0-1.915c-.014-.646-.014-1.3.027-1.992-.1.815-.122,1.9-.229,1.168.022-.848.129-1.7.079-2.545l.188.528-.062-3.806-.183.538a14.58,14.58,0,0,0-.338-4.591c-.305-.907-.028,1.775-.375-.144-.183-1.216-.321-2.764-.647-4.361a42.437,42.437,0,0,0-1.2-4.783c-.126.352-.389-.456-.712-1.267l.157-.163c-.675-1.538-.754-1.834-.74-2.168-.006-.324-.006-.654-.744-2.155l.24.217c-.236-.219-.481-.431-.743-.635a5.9,5.9,0,0,1-1.04-2.11,5.285,5.285,0,0,0-1.329-2.239c.683,1.128-.082.747-.8-.692l.371.259a15.676,15.676,0,0,1-.958-1.511c.344.414.412.082-.359-1l.7.612-1.683-1.893a16.825,16.825,0,0,0-1.884-2.73c-.339-.437-.656-.847-.9-1.2a4.635,4.635,0,0,1-.547-.809s-.67-.8-1.451-1.67a10.827,10.827,0,0,0-1.245-1.2,5.941,5.941,0,0,0-.983-.726c.74.447-.892-1.2-.267-.908-.446-.326-1.367-.909-2.25-1.569-.443-.328-.882-.67-1.265-.992s-.751-.567-.984-.8l.217.116c-3.8-2.948-7.139-3.957-11.012-5.707.1.284-1.969-.613-1.542-.14-2.143-.493-4.016-1.2-5.637-1.553a12.427,12.427,0,0,0-2.157-.414,3.684,3.684,0,0,0-1.59.2c-1.971-.22-2.32-.46-3.349-.558L120,68.96l-2.376-.067c-.671,0-1.244.046-1.787.059-1.085.052-2.054.026-3.435.2a10.437,10.437,0,0,0-1.587.454,17.964,17.964,0,0,1-2.385.532c.753-.317-.233-.1-1.141.079.574-.138.745-.234-.477-.114-.157.085-.412.158-.642.259-.013-.01-.062-.007-.042-.031-1.478.474-1.2.452-.506.282-.028.035.038.05.263.037a24.548,24.548,0,0,0-2.782.662c-.9.288-1.609.567-1.753.457a35.975,35.975,0,0,0-10.14,5.994c-.441.135.207-.5,1.084-1.207l-2.188,1.655c-.116-.182,1.2-1.026,1.862-1.557a20.761,20.761,0,0,0-2.084,1.392c-.634.562-1.257,1.161-1.889,1.77-.653.589-1.238,1.265-1.861,1.931s-1.326,1.284-1.972,1.985l-.377.716-.167.156c.076.049-.374.78-.71,1.228-.484.3-.352-.321-1.44,1.221a13.658,13.658,0,0,0-1.677,2.391L78.264,92.33c.565-.883.486-.537.307-.124a19.579,19.579,0,0,0-1.119,1.89l-.268-.036c.192-.109-.035.463-.317,1.1a10.276,10.276,0,0,0-.585,1.559c-.38.413.421-1.4.439-1.656-.814,1.7-.957,2.147-1.158,2.572a28.127,28.127,0,0,0-1.045,2.615c-.511,1.944.351-.257.23.716-.606,1.652-.872,3.353-1.6,5.238l.4-.551c-.37,1.6-.562,2.9-.856,4.034-.241,1.149-.442,2.17-.741,3.245-.124,1.526-.078,2.893-.107,4.088.028,1.2.131,2.242.193,3.139a18.244,18.244,0,0,0,.314,2.278c.114.628.22,1.129.316,1.523.4,1.574.679,1.446.8.552a35.559,35.559,0,0,0,.3-3.815c.133-1.366.207-2.514.207-2.514a103.412,103.412,0,0,1,1.934-11.62l.71-2.76c.265-.942.6-1.9.928-2.918a47.962,47.962,0,0,1,2.887-6.659" transform="translate(1392.723 9142.481)" fill="#3a552a"/>
      </g>
    </g>
    <g id="Grupo_1212264" data-name="Grupo 1212264" transform="translate(752.745 9140.287)">
      <g id="Grupo_1212263" data-name="Grupo 1212263" clip-path="url(#clip-path)">
        <path id="Trazado_1273711" data-name="Trazado 1273711" d="M35.917,51.453a19.242,19.242,0,0,1-11.982,0,10.9,10.9,0,0,1-12.249.35A6.939,6.939,0,1,1,4.93,40.1,10.979,10.979,0,0,1,11.37,29.625a19,19,0,0,1,5.964-10.3c-.517-4.637,1.868-8.526,5.83-10.822a6.934,6.934,0,1,1,13.506.008,10.919,10.919,0,0,1,5.836,10.821,19.03,19.03,0,0,1,5.96,10.3,10.944,10.944,0,0,1,6.428,10.453,6.946,6.946,0,0,1,1.224,12.8A6.873,6.873,0,0,1,48.147,51.8a10.872,10.872,0,0,1-12.231-.342M28.863,1.995a5.059,5.059,0,1,0,6.029,4,5.044,5.044,0,0,0-6.029-4M22.293,20.719a5.841,5.841,0,0,1-.121-4.943,7.158,7.158,0,0,1,3.334-3.485A6.964,6.964,0,0,1,23.868,10.3c-4.13,2.393-5.98,7.213-3.847,11.557a1.253,1.253,0,0,0,1.722.628,1.277,1.277,0,0,0,.55-1.77m15.213.114a1.251,1.251,0,0,0,.8,1.743,1.289,1.289,0,0,0,1.565-.821c2.042-4.344.186-9.072-3.9-11.457a7.023,7.023,0,0,1-1.641,1.992c3.241,1.726,4.784,5.175,3.175,8.542M34.95,15.189a4.73,4.73,0,0,0-2.743-1.708,6.6,6.6,0,0,1-4.579,0,4.751,4.751,0,0,0-2.743,1.713,20.182,20.182,0,0,1,10.065,0m-.68,34.763a7.346,7.346,0,0,1-1.146-1.692A3.151,3.151,0,0,1,38.641,45.3a4.084,4.084,0,0,0,1.837,1.558A17.19,17.19,0,0,0,46.8,35.976a3.481,3.481,0,0,0-2.173-.85,3.194,3.194,0,0,1-2.976-3.539,3.228,3.228,0,0,1,3.578-2.75l1.133.095A17.232,17.232,0,0,0,42.072,21.5l-.664,1.378a3.148,3.148,0,0,1-5.588-2.9,3.694,3.694,0,0,0,.368-2.378,17.388,17.388,0,0,0-12.541,0,4.078,4.078,0,0,0,.447,2.591,3.108,3.108,0,0,1-1.48,3.96,3.056,3.056,0,0,1-4.132-1.179l-.716-1.479a17.21,17.21,0,0,0-4.294,7.448l1.277-.117a3.155,3.155,0,1,1,.606,6.28,3.717,3.717,0,0,0-2.314.872,17.162,17.162,0,0,0,6.317,10.881A4.087,4.087,0,0,0,21.2,45.3a3.162,3.162,0,0,1,4.178-.92,3.13,3.13,0,0,1,1.291,3.985,7.092,7.092,0,0,1-1.116,1.587,16.3,16.3,0,0,0,8.721,0M15.133,33.236a1.265,1.265,0,1,0-.245-2.516c-4.746.287-7.979,4.242-8.1,9.064a8.577,8.577,0,0,1,2.553.441c-.07-3.684,2.145-6.712,5.789-6.989M50.49,40.226a8.57,8.57,0,0,1,2.55-.442c-.112-4.814-3.347-8.777-8.095-9.064a1.264,1.264,0,1,0-.243,2.515c3.62.261,5.872,3.318,5.787,6.99M13.778,45.559a5.3,5.3,0,0,0,2.848,1.422,19.835,19.835,0,0,1-5.083-8.827,6.115,6.115,0,0,0-.143,3.282,6.744,6.744,0,0,1,2.378,4.122M46.127,45.4a6.449,6.449,0,0,1,2.3-3.97,5.748,5.748,0,0,0-.147-3.256,19.838,19.838,0,0,1-5.071,8.816A4.729,4.729,0,0,0,46.127,45.4M5.878,41.8a5.058,5.058,0,1,0,6.041,4,5.036,5.036,0,0,0-6.041-4m45.969,0a5.059,5.059,0,1,0,6.03,4.02,5.026,5.026,0,0,0-6.03-4.02M12.9,50.34c4.334,2.391,9.4,1.4,11.957-2.563A1.263,1.263,0,0,0,22.734,46.4c-1.963,2.933-5.722,3.481-8.949,1.513A7.725,7.725,0,0,1,12.9,50.34M46,47.916a7.12,7.12,0,0,1-5.147,1.051,6.283,6.283,0,0,1-3.824-2.653,1.257,1.257,0,0,0-1.758-.225,1.276,1.276,0,0,0-.29,1.685c2.6,4.026,7.743,4.939,11.964,2.545a9.391,9.391,0,0,1-.945-2.4" transform="translate(-0.001 0.001)" fill="#12263f"/>
        <path id="Trazado_1273712" data-name="Trazado 1273712" d="M106.185,222.041c-1.594-.382-3.072.074-3.494-.944-.307-.744.894-1.6,1.407-2.808a5.856,5.856,0,0,1,10.909-3.61,5.844,5.844,0,0,1-8.822,7.363m-.8-2.085c.784.229,1.387.166,1.876.572a3.983,3.983,0,0,0,6.052-5.033,3.985,3.985,0,0,0-4.779-1.664,4.051,4.051,0,0,0-2.55,4.475c.074.586-.462,1.118-.6,1.65" transform="translate(-87.224 -179.899)" fill="#12263f"/>
        <path id="Trazado_1273713" data-name="Trazado 1273713" d="M219.968,218.613c.325,1.4,1.543,2.558.942,3.365-.578.776-1.848-.011-3.25.281a5.878,5.878,0,0,1-7.433-.4,5.841,5.841,0,0,1,6-9.78,6,6,0,0,1,3.737,6.533m-1.442,1.641c-.163-.707-.566-1.206-.469-1.79a4.052,4.052,0,0,0-2.512-4.629,3.963,3.963,0,0,0-3.906,6.774,4.1,4.1,0,0,0,5.183-.064c.444-.345,1.167-.127,1.7-.291" transform="translate(-177.019 -179.901)" fill="#12263f"/>
        <path id="Trazado_1273714" data-name="Trazado 1273714" d="M168.4,116.282a5.827,5.827,0,1,1-4.238-.117c1.04-1.055,1.423-2.558,2.362-2.547.9.011,1.087,1.468,1.876,2.664m-.607,1.8a3.441,3.441,0,0,1-1.482-1.6,3.789,3.789,0,0,1-1.543,1.47,3.994,3.994,0,0,0-2.522,4.435,4.045,4.045,0,0,0,3.688,3.265,4,4,0,0,0,4.029-2.92,3.92,3.92,0,0,0-2.169-4.649" transform="translate(-136.229 -96.551)" fill="#12263f"/>
      </g>
    </g>
  </g>
</svg>
