<svg xmlns="http://www.w3.org/2000/svg" xmlns:xlink="http://www.w3.org/1999/xlink" width="96" height="96" viewBox="0 0 96 96">
  <defs>
    <clipPath id="clip-path">
      <rect id="Rectángulo_465324" data-name="Rectángulo 465324" width="53.547" height="55.289" fill="#12263f"/>
    </clipPath>
  </defs>
  <g id="Grupo_1211028" data-name="Grupo 1211028" transform="translate(-735.745 -9122)">
    <g id="Grupo_1188527" data-name="Grupo 1188527" transform="translate(-728.818 -89.375)">
      <g id="Grupo_1188526" data-name="Grupo 1188526">
        <path id="Trazado_1033015" data-name="Trazado 1033015" d="M96,47.778A48,48,0,1,1,48,0,47.889,47.889,0,0,1,96,47.778" transform="translate(1464.564 9211.818)" fill="#ebffe0"/>
        <path id="Trazado_1033017" data-name="Trazado 1033017" d="M374.691,757.713l-.2.008a.74.74,0,0,0,.2-.008" transform="translate(1131.201 8546.583)" fill="#ffe4b3"/>
        <path id="Trazado_1033018" data-name="Trazado 1033018" d="M342.621,99.876l-.041.008-.2.065Z" transform="translate(1158.943 9116.164)" fill="#ffe4b3"/>
        <path id="Trazado_1033019" data-name="Trazado 1033019" d="M80.427,94.229a41.8,41.8,0,0,1,3.407-5.117c1.022-1.43,2.127-2.505,3.131-3.67.537-.551,1.107-1.071,1.675-1.635l.874-.861.988-.831a42.841,42.841,0,0,1,4.961-3.764,41.965,41.965,0,0,1,13.287-5.271c2.094-.883,6.05-.794,8.661-1.11l1.013.241a10.76,10.76,0,0,1,2.869.112l-.062.048c1.352.041,2.866.258,3.531.345l-.065.044,1.614.3-.293.022c.584.083,1.175.16,1.758.273l1.713.445c.563.158,1.125.3,1.661.482l1.539.609-.086-.28c.528.23,1.016.432,1.475.614s.862.4,1.26.574c.789.36,1.5.656,2.2.952.67.348,1.328.692,2.036,1.091.352.2.724.405,1.1.655.365.267.748.556,1.154.877l-.078.015c.584.3,1.128.6,1.64.91.5.328.937.688,1.371,1.03s.841.692,1.24,1.036.737.747,1.1,1.116c1.459,1.488,2.808,3.078,4.708,5.018-.468-.49.081.3,0,.294l1.17,1.437c.378.466.69.941,1,1.325.6.777,1.085,1.276,1.291,1.172.965,1.557.633,1.359.611,1.646.155-.1,1.06,1.213,1.723,2.481-.123-.183-.23-.375-.366-.551.629,1.21,1.256,2.426,1.855,3.655.022-.3,0-.59.006-.887.8,2.036-.2.691.7,2.576l.282-.142a17.451,17.451,0,0,1,.66,1.962c.149.622.27,1.209.384,1.792s.232,1.161.334,1.775c.082.62.178,1.269.306,1.981a65.415,65.415,0,0,1,1.594,8.95,46.076,46.076,0,0,1-.056,9.144l-.122,1.132-.061.566-.114.554-.461,2.21a15.544,15.544,0,0,1-.611,2.151c-.235.7-.447,1.413-.7,2.1l-.917,1.986a15.794,15.794,0,0,1-.986,1.915,26.575,26.575,0,0,1-2.405,3.442l-.488.238c-.371-.042-1.515,2.672-2.094,2.736-.26.341-.5.7-.786,1.028-.306.207-.9.684-.493.186a15.244,15.244,0,0,0-1.439,1.5c-.362.233-.75.432-1.124.643-1.886,1.387-3.667,2.621-5.568,3.749a32.54,32.54,0,0,1-6.288,2.926,84.641,84.641,0,0,1-11.452,2.462,88.983,88.983,0,0,1-12.206.8,45.1,45.1,0,0,1-14.409-2.286,60.716,60.716,0,0,1-13.085-6.251,3.245,3.245,0,0,0-.941-.534c-.547-.444-1.073-.912-1.612-1.366l-.8-.684-.734-.756-1.464-1.513-1.305-1.648-.282-.351-.334-.414-.388-.593a30.9,30.9,0,0,1-2.157-3.593,19.02,19.02,0,0,1-1.14-2.368c-.33-.847-.729-1.693-1.031-2.571-.537-1.779-1.15-3.522-1.484-5.1-.737-3.134-1.067-5.386-1.434-4.806a9,9,0,0,0-.342,3.254,32.714,32.714,0,0,0,.235,3.691c.1.741.261,1.543.417,2.424l.257,1.376c.089.478.263.952.4,1.458l-.152-.184.594,1.688.284.79c.108.251.231.491.344.729.463.947.885,1.826,1.333,2.634a21.4,21.4,0,0,0,3.229,4.111,1.784,1.784,0,0,0,.4.825c.125.176.269.37.433.568l.571.57c.805.766,1.652,1.595,2.053,2.023l-.111-.044c1.3.842,2.4,1.97,3.665,2.881a19.571,19.571,0,0,0,1.875,1.371,18.278,18.278,0,0,0,1.994,1.056,1.437,1.437,0,0,1-.824-.28c.476.25.981.552,1.5.8l1.508.7a5.782,5.782,0,0,1,1.629.945,52.663,52.663,0,0,0,8.038,2.562,35.3,35.3,0,0,0,3.9.714,19.528,19.528,0,0,0,3.059.215l-.23.046c1.861-.034,2.378.217,4.442.228.11.043.254.072.23.085,2-.138,5.818.144,7.435-.04l.109.175c1.327-.056,2.653-.129,3.977-.254-.5.032-.992.051-1.489.064.476-.511,3.037.128,5.877-.6,2.716-.335,5.194-1.969,7.9-2.523,1.207-.6-1.012.7.839-.052.142.229-.842.433-.288.478,1.831-.715,3.164-.766,5.342-1.9l.173.141c2.745-1.622,5.5-2.536,7.062-4.051a11.272,11.272,0,0,1,2.334-1.51,6.512,6.512,0,0,0,2.206-1.86l1.162-.735c1.066-1.042.522-.972,1.707-2.111.073.2,1.45-1.5.96-.654a22.416,22.416,0,0,0,3.295-4.807l.715-1.4.664-1.49c.466-1.01,1.02-2.039,1.468-3.189a10.057,10.057,0,0,1,.5-2.224,8.237,8.237,0,0,0,.315-2.036,14.452,14.452,0,0,0,.561-2.093c.137-.854.25-1.355.229.04,0,.241-.115.649-.159.611l.122.361a7.593,7.593,0,0,0,.456-1.976c.082-.649.127-1.285.161-1.92a16.32,16.32,0,0,0,0-1.915c-.014-.646-.014-1.3.027-1.992-.1.815-.122,1.9-.229,1.168.022-.848.129-1.7.079-2.545l.188.528-.062-3.806-.183.538a14.58,14.58,0,0,0-.338-4.591c-.305-.907-.028,1.775-.375-.144-.183-1.216-.321-2.764-.647-4.361a42.437,42.437,0,0,0-1.2-4.783c-.126.352-.389-.456-.712-1.267l.157-.163c-.675-1.538-.754-1.834-.74-2.168-.006-.324-.006-.654-.744-2.155l.24.217c-.236-.219-.481-.431-.743-.635a5.9,5.9,0,0,1-1.04-2.11,5.285,5.285,0,0,0-1.329-2.239c.683,1.128-.082.747-.8-.692l.371.259a15.676,15.676,0,0,1-.958-1.511c.344.414.412.082-.359-1l.7.612-1.683-1.893a16.825,16.825,0,0,0-1.884-2.73c-.339-.437-.656-.847-.9-1.2a4.635,4.635,0,0,1-.547-.809s-.67-.8-1.451-1.67a10.827,10.827,0,0,0-1.245-1.2,5.941,5.941,0,0,0-.983-.726c.74.447-.892-1.2-.267-.908-.446-.326-1.367-.909-2.25-1.569-.443-.328-.882-.67-1.265-.992s-.751-.567-.984-.8l.217.116c-3.8-2.948-7.139-3.957-11.012-5.707.1.284-1.969-.613-1.542-.14-2.143-.493-4.016-1.2-5.637-1.553a12.427,12.427,0,0,0-2.157-.414,3.684,3.684,0,0,0-1.59.2c-1.971-.22-2.32-.46-3.349-.558L120,68.96l-2.376-.067c-.671,0-1.244.046-1.787.059-1.085.052-2.054.026-3.435.2a10.437,10.437,0,0,0-1.587.454,17.964,17.964,0,0,1-2.385.532c.753-.317-.233-.1-1.141.079.574-.138.745-.234-.477-.114-.157.085-.412.158-.642.259-.013-.01-.062-.007-.042-.031-1.478.474-1.2.452-.506.282-.028.035.038.05.263.037a24.548,24.548,0,0,0-2.782.662c-.9.288-1.609.567-1.753.457a35.975,35.975,0,0,0-10.14,5.994c-.441.135.207-.5,1.084-1.207l-2.188,1.655c-.116-.182,1.2-1.026,1.862-1.557a20.761,20.761,0,0,0-2.084,1.392c-.634.562-1.257,1.161-1.889,1.77-.653.589-1.238,1.265-1.861,1.931s-1.326,1.284-1.972,1.985l-.377.716-.167.156c.076.049-.374.78-.71,1.228-.484.3-.352-.321-1.44,1.221a13.658,13.658,0,0,0-1.677,2.391L78.264,92.33c.565-.883.486-.537.307-.124a19.579,19.579,0,0,0-1.119,1.89l-.268-.036c.192-.109-.035.463-.317,1.1a10.276,10.276,0,0,0-.585,1.559c-.38.413.421-1.4.439-1.656-.814,1.7-.957,2.147-1.158,2.572a28.127,28.127,0,0,0-1.045,2.615c-.511,1.944.351-.257.23.716-.606,1.652-.872,3.353-1.6,5.238l.4-.551c-.37,1.6-.562,2.9-.856,4.034-.241,1.149-.442,2.17-.741,3.245-.124,1.526-.078,2.893-.107,4.088.028,1.2.131,2.242.193,3.139a18.244,18.244,0,0,0,.314,2.278c.114.628.22,1.129.316,1.523.4,1.574.679,1.446.8.552a35.559,35.559,0,0,0,.3-3.815c.133-1.366.207-2.514.207-2.514a103.412,103.412,0,0,1,1.934-11.62l.71-2.76c.265-.942.6-1.9.928-2.918a47.962,47.962,0,0,1,2.887-6.659" transform="translate(1392.723 9142.481)" fill="#3a552a"/>
      </g>
    </g>
    <g id="Grupo_1212254" data-name="Grupo 1212254" transform="translate(755.972 9142.355)">
      <g id="Grupo_1212253" data-name="Grupo 1212253" clip-path="url(#clip-path)">
        <path id="Trazado_1273651" data-name="Trazado 1273651" d="M219.638,16.892c.374,1.172-1.568.93-3.066,2.418l-3.8,3.78a1.443,1.443,0,0,0-.419,1.331,2.055,2.055,0,0,0,.822,1.087A5.393,5.393,0,0,1,214.5,22.89l2.559-2.556a.888.888,0,0,1,1.012-.01l3.134,3.109,1.259.011a1.31,1.31,0,0,1,1.278.69,1.248,1.248,0,0,1-.34,1.484l.829.857a.789.789,0,0,1,.006,1.039l-2.408,2.428a5.266,5.266,0,0,1-2.689,1.473c.386.745,1.455,1.228,2.111.574l4.09-4.084a5.945,5.945,0,0,0,1.24-6.126,6.134,6.134,0,0,0-4.244-3.917.812.812,0,0,1-.6-.89.758.758,0,0,1,.833-.7,7.741,7.741,0,0,1,4.053,12.653l-3.54,3.613a22.489,22.489,0,0,1,1.717,5.225,2.979,2.979,0,0,1-5.778,1.381,19.535,19.535,0,0,0-1.061-3.27l-3.65-.052a2.653,2.653,0,0,1-1.933-1.087,13.313,13.313,0,0,0-2.215-2.214,2.71,2.71,0,0,1-1.107-2.069l-.026-3.55a24.027,24.027,0,0,0-3.266-1.03,2.979,2.979,0,0,1,1.369-5.786,20.486,20.486,0,0,1,4.825,1.552l3.705-3.661c1.051-1.039,3.575-2.343,3.976-1.084m.863,21.59a1.379,1.379,0,0,0,1.807,1.022,1.424,1.424,0,0,0,.868-1.739,22.716,22.716,0,0,0-1.421-4.166c-2.61,1.1-3.5-.925-5.283-2.354a6.1,6.1,0,0,1-3.154-3.168l-1.8-1.869a2.978,2.978,0,0,1-.594-3.253,23.776,23.776,0,0,0-3.876-1.264,1.388,1.388,0,0,0-1.705.974,1.4,1.4,0,0,0,1.082,1.726,16.893,16.893,0,0,1,3.985,1.388c.173.093.231.464.231.648l.006,3.716a1.39,1.39,0,0,0,.522,1.1,13.818,13.818,0,0,1,2.481,2.486,1.336,1.336,0,0,0,1.074.493l3.841.01c.862,0,1.6,2.795,1.938,4.251m1.978-11.511a1.658,1.658,0,0,1-.785-1.947,1.592,1.592,0,0,1-1.586-.372l-2.535-2.531L215.53,24.2a3.439,3.439,0,0,0,.334,4.747,3.334,3.334,0,0,0,4.689-.018Z" transform="translate(-175.523 -14.012)" fill="#12263f"/>
        <path id="Trazado_1273652" data-name="Trazado 1273652" d="M20.43,16.292c-.011,1.93-1.834,2.44-3.074,4.121a3.389,3.389,0,0,1-2.885,1.435l-3-.013a20.7,20.7,0,0,0-.958,3.076,3,3,0,1,1-5.8-1.529,22.542,22.542,0,0,1,2.428-6.261c.107-.185.225-.35.106-.541-.08-.129-.28-.349-.506-.156a2.485,2.485,0,0,1-3.437-.2,2.573,2.573,0,0,1,.026-3.513L.623,9.968A2.236,2.236,0,0,1,.631,6.862L7.029.427A1.242,1.242,0,0,1,8.85.372l1.17,1.175c1.387,1.393,1.008,3.392,1.507,2.975a2.565,2.565,0,0,1,3.487.126,2.539,2.539,0,0,1,.032,3.51,1.234,1.234,0,0,0,.443.518A22.207,22.207,0,0,1,22.1,6.1a2.988,2.988,0,0,1,1.613,5.75,24.553,24.553,0,0,0-3.26,1.034ZM4.009,11.085l4.7-4.7a2.61,2.61,0,0,0,.456-3.3A8.215,8.215,0,0,0,7.956,1.762L1.885,7.832A.867.867,0,0,0,1.88,9Zm9.878-4.039a.91.91,0,0,0-.1-1.318.882.882,0,0,0-1.178.042ZM7.94,15.027a4.116,4.116,0,0,0,5.785-5.854l-2.89-2.907a13.071,13.071,0,0,1-1.25,1.55l-4.44,4.446ZM14.826,20.2a1.191,1.191,0,0,0,.932-.421,14.325,14.325,0,0,1,2.551-2.555,1.3,1.3,0,0,0,.49-1.069l.01-3.841c0-.406.3-.606.616-.748a18.724,18.724,0,0,1,3.637-1.2,1.385,1.385,0,0,0,1.03-1.81,1.432,1.432,0,0,0-1.773-.871,20.745,20.745,0,0,0-6.133,2.472,5.748,5.748,0,0,1-7.358,7.271,21.2,21.2,0,0,0-2.554,6.416,1.379,1.379,0,0,0,1.111,1.7A1.4,1.4,0,0,0,9,24.34a17.95,17.95,0,0,1,1.162-3.514.838.838,0,0,1,.753-.608Zm-9.08-5.091L4.5,13.877a.873.873,0,0,0,.016,1.258.833.833,0,0,0,1.228-.022" transform="translate(0 0)" fill="#12263f"/>
        <path id="Trazado_1273653" data-name="Trazado 1273653" d="M218.211,236.4a2.545,2.545,0,0,1-3.552,0,2.573,2.573,0,0,1-.131-3.578c.047-.145-.236-.555-.38-.52a24.2,24.2,0,0,1-6.582,2.654,3.052,3.052,0,0,1-3.836-2.134,3.022,3.022,0,0,1,2.407-3.721,12.587,12.587,0,0,0,2.859-.914l.043-3.644c.019-1.6,1.8-2.23,3.1-3.943a3.108,3.108,0,0,1,2.573-1.34l3.221-.014a17.317,17.317,0,0,0,1.021-3.185,2.975,2.975,0,0,1,3.52-2.1,2.944,2.944,0,0,1,2.3,3.393,21.94,21.94,0,0,1-2.47,6.618c.069.183.492.527.64.414a2.651,2.651,0,0,1,3.491.1,2.6,2.6,0,0,1,.107,3.6l1.984,2.1a2.262,2.262,0,0,1-.3,3.172l-.649.623a2.153,2.153,0,0,1-.6,2l-3.2,3.152a2.21,2.21,0,0,1-3-.2Zm-7.6-7.647a.755.755,0,0,1-.322.628,16.813,16.813,0,0,1-3.9,1.346,1.377,1.377,0,1,0,.582,2.691,19.952,19.952,0,0,0,6.444-2.609,5.855,5.855,0,0,1,1.365-6.126,5.925,5.925,0,0,1,6.03-1.4,19.483,19.483,0,0,0,2.379-6.333,1.323,1.323,0,0,0-1.23-1.412,1.378,1.378,0,0,0-1.492,1.109,17.356,17.356,0,0,1-1.345,3.895c-.134.265-.573.367-.85.369l-3.988.034c-.506,0-1.452,1.615-3.082,2.859a1.438,1.438,0,0,0-.589,1.183Zm14.489.272-3.535-3.465a4.2,4.2,0,0,0-5.858,5.983l2.023,2.04,2.686-2.628c1.526-1.493,3.54.133,4.684-1.93m.269-2.06a.927.927,0,0,0-.092-1.323.95.95,0,0,0-1.247-.014Zm.5,7.847a.491.491,0,0,0-.023-.679.792.792,0,0,1,.241-1.251,3.621,3.621,0,0,0,1.074-.716.73.73,0,0,0,.024-1.034l-.966-.931a3.532,3.532,0,0,1-3.067,1.646,2.066,2.066,0,0,0-2.023.638l-2.258,2.238,2.9,2.926a.776.776,0,0,0,1.171.084Zm-8.825.422-1.32-1.314a.962.962,0,0,0,.078,1.336.907.907,0,0,0,1.242-.022" transform="translate(-175.499 -184.346)" fill="#12263f"/>
        <path id="Trazado_1273654" data-name="Trazado 1273654" d="M21.011,221.612l.973,1.832a5.7,5.7,0,0,1,5.989,1.251,5.794,5.794,0,0,1,1.37,6.167,20.628,20.628,0,0,0,6.421,2.56,1.377,1.377,0,1,0,.579-2.692,18.625,18.625,0,0,1-3.715-1.236.856.856,0,0,1-.549-.819l0-3.862a1.209,1.209,0,0,0-.479-.936,13.662,13.662,0,0,1-2.483-2.483,1.172,1.172,0,0,0-.935-.475l-3.854-.01a.909.909,0,0,1-.727-.348,16.824,16.824,0,0,1-1.31-3.8,1.413,1.413,0,0,0-1.373-1.228,1.3,1.3,0,0,0-1.383,1.3c-.021,1.1.847,2.006-.241,2.5a.773.773,0,0,1-1-.514l-.342-1.462a2.893,2.893,0,0,1,2.315-3.388A2.976,2.976,0,0,1,23.8,216.2a21.135,21.135,0,0,0,.958,3.071l3.41,0c1.938,0,2.35,1.693,4.137,3.064a3.123,3.123,0,0,1,1.407,2.483l.015,3.4a18.692,18.692,0,0,0,2.975.928,2.983,2.983,0,0,1,2.278,3.66,3.062,3.062,0,0,1-3.928,2.139,23.832,23.832,0,0,1-6.407-2.6c-.153-.091-.229.036-.271.094-.061.082-.132.236-.037.348a2.53,2.53,0,0,1-3.716,3.428,5.743,5.743,0,0,1-8.034-8.066,2.511,2.511,0,0,1-.04-3.549,2.569,2.569,0,0,1,3.519-.109c.1.089.5-.194.451-.323l-.93-1.8a.8.8,0,0,1,1.423-.748m2.863,13.064,3.264-3.283a4.052,4.052,0,0,0-.314-5.551,3.945,3.945,0,0,0-5.437-.192l-3.321,3.295a4.029,4.029,0,0,0,.166,5.616,3.974,3.974,0,0,0,5.641.115m-4.926-8.989a.929.929,0,0,0-1.256.058.977.977,0,0,0-.022,1.217Zm6.878,9.415a.891.891,0,0,0,1.215-.014.841.841,0,0,0,.039-1.241Z" transform="translate(-13.282 -184.35)" fill="#12263f"/>
        <path id="Trazado_1273655" data-name="Trazado 1273655" d="M136.942,145.17a.812.812,0,1,1,.816,1.4,9.65,9.65,0,1,1,2.88-3.021.82.82,0,1,1-1.438-.775,8.032,8.032,0,1,0-2.258,2.393" transform="translate(-105.742 -111.095)" fill="#12263f"/>
        <path id="Trazado_1273656" data-name="Trazado 1273656" d="M174.407,199.541c1.713.266,1.082-2.013,2.206-2.036a.794.794,0,0,1,.842.773,2.885,2.885,0,0,1-2.648,2.891,2.933,2.933,0,0,1-3.105-2.638.845.845,0,0,1,.632-1.006.816.816,0,0,1,.992.757,1.256,1.256,0,0,0,1.081,1.26" transform="translate(-147.973 -170.219)" fill="#12263f"/>
        <path id="Trazado_1273657" data-name="Trazado 1273657" d="M212.729,182.138a.786.786,0,0,1-.748-.87.815.815,0,1,1,1.629-.009.817.817,0,0,1-.881.879" transform="translate(-182.695 -155.5)" fill="#12263f"/>
        <path id="Trazado_1273658" data-name="Trazado 1273658" d="M162.18,182.1a.886.886,0,0,1-.017-1.646.842.842,0,0,1,1.073.7.851.851,0,0,1-1.057.943" transform="translate(-139.286 -155.491)" fill="#12263f"/>
        <path id="Trazado_1273659" data-name="Trazado 1273659" d="M293.869,84.8c-.089.778,1.167.167,1.425.973a.824.824,0,0,1-.327.985,1.883,1.883,0,0,1-2.04-.381,2.025,2.025,0,0,1-.647-1.853.8.8,0,0,1,.931-.7.791.791,0,0,1,.658.972" transform="translate(-251.873 -72.236)" fill="#12263f"/>
        <path id="Trazado_1273660" data-name="Trazado 1273660" d="M297.583,68.316a.789.789,0,0,1,.966.566.864.864,0,0,1-.637,1.022.8.8,0,0,1-.974-.549.84.84,0,0,1,.645-1.039" transform="translate(-255.884 -58.855)" fill="#12263f"/>
        <path id="Trazado_1273661" data-name="Trazado 1273661" d="M318.721,89.79a.791.791,0,0,1,1.163.491.873.873,0,0,1-.5.986.817.817,0,0,1-1.059-.381.794.794,0,0,1,.394-1.1" transform="translate(-274.273 -77.303)" fill="#12263f"/>
        <path id="Trazado_1273662" data-name="Trazado 1273662" d="M72.231,84.121a.818.818,0,0,1-.68-.988.84.84,0,0,1,.983-.615c1.1.129.3-1.473,1.323-1.676a.784.784,0,0,1,.964.608,2.242,2.242,0,0,1-.573,2,2.219,2.219,0,0,1-2.016.669" transform="translate(-61.648 -69.657)" fill="#12263f"/>
        <path id="Trazado_1273663" data-name="Trazado 1273663" d="M78.733,62.991a.83.83,0,0,1,1.122.512.794.794,0,0,1-.427,1.014.862.862,0,0,1-1.1-.438.788.788,0,0,1,.4-1.089" transform="translate(-67.43 -54.223)" fill="#12263f"/>
        <path id="Trazado_1273664" data-name="Trazado 1273664" d="M54.3,89.274a.908.908,0,0,1-.62-.8.773.773,0,0,1,.71-.786.841.841,0,0,1,.966.9.8.8,0,0,1-1.056.68" transform="translate(-46.264 -75.571)" fill="#12263f"/>
        <path id="Trazado_1273665" data-name="Trazado 1273665" d="M300.042,305.536c-.106.958-1.213.447-1.547.831-.3.347.1,1.361-.793,1.558a.819.819,0,0,1-.943-.574,2.211,2.211,0,0,1,.539-2.047,2.234,2.234,0,0,1,2.18-.669.742.742,0,0,1,.564.9" transform="translate(-255.699 -262.512)" fill="#12263f"/>
        <path id="Trazado_1273666" data-name="Trazado 1273666" d="M301.248,332.838a.841.841,0,0,1,1.139.338.812.812,0,0,1-1.381.852.772.772,0,0,1,.243-1.19" transform="translate(-259.265 -286.767)" fill="#12263f"/>
        <path id="Trazado_1273667" data-name="Trazado 1273667" d="M325.368,308.727a.85.85,0,0,1,1.177.313.8.8,0,0,1-.376,1.145.843.843,0,0,1-1.006-.285.769.769,0,0,1,.206-1.173" transform="translate(-280.082 -265.974)" fill="#12263f"/>
        <path id="Trazado_1273668" data-name="Trazado 1273668" d="M72.21,308.731c-1.027-.13-.63-1.243-.914-1.548-.309-.333-1.29.086-1.5-.719a.81.81,0,0,1,.449-.965,2.123,2.123,0,0,1,2.128.479,2.165,2.165,0,0,1,.632,2.157.822.822,0,0,1-.8.6" transform="translate(-60.131 -263.195)" fill="#12263f"/>
        <path id="Trazado_1273669" data-name="Trazado 1273669" d="M52.443,310.953a.808.808,0,0,1,1.08.459.875.875,0,0,1-.512,1.081A.789.789,0,0,1,52,312.105a.824.824,0,0,1,.44-1.152" transform="translate(-44.743 -267.942)" fill="#12263f"/>
        <path id="Trazado_1273670" data-name="Trazado 1273670" d="M77.144,335.333a.833.833,0,0,1,1.005.511.854.854,0,0,1-.469,1.053.8.8,0,0,1-1.07-.384.879.879,0,0,1,.533-1.18" transform="translate(-65.975 -288.975)" fill="#12263f"/>
      </g>
    </g>
  </g>
</svg>
