<svg xmlns="http://www.w3.org/2000/svg" xmlns:xlink="http://www.w3.org/1999/xlink" width="96" height="96" viewBox="0 0 96 96">
  <defs>
    <clipPath id="clip-path">
      <rect id="Rectángulo_465327" data-name="Rectángulo 465327" width="54.158" height="54.193" fill="#12263f"/>
    </clipPath>
  </defs>
  <g id="Grupo_1211031" data-name="Grupo 1211031" transform="translate(-735.745 -9122)">
    <g id="Grupo_1188527" data-name="Grupo 1188527" transform="translate(-728.818 -89.375)">
      <g id="Grupo_1188526" data-name="Grupo 1188526">
        <path id="Trazado_1033015" data-name="Trazado 1033015" d="M96,47.778A48,48,0,1,1,48,0,47.889,47.889,0,0,1,96,47.778" transform="translate(1464.564 9211.818)" fill="#ebffe0"/>
        <path id="Trazado_1033017" data-name="Trazado 1033017" d="M374.691,757.713l-.2.008a.74.74,0,0,0,.2-.008" transform="translate(1131.201 8546.583)" fill="#ffe4b3"/>
        <path id="Trazado_1033018" data-name="Trazado 1033018" d="M342.621,99.876l-.041.008-.2.065Z" transform="translate(1158.943 9116.164)" fill="#ffe4b3"/>
        <path id="Trazado_1033019" data-name="Trazado 1033019" d="M80.427,94.229a41.8,41.8,0,0,1,3.407-5.117c1.022-1.43,2.127-2.505,3.131-3.67.537-.551,1.107-1.071,1.675-1.635l.874-.861.988-.831a42.841,42.841,0,0,1,4.961-3.764,41.965,41.965,0,0,1,13.287-5.271c2.094-.883,6.05-.794,8.661-1.11l1.013.241a10.76,10.76,0,0,1,2.869.112l-.062.048c1.352.041,2.866.258,3.531.345l-.065.044,1.614.3-.293.022c.584.083,1.175.16,1.758.273l1.713.445c.563.158,1.125.3,1.661.482l1.539.609-.086-.28c.528.23,1.016.432,1.475.614s.862.4,1.26.574c.789.36,1.5.656,2.2.952.67.348,1.328.692,2.036,1.091.352.2.724.405,1.1.655.365.267.748.556,1.154.877l-.078.015c.584.3,1.128.6,1.64.91.5.328.937.688,1.371,1.03s.841.692,1.24,1.036.737.747,1.1,1.116c1.459,1.488,2.808,3.078,4.708,5.018-.468-.49.081.3,0,.294l1.17,1.437c.378.466.69.941,1,1.325.6.777,1.085,1.276,1.291,1.172.965,1.557.633,1.359.611,1.646.155-.1,1.06,1.213,1.723,2.481-.123-.183-.23-.375-.366-.551.629,1.21,1.256,2.426,1.855,3.655.022-.3,0-.59.006-.887.8,2.036-.2.691.7,2.576l.282-.142a17.451,17.451,0,0,1,.66,1.962c.149.622.27,1.209.384,1.792s.232,1.161.334,1.775c.082.62.178,1.269.306,1.981a65.415,65.415,0,0,1,1.594,8.95,46.076,46.076,0,0,1-.056,9.144l-.122,1.132-.061.566-.114.554-.461,2.21a15.544,15.544,0,0,1-.611,2.151c-.235.7-.447,1.413-.7,2.1l-.917,1.986a15.794,15.794,0,0,1-.986,1.915,26.575,26.575,0,0,1-2.405,3.442l-.488.238c-.371-.042-1.515,2.672-2.094,2.736-.26.341-.5.7-.786,1.028-.306.207-.9.684-.493.186a15.244,15.244,0,0,0-1.439,1.5c-.362.233-.75.432-1.124.643-1.886,1.387-3.667,2.621-5.568,3.749a32.54,32.54,0,0,1-6.288,2.926,84.641,84.641,0,0,1-11.452,2.462,88.983,88.983,0,0,1-12.206.8,45.1,45.1,0,0,1-14.409-2.286,60.716,60.716,0,0,1-13.085-6.251,3.245,3.245,0,0,0-.941-.534c-.547-.444-1.073-.912-1.612-1.366l-.8-.684-.734-.756-1.464-1.513-1.305-1.648-.282-.351-.334-.414-.388-.593a30.9,30.9,0,0,1-2.157-3.593,19.02,19.02,0,0,1-1.14-2.368c-.33-.847-.729-1.693-1.031-2.571-.537-1.779-1.15-3.522-1.484-5.1-.737-3.134-1.067-5.386-1.434-4.806a9,9,0,0,0-.342,3.254,32.714,32.714,0,0,0,.235,3.691c.1.741.261,1.543.417,2.424l.257,1.376c.089.478.263.952.4,1.458l-.152-.184.594,1.688.284.79c.108.251.231.491.344.729.463.947.885,1.826,1.333,2.634a21.4,21.4,0,0,0,3.229,4.111,1.784,1.784,0,0,0,.4.825c.125.176.269.37.433.568l.571.57c.805.766,1.652,1.595,2.053,2.023l-.111-.044c1.3.842,2.4,1.97,3.665,2.881a19.571,19.571,0,0,0,1.875,1.371,18.278,18.278,0,0,0,1.994,1.056,1.437,1.437,0,0,1-.824-.28c.476.25.981.552,1.5.8l1.508.7a5.782,5.782,0,0,1,1.629.945,52.663,52.663,0,0,0,8.038,2.562,35.3,35.3,0,0,0,3.9.714,19.528,19.528,0,0,0,3.059.215l-.23.046c1.861-.034,2.378.217,4.442.228.11.043.254.072.23.085,2-.138,5.818.144,7.435-.04l.109.175c1.327-.056,2.653-.129,3.977-.254-.5.032-.992.051-1.489.064.476-.511,3.037.128,5.877-.6,2.716-.335,5.194-1.969,7.9-2.523,1.207-.6-1.012.7.839-.052.142.229-.842.433-.288.478,1.831-.715,3.164-.766,5.342-1.9l.173.141c2.745-1.622,5.5-2.536,7.062-4.051a11.272,11.272,0,0,1,2.334-1.51,6.512,6.512,0,0,0,2.206-1.86l1.162-.735c1.066-1.042.522-.972,1.707-2.111.073.2,1.45-1.5.96-.654a22.416,22.416,0,0,0,3.295-4.807l.715-1.4.664-1.49c.466-1.01,1.02-2.039,1.468-3.189a10.057,10.057,0,0,1,.5-2.224,8.237,8.237,0,0,0,.315-2.036,14.452,14.452,0,0,0,.561-2.093c.137-.854.25-1.355.229.04,0,.241-.115.649-.159.611l.122.361a7.593,7.593,0,0,0,.456-1.976c.082-.649.127-1.285.161-1.92a16.32,16.32,0,0,0,0-1.915c-.014-.646-.014-1.3.027-1.992-.1.815-.122,1.9-.229,1.168.022-.848.129-1.7.079-2.545l.188.528-.062-3.806-.183.538a14.58,14.58,0,0,0-.338-4.591c-.305-.907-.028,1.775-.375-.144-.183-1.216-.321-2.764-.647-4.361a42.437,42.437,0,0,0-1.2-4.783c-.126.352-.389-.456-.712-1.267l.157-.163c-.675-1.538-.754-1.834-.74-2.168-.006-.324-.006-.654-.744-2.155l.24.217c-.236-.219-.481-.431-.743-.635a5.9,5.9,0,0,1-1.04-2.11,5.285,5.285,0,0,0-1.329-2.239c.683,1.128-.082.747-.8-.692l.371.259a15.676,15.676,0,0,1-.958-1.511c.344.414.412.082-.359-1l.7.612-1.683-1.893a16.825,16.825,0,0,0-1.884-2.73c-.339-.437-.656-.847-.9-1.2a4.635,4.635,0,0,1-.547-.809s-.67-.8-1.451-1.67a10.827,10.827,0,0,0-1.245-1.2,5.941,5.941,0,0,0-.983-.726c.74.447-.892-1.2-.267-.908-.446-.326-1.367-.909-2.25-1.569-.443-.328-.882-.67-1.265-.992s-.751-.567-.984-.8l.217.116c-3.8-2.948-7.139-3.957-11.012-5.707.1.284-1.969-.613-1.542-.14-2.143-.493-4.016-1.2-5.637-1.553a12.427,12.427,0,0,0-2.157-.414,3.684,3.684,0,0,0-1.59.2c-1.971-.22-2.32-.46-3.349-.558L120,68.96l-2.376-.067c-.671,0-1.244.046-1.787.059-1.085.052-2.054.026-3.435.2a10.437,10.437,0,0,0-1.587.454,17.964,17.964,0,0,1-2.385.532c.753-.317-.233-.1-1.141.079.574-.138.745-.234-.477-.114-.157.085-.412.158-.642.259-.013-.01-.062-.007-.042-.031-1.478.474-1.2.452-.506.282-.028.035.038.05.263.037a24.548,24.548,0,0,0-2.782.662c-.9.288-1.609.567-1.753.457a35.975,35.975,0,0,0-10.14,5.994c-.441.135.207-.5,1.084-1.207l-2.188,1.655c-.116-.182,1.2-1.026,1.862-1.557a20.761,20.761,0,0,0-2.084,1.392c-.634.562-1.257,1.161-1.889,1.77-.653.589-1.238,1.265-1.861,1.931s-1.326,1.284-1.972,1.985l-.377.716-.167.156c.076.049-.374.78-.71,1.228-.484.3-.352-.321-1.44,1.221a13.658,13.658,0,0,0-1.677,2.391L78.264,92.33c.565-.883.486-.537.307-.124a19.579,19.579,0,0,0-1.119,1.89l-.268-.036c.192-.109-.035.463-.317,1.1a10.276,10.276,0,0,0-.585,1.559c-.38.413.421-1.4.439-1.656-.814,1.7-.957,2.147-1.158,2.572a28.127,28.127,0,0,0-1.045,2.615c-.511,1.944.351-.257.23.716-.606,1.652-.872,3.353-1.6,5.238l.4-.551c-.37,1.6-.562,2.9-.856,4.034-.241,1.149-.442,2.17-.741,3.245-.124,1.526-.078,2.893-.107,4.088.028,1.2.131,2.242.193,3.139a18.244,18.244,0,0,0,.314,2.278c.114.628.22,1.129.316,1.523.4,1.574.679,1.446.8.552a35.559,35.559,0,0,0,.3-3.815c.133-1.366.207-2.514.207-2.514a103.412,103.412,0,0,1,1.934-11.62l.71-2.76c.265-.942.6-1.9.928-2.918a47.962,47.962,0,0,1,2.887-6.659" transform="translate(1392.723 9142.481)" fill="#3a552a"/>
      </g>
    </g>
    <g id="Grupo_1212260" data-name="Grupo 1212260" transform="translate(756.203 9140)">
      <g id="Grupo_1212259" data-name="Grupo 1212259" clip-path="url(#clip-path)">
        <path id="Trazado_1273680" data-name="Trazado 1273680" d="M54.151,102.407l-54.067,0-.062-1.841,12.635,0,.011-13a18.947,18.947,0,1,1,28.859,0l.011,12.995,12.638,0ZM27.1,67.707,27.1,70.8l1.808-.049-.03-5.544a2.708,2.708,0,0,1-1.7-3.184A2.675,2.675,0,0,1,29.9,59.959a2.714,2.714,0,0,1,2.594,2.332,2.764,2.764,0,0,1-1.78,2.933L30.7,70.8h1.773l.048-2.192,1.138-1.138a2.729,2.729,0,0,1,4.416-3.085,2.743,2.743,0,0,1,.258,3.446,2.773,2.773,0,0,1-3.395.909,1.264,1.264,0,0,0-.629.772l.02,1.3,7.2-.008.023,13.676a17.132,17.132,0,1,0-28.92,0l.027-10.065,6.314.008L18.984,73,17.4,71.418a2.662,2.662,0,0,1-3.413-.993,2.689,2.689,0,0,1,.415-3.416,2.755,2.755,0,0,1,3.411-.259,2.7,2.7,0,0,1,.906,3.383l2.057,2.1,0,2.181h2.716v-3.61l1.782-.019a7.543,7.543,0,0,0-.09-2.344l-1.8-1.883a2.62,2.62,0,0,1-3.542-.123A2.708,2.708,0,1,1,24.35,64.98Zm2.505-5.93a.894.894,0,0,0-.619,1.264.862.862,0,0,0,1.095.47.927.927,0,0,0,.581-1.089.916.916,0,0,0-1.057-.645m-8.3,1.884a.865.865,0,0,0-.447,1.2.924.924,0,0,0,1.191.416.878.878,0,0,0,.487-1.107.907.907,0,0,0-1.231-.506m14.6,1.742a.883.883,0,0,0-.628,1.186.915.915,0,0,0,1.055.561.938.938,0,0,0,.655-1.1.908.908,0,0,0-1.083-.644M15.976,68.138a.874.874,0,0,0-.508,1.242.9.9,0,1,0,.508-1.242M36.121,96.076l.011,4.491,3.6-.011V72.577H25.3v27.979l3.6.011,0-4.489Zm-14.433.016v4.464l1.8-.009,0-24.364-9.025.019,0,24.338,1.8.021,0-4.492Zm-1.8,4.461-.007-2.7-1.805.037.008,2.671Zm14.434.009,0-2.717H30.706l0,2.726Z" transform="translate(-0.019 -48.217)" fill="#12263f"/>
        <path id="Trazado_1273681" data-name="Trazado 1273681" d="M28.9,1.846,25.293,1.8,24.061,5.581,18.925,6.964,16,4.3,12.887,6.119l.845,3.844L10.024,13.71l-3.9-.831L4.306,16l2.654,2.9-1.377,5.16L1.819,25.287v3.6l3.768,1.2,1.364,5.2L4.306,38.15l1.814,3.119,3.9-.827,1.413,1.484-1.245,1.257-.773-.772-4.188.91L2.068,37.895l2.889-3.109L4.1,31.532,0,30.191V23.963l4.066-1.314.9-3.245-2.9-3.15,3.119-5.4,4.18.913,2.4-2.37-.92-4.182L16.263,2.07,19.37,4.956,22.624,4.1,23.963,0H30.2l1.34,4.1,3.21.868L37.9,2.062l5.41,3.153L42.4,9.392l2.368,2.386,4.173-.941,3.154,5.413-2.9,3.153.869,3.215,4.1,1.345V30.2L50.09,31.5l-.9,3.243,2.9,3.15-3.153,5.419-4.179-.922-.653.62-1.233-1.232,1.271-1.336,3.894.827,1.814-3.122-2.655-2.9L48.573,30.1,52.337,28.9l.02-3.606-3.778-1.23-1.384-5.142L49.851,16l-1.806-3.114-3.847.844L40.446,10.02l.824-3.906L38.153,4.3l-2.9,2.657-5.155-1.37Z" transform="translate(0 0)" fill="#12263f"/>
        <path id="Trazado_1273682" data-name="Trazado 1273682" d="M198.431,308.2l-10.8,0,0-1.777h10.8Z" transform="translate(-160.538 -262.178)" fill="#12263f"/>
        <path id="Trazado_1273683" data-name="Trazado 1273683" d="M189.369,183.166h-1.806v-1.773h1.8Z" transform="translate(-160.48 -155.2)" fill="#12263f"/>
        <path id="Trazado_1273684" data-name="Trazado 1273684" d="M220.535,183.212l-1.838,0,0-1.753h1.832Z" transform="translate(-187.116 -155.261)" fill="#12263f"/>
        <path id="Trazado_1273685" data-name="Trazado 1273685" d="M251.841,183.152l-1.81.012v-1.778l1.8,0Z" transform="translate(-213.927 -155.192)" fill="#12263f"/>
        <path id="Trazado_1273686" data-name="Trazado 1273686" d="M189.369,208.166h-1.806v-1.773h1.8Z" transform="translate(-160.48 -176.59)" fill="#12263f"/>
        <path id="Trazado_1273687" data-name="Trazado 1273687" d="M189.369,258.166h-1.806v-1.773h1.8Z" transform="translate(-160.48 -219.37)" fill="#12263f"/>
        <path id="Trazado_1273688" data-name="Trazado 1273688" d="M220.535,258.212l-1.838,0,0-1.753h1.832Z" transform="translate(-187.116 -219.431)" fill="#12263f"/>
        <path id="Trazado_1273689" data-name="Trazado 1273689" d="M251.841,258.152l-1.81.012v-1.778l1.8,0Z" transform="translate(-213.927 -219.363)" fill="#12263f"/>
        <path id="Trazado_1273690" data-name="Trazado 1273690" d="M220.535,233.212l-1.838,0,0-1.753h1.832Z" transform="translate(-187.116 -198.041)" fill="#12263f"/>
        <path id="Trazado_1273691" data-name="Trazado 1273691" d="M189.369,283.166h-1.806v-1.773h1.8Z" transform="translate(-160.48 -240.761)" fill="#12263f"/>
        <path id="Trazado_1273692" data-name="Trazado 1273692" d="M220.535,283.212l-1.838,0,0-1.753h1.832Z" transform="translate(-187.116 -240.821)" fill="#12263f"/>
        <path id="Trazado_1273693" data-name="Trazado 1273693" d="M251.841,283.152l-1.81.012v-1.778l1.8,0Z" transform="translate(-213.927 -240.753)" fill="#12263f"/>
        <path id="Trazado_1273694" data-name="Trazado 1273694" d="M189.369,233.166h-1.806v-1.773h1.8Z" transform="translate(-160.48 -197.98)" fill="#12263f"/>
        <path id="Trazado_1273695" data-name="Trazado 1273695" d="M251.841,208.152l-1.81.012v-1.778l1.8,0Z" transform="translate(-213.927 -176.583)" fill="#12263f"/>
        <path id="Trazado_1273696" data-name="Trazado 1273696" d="M220.535,208.212l-1.838,0,0-1.753h1.832Z" transform="translate(-187.116 -176.651)" fill="#12263f"/>
        <path id="Trazado_1273697" data-name="Trazado 1273697" d="M251.841,233.152l-1.81.012v-1.778l1.8,0Z" transform="translate(-213.927 -197.973)" fill="#12263f"/>
        <path id="Trazado_1273698" data-name="Trazado 1273698" d="M114.363,239.347l-1.813.03v-1.842l1.812,0Z" transform="translate(-96.298 -203.236)" fill="#12263f"/>
        <path id="Trazado_1273699" data-name="Trazado 1273699" d="M139.363,239.347l-1.813.03v-1.842l1.812,0Z" transform="translate(-117.688 -203.236)" fill="#12263f"/>
        <path id="Trazado_1273700" data-name="Trazado 1273700" d="M114.34,301.78h-1.81l-.006-1.815,1.809,0Z" transform="translate(-96.276 -256.651)" fill="#12263f"/>
        <path id="Trazado_1273701" data-name="Trazado 1273701" d="M139.34,301.78h-1.81l-.006-1.815,1.809,0Z" transform="translate(-117.667 -256.651)" fill="#12263f"/>
        <path id="Trazado_1273702" data-name="Trazado 1273702" d="M114.34,270.5l-1.81.042,0-1.836,1.775,0Z" transform="translate(-96.278 -229.908)" fill="#12263f"/>
        <path id="Trazado_1273703" data-name="Trazado 1273703" d="M139.34,270.5l-1.81.042,0-1.836,1.775,0Z" transform="translate(-117.668 -229.908)" fill="#12263f"/>
        <path id="Trazado_1273704" data-name="Trazado 1273704" d="M114.369,208.166h-1.806v-1.773h1.8Z" transform="translate(-96.31 -176.59)" fill="#12263f"/>
        <path id="Trazado_1273705" data-name="Trazado 1273705" d="M139.369,208.166h-1.806v-1.773h1.8Z" transform="translate(-117.7 -176.59)" fill="#12263f"/>
      </g>
    </g>
  </g>
</svg>
