<svg xmlns="http://www.w3.org/2000/svg" xmlns:xlink="http://www.w3.org/1999/xlink" width="128" height="128" viewBox="0 0 128 128">
  <defs>
    <clipPath id="clip-path">
      <rect id="Rectángulo_459899" data-name="Rectángulo 459899" width="128" height="128" fill="none"/>
    </clipPath>
    <clipPath id="clip-path-2">
      <rect id="Rectángulo_465318" data-name="Rectángulo 465318" width="56.756" height="58.149" fill="#12263f"/>
    </clipPath>
  </defs>
  <g id="Grupo_1212470" data-name="Grupo 1212470" transform="translate(-1088.457 -1023.671)">
    <g id="Grupo_1209809" data-name="Grupo 1209809" transform="translate(1088.457 1023.671)">
      <g id="Grupo_1188515" data-name="Grupo 1188515" clip-path="url(#clip-path)">
        <path id="Trazado_1033015" data-name="Trazado 1033015" d="M128,64A64,64,0,1,1,64,0a64,64,0,0,1,64,64" fill="#fff"/>
        <path id="Trazado_1033016" data-name="Trazado 1033016" d="M154.441,185.937l.625-.59c-.045-.02-.215.119-.625.59" transform="translate(-131.184 -157.435)" fill="#e4cbc1"/>
        <path id="Trazado_1033017" data-name="Trazado 1033017" d="M374.691,757.713l-.2.008a.74.74,0,0,0,.2-.008" transform="translate(-318.095 -643.61)" fill="#e4cbc1"/>
        <path id="Trazado_1033018" data-name="Trazado 1033018" d="M342.621,99.876l-.041.008-.2.065Z" transform="translate(-290.823 -84.836)" fill="#e4cbc1"/>
        <path id="Trazado_1033019" data-name="Trazado 1033019" d="M81.364,97.171a46.672,46.672,0,0,1,3.779-5.711c1.133-1.6,2.359-2.8,3.473-4.1.6-.615,1.228-1.2,1.858-1.825l.97-.96,1.1-.927a47.547,47.547,0,0,1,5.5-4.2,46.375,46.375,0,0,1,14.737-5.883c2.322-.985,6.71-.887,9.606-1.239l1.123.269a11.86,11.86,0,0,1,3.182.125l-.069.054c1.5.046,3.178.288,3.916.385l-.072.049,1.79.338-.325.025c.647.092,1.3.178,1.95.3l1.9.5c.625.176,1.248.337,1.843.538l1.707.68-.095-.313c.586.256,1.127.482,1.636.685s.956.45,1.4.64c.875.4,1.663.733,2.437,1.063.743.389,1.473.772,2.258,1.217.39.226.8.452,1.22.731.4.3.829.621,1.28.979l-.087.017c.647.335,1.251.674,1.819,1.016.55.366,1.04.768,1.521,1.149s.933.772,1.375,1.157.817.833,1.223,1.245c1.618,1.661,3.114,3.436,5.222,5.6-.519-.547.09.338,0,.328l1.3,1.6c.419.52.765,1.051,1.108,1.479.671.868,1.2,1.425,1.432,1.308,1.071,1.738.7,1.516.678,1.837.172-.117,1.176,1.354,1.91,2.769-.137-.2-.255-.419-.406-.615.7,1.351,1.393,2.708,2.057,4.079.025-.338,0-.658.006-.99.887,2.273-.217.771.773,2.875l.313-.159a19.563,19.563,0,0,1,.732,2.189c.165.694.3,1.349.426,2s.257,1.3.371,1.981c.091.692.2,1.416.339,2.21a73.426,73.426,0,0,1,1.768,9.989,51.748,51.748,0,0,1-.063,10.205l-.136,1.264-.068.631-.127.619-.512,2.466a17.435,17.435,0,0,1-.677,2.4c-.26.785-.5,1.577-.779,2.345l-1.018,2.217a17.671,17.671,0,0,1-1.094,2.137,29.664,29.664,0,0,1-2.668,3.842l-.541.266c-.411-.047-1.68,2.982-2.322,3.054-.289.381-.56.782-.872,1.147-.34.231-1,.763-.546.208a16.966,16.966,0,0,0-1.6,1.672c-.4.26-.832.482-1.247.718a74.424,74.424,0,0,1-6.176,4.184,35.986,35.986,0,0,1-6.974,3.266,93.37,93.37,0,0,1-12.7,2.748,98.083,98.083,0,0,1-13.538.888,49.735,49.735,0,0,1-15.981-2.551A67.158,67.158,0,0,1,89.2,160.415a3.592,3.592,0,0,0-1.043-.6c-.607-.5-1.191-1.018-1.788-1.524l-.892-.764-.814-.843L83.038,155l-1.448-1.839-.312-.392-.37-.462-.431-.661a34.528,34.528,0,0,1-2.393-4.01,21.288,21.288,0,0,1-1.264-2.643c-.367-.945-.809-1.89-1.144-2.87-.6-1.985-1.275-3.931-1.646-5.694-.817-3.5-1.184-6.012-1.59-5.364a10.1,10.1,0,0,0-.38,3.632,36.74,36.74,0,0,0,.261,4.12c.111.827.29,1.722.463,2.705l.285,1.536c.1.534.292,1.062.445,1.627l-.169-.205L74,146.362l.315.882c.12.281.257.548.381.813.513,1.057.982,2.038,1.479,2.94a23.866,23.866,0,0,0,3.582,4.589,2,2,0,0,0,.442.92c.138.2.3.413.48.634l.634.637c.893.855,1.832,1.78,2.277,2.258l-.123-.049c1.44.94,2.657,2.2,4.065,3.215a21.712,21.712,0,0,0,2.08,1.531,20.226,20.226,0,0,0,2.212,1.179,1.586,1.586,0,0,1-.914-.312c.528.279,1.088.616,1.669.891l1.672.779a6.405,6.405,0,0,1,1.806,1.055,58.146,58.146,0,0,0,8.915,2.859,38.937,38.937,0,0,0,4.323.8,21.527,21.527,0,0,0,3.393.24l-.255.051c2.064-.038,2.637.242,4.926.254.122.048.282.081.255.1,2.224-.154,6.453.16,8.246-.044l.121.2c1.471-.063,2.943-.144,4.411-.283-.55.035-1.1.057-1.651.072.528-.57,3.368.143,6.519-.667,3.013-.374,5.76-2.2,8.767-2.816,1.338-.666-1.123.779.93-.058.158.256-.934.483-.32.533,2.031-.8,3.509-.855,5.925-2.117l.192.158c3.044-1.81,6.1-2.831,7.832-4.521a12.491,12.491,0,0,1,2.589-1.686,7.231,7.231,0,0,0,2.446-2.076l1.289-.82c1.182-1.163.579-1.085,1.894-2.356.081.221,1.608-1.677,1.065-.73a25.026,25.026,0,0,0,3.654-5.365l.793-1.559.736-1.663c.517-1.127,1.131-2.276,1.628-3.56a11.286,11.286,0,0,1,.554-2.482,9.248,9.248,0,0,0,.349-2.272,16.21,16.21,0,0,0,.622-2.336c.152-.953.277-1.513.255.045,0,.268-.128.724-.177.682l.135.4a8.52,8.52,0,0,0,.506-2.205c.091-.724.141-1.434.179-2.142a18.33,18.33,0,0,0,0-2.137c-.016-.721-.015-1.456.03-2.224-.107.909-.136,2.118-.254,1.3.024-.946.144-1.9.088-2.841l.208.59-.069-4.248-.2.6a16.372,16.372,0,0,0-.374-5.124c-.338-1.012-.031,1.981-.416-.161-.2-1.358-.356-3.084-.717-4.868a47.607,47.607,0,0,0-1.326-5.338c-.14.392-.431-.509-.79-1.414l.174-.182c-.748-1.716-.836-2.047-.821-2.419-.007-.362-.007-.729-.825-2.405l.267.242c-.262-.244-.534-.481-.824-.708a6.605,6.605,0,0,1-1.153-2.355,5.909,5.909,0,0,0-1.474-2.5c.758,1.259-.091.834-.892-.773l.412.289a17.513,17.513,0,0,1-1.063-1.687c.382.462.457.091-.4-1.112l.772.684L165.6,92.049A18.783,18.783,0,0,0,163.509,89c-.376-.488-.727-.946-1-1.338a5.175,5.175,0,0,1-.606-.9s-.743-.9-1.609-1.864a12.043,12.043,0,0,0-1.381-1.336,6.591,6.591,0,0,0-1.09-.81c.821.5-.989-1.34-.3-1.013-.495-.363-1.516-1.015-2.5-1.751-.491-.366-.978-.748-1.4-1.107s-.833-.633-1.091-.89l.241.13c-4.218-3.29-7.918-4.417-12.214-6.37.112.317-2.184-.685-1.71-.156-2.377-.551-4.454-1.343-6.252-1.734a13.7,13.7,0,0,0-2.393-.462,4.062,4.062,0,0,0-1.764.222c-2.186-.246-2.573-.514-3.715-.623l.531-.029-2.636-.075c-.744,0-1.38.051-1.982.066-1.2.058-2.278.029-3.809.226a11.52,11.52,0,0,0-1.761.507,19.819,19.819,0,0,1-2.645.594c.836-.354-.258-.107-1.266.089.637-.154.826-.261-.529-.127-.174.095-.456.176-.712.289-.014-.011-.069-.008-.047-.035-1.639.529-1.333.5-.561.314-.031.039.043.056.292.041a27.084,27.084,0,0,0-3.085.739c-.993.322-1.784.633-1.945.51A39.849,39.849,0,0,0,93.325,78.8c-.489.15.229-.557,1.2-1.347L92.1,79.3c-.129-.2,1.332-1.145,2.065-1.738a23.017,23.017,0,0,0-2.311,1.553c-.7.628-1.394,1.3-2.1,1.976-.724.657-1.373,1.412-2.064,2.155s-1.47,1.433-2.187,2.216l-.418.8-.185.174a4.4,4.4,0,0,1-.788,1.37c-.537.337-.39-.359-1.6,1.363a15.244,15.244,0,0,0-1.861,2.669l-1.695,3.217c.627-.986.539-.6.34-.138a21.883,21.883,0,0,0-1.241,2.11l-.3-.041c.213-.121-.039.517-.352,1.233a11.516,11.516,0,0,0-.648,1.74c-.422.46.467-1.565.487-1.848-.9,1.893-1.062,2.4-1.285,2.87-.185.49-.478.937-1.159,2.919-.567,2.169.389-.287.255.8-.673,1.844-.967,3.743-1.775,5.846l.442-.615c-.41,1.784-.623,3.233-.95,4.5-.267,1.282-.49,2.422-.822,3.621-.138,1.7-.086,3.229-.119,4.563.031,1.339.145,2.5.214,3.5a20.484,20.484,0,0,0,.348,2.542c.127.7.243,1.26.35,1.7.443,1.757.753,1.614.887.617a39.933,39.933,0,0,0,.33-4.258c.147-1.525.229-2.806.229-2.806a116.086,116.086,0,0,1,2.145-12.969l.788-3.08c.294-1.051.671-2.117,1.03-3.257a53.709,53.709,0,0,1,3.2-7.432" transform="translate(-61.023 -58.519)" fill="#3a552a"/>
      </g>
    </g>
    <g id="Grupo_1212242" data-name="Grupo 1212242" transform="translate(1124 1057.596)">
      <g id="Grupo_1212241" data-name="Grupo 1212241" transform="translate(0 1)" clip-path="url(#clip-path-2)">
        <path id="Trazado_1273629" data-name="Trazado 1273629" d="M38.891,42.2l17.2.023c.487,0,.682.539.663.872a.8.8,0,0,1-.746.8l-1.816.023L54.179,54l1.962.083a.732.732,0,0,1,.6.924.849.849,0,0,1-.9.726l-36.365,0-.024,1.188a1.2,1.2,0,0,1-1.974.94L15.488,56.5l-2.029,1.4a1.16,1.16,0,0,1-1.271.1,1.2,1.2,0,0,1-.656-1.029l-.018-1.235-4.942-.015A6.7,6.7,0,0,1,0,49.057,6.618,6.618,0,0,1,6.32,42.247l11.558-.062.015-2.361a2.7,2.7,0,0,1,2.669-2.692l1.646-.01.033-1.961a3.061,3.061,0,0,1,3-2.909l.033-20.1c0-1.047,1.182-1.489,2.172-1.209l.07-2.964a4.214,4.214,0,0,1-3.082-3.062L14.021,4.907c.029.518-.185,1.121.03,1.59l8.285,15.764a1.309,1.309,0,0,1,.943.657,1.163,1.163,0,0,1-.05,1.138l-2.09,3.587a1.142,1.142,0,0,1-.912.549l-14.221,0a1.2,1.2,0,0,1-.933-.668l-2.065-3.6a1.232,1.232,0,0,1,.077-1.146c.112-.244.521-.4.888-.554l8.26-15.7c.248-.471.008-1.122.037-1.621L9.2,4.909a.891.891,0,0,1-.9-.656c-.1-.4.083-1.042.628-1.043l15.5-.019a4.047,4.047,0,0,1,7.91,0l15.5.017c.506,0,.685.562.652.913a.878.878,0,0,1-.918.787L44.5,4.9c.029.5-.211,1.149.037,1.621l8.261,15.7c.365.155.777.306.888.553a1.244,1.244,0,0,1,.075,1.147l-2.063,3.6a1.174,1.174,0,0,1-.924.66l-2.17,0a.854.854,0,0,1,0-1.708l1.725-.033,1.455-2.469h-16.3l1.4,2.489,7.645.005a.863.863,0,1,1,.142,1.721H36.531a1.149,1.149,0,0,1-.9-.546l-2.089-3.587a1.159,1.159,0,0,1-.05-1.138,1.317,1.317,0,0,1,.942-.657L42.719,6.5c.2-.475,0-1.067.029-1.588L32.359,4.9a4.288,4.288,0,0,1-3.11,3.065l.057,2.968c1.024-.26,2.143.12,2.16,1.082l.043,2.453a.879.879,0,0,1-.864.911.915.915,0,0,1-.857-.992l-.011-1.831-2.8.006,0,19.7H29.8l0-13.657a.85.85,0,0,1,.84-.941.835.835,0,0,1,.876.851l.012,13.737a3.1,3.1,0,0,1,2.969,2.624l.04,2.214,1.667.042a2.654,2.654,0,0,1,2.661,2.548ZM27.665,1.825a2.306,2.306,0,0,0-1.459,3.023,2.327,2.327,0,1,0,1.459-3.023M12.311,22.174l-.058-11.963L5.9,22.235Zm8.081.041L14.03,10.208l-.04,12.033Zm22.39,0-.061-11.99-6.358,12Zm8.081.006L44.512,10.208l-.045,12.029ZM19.914,26.46l1.367-2.487-16.268,0,1.441,2.5Zm12.9,10.667,0-1.9A1.246,1.246,0,0,0,31.588,34H25.18a1.245,1.245,0,0,0-1.227,1.23l0,1.9ZM52.461,54.049l.031-2.117-18.281.005a.858.858,0,0,1-.981-.842.868.868,0,0,1,.895-.872l18.368-.013,0-2.537-18.281.005c-.589,0-.964-.272-.983-.8a.852.852,0,0,1,.861-.889l18.4-.008,0-2.081-23.507,0c-.6,0-.939-.287-.978-.825a.755.755,0,0,1,.724-.857l8.408-.022V39.811a1.055,1.055,0,0,0-1.066-.979H20.7a1.1,1.1,0,0,0-1.085,1.121L19.63,42.2l5.113-.01a.887.887,0,0,1,.959.883.846.846,0,0,1-.96.823l-13.805.021a2.121,2.121,0,0,0-1.95,2.144l.026,5.981a2.21,2.21,0,0,0,2.507,2l.012-6.38c-.662.1-1.168-.222-1.2-.782a.84.84,0,0,1,.917-.909l15.6.037c.483,0,.712.689.636.985a.891.891,0,0,1-.991.675l-7.048,0,.018,6.386ZM7.291,51.974,7.3,45.787a3.847,3.847,0,0,1,.616-1.867l-1.056-.026a5.063,5.063,0,0,0-2.125,9.7,6.168,6.168,0,0,0,3.2.411,3.742,3.742,0,0,1-.64-2.029m10.464,3.908.006-8.208H13.233l.014,8.3,1.463-1.034c1.189-.841,1.655.343,3.045.938" transform="translate(0 0)" fill="#12263f"/>
      </g>
    </g>
  </g>
</svg>
