<svg xmlns="http://www.w3.org/2000/svg" xmlns:xlink="http://www.w3.org/1999/xlink" width="128" height="128" viewBox="0 0 128 128">
  <defs>
    <clipPath id="clip-path">
      <rect id="Rectángulo_459899" data-name="Rectángulo 459899" width="128" height="128" fill="none"/>
    </clipPath>
    <clipPath id="clip-path-2">
      <rect id="Rectángulo_465316" data-name="Rectángulo 465316" width="64.678" height="64.68" fill="#12263f"/>
    </clipPath>
  </defs>
  <g id="Grupo_1212468" data-name="Grupo 1212468" transform="translate(-382.457 -1023.671)">
    <g id="Grupo_1209803" data-name="Grupo 1209803" transform="translate(382.457 1023.671)">
      <g id="Grupo_1188515" data-name="Grupo 1188515" clip-path="url(#clip-path)">
        <path id="Trazado_1033015" data-name="Trazado 1033015" d="M128,64A64,64,0,1,1,64,0a64,64,0,0,1,64,64" fill="#fff"/>
        <path id="Trazado_1033016" data-name="Trazado 1033016" d="M154.441,185.937l.625-.59c-.045-.02-.215.119-.625.59" transform="translate(-131.184 -157.435)" fill="#e4cbc1"/>
        <path id="Trazado_1033017" data-name="Trazado 1033017" d="M374.691,757.713l-.2.008a.74.74,0,0,0,.2-.008" transform="translate(-318.095 -643.61)" fill="#e4cbc1"/>
        <path id="Trazado_1033018" data-name="Trazado 1033018" d="M342.621,99.876l-.041.008-.2.065Z" transform="translate(-290.823 -84.836)" fill="#e4cbc1"/>
        <path id="Trazado_1033019" data-name="Trazado 1033019" d="M81.364,97.171a46.672,46.672,0,0,1,3.779-5.711c1.133-1.6,2.359-2.8,3.473-4.1.6-.615,1.228-1.2,1.858-1.825l.97-.96,1.1-.927a47.547,47.547,0,0,1,5.5-4.2,46.375,46.375,0,0,1,14.737-5.883c2.322-.985,6.71-.887,9.606-1.239l1.123.269a11.86,11.86,0,0,1,3.182.125l-.069.054c1.5.046,3.178.288,3.916.385l-.072.049,1.79.338-.325.025c.647.092,1.3.178,1.95.3l1.9.5c.625.176,1.248.337,1.843.538l1.707.68-.095-.313c.586.256,1.127.482,1.636.685s.956.45,1.4.64c.875.4,1.663.733,2.437,1.063.743.389,1.473.772,2.258,1.217.39.226.8.452,1.22.731.4.3.829.621,1.28.979l-.087.017c.647.335,1.251.674,1.819,1.016.55.366,1.04.768,1.521,1.149s.933.772,1.375,1.157.817.833,1.223,1.245c1.618,1.661,3.114,3.436,5.222,5.6-.519-.547.09.338,0,.328l1.3,1.6c.419.52.765,1.051,1.108,1.479.671.868,1.2,1.425,1.432,1.308,1.071,1.738.7,1.516.678,1.837.172-.117,1.176,1.354,1.91,2.769-.137-.2-.255-.419-.406-.615.7,1.351,1.393,2.708,2.057,4.079.025-.338,0-.658.006-.99.887,2.273-.217.771.773,2.875l.313-.159a19.563,19.563,0,0,1,.732,2.189c.165.694.3,1.349.426,2s.257,1.3.371,1.981c.091.692.2,1.416.339,2.21a73.426,73.426,0,0,1,1.768,9.989,51.748,51.748,0,0,1-.063,10.205l-.136,1.264-.068.631-.127.619-.512,2.466a17.435,17.435,0,0,1-.677,2.4c-.26.785-.5,1.577-.779,2.345l-1.018,2.217a17.671,17.671,0,0,1-1.094,2.137,29.664,29.664,0,0,1-2.668,3.842l-.541.266c-.411-.047-1.68,2.982-2.322,3.054-.289.381-.56.782-.872,1.147-.34.231-1,.763-.546.208a16.966,16.966,0,0,0-1.6,1.672c-.4.26-.832.482-1.247.718a74.424,74.424,0,0,1-6.176,4.184,35.986,35.986,0,0,1-6.974,3.266,93.37,93.37,0,0,1-12.7,2.748,98.083,98.083,0,0,1-13.538.888,49.735,49.735,0,0,1-15.981-2.551A67.158,67.158,0,0,1,89.2,160.415a3.592,3.592,0,0,0-1.043-.6c-.607-.5-1.191-1.018-1.788-1.524l-.892-.764-.814-.843L83.038,155l-1.448-1.839-.312-.392-.37-.462-.431-.661a34.528,34.528,0,0,1-2.393-4.01,21.288,21.288,0,0,1-1.264-2.643c-.367-.945-.809-1.89-1.144-2.87-.6-1.985-1.275-3.931-1.646-5.694-.817-3.5-1.184-6.012-1.59-5.364a10.1,10.1,0,0,0-.38,3.632,36.74,36.74,0,0,0,.261,4.12c.111.827.29,1.722.463,2.705l.285,1.536c.1.534.292,1.062.445,1.627l-.169-.205L74,146.362l.315.882c.12.281.257.548.381.813.513,1.057.982,2.038,1.479,2.94a23.866,23.866,0,0,0,3.582,4.589,2,2,0,0,0,.442.92c.138.2.3.413.48.634l.634.637c.893.855,1.832,1.78,2.277,2.258l-.123-.049c1.44.94,2.657,2.2,4.065,3.215a21.712,21.712,0,0,0,2.08,1.531,20.226,20.226,0,0,0,2.212,1.179,1.586,1.586,0,0,1-.914-.312c.528.279,1.088.616,1.669.891l1.672.779a6.405,6.405,0,0,1,1.806,1.055,58.146,58.146,0,0,0,8.915,2.859,38.937,38.937,0,0,0,4.323.8,21.527,21.527,0,0,0,3.393.24l-.255.051c2.064-.038,2.637.242,4.926.254.122.048.282.081.255.1,2.224-.154,6.453.16,8.246-.044l.121.2c1.471-.063,2.943-.144,4.411-.283-.55.035-1.1.057-1.651.072.528-.57,3.368.143,6.519-.667,3.013-.374,5.76-2.2,8.767-2.816,1.338-.666-1.123.779.93-.058.158.256-.934.483-.32.533,2.031-.8,3.509-.855,5.925-2.117l.192.158c3.044-1.81,6.1-2.831,7.832-4.521a12.491,12.491,0,0,1,2.589-1.686,7.231,7.231,0,0,0,2.446-2.076l1.289-.82c1.182-1.163.579-1.085,1.894-2.356.081.221,1.608-1.677,1.065-.73a25.026,25.026,0,0,0,3.654-5.365l.793-1.559.736-1.663c.517-1.127,1.131-2.276,1.628-3.56a11.286,11.286,0,0,1,.554-2.482,9.248,9.248,0,0,0,.349-2.272,16.21,16.21,0,0,0,.622-2.336c.152-.953.277-1.513.255.045,0,.268-.128.724-.177.682l.135.4a8.52,8.52,0,0,0,.506-2.205c.091-.724.141-1.434.179-2.142a18.33,18.33,0,0,0,0-2.137c-.016-.721-.015-1.456.03-2.224-.107.909-.136,2.118-.254,1.3.024-.946.144-1.9.088-2.841l.208.59-.069-4.248-.2.6a16.372,16.372,0,0,0-.374-5.124c-.338-1.012-.031,1.981-.416-.161-.2-1.358-.356-3.084-.717-4.868a47.607,47.607,0,0,0-1.326-5.338c-.14.392-.431-.509-.79-1.414l.174-.182c-.748-1.716-.836-2.047-.821-2.419-.007-.362-.007-.729-.825-2.405l.267.242c-.262-.244-.534-.481-.824-.708a6.605,6.605,0,0,1-1.153-2.355,5.909,5.909,0,0,0-1.474-2.5c.758,1.259-.091.834-.892-.773l.412.289a17.513,17.513,0,0,1-1.063-1.687c.382.462.457.091-.4-1.112l.772.684L165.6,92.049A18.783,18.783,0,0,0,163.509,89c-.376-.488-.727-.946-1-1.338a5.175,5.175,0,0,1-.606-.9s-.743-.9-1.609-1.864a12.043,12.043,0,0,0-1.381-1.336,6.591,6.591,0,0,0-1.09-.81c.821.5-.989-1.34-.3-1.013-.495-.363-1.516-1.015-2.5-1.751-.491-.366-.978-.748-1.4-1.107s-.833-.633-1.091-.89l.241.13c-4.218-3.29-7.918-4.417-12.214-6.37.112.317-2.184-.685-1.71-.156-2.377-.551-4.454-1.343-6.252-1.734a13.7,13.7,0,0,0-2.393-.462,4.062,4.062,0,0,0-1.764.222c-2.186-.246-2.573-.514-3.715-.623l.531-.029-2.636-.075c-.744,0-1.38.051-1.982.066-1.2.058-2.278.029-3.809.226a11.52,11.52,0,0,0-1.761.507,19.819,19.819,0,0,1-2.645.594c.836-.354-.258-.107-1.266.089.637-.154.826-.261-.529-.127-.174.095-.456.176-.712.289-.014-.011-.069-.008-.047-.035-1.639.529-1.333.5-.561.314-.031.039.043.056.292.041a27.084,27.084,0,0,0-3.085.739c-.993.322-1.784.633-1.945.51A39.849,39.849,0,0,0,93.325,78.8c-.489.15.229-.557,1.2-1.347L92.1,79.3c-.129-.2,1.332-1.145,2.065-1.738a23.017,23.017,0,0,0-2.311,1.553c-.7.628-1.394,1.3-2.1,1.976-.724.657-1.373,1.412-2.064,2.155s-1.47,1.433-2.187,2.216l-.418.8-.185.174a4.4,4.4,0,0,1-.788,1.37c-.537.337-.39-.359-1.6,1.363a15.244,15.244,0,0,0-1.861,2.669l-1.695,3.217c.627-.986.539-.6.34-.138a21.883,21.883,0,0,0-1.241,2.11l-.3-.041c.213-.121-.039.517-.352,1.233a11.516,11.516,0,0,0-.648,1.74c-.422.46.467-1.565.487-1.848-.9,1.893-1.062,2.4-1.285,2.87-.185.49-.478.937-1.159,2.919-.567,2.169.389-.287.255.8-.673,1.844-.967,3.743-1.775,5.846l.442-.615c-.41,1.784-.623,3.233-.95,4.5-.267,1.282-.49,2.422-.822,3.621-.138,1.7-.086,3.229-.119,4.563.031,1.339.145,2.5.214,3.5a20.484,20.484,0,0,0,.348,2.542c.127.7.243,1.26.35,1.7.443,1.757.753,1.614.887.617a39.933,39.933,0,0,0,.33-4.258c.147-1.525.229-2.806.229-2.806a116.086,116.086,0,0,1,2.145-12.969l.788-3.08c.294-1.051.671-2.117,1.03-3.257a53.709,53.709,0,0,1,3.2-7.432" transform="translate(-61.023 -58.519)" fill="#3a552a"/>
      </g>
    </g>
    <g id="Grupo_1209804" data-name="Grupo 1209804" transform="translate(-2.283 -7377.326)">
      <rect id="Rectángulo_459838" data-name="Rectángulo 459838" width="66" height="66" transform="translate(415.74 8431.997)" fill="#fff"/>
      <g id="Grupo_1212238" data-name="Grupo 1212238" transform="translate(414.605 8432.657)">
        <g id="Grupo_1212237" data-name="Grupo 1212237" clip-path="url(#clip-path-2)">
          <path id="Trazado_1273615" data-name="Trazado 1273615" d="M56.055,155.4l-4.2,1.791a3.9,3.9,0,0,1-2.749,4.329,3.909,3.909,0,0,1-.71,3.815,3.785,3.785,0,0,1-3.725,1.28,3.951,3.951,0,0,1-4.407,3.98,3.682,3.682,0,0,1-1.467,3.275,3.467,3.467,0,0,1-3.588.62l-1.926-.963a3.981,3.981,0,0,1-3.825,1.5,3.822,3.822,0,0,1-2.95-2.53,3.839,3.839,0,0,1-5.164-1.941,3.811,3.811,0,0,1-4.175-.223,3.863,3.863,0,0,1-1.532-3.8,3.877,3.877,0,0,1-3.789-5.311c.251-.723.93-1.418,1.03-2.177-.275-1.337-.507-3.313-1.044-3.553l-3.425-1.534a2.693,2.693,0,0,1-2.879.892l-4.019-1.816a2.629,2.629,0,0,1-1.241-3.57l7.522-16.4a2.567,2.567,0,0,1,3.327-1.129l3.57,1.608a2.734,2.734,0,0,1,1.2,4.074l4.062,1.829c2.146.966,7.09-2.533,11.885.468a9.441,9.441,0,0,1,8.658-.965l3.544,1.313a2.694,2.694,0,0,0,2.331-.146l2.991-1.635c-.44-1.27-.16-2.914,1.147-3.427l4.288-1.683c1.477-.579,2.8.5,3.332,1.878l6.341,16.266a2.63,2.63,0,0,1-1.414,3.505L59.576,156.4a2.765,2.765,0,0,1-3.521-1M6.077,152.93a.669.669,0,0,0,.8-.431l7.343-16.066a.672.672,0,0,0-.308-.992l-3.654-1.673c-.276-.126-.629.105-.764.4l-7.4,16.179a.7.7,0,0,0,.388.919Zm52.672,1.614,3.213-1.257a1.143,1.143,0,0,0,.571-.358.846.846,0,0,0,.01-.793l-6.4-16.351a.7.7,0,0,0-.948-.438l-3.5,1.35a.709.709,0,0,0-.43,1.045l6.45,16.468c.175.447.587.507,1.031.333m-19.675,2.582a.972.972,0,0,1-.26-1.361,1,1,0,0,1,1.361-.312l7.029,3.96a1.815,1.815,0,0,0,1.718-3.2L39.7,150.907a4.712,4.712,0,0,0-4.02-.444c-1.559.479-3.025,1.142-4.576,1.714-4.3,1.583-7.372,1.031-10.133-2.6a1.026,1.026,0,0,1,.3-1.585,36.42,36.42,0,0,0,8.652-6.8c-2.921-1.278-5.336.078-8.255.417a6.413,6.413,0,0,1-3.508-.7l-3.108-1.44L9.275,152.126l3.628,1.653c1,.455,1.315,1.622,1.529,2.8a4.077,4.077,0,0,1,4.271-.831,3.944,3.944,0,0,1,2.365,3.137,3.853,3.853,0,0,1,4.515,2.81,3.851,3.851,0,0,1,5.012,2.7,3.89,3.89,0,0,1,4.284,1.181l5.008,2.762a1.817,1.817,0,0,0,1.84-3.133l-6.087-3.444a1,1,0,0,1-.434-1.376.97.97,0,0,1,1.295-.442l8.1,4.493a1.812,1.812,0,0,0,1.834-3.124Zm10.732-2.755a4.9,4.9,0,0,1,1.22.978l4.258-1.811L50.14,140.4c-1.267.579-2.322,1.37-3.6,1.829-3.64,1.314-7.1-3.31-11.972-1.446a12.55,12.55,0,0,0-4.319,2.948,35.465,35.465,0,0,1-6.959,5.4c3.691,4.249,8.166.019,12.918-.871a6.388,6.388,0,0,1,4.557.927ZM17,163.556l1.831-3.438a1.8,1.8,0,0,0-.742-2.408,1.765,1.765,0,0,0-2.437.7l-1.91,3.575a1.773,1.773,0,0,0,.865,2.308A1.8,1.8,0,0,0,17,163.556m4.166,4.309,2.3-4.389a1.818,1.818,0,0,0-.775-2.433,1.8,1.8,0,0,0-2.338.6l-2.455,4.5a1.9,1.9,0,0,0,.682,2.688,1.919,1.919,0,0,0,2.583-.973m5.422,1.863,1.956-3.756a1.774,1.774,0,0,0-.788-2.226,1.836,1.836,0,0,0-2.346.532l-2.16,3.962a1.789,1.789,0,0,0,.919,2.459,1.872,1.872,0,0,0,2.418-.971m5.13,2.4,1.768-3.331a1.8,1.8,0,0,0-.78-2.4,1.765,1.765,0,0,0-2.322.588l-1.831,3.352a1.828,1.828,0,0,0,.674,2.479,1.78,1.78,0,0,0,2.492-.686m3.851.312a1.833,1.833,0,0,0,2.595-.978,1.959,1.959,0,0,0-1.129-2.366l-1.3-.685-.3,1.039-1.188,2.29Z" transform="translate(0 -110.413)" fill="#12263f"/>
          <path id="Trazado_1273616" data-name="Trazado 1273616" d="M95.228,23.806,81.72,23.8a3.555,3.555,0,0,1-3.345-4.268l-8.907-.026a2.556,2.556,0,0,1-1.912-.945c-1.745-2.156.98-6.074,3.852-7.289A4.484,4.484,0,0,1,77.779,4.96a4.456,4.456,0,0,1,.049,6.3,7.633,7.633,0,0,1,2.621,1.922,10.543,10.543,0,0,1,4.387-3.233,5.661,5.661,0,1,1,7.346,0,10.612,10.612,0,0,1,4.391,3.231,7.656,7.656,0,0,1,2.617-1.922,4.482,4.482,0,0,1,6.382-6.293,4.512,4.512,0,0,1,.038,6.3c2.788,1.166,5.447,4.943,4,7.1a2.571,2.571,0,0,1-2.056,1.13l-8.9.026a3.567,3.567,0,0,1-3.419,4.275m-7.842-21.6a3.588,3.588,0,0,0-2.294,4.659,3.633,3.633,0,1,0,2.294-4.659M74.114,5.737a2.461,2.461,0,0,0,.965,4.825,2.489,2.489,0,0,0,1.967-2.891,2.445,2.445,0,0,0-2.932-1.935m27.818-.012a2.434,2.434,0,0,0-1.924,3.011,2.463,2.463,0,1,0,1.924-3.011M95.037,21.8a1.474,1.474,0,0,0,1.584-1.435,8.161,8.161,0,1,0-16.223,0A1.468,1.468,0,0,0,81.9,21.8ZM78.49,17.457a18.1,18.1,0,0,1,.82-2.464,5.774,5.774,0,0,0-5.863-2.242c-3.539.7-5.358,4.725-3.86,4.722Zm29.012,0c1.37,0-.4-4.1-4.056-4.736A5.777,5.777,0,0,0,97.7,15.009a19.1,19.1,0,0,1,.853,2.459Z" transform="translate(-56.171 0)" fill="#12263f"/>
          <path id="Trazado_1273617" data-name="Trazado 1273617" d="M328.648,164.365a1.386,1.386,0,0,1,1.591,1.144,1.413,1.413,0,0,1-1.221,1.622,1.445,1.445,0,0,1-1.557-1.105,1.4,1.4,0,0,1,1.188-1.661" transform="translate(-274.474 -137.768)" fill="#12263f"/>
          <path id="Trazado_1273618" data-name="Trazado 1273618" d="M60.82,155.2a1.4,1.4,0,0,1,1.752.962,1.428,1.428,0,0,1-.981,1.75,1.41,1.41,0,0,1-.771-2.712" transform="translate(-50.138 -130.04)" fill="#12263f"/>
        </g>
      </g>
    </g>
  </g>
</svg>
