<svg xmlns="http://www.w3.org/2000/svg" xmlns:xlink="http://www.w3.org/1999/xlink" width="84" height="84" viewBox="0 0 84 84">
  <defs>
    <clipPath id="clip-path">
      <rect id="Rectángulo_465333" data-name="Rectángulo 465333" width="59.418" height="60.316" fill="#12263f"/>
    </clipPath>
  </defs>
  <g id="Grupo_1211082" data-name="Grupo 1211082" transform="translate(-705.629 -410)">
    <g id="Grupo_1188476" data-name="Grupo 1188476" transform="translate(2.841 -1273.207)">
      <g id="Grupo_1185067" data-name="Grupo 1185067" transform="translate(719.227 1696)">
        <path id="Trazado_997620" data-name="Trazado 997620" d="M133.124,646.71a15.477,15.477,0,1,0-14.332-.01" transform="translate(-99.168 -604.804)" fill="#3a552a" stroke="#000" stroke-miterlimit="10" stroke-width="2"/>
        <rect id="Rectángulo_454823" data-name="Rectángulo 454823" width="14.333" height="4.288" transform="translate(19.625 41.893)" fill="#3a552a" stroke="#000" stroke-miterlimit="10" stroke-width="2"/>
        <rect id="Rectángulo_454824" data-name="Rectángulo 454824" width="14.333" height="4.288" transform="translate(19.625 46.181)" fill="#3a552a" stroke="#000" stroke-miterlimit="10" stroke-width="2"/>
        <path id="Trazado_997621" data-name="Trazado 997621" d="M135.492,688.628h-6.283a4.025,4.025,0,0,1-4.025-4.025v-.263h14.333v.263A4.025,4.025,0,0,1,135.492,688.628Z" transform="translate(-105.559 -633.871)" fill="#3a552a" stroke="#000" stroke-miterlimit="10" stroke-width="2"/>
        <line id="Línea_3231" data-name="Línea 3231" y1="7.578" transform="translate(26.797)" fill="none" stroke="#000" stroke-miterlimit="10" stroke-width="2"/>
        <line id="Línea_3232" data-name="Línea 3232" x1="4.454" y1="6.13" transform="translate(10.236 5.387)" fill="none" stroke="#000" stroke-miterlimit="10" stroke-width="2"/>
        <line id="Línea_3233" data-name="Línea 3233" x1="7.2" y1="2.336" transform="translate(0 19.477)" fill="none" stroke="#000" stroke-miterlimit="10" stroke-width="2"/>
        <line id="Línea_3234" data-name="Línea 3234" x1="7.2" y2="2.341" transform="translate(0 34.55)" fill="none" stroke="#000" stroke-miterlimit="10" stroke-width="2"/>
        <line id="Línea_3235" data-name="Línea 3235" x1="7.2" y1="2.341" transform="translate(46.398 34.55)" fill="none" stroke="#000" stroke-miterlimit="10" stroke-width="2"/>
        <line id="Línea_3236" data-name="Línea 3236" x1="7.2" y2="2.336" transform="translate(46.398 19.477)" fill="none" stroke="#000" stroke-miterlimit="10" stroke-width="2"/>
        <line id="Línea_3237" data-name="Línea 3237" x1="4.454" y2="6.125" transform="translate(38.91 5.387)" fill="none" stroke="#000" stroke-miterlimit="10" stroke-width="2"/>
        <path id="Trazado_997622" data-name="Trazado 997622" d="M119,638.208a10.647,10.647,0,0,1,4.484-8.693" transform="translate(-102.867 -610.025)" fill="#3a552a" stroke="#000" stroke-miterlimit="10" stroke-width="2"/>
        <line id="Línea_3238" data-name="Línea 3238" y2="8.634" transform="translate(26.797 33.258)" fill="none" stroke="#000" stroke-miterlimit="10" stroke-width="2"/>
        <path id="Trazado_997623" data-name="Trazado 997623" d="M133.157,647.74l2.669,3.47,3-3.47" transform="translate(-109.027 -617.951)" fill="#3a552a" stroke="#000" stroke-miterlimit="10" stroke-width="2"/>
        <path id="Trazado_997624" data-name="Trazado 997624" d="M132.431,691.931a3.07,3.07,0,1,0,6.14,0" transform="translate(-108.711 -637.173)" fill="#3a552a" stroke="#000" stroke-miterlimit="10" stroke-width="2"/>
      </g>
      <rect id="Rectángulo_459857" data-name="Rectángulo 459857" width="81" height="79" transform="translate(705.788 1688.207)" fill="#3a552a"/>
    </g>
    <g id="Grupo_1188599" data-name="Grupo 1188599" transform="translate(0.371 -1278)">
      <g id="Grupo_1185067-2" data-name="Grupo 1185067" transform="translate(718.472 1696)">
        <path id="Trazado_997620-2" data-name="Trazado 997620" d="M133.124,646.71a15.477,15.477,0,1,0-14.332-.01" transform="translate(-99.168 -604.804)" fill="#fff006" stroke="#000" stroke-miterlimit="10" stroke-width="2"/>
        <rect id="Rectángulo_454823-2" data-name="Rectángulo 454823" width="14.333" height="4.288" transform="translate(19.625 41.893)" fill="#fff006" stroke="#000" stroke-miterlimit="10" stroke-width="2"/>
        <rect id="Rectángulo_454824-2" data-name="Rectángulo 454824" width="14.333" height="4.288" transform="translate(19.625 46.181)" fill="#fff006" stroke="#000" stroke-miterlimit="10" stroke-width="2"/>
        <path id="Trazado_997621-2" data-name="Trazado 997621" d="M135.492,688.628h-6.283a4.025,4.025,0,0,1-4.025-4.025v-.263h14.333v.263A4.025,4.025,0,0,1,135.492,688.628Z" transform="translate(-105.559 -633.871)" fill="#fff006" stroke="#000" stroke-miterlimit="10" stroke-width="2"/>
        <line id="Línea_3231-2" data-name="Línea 3231" y1="7.578" transform="translate(26.797)" fill="none" stroke="#000" stroke-miterlimit="10" stroke-width="2"/>
        <line id="Línea_3232-2" data-name="Línea 3232" x1="4.454" y1="6.13" transform="translate(10.236 5.387)" fill="none" stroke="#000" stroke-miterlimit="10" stroke-width="2"/>
        <line id="Línea_3233-2" data-name="Línea 3233" x1="7.2" y1="2.336" transform="translate(0 19.477)" fill="none" stroke="#000" stroke-miterlimit="10" stroke-width="2"/>
        <line id="Línea_3234-2" data-name="Línea 3234" x1="7.2" y2="2.341" transform="translate(0 34.55)" fill="none" stroke="#000" stroke-miterlimit="10" stroke-width="2"/>
        <line id="Línea_3235-2" data-name="Línea 3235" x1="7.2" y1="2.341" transform="translate(46.398 34.55)" fill="none" stroke="#000" stroke-miterlimit="10" stroke-width="2"/>
        <line id="Línea_3236-2" data-name="Línea 3236" x1="7.2" y2="2.336" transform="translate(46.398 19.477)" fill="none" stroke="#000" stroke-miterlimit="10" stroke-width="2"/>
        <line id="Línea_3237-2" data-name="Línea 3237" x1="4.454" y2="6.125" transform="translate(38.91 5.387)" fill="none" stroke="#000" stroke-miterlimit="10" stroke-width="2"/>
        <path id="Trazado_997622-2" data-name="Trazado 997622" d="M119,638.208a10.647,10.647,0,0,1,4.484-8.693" transform="translate(-102.867 -610.025)" fill="#fff006" stroke="#000" stroke-miterlimit="10" stroke-width="2"/>
        <line id="Línea_3238-2" data-name="Línea 3238" y2="8.634" transform="translate(26.797 33.258)" fill="none" stroke="#000" stroke-miterlimit="10" stroke-width="2"/>
        <path id="Trazado_997623-2" data-name="Trazado 997623" d="M133.157,647.74l2.669,3.47,3-3.47" transform="translate(-109.027 -617.951)" fill="#fff006" stroke="#000" stroke-miterlimit="10" stroke-width="2"/>
        <path id="Trazado_997624-2" data-name="Trazado 997624" d="M132.431,691.931a3.07,3.07,0,1,0,6.14,0" transform="translate(-108.711 -637.173)" fill="#fff006" stroke="#000" stroke-miterlimit="10" stroke-width="2"/>
      </g>
      <rect id="Rectángulo_459857-2" data-name="Rectángulo 459857" width="80" height="80" transform="translate(705.258 1688)" fill="#fff006"/>
    </g>
    <g id="Grupo_1212272" data-name="Grupo 1212272" transform="translate(714.629 418)">
      <g id="Grupo_1212271" data-name="Grupo 1212271" clip-path="url(#clip-path)">
        <path id="Trazado_1273733" data-name="Trazado 1273733" d="M31.313,164.856c0,1.767-3.64.815-6.034.332-1.061,1.325-3.689,1.423-4.422,1.034a39.948,39.948,0,0,1-7.4-4.9A42.455,42.455,0,0,1,7.511,154.4L5.5,153.1a1.744,1.744,0,0,1-2.213.347L.9,152.049c-.572-.334-1.192-1.243-.76-1.991l5.268-9.131a1.646,1.646,0,0,1,2.285-.313l2.6,1.543c.572.34.56,1.13.509,1.758l1.112.613a17.72,17.72,0,0,1,2.469-6.786c.326-.491,1.147-.164,1.516.051l4.859,2.825a.967.967,0,0,1,.338,1.328L19.932,144a1.807,1.807,0,0,0,3.227,1.622l1.123-1.933a.933.933,0,0,1,1.231-.315l5.323,3.066a1,1,0,0,1,.482.925v5.019l1.588.068a3.58,3.58,0,0,1,3.343,3.292,3.668,3.668,0,0,1-2.827,3.9,8.326,8.326,0,0,1-2.1.1Zm1.361-6.953a1.736,1.736,0,0,0,1.741-1.7,1.671,1.671,0,0,0-1.474-1.864l-2.493-.027a.95.95,0,0,1-.983-.939l-.034-5.628-3.914-2.3a1.841,1.841,0,0,0-.613.834,3.659,3.659,0,1,1-6.529-3.3l.693-1.22L15.36,139.65a16.887,16.887,0,0,0-1.707,5.932l6.693,4.027a2.418,2.418,0,0,1,.587,3.153c-.583,1-1.879,1.793-2.963,1.212l-3.005-1.611a1.272,1.272,0,0,0-.053,1.45,16.89,16.89,0,0,0,14.51,10.193l.053-5.285a.782.782,0,0,1,.67-.766ZM4.142,151.767l4.8-8.312-2.184-1.28-4.79,8.342Zm18.826,12.582a18.936,18.936,0,0,1-10.147-10.882,2.545,2.545,0,0,1,2.769-2.887l2.763,1.572a.762.762,0,0,0,.918-.138c.145-.179.263-.793-.033-.968L9.876,145.5l-3.468,6.092a7.417,7.417,0,0,1,2.9,2.088,44.2,44.2,0,0,0,3.892,4.869,32.149,32.149,0,0,0,7.16,5.338c.831.5,1.727.971,2.608.463" transform="translate(0 -112.93)" fill="#12263f"/>
        <path id="Trazado_1273734" data-name="Trazado 1273734" d="M123.845,28.768a1.2,1.2,0,0,1-1.517.068l-4.321-2.481a4.667,4.667,0,0,1-2.248,2.628,3.593,3.593,0,0,1-4.131-.779,3.659,3.659,0,0,1-.582-4.272l.672-1.257-4.224-2.4c-.585-.331-.931-.868-.542-1.519a18.2,18.2,0,0,1,3.15-4.017c-.679-1.411.385-3.736,1.333-4.351a36.525,36.525,0,0,1,7.729-3.865,38.95,38.95,0,0,1,8.73-1.681,3.931,3.931,0,0,0,2.393-1.324c.206-.42-.092-1.236.429-1.556L133.372.333a1.69,1.69,0,0,1,2.436.41L140.9,9.534a1.679,1.679,0,0,1-.713,2.268l-2.05,1.188a1.821,1.821,0,0,1-2.366-.124l-1.216.624a18.814,18.814,0,0,1,4.662,5.449.9.9,0,0,1-.385,1.169l-5.2,3.015a.864.864,0,0,1-1.278-.208L131.243,21a1.878,1.878,0,0,0-2.443-.82,1.778,1.778,0,0,0-.81,2.474l1.168,2.039a.894.894,0,0,1-.194,1.082Zm13.191-17.3,2.15-1.284-4.8-8.272-2.184,1.251Zm-9.392,1.986c-1.286,1.372-3.721,1.649-3.147,2.777a.732.732,0,0,0,.944.316l9.348-5.267-3.513-6.04a9.508,9.508,0,0,1-3.038,1.441,34.993,34.993,0,0,0-8.7,1.639,40.092,40.092,0,0,0-5.906,2.838c-.837.453-1.695.989-1.745,2.069a18.973,18.973,0,0,1,13.835-3.511A2.735,2.735,0,0,1,127.659,11a2.119,2.119,0,0,1-.015,2.455M126.533,23.8a3.734,3.734,0,0,1,1.256-5.172A3.673,3.673,0,0,1,132.766,20l.645,1.1,3.693-2.113a15.942,15.942,0,0,0-4.287-4.484l-6.481,3.639a2.518,2.518,0,0,1-3.5-1.125,2.617,2.617,0,0,1,1.129-3.391l2.222-1.338c.123-.2-.3-.694-.555-.73a16.9,16.9,0,0,0-16.661,7.41l4.4,2.567a.966.966,0,0,1,.447,1.242l-1.166,2.036a1.779,1.779,0,0,0,.893,2.529,1.949,1.949,0,0,0,2.423-.989l.83-1.487a1.179,1.179,0,0,1,.746-.632,1.348,1.348,0,0,1,.936.24l4.576,2.653,4.015-2.353Z" transform="translate(-87.714 0)" fill="#12263f"/>
        <path id="Trazado_1273735" data-name="Trazado 1273735" d="M215.016,175.952l.006-3a1.532,1.532,0,0,1,1.24-1.48,4.232,4.232,0,0,0,.032-1.391,17.493,17.493,0,0,1-6.956,1.329.845.845,0,0,1-.864-.806l-.02-6.212a.878.878,0,0,1,.9-.9l2.461-.038a1.772,1.772,0,0,0,1.61-1.988,1.845,1.845,0,0,0-1.975-1.642l-2.119-.006a.871.871,0,0,1-.86-.821l.02-6.383c0-.443.663-.765.977-.946l3.987-2.308a7.542,7.542,0,0,1-1.037-1.984,3.655,3.655,0,0,1,6.826-2.532l.546.868,4.309-2.487a.983.983,0,0,1,1.461.326,17.823,17.823,0,0,1,1.9,4.727,3.041,3.041,0,0,1,2.091,1.238,4.841,4.841,0,0,1,1.091,3.443,35.722,35.722,0,0,1-.864,8.639,50.831,50.831,0,0,1-2.716,7.29,7.419,7.419,0,0,0-.126,2.542,1.559,1.559,0,0,1,1.335,1.525l.016,2.885a1.639,1.639,0,0,1-1.446,1.739l-10.341,0a1.647,1.647,0,0,1-1.483-1.634m1.334-7.886.052-7.258a2.571,2.571,0,0,1,2.5-2.628,2.52,2.52,0,0,1,2.6,2.455l.066,2.821c.291.308.865-.051,1.117-.386a16.924,16.924,0,0,0,1.685-17.878l-4.5,2.575a.922.922,0,0,1-1.255-.329l-1.112-1.917a1.816,1.816,0,0,0-2.353-.76,1.756,1.756,0,0,0-.872,2.374l1.157,2.051a.966.966,0,0,1-.435,1.4l-4.716,2.743v4.635l1.713.054a3.581,3.581,0,0,1,3.266,3.6,3.5,3.5,0,0,1-3.247,3.653l-1.731.036v4.259a16.091,16.091,0,0,0,6.065-1.5m1.776,3.31,7,0a7.638,7.638,0,0,1,.785-4.529,29.387,29.387,0,0,0,2.871-14.778,1.94,1.94,0,0,0-.877-1.477,18.725,18.725,0,0,1-4.458,14.368c-1.5.792-3.062.488-3.736-.944l-.037-3.2a.787.787,0,0,0-.664-.812.676.676,0,0,0-.757.635Zm8.34,4.418v-2.509l-9.63-.026.006,2.536Z" transform="translate(-171.223 -117.269)" fill="#12263f"/>
      </g>
    </g>
  </g>
</svg>
