<svg xmlns="http://www.w3.org/2000/svg" xmlns:xlink="http://www.w3.org/1999/xlink" width="84" height="84" viewBox="0 0 84 84">
  <defs>
    <clipPath id="clip-path">
      <rect id="Rectángulo_465356" data-name="Rectángulo 465356" width="56.855" height="56.86" fill="#12263f"/>
    </clipPath>
  </defs>
  <g id="Grupo_1211133" data-name="Grupo 1211133" transform="translate(-705.629 -410)">
    <g id="Grupo_1188476" data-name="Grupo 1188476" transform="translate(2.841 -1273.207)">
      <g id="Grupo_1185067" data-name="Grupo 1185067" transform="translate(719.227 1696)">
        <path id="Trazado_997620" data-name="Trazado 997620" d="M133.124,646.71a15.477,15.477,0,1,0-14.332-.01" transform="translate(-99.168 -604.804)" fill="#3a552a" stroke="#000" stroke-miterlimit="10" stroke-width="2"/>
        <rect id="Rectángulo_454823" data-name="Rectángulo 454823" width="14.333" height="4.288" transform="translate(19.625 41.893)" fill="#3a552a" stroke="#000" stroke-miterlimit="10" stroke-width="2"/>
        <rect id="Rectángulo_454824" data-name="Rectángulo 454824" width="14.333" height="4.288" transform="translate(19.625 46.181)" fill="#3a552a" stroke="#000" stroke-miterlimit="10" stroke-width="2"/>
        <path id="Trazado_997621" data-name="Trazado 997621" d="M135.492,688.628h-6.283a4.025,4.025,0,0,1-4.025-4.025v-.263h14.333v.263A4.025,4.025,0,0,1,135.492,688.628Z" transform="translate(-105.559 -633.871)" fill="#3a552a" stroke="#000" stroke-miterlimit="10" stroke-width="2"/>
        <line id="Línea_3231" data-name="Línea 3231" y1="7.578" transform="translate(26.797)" fill="none" stroke="#000" stroke-miterlimit="10" stroke-width="2"/>
        <line id="Línea_3232" data-name="Línea 3232" x1="4.454" y1="6.13" transform="translate(10.236 5.387)" fill="none" stroke="#000" stroke-miterlimit="10" stroke-width="2"/>
        <line id="Línea_3233" data-name="Línea 3233" x1="7.2" y1="2.336" transform="translate(0 19.477)" fill="none" stroke="#000" stroke-miterlimit="10" stroke-width="2"/>
        <line id="Línea_3234" data-name="Línea 3234" x1="7.2" y2="2.341" transform="translate(0 34.55)" fill="none" stroke="#000" stroke-miterlimit="10" stroke-width="2"/>
        <line id="Línea_3235" data-name="Línea 3235" x1="7.2" y1="2.341" transform="translate(46.398 34.55)" fill="none" stroke="#000" stroke-miterlimit="10" stroke-width="2"/>
        <line id="Línea_3236" data-name="Línea 3236" x1="7.2" y2="2.336" transform="translate(46.398 19.477)" fill="none" stroke="#000" stroke-miterlimit="10" stroke-width="2"/>
        <line id="Línea_3237" data-name="Línea 3237" x1="4.454" y2="6.125" transform="translate(38.91 5.387)" fill="none" stroke="#000" stroke-miterlimit="10" stroke-width="2"/>
        <path id="Trazado_997622" data-name="Trazado 997622" d="M119,638.208a10.647,10.647,0,0,1,4.484-8.693" transform="translate(-102.867 -610.025)" fill="#3a552a" stroke="#000" stroke-miterlimit="10" stroke-width="2"/>
        <line id="Línea_3238" data-name="Línea 3238" y2="8.634" transform="translate(26.797 33.258)" fill="none" stroke="#000" stroke-miterlimit="10" stroke-width="2"/>
        <path id="Trazado_997623" data-name="Trazado 997623" d="M133.157,647.74l2.669,3.47,3-3.47" transform="translate(-109.027 -617.951)" fill="#3a552a" stroke="#000" stroke-miterlimit="10" stroke-width="2"/>
        <path id="Trazado_997624" data-name="Trazado 997624" d="M132.431,691.931a3.07,3.07,0,1,0,6.14,0" transform="translate(-108.711 -637.173)" fill="#3a552a" stroke="#000" stroke-miterlimit="10" stroke-width="2"/>
      </g>
      <rect id="Rectángulo_459857" data-name="Rectángulo 459857" width="81" height="79" transform="translate(705.788 1688.207)" fill="#3a552a"/>
    </g>
    <g id="Grupo_1188599" data-name="Grupo 1188599" transform="translate(0.371 -1278)">
      <g id="Grupo_1185067-2" data-name="Grupo 1185067" transform="translate(718.472 1696)">
        <path id="Trazado_997620-2" data-name="Trazado 997620" d="M133.124,646.71a15.477,15.477,0,1,0-14.332-.01" transform="translate(-99.168 -604.804)" fill="#fff006" stroke="#000" stroke-miterlimit="10" stroke-width="2"/>
        <rect id="Rectángulo_454823-2" data-name="Rectángulo 454823" width="14.333" height="4.288" transform="translate(19.625 41.893)" fill="#fff006" stroke="#000" stroke-miterlimit="10" stroke-width="2"/>
        <rect id="Rectángulo_454824-2" data-name="Rectángulo 454824" width="14.333" height="4.288" transform="translate(19.625 46.181)" fill="#fff006" stroke="#000" stroke-miterlimit="10" stroke-width="2"/>
        <path id="Trazado_997621-2" data-name="Trazado 997621" d="M135.492,688.628h-6.283a4.025,4.025,0,0,1-4.025-4.025v-.263h14.333v.263A4.025,4.025,0,0,1,135.492,688.628Z" transform="translate(-105.559 -633.871)" fill="#fff006" stroke="#000" stroke-miterlimit="10" stroke-width="2"/>
        <line id="Línea_3231-2" data-name="Línea 3231" y1="7.578" transform="translate(26.797)" fill="none" stroke="#000" stroke-miterlimit="10" stroke-width="2"/>
        <line id="Línea_3232-2" data-name="Línea 3232" x1="4.454" y1="6.13" transform="translate(10.236 5.387)" fill="none" stroke="#000" stroke-miterlimit="10" stroke-width="2"/>
        <line id="Línea_3233-2" data-name="Línea 3233" x1="7.2" y1="2.336" transform="translate(0 19.477)" fill="none" stroke="#000" stroke-miterlimit="10" stroke-width="2"/>
        <line id="Línea_3234-2" data-name="Línea 3234" x1="7.2" y2="2.341" transform="translate(0 34.55)" fill="none" stroke="#000" stroke-miterlimit="10" stroke-width="2"/>
        <line id="Línea_3235-2" data-name="Línea 3235" x1="7.2" y1="2.341" transform="translate(46.398 34.55)" fill="none" stroke="#000" stroke-miterlimit="10" stroke-width="2"/>
        <line id="Línea_3236-2" data-name="Línea 3236" x1="7.2" y2="2.336" transform="translate(46.398 19.477)" fill="none" stroke="#000" stroke-miterlimit="10" stroke-width="2"/>
        <line id="Línea_3237-2" data-name="Línea 3237" x1="4.454" y2="6.125" transform="translate(38.91 5.387)" fill="none" stroke="#000" stroke-miterlimit="10" stroke-width="2"/>
        <path id="Trazado_997622-2" data-name="Trazado 997622" d="M119,638.208a10.647,10.647,0,0,1,4.484-8.693" transform="translate(-102.867 -610.025)" fill="#fff006" stroke="#000" stroke-miterlimit="10" stroke-width="2"/>
        <line id="Línea_3238-2" data-name="Línea 3238" y2="8.634" transform="translate(26.797 33.258)" fill="none" stroke="#000" stroke-miterlimit="10" stroke-width="2"/>
        <path id="Trazado_997623-2" data-name="Trazado 997623" d="M133.157,647.74l2.669,3.47,3-3.47" transform="translate(-109.027 -617.951)" fill="#fff006" stroke="#000" stroke-miterlimit="10" stroke-width="2"/>
        <path id="Trazado_997624-2" data-name="Trazado 997624" d="M132.431,691.931a3.07,3.07,0,1,0,6.14,0" transform="translate(-108.711 -637.173)" fill="#fff006" stroke="#000" stroke-miterlimit="10" stroke-width="2"/>
      </g>
      <rect id="Rectángulo_459857-2" data-name="Rectángulo 459857" width="80" height="80" transform="translate(705.258 1688)" fill="#fff006"/>
    </g>
    <g id="Grupo_1212319" data-name="Grupo 1212319" transform="translate(717.201 421.571)">
      <g id="Grupo_1212318" data-name="Grupo 1212318" clip-path="url(#clip-path)">
        <path id="Trazado_1273884" data-name="Trazado 1273884" d="M6.235,163.118a6.466,6.466,0,0,1-6.184-6.391l-.027-14.4a.964.964,0,0,1,.913-.962.963.963,0,0,1,1,1.049l.011,3.219a6.43,6.43,0,0,1,2.867-1.364,4.728,4.728,0,1,1,6.422,1.01A16.368,16.368,0,0,1,12.778,147l2.523,3.167,4.949-8.621a.646.646,0,0,0,.651-.787,8.557,8.557,0,0,1,3.811-7.847,4.736,4.736,0,1,1,7.5-.014,8.833,8.833,0,0,1,3.794,8.378,1.82,1.82,0,0,1,1.074.966l6.422,11.247a22.811,22.811,0,0,1,2.173-2.54,4.726,4.726,0,1,1,6.423-.987,6.775,6.775,0,0,1,2.868,1.328l.021-3.126c0-.575.231-.974.756-1.075a.9.9,0,0,1,1.113.791l.014,14.359a.882.882,0,0,1-.95.935ZM28.1,127.2a2.787,2.787,0,0,0-2.436,3.3,2.821,2.821,0,0,0,3.191,2.321,2.876,2.876,0,0,0,2.42-3.173A2.825,2.825,0,0,0,28.1,127.2m6.013,12.272a6.6,6.6,0,0,0-3.448-5.273,4.756,4.756,0,0,1-4.428,0,6.757,6.757,0,0,0-3.376,7.172l11.272-.009Zm-25.7-.9A2.778,2.778,0,0,0,5.746,141.7a2.837,2.837,0,0,0,5.65-.51,2.772,2.772,0,0,0-2.984-2.621m18.362,18.955-13.489,0L11.168,161.3l23.131.01c-.561-1.743.49-3.719,2.273-3.755l3.713-.074,1.946-2.439L35.494,143.3l-14.082,0-4.832,8.482,2.547,0,3.407-6a.939.939,0,0,1,.8-.559l10.494-.008a.953.953,0,0,1,.805.46.972.972,0,0,1,.046.9l-3.567,7.752Zm20.859-13.2a2.808,2.808,0,0,0-2.016,3.515,2.844,2.844,0,1,0,2.016-3.515M12.749,155.593l7.179-.011a.912.912,0,0,0,.937-.839c.032-.373-.15-.956-.646-.961l-3.9-.04a1.418,1.418,0,0,1-1.141-.669l-4.563-5.711a2.728,2.728,0,0,0-2.18-1.172l-3.343.025a3.626,3.626,0,0,0-3.146,3.609l0,6.826a4.684,4.684,0,0,0,4.428,4.632l2.586.006,2.448-4.326L8.855,154.4A1,1,0,0,1,8.9,152.96a.966.966,0,0,1,1.314.087Zm17.456-3.811,2.132-4.679-8.351,0L21.3,151.8Zm16.616,6.862a.944.944,0,0,1,1.324.119,1.017,1.017,0,0,1-.021,1.245l-1.177,1.266L55,161.31l-.016-5.842a3.759,3.759,0,0,0-4.01-3.671l-2.426.027a2.8,2.8,0,0,0-2.179,1.143l-4.7,5.877a1.172,1.172,0,0,1-1,.532l-3.786.008a.946.946,0,0,0-.834,1.069.99.99,0,0,0,1.02.848l7.039.006Zm-20.507-3.073,2.329-1.829-6-.019a3.351,3.351,0,0,1,0,1.866Z" transform="translate(-0.02 -106.312)" fill="#12263f"/>
        <path id="Trazado_1273885" data-name="Trazado 1273885" d="M264.838,128.838a.944.944,0,0,1-1.635.7l-4.377-3.485-5.614-.042a2.7,2.7,0,0,1-2.533-2.519l-.017-8.039a2.794,2.794,0,0,1,2.86-2.68l13.312.015a2.713,2.713,0,0,1,2.7,2.514v8.186a2.8,2.8,0,0,1-2.808,2.563h-1.869Zm-.992-4.689,2.85-.014a.96.96,0,0,0,1-.994l-.02-7.619a.9.9,0,0,0-.991-.849l-13.306.01a.862.862,0,0,0-.837.923v7.568a.892.892,0,0,0,.832.944l6.094.043,3.428,2.674c.157-1.3-.211-2.681.946-2.687" transform="translate(-212.72 -95.699)" fill="#12263f"/>
        <path id="Trazado_1273886" data-name="Trazado 1273886" d="M181.956,16.777a.989.989,0,0,1-1.055.21.925.925,0,0,1-.592-.867l0-2.842-2.141-.023a2.653,2.653,0,0,1-2.547-2.574l.021-8.177A2.75,2.75,0,0,1,178.518,0l13.216.018a2.785,2.785,0,0,1,2.779,2.777l-.019,7.883a2.782,2.782,0,0,1-2.823,2.6h-5.318Zm.349-2.744,3.331-2.6,5.982-.045a.951.951,0,0,0,1.012-1.014L192.622,2.8a.908.908,0,0,0-.853-.876l-13.424,0a.974.974,0,0,0-.874,1.044v7.4a.98.98,0,0,0,1.025,1.033l2.72.008c1.339,0,.8,1.324,1.089,2.633" transform="translate(-149.033 0)" fill="#12263f"/>
        <path id="Trazado_1273887" data-name="Trazado 1273887" d="M6.429,92.282a1.02,1.02,0,0,1-1.183.183,1.042,1.042,0,0,1-.5-.978l.01-2.686L2.648,88.79A2.815,2.815,0,0,1,0,85.847V78.481A2.776,2.776,0,0,1,2.512,75.6l14.07.018c1.418,0,2.392,1.569,2.392,2.825v7.446a2.8,2.8,0,0,1-2.539,2.871l-5.664.066Zm.213-2.637,3.451-2.708,6.01-.025a.917.917,0,0,0,.953-.892v-7.7a.9.9,0,0,0-.943-.889l-13.286,0a.876.876,0,0,0-.91.889l0,7.695a.92.92,0,0,0,.91.89l2.864.01a.9.9,0,0,1,.93.921Z" transform="translate(0 -64.156)" fill="#12263f"/>
        <path id="Trazado_1273888" data-name="Trazado 1273888" d="M285.882,164.758l-9.291.015a.96.96,0,0,1-1.062-.85.881.881,0,0,1,.812-1.051l9.593-.011a.885.885,0,0,1,.953.93.93.93,0,0,1-1,.967" transform="translate(-233.816 -138.209)" fill="#12263f"/>
        <path id="Trazado_1273889" data-name="Trazado 1273889" d="M307.261,139.651l-5.808.015a.961.961,0,1,1,.158-1.914h5.423a.95.95,0,0,1,1.072.818.935.935,0,0,1-.845,1.08" transform="translate(-255.044 -116.902)" fill="#12263f"/>
        <path id="Trazado_1273890" data-name="Trazado 1273890" d="M210.889,52.27l-9.519,0a.929.929,0,0,1-.929-.863.876.876,0,0,1,.775-.992l9.832,0c.524,0,.778.605.742.976a.927.927,0,0,1-.9.873" transform="translate(-170.098 -42.785)" fill="#12263f"/>
        <path id="Trazado_1273891" data-name="Trazado 1273891" d="M207.174,27.245l-5.8.015a.933.933,0,0,1-.934-.852.874.874,0,0,1,.772-.993h6.059c.469,0,.719.508.736.857a.9.9,0,0,1-.829.973" transform="translate(-170.094 -21.568)" fill="#12263f"/>
        <path id="Trazado_1273892" data-name="Trazado 1273892" d="M35.544,127.362l-9.38,0a.971.971,0,0,1-.944-.739c-.1-.365.126-1.108.661-1.108l9.959-.009c.511,0,.724.642.7.967a.946.946,0,0,1-1,.892" transform="translate(-21.385 -106.506)" fill="#12263f"/>
        <path id="Trazado_1273893" data-name="Trazado 1273893" d="M31.836,102.362l-5.676.009a.977.977,0,0,1-.939-.735c-.1-.387.126-1.1.655-1.105l6.183-.011c.512,0,.73.608.7.947a.907.907,0,0,1-.928.895" transform="translate(-21.384 -85.305)" fill="#12263f"/>
      </g>
    </g>
  </g>
</svg>
