<svg xmlns="http://www.w3.org/2000/svg" xmlns:xlink="http://www.w3.org/1999/xlink" width="84" height="84" viewBox="0 0 84 84">
  <defs>
    <clipPath id="clip-path">
      <rect id="Rectángulo_465353" data-name="Rectángulo 465353" width="54.76" height="59.528" fill="#12263f"/>
    </clipPath>
  </defs>
  <g id="Grupo_1211100" data-name="Grupo 1211100" transform="translate(-705.629 -410)">
    <g id="Grupo_1188476" data-name="Grupo 1188476" transform="translate(2.841 -1273.207)">
      <g id="Grupo_1185067" data-name="Grupo 1185067" transform="translate(719.227 1696)">
        <path id="Trazado_997620" data-name="Trazado 997620" d="M133.124,646.71a15.477,15.477,0,1,0-14.332-.01" transform="translate(-99.168 -604.804)" fill="#3a552a" stroke="#000" stroke-miterlimit="10" stroke-width="2"/>
        <rect id="Rectángulo_454823" data-name="Rectángulo 454823" width="14.333" height="4.288" transform="translate(19.625 41.893)" fill="#3a552a" stroke="#000" stroke-miterlimit="10" stroke-width="2"/>
        <rect id="Rectángulo_454824" data-name="Rectángulo 454824" width="14.333" height="4.288" transform="translate(19.625 46.181)" fill="#3a552a" stroke="#000" stroke-miterlimit="10" stroke-width="2"/>
        <path id="Trazado_997621" data-name="Trazado 997621" d="M135.492,688.628h-6.283a4.025,4.025,0,0,1-4.025-4.025v-.263h14.333v.263A4.025,4.025,0,0,1,135.492,688.628Z" transform="translate(-105.559 -633.871)" fill="#3a552a" stroke="#000" stroke-miterlimit="10" stroke-width="2"/>
        <line id="Línea_3231" data-name="Línea 3231" y1="7.578" transform="translate(26.797)" fill="none" stroke="#000" stroke-miterlimit="10" stroke-width="2"/>
        <line id="Línea_3232" data-name="Línea 3232" x1="4.454" y1="6.13" transform="translate(10.236 5.387)" fill="none" stroke="#000" stroke-miterlimit="10" stroke-width="2"/>
        <line id="Línea_3233" data-name="Línea 3233" x1="7.2" y1="2.336" transform="translate(0 19.477)" fill="none" stroke="#000" stroke-miterlimit="10" stroke-width="2"/>
        <line id="Línea_3234" data-name="Línea 3234" x1="7.2" y2="2.341" transform="translate(0 34.55)" fill="none" stroke="#000" stroke-miterlimit="10" stroke-width="2"/>
        <line id="Línea_3235" data-name="Línea 3235" x1="7.2" y1="2.341" transform="translate(46.398 34.55)" fill="none" stroke="#000" stroke-miterlimit="10" stroke-width="2"/>
        <line id="Línea_3236" data-name="Línea 3236" x1="7.2" y2="2.336" transform="translate(46.398 19.477)" fill="none" stroke="#000" stroke-miterlimit="10" stroke-width="2"/>
        <line id="Línea_3237" data-name="Línea 3237" x1="4.454" y2="6.125" transform="translate(38.91 5.387)" fill="none" stroke="#000" stroke-miterlimit="10" stroke-width="2"/>
        <path id="Trazado_997622" data-name="Trazado 997622" d="M119,638.208a10.647,10.647,0,0,1,4.484-8.693" transform="translate(-102.867 -610.025)" fill="#3a552a" stroke="#000" stroke-miterlimit="10" stroke-width="2"/>
        <line id="Línea_3238" data-name="Línea 3238" y2="8.634" transform="translate(26.797 33.258)" fill="none" stroke="#000" stroke-miterlimit="10" stroke-width="2"/>
        <path id="Trazado_997623" data-name="Trazado 997623" d="M133.157,647.74l2.669,3.47,3-3.47" transform="translate(-109.027 -617.951)" fill="#3a552a" stroke="#000" stroke-miterlimit="10" stroke-width="2"/>
        <path id="Trazado_997624" data-name="Trazado 997624" d="M132.431,691.931a3.07,3.07,0,1,0,6.14,0" transform="translate(-108.711 -637.173)" fill="#3a552a" stroke="#000" stroke-miterlimit="10" stroke-width="2"/>
      </g>
      <rect id="Rectángulo_459857" data-name="Rectángulo 459857" width="81" height="79" transform="translate(705.788 1688.207)" fill="#3a552a"/>
    </g>
    <g id="Grupo_1188599" data-name="Grupo 1188599" transform="translate(0.371 -1278)">
      <g id="Grupo_1185067-2" data-name="Grupo 1185067" transform="translate(718.472 1696)">
        <path id="Trazado_997620-2" data-name="Trazado 997620" d="M133.124,646.71a15.477,15.477,0,1,0-14.332-.01" transform="translate(-99.168 -604.804)" fill="#fff006" stroke="#000" stroke-miterlimit="10" stroke-width="2"/>
        <rect id="Rectángulo_454823-2" data-name="Rectángulo 454823" width="14.333" height="4.288" transform="translate(19.625 41.893)" fill="#fff006" stroke="#000" stroke-miterlimit="10" stroke-width="2"/>
        <rect id="Rectángulo_454824-2" data-name="Rectángulo 454824" width="14.333" height="4.288" transform="translate(19.625 46.181)" fill="#fff006" stroke="#000" stroke-miterlimit="10" stroke-width="2"/>
        <path id="Trazado_997621-2" data-name="Trazado 997621" d="M135.492,688.628h-6.283a4.025,4.025,0,0,1-4.025-4.025v-.263h14.333v.263A4.025,4.025,0,0,1,135.492,688.628Z" transform="translate(-105.559 -633.871)" fill="#fff006" stroke="#000" stroke-miterlimit="10" stroke-width="2"/>
        <line id="Línea_3231-2" data-name="Línea 3231" y1="7.578" transform="translate(26.797)" fill="none" stroke="#000" stroke-miterlimit="10" stroke-width="2"/>
        <line id="Línea_3232-2" data-name="Línea 3232" x1="4.454" y1="6.13" transform="translate(10.236 5.387)" fill="none" stroke="#000" stroke-miterlimit="10" stroke-width="2"/>
        <line id="Línea_3233-2" data-name="Línea 3233" x1="7.2" y1="2.336" transform="translate(0 19.477)" fill="none" stroke="#000" stroke-miterlimit="10" stroke-width="2"/>
        <line id="Línea_3234-2" data-name="Línea 3234" x1="7.2" y2="2.341" transform="translate(0 34.55)" fill="none" stroke="#000" stroke-miterlimit="10" stroke-width="2"/>
        <line id="Línea_3235-2" data-name="Línea 3235" x1="7.2" y1="2.341" transform="translate(46.398 34.55)" fill="none" stroke="#000" stroke-miterlimit="10" stroke-width="2"/>
        <line id="Línea_3236-2" data-name="Línea 3236" x1="7.2" y2="2.336" transform="translate(46.398 19.477)" fill="none" stroke="#000" stroke-miterlimit="10" stroke-width="2"/>
        <line id="Línea_3237-2" data-name="Línea 3237" x1="4.454" y2="6.125" transform="translate(38.91 5.387)" fill="none" stroke="#000" stroke-miterlimit="10" stroke-width="2"/>
        <path id="Trazado_997622-2" data-name="Trazado 997622" d="M119,638.208a10.647,10.647,0,0,1,4.484-8.693" transform="translate(-102.867 -610.025)" fill="#fff006" stroke="#000" stroke-miterlimit="10" stroke-width="2"/>
        <line id="Línea_3238-2" data-name="Línea 3238" y2="8.634" transform="translate(26.797 33.258)" fill="none" stroke="#000" stroke-miterlimit="10" stroke-width="2"/>
        <path id="Trazado_997623-2" data-name="Trazado 997623" d="M133.157,647.74l2.669,3.47,3-3.47" transform="translate(-109.027 -617.951)" fill="#fff006" stroke="#000" stroke-miterlimit="10" stroke-width="2"/>
        <path id="Trazado_997624-2" data-name="Trazado 997624" d="M132.431,691.931a3.07,3.07,0,1,0,6.14,0" transform="translate(-108.711 -637.173)" fill="#fff006" stroke="#000" stroke-miterlimit="10" stroke-width="2"/>
      </g>
      <rect id="Rectángulo_459857-2" data-name="Rectángulo 459857" width="80" height="80" transform="translate(705.258 1688)" fill="#fff006"/>
    </g>
    <g id="Grupo_1212312" data-name="Grupo 1212312" transform="translate(718.249 420.235)">
      <g id="Grupo_1212311" data-name="Grupo 1212311" transform="translate(0 0.001)" clip-path="url(#clip-path)">
        <path id="Trazado_1273855" data-name="Trazado 1273855" d="M16.7,183.757c3.545,1.89,5.094,5.375,3.632,9.017-.89,2.219-.19,3.681-1.37,3.783-1.523.132-.991-2.62-.241-4.513a4.966,4.966,0,0,0-1.017-5.385,9.324,9.324,0,0,1-10.608.05l-.976,1.217a4.993,4.993,0,0,0-.16,3.994c.688,1.857,1.368,4.6-.078,4.645a.854.854,0,0,1-.906-.819,11.39,11.39,0,0,0-.6-2.975l-.5-1.556a23.95,23.95,0,0,0-2.094,4.724.939.939,0,0,1-.967.753.859.859,0,0,1-.784-1.029,27.588,27.588,0,0,1,4.581-8.777,8.944,8.944,0,0,1,2.931-2.84l-5.805-.854a.854.854,0,0,1-.779-.953l2.014-15.58a6.142,6.142,0,0,1,4.8-5.338,18.613,18.613,0,0,1,3.389-.17c.588-.019,1.047.275,1.082.8a.892.892,0,0,1-.925.975l-2.25-.006a4.388,4.388,0,0,0-4.355,4.13l-1.9,14.505,6.615.952-.011-5.645a2.922,2.922,0,1,1,.173-5.7c1.116-3.39,3.57-4.371,7.081-4.163a4.959,4.959,0,0,0,4.829-4.077l-7.07.006a.918.918,0,0,1-.978-.857.9.9,0,0,1,.862-.9l8.144-.01a.852.852,0,0,1,.918.86,6.8,6.8,0,0,1-3.248,5.781l2.712,8.434a.982.982,0,0,1-.149.816.889.889,0,0,1-.806.341h-1.8a6.548,6.548,0,0,1-3.386,6.369m-5.515-1.6a4.942,4.942,0,0,0,4.466.138,4.722,4.722,0,0,0,2.508-3.013c.455-1.8-.385-3.709,1.225-3.659a4.4,4.4,0,0,0,1.373-.071l-2.254-7.02a13.958,13.958,0,0,1-3.312.214,3.861,3.861,0,0,0-4.011,3.84.956.956,0,0,1-.611.82c-.336.133-.645-.073-.954-.3a1.2,1.2,0,0,0-1.668.2,1.179,1.179,0,0,0,.229,1.6c.986.811,1.607-.655,2.493-.272a.743.743,0,0,1,.5.635Zm5.015,3.361a7.631,7.631,0,0,0-7.692.01,7.563,7.563,0,0,0,7.692-.01" transform="translate(0 -137.165)" fill="#12263f"/>
        <path id="Trazado_1273856" data-name="Trazado 1273856" d="M218.08,169.821a.975.975,0,0,1-.728.612.9.9,0,0,1-.806-.336l-1.942-2.73a7.74,7.74,0,0,0-2.307,6.561l.633,5.129a.923.923,0,0,1-.625,1.112.882.882,0,0,1-1.1-.728l-.63-4.9a9.651,9.651,0,0,1,5.631-10.324,6.489,6.489,0,0,1-2.953-6.067l-1.75-.019c-.5.083-1.2-.435-1.015-1.034l2.433-7.728a6.759,6.759,0,0,1-5.492-6.456.881.881,0,0,1,.836-1l12.04,0a6.611,6.611,0,0,1,6.659,6.551l.017,4.035a2.947,2.947,0,0,1,1.692,2.89,2.876,2.876,0,0,1-2.2,2.618,6.821,6.821,0,0,1-3,6.191,9.553,9.553,0,0,1,5.058,5.105.9.9,0,0,1-.645,1.1c-1.127.34-1.276-1.784-2.761-3.047l-1.953,2.725a.923.923,0,0,1-.8.344c-.372-.043-.573-.321-.747-.658l-1.765-3.424Zm7.114-17.659-.011-3.667a4.867,4.867,0,0,0-5.025-4.8l-10.865,0a4.964,4.964,0,0,0,4.91,4.034l7.3,0a.877.877,0,0,1,.9.895,3.719,3.719,0,0,0,2.792,3.538m-1.512,5.075a.88.88,0,0,1,.042-1.254c.88-.794,1.9,1.161,2.927-.067a1.138,1.138,0,0,0-.154-1.621c-1.017-.868-1.7.731-2.695.155-.312-.18-.35-.645-.386-1.061a5.69,5.69,0,0,1-2.687-3.88l-5.954-.007-2.219,6.857a7.729,7.729,0,0,1,1.887.087c1.3.419-.6,3.963,2.583,6.191a4.871,4.871,0,0,0,5.471.054,4.988,4.988,0,0,0,2.179-4.82,2.431,2.431,0,0,1-.994-.635M217.112,167.8l1.149-2.309a5.673,5.673,0,0,0-2.228.83Zm6.551-1.492a6.51,6.51,0,0,0-2.208-.844l1.156,2.36Z" transform="translate(-176.557 -120.795)" fill="#12263f"/>
        <path id="Trazado_1273857" data-name="Trazado 1273857" d="M73.6,55.658a.928.928,0,0,1-.972.4.887.887,0,0,1-.643-.8l-.026-4.842L59,50.435a3.322,3.322,0,0,1-3.5-3.253l0-7.024A3.168,3.168,0,0,1,58.55,37l19.19-.021a3.252,3.252,0,0,1,3.288,3.269l-.013,7a3.24,3.24,0,0,1-3.364,3.165Zm.181-3.175,2.667-3.411a1.1,1.1,0,0,1,1.01-.412,1.616,1.616,0,0,0,1.818-1.7l0-6.567a1.526,1.526,0,0,0-1.382-1.632l-19.319.011c-.854,0-1.322.943-1.318,1.632l.038,6.934a1.5,1.5,0,0,0,1.261,1.3l14.338.034a.89.89,0,0,1,.849.956Z" transform="translate(-47.24 -31.476)" fill="#12263f"/>
        <path id="Trazado_1273858" data-name="Trazado 1273858" d="M204.012,11.878l2.977,3.65.028-3.026a.764.764,0,0,1,.772-.762l10.369-.021a1.629,1.629,0,0,0,1.695-1.592l-.007-6.871a1.538,1.538,0,0,0-1.365-1.465L199.16,1.8c-.949,0-1.444,1.113-1.348,1.891a.966.966,0,0,1-.824,1.2c-.554.037-.909-.462-.949-1.027A3.41,3.41,0,0,1,199.453.008L218.192,0a3.259,3.259,0,0,1,3.4,3.12l.021,7a3.315,3.315,0,0,1-3.329,3.342l-9.5.011v4.532a1.025,1.025,0,0,1-.428.958.917.917,0,0,1-1.175-.223l-4.131-5.253c-.373-.063-.914-.094-1.1-.464a.839.839,0,0,1,.307-1.159,2.22,2.22,0,0,1,1.755.012" transform="translate(-166.852 -0.001)" fill="#12263f"/>
        <path id="Trazado_1273859" data-name="Trazado 1273859" d="M248,29.668H234.3a.952.952,0,0,1-.858-.941.924.924,0,0,1,.976-.84l13.383,0c.552,0,.935.228,1.024.709A.882.882,0,0,1,248,29.668" transform="translate(-198.695 -23.735)" fill="#12263f"/>
        <path id="Trazado_1273860" data-name="Trazado 1273860" d="M275.642,51.872l-8.764,0a.889.889,0,0,1-.9-.83.867.867,0,0,1,.9-.938l8.889.014a.823.823,0,0,1,.759.921.87.87,0,0,1-.888.831" transform="translate(-226.39 -42.649)" fill="#12263f"/>
        <path id="Trazado_1273861" data-name="Trazado 1273861" d="M339.248,351.091c-.064.61-.367,1.038-.9,1.062a.863.863,0,0,1-.892-1.019c.234-2.053.606-4.054.669-6.142.018-.586.282-1.028.817-1.05a.921.921,0,0,1,.96,1.052c-.05,2.049-.435,4-.653,6.1" transform="translate(-287.223 -292.75)" fill="#12263f"/>
        <path id="Trazado_1273862" data-name="Trazado 1273862" d="M77.64,347.932a.883.883,0,0,1,1.235.355.855.855,0,0,1-.34,1.129.881.881,0,0,1-1.2-.312.848.848,0,0,1,.3-1.172" transform="translate(-65.725 -296.043)" fill="#12263f"/>
        <path id="Trazado_1273863" data-name="Trazado 1273863" d="M286.143,327.12a.838.838,0,0,1,1.155.46.86.86,0,0,1-.458,1.131.869.869,0,0,1-.7-1.591" transform="translate(-243.119 -278.359)" fill="#12263f"/>
        <path id="Trazado_1273864" data-name="Trazado 1273864" d="M77.67,367.835a.889.889,0,0,1,1.238.361.848.848,0,0,1-.358,1.116.833.833,0,0,1-1.175-.3.858.858,0,0,1,.3-1.178" transform="translate(-65.757 -312.984)" fill="#12263f"/>
        <path id="Trazado_1273865" data-name="Trazado 1273865" d="M85.494,259.43c.108,2.183,2.58,1.125,2.488,2.539a.894.894,0,0,1-1.087.846,3.378,3.378,0,0,1-3.132-3.594.812.812,0,0,1,.98-.66.86.86,0,0,1,.752.869" transform="translate(-71.286 -220.071)" fill="#12263f"/>
        <path id="Trazado_1273866" data-name="Trazado 1273866" d="M111.778,228a.811.811,0,0,1-.926.724.822.822,0,0,1-.791-.807l-.02-1.159a.861.861,0,0,1,.812-.917.822.822,0,0,1,.939.768Z" transform="translate(-93.662 -192.228)" fill="#12263f"/>
        <path id="Trazado_1273867" data-name="Trazado 1273867" d="M265.949,243.726a.873.873,0,1,1-.177-1.737,1.73,1.73,0,0,0,1.729-1.711.881.881,0,0,1,.938-.813.9.9,0,0,1,.8.964,3.374,3.374,0,0,1-3.291,3.3" transform="translate(-225.531 -203.822)" fill="#12263f"/>
        <path id="Trazado_1273868" data-name="Trazado 1273868" d="M261.265,208.453a.848.848,0,0,1-.731.763.837.837,0,0,1-.926-.615,4.16,4.16,0,0,1,.005-1.735.818.818,0,0,1,.9-.565.834.834,0,0,1,.762.774Z" transform="translate(-220.893 -175.59)" fill="#12263f"/>
        <path id="Trazado_1273869" data-name="Trazado 1273869" d="M128.5,87.909l-9.967-.015a.88.88,0,0,1,.158-1.752h9.791a.861.861,0,0,1,.927.8.891.891,0,0,1-.91.97" transform="translate(-100.226 -73.319)" fill="#12263f"/>
        <path id="Trazado_1273870" data-name="Trazado 1273870" d="M89.119,65.676l-7.039.008a.9.9,0,1,1,.14-1.784l6.985.022a.822.822,0,0,1,.758.81.875.875,0,0,1-.843.944" transform="translate(-69.125 -54.389)" fill="#12263f"/>
        <path id="Trazado_1273871" data-name="Trazado 1273871" d="M154.414,65.711l-5.529-.013c-.487,0-.776-.582-.752-.918a.87.87,0,0,1,.873-.833l5.355-.006a.879.879,0,0,1,.912.829.867.867,0,0,1-.86.941" transform="translate(-126.084 -54.424)" fill="#12263f"/>
      </g>
    </g>
  </g>
</svg>
