<svg xmlns="http://www.w3.org/2000/svg" xmlns:xlink="http://www.w3.org/1999/xlink" width="128" height="128" viewBox="0 0 128 128">
  <defs>
    <clipPath id="clip-path">
      <rect id="Rectángulo_459899" data-name="Rectángulo 459899" width="128" height="128" fill="none"/>
    </clipPath>
    <clipPath id="clip-path-2">
      <rect id="Rectángulo_465391" data-name="Rectángulo 465391" width="66.206" height="66.22" fill="#12263f"/>
    </clipPath>
  </defs>
  <g id="Grupo_1212495" data-name="Grupo 1212495" transform="translate(-3008.574 6090.281)">
    <g id="Grupo_1211253" data-name="Grupo 1211253" transform="translate(3008.574 -6090.281)">
      <g id="Grupo_1188515" data-name="Grupo 1188515" clip-path="url(#clip-path)">
        <path id="Trazado_1033015" data-name="Trazado 1033015" d="M128,64A64,64,0,1,1,64,0a64,64,0,0,1,64,64" fill="#fff"/>
        <path id="Trazado_1033016" data-name="Trazado 1033016" d="M154.441,185.937l.625-.59c-.045-.02-.215.119-.625.59" transform="translate(-131.184 -157.435)" fill="#e4cbc1"/>
        <path id="Trazado_1033017" data-name="Trazado 1033017" d="M374.691,757.713l-.2.008a.74.74,0,0,0,.2-.008" transform="translate(-318.095 -643.61)" fill="#e4cbc1"/>
        <path id="Trazado_1033018" data-name="Trazado 1033018" d="M342.621,99.876l-.041.008-.2.065Z" transform="translate(-290.823 -84.836)" fill="#e4cbc1"/>
        <path id="Trazado_1033019" data-name="Trazado 1033019" d="M81.364,97.171a46.672,46.672,0,0,1,3.779-5.711c1.133-1.6,2.359-2.8,3.473-4.1.6-.615,1.228-1.2,1.858-1.825l.97-.96,1.1-.927a47.547,47.547,0,0,1,5.5-4.2,46.375,46.375,0,0,1,14.737-5.883c2.322-.985,6.71-.887,9.606-1.239l1.123.269a11.86,11.86,0,0,1,3.182.125l-.069.054c1.5.046,3.178.288,3.916.385l-.072.049,1.79.338-.325.025c.647.092,1.3.178,1.95.3l1.9.5c.625.176,1.248.337,1.843.538l1.707.68-.095-.313c.586.256,1.127.482,1.636.685s.956.45,1.4.64c.875.4,1.663.733,2.437,1.063.743.389,1.473.772,2.258,1.217.39.226.8.452,1.22.731.4.3.829.621,1.28.979l-.087.017c.647.335,1.251.674,1.819,1.016.55.366,1.04.768,1.521,1.149s.933.772,1.375,1.157.817.833,1.223,1.245c1.618,1.661,3.114,3.436,5.222,5.6-.519-.547.09.338,0,.328l1.3,1.6c.419.52.765,1.051,1.108,1.479.671.868,1.2,1.425,1.432,1.308,1.071,1.738.7,1.516.678,1.837.172-.117,1.176,1.354,1.91,2.769-.137-.2-.255-.419-.406-.615.7,1.351,1.393,2.708,2.057,4.079.025-.338,0-.658.006-.99.887,2.273-.217.771.773,2.875l.313-.159a19.563,19.563,0,0,1,.732,2.189c.165.694.3,1.349.426,2s.257,1.3.371,1.981c.091.692.2,1.416.339,2.21a73.426,73.426,0,0,1,1.768,9.989,51.748,51.748,0,0,1-.063,10.205l-.136,1.264-.068.631-.127.619-.512,2.466a17.435,17.435,0,0,1-.677,2.4c-.26.785-.5,1.577-.779,2.345l-1.018,2.217a17.671,17.671,0,0,1-1.094,2.137,29.664,29.664,0,0,1-2.668,3.842l-.541.266c-.411-.047-1.68,2.982-2.322,3.054-.289.381-.56.782-.872,1.147-.34.231-1,.763-.546.208a16.966,16.966,0,0,0-1.6,1.672c-.4.26-.832.482-1.247.718a74.424,74.424,0,0,1-6.176,4.184,35.986,35.986,0,0,1-6.974,3.266,93.37,93.37,0,0,1-12.7,2.748,98.083,98.083,0,0,1-13.538.888,49.735,49.735,0,0,1-15.981-2.551A67.158,67.158,0,0,1,89.2,160.415a3.592,3.592,0,0,0-1.043-.6c-.607-.5-1.191-1.018-1.788-1.524l-.892-.764-.814-.843L83.038,155l-1.448-1.839-.312-.392-.37-.462-.431-.661a34.528,34.528,0,0,1-2.393-4.01,21.288,21.288,0,0,1-1.264-2.643c-.367-.945-.809-1.89-1.144-2.87-.6-1.985-1.275-3.931-1.646-5.694-.817-3.5-1.184-6.012-1.59-5.364a10.1,10.1,0,0,0-.38,3.632,36.74,36.74,0,0,0,.261,4.12c.111.827.29,1.722.463,2.705l.285,1.536c.1.534.292,1.062.445,1.627l-.169-.205L74,146.362l.315.882c.12.281.257.548.381.813.513,1.057.982,2.038,1.479,2.94a23.866,23.866,0,0,0,3.582,4.589,2,2,0,0,0,.442.92c.138.2.3.413.48.634l.634.637c.893.855,1.832,1.78,2.277,2.258l-.123-.049c1.44.94,2.657,2.2,4.065,3.215a21.712,21.712,0,0,0,2.08,1.531,20.226,20.226,0,0,0,2.212,1.179,1.586,1.586,0,0,1-.914-.312c.528.279,1.088.616,1.669.891l1.672.779a6.405,6.405,0,0,1,1.806,1.055,58.146,58.146,0,0,0,8.915,2.859,38.937,38.937,0,0,0,4.323.8,21.527,21.527,0,0,0,3.393.24l-.255.051c2.064-.038,2.637.242,4.926.254.122.048.282.081.255.1,2.224-.154,6.453.16,8.246-.044l.121.2c1.471-.063,2.943-.144,4.411-.283-.55.035-1.1.057-1.651.072.528-.57,3.368.143,6.519-.667,3.013-.374,5.76-2.2,8.767-2.816,1.338-.666-1.123.779.93-.058.158.256-.934.483-.32.533,2.031-.8,3.509-.855,5.925-2.117l.192.158c3.044-1.81,6.1-2.831,7.832-4.521a12.491,12.491,0,0,1,2.589-1.686,7.231,7.231,0,0,0,2.446-2.076l1.289-.82c1.182-1.163.579-1.085,1.894-2.356.081.221,1.608-1.677,1.065-.73a25.026,25.026,0,0,0,3.654-5.365l.793-1.559.736-1.663c.517-1.127,1.131-2.276,1.628-3.56a11.286,11.286,0,0,1,.554-2.482,9.248,9.248,0,0,0,.349-2.272,16.21,16.21,0,0,0,.622-2.336c.152-.953.277-1.513.255.045,0,.268-.128.724-.177.682l.135.4a8.52,8.52,0,0,0,.506-2.205c.091-.724.141-1.434.179-2.142a18.33,18.33,0,0,0,0-2.137c-.016-.721-.015-1.456.03-2.224-.107.909-.136,2.118-.254,1.3.024-.946.144-1.9.088-2.841l.208.59-.069-4.248-.2.6a16.372,16.372,0,0,0-.374-5.124c-.338-1.012-.031,1.981-.416-.161-.2-1.358-.356-3.084-.717-4.868a47.607,47.607,0,0,0-1.326-5.338c-.14.392-.431-.509-.79-1.414l.174-.182c-.748-1.716-.836-2.047-.821-2.419-.007-.362-.007-.729-.825-2.405l.267.242c-.262-.244-.534-.481-.824-.708a6.605,6.605,0,0,1-1.153-2.355,5.909,5.909,0,0,0-1.474-2.5c.758,1.259-.091.834-.892-.773l.412.289a17.513,17.513,0,0,1-1.063-1.687c.382.462.457.091-.4-1.112l.772.684L165.6,92.049A18.783,18.783,0,0,0,163.509,89c-.376-.488-.727-.946-1-1.338a5.175,5.175,0,0,1-.606-.9s-.743-.9-1.609-1.864a12.043,12.043,0,0,0-1.381-1.336,6.591,6.591,0,0,0-1.09-.81c.821.5-.989-1.34-.3-1.013-.495-.363-1.516-1.015-2.5-1.751-.491-.366-.978-.748-1.4-1.107s-.833-.633-1.091-.89l.241.13c-4.218-3.29-7.918-4.417-12.214-6.37.112.317-2.184-.685-1.71-.156-2.377-.551-4.454-1.343-6.252-1.734a13.7,13.7,0,0,0-2.393-.462,4.062,4.062,0,0,0-1.764.222c-2.186-.246-2.573-.514-3.715-.623l.531-.029-2.636-.075c-.744,0-1.38.051-1.982.066-1.2.058-2.278.029-3.809.226a11.52,11.52,0,0,0-1.761.507,19.819,19.819,0,0,1-2.645.594c.836-.354-.258-.107-1.266.089.637-.154.826-.261-.529-.127-.174.095-.456.176-.712.289-.014-.011-.069-.008-.047-.035-1.639.529-1.333.5-.561.314-.031.039.043.056.292.041a27.084,27.084,0,0,0-3.085.739c-.993.322-1.784.633-1.945.51A39.849,39.849,0,0,0,93.325,78.8c-.489.15.229-.557,1.2-1.347L92.1,79.3c-.129-.2,1.332-1.145,2.065-1.738a23.017,23.017,0,0,0-2.311,1.553c-.7.628-1.394,1.3-2.1,1.976-.724.657-1.373,1.412-2.064,2.155s-1.47,1.433-2.187,2.216l-.418.8-.185.174a4.4,4.4,0,0,1-.788,1.37c-.537.337-.39-.359-1.6,1.363a15.244,15.244,0,0,0-1.861,2.669l-1.695,3.217c.627-.986.539-.6.34-.138a21.883,21.883,0,0,0-1.241,2.11l-.3-.041c.213-.121-.039.517-.352,1.233a11.516,11.516,0,0,0-.648,1.74c-.422.46.467-1.565.487-1.848-.9,1.893-1.062,2.4-1.285,2.87-.185.49-.478.937-1.159,2.919-.567,2.169.389-.287.255.8-.673,1.844-.967,3.743-1.775,5.846l.442-.615c-.41,1.784-.623,3.233-.95,4.5-.267,1.282-.49,2.422-.822,3.621-.138,1.7-.086,3.229-.119,4.563.031,1.339.145,2.5.214,3.5a20.484,20.484,0,0,0,.348,2.542c.127.7.243,1.26.35,1.7.443,1.757.753,1.614.887.617a39.933,39.933,0,0,0,.33-4.258c.147-1.525.229-2.806.229-2.806a116.086,116.086,0,0,1,2.145-12.969l.788-3.08c.294-1.051.671-2.117,1.03-3.257a53.709,53.709,0,0,1,3.2-7.432" transform="translate(-61.023 -58.519)" fill="#3a552a"/>
      </g>
    </g>
    <g id="Grupo_1212393" data-name="Grupo 1212393" transform="translate(3038.971 -6064.321)">
      <g id="Grupo_1212392" data-name="Grupo 1212392" clip-path="url(#clip-path-2)">
        <path id="Trazado_1274169" data-name="Trazado 1274169" d="M13.912,267.914l-3.123.068a1.434,1.434,0,0,1-1.11-.544c-.331-.408-.233-1.051-.245-1.557l-2.418-1.066c-.573.855-1.6,1.4-2.33.679l-2.16-2.12a1.42,1.42,0,0,1-.315-1.282,2.012,2.012,0,0,1,.9-1.075L2.1,258.462c-1.011.3-2.084-.128-2.087-1.128L0,254.255c0-1.012,1.041-1.472,2.057-1.2l1.067-2.535c-.759-.408-1.357-1.507-.752-2.118l2.385-2.414c.706-.715,1.8-.1,2.266.744,1.381-.836,2.53-.65,2.411-1.594-.077-.608.288-1.491,1.012-1.513a17.252,17.252,0,0,1,3.712.066c.81.154.932,1.258.8,1.984l2.471,1.052c.448-.768,1.33-1.338,2.083-.846l2.195,2.074a1.639,1.639,0,0,1,.532,1.353c-.035.441-.614.871-.943,1.246.214.723.636,1.515.905,2.263.1.273,2.206-.142,2.2,1.433l-.017,3.1a1.32,1.32,0,0,1-1.586,1.176c-.9-.124-.752,1.032-1.566,2.41.768.436,1.471,1.5.805,2.166l-2.482,2.489c-.608.61-1.72,0-2.109-.745l-2.494,1.036c.167.867-.077,2.013-1.038,2.034m-.741-1.849a1.574,1.574,0,0,1,1.292-2.121c1.917-.371,2.887-2.191,4.425-.23a7.58,7.58,0,0,0,1.236-1.339c-1.9-1.433-.18-2.29.356-4.618a1.534,1.534,0,0,1,1.982-1.067,4.7,4.7,0,0,0,0-1.893c-2.294.372-1.677-1.309-3.018-3.533a1.533,1.533,0,0,1,.709-2.118L18.82,247.8a1.586,1.586,0,0,1-2.361.605c-1.724-1.16-3.7-.533-3.3-2.923h-1.9a1.572,1.572,0,0,1-1.2,2.047c-2.172.45-2.968,2.224-4.539.288L4.252,249.07c1.959,1.557.118,2.53-.235,4.424a1.611,1.611,0,0,1-2.155,1.3l.031,1.9c2.3-.336,1.735,1.215,3.119,3.681a1.48,1.48,0,0,1-.768,1.98L5.6,263.725a1.554,1.554,0,0,1,2.34-.619c1.9,1.207,3.7.568,3.327,2.974Z" transform="translate(0 -201.762)" fill="#12263f"/>
        <path id="Trazado_1274170" data-name="Trazado 1274170" d="M156.886,27.374a7.98,7.98,0,0,1-2.239.045,1.97,1.97,0,0,1-1.721-2.562.915.915,0,0,0-.043-.409c-.1-.194-1.832.111-1.829-.81l.021-6.991c0-.595.226-.956-.032-1.58-1.04-2.52-2.9-5.159-3.054-6.712a7.7,7.7,0,1,1,15.335,0c-.151,1.56-2.024,4.193-3.054,6.713-.253.62-.039.984-.035,1.58l.053,6.843c.009,1.1-1.614.787-1.778.876-.3.161.549,2.592-1.624,3.008m1.291-11.626a16.832,16.832,0,0,1,2.056-4.847,10.51,10.51,0,0,0,1.206-2.716,5.8,5.8,0,1,0-11.561,0c.169,1.492,2.832,4.855,3.292,7.631Zm.213,3.44,0-1.52h-5.476l.005,1.52Zm0,3.278,0-1.41h-5.457V22.47Zm-1.858,3.074-.017-1.187H154.8a3.92,3.92,0,0,0,.005,1.195,7.244,7.244,0,0,0,1.723-.008" transform="translate(-122.563 0)" fill="#12263f"/>
        <path id="Trazado_1274171" data-name="Trazado 1274171" d="M259.348,248.409a11.8,11.8,0,1,1-11.054,12.572,11.772,11.772,0,0,1,11.054-12.572m0,1.881a9.92,9.92,0,1,0,10.606,9.1,9.9,9.9,0,0,0-10.606-9.1" transform="translate(-205.663 -205.762)" fill="#12263f"/>
        <path id="Trazado_1274172" data-name="Trazado 1274172" d="M162.163,188.831l-13.756,0a.947.947,0,0,1-.944-1.039l.034-5.68a7.606,7.606,0,0,1,4.466-6.624,5.127,5.127,0,1,1,6.577,0A7.621,7.621,0,0,1,163,182.117l.031,5.853a.914.914,0,0,1-.873.861m-7.258-20.5a3.188,3.188,0,0,0-2.858,3.7,3.276,3.276,0,0,0,3.612,2.748,3.311,3.311,0,0,0,2.816-3.673,3.239,3.239,0,0,0-3.57-2.772m6.25,18.607-.02-4.663a5.891,5.891,0,0,0-11.768,0l-.014,4.676Z" transform="translate(-122.157 -137.87)" fill="#12263f"/>
        <path id="Trazado_1274173" data-name="Trazado 1274173" d="M239.778,124.094a.906.906,0,0,1-1.089.592l-2.325-.6a.958.958,0,0,1-.773-1.318,1.07,1.07,0,0,1,1.354-.512l-11.469-19.872a.954.954,0,0,1,.358-1.224.934.934,0,0,1,1.262.3l11.457,19.834c.2-.519.536-.921,1.063-.9a.915.915,0,0,1,.854,1.148Z" transform="translate(-186.699 -83.693)" fill="#12263f"/>
        <path id="Trazado_1274174" data-name="Trazado 1274174" d="M80.819,133.367a.934.934,0,0,1-1.282.45.956.956,0,0,1-.376-1.3l9.672-16.784c-.652,0-1.158-.135-1.335-.681a.994.994,0,0,1,.751-1.228c1.956-.461,3.2-1.159,3.538.117l.608,2.32a.93.93,0,0,1-.607,1.207c-.569.152-.977-.17-1.3-.832Z" transform="translate(-65.476 -93.786)" fill="#12263f"/>
        <path id="Trazado_1274175" data-name="Trazado 1274175" d="M135.071,332.994a1.2,1.2,0,0,1,.2,1.381.91.91,0,0,1-1.3.2l-1.985-1.962a.916.916,0,0,1,.032-1.249l1.713-1.716a.982.982,0,0,1,1.418-.088,1.062,1.062,0,0,1-.141,1.538l15.775.032c.454,0,.629.643.608.919-.023.3-.3.919-.785.92Z" transform="translate(-109.149 -272.79)" fill="#12263f"/>
        <path id="Trazado_1274176" data-name="Trazado 1274176" d="M42.722,281.32a5.708,5.708,0,0,1,6.415,4.9,5.734,5.734,0,0,1-11.338,1.72,5.683,5.683,0,0,1,4.922-6.617m.177,1.872a3.821,3.821,0,0,0-3.228,4.577,3.86,3.86,0,0,0,7.592-1.4,3.811,3.811,0,0,0-4.364-3.182" transform="translate(-31.249 -233.002)" fill="#12263f"/>
        <path id="Trazado_1274177" data-name="Trazado 1274177" d="M304.31,292.412a1.59,1.59,0,0,1-.317,1.225.94.94,0,0,1-1.1.1,1.065,1.065,0,0,1-.411-1.272A2.846,2.846,0,0,1,300.6,289.3a.854.854,0,0,1,1.064-.532c1.035.189.442,1.759,1.582,1.866a.983.983,0,0,0,1.04-.67c.143-.374-.075-1.146-.646-1.173a3.049,3.049,0,0,1-3.035-2.233,2.93,2.93,0,0,1,1.831-3.444c-.006-.436-.013-.99.274-1.215a1.063,1.063,0,0,1,1.223-.026c.322.207.38.76.386,1.259a2.9,2.9,0,0,1,1.841,2.986,1.006,1.006,0,0,1-1.009.687c-1.153-.142-.458-1.7-1.65-1.89a.957.957,0,1,0-.3,1.89,2.91,2.91,0,0,1,2.949,2.3,2.975,2.975,0,0,1-1.842,3.3" transform="translate(-248.947 -233.356)" fill="#12263f"/>
      </g>
    </g>
  </g>
</svg>
