<svg xmlns="http://www.w3.org/2000/svg" xmlns:xlink="http://www.w3.org/1999/xlink" width="84" height="84" viewBox="0 0 84 84">
  <defs>
    <clipPath id="clip-path">
      <rect id="Rectángulo_465314" data-name="Rectángulo 465314" width="56.482" height="56.467" fill="#12263f"/>
    </clipPath>
  </defs>
  <g id="Grupo_1209801" data-name="Grupo 1209801" transform="translate(-705.629 -410)">
    <g id="Grupo_1188476" data-name="Grupo 1188476" transform="translate(2.841 -1273.207)">
      <g id="Grupo_1185067" data-name="Grupo 1185067" transform="translate(719.227 1696)">
        <path id="Trazado_997620" data-name="Trazado 997620" d="M133.124,646.71a15.477,15.477,0,1,0-14.332-.01" transform="translate(-99.168 -604.804)" fill="#3a552a" stroke="#000" stroke-miterlimit="10" stroke-width="2"/>
        <rect id="Rectángulo_454823" data-name="Rectángulo 454823" width="14.333" height="4.288" transform="translate(19.625 41.893)" fill="#3a552a" stroke="#000" stroke-miterlimit="10" stroke-width="2"/>
        <rect id="Rectángulo_454824" data-name="Rectángulo 454824" width="14.333" height="4.288" transform="translate(19.625 46.181)" fill="#3a552a" stroke="#000" stroke-miterlimit="10" stroke-width="2"/>
        <path id="Trazado_997621" data-name="Trazado 997621" d="M135.492,688.628h-6.283a4.025,4.025,0,0,1-4.025-4.025v-.263h14.333v.263A4.025,4.025,0,0,1,135.492,688.628Z" transform="translate(-105.559 -633.871)" fill="#3a552a" stroke="#000" stroke-miterlimit="10" stroke-width="2"/>
        <line id="Línea_3231" data-name="Línea 3231" y1="7.578" transform="translate(26.797)" fill="none" stroke="#000" stroke-miterlimit="10" stroke-width="2"/>
        <line id="Línea_3232" data-name="Línea 3232" x1="4.454" y1="6.13" transform="translate(10.236 5.387)" fill="none" stroke="#000" stroke-miterlimit="10" stroke-width="2"/>
        <line id="Línea_3233" data-name="Línea 3233" x1="7.2" y1="2.336" transform="translate(0 19.477)" fill="none" stroke="#000" stroke-miterlimit="10" stroke-width="2"/>
        <line id="Línea_3234" data-name="Línea 3234" x1="7.2" y2="2.341" transform="translate(0 34.55)" fill="none" stroke="#000" stroke-miterlimit="10" stroke-width="2"/>
        <line id="Línea_3235" data-name="Línea 3235" x1="7.2" y1="2.341" transform="translate(46.398 34.55)" fill="none" stroke="#000" stroke-miterlimit="10" stroke-width="2"/>
        <line id="Línea_3236" data-name="Línea 3236" x1="7.2" y2="2.336" transform="translate(46.398 19.477)" fill="none" stroke="#000" stroke-miterlimit="10" stroke-width="2"/>
        <line id="Línea_3237" data-name="Línea 3237" x1="4.454" y2="6.125" transform="translate(38.91 5.387)" fill="none" stroke="#000" stroke-miterlimit="10" stroke-width="2"/>
        <path id="Trazado_997622" data-name="Trazado 997622" d="M119,638.208a10.647,10.647,0,0,1,4.484-8.693" transform="translate(-102.867 -610.025)" fill="#3a552a" stroke="#000" stroke-miterlimit="10" stroke-width="2"/>
        <line id="Línea_3238" data-name="Línea 3238" y2="8.634" transform="translate(26.797 33.258)" fill="none" stroke="#000" stroke-miterlimit="10" stroke-width="2"/>
        <path id="Trazado_997623" data-name="Trazado 997623" d="M133.157,647.74l2.669,3.47,3-3.47" transform="translate(-109.027 -617.951)" fill="#3a552a" stroke="#000" stroke-miterlimit="10" stroke-width="2"/>
        <path id="Trazado_997624" data-name="Trazado 997624" d="M132.431,691.931a3.07,3.07,0,1,0,6.14,0" transform="translate(-108.711 -637.173)" fill="#3a552a" stroke="#000" stroke-miterlimit="10" stroke-width="2"/>
      </g>
      <rect id="Rectángulo_459857" data-name="Rectángulo 459857" width="81" height="79" transform="translate(705.788 1688.207)" fill="#3a552a"/>
    </g>
    <g id="Grupo_1188599" data-name="Grupo 1188599" transform="translate(0.371 -1278)">
      <g id="Grupo_1185067-2" data-name="Grupo 1185067" transform="translate(718.472 1696)">
        <path id="Trazado_997620-2" data-name="Trazado 997620" d="M133.124,646.71a15.477,15.477,0,1,0-14.332-.01" transform="translate(-99.168 -604.804)" fill="#fff006" stroke="#000" stroke-miterlimit="10" stroke-width="2"/>
        <rect id="Rectángulo_454823-2" data-name="Rectángulo 454823" width="14.333" height="4.288" transform="translate(19.625 41.893)" fill="#fff006" stroke="#000" stroke-miterlimit="10" stroke-width="2"/>
        <rect id="Rectángulo_454824-2" data-name="Rectángulo 454824" width="14.333" height="4.288" transform="translate(19.625 46.181)" fill="#fff006" stroke="#000" stroke-miterlimit="10" stroke-width="2"/>
        <path id="Trazado_997621-2" data-name="Trazado 997621" d="M135.492,688.628h-6.283a4.025,4.025,0,0,1-4.025-4.025v-.263h14.333v.263A4.025,4.025,0,0,1,135.492,688.628Z" transform="translate(-105.559 -633.871)" fill="#fff006" stroke="#000" stroke-miterlimit="10" stroke-width="2"/>
        <line id="Línea_3231-2" data-name="Línea 3231" y1="7.578" transform="translate(26.797)" fill="none" stroke="#000" stroke-miterlimit="10" stroke-width="2"/>
        <line id="Línea_3232-2" data-name="Línea 3232" x1="4.454" y1="6.13" transform="translate(10.236 5.387)" fill="none" stroke="#000" stroke-miterlimit="10" stroke-width="2"/>
        <line id="Línea_3233-2" data-name="Línea 3233" x1="7.2" y1="2.336" transform="translate(0 19.477)" fill="none" stroke="#000" stroke-miterlimit="10" stroke-width="2"/>
        <line id="Línea_3234-2" data-name="Línea 3234" x1="7.2" y2="2.341" transform="translate(0 34.55)" fill="none" stroke="#000" stroke-miterlimit="10" stroke-width="2"/>
        <line id="Línea_3235-2" data-name="Línea 3235" x1="7.2" y1="2.341" transform="translate(46.398 34.55)" fill="none" stroke="#000" stroke-miterlimit="10" stroke-width="2"/>
        <line id="Línea_3236-2" data-name="Línea 3236" x1="7.2" y2="2.336" transform="translate(46.398 19.477)" fill="none" stroke="#000" stroke-miterlimit="10" stroke-width="2"/>
        <line id="Línea_3237-2" data-name="Línea 3237" x1="4.454" y2="6.125" transform="translate(38.91 5.387)" fill="none" stroke="#000" stroke-miterlimit="10" stroke-width="2"/>
        <path id="Trazado_997622-2" data-name="Trazado 997622" d="M119,638.208a10.647,10.647,0,0,1,4.484-8.693" transform="translate(-102.867 -610.025)" fill="#fff006" stroke="#000" stroke-miterlimit="10" stroke-width="2"/>
        <line id="Línea_3238-2" data-name="Línea 3238" y2="8.634" transform="translate(26.797 33.258)" fill="none" stroke="#000" stroke-miterlimit="10" stroke-width="2"/>
        <path id="Trazado_997623-2" data-name="Trazado 997623" d="M133.157,647.74l2.669,3.47,3-3.47" transform="translate(-109.027 -617.951)" fill="#fff006" stroke="#000" stroke-miterlimit="10" stroke-width="2"/>
        <path id="Trazado_997624-2" data-name="Trazado 997624" d="M132.431,691.931a3.07,3.07,0,1,0,6.14,0" transform="translate(-108.711 -637.173)" fill="#fff006" stroke="#000" stroke-miterlimit="10" stroke-width="2"/>
      </g>
      <rect id="Rectángulo_459857-2" data-name="Rectángulo 459857" width="80" height="80" transform="translate(705.258 1688)" fill="#fff006"/>
    </g>
    <g id="Grupo_1212233" data-name="Grupo 1212233" transform="translate(717.388 421.768)">
      <g id="Grupo_1212232" data-name="Grupo 1212232" clip-path="url(#clip-path)">
        <path id="Trazado_1273606" data-name="Trazado 1273606" d="M146.411,11.652l-1.859.026-.01,3.7a.784.784,0,0,1-.906.758.842.842,0,0,1-.736-.91L142.9,11c0-.343-.3-.469-.6-.458l-2.427.086-.028,12.929a.458.458,0,0,0,.46.463l2.129,0a.459.459,0,0,0,.463-.453l.013-4.354a.827.827,0,1,1,1.646.113l-.006,3.546,1.825.019a.824.824,0,0,1,.846.881.871.871,0,0,1-.975.792l-1.963.006a2.033,2.033,0,0,1-1.725,1.094h-2.379a2.086,2.086,0,0,1-1.979-2.378l-2.658-.041a8.718,8.718,0,0,1-5.408-2.492L128.09,18.68l-7.874-7.915a3.555,3.555,0,0,1-.777-4.307l-9.618-.025A4.278,4.278,0,0,1,105.673,2.4,2.1,2.1,0,0,1,107.7,0h17.06a4.323,4.323,0,0,1,2.692.972l4.011,3.187a.841.841,0,0,1,.209,1.21.822.822,0,0,1-1.232.1l-4.006-3.194a2.422,2.422,0,0,0-1.4-.6l-17.63,0A2.622,2.622,0,0,0,110.089,4.8l11.718-.011a3.8,3.8,0,0,1,2.556.7l7.881,7.2a.868.868,0,0,1,.105,1.26c-.371.395-.836.32-1.277-.086l-7.559-6.958a1.7,1.7,0,0,0-2.448.144,1.749,1.749,0,0,0,.27,2.459l10.344,10.365a6.869,6.869,0,0,0,5.08,1.737l1.436-.024-.012-9.957-4.819-3.855a.835.835,0,0,1-.031-1.139.814.814,0,0,1,1.122-.09l4.086,3.239a2.289,2.289,0,0,1,1.906-.921l1.986.005a2.07,2.07,0,0,1,1.855,1.113l2.235.026a.77.77,0,0,1,.7.774.83.83,0,0,1-.813.87" transform="translate(-90.742 -0.001)" fill="#12263f"/>
        <path id="Trazado_1273607" data-name="Trazado 1273607" d="M131.485,118.566a11.439,11.439,0,1,1-12.813,10.647,11.419,11.419,0,0,1,12.813-10.647m-2.21,3.392-.019-1.777a9.62,9.62,0,0,0-5.473,2.24l1.285,1.264a7.834,7.834,0,0,1,4.208-1.727m5.839,1.719,1.257-1.277a9.866,9.866,0,0,0-5.446-2.227l0,1.807a7.79,7.79,0,0,1,4.186,1.7m-12.962,5.416a7.9,7.9,0,0,1,1.7-4.2l-1.255-1.279a9.691,9.691,0,0,0-2.239,5.485Zm6.706-5.39a6.337,6.337,0,1,0,7.455,5.081,6.3,6.3,0,0,0-7.455-5.081m9.182,5.41,1.77-.018a9.708,9.708,0,0,0-2.243-5.486l-1.259,1.269a8.217,8.217,0,0,1,1.732,4.235M123.85,134.9a7.966,7.966,0,0,1-1.729-4.162l-1.773.022a9.743,9.743,0,0,0,2.25,5.445Zm13.716,1.3a9.931,9.931,0,0,0,2.266-5.444l-1.8.037a8.1,8.1,0,0,1-1.722,4.14Zm-8.311,3.494v-1.809a8.123,8.123,0,0,1-4.2-1.739l-1.269,1.253a10.011,10.011,0,0,0,5.471,2.3m1.663,0a9.972,9.972,0,0,0,5.444-2.283l-1.268-1.258a8.544,8.544,0,0,1-4.181,1.766Z" transform="translate(-101.895 -101.746)" fill="#12263f"/>
        <path id="Trazado_1273608" data-name="Trazado 1273608" d="M35.266,237.347l2.015-.02a4.271,4.271,0,0,1,4.272,4.039,2.119,2.119,0,0,1-2.027,2.4l-17.2-.009a4.317,4.317,0,0,1-2.643-1.047L8.693,233.969a2.1,2.1,0,0,1-1.5.9l-2.4.023a2.1,2.1,0,0,1-1.847-1.1l-2.107-.007A.842.842,0,0,1,0,232.973a.793.793,0,0,1,.761-.839l1.917-.061V220.889l-1.825-.02a.826.826,0,0,1-.848-.886.869.869,0,0,1,.976-.789l1.963,0A1.973,1.973,0,0,1,4.671,218.1H7.045a2.069,2.069,0,0,1,1.981,2.377c3.036-.188,6.027.423,8.142,2.591l3.072,3.15a.791.791,0,0,1,0,1.012.821.821,0,0,1-1.129.116l-3.266-3.238a7.049,7.049,0,0,0-4.393-1.935l-2.418-.012.012,9.958,11.73,9.35a2.965,2.965,0,0,0,1.832.639l16.777,0c.43,0,.561-.352.525-.679a2.642,2.642,0,0,0-2.627-2.458l-1.833,0a.822.822,0,0,1-.828-.669c-.077-.371.116-.948.646-.953M6.987,233.219c.245,0,.4-.275.4-.474l-.03-12.936-2.688-.042c-.173,0-.343.229-.343.431v12.548a.5.5,0,0,0,.468.488Z" transform="translate(0 -187.302)" fill="#12263f"/>
        <path id="Trazado_1273609" data-name="Trazado 1273609" d="M113.72,303.8a3.62,3.62,0,0,1-2.454-1.27l-7.193-6.628a.853.853,0,0,1-.108-1.254.865.865,0,0,1,1.277.085l7.559,6.959a1.66,1.66,0,0,0,2.384-.074,1.731,1.731,0,0,0-.13-2.449l-4.254-4.354c-.313-.32-.017-.879.222-1.037a.88.88,0,0,1,1.2.179l4.011,4.032a3.506,3.506,0,0,1,.639,4.16l3.695.015a.824.824,0,0,1,.14,1.642Z" transform="translate(-89.086 -252.149)" fill="#12263f"/>
        <path id="Trazado_1273610" data-name="Trazado 1273610" d="M294.27,250.987a.915.915,0,0,1-1.27.116.846.846,0,0,1-.034-1.194,21.607,21.607,0,0,0,6.614-8.781c-.927.37-1.767,1.068-2.206.23a.846.846,0,0,1,.384-1.2l3-1.67a.815.815,0,0,1,1.166.256l1.653,3.264a.8.8,0,0,1-.28.953c-.3.24-.84.3-1.034-.05l-.935-1.687a23.306,23.306,0,0,1-7.057,9.758" transform="translate(-251.392 -204.695)" fill="#12263f"/>
        <path id="Trazado_1273611" data-name="Trazado 1273611" d="M32.272,81.56a.84.84,0,0,1-1.232-.272L29.434,78.1a.842.842,0,0,1,.31-1.053.833.833,0,0,1,1.146.305l.762,1.46A23.307,23.307,0,0,1,38.9,68.932a.841.841,0,0,1,1.112.075.869.869,0,0,1-.083,1.228,21.467,21.467,0,0,0-6.544,8.713c.8-.265,1.552-1.01,2.134-.364.213.236.317.95-.059,1.163Z" transform="translate(-25.211 -59.047)" fill="#12263f"/>
        <path id="Trazado_1273612" data-name="Trazado 1273612" d="M185.288,172.284c-.017.425-.026.878-.339,1.088a.839.839,0,0,1-.921.058c-.355-.176-.35-.618-.4-.991-.422-.265-1.085-.317-1.453-.751a.829.829,0,0,1-.005-1.09.84.84,0,0,1,1.093-.139,1.346,1.346,0,0,0,1.9-.14c.168-.278.2-.772-.129-.935a11.708,11.708,0,0,1-1.953-.859,2.3,2.3,0,0,1-.909-2.139,2.174,2.174,0,0,1,1.508-1.811,1,1,0,0,1,.266-1.072.881.881,0,0,1,.9-.071.962.962,0,0,1,.4,1.091l.773.474a.89.89,0,0,1,.4,1.109.744.744,0,0,1-1.072.425c-.415-.293-.88-.575-1.377-.255a.517.517,0,0,0-.151.561.633.633,0,0,0,.372.422l1.779.755a2.252,2.252,0,0,1,.917,2.343,2.72,2.72,0,0,1-1.607,1.928" transform="translate(-156.268 -140.271)" fill="#12263f"/>
      </g>
    </g>
  </g>
</svg>
