<svg xmlns="http://www.w3.org/2000/svg" xmlns:xlink="http://www.w3.org/1999/xlink" width="84" height="84" viewBox="0 0 84 84">
  <defs>
    <clipPath id="clip-path">
      <rect id="Rectángulo_465332" data-name="Rectángulo 465332" width="54.088" height="54.088" fill="#12263f"/>
    </clipPath>
  </defs>
  <g id="Grupo_1211065" data-name="Grupo 1211065" transform="translate(-705.629 -410)">
    <g id="Grupo_1188476" data-name="Grupo 1188476" transform="translate(2.841 -1273.207)">
      <g id="Grupo_1185067" data-name="Grupo 1185067" transform="translate(719.227 1696)">
        <path id="Trazado_997620" data-name="Trazado 997620" d="M133.124,646.71a15.477,15.477,0,1,0-14.332-.01" transform="translate(-99.168 -604.804)" fill="#3a552a" stroke="#000" stroke-miterlimit="10" stroke-width="2"/>
        <rect id="Rectángulo_454823" data-name="Rectángulo 454823" width="14.333" height="4.288" transform="translate(19.625 41.893)" fill="#3a552a" stroke="#000" stroke-miterlimit="10" stroke-width="2"/>
        <rect id="Rectángulo_454824" data-name="Rectángulo 454824" width="14.333" height="4.288" transform="translate(19.625 46.181)" fill="#3a552a" stroke="#000" stroke-miterlimit="10" stroke-width="2"/>
        <path id="Trazado_997621" data-name="Trazado 997621" d="M135.492,688.628h-6.283a4.025,4.025,0,0,1-4.025-4.025v-.263h14.333v.263A4.025,4.025,0,0,1,135.492,688.628Z" transform="translate(-105.559 -633.871)" fill="#3a552a" stroke="#000" stroke-miterlimit="10" stroke-width="2"/>
        <line id="Línea_3231" data-name="Línea 3231" y1="7.578" transform="translate(26.797)" fill="none" stroke="#000" stroke-miterlimit="10" stroke-width="2"/>
        <line id="Línea_3232" data-name="Línea 3232" x1="4.454" y1="6.13" transform="translate(10.236 5.387)" fill="none" stroke="#000" stroke-miterlimit="10" stroke-width="2"/>
        <line id="Línea_3233" data-name="Línea 3233" x1="7.2" y1="2.336" transform="translate(0 19.477)" fill="none" stroke="#000" stroke-miterlimit="10" stroke-width="2"/>
        <line id="Línea_3234" data-name="Línea 3234" x1="7.2" y2="2.341" transform="translate(0 34.55)" fill="none" stroke="#000" stroke-miterlimit="10" stroke-width="2"/>
        <line id="Línea_3235" data-name="Línea 3235" x1="7.2" y1="2.341" transform="translate(46.398 34.55)" fill="none" stroke="#000" stroke-miterlimit="10" stroke-width="2"/>
        <line id="Línea_3236" data-name="Línea 3236" x1="7.2" y2="2.336" transform="translate(46.398 19.477)" fill="none" stroke="#000" stroke-miterlimit="10" stroke-width="2"/>
        <line id="Línea_3237" data-name="Línea 3237" x1="4.454" y2="6.125" transform="translate(38.91 5.387)" fill="none" stroke="#000" stroke-miterlimit="10" stroke-width="2"/>
        <path id="Trazado_997622" data-name="Trazado 997622" d="M119,638.208a10.647,10.647,0,0,1,4.484-8.693" transform="translate(-102.867 -610.025)" fill="#3a552a" stroke="#000" stroke-miterlimit="10" stroke-width="2"/>
        <line id="Línea_3238" data-name="Línea 3238" y2="8.634" transform="translate(26.797 33.258)" fill="none" stroke="#000" stroke-miterlimit="10" stroke-width="2"/>
        <path id="Trazado_997623" data-name="Trazado 997623" d="M133.157,647.74l2.669,3.47,3-3.47" transform="translate(-109.027 -617.951)" fill="#3a552a" stroke="#000" stroke-miterlimit="10" stroke-width="2"/>
        <path id="Trazado_997624" data-name="Trazado 997624" d="M132.431,691.931a3.07,3.07,0,1,0,6.14,0" transform="translate(-108.711 -637.173)" fill="#3a552a" stroke="#000" stroke-miterlimit="10" stroke-width="2"/>
      </g>
      <rect id="Rectángulo_459857" data-name="Rectángulo 459857" width="81" height="79" transform="translate(705.788 1688.207)" fill="#3a552a"/>
    </g>
    <g id="Grupo_1188599" data-name="Grupo 1188599" transform="translate(0.371 -1278)">
      <g id="Grupo_1185067-2" data-name="Grupo 1185067" transform="translate(718.472 1696)">
        <path id="Trazado_997620-2" data-name="Trazado 997620" d="M133.124,646.71a15.477,15.477,0,1,0-14.332-.01" transform="translate(-99.168 -604.804)" fill="#fff006" stroke="#000" stroke-miterlimit="10" stroke-width="2"/>
        <rect id="Rectángulo_454823-2" data-name="Rectángulo 454823" width="14.333" height="4.288" transform="translate(19.625 41.893)" fill="#fff006" stroke="#000" stroke-miterlimit="10" stroke-width="2"/>
        <rect id="Rectángulo_454824-2" data-name="Rectángulo 454824" width="14.333" height="4.288" transform="translate(19.625 46.181)" fill="#fff006" stroke="#000" stroke-miterlimit="10" stroke-width="2"/>
        <path id="Trazado_997621-2" data-name="Trazado 997621" d="M135.492,688.628h-6.283a4.025,4.025,0,0,1-4.025-4.025v-.263h14.333v.263A4.025,4.025,0,0,1,135.492,688.628Z" transform="translate(-105.559 -633.871)" fill="#fff006" stroke="#000" stroke-miterlimit="10" stroke-width="2"/>
        <line id="Línea_3231-2" data-name="Línea 3231" y1="7.578" transform="translate(26.797)" fill="none" stroke="#000" stroke-miterlimit="10" stroke-width="2"/>
        <line id="Línea_3232-2" data-name="Línea 3232" x1="4.454" y1="6.13" transform="translate(10.236 5.387)" fill="none" stroke="#000" stroke-miterlimit="10" stroke-width="2"/>
        <line id="Línea_3233-2" data-name="Línea 3233" x1="7.2" y1="2.336" transform="translate(0 19.477)" fill="none" stroke="#000" stroke-miterlimit="10" stroke-width="2"/>
        <line id="Línea_3234-2" data-name="Línea 3234" x1="7.2" y2="2.341" transform="translate(0 34.55)" fill="none" stroke="#000" stroke-miterlimit="10" stroke-width="2"/>
        <line id="Línea_3235-2" data-name="Línea 3235" x1="7.2" y1="2.341" transform="translate(46.398 34.55)" fill="none" stroke="#000" stroke-miterlimit="10" stroke-width="2"/>
        <line id="Línea_3236-2" data-name="Línea 3236" x1="7.2" y2="2.336" transform="translate(46.398 19.477)" fill="none" stroke="#000" stroke-miterlimit="10" stroke-width="2"/>
        <line id="Línea_3237-2" data-name="Línea 3237" x1="4.454" y2="6.125" transform="translate(38.91 5.387)" fill="none" stroke="#000" stroke-miterlimit="10" stroke-width="2"/>
        <path id="Trazado_997622-2" data-name="Trazado 997622" d="M119,638.208a10.647,10.647,0,0,1,4.484-8.693" transform="translate(-102.867 -610.025)" fill="#fff006" stroke="#000" stroke-miterlimit="10" stroke-width="2"/>
        <line id="Línea_3238-2" data-name="Línea 3238" y2="8.634" transform="translate(26.797 33.258)" fill="none" stroke="#000" stroke-miterlimit="10" stroke-width="2"/>
        <path id="Trazado_997623-2" data-name="Trazado 997623" d="M133.157,647.74l2.669,3.47,3-3.47" transform="translate(-109.027 -617.951)" fill="#fff006" stroke="#000" stroke-miterlimit="10" stroke-width="2"/>
        <path id="Trazado_997624-2" data-name="Trazado 997624" d="M132.431,691.931a3.07,3.07,0,1,0,6.14,0" transform="translate(-108.711 -637.173)" fill="#fff006" stroke="#000" stroke-miterlimit="10" stroke-width="2"/>
      </g>
      <rect id="Rectángulo_459857-2" data-name="Rectángulo 459857" width="80" height="80" transform="translate(705.258 1688)" fill="#fff006"/>
    </g>
    <g id="Grupo_1212270" data-name="Grupo 1212270" transform="translate(718.585 422.956)">
      <g id="Grupo_1212269" data-name="Grupo 1212269" clip-path="url(#clip-path)">
        <path id="Trazado_1273732" data-name="Trazado 1273732" d="M27.716,53.059a2.5,2.5,0,0,1-2.774.934,2.864,2.864,0,0,1-1.981-1.984,3.165,3.165,0,0,1-3.649-2.393,3.137,3.137,0,0,1-3.842-2.3A3.279,3.279,0,0,1,12.069,46a3.2,3.2,0,0,1,.082-3.718A16.035,16.035,0,0,0,6.3,39.84a1.784,1.784,0,0,1-1.731,1.62l-2.78,0A1.808,1.808,0,0,1,0,39.609V27.983a1.786,1.786,0,0,1,1.784-1.839l2.663,0a1.779,1.779,0,0,1,1.864,1.8l6.115.012a2.363,2.363,0,0,0,1.509-.651,13.474,13.474,0,0,1,6.647-2.923c.953-.119,1.845-.008,2.858-.041l0-14.9a5.453,5.453,0,0,1-1.7-3.116l-10.164,0,5.539,8.74v3.966a3.589,3.589,0,0,1-3.727,3.508l-7.035,0a3.579,3.579,0,0,1-3.64-3.478L2.7,15.111,8.259,6.332.841,6.308a.93.93,0,0,1-.828-.856.872.872,0,0,1,.863-.944h20.84a5.406,5.406,0,0,1,10.662,0H53.219a.871.871,0,0,1,.864.833.923.923,0,0,1-.83.966l-7.418.025L51.4,15.111l-.007,3.81a3.654,3.654,0,0,1-3.784,3.628l-7.021-.014a3.593,3.593,0,0,1-3.616-3.617l.011-3.847L42.5,6.351,32.353,6.324a5.47,5.47,0,0,1-1.7,3.116l0,14.359L37.2,26.96l10.565.1c.1-.913.582-1.76,1.471-1.762l3.381-.01a1.627,1.627,0,0,1,1.465,1.623l.009,11.877a1.768,1.768,0,0,1-1.743,1.764l-2.584.016a1.926,1.926,0,0,1-2-1.777,14.393,14.393,0,0,0-3.9.73,3.184,3.184,0,0,1-1.834,4.416,3.285,3.285,0,0,1-.427,3.084,3.092,3.092,0,0,1-2.764,1.25,3.158,3.158,0,0,1-3.21,3.138,2.685,2.685,0,0,1-1.437,2.218,2.584,2.584,0,0,1-2.76-.147L28.71,51.512ZM26.642,1.823a3.6,3.6,0,1,0,3.984,3.164,3.585,3.585,0,0,0-3.984-3.164M14.531,14.394,9.917,7.082,5.3,14.42Zm34.252-.014-4.608-7.3-4.636,7.359ZM28.848,23.388,28.838,10.5a5.06,5.06,0,0,1-3.59,0l.044,14.234a6.606,6.606,0,0,1,3.557-1.341M13.526,20.714a1.774,1.774,0,0,0,1.787-1.786L15.3,16.21l-10.773.013,0,2.782a1.7,1.7,0,0,0,1.691,1.7Zm34.293,0A1.711,1.711,0,0,0,49.565,19l-.018-2.79-10.751,0,0,2.854a1.738,1.738,0,0,0,1.774,1.647ZM42.566,38.176a13.086,13.086,0,0,1,5.213-1.2l-.008-8.141L36.676,28.8l-6.515-3.245a3.2,3.2,0,0,0-3.792.8l-5.2,5.462a1.4,1.4,0,0,0-.076,1.94,1.34,1.34,0,0,0,1.9.163l4.939-4.512a1.716,1.716,0,0,1,1.941-.046ZM34.869,49.3a1.36,1.36,0,0,0,1.939-.284,1.374,1.374,0,0,0-.346-1.917l-2.977-2.159a.908.908,0,1,1,1.062-1.468l4,2.892c.585.423,1.368-.024,1.691-.536a1.381,1.381,0,0,0-.321-1.794L36.55,41.6a.929.929,0,0,1-.293-1.367.952.952,0,0,1,1.36-.106l2.57,1.887a1.349,1.349,0,0,0,1.76-2.043l-13-9.078-4.587,4.257a3.214,3.214,0,0,1-4.567-.131A3.3,3.3,0,0,1,20,30.4l3.957-4.163-2.184-.083a11.09,11.09,0,0,0-6.785,2.6,3.656,3.656,0,0,1-2.417.978H6.325l0,8.273a18.513,18.513,0,0,1,6.755,2.7l.543-.856A3.258,3.258,0,0,1,16.55,38.26,3.414,3.414,0,0,1,19.278,40.1a3.606,3.606,0,0,1,3.141.227,3.247,3.247,0,0,1,1.423,2.628,3.135,3.135,0,0,1,3.4,2.921,2.678,2.678,0,0,1,2.369,1.283,2.649,2.649,0,0,1,.047,2.749l2.837,2.108a.831.831,0,0,0,1.074-.163.769.769,0,0,0,.08-1.135L31.828,49.3a.893.893,0,0,1-.045-1.233.936.936,0,0,1,1.243-.105ZM52.3,38.762V27.042H49.577l.007,11.736ZM4.521,39.6,4.515,27.951l-2.723.016v11.67ZM15.745,45l1.813-2.977a1.312,1.312,0,0,0-.612-1.837,1.347,1.347,0,0,0-1.753.554l-1.717,2.872a1.325,1.325,0,0,0,.541,1.782A1.267,1.267,0,0,0,15.745,45m3.843,2.358,2.278-3.734a1.319,1.319,0,0,0-.568-1.852,1.381,1.381,0,0,0-1.8.56l-2.136,3.546a1.343,1.343,0,0,0,.382,1.767,1.279,1.279,0,0,0,1.848-.286m3.9,2.278,1.754-2.9a1.332,1.332,0,0,0-.39-1.776,1.318,1.318,0,0,0-1.8.262l-1.885,3.1a1.336,1.336,0,0,0,2.319,1.313m2.942,2.122,1.69-2.836a.844.844,0,0,0-.326-1.1.893.893,0,0,0-1.221.231l-1.768,2.959a.907.907,0,0,0,.471,1.237.952.952,0,0,0,1.155-.493" transform="translate(0 0)" fill="#12263f"/>
      </g>
    </g>
  </g>
</svg>
