<svg xmlns="http://www.w3.org/2000/svg" xmlns:xlink="http://www.w3.org/1999/xlink" width="187.711" height="147.09" viewBox="0 0 187.711 147.09">
  <defs>
    <clipPath id="clip-path">
      <rect id="Rectángulo_465421" data-name="Rectángulo 465421" width="101.059" height="99.147" fill="none"/>
    </clipPath>
  </defs>
  <g id="Grupo_1212455" data-name="Grupo 1212455" transform="translate(-290.289 -7683)">
    <g id="Grupo_1211317" data-name="Grupo 1211317" transform="translate(295.302 7688.293)">
      <g id="Grupo_1204518" data-name="Grupo 1204518" transform="translate(0 0)">
        <rect id="Rectángulo_455283" data-name="Rectángulo 455283" width="182.698" height="141.797" fill="#3a552a"/>
      </g>
    </g>
    <g id="Grupo_1211318" data-name="Grupo 1211318" transform="translate(290.289 7683)">
      <g id="Grupo_1204518-2" data-name="Grupo 1204518">
        <rect id="Rectángulo_455283-2" data-name="Rectángulo 455283" width="183.422" height="142.264" fill="#ceffb3"/>
      </g>
    </g>
    <g id="Grupo_1212454" data-name="Grupo 1212454" transform="translate(332.217 7704.559)">
      <g id="Grupo_1212453" data-name="Grupo 1212453" clip-path="url(#clip-path)">
        <path id="Trazado_1274335" data-name="Trazado 1274335" d="M64.629,169.905c0,.783.385,1.224,1.053,1.227l3.307.013a1.115,1.115,0,0,0,1.177-1.189l0-25.49-39.242.005.008,25.641a1.359,1.359,0,0,0,.472.917,15.464,15.464,0,0,0,4.832-.086c.644-2.231-.412-5.321,1.5-5.327l13.484-.044a1.456,1.456,0,0,1,1.621,1.537c-.049,1.037-.742,1.4-1.835,1.414l-11.619.128c.344,2.467-.778,5.4-3.554,5.4l-4.262.011a3.877,3.877,0,0,1-3.612-4.029L27.96,158.95l-7.687.017-5.761,13.157a3.336,3.336,0,0,1-3.126,1.991l-3.331-.007a3.309,3.309,0,0,1-3.2-4.049L8.1,156.546A16.771,16.771,0,0,1,0,142.24l0-7.1a6.01,6.01,0,0,1,2.9-5.115,6.281,6.281,0,0,1,6.254-.045,11.479,11.479,0,0,1,3.864-7.47,11.464,11.464,0,0,1-2.933-17.456,1.454,1.454,0,0,1,2.068-.128,1.5,1.5,0,0,1,.144,2.1A8.4,8.4,0,0,0,13.346,119.1a11.471,11.471,0,0,0,15.693-.832,8.31,8.31,0,0,0,.01-11.447,11.572,11.572,0,0,0-11.658-3.049,1.469,1.469,0,0,1-1.73-1.092,1.519,1.519,0,0,1,1.294-1.856,14.593,14.593,0,0,1,13.3,3.043,11.458,11.458,0,0,1,3.974,9.759,12.01,12.01,0,0,1-5.655,8.876,12.185,12.185,0,0,1,3.781,10.7l6.535.033.007-3.641a11.5,11.5,0,0,1,2.8-7.781,11.83,11.83,0,0,1-4.675-8.7,11.45,11.45,0,0,1,3.991-9.235,14.54,14.54,0,0,1,19.025.011,11.428,11.428,0,0,1,3.982,9.121A11.833,11.833,0,0,1,59.37,121.8a10.546,10.546,0,0,1,2.814,7.028l.027,4.377L68.7,133.2a12.183,12.183,0,0,1,3.778-10.7,12,12,0,0,1-5.651-8.874,11.455,11.455,0,0,1,4.265-10.009,14.534,14.534,0,0,1,19.136.655,11.32,11.32,0,0,1,3.443,9.89,11.9,11.9,0,0,1-5.618,8.353,11.709,11.709,0,0,1,3.853,7.47,6.272,6.272,0,0,1,6.252.037,6.052,6.052,0,0,1,2.9,5.12l-.011,7.356A16.544,16.544,0,0,1,89.9,157.976l2.765,11.376a3.783,3.783,0,0,1-.435,3.329,3.617,3.617,0,0,1-3.037,1.45l-3.036-.014A3.406,3.406,0,0,1,83,171.882l-5.641-12.929-4.171.006-.065,11.206A4.008,4.008,0,0,1,69,174.117l-3.568-.027c-2.681-.02-4.29-2.7-3.671-5.477L58.11,168.5a1.405,1.405,0,0,1-1.265-1.6,1.447,1.447,0,0,1,1.57-1.318l4.7.012a1.466,1.466,0,0,1,1.495,1.444Zm-6.773-50.744a8.5,8.5,0,0,0,3.2-6.847,8.62,8.62,0,0,0-3.268-6.442,11.506,11.506,0,0,0-14.518-.006,8.5,8.5,0,0,0-3.289,6.9,8.656,8.656,0,0,0,3.41,6.577,11.5,11.5,0,0,0,14.46-.181m29.921-.126a8.4,8.4,0,0,0-.072-13.045,11.485,11.485,0,0,0-15.681.829,8.284,8.284,0,0,0,0,11.449,11.441,11.441,0,0,0,15.753.768M59.217,133.213l.017-4.132a8.43,8.43,0,0,0-2.427-5.747,14.247,14.247,0,0,1-12.548.007,8.052,8.052,0,0,0-2.36,5.23l-.014,4.664Zm-32.85.007,3.067,0c.334-3.85-.575-7.089-3.913-9.282a13.978,13.978,0,0,1-9.581.013,8.7,8.7,0,0,0-3.871,7.659l.006,6.179,8.619-.022a5.759,5.759,0,0,1,5.673-4.545m62.643,4.52-.029-7.157a8.709,8.709,0,0,0-3.866-6.637,14,14,0,0,1-9.581,0c-3.33,2.186-4.245,5.425-3.907,9.283l3.609,0a5.638,5.638,0,0,1,5.142,4.558Zm-61.057,12.1-11.03.016a7.578,7.578,0,0,1-7.8-7.36l-.067-7.577a3.016,3.016,0,0,0-3.125-2.809,2.918,2.918,0,0,0-2.918,2.78l.025,8.386c.453,6.781,6.034,12.591,12.848,12.627l12.079.064Zm45.289,6.129,11.675-.014a13.714,13.714,0,0,0,13.125-12.95v-8.112a2.918,2.918,0,0,0-3.147-2.782A3.025,3.025,0,0,0,92,134.917l-.065,7.577a7.582,7.582,0,0,1-7.8,7.365l-10.981.011Zm1.622-14.518a2.622,2.622,0,0,0,.12-5.242L26.316,136.2a2.585,2.585,0,0,0-2.706,2.628,2.555,2.555,0,0,0,2.463,2.622Zm-47.09,2.943c-3.147.454-5.778-.944-6.815-3.642l-8.83.049c-.527,3.039,1.153,5.609,4.038,6.051l11.77,0a5.244,5.244,0,0,0-.163-2.453m57.245,2.351c3.017-.04,4.452-3.374,3.888-5.959l-8.778-.026c-1.027,2.869-3.9,4.048-6.885,3.635a6.729,6.729,0,0,0,.011,2.506ZM11.785,171.074l5.227-12.067a19.882,19.882,0,0,1-6.192-1.137L7.693,171.023a17.341,17.341,0,0,0,4.092.05m78.2-.11-2.966-12.229a40.555,40.555,0,0,1-6.431.2l5.3,12.127a12.768,12.768,0,0,0,4.1-.1" transform="translate(0 -74.984)"/>
        <path id="Trazado_1274336" data-name="Trazado 1274336" d="M234.861,22.191l-5-2.286c-6.8,2.378-16.6.485-20-5.654a7.959,7.959,0,0,1,.947-9.067c5.65-6.914,19.933-6.947,25.629.116a7.952,7.952,0,0,1,.392,9.693l1.288,4.328a2.352,2.352,0,0,1-.651,2.378,2.29,2.29,0,0,1-2.61.492m.04-3.263-1.138-3.588a1.731,1.731,0,0,1,.375-1.672,5.055,5.055,0,0,0-.388-6.9c-5.97-6.018-18.106-4.443-21.306,1.35-2.08,3.768,1.317,7.344,5.553,8.863a17.427,17.427,0,0,0,12.055-.261Z" transform="translate(-156.09 0)"/>
        <path id="Trazado_1274337" data-name="Trazado 1274337" d="M83.151,19.909l-5.182,2.317a2.28,2.28,0,0,1-2.642-.66,2.635,2.635,0,0,1-.427-2.653l1.189-3.925a7.948,7.948,0,0,1,.4-9.688c5.668-7.04,19.961-7.052,25.63-.114a7.954,7.954,0,0,1,.941,9.065c-3.362,6.058-13.035,8.066-19.9,5.658m-.218-3.192a17.089,17.089,0,0,0,12.177.193c4.136-1.521,7.416-5.087,5.37-8.795C97.3,2.356,85.186.724,79.177,6.766a5.05,5.05,0,0,0-.391,6.9,1.726,1.726,0,0,1,.375,1.67L78.01,18.969c1.659-.771,3.108-1.547,4.922-2.251" transform="translate(-55.773 -0.001)"/>
        <path id="Trazado_1274338" data-name="Trazado 1274338" d="M253.752,38.466l-9.1-.021a1.441,1.441,0,0,1-1.477-1.41,1.358,1.358,0,0,1,1.269-1.523l9.493-.006a1.381,1.381,0,0,1,1.341,1.541,1.5,1.5,0,0,1-1.531,1.418" transform="translate(-181.734 -26.535)"/>
        <path id="Trazado_1274339" data-name="Trazado 1274339" d="M119.611,38.366l-9.211.041a1.51,1.51,0,0,1-1.532-1.416,1.443,1.443,0,0,1,1.564-1.567l9.026.005a1.4,1.4,0,0,1,1.512,1.343,1.423,1.423,0,0,1-1.358,1.594" transform="translate(-81.356 -26.473)"/>
      </g>
    </g>
  </g>
</svg>
