<svg xmlns="http://www.w3.org/2000/svg" xmlns:xlink="http://www.w3.org/1999/xlink" width="84" height="84" viewBox="0 0 84 84">
  <defs>
    <clipPath id="clip-path">
      <rect id="Rectángulo_465399" data-name="Rectángulo 465399" width="49.303" height="59.434" fill="#12263f"/>
    </clipPath>
  </defs>
  <g id="Grupo_1211274" data-name="Grupo 1211274" transform="translate(-705.629 -410)">
    <g id="Grupo_1188476" data-name="Grupo 1188476" transform="translate(2.841 -1273.207)">
      <g id="Grupo_1185067" data-name="Grupo 1185067" transform="translate(719.227 1696)">
        <path id="Trazado_997620" data-name="Trazado 997620" d="M133.124,646.71a15.477,15.477,0,1,0-14.332-.01" transform="translate(-99.168 -604.804)" fill="#3a552a" stroke="#000" stroke-miterlimit="10" stroke-width="2"/>
        <rect id="Rectángulo_454823" data-name="Rectángulo 454823" width="14.333" height="4.288" transform="translate(19.625 41.893)" fill="#3a552a" stroke="#000" stroke-miterlimit="10" stroke-width="2"/>
        <rect id="Rectángulo_454824" data-name="Rectángulo 454824" width="14.333" height="4.288" transform="translate(19.625 46.181)" fill="#3a552a" stroke="#000" stroke-miterlimit="10" stroke-width="2"/>
        <path id="Trazado_997621" data-name="Trazado 997621" d="M135.492,688.628h-6.283a4.025,4.025,0,0,1-4.025-4.025v-.263h14.333v.263A4.025,4.025,0,0,1,135.492,688.628Z" transform="translate(-105.559 -633.871)" fill="#3a552a" stroke="#000" stroke-miterlimit="10" stroke-width="2"/>
        <line id="Línea_3231" data-name="Línea 3231" y1="7.578" transform="translate(26.797)" fill="none" stroke="#000" stroke-miterlimit="10" stroke-width="2"/>
        <line id="Línea_3232" data-name="Línea 3232" x1="4.454" y1="6.13" transform="translate(10.236 5.387)" fill="none" stroke="#000" stroke-miterlimit="10" stroke-width="2"/>
        <line id="Línea_3233" data-name="Línea 3233" x1="7.2" y1="2.336" transform="translate(0 19.477)" fill="none" stroke="#000" stroke-miterlimit="10" stroke-width="2"/>
        <line id="Línea_3234" data-name="Línea 3234" x1="7.2" y2="2.341" transform="translate(0 34.55)" fill="none" stroke="#000" stroke-miterlimit="10" stroke-width="2"/>
        <line id="Línea_3235" data-name="Línea 3235" x1="7.2" y1="2.341" transform="translate(46.398 34.55)" fill="none" stroke="#000" stroke-miterlimit="10" stroke-width="2"/>
        <line id="Línea_3236" data-name="Línea 3236" x1="7.2" y2="2.336" transform="translate(46.398 19.477)" fill="none" stroke="#000" stroke-miterlimit="10" stroke-width="2"/>
        <line id="Línea_3237" data-name="Línea 3237" x1="4.454" y2="6.125" transform="translate(38.91 5.387)" fill="none" stroke="#000" stroke-miterlimit="10" stroke-width="2"/>
        <path id="Trazado_997622" data-name="Trazado 997622" d="M119,638.208a10.647,10.647,0,0,1,4.484-8.693" transform="translate(-102.867 -610.025)" fill="#3a552a" stroke="#000" stroke-miterlimit="10" stroke-width="2"/>
        <line id="Línea_3238" data-name="Línea 3238" y2="8.634" transform="translate(26.797 33.258)" fill="none" stroke="#000" stroke-miterlimit="10" stroke-width="2"/>
        <path id="Trazado_997623" data-name="Trazado 997623" d="M133.157,647.74l2.669,3.47,3-3.47" transform="translate(-109.027 -617.951)" fill="#3a552a" stroke="#000" stroke-miterlimit="10" stroke-width="2"/>
        <path id="Trazado_997624" data-name="Trazado 997624" d="M132.431,691.931a3.07,3.07,0,1,0,6.14,0" transform="translate(-108.711 -637.173)" fill="#3a552a" stroke="#000" stroke-miterlimit="10" stroke-width="2"/>
      </g>
      <rect id="Rectángulo_459857" data-name="Rectángulo 459857" width="81" height="79" transform="translate(705.788 1688.207)" fill="#3a552a"/>
    </g>
    <g id="Grupo_1188599" data-name="Grupo 1188599" transform="translate(0.371 -1278)">
      <g id="Grupo_1185067-2" data-name="Grupo 1185067" transform="translate(718.472 1696)">
        <path id="Trazado_997620-2" data-name="Trazado 997620" d="M133.124,646.71a15.477,15.477,0,1,0-14.332-.01" transform="translate(-99.168 -604.804)" fill="#fff006" stroke="#000" stroke-miterlimit="10" stroke-width="2"/>
        <rect id="Rectángulo_454823-2" data-name="Rectángulo 454823" width="14.333" height="4.288" transform="translate(19.625 41.893)" fill="#fff006" stroke="#000" stroke-miterlimit="10" stroke-width="2"/>
        <rect id="Rectángulo_454824-2" data-name="Rectángulo 454824" width="14.333" height="4.288" transform="translate(19.625 46.181)" fill="#fff006" stroke="#000" stroke-miterlimit="10" stroke-width="2"/>
        <path id="Trazado_997621-2" data-name="Trazado 997621" d="M135.492,688.628h-6.283a4.025,4.025,0,0,1-4.025-4.025v-.263h14.333v.263A4.025,4.025,0,0,1,135.492,688.628Z" transform="translate(-105.559 -633.871)" fill="#fff006" stroke="#000" stroke-miterlimit="10" stroke-width="2"/>
        <line id="Línea_3231-2" data-name="Línea 3231" y1="7.578" transform="translate(26.797)" fill="none" stroke="#000" stroke-miterlimit="10" stroke-width="2"/>
        <line id="Línea_3232-2" data-name="Línea 3232" x1="4.454" y1="6.13" transform="translate(10.236 5.387)" fill="none" stroke="#000" stroke-miterlimit="10" stroke-width="2"/>
        <line id="Línea_3233-2" data-name="Línea 3233" x1="7.2" y1="2.336" transform="translate(0 19.477)" fill="none" stroke="#000" stroke-miterlimit="10" stroke-width="2"/>
        <line id="Línea_3234-2" data-name="Línea 3234" x1="7.2" y2="2.341" transform="translate(0 34.55)" fill="none" stroke="#000" stroke-miterlimit="10" stroke-width="2"/>
        <line id="Línea_3235-2" data-name="Línea 3235" x1="7.2" y1="2.341" transform="translate(46.398 34.55)" fill="none" stroke="#000" stroke-miterlimit="10" stroke-width="2"/>
        <line id="Línea_3236-2" data-name="Línea 3236" x1="7.2" y2="2.336" transform="translate(46.398 19.477)" fill="none" stroke="#000" stroke-miterlimit="10" stroke-width="2"/>
        <line id="Línea_3237-2" data-name="Línea 3237" x1="4.454" y2="6.125" transform="translate(38.91 5.387)" fill="none" stroke="#000" stroke-miterlimit="10" stroke-width="2"/>
        <path id="Trazado_997622-2" data-name="Trazado 997622" d="M119,638.208a10.647,10.647,0,0,1,4.484-8.693" transform="translate(-102.867 -610.025)" fill="#fff006" stroke="#000" stroke-miterlimit="10" stroke-width="2"/>
        <line id="Línea_3238-2" data-name="Línea 3238" y2="8.634" transform="translate(26.797 33.258)" fill="none" stroke="#000" stroke-miterlimit="10" stroke-width="2"/>
        <path id="Trazado_997623-2" data-name="Trazado 997623" d="M133.157,647.74l2.669,3.47,3-3.47" transform="translate(-109.027 -617.951)" fill="#fff006" stroke="#000" stroke-miterlimit="10" stroke-width="2"/>
        <path id="Trazado_997624-2" data-name="Trazado 997624" d="M132.431,691.931a3.07,3.07,0,1,0,6.14,0" transform="translate(-108.711 -637.173)" fill="#fff006" stroke="#000" stroke-miterlimit="10" stroke-width="2"/>
      </g>
      <rect id="Rectángulo_459857-2" data-name="Rectángulo 459857" width="80" height="80" transform="translate(705.258 1688)" fill="#fff006"/>
    </g>
    <g id="Grupo_1212409" data-name="Grupo 1212409" transform="translate(720.977 420.283)">
      <g id="Grupo_1212408" data-name="Grupo 1212408" clip-path="url(#clip-path)">
        <path id="Trazado_1274223" data-name="Trazado 1274223" d="M34.235,59.255,24.656,55.7l-9.3,3.466a3.3,3.3,0,0,1-3.2-.387,3.354,3.354,0,0,1-1.388-2.8l0-11.84a2,2,0,0,1-1.956-.416L5.9,40.875a2.27,2.27,0,0,1-.537-2.694l1.512-2.989a21.246,21.246,0,0,1-2.248-5.374L1.28,28.688A1.9,1.9,0,0,1,0,27.035l.013-4.762a1.972,1.972,0,0,1,1.409-1.666L4.615,19.57a21.931,21.931,0,0,1,2.251-5.432L5.43,11.32a2.117,2.117,0,0,1,.1-2.373L8.542,5.875A2.318,2.318,0,0,1,11.4,5.5l2.727,1.38A21.239,21.239,0,0,1,19.51,4.659l.995-3.024A2.177,2.177,0,0,1,22.576,0h4.15A2.18,2.18,0,0,1,28.8,1.635l.99,3.014a21.807,21.807,0,0,1,5.395,2.238L37.917,5.5a2.164,2.164,0,0,1,2.52.1l3.342,3.347a1.884,1.884,0,0,1,.257,1.968l-1.589,3.224a21.3,21.3,0,0,1,2.214,5.394L47.879,20.6a1.975,1.975,0,0,1,1.41,1.669l.014,4.762a1.9,1.9,0,0,1-1.282,1.653L44.7,29.772A22.869,22.869,0,0,1,42.438,35.2l1.506,2.979a2.171,2.171,0,0,1-.4,2.536l-2.974,2.949a2.068,2.068,0,0,1-2.034.477l0,11.842a3.3,3.3,0,0,1-1.218,2.662,3.163,3.163,0,0,1-3.08.608M33.152,37.011c2.653.974,4.935,2.191,5.308,4.881.033.236.65.57.835.387l3.085-3.053-1.524-3a2.132,2.132,0,0,1,.021-2.037,23.262,23.262,0,0,0,2.093-5.06c.22-.717,1.02-1.072,1.66-1.285l2.861-.954-.016-4.433L44.16,21.337a2.04,2.04,0,0,1-1.336-1.5,18.844,18.844,0,0,0-1.962-4.7,1.99,1.99,0,0,1-.074-1.83l1.588-3.217L39.213,6.962,36.03,8.545a2.086,2.086,0,0,1-1.972-.139,18.914,18.914,0,0,0-4.735-1.949,2,2,0,0,1-1.344-1.328L26.892,1.894l-4.481-.011L21.325,5.127A2.057,2.057,0,0,1,19.866,6.5,18.306,18.306,0,0,0,15.248,8.4a2.306,2.306,0,0,1-2.29,0l-2.9-1.431L6.927,10.093l1.543,3.091a2.27,2.27,0,0,1-.176,2.246,16.95,16.95,0,0,0-1.778,4.295A2.146,2.146,0,0,1,5.14,21.344l-3.313,1.12-.018,4.428,2.863.955c.635.212,1.441.568,1.661,1.284a23.145,23.145,0,0,0,2.092,5.06,2.068,2.068,0,0,1,.066,1.933l-1.57,3.106,3.151,3.08c1.287.021.24-1.513,2.587-3.524a12.975,12.975,0,0,1,3.5-1.777,14.968,14.968,0,1,1,16.989,0m-3.9-23.266a1.52,1.52,0,0,1,1.3.967c.543,1.3-1.125,2.013-.182,2.167a4.229,4.229,0,0,1,3.742,4.257l.068,6.038a2.462,2.462,0,0,1-2.748,2.491,6.51,6.51,0,0,1-2.383,3.716,2.4,2.4,0,0,0,1.837,2.826,13.115,13.115,0,1,0-12.5-.043,2.314,2.314,0,0,0,1.883-2.681,6.959,6.959,0,0,1-2.433-3.827,2.5,2.5,0,0,1-2.77-2.636l.053-5.787c.041-4.489,3.974-7.492,8.26-7.49Zm-2.318,6.912c1.458,1.187,2.969-.15,4.389,2.094.129.2.645.177.968.137a8.741,8.741,0,0,0-.118-2.2,2.471,2.471,0,0,0-2.544-2.048,1.817,1.817,0,0,1-1.715-1.046,1.955,1.955,0,0,1,.522-1.974L23.458,15.6c-3.262-.015-6.435,2.208-6.481,5.348l-.028,1.918a1.872,1.872,0,0,0,.981-.044c1.3-2.3,2.973-1,4.376-2.149a3.569,3.569,0,0,1,4.63-.015M24.992,33.074a4.925,4.925,0,0,0,4.748-4.86l.008-4.166a.933.933,0,0,0-1.081-.928c-2.6.169-3.381-2.54-5.3-.942s-3.854.346-3.844,1.812l.029,4.54a5,5,0,0,0,5.438,4.544m7.332-5.862-.033-2.068c0-.253-.395-.429-.643-.443l.009,3.032c.259.166.673-.126.667-.521M17.6,27.7l.015-2.893c-.027-.127-.436-.067-.519.079a.955.955,0,0,0-.165.5l-.011,1.781c0,.4.474.744.68.53m9.676,7.176a.287.287,0,0,0-.386-.3c-1.624.594-3.187.29-4.942.037L24.636,37.6Zm-6.4,5.309L22.8,38.34,21.154,36.7c-.245.11-.644.338-.616.583Zm7.56,0,.33-2.906c.031-.27-.434-.513-.653-.567l-1.6,1.625Zm-9.97,5.217a16.141,16.141,0,0,1,3.1.977l.549-2.845c.091-.473-.4-.977-.517-1.415l-.775.691a1.022,1.022,0,0,1-.937.23.983.983,0,0,1-.618-.667L18.7,38.091c-2.583,1.073-6.057,1.621-6.063,4.538l-.009,4.9h3.891l.008-3.258a.976.976,0,0,1,.93-1.086.945.945,0,0,1,.97,1.071,4.008,4.008,0,0,0,.036,1.154m12.426-1.223a.923.923,0,0,1,.965-1.012.865.865,0,0,1,.9.846l.066,1.815a3.363,3.363,0,0,1,1.676,1.676l2.181.009-.01-4.888c-.006-2.914-3.473-3.478-6.057-4.53L30,42.466c-.047.342-.476.566-.7.609-.657.124-.962-.532-1.6-.95-.11.471-.636,1.024-.522,1.526l.62,2.74a14.139,14.139,0,0,1,3.106-1.018Zm-5.311-1.723.682-1.739-1.606-1.443-1.607,1.443.717,1.743Zm.4,4.568-.64-2.694H23.959l-.628,2.708a2.234,2.234,0,0,0,2.649-.015M21.9,48.514l-3.478-1.27.052,2.586Zm-9.276.94.013,6.676a1.421,1.421,0,0,0,.6,1.137,1.37,1.37,0,0,0,1.313.2l17.187-6.405a1.954,1.954,0,1,0-1.4-3.646L17.656,52.124c-.621.231-1.127-.53-1.13-1.012L16.515,49.4Zm22.214,8.025a1.407,1.407,0,0,0,1.827-1.34l.015-6.7H34.909a4.047,4.047,0,0,1-2.8,3.484l-4.718,1.786Z" transform="translate(0 0)" fill="#12263f"/>
      </g>
    </g>
  </g>
</svg>
