<svg xmlns="http://www.w3.org/2000/svg" xmlns:xlink="http://www.w3.org/1999/xlink" width="84" height="84" viewBox="0 0 84 84">
  <defs>
    <clipPath id="clip-path">
      <rect id="Rectángulo_465368" data-name="Rectángulo 465368" width="59.181" height="60.263" fill="#12263f"/>
    </clipPath>
  </defs>
  <g id="Grupo_1209801" data-name="Grupo 1209801" transform="translate(-705.629 -410)">
    <g id="Grupo_1188476" data-name="Grupo 1188476" transform="translate(2.841 -1273.207)">
      <g id="Grupo_1185067" data-name="Grupo 1185067" transform="translate(719.227 1696)">
        <path id="Trazado_997620" data-name="Trazado 997620" d="M133.124,646.71a15.477,15.477,0,1,0-14.332-.01" transform="translate(-99.168 -604.804)" fill="#3a552a" stroke="#000" stroke-miterlimit="10" stroke-width="2"/>
        <rect id="Rectángulo_454823" data-name="Rectángulo 454823" width="14.333" height="4.288" transform="translate(19.625 41.893)" fill="#3a552a" stroke="#000" stroke-miterlimit="10" stroke-width="2"/>
        <rect id="Rectángulo_454824" data-name="Rectángulo 454824" width="14.333" height="4.288" transform="translate(19.625 46.181)" fill="#3a552a" stroke="#000" stroke-miterlimit="10" stroke-width="2"/>
        <path id="Trazado_997621" data-name="Trazado 997621" d="M135.492,688.628h-6.283a4.025,4.025,0,0,1-4.025-4.025v-.263h14.333v.263A4.025,4.025,0,0,1,135.492,688.628Z" transform="translate(-105.559 -633.871)" fill="#3a552a" stroke="#000" stroke-miterlimit="10" stroke-width="2"/>
        <line id="Línea_3231" data-name="Línea 3231" y1="7.578" transform="translate(26.797)" fill="none" stroke="#000" stroke-miterlimit="10" stroke-width="2"/>
        <line id="Línea_3232" data-name="Línea 3232" x1="4.454" y1="6.13" transform="translate(10.236 5.387)" fill="none" stroke="#000" stroke-miterlimit="10" stroke-width="2"/>
        <line id="Línea_3233" data-name="Línea 3233" x1="7.2" y1="2.336" transform="translate(0 19.477)" fill="none" stroke="#000" stroke-miterlimit="10" stroke-width="2"/>
        <line id="Línea_3234" data-name="Línea 3234" x1="7.2" y2="2.341" transform="translate(0 34.55)" fill="none" stroke="#000" stroke-miterlimit="10" stroke-width="2"/>
        <line id="Línea_3235" data-name="Línea 3235" x1="7.2" y1="2.341" transform="translate(46.398 34.55)" fill="none" stroke="#000" stroke-miterlimit="10" stroke-width="2"/>
        <line id="Línea_3236" data-name="Línea 3236" x1="7.2" y2="2.336" transform="translate(46.398 19.477)" fill="none" stroke="#000" stroke-miterlimit="10" stroke-width="2"/>
        <line id="Línea_3237" data-name="Línea 3237" x1="4.454" y2="6.125" transform="translate(38.91 5.387)" fill="none" stroke="#000" stroke-miterlimit="10" stroke-width="2"/>
        <path id="Trazado_997622" data-name="Trazado 997622" d="M119,638.208a10.647,10.647,0,0,1,4.484-8.693" transform="translate(-102.867 -610.025)" fill="#3a552a" stroke="#000" stroke-miterlimit="10" stroke-width="2"/>
        <line id="Línea_3238" data-name="Línea 3238" y2="8.634" transform="translate(26.797 33.258)" fill="none" stroke="#000" stroke-miterlimit="10" stroke-width="2"/>
        <path id="Trazado_997623" data-name="Trazado 997623" d="M133.157,647.74l2.669,3.47,3-3.47" transform="translate(-109.027 -617.951)" fill="#3a552a" stroke="#000" stroke-miterlimit="10" stroke-width="2"/>
        <path id="Trazado_997624" data-name="Trazado 997624" d="M132.431,691.931a3.07,3.07,0,1,0,6.14,0" transform="translate(-108.711 -637.173)" fill="#3a552a" stroke="#000" stroke-miterlimit="10" stroke-width="2"/>
      </g>
      <rect id="Rectángulo_459857" data-name="Rectángulo 459857" width="81" height="79" transform="translate(705.788 1688.207)" fill="#3a552a"/>
    </g>
    <g id="Grupo_1188599" data-name="Grupo 1188599" transform="translate(0.371 -1278)">
      <g id="Grupo_1185067-2" data-name="Grupo 1185067" transform="translate(718.472 1696)">
        <path id="Trazado_997620-2" data-name="Trazado 997620" d="M133.124,646.71a15.477,15.477,0,1,0-14.332-.01" transform="translate(-99.168 -604.804)" fill="#fff006" stroke="#000" stroke-miterlimit="10" stroke-width="2"/>
        <rect id="Rectángulo_454823-2" data-name="Rectángulo 454823" width="14.333" height="4.288" transform="translate(19.625 41.893)" fill="#fff006" stroke="#000" stroke-miterlimit="10" stroke-width="2"/>
        <rect id="Rectángulo_454824-2" data-name="Rectángulo 454824" width="14.333" height="4.288" transform="translate(19.625 46.181)" fill="#fff006" stroke="#000" stroke-miterlimit="10" stroke-width="2"/>
        <path id="Trazado_997621-2" data-name="Trazado 997621" d="M135.492,688.628h-6.283a4.025,4.025,0,0,1-4.025-4.025v-.263h14.333v.263A4.025,4.025,0,0,1,135.492,688.628Z" transform="translate(-105.559 -633.871)" fill="#fff006" stroke="#000" stroke-miterlimit="10" stroke-width="2"/>
        <line id="Línea_3231-2" data-name="Línea 3231" y1="7.578" transform="translate(26.797)" fill="none" stroke="#000" stroke-miterlimit="10" stroke-width="2"/>
        <line id="Línea_3232-2" data-name="Línea 3232" x1="4.454" y1="6.13" transform="translate(10.236 5.387)" fill="none" stroke="#000" stroke-miterlimit="10" stroke-width="2"/>
        <line id="Línea_3233-2" data-name="Línea 3233" x1="7.2" y1="2.336" transform="translate(0 19.477)" fill="none" stroke="#000" stroke-miterlimit="10" stroke-width="2"/>
        <line id="Línea_3234-2" data-name="Línea 3234" x1="7.2" y2="2.341" transform="translate(0 34.55)" fill="none" stroke="#000" stroke-miterlimit="10" stroke-width="2"/>
        <line id="Línea_3235-2" data-name="Línea 3235" x1="7.2" y1="2.341" transform="translate(46.398 34.55)" fill="none" stroke="#000" stroke-miterlimit="10" stroke-width="2"/>
        <line id="Línea_3236-2" data-name="Línea 3236" x1="7.2" y2="2.336" transform="translate(46.398 19.477)" fill="none" stroke="#000" stroke-miterlimit="10" stroke-width="2"/>
        <line id="Línea_3237-2" data-name="Línea 3237" x1="4.454" y2="6.125" transform="translate(38.91 5.387)" fill="none" stroke="#000" stroke-miterlimit="10" stroke-width="2"/>
        <path id="Trazado_997622-2" data-name="Trazado 997622" d="M119,638.208a10.647,10.647,0,0,1,4.484-8.693" transform="translate(-102.867 -610.025)" fill="#fff006" stroke="#000" stroke-miterlimit="10" stroke-width="2"/>
        <line id="Línea_3238-2" data-name="Línea 3238" y2="8.634" transform="translate(26.797 33.258)" fill="none" stroke="#000" stroke-miterlimit="10" stroke-width="2"/>
        <path id="Trazado_997623-2" data-name="Trazado 997623" d="M133.157,647.74l2.669,3.47,3-3.47" transform="translate(-109.027 -617.951)" fill="#fff006" stroke="#000" stroke-miterlimit="10" stroke-width="2"/>
        <path id="Trazado_997624-2" data-name="Trazado 997624" d="M132.431,691.931a3.07,3.07,0,1,0,6.14,0" transform="translate(-108.711 -637.173)" fill="#fff006" stroke="#000" stroke-miterlimit="10" stroke-width="2"/>
      </g>
      <rect id="Rectángulo_459857-2" data-name="Rectángulo 459857" width="80" height="80" transform="translate(705.258 1688)" fill="#fff006"/>
    </g>
    <g id="Grupo_1212344" data-name="Grupo 1212344" transform="translate(716.038 419.869)">
      <g id="Grupo_1212343" data-name="Grupo 1212343" clip-path="url(#clip-path)">
        <path id="Trazado_1273965" data-name="Trazado 1273965" d="M30.261,92.543l-2.406,2.463a.919.919,0,0,1-1.03.2l-1.541-.64a12.521,12.521,0,0,1-2.2.92l-.534,1.342a1.089,1.089,0,0,1-1.048.789L18.344,97.6a.939.939,0,0,1-.891-.65l-.565-1.459a10.63,10.63,0,0,1-2.187-.932c-1.086.246-1.884,1.118-2.494.517l-2.336-2.3a1.046,1.046,0,0,1-.224-1.259l.577-1.379a12.43,12.43,0,0,1-.918-2.217l-1.445-.565a1.042,1.042,0,0,1-.691-1l-.009-2.933a1.585,1.585,0,0,1,.286-.909l-6.5,0a1,1,0,0,1-.939-1.106A20.088,20.088,0,0,1,14.919,64.147a10.618,10.618,0,1,1,10.134-.005,20.091,20.091,0,0,1,14.528,15.13l1.768-.037,1.916-5.825a1.482,1.482,0,0,1,1.427-.978,1.516,1.516,0,0,1,1.444.956l1.93,5.863,6.131.028A1.509,1.509,0,0,1,55.634,80.4a1.53,1.53,0,0,1-.59,1.7l-4.883,3.555,1.864,5.828a1.52,1.52,0,0,1-.628,1.736,1.55,1.55,0,0,1-1.812-.064L44.72,89.63l-5.007,3.6a1.485,1.485,0,0,1-1.8-.084,1.583,1.583,0,0,1-.5-1.743l1.841-5.747-4.292-3.122-2.435-.019a1.407,1.407,0,0,1,.223.751l0,3.1a1.012,1.012,0,0,1-.759,1.017l-1.35.516a16.271,16.271,0,0,1-.875,2.2c.112.878,1.025,1.89.5,2.433m-11.2-46.361a8.684,8.684,0,1,0,9.548,7.652,8.672,8.672,0,0,0-9.548-7.652m2.58,25.863c.947,0,.918,1.134,1.456,2.107a12.278,12.278,0,0,1,2.192.919l1.42-.589a.968.968,0,0,1,1.068.071l2.534,2.59c.332.339-.015,1.034-.185,1.371a1.438,1.438,0,0,0,.239,2.049l3.378-.054a1.46,1.46,0,0,1,1.312-1.21l2.515-.121A18.135,18.135,0,0,0,2.1,80.543l7.632-.005.486-1.129-.606-1.4a.939.939,0,0,1,.178-1.07l2.239-2.25c.836-.841,1.571.212,2.641.315a16.854,16.854,0,0,1,2.227-.837l.559-1.485a.94.94,0,0,1,.894-.64Zm3.1,20.613c.852-.539,1.961.658,2.312.346a6.263,6.263,0,0,0,1.222-1.3,5.6,5.6,0,0,1-.671-1.757,11.617,11.617,0,0,0,1.383-3.372,5.356,5.356,0,0,1,1.786-.76,7.653,7.653,0,0,0,.022-1.932c-.506-.287-1.363-.344-1.75-.838a19.317,19.317,0,0,0-1.362-3.282c-.3-.528.7-1.493.467-2.064A6.3,6.3,0,0,0,27,76.606c-.57-.116-1.473.871-2.151.436a16.4,16.4,0,0,0-3.071-1.3c-.532-.311-.576-1.237-.852-1.732a5.86,5.86,0,0,0-1.941.042c-.234.566-.313,1.45-.912,1.722a15.108,15.108,0,0,0-2.728,1.153c-.811.574-1.493-.159-2.44-.427l-1.25,1.368c.148.493.844,1.254.591,1.828-.481,1.088-.941,2.087-1.322,3.221-.192.573-1.182.677-1.686.9a3.927,3.927,0,0,0-.005,2.017c.529.2,1.5.3,1.7.886.369,1.135.881,2.126,1.318,3.223.237.6-.441,1.314-.6,1.836l1.344,1.379c.563-.252,1.359-.83,2-.56l3.175,1.328c.577.241.574,1.262.871,1.688a6.541,6.541,0,0,0,1.876-.005c.606-2.542,1.745-1.634,3.824-2.951m21.095-4.645,3.928,2.857L48.177,85.9a1.578,1.578,0,0,1,.653-1.669l4.055-2.981L47.62,81.22a1.621,1.621,0,0,1-1.346-1.17L44.7,75.32,43.087,80.2a1.535,1.535,0,0,1-1.447,1.02l-5.148.017,3.992,2.913a1.532,1.532,0,0,1,.766,1.628l-1.6,5.093L43.9,87.826a1.643,1.643,0,0,1,1.939.187" transform="translate(0 -37.356)" fill="#12263f"/>
        <path id="Trazado_1273966" data-name="Trazado 1273966" d="M287.11,2.217,281.7,8.575l1.9.071a.909.909,0,0,1,.978.893l0,17.163a.968.968,0,1,1-1.935,0V10.613l-2.131-.026a1.383,1.383,0,0,1-1.2-.746,1.366,1.366,0,0,1,.1-1.57L285.943.577A1.471,1.471,0,0,1,287.085,0a1.6,1.6,0,0,1,1.231.649l6.321,7.436a1.485,1.485,0,0,1,.34,1.583,1.416,1.416,0,0,1-1.321.918l-2.1.024,0,10.685a.976.976,0,1,1-1.945,0l.013-11.755a.878.878,0,0,1,.836-.881l2.017-.079Z" transform="translate(-235.896 0)" fill="#12263f"/>
        <path id="Trazado_1273967" data-name="Trazado 1273967" d="M208.507,78.14l-4.347,5.1,1.436.077a.906.906,0,0,1,.854.879l.011,8.824a.938.938,0,0,1-.919,1.013.963.963,0,0,1-1-.864l-.015-7.89-1.546-.018a1.406,1.406,0,0,1-1.257-.664,1.3,1.3,0,0,1,.025-1.5l5.593-6.616a1.4,1.4,0,0,1,2.286-.006L215.164,83a1.33,1.33,0,0,1,.15,1.51,1.376,1.376,0,0,1-1.34.747l-1.536.026.008,13.46a.961.961,0,1,1-1.913.156V84.2a.891.891,0,0,1,.842-.885l1.428-.087Z" transform="translate(-170.299 -64.134)" fill="#12263f"/>
        <path id="Trazado_1273968" data-name="Trazado 1273968" d="M303.858,187.347a1.017,1.017,0,0,1-.92,1.134.939.939,0,0,1-1.009-.916l-.015-2.631a.934.934,0,0,1,.9-1.019.952.952,0,0,1,1.039,1.014Z" transform="translate(-255.161 -155.434)" fill="#12263f"/>
        <path id="Trazado_1273969" data-name="Trazado 1273969" d="M348.872,187.5a.98.98,0,0,1-1.045.978.991.991,0,0,1-.889-1.065l.015-2.639a.9.9,0,0,1,1-.866.945.945,0,0,1,.929,1.015Z" transform="translate(-293.212 -155.427)" fill="#12263f"/>
        <path id="Trazado_1273970" data-name="Trazado 1273970" d="M349.008,152.818a.964.964,0,0,1-.914,1.059.906.906,0,0,1-1-.833v-2.938a.89.89,0,0,1,1-.809.978.978,0,0,1,.92,1.115Z" transform="translate(-293.342 -126.176)" fill="#12263f"/>
        <path id="Trazado_1273971" data-name="Trazado 1273971" d="M91.855,264.4a6.545,6.545,0,1,1-4.985,7.9,6.52,6.52,0,0,1,4.985-7.9m.776,1.84a4.558,4.558,0,0,0-3.928,5.3,4.6,4.6,0,1,0,3.928-5.3" transform="translate(-73.267 -223.328)" fill="#12263f"/>
      </g>
    </g>
  </g>
</svg>
