<svg xmlns="http://www.w3.org/2000/svg" xmlns:xlink="http://www.w3.org/1999/xlink" width="84" height="84" viewBox="0 0 84 84">
  <defs>
    <clipPath id="clip-path">
      <rect id="Rectángulo_465366" data-name="Rectángulo 465366" width="60.059" height="61.016" fill="#12263f"/>
    </clipPath>
  </defs>
  <g id="Grupo_1211161" data-name="Grupo 1211161" transform="translate(-705.629 -410)">
    <g id="Grupo_1188476" data-name="Grupo 1188476" transform="translate(2.841 -1273.207)">
      <g id="Grupo_1185067" data-name="Grupo 1185067" transform="translate(719.227 1696)">
        <path id="Trazado_997620" data-name="Trazado 997620" d="M133.124,646.71a15.477,15.477,0,1,0-14.332-.01" transform="translate(-99.168 -604.804)" fill="#3a552a" stroke="#000" stroke-miterlimit="10" stroke-width="2"/>
        <rect id="Rectángulo_454823" data-name="Rectángulo 454823" width="14.333" height="4.288" transform="translate(19.625 41.893)" fill="#3a552a" stroke="#000" stroke-miterlimit="10" stroke-width="2"/>
        <rect id="Rectángulo_454824" data-name="Rectángulo 454824" width="14.333" height="4.288" transform="translate(19.625 46.181)" fill="#3a552a" stroke="#000" stroke-miterlimit="10" stroke-width="2"/>
        <path id="Trazado_997621" data-name="Trazado 997621" d="M135.492,688.628h-6.283a4.025,4.025,0,0,1-4.025-4.025v-.263h14.333v.263A4.025,4.025,0,0,1,135.492,688.628Z" transform="translate(-105.559 -633.871)" fill="#3a552a" stroke="#000" stroke-miterlimit="10" stroke-width="2"/>
        <line id="Línea_3231" data-name="Línea 3231" y1="7.578" transform="translate(26.797)" fill="none" stroke="#000" stroke-miterlimit="10" stroke-width="2"/>
        <line id="Línea_3232" data-name="Línea 3232" x1="4.454" y1="6.13" transform="translate(10.236 5.387)" fill="none" stroke="#000" stroke-miterlimit="10" stroke-width="2"/>
        <line id="Línea_3233" data-name="Línea 3233" x1="7.2" y1="2.336" transform="translate(0 19.477)" fill="none" stroke="#000" stroke-miterlimit="10" stroke-width="2"/>
        <line id="Línea_3234" data-name="Línea 3234" x1="7.2" y2="2.341" transform="translate(0 34.55)" fill="none" stroke="#000" stroke-miterlimit="10" stroke-width="2"/>
        <line id="Línea_3235" data-name="Línea 3235" x1="7.2" y1="2.341" transform="translate(46.398 34.55)" fill="none" stroke="#000" stroke-miterlimit="10" stroke-width="2"/>
        <line id="Línea_3236" data-name="Línea 3236" x1="7.2" y2="2.336" transform="translate(46.398 19.477)" fill="none" stroke="#000" stroke-miterlimit="10" stroke-width="2"/>
        <line id="Línea_3237" data-name="Línea 3237" x1="4.454" y2="6.125" transform="translate(38.91 5.387)" fill="none" stroke="#000" stroke-miterlimit="10" stroke-width="2"/>
        <path id="Trazado_997622" data-name="Trazado 997622" d="M119,638.208a10.647,10.647,0,0,1,4.484-8.693" transform="translate(-102.867 -610.025)" fill="#3a552a" stroke="#000" stroke-miterlimit="10" stroke-width="2"/>
        <line id="Línea_3238" data-name="Línea 3238" y2="8.634" transform="translate(26.797 33.258)" fill="none" stroke="#000" stroke-miterlimit="10" stroke-width="2"/>
        <path id="Trazado_997623" data-name="Trazado 997623" d="M133.157,647.74l2.669,3.47,3-3.47" transform="translate(-109.027 -617.951)" fill="#3a552a" stroke="#000" stroke-miterlimit="10" stroke-width="2"/>
        <path id="Trazado_997624" data-name="Trazado 997624" d="M132.431,691.931a3.07,3.07,0,1,0,6.14,0" transform="translate(-108.711 -637.173)" fill="#3a552a" stroke="#000" stroke-miterlimit="10" stroke-width="2"/>
      </g>
      <rect id="Rectángulo_459857" data-name="Rectángulo 459857" width="81" height="79" transform="translate(705.788 1688.207)" fill="#3a552a"/>
    </g>
    <g id="Grupo_1188599" data-name="Grupo 1188599" transform="translate(0.371 -1278)">
      <g id="Grupo_1185067-2" data-name="Grupo 1185067" transform="translate(718.472 1696)">
        <path id="Trazado_997620-2" data-name="Trazado 997620" d="M133.124,646.71a15.477,15.477,0,1,0-14.332-.01" transform="translate(-99.168 -604.804)" fill="#fff006" stroke="#000" stroke-miterlimit="10" stroke-width="2"/>
        <rect id="Rectángulo_454823-2" data-name="Rectángulo 454823" width="14.333" height="4.288" transform="translate(19.625 41.893)" fill="#fff006" stroke="#000" stroke-miterlimit="10" stroke-width="2"/>
        <rect id="Rectángulo_454824-2" data-name="Rectángulo 454824" width="14.333" height="4.288" transform="translate(19.625 46.181)" fill="#fff006" stroke="#000" stroke-miterlimit="10" stroke-width="2"/>
        <path id="Trazado_997621-2" data-name="Trazado 997621" d="M135.492,688.628h-6.283a4.025,4.025,0,0,1-4.025-4.025v-.263h14.333v.263A4.025,4.025,0,0,1,135.492,688.628Z" transform="translate(-105.559 -633.871)" fill="#fff006" stroke="#000" stroke-miterlimit="10" stroke-width="2"/>
        <line id="Línea_3231-2" data-name="Línea 3231" y1="7.578" transform="translate(26.797)" fill="none" stroke="#000" stroke-miterlimit="10" stroke-width="2"/>
        <line id="Línea_3232-2" data-name="Línea 3232" x1="4.454" y1="6.13" transform="translate(10.236 5.387)" fill="none" stroke="#000" stroke-miterlimit="10" stroke-width="2"/>
        <line id="Línea_3233-2" data-name="Línea 3233" x1="7.2" y1="2.336" transform="translate(0 19.477)" fill="none" stroke="#000" stroke-miterlimit="10" stroke-width="2"/>
        <line id="Línea_3234-2" data-name="Línea 3234" x1="7.2" y2="2.341" transform="translate(0 34.55)" fill="none" stroke="#000" stroke-miterlimit="10" stroke-width="2"/>
        <line id="Línea_3235-2" data-name="Línea 3235" x1="7.2" y1="2.341" transform="translate(46.398 34.55)" fill="none" stroke="#000" stroke-miterlimit="10" stroke-width="2"/>
        <line id="Línea_3236-2" data-name="Línea 3236" x1="7.2" y2="2.336" transform="translate(46.398 19.477)" fill="none" stroke="#000" stroke-miterlimit="10" stroke-width="2"/>
        <line id="Línea_3237-2" data-name="Línea 3237" x1="4.454" y2="6.125" transform="translate(38.91 5.387)" fill="none" stroke="#000" stroke-miterlimit="10" stroke-width="2"/>
        <path id="Trazado_997622-2" data-name="Trazado 997622" d="M119,638.208a10.647,10.647,0,0,1,4.484-8.693" transform="translate(-102.867 -610.025)" fill="#fff006" stroke="#000" stroke-miterlimit="10" stroke-width="2"/>
        <line id="Línea_3238-2" data-name="Línea 3238" y2="8.634" transform="translate(26.797 33.258)" fill="none" stroke="#000" stroke-miterlimit="10" stroke-width="2"/>
        <path id="Trazado_997623-2" data-name="Trazado 997623" d="M133.157,647.74l2.669,3.47,3-3.47" transform="translate(-109.027 -617.951)" fill="#fff006" stroke="#000" stroke-miterlimit="10" stroke-width="2"/>
        <path id="Trazado_997624-2" data-name="Trazado 997624" d="M132.431,691.931a3.07,3.07,0,1,0,6.14,0" transform="translate(-108.711 -637.173)" fill="#fff006" stroke="#000" stroke-miterlimit="10" stroke-width="2"/>
      </g>
      <rect id="Rectángulo_459857-2" data-name="Rectángulo 459857" width="80" height="80" transform="translate(705.258 1688)" fill="#fff006"/>
    </g>
    <g id="Grupo_1212339" data-name="Grupo 1212339" transform="translate(718.099 419.492)">
      <g id="Grupo_1212338" data-name="Grupo 1212338" clip-path="url(#clip-path)">
        <path id="Trazado_1273963" data-name="Trazado 1273963" d="M59.749,12.472a1.062,1.062,0,0,0-.883-.262L37.7,16.456a1.033,1.033,0,0,0-.94.756,1.06,1.06,0,0,0,.271,1.017l4.906,4.922L37.715,27.27a5.2,5.2,0,0,0-.893-5.779L33.163,18.62a1.909,1.909,0,0,1-.755-1.983L33.8,11.376a28,28,0,0,0,2.854-1.45,19.079,19.079,0,0,1,3.975-1.832,3.5,3.5,0,0,1,.923,0c.928.078,2.083.175,2.474-1.168a2.01,2.01,0,0,1,1.141-1.4,2.418,2.418,0,0,0,1.379-3.057A2.369,2.369,0,0,0,45.32,1.11,2.319,2.319,0,0,0,43.5,1.074L32.682,5.281a4.462,4.462,0,1,0-6.94,2.809l-8.621,3.958c-.059-.009-.13-.026-.2-.043a1.045,1.045,0,0,0-.812.015l-7.165,5.3A4.49,4.49,0,0,0,4.824,12.69a4.454,4.454,0,0,0-1.19,8.817,7.663,7.663,0,0,0-1.911,5.376c-.148,10.013.116,19.568.805,29.211A2.884,2.884,0,0,0,3.7,58.437a2.92,2.92,0,0,0,2.512.344l-.51.634a.986.986,0,0,0-.027,1.1,1.1,1.1,0,0,0,.919.5h0l11.793-.039h.037L49.085,30.314l4.828,4.808a1.221,1.221,0,0,0,.981.378A1.053,1.053,0,0,0,55.668,35l.009-.015,4.357-21.574a.959.959,0,0,0-.285-.945M44.111,22.4l-4.284-4.3,17.906-3.6-3.6,17.888-4.213-4.171a1.135,1.135,0,0,0-1.673.012L17.526,58.965l-8.467-.027L44.1,23.892a1.112,1.112,0,0,0,.013-1.49M2.194,16.234A2.407,2.407,0,0,1,3.551,14.9a2.465,2.465,0,0,1,1.954.041A2.356,2.356,0,0,1,6.758,16.33a2.466,2.466,0,0,1-1.45,3.092A2.475,2.475,0,0,1,2.179,18a2.267,2.267,0,0,1,.015-1.763M5.377,56.861a.7.7,0,0,1-.53-.136,1.177,1.177,0,0,1-.3-.826c-.677-9.181-.937-18.731-.794-29.2a5.436,5.436,0,0,1,2.154-4.521l6.737-5.051a2.982,2.982,0,0,0,.632,1.1l-3.8,4.654-.017.021-.587,6.116a2.905,2.905,0,0,0,2.984,3.27l1.983,0h0a2.031,2.031,0,0,1,1.441.665,2.258,2.258,0,0,1,.639,1.531l.007,11.966c0,.364-.337.5-.631.581a1,1,0,0,1-.72-.116.345.345,0,0,1-.155-.271l-.569-8.8a2.668,2.668,0,0,0-1.184-2,2.082,2.082,0,0,0-1.876-.263L6.823,37.565,6.141,55.918c-.022.588-.278.9-.763.943M44.6,3.111a.387.387,0,0,1,.058.274.241.241,0,0,1-.11.177l-1.786,1.1a1.367,1.367,0,0,0-.567,1.4c-.294.2-.516.092-.818-.055a1.45,1.45,0,0,0-1.491-.038l-7.765,4.054-.035.018-1.539,5.587a4.284,4.284,0,0,0,1.608,4.77l2.869,2.212a2.819,2.819,0,0,1,.965,3.374l-2.238,4.433c-.134.266-.618.108-.741.051s-.678-.336-.541-.677l1.619-4.028a.906.906,0,0,0-.45-1.105l-4.308-2.225a.864.864,0,0,0-.8-.019,1.144,1.144,0,0,0-.583.828l-3,16.88c-.091.086-.173.173-.253.258a2,2,0,0,1-.562.471c-.177.084-.457-.092-.559-.2a.9.9,0,0,1-.186-.7,41.721,41.721,0,0,0,.8-7.285l.375-10.306a34.171,34.171,0,0,1,1.238-7.978,1.12,1.12,0,0,0-.146-1.046,1.049,1.049,0,0,0-.821-.375,1.11,1.11,0,0,0-.406.076l-7.547,2.964a1.129,1.129,0,0,0-.429.432c-.253.354-.54.755-1.167.641a.882.882,0,0,1-.574-.315.542.542,0,0,1-.053-.437c.139-.579.777-1.015,1.317-1.33A59.443,59.443,0,0,1,23.9,11.131L44.214,2.953c.162-.066.285.043.384.158M29.719,24.941,31.8,25.977l-1.038,2.485a2.807,2.807,0,0,0-.028,2.6,2.687,2.687,0,0,0,1.875,1.375l-5.137,5.112Zm-11.7-7.182,5.371-2.1a67.185,67.185,0,0,0-1.073,12.407A71.658,71.658,0,0,1,21.5,38.953c-.23,1.283-.253,2.6,1.093,3.544l-4.748,4.695.117-.89-.017-11.732a4.358,4.358,0,0,0-1.27-3.117,4.179,4.179,0,0,0-2.965-1.216h-.025l-2,.012h-.006a.741.741,0,0,1-.768-.842l.482-5.62,3.789-4.649a2.859,2.859,0,0,0,2.839-1.377M8.093,56.6a5.159,5.159,0,0,0,.1-1.237l.574-16.532,2.625-1.317a.191.191,0,0,1,.2.029.682.682,0,0,1,.263.543l.511,8.723a2.843,2.843,0,0,0,1.221,1.873,3.322,3.322,0,0,0,2.386.369L8.029,57.02c.02-.146.042-.285.064-.42M30.488,5.477a2.43,2.43,0,0,1-4.4-2.074A2.3,2.3,0,0,1,27.5,2.16a2.429,2.429,0,0,1,3.1,1.472,2.372,2.372,0,0,1-.108,1.844" transform="translate(0 0)" fill="#12263f"/>
      </g>
    </g>
  </g>
</svg>
