<svg xmlns="http://www.w3.org/2000/svg" xmlns:xlink="http://www.w3.org/1999/xlink" width="128" height="128" viewBox="0 0 128 128">
  <defs>
    <clipPath id="clip-path">
      <rect id="Rectángulo_459899" data-name="Rectángulo 459899" width="128" height="128" fill="none"/>
    </clipPath>
    <clipPath id="clip-path-2">
      <rect id="Rectángulo_465412" data-name="Rectángulo 465412" width="54.368" height="59.103" fill="#12263f"/>
    </clipPath>
  </defs>
  <g id="Grupo_1212505" data-name="Grupo 1212505" transform="translate(-6768.746 8769.52)">
    <g id="Grupo_1211296" data-name="Grupo 1211296" transform="translate(6768.746 -8769.52)">
      <g id="Grupo_1188515" data-name="Grupo 1188515" clip-path="url(#clip-path)">
        <path id="Trazado_1033015" data-name="Trazado 1033015" d="M128,64A64,64,0,1,1,64,0a64,64,0,0,1,64,64" fill="#fff"/>
        <path id="Trazado_1033016" data-name="Trazado 1033016" d="M154.441,185.937l.625-.59c-.045-.02-.215.119-.625.59" transform="translate(-131.184 -157.435)" fill="#e4cbc1"/>
        <path id="Trazado_1033017" data-name="Trazado 1033017" d="M374.691,757.713l-.2.008a.74.74,0,0,0,.2-.008" transform="translate(-318.095 -643.61)" fill="#e4cbc1"/>
        <path id="Trazado_1033018" data-name="Trazado 1033018" d="M342.621,99.876l-.041.008-.2.065Z" transform="translate(-290.823 -84.836)" fill="#e4cbc1"/>
        <path id="Trazado_1033019" data-name="Trazado 1033019" d="M81.364,97.171a46.672,46.672,0,0,1,3.779-5.711c1.133-1.6,2.359-2.8,3.473-4.1.6-.615,1.228-1.2,1.858-1.825l.97-.96,1.1-.927a47.547,47.547,0,0,1,5.5-4.2,46.375,46.375,0,0,1,14.737-5.883c2.322-.985,6.71-.887,9.606-1.239l1.123.269a11.86,11.86,0,0,1,3.182.125l-.069.054c1.5.046,3.178.288,3.916.385l-.072.049,1.79.338-.325.025c.647.092,1.3.178,1.95.3l1.9.5c.625.176,1.248.337,1.843.538l1.707.68-.095-.313c.586.256,1.127.482,1.636.685s.956.45,1.4.64c.875.4,1.663.733,2.437,1.063.743.389,1.473.772,2.258,1.217.39.226.8.452,1.22.731.4.3.829.621,1.28.979l-.087.017c.647.335,1.251.674,1.819,1.016.55.366,1.04.768,1.521,1.149s.933.772,1.375,1.157.817.833,1.223,1.245c1.618,1.661,3.114,3.436,5.222,5.6-.519-.547.09.338,0,.328l1.3,1.6c.419.52.765,1.051,1.108,1.479.671.868,1.2,1.425,1.432,1.308,1.071,1.738.7,1.516.678,1.837.172-.117,1.176,1.354,1.91,2.769-.137-.2-.255-.419-.406-.615.7,1.351,1.393,2.708,2.057,4.079.025-.338,0-.658.006-.99.887,2.273-.217.771.773,2.875l.313-.159a19.563,19.563,0,0,1,.732,2.189c.165.694.3,1.349.426,2s.257,1.3.371,1.981c.091.692.2,1.416.339,2.21a73.426,73.426,0,0,1,1.768,9.989,51.748,51.748,0,0,1-.063,10.205l-.136,1.264-.068.631-.127.619-.512,2.466a17.435,17.435,0,0,1-.677,2.4c-.26.785-.5,1.577-.779,2.345l-1.018,2.217a17.671,17.671,0,0,1-1.094,2.137,29.664,29.664,0,0,1-2.668,3.842l-.541.266c-.411-.047-1.68,2.982-2.322,3.054-.289.381-.56.782-.872,1.147-.34.231-1,.763-.546.208a16.966,16.966,0,0,0-1.6,1.672c-.4.26-.832.482-1.247.718a74.424,74.424,0,0,1-6.176,4.184,35.986,35.986,0,0,1-6.974,3.266,93.37,93.37,0,0,1-12.7,2.748,98.083,98.083,0,0,1-13.538.888,49.735,49.735,0,0,1-15.981-2.551A67.158,67.158,0,0,1,89.2,160.415a3.592,3.592,0,0,0-1.043-.6c-.607-.5-1.191-1.018-1.788-1.524l-.892-.764-.814-.843L83.038,155l-1.448-1.839-.312-.392-.37-.462-.431-.661a34.528,34.528,0,0,1-2.393-4.01,21.288,21.288,0,0,1-1.264-2.643c-.367-.945-.809-1.89-1.144-2.87-.6-1.985-1.275-3.931-1.646-5.694-.817-3.5-1.184-6.012-1.59-5.364a10.1,10.1,0,0,0-.38,3.632,36.74,36.74,0,0,0,.261,4.12c.111.827.29,1.722.463,2.705l.285,1.536c.1.534.292,1.062.445,1.627l-.169-.205L74,146.362l.315.882c.12.281.257.548.381.813.513,1.057.982,2.038,1.479,2.94a23.866,23.866,0,0,0,3.582,4.589,2,2,0,0,0,.442.92c.138.2.3.413.48.634l.634.637c.893.855,1.832,1.78,2.277,2.258l-.123-.049c1.44.94,2.657,2.2,4.065,3.215a21.712,21.712,0,0,0,2.08,1.531,20.226,20.226,0,0,0,2.212,1.179,1.586,1.586,0,0,1-.914-.312c.528.279,1.088.616,1.669.891l1.672.779a6.405,6.405,0,0,1,1.806,1.055,58.146,58.146,0,0,0,8.915,2.859,38.937,38.937,0,0,0,4.323.8,21.527,21.527,0,0,0,3.393.24l-.255.051c2.064-.038,2.637.242,4.926.254.122.048.282.081.255.1,2.224-.154,6.453.16,8.246-.044l.121.2c1.471-.063,2.943-.144,4.411-.283-.55.035-1.1.057-1.651.072.528-.57,3.368.143,6.519-.667,3.013-.374,5.76-2.2,8.767-2.816,1.338-.666-1.123.779.93-.058.158.256-.934.483-.32.533,2.031-.8,3.509-.855,5.925-2.117l.192.158c3.044-1.81,6.1-2.831,7.832-4.521a12.491,12.491,0,0,1,2.589-1.686,7.231,7.231,0,0,0,2.446-2.076l1.289-.82c1.182-1.163.579-1.085,1.894-2.356.081.221,1.608-1.677,1.065-.73a25.026,25.026,0,0,0,3.654-5.365l.793-1.559.736-1.663c.517-1.127,1.131-2.276,1.628-3.56a11.286,11.286,0,0,1,.554-2.482,9.248,9.248,0,0,0,.349-2.272,16.21,16.21,0,0,0,.622-2.336c.152-.953.277-1.513.255.045,0,.268-.128.724-.177.682l.135.4a8.52,8.52,0,0,0,.506-2.205c.091-.724.141-1.434.179-2.142a18.33,18.33,0,0,0,0-2.137c-.016-.721-.015-1.456.03-2.224-.107.909-.136,2.118-.254,1.3.024-.946.144-1.9.088-2.841l.208.59-.069-4.248-.2.6a16.372,16.372,0,0,0-.374-5.124c-.338-1.012-.031,1.981-.416-.161-.2-1.358-.356-3.084-.717-4.868a47.607,47.607,0,0,0-1.326-5.338c-.14.392-.431-.509-.79-1.414l.174-.182c-.748-1.716-.836-2.047-.821-2.419-.007-.362-.007-.729-.825-2.405l.267.242c-.262-.244-.534-.481-.824-.708a6.605,6.605,0,0,1-1.153-2.355,5.909,5.909,0,0,0-1.474-2.5c.758,1.259-.091.834-.892-.773l.412.289a17.513,17.513,0,0,1-1.063-1.687c.382.462.457.091-.4-1.112l.772.684L165.6,92.049A18.783,18.783,0,0,0,163.509,89c-.376-.488-.727-.946-1-1.338a5.175,5.175,0,0,1-.606-.9s-.743-.9-1.609-1.864a12.043,12.043,0,0,0-1.381-1.336,6.591,6.591,0,0,0-1.09-.81c.821.5-.989-1.34-.3-1.013-.495-.363-1.516-1.015-2.5-1.751-.491-.366-.978-.748-1.4-1.107s-.833-.633-1.091-.89l.241.13c-4.218-3.29-7.918-4.417-12.214-6.37.112.317-2.184-.685-1.71-.156-2.377-.551-4.454-1.343-6.252-1.734a13.7,13.7,0,0,0-2.393-.462,4.062,4.062,0,0,0-1.764.222c-2.186-.246-2.573-.514-3.715-.623l.531-.029-2.636-.075c-.744,0-1.38.051-1.982.066-1.2.058-2.278.029-3.809.226a11.52,11.52,0,0,0-1.761.507,19.819,19.819,0,0,1-2.645.594c.836-.354-.258-.107-1.266.089.637-.154.826-.261-.529-.127-.174.095-.456.176-.712.289-.014-.011-.069-.008-.047-.035-1.639.529-1.333.5-.561.314-.031.039.043.056.292.041a27.084,27.084,0,0,0-3.085.739c-.993.322-1.784.633-1.945.51A39.849,39.849,0,0,0,93.325,78.8c-.489.15.229-.557,1.2-1.347L92.1,79.3c-.129-.2,1.332-1.145,2.065-1.738a23.017,23.017,0,0,0-2.311,1.553c-.7.628-1.394,1.3-2.1,1.976-.724.657-1.373,1.412-2.064,2.155s-1.47,1.433-2.187,2.216l-.418.8-.185.174a4.4,4.4,0,0,1-.788,1.37c-.537.337-.39-.359-1.6,1.363a15.244,15.244,0,0,0-1.861,2.669l-1.695,3.217c.627-.986.539-.6.34-.138a21.883,21.883,0,0,0-1.241,2.11l-.3-.041c.213-.121-.039.517-.352,1.233a11.516,11.516,0,0,0-.648,1.74c-.422.46.467-1.565.487-1.848-.9,1.893-1.062,2.4-1.285,2.87-.185.49-.478.937-1.159,2.919-.567,2.169.389-.287.255.8-.673,1.844-.967,3.743-1.775,5.846l.442-.615c-.41,1.784-.623,3.233-.95,4.5-.267,1.282-.49,2.422-.822,3.621-.138,1.7-.086,3.229-.119,4.563.031,1.339.145,2.5.214,3.5a20.484,20.484,0,0,0,.348,2.542c.127.7.243,1.26.35,1.7.443,1.757.753,1.614.887.617a39.933,39.933,0,0,0,.33-4.258c.147-1.525.229-2.806.229-2.806a116.086,116.086,0,0,1,2.145-12.969l.788-3.08c.294-1.051.671-2.117,1.03-3.257a53.709,53.709,0,0,1,3.2-7.432" transform="translate(-61.023 -58.519)" fill="#3a552a"/>
      </g>
    </g>
    <g id="Grupo_1212436" data-name="Grupo 1212436" transform="translate(6804.563 -8736.07)">
      <g id="Grupo_1212435" data-name="Grupo 1212435" clip-path="url(#clip-path-2)">
        <path id="Trazado_1274299" data-name="Trazado 1274299" d="M47.543,254.718l-13.277.049a1.217,1.217,0,0,1-1.277-.958l-8.3,0a1.165,1.165,0,0,1-1.219-.969l-6.724-.046a.881.881,0,0,1-.842-.866l-.006-4.879a3.9,3.9,0,0,1,2.592-3.594,3.4,3.4,0,0,1-.227-4.892,3.331,3.331,0,1,1,4.521,4.881,5.3,5.3,0,0,1,1.535.984A5.2,5.2,0,0,1,26.97,242.5,3.782,3.782,0,0,1,26.4,236.9a3.8,3.8,0,1,1,5.09,5.593,8.583,8.583,0,0,1,1.783.923,5.924,5.924,0,0,1,4.576-3.934,4.772,4.772,0,1,1,5.636-.014,6,6,0,0,1,4.56,3.953,8,8,0,0,1,1.787-.926,3.8,3.8,0,1,1,4.521,0,5.224,5.224,0,0,1,2.652,1.929,5.108,5.108,0,0,1,1.531-.986,3.331,3.331,0,1,1,4.445-4.956,3.38,3.38,0,0,1-.167,4.971,3.928,3.928,0,0,1,2.617,3.718l-.016,4.751a.873.873,0,0,1-.842.864l-6.722.049a1.171,1.171,0,0,1-1.208.969l-8.328,0c-.122.294-.339.909-.774.911m-7.5-21.825a2.846,2.846,0,1,0,1.273,5.547,2.871,2.871,0,0,0,2.144-3.322,2.841,2.841,0,0,0-3.417-2.224M28.794,237.63a1.9,1.9,0,1,0,.922,3.677,1.871,1.871,0,0,0,1.353-2.3,1.913,1.913,0,0,0-2.274-1.376m22.863,0a1.9,1.9,0,1,0,.922,3.677,1.871,1.871,0,0,0,1.353-2.3,1.913,1.913,0,0,0-2.274-1.376m-31.577,1.977a1.422,1.422,0,0,0-.756,1.832,1.425,1.425,0,0,0,2.659-1.023,1.416,1.416,0,0,0-1.9-.809m40.082-.016a1.415,1.415,0,1,0,1.072,2.618,1.415,1.415,0,0,0,.8-1.728,1.4,1.4,0,0,0-1.872-.89m-13.786,13.2v-7.482a3.821,3.821,0,0,0-3.594-3.923H38.535A3.741,3.741,0,0,0,34.974,245l-.026,7.808Zm-13.334-.931,0-4.731a2.866,2.866,0,0,0-2.741-2.875H28.16a2.858,2.858,0,0,0-2.738,2.876l0,4.743Zm22.863,0,0-4.731a2.866,2.866,0,0,0-2.741-2.875H51.024a2.858,2.858,0,0,0-2.738,2.876l0,4.743Zm-32.4-.929,0-3.962a1.981,1.981,0,0,0-1.892-1.789l-1.979.014a1.837,1.837,0,0,0-1.821,1.8l-.02,3.946Zm40.024,0-.009-3.938a1.893,1.893,0,0,0-1.834-1.8l-1.833-.011a1.918,1.918,0,0,0-2.02,1.788l0,3.972Z" transform="translate(-13.476 -195.664)" fill="#12263f"/>
        <path id="Trazado_1274300" data-name="Trazado 1274300" d="M29.764,1.822c-1.774.1-3.412.107-5.217.087l.048,2.014a1.846,1.846,0,0,1-1.46,1.885,23.875,23.875,0,0,0-5.3,1.721c-1.8.837-2.54-.665-3.686-2.3L9.938,8.363,11.192,10a1.792,1.792,0,0,1-.118,2.343,24.25,24.25,0,0,0-3.416,4.817,1.789,1.789,0,0,1-2.083.745l-2.031-.625L1.9,22.2c1.766.65,3.589.683,3.29,2.867a20.879,20.879,0,0,0,0,5.248,1.893,1.893,0,0,1-1.3,2.138l-2.041.661,1.7,4.962a10.712,10.712,0,0,1-1.819.575L.127,33.71a1.824,1.824,0,0,1,.788-2.237,14.8,14.8,0,0,1,2.463-.824A18.269,18.269,0,0,1,3.326,24.6l-2-.626a1.8,1.8,0,0,1-1.25-2.22l1.6-5.062A1.782,1.782,0,0,1,3.866,15.35l2.293.686a20.618,20.618,0,0,1,3.5-4.91L8.409,9.437a1.87,1.87,0,0,1,.46-2.653l4.14-3.018a1.838,1.838,0,0,1,2.615.279l1.366,1.828a19.215,19.215,0,0,1,5.633-1.865l.047-2.2A1.821,1.821,0,0,1,24.455,0h5.462A1.819,1.819,0,0,1,31.7,1.8l.044,2.247a21.821,21.821,0,0,1,5.692,1.784l1.383-1.871A1.772,1.772,0,0,1,41.265,3.7l4.242,3.071a1.889,1.889,0,0,1,.458,2.66L44.714,11.2a21.824,21.824,0,0,1,3.555,4.817l2.236-.672a1.79,1.79,0,0,1,2.188,1.344l1.6,5.066a1.749,1.749,0,0,1-.832,2.011,14.7,14.7,0,0,1-2.47.825,18.394,18.394,0,0,1,.05,6.063,19,19,0,0,1,2.414.8,1.848,1.848,0,0,1,.786,2.252l-1.6,4.939-1.814-.572,1.635-5.019-2-.614a1.776,1.776,0,0,1-1.289-1.727,25.942,25.942,0,0,0,.007-5.679,1.859,1.859,0,0,1,1.077-2.159l2.264-.77-1.7-4.915-2.055.679a1.794,1.794,0,0,1-2.093-.832,23.609,23.609,0,0,0-3.326-4.586,1.873,1.873,0,0,1-.152-2.438l1.267-1.73-4.33-3.053L38.894,7.087a1.78,1.78,0,0,1-2.288.508,23.643,23.643,0,0,0-5.369-1.784,1.882,1.882,0,0,1-1.465-1.887Z" transform="translate(0)" fill="#12263f"/>
        <path id="Trazado_1274301" data-name="Trazado 1274301" d="M73.881,126.841l-13.369-.013,0,17.081-1.881.015v-6.6H49.082l0,8.547H47.205v-9.583a.876.876,0,0,1,.819-.889l10.611-.018.009-9.6a.91.91,0,0,1,.951-.893H74.8a.91.91,0,0,1,.951.892l.01,9.6,10.478,0a.928.928,0,0,1,.953,1.054v9.43H85.312l0-8.546H75.757v6.591l-1.881-.005Z" transform="translate(-40.01 -105.856)" fill="#12263f"/>
        <path id="Trazado_1274302" data-name="Trazado 1274302" d="M89.595,75.333a17.143,17.143,0,1,0-34.286-.011l-1.9.044a19.044,19.044,0,1,1,38.088-.011Z" transform="translate(-45.266 -47.682)" fill="#12263f"/>
        <path id="Trazado_1274303" data-name="Trazado 1274303" d="M153.215,196.578l-2.851.01V193.7l2.85,0Z" transform="translate(-127.445 -164.178)" fill="#12263f"/>
        <path id="Trazado_1274304" data-name="Trazado 1274304" d="M190.514,196.574l-2.853.007,0-2.882,2.85,0Z" transform="translate(-159.055 -164.171)" fill="#12263f"/>
        <path id="Trazado_1274305" data-name="Trazado 1274305" d="M153.195,159l-2.846,0,0-2.852,2.838,0Z" transform="translate(-127.43 -132.341)" fill="#12263f"/>
        <path id="Trazado_1274306" data-name="Trazado 1274306" d="M190.594,158.983l-2.839.029-.005-2.859,2.843,0Z" transform="translate(-159.132 -132.351)" fill="#12263f"/>
        <path id="Trazado_1274307" data-name="Trazado 1274307" d="M74.141,226.8l-1.864,0,0-1.938h1.854Z" transform="translate(-61.258 -190.593)" fill="#12263f"/>
        <path id="Trazado_1274308" data-name="Trazado 1274308" d="M99.141,226.8l-1.864,0,0-1.938h1.854Z" transform="translate(-82.448 -190.593)" fill="#12263f"/>
        <path id="Trazado_1274309" data-name="Trazado 1274309" d="M249.14,226.8l-1.864,0,0-1.938h1.854Z" transform="translate(-209.584 -190.593)" fill="#12263f"/>
        <path id="Trazado_1274310" data-name="Trazado 1274310" d="M274.14,226.8l-1.864,0,0-1.938h1.854Z" transform="translate(-230.774 -190.593)" fill="#12263f"/>
      </g>
    </g>
  </g>
</svg>
