<svg xmlns="http://www.w3.org/2000/svg" xmlns:xlink="http://www.w3.org/1999/xlink" width="128" height="128" viewBox="0 0 128 128">
  <defs>
    <clipPath id="clip-path">
      <rect id="Rectángulo_459899" data-name="Rectángulo 459899" width="128" height="128" fill="none"/>
    </clipPath>
    <clipPath id="clip-path-2">
      <rect id="Rectángulo_465408" data-name="Rectángulo 465408" width="65" height="65" fill="#12263f"/>
    </clipPath>
  </defs>
  <g id="Grupo_1212501" data-name="Grupo 1212501" transform="translate(-382.746 -2930.48)">
    <g id="Grupo_1211286" data-name="Grupo 1211286" transform="translate(382.746 2930.48)">
      <g id="Grupo_1188515" data-name="Grupo 1188515" clip-path="url(#clip-path)">
        <path id="Trazado_1033015" data-name="Trazado 1033015" d="M128,64A64,64,0,1,1,64,0a64,64,0,0,1,64,64" fill="#fff"/>
        <path id="Trazado_1033016" data-name="Trazado 1033016" d="M154.441,185.937l.625-.59c-.045-.02-.215.119-.625.59" transform="translate(-131.184 -157.435)" fill="#e4cbc1"/>
        <path id="Trazado_1033017" data-name="Trazado 1033017" d="M374.691,757.713l-.2.008a.74.74,0,0,0,.2-.008" transform="translate(-318.095 -643.61)" fill="#e4cbc1"/>
        <path id="Trazado_1033018" data-name="Trazado 1033018" d="M342.621,99.876l-.041.008-.2.065Z" transform="translate(-290.823 -84.836)" fill="#e4cbc1"/>
        <path id="Trazado_1033019" data-name="Trazado 1033019" d="M81.364,97.171a46.672,46.672,0,0,1,3.779-5.711c1.133-1.6,2.359-2.8,3.473-4.1.6-.615,1.228-1.2,1.858-1.825l.97-.96,1.1-.927a47.547,47.547,0,0,1,5.5-4.2,46.375,46.375,0,0,1,14.737-5.883c2.322-.985,6.71-.887,9.606-1.239l1.123.269a11.86,11.86,0,0,1,3.182.125l-.069.054c1.5.046,3.178.288,3.916.385l-.072.049,1.79.338-.325.025c.647.092,1.3.178,1.95.3l1.9.5c.625.176,1.248.337,1.843.538l1.707.68-.095-.313c.586.256,1.127.482,1.636.685s.956.45,1.4.64c.875.4,1.663.733,2.437,1.063.743.389,1.473.772,2.258,1.217.39.226.8.452,1.22.731.4.3.829.621,1.28.979l-.087.017c.647.335,1.251.674,1.819,1.016.55.366,1.04.768,1.521,1.149s.933.772,1.375,1.157.817.833,1.223,1.245c1.618,1.661,3.114,3.436,5.222,5.6-.519-.547.09.338,0,.328l1.3,1.6c.419.52.765,1.051,1.108,1.479.671.868,1.2,1.425,1.432,1.308,1.071,1.738.7,1.516.678,1.837.172-.117,1.176,1.354,1.91,2.769-.137-.2-.255-.419-.406-.615.7,1.351,1.393,2.708,2.057,4.079.025-.338,0-.658.006-.99.887,2.273-.217.771.773,2.875l.313-.159a19.563,19.563,0,0,1,.732,2.189c.165.694.3,1.349.426,2s.257,1.3.371,1.981c.091.692.2,1.416.339,2.21a73.426,73.426,0,0,1,1.768,9.989,51.748,51.748,0,0,1-.063,10.205l-.136,1.264-.068.631-.127.619-.512,2.466a17.435,17.435,0,0,1-.677,2.4c-.26.785-.5,1.577-.779,2.345l-1.018,2.217a17.671,17.671,0,0,1-1.094,2.137,29.664,29.664,0,0,1-2.668,3.842l-.541.266c-.411-.047-1.68,2.982-2.322,3.054-.289.381-.56.782-.872,1.147-.34.231-1,.763-.546.208a16.966,16.966,0,0,0-1.6,1.672c-.4.26-.832.482-1.247.718a74.424,74.424,0,0,1-6.176,4.184,35.986,35.986,0,0,1-6.974,3.266,93.37,93.37,0,0,1-12.7,2.748,98.083,98.083,0,0,1-13.538.888,49.735,49.735,0,0,1-15.981-2.551A67.158,67.158,0,0,1,89.2,160.415a3.592,3.592,0,0,0-1.043-.6c-.607-.5-1.191-1.018-1.788-1.524l-.892-.764-.814-.843L83.038,155l-1.448-1.839-.312-.392-.37-.462-.431-.661a34.528,34.528,0,0,1-2.393-4.01,21.288,21.288,0,0,1-1.264-2.643c-.367-.945-.809-1.89-1.144-2.87-.6-1.985-1.275-3.931-1.646-5.694-.817-3.5-1.184-6.012-1.59-5.364a10.1,10.1,0,0,0-.38,3.632,36.74,36.74,0,0,0,.261,4.12c.111.827.29,1.722.463,2.705l.285,1.536c.1.534.292,1.062.445,1.627l-.169-.205L74,146.362l.315.882c.12.281.257.548.381.813.513,1.057.982,2.038,1.479,2.94a23.866,23.866,0,0,0,3.582,4.589,2,2,0,0,0,.442.92c.138.2.3.413.48.634l.634.637c.893.855,1.832,1.78,2.277,2.258l-.123-.049c1.44.94,2.657,2.2,4.065,3.215a21.712,21.712,0,0,0,2.08,1.531,20.226,20.226,0,0,0,2.212,1.179,1.586,1.586,0,0,1-.914-.312c.528.279,1.088.616,1.669.891l1.672.779a6.405,6.405,0,0,1,1.806,1.055,58.146,58.146,0,0,0,8.915,2.859,38.937,38.937,0,0,0,4.323.8,21.527,21.527,0,0,0,3.393.24l-.255.051c2.064-.038,2.637.242,4.926.254.122.048.282.081.255.1,2.224-.154,6.453.16,8.246-.044l.121.2c1.471-.063,2.943-.144,4.411-.283-.55.035-1.1.057-1.651.072.528-.57,3.368.143,6.519-.667,3.013-.374,5.76-2.2,8.767-2.816,1.338-.666-1.123.779.93-.058.158.256-.934.483-.32.533,2.031-.8,3.509-.855,5.925-2.117l.192.158c3.044-1.81,6.1-2.831,7.832-4.521a12.491,12.491,0,0,1,2.589-1.686,7.231,7.231,0,0,0,2.446-2.076l1.289-.82c1.182-1.163.579-1.085,1.894-2.356.081.221,1.608-1.677,1.065-.73a25.026,25.026,0,0,0,3.654-5.365l.793-1.559.736-1.663c.517-1.127,1.131-2.276,1.628-3.56a11.286,11.286,0,0,1,.554-2.482,9.248,9.248,0,0,0,.349-2.272,16.21,16.21,0,0,0,.622-2.336c.152-.953.277-1.513.255.045,0,.268-.128.724-.177.682l.135.4a8.52,8.52,0,0,0,.506-2.205c.091-.724.141-1.434.179-2.142a18.33,18.33,0,0,0,0-2.137c-.016-.721-.015-1.456.03-2.224-.107.909-.136,2.118-.254,1.3.024-.946.144-1.9.088-2.841l.208.59-.069-4.248-.2.6a16.372,16.372,0,0,0-.374-5.124c-.338-1.012-.031,1.981-.416-.161-.2-1.358-.356-3.084-.717-4.868a47.607,47.607,0,0,0-1.326-5.338c-.14.392-.431-.509-.79-1.414l.174-.182c-.748-1.716-.836-2.047-.821-2.419-.007-.362-.007-.729-.825-2.405l.267.242c-.262-.244-.534-.481-.824-.708a6.605,6.605,0,0,1-1.153-2.355,5.909,5.909,0,0,0-1.474-2.5c.758,1.259-.091.834-.892-.773l.412.289a17.513,17.513,0,0,1-1.063-1.687c.382.462.457.091-.4-1.112l.772.684L165.6,92.049A18.783,18.783,0,0,0,163.509,89c-.376-.488-.727-.946-1-1.338a5.175,5.175,0,0,1-.606-.9s-.743-.9-1.609-1.864a12.043,12.043,0,0,0-1.381-1.336,6.591,6.591,0,0,0-1.09-.81c.821.5-.989-1.34-.3-1.013-.495-.363-1.516-1.015-2.5-1.751-.491-.366-.978-.748-1.4-1.107s-.833-.633-1.091-.89l.241.13c-4.218-3.29-7.918-4.417-12.214-6.37.112.317-2.184-.685-1.71-.156-2.377-.551-4.454-1.343-6.252-1.734a13.7,13.7,0,0,0-2.393-.462,4.062,4.062,0,0,0-1.764.222c-2.186-.246-2.573-.514-3.715-.623l.531-.029-2.636-.075c-.744,0-1.38.051-1.982.066-1.2.058-2.278.029-3.809.226a11.52,11.52,0,0,0-1.761.507,19.819,19.819,0,0,1-2.645.594c.836-.354-.258-.107-1.266.089.637-.154.826-.261-.529-.127-.174.095-.456.176-.712.289-.014-.011-.069-.008-.047-.035-1.639.529-1.333.5-.561.314-.031.039.043.056.292.041a27.084,27.084,0,0,0-3.085.739c-.993.322-1.784.633-1.945.51A39.849,39.849,0,0,0,93.325,78.8c-.489.15.229-.557,1.2-1.347L92.1,79.3c-.129-.2,1.332-1.145,2.065-1.738a23.017,23.017,0,0,0-2.311,1.553c-.7.628-1.394,1.3-2.1,1.976-.724.657-1.373,1.412-2.064,2.155s-1.47,1.433-2.187,2.216l-.418.8-.185.174a4.4,4.4,0,0,1-.788,1.37c-.537.337-.39-.359-1.6,1.363a15.244,15.244,0,0,0-1.861,2.669l-1.695,3.217c.627-.986.539-.6.34-.138a21.883,21.883,0,0,0-1.241,2.11l-.3-.041c.213-.121-.039.517-.352,1.233a11.516,11.516,0,0,0-.648,1.74c-.422.46.467-1.565.487-1.848-.9,1.893-1.062,2.4-1.285,2.87-.185.49-.478.937-1.159,2.919-.567,2.169.389-.287.255.8-.673,1.844-.967,3.743-1.775,5.846l.442-.615c-.41,1.784-.623,3.233-.95,4.5-.267,1.282-.49,2.422-.822,3.621-.138,1.7-.086,3.229-.119,4.563.031,1.339.145,2.5.214,3.5a20.484,20.484,0,0,0,.348,2.542c.127.7.243,1.26.35,1.7.443,1.757.753,1.614.887.617a39.933,39.933,0,0,0,.33-4.258c.147-1.525.229-2.806.229-2.806a116.086,116.086,0,0,1,2.145-12.969l.788-3.08c.294-1.051.671-2.117,1.03-3.257a53.709,53.709,0,0,1,3.2-7.432" transform="translate(-61.023 -58.519)" fill="#3a552a"/>
      </g>
    </g>
    <g id="Grupo_1211287" data-name="Grupo 1211287" transform="translate(-1.994 -5470.516)">
      <rect id="Rectángulo_459838" data-name="Rectángulo 459838" width="66" height="66" transform="translate(415.74 8431.997)" fill="#fff"/>
      <g id="Grupo_1212428" data-name="Grupo 1212428" transform="translate(415.994 8430.516)">
        <g id="Grupo_1212427" data-name="Grupo 1212427" clip-path="url(#clip-path-2)">
          <path id="Trazado_1274267" data-name="Trazado 1274267" d="M14.975,259.636,15.6,260.8a2.56,2.56,0,0,1-.706,3.551l-2.653,1.536a2.545,2.545,0,0,1-3.58-.676L.441,250.758a2.5,2.5,0,0,1,.822-3.56l2.975-1.675a2.507,2.507,0,0,1,3.446,1.3,2.138,2.138,0,0,0,.5.742l8.346-4.755a6.682,6.682,0,0,1,5.348-.817l3.387,1.117a54.68,54.68,0,0,0,7.3,2.213c2.3.654,3.261,3.015,2.418,5.393l11.988-6.839a8.089,8.089,0,0,1,4.306-1.059,3.756,3.756,0,0,1,3.734,3.6c.077,1.24-.224,2.855-1.4,3.58L35.058,261.451a7.384,7.384,0,0,1-5.881.77L16.5,258.836Zm33.157-14L37.654,251.71a8.336,8.336,0,0,1-6.563,1.087l-6.878-1.774a1.092,1.092,0,0,1-.88-1.5c.205-.581.866-.686,1.538-.509,2.166.573,4.245,1.311,6.439,1.663a1.8,1.8,0,0,0,1.831-1.253,1.728,1.728,0,0,0-1-2.03,74.9,74.9,0,0,1-8.428-2.568,18.672,18.672,0,0,0-3.074-.955,6.737,6.737,0,0,0-3.445.94L9.16,249.44l4.766,8.4,2.265-1.228,13.92,3.674a4.752,4.752,0,0,0,3.621-.5l18.479-11.343a1.92,1.92,0,0,0,.731-1.876A1.714,1.714,0,0,0,51.733,245a4.9,4.9,0,0,0-3.6.636M14.044,262.328,5.513,247.267l-3.5,1.913,8.558,15.179Z" transform="translate(-0.029 -201.39)" fill="#12263f"/>
          <path id="Trazado_1274268" data-name="Trazado 1274268" d="M9.264,81.64A10.956,10.956,0,1,1,.128,94.131,10.927,10.927,0,0,1,9.264,81.64M14.27,93.071a8.414,8.414,0,0,1,4.078,4.234,8.854,8.854,0,1,0-14.8,0,8.287,8.287,0,0,1,4.142-4.226A4.55,4.55,0,0,1,14.182,86.7a4.611,4.611,0,0,1,.088,6.369m-4.182-5.43a2.412,2.412,0,0,0-1.431,3.105,2.449,2.449,0,0,0,4.649-1.535,2.424,2.424,0,0,0-3.218-1.57m6.645,11.537a5.889,5.889,0,0,0-11.532,0,8.833,8.833,0,0,0,11.532,0" transform="translate(0 -67.905)" fill="#12263f"/>
          <path id="Trazado_1274269" data-name="Trazado 1274269" d="M141.413,21.919l-2.738.051a1.253,1.253,0,0,1-1.262-1.042c-.152-.746-.58-.9-1.2-1.16a1.569,1.569,0,0,0-1.74.017,1.076,1.076,0,0,1-1.261-.008l-1.946-1.9a1.145,1.145,0,0,1-.208-1.516,1.612,1.612,0,0,0,0-1.762c-.262-.624-.424-1.035-1.2-1.182-.436-.083-.965-.467-.959-.977l.036-3.1c.005-.447.7-.769,1.065-.839.7-.136.777-.524,1.013-1.045a1.677,1.677,0,0,0,.025-1.9,1.051,1.051,0,0,1,.088-1.321l1.916-1.927a1.1,1.1,0,0,1,1.391-.142c.648.474,1.158.277,1.8.018s1.029-.441,1.179-1.189A1.209,1.209,0,0,1,138.695,0l2.313,0a1.22,1.22,0,0,1,1.279.994c.156.755.527.939,1.176,1.192s1.154.462,1.8-.02a1.1,1.1,0,0,1,1.391.142l1.917,1.929a1.052,1.052,0,0,1,.089,1.318c-.487.691-.269,1.221.018,1.9.248.586.4.954,1.134,1.085.433.077.975.471.977.962l.009,2.936a1.135,1.135,0,0,1-.958.978c-.773.145-.937.555-1.2,1.18a1.617,1.617,0,0,0,0,1.762,1.149,1.149,0,0,1-.208,1.516l-1.946,1.9a1.08,1.08,0,0,1-1.261.009,1.568,1.568,0,0,0-1.739-.016c-.627.264-1.053.4-1.206,1.176-.069.349-.4.966-.875.975m-.867-2.293c.253-.445.256-1.088.712-1.245a19.036,19.036,0,0,0,2.712-1.124c.542-.285,1.081.254,1.587.346.333.061.958-.584.91-.915-.067-.46-.616-1.005-.376-1.493a25.474,25.474,0,0,0,1.171-2.837c.176-.5.97-.431,1.281-.695.278-.235.282-1.181-.009-1.356-.433-.26-1.158-.277-1.343-.85a14.749,14.749,0,0,0-1.077-2.59c-.265-.49.179-1.152.429-1.588a3.392,3.392,0,0,0-.922-1c-.467.238-1.133.7-1.683.416a17.962,17.962,0,0,0-2.6-1.079c-.543-.184-.581-.942-.825-1.346a1.194,1.194,0,0,0-1.331,0c-.249.34-.241,1.1-.731,1.283-.958.366-1.873.732-2.815,1.176-.467.22-1.114-.207-1.506-.448a2.658,2.658,0,0,0-.975.989c1.071,1.441.016,1.935-.653,4.179-.175.586-.9.591-1.34.857a1.141,1.141,0,0,0,.041,1.395c.384.2,1.067.2,1.23.651a25.589,25.589,0,0,0,1.173,2.837c.24.484-.307,1.035-.375,1.492-.051.338.568.968.915.909.5-.085,1.037-.622,1.578-.338a20.17,20.17,0,0,0,2.712,1.126c.508.179.484.889.734,1.274a1.07,1.07,0,0,0,1.372-.031" transform="translate(-107.385 0)" fill="#12263f"/>
          <path id="Trazado_1274270" data-name="Trazado 1274270" d="M267.029,81.665a10.952,10.952,0,1,1-9.181,12.491,10.938,10.938,0,0,1,9.181-12.491m1,2a8.854,8.854,0,1,0,9.472,8.053,8.833,8.833,0,0,0-9.472-8.053" transform="translate(-214.705 -67.93)" fill="#12263f"/>
          <path id="Trazado_1274271" data-name="Trazado 1274271" d="M140.359,184.46a1.074,1.074,0,0,1,.223,1.557,1,1,0,0,1-1.381.2l-6.232-4.939a1.017,1.017,0,0,1-.174-1.367,1.032,1.032,0,0,1,1.366-.319Z" transform="translate(-110.477 -149.492)" fill="#12263f"/>
          <path id="Trazado_1274272" data-name="Trazado 1274272" d="M208.887,186.166a1,1,0,0,1-1.434-.165,1.044,1.044,0,0,1,.177-1.5l6.243-4.918a1.038,1.038,0,0,1,1.193,1.686Z" transform="translate(-172.627 -149.478)" fill="#12263f"/>
          <path id="Trazado_1274273" data-name="Trazado 1274273" d="M190.393,155.639a1.049,1.049,0,0,1-.96,1.1,1.025,1.025,0,0,1-1.1-1.017l-.006-7.186a1.033,1.033,0,0,1,2.066,0Z" transform="translate(-156.892 -122.897)" fill="#12263f"/>
          <path id="Trazado_1274274" data-name="Trazado 1274274" d="M22.625,285.679a1.154,1.154,0,0,1,1.573.5,1.171,1.171,0,0,1-.616,1.6,1.09,1.09,0,0,1-1.43-.518,1.122,1.122,0,0,1,.473-1.579" transform="translate(-18.326 -237.889)" fill="#12263f"/>
          <path id="Trazado_1274275" data-name="Trazado 1274275" d="M164.824,31.682a5.718,5.718,0,1,1-4.395,6.9,5.688,5.688,0,0,1,4.395-6.9m.834,1.992a3.594,3.594,0,0,0-3.255,4.077,3.624,3.624,0,0,0,7.2-.854,3.594,3.594,0,0,0-3.943-3.224" transform="translate(-133.528 -26.29)" fill="#12263f"/>
          <path id="Trazado_1274276" data-name="Trazado 1274276" d="M303.537,116.595c-.236.232-.122.98-.418,1.165a1.19,1.19,0,0,1-1.214.155,1.173,1.173,0,0,1-.516-1.328,4.2,4.2,0,0,1-3.144-2.791,1.075,1.075,0,0,1,.764-1.44c.718-.156,1.066.384,1.352,1.041.523,1.2,2.11,1.358,3.22.935.473-.181.807-.425.887-.787a1.151,1.151,0,0,0-.517-1.268c-1.147-.754-3.36-.387-4.77-2.073a3.116,3.116,0,0,1-.416-3.261,3.738,3.738,0,0,1,2.6-2.007,1.52,1.52,0,0,1,.33-1.273,1.143,1.143,0,0,1,1.211-.116,1.171,1.171,0,0,1,.48,1.342,4.02,4.02,0,0,1,2.919,2.549,1.066,1.066,0,0,1-.6,1.253c-1.229.551-1.447-1.478-2.607-1.691a2.291,2.291,0,0,0-2.078.39,1.189,1.189,0,0,0-.365,1.247c.455,1.454,4.779.53,5.793,3.621a3,3,0,0,1-.5,2.924,5.447,5.447,0,0,1-2.409,1.412" transform="translate(-248.419 -86.165)" fill="#12263f"/>
        </g>
      </g>
    </g>
  </g>
</svg>
