<svg xmlns="http://www.w3.org/2000/svg" xmlns:xlink="http://www.w3.org/1999/xlink" width="187.711" height="123.275" viewBox="0 0 187.711 123.275">
  <defs>
    <clipPath id="clip-path">
      <rect id="Rectángulo_465369" data-name="Rectángulo 465369" width="90.185" height="95.272" fill="#12263f"/>
    </clipPath>
  </defs>
  <g id="Grupo_1212347" data-name="Grupo 1212347" transform="translate(-290.289 -2612.887)">
    <g id="Grupo_1211166" data-name="Grupo 1211166" transform="translate(6.024 -6249.859)">
      <g id="Grupo_1204518" data-name="Grupo 1204518" transform="translate(289.277 8868.039)">
        <rect id="Rectángulo_455283" data-name="Rectángulo 455283" width="182.698" height="117.983" fill="#3a552a"/>
      </g>
    </g>
    <g id="Grupo_1211167" data-name="Grupo 1211167" transform="translate(1.012 -6255.152)">
      <g id="Grupo_1204518-2" data-name="Grupo 1204518" transform="translate(289.277 8868.039)">
        <rect id="Rectángulo_455283-2" data-name="Rectángulo 455283" width="183.422" height="118.45" fill="#ceffb3"/>
      </g>
    </g>
    <g id="Grupo_1212346" data-name="Grupo 1212346" transform="translate(333.706 2624.476)">
      <g id="Grupo_1212345" data-name="Grupo 1212345" clip-path="url(#clip-path)">
        <path id="Trazado_1273972" data-name="Trazado 1273972" d="M135.747,132.576A11.66,11.66,0,0,0,125.275,121.7l-8.849-.035c-2.983-.012-5.038,2.557-6.077.931-1.025-1.6,1.421-2.484,3.715-3.181a15.984,15.984,0,0,1-3.181-3.157c-2.422-.266-4.708-.036-7.088-.14a10.554,10.554,0,0,0-8.76,3.69,1.4,1.4,0,0,1-1.861.168c-1.908-1.611,2.929-4.929,6.237-6.039a10.866,10.866,0,1,1,15.7-14.518,12.06,12.06,0,0,1,11.422-.021,10.881,10.881,0,1,1,15.7,14.568,13.429,13.429,0,0,1,9.514,14.356c-.1,1.011.24,1.979-.146,3a28.983,28.983,0,0,1-13.223,4.417c-.076.806.238,1.932-.241,2.644A31.63,31.63,0,0,1,119,143.249a1.3,1.3,0,0,1-1.056-1.415,1.428,1.428,0,0,1,1.6-1.16,30.064,30.064,0,0,0,16.194-3.808Zm-22.768-31.7a8.256,8.256,0,0,0-14.273,8.287,8.163,8.163,0,0,0,10.695,3.521,11.93,11.93,0,0,1,3.578-11.808m19.286,11.843a8.24,8.24,0,1,0-3.572-11.809,11.968,11.968,0,0,1,3.572,11.809m-13.435-11.9a9.184,9.184,0,1,0,10.985,7.054,9.143,9.143,0,0,0-10.985-7.054m30.407,28.943-.056-3.811a10.7,10.7,0,0,0-11.753-9.833c-2.28.176-4.477-.2-6.736.186a13.319,13.319,0,0,1-3.094,3.119,14.459,14.459,0,0,1,10.784,13.688,26.761,26.761,0,0,0,10.854-3.348" transform="translate(-70.614 -71.867)" fill="#12263f"/>
        <path id="Trazado_1273973" data-name="Trazado 1273973" d="M10.011,250.7a5.807,5.807,0,0,1-8.082.216c-2.185-1.958-2.716-5.77-.529-7.967l8.1-8.136a2.609,2.609,0,0,1,2.755-.183l2.572-2.482a16.909,16.909,0,1,1,5.506,5.479l-2.486,2.488a2.744,2.744,0,0,1-.39,3.14Zm16.947-41.477A14.254,14.254,0,1,0,43.3,221.27a14.207,14.207,0,0,0-16.342-12.05m-10.89,29.024,2.139-2.217A10.156,10.156,0,0,1,16.4,234.32l-2.161,2.13ZM7.912,249.068l7.63-7.643L10.991,236.9l-7.677,7.681a3.3,3.3,0,0,0,.364,4.374,3.18,3.18,0,0,0,4.235.111" transform="translate(0 -157.174)" fill="#12263f"/>
        <path id="Trazado_1273974" data-name="Trazado 1273974" d="M169.57,111.17a37.389,37.389,0,0,0,21.792-71.36c-.618-.238-.659-1.19-.477-1.6a1.325,1.325,0,0,1,1.555-.766,39.977,39.977,0,0,1-23.647,76.2,1.327,1.327,0,0,1-.759-1.595,1.255,1.255,0,0,1,1.537-.88" transform="translate(-127.912 -28.463)" fill="#12263f"/>
        <path id="Trazado_1273975" data-name="Trazado 1273975" d="M178.223,15.946l-4.716,3.219a1.3,1.3,0,0,1-1.456.046,1.269,1.269,0,0,1-.558-1.362l1.614-5.6-4.4-3.411a1.393,1.393,0,0,1-.538-1.583,1.4,1.4,0,0,1,1.366-.87l5.486-.115L177.139.589a1.268,1.268,0,0,1,2.153.017l2.07,5.642,5.558.143a1.342,1.342,0,0,1,1.337.91,1.406,1.406,0,0,1-.531,1.519l-4.408,3.353,1.566,5.531a1.281,1.281,0,0,1-.368,1.381,1.31,1.31,0,0,1-1.571.1Zm.806-2.64,2.2,1.466-.684-2.5a1.49,1.49,0,0,1,.594-1.7l2.014-1.525c-1.137-.433-2.543.174-3.47-.428-.9-.709-.877-2.218-1.46-3.27-.584.911-.545,2.442-1.5,3.193-.906.711-2.267.274-3.44.44l2.15,1.715c1.193.952-.145,2.314-.2,4.069l2.045-1.373a1.492,1.492,0,0,1,1.752-.084" transform="translate(-127.99 0)" fill="#12263f"/>
        <path id="Trazado_1273976" data-name="Trazado 1273976" d="M46.092,80.995a1.316,1.316,0,0,1-.862,1.6c-.419.141-1.478-.029-1.588-.624a39.9,39.9,0,0,1,24.978-44.48,1.3,1.3,0,0,1,.94,2.415A37.543,37.543,0,0,0,46.092,80.995" transform="translate(-32.72 -28.496)" fill="#12263f"/>
        <path id="Trazado_1273977" data-name="Trazado 1273977" d="M80.367,224.777A12.467,12.467,0,0,1,94.737,235.2a12.532,12.532,0,0,1-24.712,4.181,12.452,12.452,0,0,1,10.342-14.608m.223,2.608a9.921,9.921,0,1,0,11.53,8.03,9.858,9.858,0,0,0-11.53-8.03" transform="translate(-53.164 -171.023)" fill="#12263f"/>
      </g>
    </g>
  </g>
</svg>
