<svg xmlns="http://www.w3.org/2000/svg" xmlns:xlink="http://www.w3.org/1999/xlink" width="84" height="84" viewBox="0 0 84 84">
  <defs>
    <clipPath id="clip-path">
      <rect id="Rectángulo_465331" data-name="Rectángulo 465331" width="56.199" height="56.663" fill="#12263f"/>
    </clipPath>
  </defs>
  <g id="Grupo_1211049" data-name="Grupo 1211049" transform="translate(-705.629 -410)">
    <g id="Grupo_1188476" data-name="Grupo 1188476" transform="translate(2.841 -1273.207)">
      <g id="Grupo_1185067" data-name="Grupo 1185067" transform="translate(719.227 1696)">
        <path id="Trazado_997620" data-name="Trazado 997620" d="M133.124,646.71a15.477,15.477,0,1,0-14.332-.01" transform="translate(-99.168 -604.804)" fill="#3a552a" stroke="#000" stroke-miterlimit="10" stroke-width="2"/>
        <rect id="Rectángulo_454823" data-name="Rectángulo 454823" width="14.333" height="4.288" transform="translate(19.625 41.893)" fill="#3a552a" stroke="#000" stroke-miterlimit="10" stroke-width="2"/>
        <rect id="Rectángulo_454824" data-name="Rectángulo 454824" width="14.333" height="4.288" transform="translate(19.625 46.181)" fill="#3a552a" stroke="#000" stroke-miterlimit="10" stroke-width="2"/>
        <path id="Trazado_997621" data-name="Trazado 997621" d="M135.492,688.628h-6.283a4.025,4.025,0,0,1-4.025-4.025v-.263h14.333v.263A4.025,4.025,0,0,1,135.492,688.628Z" transform="translate(-105.559 -633.871)" fill="#3a552a" stroke="#000" stroke-miterlimit="10" stroke-width="2"/>
        <line id="Línea_3231" data-name="Línea 3231" y1="7.578" transform="translate(26.797)" fill="none" stroke="#000" stroke-miterlimit="10" stroke-width="2"/>
        <line id="Línea_3232" data-name="Línea 3232" x1="4.454" y1="6.13" transform="translate(10.236 5.387)" fill="none" stroke="#000" stroke-miterlimit="10" stroke-width="2"/>
        <line id="Línea_3233" data-name="Línea 3233" x1="7.2" y1="2.336" transform="translate(0 19.477)" fill="none" stroke="#000" stroke-miterlimit="10" stroke-width="2"/>
        <line id="Línea_3234" data-name="Línea 3234" x1="7.2" y2="2.341" transform="translate(0 34.55)" fill="none" stroke="#000" stroke-miterlimit="10" stroke-width="2"/>
        <line id="Línea_3235" data-name="Línea 3235" x1="7.2" y1="2.341" transform="translate(46.398 34.55)" fill="none" stroke="#000" stroke-miterlimit="10" stroke-width="2"/>
        <line id="Línea_3236" data-name="Línea 3236" x1="7.2" y2="2.336" transform="translate(46.398 19.477)" fill="none" stroke="#000" stroke-miterlimit="10" stroke-width="2"/>
        <line id="Línea_3237" data-name="Línea 3237" x1="4.454" y2="6.125" transform="translate(38.91 5.387)" fill="none" stroke="#000" stroke-miterlimit="10" stroke-width="2"/>
        <path id="Trazado_997622" data-name="Trazado 997622" d="M119,638.208a10.647,10.647,0,0,1,4.484-8.693" transform="translate(-102.867 -610.025)" fill="#3a552a" stroke="#000" stroke-miterlimit="10" stroke-width="2"/>
        <line id="Línea_3238" data-name="Línea 3238" y2="8.634" transform="translate(26.797 33.258)" fill="none" stroke="#000" stroke-miterlimit="10" stroke-width="2"/>
        <path id="Trazado_997623" data-name="Trazado 997623" d="M133.157,647.74l2.669,3.47,3-3.47" transform="translate(-109.027 -617.951)" fill="#3a552a" stroke="#000" stroke-miterlimit="10" stroke-width="2"/>
        <path id="Trazado_997624" data-name="Trazado 997624" d="M132.431,691.931a3.07,3.07,0,1,0,6.14,0" transform="translate(-108.711 -637.173)" fill="#3a552a" stroke="#000" stroke-miterlimit="10" stroke-width="2"/>
      </g>
      <rect id="Rectángulo_459857" data-name="Rectángulo 459857" width="81" height="79" transform="translate(705.788 1688.207)" fill="#3a552a"/>
    </g>
    <g id="Grupo_1188599" data-name="Grupo 1188599" transform="translate(0.371 -1278)">
      <g id="Grupo_1185067-2" data-name="Grupo 1185067" transform="translate(718.472 1696)">
        <path id="Trazado_997620-2" data-name="Trazado 997620" d="M133.124,646.71a15.477,15.477,0,1,0-14.332-.01" transform="translate(-99.168 -604.804)" fill="#fff006" stroke="#000" stroke-miterlimit="10" stroke-width="2"/>
        <rect id="Rectángulo_454823-2" data-name="Rectángulo 454823" width="14.333" height="4.288" transform="translate(19.625 41.893)" fill="#fff006" stroke="#000" stroke-miterlimit="10" stroke-width="2"/>
        <rect id="Rectángulo_454824-2" data-name="Rectángulo 454824" width="14.333" height="4.288" transform="translate(19.625 46.181)" fill="#fff006" stroke="#000" stroke-miterlimit="10" stroke-width="2"/>
        <path id="Trazado_997621-2" data-name="Trazado 997621" d="M135.492,688.628h-6.283a4.025,4.025,0,0,1-4.025-4.025v-.263h14.333v.263A4.025,4.025,0,0,1,135.492,688.628Z" transform="translate(-105.559 -633.871)" fill="#fff006" stroke="#000" stroke-miterlimit="10" stroke-width="2"/>
        <line id="Línea_3231-2" data-name="Línea 3231" y1="7.578" transform="translate(26.797)" fill="none" stroke="#000" stroke-miterlimit="10" stroke-width="2"/>
        <line id="Línea_3232-2" data-name="Línea 3232" x1="4.454" y1="6.13" transform="translate(10.236 5.387)" fill="none" stroke="#000" stroke-miterlimit="10" stroke-width="2"/>
        <line id="Línea_3233-2" data-name="Línea 3233" x1="7.2" y1="2.336" transform="translate(0 19.477)" fill="none" stroke="#000" stroke-miterlimit="10" stroke-width="2"/>
        <line id="Línea_3234-2" data-name="Línea 3234" x1="7.2" y2="2.341" transform="translate(0 34.55)" fill="none" stroke="#000" stroke-miterlimit="10" stroke-width="2"/>
        <line id="Línea_3235-2" data-name="Línea 3235" x1="7.2" y1="2.341" transform="translate(46.398 34.55)" fill="none" stroke="#000" stroke-miterlimit="10" stroke-width="2"/>
        <line id="Línea_3236-2" data-name="Línea 3236" x1="7.2" y2="2.336" transform="translate(46.398 19.477)" fill="none" stroke="#000" stroke-miterlimit="10" stroke-width="2"/>
        <line id="Línea_3237-2" data-name="Línea 3237" x1="4.454" y2="6.125" transform="translate(38.91 5.387)" fill="none" stroke="#000" stroke-miterlimit="10" stroke-width="2"/>
        <path id="Trazado_997622-2" data-name="Trazado 997622" d="M119,638.208a10.647,10.647,0,0,1,4.484-8.693" transform="translate(-102.867 -610.025)" fill="#fff006" stroke="#000" stroke-miterlimit="10" stroke-width="2"/>
        <line id="Línea_3238-2" data-name="Línea 3238" y2="8.634" transform="translate(26.797 33.258)" fill="none" stroke="#000" stroke-miterlimit="10" stroke-width="2"/>
        <path id="Trazado_997623-2" data-name="Trazado 997623" d="M133.157,647.74l2.669,3.47,3-3.47" transform="translate(-109.027 -617.951)" fill="#fff006" stroke="#000" stroke-miterlimit="10" stroke-width="2"/>
        <path id="Trazado_997624-2" data-name="Trazado 997624" d="M132.431,691.931a3.07,3.07,0,1,0,6.14,0" transform="translate(-108.711 -637.173)" fill="#fff006" stroke="#000" stroke-miterlimit="10" stroke-width="2"/>
      </g>
      <rect id="Rectángulo_459857-2" data-name="Rectángulo 459857" width="80" height="80" transform="translate(705.258 1688)" fill="#fff006"/>
    </g>
    <g id="Grupo_1212268" data-name="Grupo 1212268" transform="translate(717.529 421.669)">
      <g id="Grupo_1212267" data-name="Grupo 1212267" clip-path="url(#clip-path)">
        <path id="Trazado_1273723" data-name="Trazado 1273723" d="M32.345,43.177a43.961,43.961,0,0,0,13.61.209c.536-.074.92,0,1.112.491A.849.849,0,0,1,46.45,45a45.712,45.712,0,0,1-13.878-.091,3.67,3.67,0,0,1-4.325,3.237A12.175,12.175,0,0,1,16.7,56.662,12.043,12.043,0,0,1,5.226,48.111a3.627,3.627,0,0,1-3.713-1.5A3.484,3.484,0,0,1,1.6,42.561c-.053-6.4,4.358-11.424,10.437-13.575a12.484,12.484,0,0,1-5.823-5.261c-.27,1.962-.193,4.129-1.944,3.976a1.588,1.588,0,0,1-1.388-1.4A44.368,44.368,0,0,1,1.635,14.591a14.379,14.379,0,0,1,.563-2.9A6.755,6.755,0,0,1,.468,4.23a.843.843,0,0,1,1.056-.545A.807.807,0,0,1,2.031,4.8,5.031,5.031,0,0,0,2.9,10.011a15.537,15.537,0,0,1,7.26-7,5.1,5.1,0,0,0-5.95-.72.845.845,0,0,1-1.093-.33c-.887-1.573,4.81-3.571,8.76.215,3-.691,6.652-1,9.741.1a6.882,6.882,0,0,1,9.809-.431,6.747,6.747,0,0,1-.141,9.859,14.908,14.908,0,0,1,.622,3.392c7.607-4.808,16.879-2.458,21.7,4.841a12.769,12.769,0,0,1,1.9,6.9,3.552,3.552,0,0,1-.72,4.959,37.8,37.8,0,0,0,0,5.564,21.372,21.372,0,0,0,.7,3.562c.089.366-.328.688-.559.891a12.2,12.2,0,0,1-4.3,2.222c-.361.123-.7.235-1.015-.025a.925.925,0,0,1-.345-.845c.06-.373.367-.574.787-.7a10.609,10.609,0,0,0,3.625-1.779l-.342-1.625a26.919,26.919,0,0,1-.269-6.5l-1.234-.108a12.02,12.02,0,0,1-19.9,5.111l-.036,4.774a1.237,1.237,0,0,0,.459.83M30.606,10.011a5.045,5.045,0,0,0-7.261-6.985,15.44,15.44,0,0,1,7.261,6.985M16.8,9.669a8.413,8.413,0,0,1,5.228-.78,7.882,7.882,0,0,1,6.107,5.938,23.924,23.924,0,0,1,.4,3.194l1.673-1.65a11.549,11.549,0,0,0-3.19-8.65,13.875,13.875,0,0,0-20.725.2,11.147,11.147,0,0,0-2.971,6.937A38.1,38.1,0,0,0,4.34,25.122c.4-2.843.5-5.636.732-8.5A8.789,8.789,0,0,1,7.24,11.281C9.832,8.5,13.271,8.115,16.8,9.669m6.183,1.255a6.464,6.464,0,0,0-5.684.352,1.09,1.09,0,0,1-1.167-.032,6.558,6.558,0,0,0-5.3-.455A6.342,6.342,0,0,0,6.85,15.977,14.575,14.575,0,0,0,6.6,19.8a10.13,10.13,0,0,0,8.3,8.279,10.169,10.169,0,0,0,10.833-5.2,16.516,16.516,0,0,0,1.13-2.668c.206-3.754-.256-7.641-3.878-9.28M41.266,21.076a7.234,7.234,0,0,1,3.558-.273,8.659,8.659,0,0,1,7.126,5.315l1.875.118c-.284-6.351-6.13-11.354-12.257-11.918a13.83,13.83,0,0,0-13.181,6.76,12.328,12.328,0,0,0-1.512,6.246L26.8,31.956a17.243,17.243,0,0,1,3.415,4.038,6.435,6.435,0,0,1,1.19-3.825c2.735-4.032,8.646-6.378,9.866-11.093M31.933,35.025a10.338,10.338,0,0,0,18.545-7.988,5.113,5.113,0,0,0-1.348-2.329,7.731,7.731,0,0,0-6.507-2.283c-1.092,2.757-3.223,4.5-5.413,6.361-2.052,1.739-4.691,3.657-5.278,6.24m-6.79-4.258A38.193,38.193,0,0,0,25.2,26.4a12.6,12.6,0,0,1-3.805,2.565,20.162,20.162,0,0,1,3.75,1.8m29.014-2.714c-.526-.3-1.29-.068-1.85-.2A17.425,17.425,0,0,1,52.22,30.8a1.9,1.9,0,0,0,2.015-.809c.335-.467.557-1.577-.078-1.935M12.939,39.736c.035,1.332,3.259.268,4.567-2.59a.987.987,0,0,1,.823-.627,9.052,9.052,0,0,1,9.985,5.2,5.743,5.743,0,0,0,1.916.2c-.327-6.175-5.788-11.085-11.769-11.87A13.829,13.829,0,0,0,5.109,36.2a11.015,11.015,0,0,0-1.83,5.724L5.13,41.74c.57-1.468,1.752-3.5,2.813-2.98.594.292.236,1.193.675,1.462.6.37,2.031-.333,2.885-1.153a.846.846,0,0,1,1.437.667M7.2,41.222a5.472,5.472,0,0,0-.59,1.31,10.327,10.327,0,1,0,20.24.159,5.463,5.463,0,0,0-1.907-2.856,7.737,7.737,0,0,0-6.038-1.714c-1.422,2.65-5.061,5.324-7.269,2.947-1.474.971-3.205,1.42-4.436.153M4.851,46.444a11.438,11.438,0,0,1-.1-3L2.91,43.68a1.655,1.655,0,0,0,.024,2.059,1.843,1.843,0,0,0,1.916.706M30.614,43.6a9.23,9.23,0,0,1-1.932-.112,11.927,11.927,0,0,1-.076,2.954,1.893,1.893,0,0,0,2.017-.8,1.845,1.845,0,0,0-.009-2.042" transform="translate(0 0)" fill="#12263f"/>
        <path id="Trazado_1273724" data-name="Trazado 1273724" d="M101.339,134.693c1.341,1.472,2.321-.86,3.236-.194a.81.81,0,0,1,.228,1.164,3.092,3.092,0,0,1-4.845-.012.84.84,0,0,1,.282-1.187.891.891,0,0,1,1.1.229" transform="translate(-85.673 -115.327)" fill="#12263f"/>
        <path id="Trazado_1273725" data-name="Trazado 1273725" d="M67.241,127.731a.907.907,0,0,1-.8.961.806.806,0,0,1-.881-.783l-.01-1.244a.812.812,0,0,1,.756-.871.836.836,0,0,1,.923.86Z" transform="translate(-56.266 -107.971)" fill="#12263f"/>
        <path id="Trazado_1273726" data-name="Trazado 1273726" d="M160.3,127.748a.869.869,0,0,1-.806.969.805.805,0,0,1-.873-.788l-.011-1.239a.818.818,0,0,1,.759-.866.831.831,0,0,1,.923.851Z" transform="translate(-136.136 -107.996)" fill="#12263f"/>
        <path id="Trazado_1273727" data-name="Trazado 1273727" d="M103.4,323.614a.907.907,0,0,1,1.22-.232.8.8,0,0,1,.208,1.174,3.091,3.091,0,0,1-2.412,1.141,3.028,3.028,0,0,1-2.451-1.251.822.822,0,0,1,.306-1.1.9.9,0,0,1,1.117.227,1.368,1.368,0,0,0,2.012.044" transform="translate(-85.707 -277.44)" fill="#12263f"/>
        <path id="Trazado_1273728" data-name="Trazado 1273728" d="M67.22,316.642a.876.876,0,0,1-.8.942.827.827,0,0,1-.892-.887v-1.117a.829.829,0,0,1,.759-.883.846.846,0,0,1,.927.871Z" transform="translate(-56.247 -270.111)" fill="#12263f"/>
        <path id="Trazado_1273729" data-name="Trazado 1273729" d="M160.285,316.65a.874.874,0,0,1-.807.941.818.818,0,0,1-.884-.887V315.59a.823.823,0,0,1,.752-.884.848.848,0,0,1,.936.869Z" transform="translate(-136.125 -270.119)" fill="#12263f"/>
        <path id="Trazado_1273730" data-name="Trazado 1273730" d="M268.159,213.036c1.341,1.388,2.247-.736,3.24-.212a.8.8,0,0,1,.314,1.031,2.93,2.93,0,0,1-2.2,1.3,3.063,3.063,0,0,1-2.6-1.02.85.85,0,0,1-.017-1.2.879.879,0,0,1,1.258.1" transform="translate(-228.884 -182.579)" fill="#12263f"/>
        <path id="Trazado_1273731" data-name="Trazado 1273731" d="M327.071,204.509c.323,1.08.192,2.515-.769,2.5a.742.742,0,0,1-.753-.694l.012-1.654c0-.346.4-.5.641-.544.3-.056.757.016.869.392" transform="translate(-279.428 -175.185)" fill="#12263f"/>
      </g>
    </g>
  </g>
</svg>
