<svg xmlns="http://www.w3.org/2000/svg" xmlns:xlink="http://www.w3.org/1999/xlink" width="128" height="128" viewBox="0 0 128 128">
  <defs>
    <clipPath id="clip-path">
      <rect id="Rectángulo_459906" data-name="Rectángulo 459906" width="128" height="128" fill="#3a552a"/>
    </clipPath>
    <clipPath id="clip-path-2">
      <rect id="Rectángulo_465343" data-name="Rectángulo 465343" width="77.641" height="77.468" fill="#12263f"/>
    </clipPath>
  </defs>
  <g id="Grupo_1212473" data-name="Grupo 1212473" transform="translate(-1203.971 -1090.03)">
    <g id="Grupo_1211091" data-name="Grupo 1211091" transform="translate(1203.971 1090.03)">
      <path id="Trazado_1033103" data-name="Trazado 1033103" d="M0,0H120.533V121.288H0Z" transform="translate(3.14 3.728)" fill="#fff"/>
      <g id="Grupo_1188546" data-name="Grupo 1188546" transform="translate(0 0)">
        <g id="Grupo_1188545" data-name="Grupo 1188545" clip-path="url(#clip-path)">
          <path id="Trazado_1033022" data-name="Trazado 1033022" d="M114.171,108.148c-.041.728.423.467.506.576-.1-1.218-.627-.545-.506-.576" transform="translate(12.252 16.214)" fill="#3a552a"/>
          <path id="Trazado_1033023" data-name="Trazado 1033023" d="M113.244,97.888l.189.214-.464-1.772Z" transform="translate(12.125 14.464)" fill="#3a552a"/>
          <path id="Trazado_1033024" data-name="Trazado 1033024" d="M113.258,87.92c-.791,1.062.127,4.069-.154,6.07l-.179.33.636.9c-.1-2.433-.523-5.591-.3-7.3" transform="translate(12.121 13.201)" fill="#3a552a"/>
          <path id="Trazado_1033025" data-name="Trazado 1033025" d="M114.792,82.736c-.308.369-.265-1.3-.1,1.4.033-.136.053-.176.078-.254,0-.242,0-.575.019-1.143" transform="translate(12.297 12.396)" fill="#3a552a"/>
          <path id="Trazado_1033026" data-name="Trazado 1033026" d="M114.753,83.731c.022,1.182.258-.774,0,0" transform="translate(12.317 12.544)" fill="#3a552a"/>
          <path id="Trazado_1033027" data-name="Trazado 1033027" d="M114.594,79.057l.275,1.558c.182-.326.223-1.713.354-1.2-.149-1.6-.33-1.27-.629-.361" transform="translate(12.3 11.756)" fill="#3a552a"/>
          <path id="Trazado_1033028" data-name="Trazado 1033028" d="M114.073,77.674l.116.807c.076-.141.1-.354-.116-.807" transform="translate(12.244 11.663)" fill="#3a552a"/>
          <path id="Trazado_1033029" data-name="Trazado 1033029" d="M114.441,80.087l-.246-1.711c-.127.225-.383.25.089.786-.234-.14-.009.2.157.926" transform="translate(12.237 11.768)" fill="#3a552a"/>
          <path id="Trazado_1033030" data-name="Trazado 1033030" d="M114.345,80.707c-.172.874-.28,2-.554.439.109,2.981.664,2.542.554-.439" transform="translate(12.214 12.118)" fill="#3a552a"/>
          <path id="Trazado_1033031" data-name="Trazado 1033031" d="M112.509,87.421l-.231,1.17.265,1.01c-.131-.5.215-2.251-.033-2.18" transform="translate(12.051 13.126)" fill="#3a552a"/>
          <path id="Trazado_1033032" data-name="Trazado 1033032" d="M115.027,70.52c-.168-.1-.448.524-.663.641l.193,1.151c.115-.592.221-1.714.471-1.792" transform="translate(12.275 10.587)" fill="#3a552a"/>
          <path id="Trazado_1033033" data-name="Trazado 1033033" d="M114.393,71.3l-.289-1.722c-.034,1.538.1,1.82.289,1.722" transform="translate(12.247 10.447)" fill="#3a552a"/>
          <path id="Trazado_1033034" data-name="Trazado 1033034" d="M113.281,77.5l.607,2.828-.615-3.375Z" transform="translate(12.158 11.555)" fill="#3a552a"/>
          <path id="Trazado_1033035" data-name="Trazado 1033035" d="M115,64.9l.39.976L114.8,64.14Z" transform="translate(12.322 9.63)" fill="#3a552a"/>
          <path id="Trazado_1033036" data-name="Trazado 1033036" d="M114.921,61.445c.322.722.546-.99.744-.227a13.947,13.947,0,0,0-.584-3.108,9.65,9.65,0,0,1-.161,3.334" transform="translate(12.335 8.725)" fill="#3a552a"/>
          <path id="Trazado_1033037" data-name="Trazado 1033037" d="M114.738,56.781a15.361,15.361,0,0,0,.363,1.529,7.894,7.894,0,0,0-.363-1.529" transform="translate(12.315 8.526)" fill="#3a552a"/>
          <path id="Trazado_1033038" data-name="Trazado 1033038" d="M114.179,67.206a2.212,2.212,0,0,0,.481-1.356l-.474.677c0,.207,0,.44-.007.679" transform="translate(12.255 9.887)" fill="#3a552a"/>
          <path id="Trazado_1033039" data-name="Trazado 1033039" d="M114.171,66.654l.016-.023c.013-.735.022-1.246.027-1.463-.006.187-.019.635-.042,1.486" transform="translate(12.254 9.785)" fill="#3a552a"/>
          <path id="Trazado_1033040" data-name="Trazado 1033040" d="M114.181,67.2c0-.063,0-.109,0-.17-.047.064-.062.1,0,.17" transform="translate(12.251 10.064)" fill="#3a552a"/>
          <path id="Trazado_1033041" data-name="Trazado 1033041" d="M113.759,73.761c-.265-1.012-.548-3.122-.951-1.079.323.725.554-.443.951,1.079" transform="translate(12.108 10.784)" fill="#3a552a"/>
          <path id="Trazado_1033042" data-name="Trazado 1033042" d="M113.654,67.909l-.109,1.829c.125-.036.308-.367.439.135Z" transform="translate(12.187 10.196)" fill="#3a552a"/>
          <path id="Trazado_1033043" data-name="Trazado 1033043" d="M113.507,67.13l.151.9.04-.679Z" transform="translate(12.183 10.079)" fill="#3a552a"/>
          <path id="Trazado_1033044" data-name="Trazado 1033044" d="M114.377,59.848a12.193,12.193,0,0,1-.256-2.63c-.093,1.045-.144,2.128-.143,3.155.148.145.415.6.4-.524" transform="translate(12.234 8.591)" fill="#3a552a"/>
          <path id="Trazado_1033045" data-name="Trazado 1033045" d="M114.226,62.908c-.009-.055-.019-.124-.027-.175-.041.107-.053.194.027.175" transform="translate(12.254 9.419)" fill="#3a552a"/>
          <path id="Trazado_1033046" data-name="Trazado 1033046" d="M114.118,48.862l-.086.154.082.036Z" transform="translate(12.239 7.337)" fill="#3a552a"/>
          <path id="Trazado_1033047" data-name="Trazado 1033047" d="M113.9,60.141a3.591,3.591,0,0,0,.171,1.7c-.048-.587-.079-1.21-.082-1.878-.068-.066-.112-.078-.089.175" transform="translate(12.222 8.998)" fill="#3a552a"/>
          <path id="Trazado_1033048" data-name="Trazado 1033048" d="M114.564,54.449c-.1.409-.183.875-.26,1.363.149-.4.383-1.218.26-1.363" transform="translate(12.269 8.175)" fill="#3a552a"/>
          <path id="Trazado_1033049" data-name="Trazado 1033049" d="M114.313,62.512c.007.039.013.075.021.117.1-.258.052-.225-.021-.117" transform="translate(12.27 9.374)" fill="#3a552a"/>
          <path id="Trazado_1033050" data-name="Trazado 1033050" d="M114.341,62.638a6.824,6.824,0,0,0-.289-1.043c.038.48.089.922.158,1.308a1.2,1.2,0,0,1,.131-.265" transform="translate(12.242 9.248)" fill="#3a552a"/>
          <path id="Trazado_1033051" data-name="Trazado 1033051" d="M111.367,46.592c.439.139.844,2.207.373,3.992.329,1.755,1.772.607,2.579-.926-.192-.055-.369-.055-.628-1.862-.239.634-.56,4.011-.957,2.485-.226-2.393.155-1.961.388-3.125-.547.989-.8-3.046-1.6-2.525l.282,2.1c-.125.039-.324-.722-.439-.139" transform="translate(11.953 6.694)" fill="#3a552a"/>
          <path id="Trazado_1033052" data-name="Trazado 1033052" d="M113.992,52.435l.054.743a11.551,11.551,0,0,1,.6-2.572c-.215-1.238-.378-1.494-.524-1.579l-.061,3.662Z" transform="translate(12.235 7.361)" fill="#3a552a"/>
          <path id="Trazado_1033053" data-name="Trazado 1033053" d="M114.159,55.976c-.478-.581-.681-2.367-1.2-1.273.032,2.183.4,1.53.6,2.833-.118-3.522.267,1.012.537-1.533.081.692.106,1.315.125,1.9.06-.635.132-1.246.218-1.822-.01.031-.02.054-.03.081l0,.017-.008,0c-.06.152-.094.2-.061.03,0-.013-.007-.055-.01-.072a.466.466,0,0,1-.178-.16c.1-1.02.123-.161.178.16.024.01.047.038.071.043l.006-.014-.26-3.528a29.4,29.4,0,0,0,0,3.339" transform="translate(12.125 7.903)" fill="#3a552a"/>
          <path id="Trazado_1033054" data-name="Trazado 1033054" d="M111.881,70.972c.042-.109.076-.1.111-.113-.059-.228-.1-.314-.111.113" transform="translate(12.009 10.611)" fill="#3a552a"/>
          <path id="Trazado_1033055" data-name="Trazado 1033055" d="M112.158,69.9a2.611,2.611,0,0,1,.208,1.3c-.143.723-.229,0-.385.035.126.5.342,1.759.574.183l-.064-.248a7.921,7.921,0,0,1,.824-3,4.708,4.708,0,0,0-1.156,1.725" transform="translate(12.019 10.233)" fill="#3a552a"/>
          <path id="Trazado_1033056" data-name="Trazado 1033056" d="M113.045,62.9l-.234-2.939-.413,1.5.248-.075c-.1,1.67.208,1.309.4,1.517" transform="translate(12.064 9.003)" fill="#3a552a"/>
          <path id="Trazado_1033057" data-name="Trazado 1033057" d="M114.344,48.74l.5.39-.711-1.7Z" transform="translate(12.251 7.122)" fill="#3a552a"/>
          <path id="Trazado_1033058" data-name="Trazado 1033058" d="M114.27,45.363l.438.141-.265-1.008Z" transform="translate(12.265 6.681)" fill="#3a552a"/>
          <path id="Trazado_1033059" data-name="Trazado 1033059" d="M5.177,39.782l.124.864a6.583,6.583,0,0,0-.124-.864" transform="translate(0.556 5.973)" fill="#3a552a"/>
          <path id="Trazado_1033060" data-name="Trazado 1033060" d="M5.225,34.369l-.216-.153c.12.29.207.408.216.153" transform="translate(0.538 5.137)" fill="#3a552a"/>
          <path id="Trazado_1033061" data-name="Trazado 1033061" d="M72.372.934C71.161.509,69.809-.15,69.955.361l.372.5a6.632,6.632,0,0,1,2.045.074" transform="translate(7.507 0.026)" fill="#3a552a"/>
          <path id="Trazado_1033062" data-name="Trazado 1033062" d="M16.3,3.467l.354.152c.293-.173.569-.332.817-.477L16.3,3.467" transform="translate(1.75 0.472)" fill="#3a552a"/>
          <path id="Trazado_1033063" data-name="Trazado 1033063" d="M15.688,5.262l-1.6-.321a10.47,10.47,0,0,0,1.6.321" transform="translate(1.513 0.742)" fill="#3a552a"/>
          <path id="Trazado_1033064" data-name="Trazado 1033064" d="M5.637,69.465l.489,1.008c0-1.576-.249-.883-.489-1.008" transform="translate(0.605 10.423)" fill="#3a552a"/>
          <path id="Trazado_1033065" data-name="Trazado 1033065" d="M114.126,11.607a19.139,19.139,0,0,0,.29-2.707c-.276,1.307-.69,2.361-.29,2.707" transform="translate(12.232 1.336)" fill="#3a552a"/>
          <path id="Trazado_1033066" data-name="Trazado 1033066" d="M.573,37.647c.087.528.185.753.292.738-.083-.544-.175-.852-.292-.738" transform="translate(0.062 5.649)" fill="#3a552a"/>
          <path id="Trazado_1033067" data-name="Trazado 1033067" d="M114.381,5.485c-.038.331-.074.648-.113.982.032.523.064,1.047.1,1.6.023.42.032.861.016,1.346a8.574,8.574,0,0,0,.2-1.53c0-.132,0-.267,0-.4l-.032-.66a11.065,11.065,0,0,0-.169-1.336" transform="translate(12.265 0.824)" fill="#3a552a"/>
          <path id="Trazado_1033068" data-name="Trazado 1033068" d="M71.262,106.153c.087.023.193.032.27.06.028-.068-.094-.071-.27-.06" transform="translate(7.649 15.938)" fill="#3a552a"/>
          <path id="Trazado_1033069" data-name="Trazado 1033069" d="M102.756,110.53c-.341.031-.9.031-1.425.038a7.007,7.007,0,0,0,1.425-.038" transform="translate(10.876 16.596)" fill="#3a552a"/>
          <path id="Trazado_1033070" data-name="Trazado 1033070" d="M114.459,31.894c.031.81.053.128,0,0" transform="translate(12.285 4.789)" fill="#3a552a"/>
          <path id="Trazado_1033071" data-name="Trazado 1033071" d="M112.766,35.36c-.054-.171-.123-.3-.234-.323a.528.528,0,0,1,.234.323" transform="translate(12.078 5.261)" fill="#3a552a"/>
          <path id="Trazado_1033072" data-name="Trazado 1033072" d="M107.579,3.39l-.068,0c.231.1.192.079.068,0" transform="translate(11.54 0.509)" fill="#3a552a"/>
          <path id="Trazado_1033073" data-name="Trazado 1033073" d="M114.262,33.089c.059-.3.109-.654.143-1.035-.038.167-.084.482-.143,1.035" transform="translate(12.264 4.813)" fill="#3a552a"/>
          <path id="Trazado_1033074" data-name="Trazado 1033074" d="M114.472,32.811c-.019.278-.033.5-.047.707.08.1.131.011.047-.707" transform="translate(12.282 4.927)" fill="#3a552a"/>
          <path id="Trazado_1033075" data-name="Trazado 1033075" d="M114.441,30.914a13.107,13.107,0,0,1-.05,1.311c.032-.16.06-.227.075-.184-.006-.237-.012-.573-.025-1.127" transform="translate(12.278 4.642)" fill="#3a552a"/>
          <path id="Trazado_1033076" data-name="Trazado 1033076" d="M13.594,107.326c.052.016.112.025.167.047.786-.207.441-.174-.167-.047" transform="translate(1.459 16.1)" fill="#3a552a"/>
          <path id="Trazado_1033077" data-name="Trazado 1033077" d="M53.815,5.345c.037-.006.056-.018.09-.024L53.79,5.3Z" transform="translate(5.773 0.796)" fill="#3a552a"/>
          <path id="Trazado_1033078" data-name="Trazado 1033078" d="M51.285,5.9a3.824,3.824,0,0,1,2.774-.413l-.926-1.439Z" transform="translate(5.505 0.609)" fill="#3a552a"/>
          <path id="Trazado_1033079" data-name="Trazado 1033079" d="M5.871,60.721,6.3,58.678c.711,2.466.466,4.249,1.073,2.33-1.5-.288-.154-7.937-1.657-8.221l.317-1.347c-.016.386.073.449.059.829.72-2.619-1.087-1.946-.874-5.318.115-1.177.333-2,.513-1.195l-.372-2.62c.029-.763.29-.576.261.184l-.121-4,.045.03A23.564,23.564,0,0,1,4.79,36.86c.216-1.014.159.511.347.25L4.773,34.9c.39-.9.768.933.712,2.46,1.5-2.066-.378-1.836.5-6.295l.19,2.09c.853-1.347.544-2.978,1.076-5.34-.278.56-1.341,4.728-1.715,2.329A7,7,0,0,0,5.4,27.276c.535-.01.4-1.276.373-2.858l.708.108c-.2-1.713-.565-1.576-.884-2.583.07-1.908.619-2.3,1.081-2.751.113-3.054-.879,2.108-1.013-1.507a27.387,27.387,0,0,0-.442-7.362c.244-1.778.433.312.636-.327L5.293,8.421c.008-.216.054-.2.111-.209a.563.563,0,0,1,.165.033.765.765,0,0,0-.461-.435c-.174-.1-.344-.253-.44-.965-.342-.329-.165-.893.066-1.325.574.155,1.127.332,1.566.407a1.9,1.9,0,0,0,.616.018A1.34,1.34,0,0,0,7.2,5.868,3.026,3.026,0,0,1,7.6,5.715c.613.209-.3.451-.109.736A34.243,34.243,0,0,0,13.217,5.2l2.387.483c-1.754-.553.487-1.207,2.449-1.744-.622-.267-1.154-.5-1.51-.611l3.133-.4c.379.122.063.373-.451.681.214-.061.416-.121.575-.176,1.12.271.539.7-.264,1.108l-1.128-.454c-.774.447-1.5.942-1.337,1.372a4.158,4.158,0,0,1,1.028-.2c-.2.121-.332.229-.238.3s.433-.085.945-.273l.713.82.173-.325,4.1.513c2.932-.826,5.482-2.04,10.137-2.379-1.154.6-.247.981-.31,1.693-1.27-.753-3.605.322-6.017.169,1.259.078.982.418.662.537l4.3-.687c-.1.583.914.437,2.037.677-.849-1.151,3.207-.766,4.956-1.12.109.388-.31.782-2.446.689,2.356.867,3.044-1.353,5.357-.615-.52.008-.8-.051-1.008.146,1.217-.344,4.2-.072,3.495.265l-.52.009c3.462.136,10.538.008,11.056-.971a4.147,4.147,0,0,1-.663,1.377L61.005,2.8c-.545.84,1.544,2.841-1.327,3.316a10.27,10.27,0,0,0,3.582-.038c-.564-.12-1.4-1.215-.635-1.292,2.111.936,1.465.5,4.065,1.3-.843-.179.094-1.5,1.425-1.455-.208.2.112,1.3-.375,1.438l3.315-1.294c-.828.233-.146,1.1.6,1.462-.344-.253,2.866.024,3.749-.1l-1.4-.3c3.743.2,3.7-1.82,7.41-1.752-.45.268-1.111,1.645.778,1.808.865-.664,3.831-3.187,7.118-3.7l.63.378,2.52-.431a55.036,55.036,0,0,1-8.379,3.911c1.4.3.39.446,2.487.412.741.354-1.144.538-1.761.559l4.884.229c-.217-.773,3.735-.775,3.549-1.419l-5.305.8C87.715,5.861,91,4.438,94.458,4.575c.88.308-.658,1.376-.586,1.633a9.956,9.956,0,0,1,3.6-.319L96.006,6.3c1.927.291,3.144-1.025,5.459-.288.8.049,2.386,1,2.525.539-1.3-.883-1.558-3.613-.69-4.275a43.35,43.35,0,0,1,5.108,1.279c1.317.692-1.975,1.649-.855,2.243.049-.21.775-.472,1.079-.554.839.179-.348.653,1.475.558.3-.783,3.71.067.863-.662,1.784-.223,1.9.161,3.99.128-.666-.507,1.881-1.725,3.669-1.948-.106.2.3.459.491.577,1.818.036,3.126.143,4.305.24-.1,1.437-.182,2.68-.185,4.275-.183.327-.4,2.035-.73,1.308a6.357,6.357,0,0,1,.409,2.069c-.653,2.114-.1-2.435-.886-.824.439.138.6,2.826.879,4.381.678-.478.13-3.6-.144-5.153.935-.007,1.913,2.705,2.345,6.406.231,2.942-.6,1.276-.472,1.786-.163,5.524,1.632,4.708.958,9.3-.6,1.821-1.185.082-1.613.487-.226-2.4.378-3.68.353-5.3l-.281,2a9.386,9.386,0,0,1-.176-3.234c-.535,1.526-.1,9.335-.6,13.6.2.758.405,2.066.646,1.447l-.083-1.349c.479-1.24.663,2.538.888.832a20.275,20.275,0,0,1,.6,6.384l-.679.478a4.089,4.089,0,0,0,.2-2.381c.3,1.062-.919,3.906-.031,5.07l.471-1.786c.341,1.817,1.062,4.062.848,6.32.67-1.028-.076-.52.708-2.125-.976,1.391.041-5.774-.984-3.541.91-1.645.386-2.848,1.163-5-.225.067-.429.763-.318-1.133a2.119,2.119,0,0,1-.2-.415c.008-.059.011-.078.017-.128-.009.037-.017.066-.025.1-.034-.082-.041-.089-.01.04a2.682,2.682,0,0,1-.34.964c-.515-.94-.5-3.954-.764-4.972.106-1.125.257.469.495-.144l-.4-1.523c.5-.151.826-2.988,1.117-.338l.022-2.384a14.333,14.333,0,0,0,.18-4.526c.109-1.124-.55-2.841-.161-1.861l-.308-3.739.124-.035c.031-1.845-.175-3.744-.276-5.708-.051-.983-.075-1.982-.031-3q.032-.761.122-1.538.056-.388.111-.78l.033-.2.037-.319.079-.658c-.109-1.784-.239-3.462-.179-6.194l-1.136-.044c.012,0-.3-.446-.314-.446-1.372.077-3.274-.035-5.108-.107l-.9-.044c-.239-.01-.464-.015-.667-.008a1.789,1.789,0,0,0-.886.177c-1.657-1.2-7.451-.262-10.152-.476l-.1.584a49.238,49.238,0,0,0-5.949.367l.142.515c-1.989.423-5.114-.368-8.26-.314.214-.2,1.011-.146,1.577-.026-3.761-1.165-7.932.847-11.341,0a4.483,4.483,0,0,1-2.06-.006,1.015,1.015,0,0,0,.21-.026l-.349-.007c-.375-.089-.762-.192-1.18-.275a6.057,6.057,0,0,0,.993.277,24.167,24.167,0,0,0-2.623.2L77.833.887,77.609.9c-.956-.2-.768.262-.259.677a7.76,7.76,0,0,0-1.288.336c-.776-.895-2.555.3-3.614-.653-.657.465-4.9.35-5.417,1.328-.032-.128-.32-.189.207-.2a8.566,8.566,0,0,0-3.146.053l-.461-.7-2.372.947c-1.44-.429-2.036-.679-.607-1.219-3.453.833-2.8.313-5.738,1.139l.143-.455c-1.05.017-2.728.628-3.362.251-2.349-.865-11.62-.118-17.649-.922,1.169,1.341-2.8-.6-3.041.437-.351-.316-1.191-.5-.216-.772-3.076.312-4.621-.5-6.746.375-.352-.32.659-.466.345-.654-.247.069-.978.277-1.3.087s.451-.267.938-.4C20.887.6,20.569,1.58,20.34,2.5a4.116,4.116,0,0,0-3.537.229c-.555-.3-1.479-.614.473-.721-1.1-.044-6.712-.441-6.823.294a4.127,4.127,0,0,0-1.825.031L5.6,2.268c-.9-.014-1.8-.013-3.4.023l.989.12a1.168,1.168,0,0,1-1,.455c.041.93-.212,1.883-.145,3.575l-.087-.1c-.078.711-.131,1.315-.166,1.813-.035.435-.053.692-.06.943a5.592,5.592,0,0,0,.054.973,10.51,10.51,0,0,1-.237,3.273l.532-.25c1.143.427-.673,4.062-.237,6.724l.3-.962c.391,1.454-1.554,4.062-1.7,5.523-.1.317-.159-.5-.233-.947-.674,3.821.7.495.857,3.342C.689,27.3.11,26.093.04,28.011c-.3.955,1.218,5.559.5,8.173.289-.576.578-1.149.8.175.1,2.027-1.093,5.479-.182,7.311-.079.258-.155.355-.227.366.236,1.549.391,5.037.886,5.969-1.835,1.432.891,9.634-.8,9.6L1.1,64.37l-.173-.124a11.091,11.091,0,0,0,.7,5.2c-.115.705-.274.19-.362.132C.926,74.026,1,74.469,1.84,78.2l-.548.389c.319,1.01-.862,6.435-.22,10.8-.063-.044-.169-.133-.247-.481.644,4.913-1.523,11.761.477,13.561l.492,3.242c.156-4.195.868.625,1.2-1.1.117,1.649-.6,4.265-.705,2.237l.1-.317c-1.042-.744-.37,5.212-1.08,5.1.029,4.758-.131,7.967-.288,15.467l7.288.19c1.721.053,3.425.092,5.115.1l-.857-.841,2.6.048c.681.2.915.658-.938.623.974.476,3.107-.4,3.159-.582,3.625.34-1.416.98-.3,1l1.509-.063-.34-.1a7.6,7.6,0,0,1,3.559-.667c1.409.169.723.519,1.277.552,0,.06.183.087.85.023l3.27.072L25.9,126.8c1.451-.328,3.078.035,1.569-.718,2.214,1.159,12.2.416,13.559.776a24.927,24.927,0,0,1,6.519-.418c-.617-.138-.986-.884,1.155-.792-.782,1.54,3.921.668,5.653,1.777-1.546-.735,6.086-.183,3.66-1.226,1.786.125.107.576,1.466.941,4.253-.6,9.37.386,14.63.186.082-.2-.8-.513.329-.813l2.776,1.01c1.038-.1.956-1.166,2.85-.465-.267-.17-.668-.427.03-.492,10.3.987,21.044-.806,31.5,1.045-1.415-.391-.474-.43.61-.445-.7-.094.013-.5-.123-.774l4.378.761c.8-.76,4.694-.052,5.151-.779l-1.385.131c1.843-.858-2.582-1.908-2.312-3.01-2.064.975-5.444-1.446-8.832-.048-.746-.225.64-.355.237-.611-.857.472-1.894.57-3.816.359l.217-.117c-5.4.116-7.715-.35-13.779-.66l.447.545a8.649,8.649,0,0,1-2.185-.38c-1.5.825,3.658.046,2.294.957-1.729-1.109-9.189-.017-10.358-1.277-2-.007.588.63-1.417.622l-.53-.34-.507.439c-1.312-.071-1.977-.5-2.026-.787a9.235,9.235,0,0,0,1.248-.106c-1.705-.4-4.806.137-5.391.006l1.925.21c-5.469.32-12.151-.129-17.437.565l.4.256c-4.036.475-3.233-.282-7.667-.062l.162-.061a11.426,11.426,0,0,1-3.285.355c1.121-.3-2.1-.585-.636-.919-4.378.512-2.167.4-5.057,1.357l-.668-.427a6.76,6.76,0,0,1-3.279.7c1.815-.366-1.414-.65.619-1.134-4.644-.932-6.9.941-9.029-.422-2.132,1.18,4.02.656,2.826.907,1,.386-1.761.883-3.22.764-1.481-.025-2.521-1.509-6.255-1.487.373.006.4-.083.768-.078-1.4-.3-2.737.407-4.45-.082-.961.714-2.226-.041-2.5.87l3.424-.21c-1.942.238-3.762,1.3-6.96.786a7.54,7.54,0,0,1,1.854-.559c-.935-.268-1.8.177-2.769-.1.277-.911,4.161-.2,6.24-.893-1-.384-3.932.66-2.888-.328-1.5,1.255-3.677-.158-6.205.8l.167-.546a8.44,8.44,0,0,1-1.966.329l1.333-.707a4.7,4.7,0,0,1-1.5.178,1.063,1.063,0,0,1-.551-.17c-.293-.164-.361-.366-.767-.215l-.008-.007v.015c.57-.006.571.16.451.375s-.457.483-.089.681a3.032,3.032,0,0,1-1.474.1,4.184,4.184,0,0,1,.777-1.6,3.934,3.934,0,0,0,.367-.61,1.1,1.1,0,0,0,.054-.15l.019-.077c0-.1.009-.2.013-.3.014-.426.011-.912-.013-1.47a6.212,6.212,0,0,1-.161,1.641c-.029.154-.061.156-.1.189a.3.3,0,0,1-.1.06c-.07.014-.141.008-.2-.143a15.373,15.373,0,0,1,.585-3.293c-.109-3.9-.54.6-.863-1.063.64-1.33-.261-1.917-.466-3.63l.535-.013c.342-4.45-1.114-1.179-.7-5.186l.741,1.693L5.325,106.9l.608.431a14.719,14.719,0,0,1-.164-5.207c-.376.518-.969-.291-.986-2.262.317-1.345.507.752.431-2.042a2.579,2.579,0,0,1,.262,2.537c.174.125.334.622.507.751a19.854,19.854,0,0,0,.078-4.65,5.571,5.571,0,0,1-.124,1.094L5.2,93.5c.2-.637.362-.132.519.369-.058-.82-.3-1.388-.349-2.595.434.312.883.238,1.086,1.945l-.482-3.859c.189-.259.519-1.982.679-1.479.256-2.14-.843-5.249-.5-8.087a2.913,2.913,0,0,1-.227-1.047c.1-2.665.63-5.027.035-8.187l.778-1.793c-.177-2.475-.981,2.427-1.275-1.693-.248-2.918.664-1.089.88-2.113a13.219,13.219,0,0,1-.557-6.654,22.787,22.787,0,0,1,.09,2.412M5.526,30.2c.112.592.458,1.771.143,2.2-.612-.673-.319-1.194-.143-2.2M22.38,5.007a2.985,2.985,0,0,1-1.817-.118,6.176,6.176,0,0,1,1.817.118m103.929,22.8a.668.668,0,0,0-.025-.063c.208-1.319.126-.851.025.063m-.231,2.74c.074.276.148.258.223.14a3.476,3.476,0,0,1-.106-1.507c-.14.194-.236.549-.116,1.366m-102.7,96.614-.512-.145c1.157-.16.832-.016.512.145" transform="translate(0 0)" fill="#3a552a"/>
          <path id="Trazado_1033080" data-name="Trazado 1033080" d="M15.675,5.052a.5.5,0,0,1-.244-.3c-.224.093-.228.2.244.3" transform="translate(1.641 0.713)" fill="#3a552a"/>
          <path id="Trazado_1033081" data-name="Trazado 1033081" d="M5.556,69.3l-.006.093a.234.234,0,0,0,.1.093Z" transform="translate(0.596 10.405)" fill="#3a552a"/>
          <path id="Trazado_1033082" data-name="Trazado 1033082" d="M98.176,5.33a3.251,3.251,0,0,1-1.048-.286c-.03.136.217.251,1.048.286" transform="translate(10.425 0.757)" fill="#3a552a"/>
          <path id="Trazado_1033083" data-name="Trazado 1033083" d="M114.707,39.411l-.14-1.755a5.206,5.206,0,0,1-.175,1.581c.125-.04.306-.376.314.174" transform="translate(12.278 5.654)" fill="#3a552a"/>
          <path id="Trazado_1033084" data-name="Trazado 1033084" d="M111.691,52.5c.065.258.007.544.073.8l.249-.069c-.017-1.091-.217-1.855-.322-.727" transform="translate(11.988 7.799)" fill="#3a552a"/>
          <path id="Trazado_1033085" data-name="Trazado 1033085" d="M113.1,40.594c-.45.139-.3,1.24-.214,2.468,0-.072-.006-.144,0-.216.629.361.421-.948.214-2.252" transform="translate(12.107 6.095)" fill="#3a552a"/>
          <path id="Trazado_1033086" data-name="Trazado 1033086" d="M112.895,42.988a9.993,9.993,0,0,1,.011,1.136c.252.144.053-.46-.011-1.136" transform="translate(12.117 6.455)" fill="#3a552a"/>
          <path id="Trazado_1033087" data-name="Trazado 1033087" d="M114.131,29.731c-.116.583.575.365.392.695.571.652-.692-3.885-.392-.695" transform="translate(12.245 4.292)" fill="#3a552a"/>
          <path id="Trazado_1033088" data-name="Trazado 1033088" d="M111.737,41.606l.555-.441-.447-.688Z" transform="translate(11.993 6.078)" fill="#3a552a"/>
          <path id="Trazado_1033089" data-name="Trazado 1033089" d="M112.119,33.02l-.154,1.964c.093-.029.148.22.189.527a8.9,8.9,0,0,0-.035-2.491" transform="translate(12.018 4.958)" fill="#3a552a"/>
          <path id="Trazado_1033090" data-name="Trazado 1033090" d="M112.137,35.186a6.987,6.987,0,0,0,.092,1.58c-.006-.342-.024-1.075-.092-1.58" transform="translate(12.036 5.283)" fill="#3a552a"/>
          <path id="Trazado_1033091" data-name="Trazado 1033091" d="M111.586,39.382l.115-.581.041-1.387Z" transform="translate(11.977 5.618)" fill="#3a552a"/>
          <path id="Trazado_1033092" data-name="Trazado 1033092" d="M112.241,14.95l-.158-2.144c-.19-.219-.307.366-.231,1.163.133.514.206,1.31.39.981" transform="translate(12.003 1.916)" fill="#3a552a"/>
          <path id="Trazado_1033093" data-name="Trazado 1033093" d="M110.855,20.432a2.141,2.141,0,0,1,.422-.944l-.688-.067Z" transform="translate(11.87 2.916)" fill="#3a552a"/>
          <path id="Trazado_1033094" data-name="Trazado 1033094" d="M110.733,15.067c-.19-.214-.548-3.111-.5-.395.188.217.347,2.365.5.395" transform="translate(11.831 2.03)" fill="#3a552a"/>
          <path id="Trazado_1033095" data-name="Trazado 1033095" d="M95.192,3.744l.525-.009-.075-1.171Z" transform="translate(10.217 0.385)" fill="#3a552a"/>
          <path id="Trazado_1033096" data-name="Trazado 1033096" d="M70.465,6.143c2.445.281.58-.723,2.79-.373.575-.276-1.806-.285-1.217-.524-1.476.292-2.251.127-1.574.9" transform="translate(7.537 0.788)" fill="#3a552a"/>
          <path id="Trazado_1033097" data-name="Trazado 1033097" d="M71.862,5.269c.237-.046.487-.1.754-.178a4.064,4.064,0,0,0-.754.178" transform="translate(7.713 0.764)" fill="#3a552a"/>
          <path id="Trazado_1033098" data-name="Trazado 1033098" d="M107.819,111.1l1.572.245-1.014-.395Z" transform="translate(11.573 16.659)" fill="#3a552a"/>
          <path id="Trazado_1033099" data-name="Trazado 1033099" d="M110.547,110.321l.371.746.943-.675a2.842,2.842,0,0,1-1.314-.071" transform="translate(11.865 16.564)" fill="#3a552a"/>
          <path id="Trazado_1033100" data-name="Trazado 1033100" d="M6.337,22.327,6.164,22.2c-.187.253-.2.635-.23,1.4Z" transform="translate(0.637 3.334)" fill="#3a552a"/>
          <path id="Trazado_1033101" data-name="Trazado 1033101" d="M5.874,41.621l.014-.381-.65.712Z" transform="translate(0.562 6.192)" fill="#3a552a"/>
          <path id="Trazado_1033102" data-name="Trazado 1033102" d="M6.6,58.052c.027-.759-.117-1.652-.091-2.414.117,1.655-.72,2.619.091,2.414" transform="translate(0.67 8.354)" fill="#3a552a"/>
        </g>
      </g>
    </g>
    <g id="Grupo_1212292" data-name="Grupo 1212292" transform="translate(1231.359 1115.297)">
      <g id="Grupo_1212291" data-name="Grupo 1212291" clip-path="url(#clip-path-2)">
        <path id="Trazado_1273808" data-name="Trazado 1273808" d="M46.277,117.693c-2.5,3.112-8.565,3.07-12.319,1.848a5.559,5.559,0,0,1-2.673-1.862l-27.1.014a4.119,4.119,0,0,1-3.2-1.366,3.969,3.969,0,0,1-.882-3.6L5.781,83.6A2.514,2.514,0,0,1,8.1,81.374l2.884-.076a3.553,3.553,0,0,1,.811-2.444,3.513,3.513,0,0,1,2.589-.934A10.457,10.457,0,0,1,15.612,68.9a5.529,5.529,0,0,1,3.194-6.183,6.6,6.6,0,0,1,8.386-5.874,9.109,9.109,0,0,1,12.061-2.073,5.421,5.421,0,0,1,8.173,1.011A11.2,11.2,0,0,1,58.7,64.891,5.408,5.408,0,0,1,62.6,72.085a8.114,8.114,0,0,1,.992,5.851c2.068.191,3.005,1.187,3.07,3.333l2.3.07a2.744,2.744,0,0,1,2.856,2.1l5.731,29.287a3.994,3.994,0,0,1-3.9,4.942ZM55.16,89.468a10.839,10.839,0,0,1-2.553.673,1.422,1.422,0,0,1-1.22-1.027,1.252,1.252,0,0,1,.753-1.486,8.686,8.686,0,0,0,5.632-3.372,8.113,8.113,0,0,1-7.544-1.666,4.49,4.49,0,0,1-5.57-1.943,1.351,1.351,0,0,1,.4-2,1.42,1.42,0,0,1,1.911.678,1.945,1.945,0,0,0,2.631.695c1.974-1.136-.142-3.294,1.13-4.192a1.38,1.38,0,0,1,1.712.151c1.336,1.476.565,3.487.05,4.884,1.716,1.64,4.77,1.207,6.466-.124a5.661,5.661,0,0,0,1.887-6.269,4.474,4.474,0,0,1-1.406.681,1.221,1.221,0,0,1-1.381-.911,1.3,1.3,0,0,1,.66-1.548,2.766,2.766,0,1,0-2.787-4.75,1.355,1.355,0,0,1-1.809-.186A1.314,1.314,0,0,1,54.175,66a5.8,5.8,0,0,1,1.83-1.037,8.448,8.448,0,0,0-7.692-6.5,1.476,1.476,0,0,1-1.179,1.59,1.31,1.31,0,0,1-1.442-1.145,2.839,2.839,0,0,0-2.662-2.931,2.788,2.788,0,0,0-2.9,2.682,1.315,1.315,0,0,1-1.393,1.386,1.283,1.283,0,0,1-1.218-1.353,6.557,6.557,0,0,1,.293-1.706,6.4,6.4,0,0,0-6.23-.4,6.61,6.61,0,0,0-3.559,4.372c-.221.805-1.371.905-1.915.523-.684-.481-.618-1.371-.271-2.171a3.726,3.726,0,0,0-4.259,3.04c1.351.388,3.158.992,3.78,2.5a1.275,1.275,0,0,1-.573,1.582,1.318,1.318,0,0,1-1.647-.326,2.76,2.76,0,1,0-3.73,3.929A1.332,1.332,0,0,1,20,71.716a1.289,1.289,0,0,1-1.59.741,8.781,8.781,0,0,1-1.319-.82,8.126,8.126,0,0,0,1.347,8.3,8.017,8.017,0,0,0,7.711,2.627,2.215,2.215,0,0,0-.171-1.334,4.477,4.477,0,0,1-3.9-4.775,1.225,1.225,0,0,1,1.462-1.027c1.738.188.386,2.966,2.993,3.172a6.139,6.139,0,0,1,.833-1.79,1.3,1.3,0,0,1,1.788-.254,1.338,1.338,0,0,1,.345,1.8,5.594,5.594,0,0,0,1.52,7.35,5.492,5.492,0,0,0,7.26-.546,1.634,1.634,0,0,1,1.892-.59,9.769,9.769,0,0,0,6.363.211,1.343,1.343,0,0,1,1.77.834,1.3,1.3,0,0,1-.853,1.663l-2.018.522c2.119,2.751,5.675,2.026,8.3,5.236a1.407,1.407,0,0,0,1.711.334c1.336-.816.676-2.236-.288-3.9m2.313-1.234.989,2.047a4.044,4.044,0,0,1-1.251,5.078,3.98,3.98,0,0,1-5.218-.4,7.515,7.515,0,0,0-3.327-2.19c-2.653-.8-5.234-2.292-6.007-5a21.517,21.517,0,0,1-2.693-.484A8.416,8.416,0,0,1,32.675,89.3a8.311,8.311,0,0,1-5.607-4.224,10.575,10.575,0,0,1-11.5-4.67l-1.878.283L8.961,109.155a45.38,45.38,0,0,1,28.545.011l.008-16.331a1.312,1.312,0,1,1,2.617,0l.007,16.331a45.515,45.515,0,0,1,28.534-.032l-4.717-28.4a1.614,1.614,0,0,0-1.294-.128,1.47,1.47,0,0,0-.718.866,11.724,11.724,0,0,1-4.47,6.761M31.4,110.3a43.91,43.91,0,0,0-21.423,1.294,2.774,2.774,0,0,1-2.861-.562,2.792,2.792,0,0,1-.707-2.631L10.49,83.978l-2.106.041L2.69,113.162c-.155.794.108,1.864,1.1,1.865l27.255.012Zm15.286,4.75,27.157,0a1.42,1.42,0,0,0,1.11-1.889L69.264,84.019a8.336,8.336,0,0,0-2.105-.04l4.1,24.586a2.673,2.673,0,0,1-.84,2.56,2.706,2.706,0,0,1-2.593.508,43.977,43.977,0,0,0-21.585-1.341Zm-2.657,1.17-.444-5.277L38.825,112.3l-4.765-1.361-.445,5.286c.156.491,1.007.778,1.531.932a12.95,12.95,0,0,0,7.355,0c.52-.153,1.366-.449,1.533-.939" transform="translate(0 -42.848)" fill="#12263f"/>
        <path id="Trazado_1273809" data-name="Trazado 1273809" d="M130.6,10.039a1.38,1.38,0,0,1-.566,1.872,1.308,1.308,0,0,1-1.839-.762L126.72,7.491a1.267,1.267,0,0,1,.778-1.666,1.3,1.3,0,0,1,1.607.684Z" transform="translate(-101.69 -4.622)" fill="#12263f"/>
        <path id="Trazado_1273810" data-name="Trazado 1273810" d="M249.125,11.212a1.328,1.328,0,0,1-1.75.9,1.3,1.3,0,0,1-.8-1.573l1.541-3.761a1.29,1.29,0,0,1,1.5-.815,1.243,1.243,0,0,1,.956,1.666Z" transform="translate(-197.954 -4.76)" fill="#12263f"/>
        <path id="Trazado_1273811" data-name="Trazado 1273811" d="M327.8,100.259a1.268,1.268,0,0,1-1.676-.734,1.331,1.331,0,0,1,.828-1.735l3.47-1.42a1.3,1.3,0,0,1,1.733.629,1.275,1.275,0,0,1-.581,1.7Z" transform="translate(-261.83 -77.298)" fill="#12263f"/>
        <path id="Trazado_1273812" data-name="Trazado 1273812" d="M41.811,97.742a1.36,1.36,0,0,1,.945,1.61,1.268,1.268,0,0,1-1.723.892l-3.77-1.56a1.3,1.3,0,0,1,1.152-2.332Z" transform="translate(-29.364 -77.283)" fill="#12263f"/>
        <path id="Trazado_1273813" data-name="Trazado 1273813" d="M79.879,47.5a1.34,1.34,0,0,1,.02,1.778,1.252,1.252,0,0,1-1.712.188l-1.575-1.55a1.273,1.273,0,0,1,.111-1.82,1.3,1.3,0,0,1,1.838.067Z" transform="translate(-61.255 -36.74)" fill="#12263f"/>
        <path id="Trazado_1273814" data-name="Trazado 1273814" d="M299.887,49.558a1.449,1.449,0,0,1-1.7-.274,1.314,1.314,0,0,1-.014-1.728l1.362-1.388a1.3,1.3,0,0,1,1.834-.072,1.327,1.327,0,0,1,.033,1.934Z" transform="translate(-239.198 -36.742)" fill="#12263f"/>
        <path id="Trazado_1273815" data-name="Trazado 1273815" d="M192.882.723c.416,1.07.295,3.1-1.072,3.178a1.226,1.226,0,0,1-1.364-1.113A5.733,5.733,0,0,1,190.5.862,1.2,1.2,0,0,1,191.648,0a1.22,1.22,0,0,1,1.234.719" transform="translate(-152.894 0)" fill="#12263f"/>
        <path id="Trazado_1273816" data-name="Trazado 1273816" d="M174.237,142.812a3.761,3.761,0,0,0,3.126-1.6c-2.49-.661-5.547-2.774-4.159-4.227a1.34,1.34,0,0,1,1.912-.026,5.332,5.332,0,0,0,5.445,1.524,5.392,5.392,0,0,0,3.7-4.138,1.235,1.235,0,0,1,1.525-.922c2.6.363-.186,7.023-5.468,7.847a6.638,6.638,0,0,1-5.824,4.212,1.361,1.361,0,0,1-1.575-1.137,1.317,1.317,0,0,1,1.315-1.532" transform="translate(-138.815 -107.131)" fill="#12263f"/>
        <path id="Trazado_1273817" data-name="Trazado 1273817" d="M151.108,109.229a3.448,3.448,0,0,0-3.412,3.508,1.323,1.323,0,0,1-1.327,1.237,1.346,1.346,0,0,1-1.3-1.474,6.082,6.082,0,0,1,6.1-5.887,1.309,1.309,0,0,1-.066,2.616" transform="translate(-116.502 -85.617)" fill="#12263f"/>
      </g>
    </g>
  </g>
</svg>
