<svg xmlns="http://www.w3.org/2000/svg" xmlns:xlink="http://www.w3.org/1999/xlink" width="128" height="128" viewBox="0 0 128 128">
  <defs>
    <clipPath id="clip-path">
      <rect id="Rectángulo_459899" data-name="Rectángulo 459899" width="128" height="128" fill="none"/>
    </clipPath>
    <clipPath id="clip-path-2">
      <rect id="Rectángulo_465424" data-name="Rectángulo 465424" width="62.137" height="62.145" fill="#12263f"/>
    </clipPath>
  </defs>
  <g id="Grupo_1212512" data-name="Grupo 1212512" transform="translate(-1088.746 -7980.09)">
    <g id="Grupo_1211326" data-name="Grupo 1211326" transform="translate(1088.746 7980.09)">
      <g id="Grupo_1188515" data-name="Grupo 1188515" clip-path="url(#clip-path)">
        <path id="Trazado_1033015" data-name="Trazado 1033015" d="M128,64A64,64,0,1,1,64,0a64,64,0,0,1,64,64" fill="#fff"/>
        <path id="Trazado_1033016" data-name="Trazado 1033016" d="M154.441,185.937l.625-.59c-.045-.02-.215.119-.625.59" transform="translate(-131.184 -157.435)" fill="#e4cbc1"/>
        <path id="Trazado_1033017" data-name="Trazado 1033017" d="M374.691,757.713l-.2.008a.74.74,0,0,0,.2-.008" transform="translate(-318.095 -643.61)" fill="#e4cbc1"/>
        <path id="Trazado_1033018" data-name="Trazado 1033018" d="M342.621,99.876l-.041.008-.2.065Z" transform="translate(-290.823 -84.836)" fill="#e4cbc1"/>
        <path id="Trazado_1033019" data-name="Trazado 1033019" d="M81.364,97.171a46.672,46.672,0,0,1,3.779-5.711c1.133-1.6,2.359-2.8,3.473-4.1.6-.615,1.228-1.2,1.858-1.825l.97-.96,1.1-.927a47.547,47.547,0,0,1,5.5-4.2,46.375,46.375,0,0,1,14.737-5.883c2.322-.985,6.71-.887,9.606-1.239l1.123.269a11.86,11.86,0,0,1,3.182.125l-.069.054c1.5.046,3.178.288,3.916.385l-.072.049,1.79.338-.325.025c.647.092,1.3.178,1.95.3l1.9.5c.625.176,1.248.337,1.843.538l1.707.68-.095-.313c.586.256,1.127.482,1.636.685s.956.45,1.4.64c.875.4,1.663.733,2.437,1.063.743.389,1.473.772,2.258,1.217.39.226.8.452,1.22.731.4.3.829.621,1.28.979l-.087.017c.647.335,1.251.674,1.819,1.016.55.366,1.04.768,1.521,1.149s.933.772,1.375,1.157.817.833,1.223,1.245c1.618,1.661,3.114,3.436,5.222,5.6-.519-.547.09.338,0,.328l1.3,1.6c.419.52.765,1.051,1.108,1.479.671.868,1.2,1.425,1.432,1.308,1.071,1.738.7,1.516.678,1.837.172-.117,1.176,1.354,1.91,2.769-.137-.2-.255-.419-.406-.615.7,1.351,1.393,2.708,2.057,4.079.025-.338,0-.658.006-.99.887,2.273-.217.771.773,2.875l.313-.159a19.563,19.563,0,0,1,.732,2.189c.165.694.3,1.349.426,2s.257,1.3.371,1.981c.091.692.2,1.416.339,2.21a73.426,73.426,0,0,1,1.768,9.989,51.748,51.748,0,0,1-.063,10.205l-.136,1.264-.068.631-.127.619-.512,2.466a17.435,17.435,0,0,1-.677,2.4c-.26.785-.5,1.577-.779,2.345l-1.018,2.217a17.671,17.671,0,0,1-1.094,2.137,29.664,29.664,0,0,1-2.668,3.842l-.541.266c-.411-.047-1.68,2.982-2.322,3.054-.289.381-.56.782-.872,1.147-.34.231-1,.763-.546.208a16.966,16.966,0,0,0-1.6,1.672c-.4.26-.832.482-1.247.718a74.424,74.424,0,0,1-6.176,4.184,35.986,35.986,0,0,1-6.974,3.266,93.37,93.37,0,0,1-12.7,2.748,98.083,98.083,0,0,1-13.538.888,49.735,49.735,0,0,1-15.981-2.551A67.158,67.158,0,0,1,89.2,160.415a3.592,3.592,0,0,0-1.043-.6c-.607-.5-1.191-1.018-1.788-1.524l-.892-.764-.814-.843L83.038,155l-1.448-1.839-.312-.392-.37-.462-.431-.661a34.528,34.528,0,0,1-2.393-4.01,21.288,21.288,0,0,1-1.264-2.643c-.367-.945-.809-1.89-1.144-2.87-.6-1.985-1.275-3.931-1.646-5.694-.817-3.5-1.184-6.012-1.59-5.364a10.1,10.1,0,0,0-.38,3.632,36.74,36.74,0,0,0,.261,4.12c.111.827.29,1.722.463,2.705l.285,1.536c.1.534.292,1.062.445,1.627l-.169-.205L74,146.362l.315.882c.12.281.257.548.381.813.513,1.057.982,2.038,1.479,2.94a23.866,23.866,0,0,0,3.582,4.589,2,2,0,0,0,.442.92c.138.2.3.413.48.634l.634.637c.893.855,1.832,1.78,2.277,2.258l-.123-.049c1.44.94,2.657,2.2,4.065,3.215a21.712,21.712,0,0,0,2.08,1.531,20.226,20.226,0,0,0,2.212,1.179,1.586,1.586,0,0,1-.914-.312c.528.279,1.088.616,1.669.891l1.672.779a6.405,6.405,0,0,1,1.806,1.055,58.146,58.146,0,0,0,8.915,2.859,38.937,38.937,0,0,0,4.323.8,21.527,21.527,0,0,0,3.393.24l-.255.051c2.064-.038,2.637.242,4.926.254.122.048.282.081.255.1,2.224-.154,6.453.16,8.246-.044l.121.2c1.471-.063,2.943-.144,4.411-.283-.55.035-1.1.057-1.651.072.528-.57,3.368.143,6.519-.667,3.013-.374,5.76-2.2,8.767-2.816,1.338-.666-1.123.779.93-.058.158.256-.934.483-.32.533,2.031-.8,3.509-.855,5.925-2.117l.192.158c3.044-1.81,6.1-2.831,7.832-4.521a12.491,12.491,0,0,1,2.589-1.686,7.231,7.231,0,0,0,2.446-2.076l1.289-.82c1.182-1.163.579-1.085,1.894-2.356.081.221,1.608-1.677,1.065-.73a25.026,25.026,0,0,0,3.654-5.365l.793-1.559.736-1.663c.517-1.127,1.131-2.276,1.628-3.56a11.286,11.286,0,0,1,.554-2.482,9.248,9.248,0,0,0,.349-2.272,16.21,16.21,0,0,0,.622-2.336c.152-.953.277-1.513.255.045,0,.268-.128.724-.177.682l.135.4a8.52,8.52,0,0,0,.506-2.205c.091-.724.141-1.434.179-2.142a18.33,18.33,0,0,0,0-2.137c-.016-.721-.015-1.456.03-2.224-.107.909-.136,2.118-.254,1.3.024-.946.144-1.9.088-2.841l.208.59-.069-4.248-.2.6a16.372,16.372,0,0,0-.374-5.124c-.338-1.012-.031,1.981-.416-.161-.2-1.358-.356-3.084-.717-4.868a47.607,47.607,0,0,0-1.326-5.338c-.14.392-.431-.509-.79-1.414l.174-.182c-.748-1.716-.836-2.047-.821-2.419-.007-.362-.007-.729-.825-2.405l.267.242c-.262-.244-.534-.481-.824-.708a6.605,6.605,0,0,1-1.153-2.355,5.909,5.909,0,0,0-1.474-2.5c.758,1.259-.091.834-.892-.773l.412.289a17.513,17.513,0,0,1-1.063-1.687c.382.462.457.091-.4-1.112l.772.684L165.6,92.049A18.783,18.783,0,0,0,163.509,89c-.376-.488-.727-.946-1-1.338a5.175,5.175,0,0,1-.606-.9s-.743-.9-1.609-1.864a12.043,12.043,0,0,0-1.381-1.336,6.591,6.591,0,0,0-1.09-.81c.821.5-.989-1.34-.3-1.013-.495-.363-1.516-1.015-2.5-1.751-.491-.366-.978-.748-1.4-1.107s-.833-.633-1.091-.89l.241.13c-4.218-3.29-7.918-4.417-12.214-6.37.112.317-2.184-.685-1.71-.156-2.377-.551-4.454-1.343-6.252-1.734a13.7,13.7,0,0,0-2.393-.462,4.062,4.062,0,0,0-1.764.222c-2.186-.246-2.573-.514-3.715-.623l.531-.029-2.636-.075c-.744,0-1.38.051-1.982.066-1.2.058-2.278.029-3.809.226a11.52,11.52,0,0,0-1.761.507,19.819,19.819,0,0,1-2.645.594c.836-.354-.258-.107-1.266.089.637-.154.826-.261-.529-.127-.174.095-.456.176-.712.289-.014-.011-.069-.008-.047-.035-1.639.529-1.333.5-.561.314-.031.039.043.056.292.041a27.084,27.084,0,0,0-3.085.739c-.993.322-1.784.633-1.945.51A39.849,39.849,0,0,0,93.325,78.8c-.489.15.229-.557,1.2-1.347L92.1,79.3c-.129-.2,1.332-1.145,2.065-1.738a23.017,23.017,0,0,0-2.311,1.553c-.7.628-1.394,1.3-2.1,1.976-.724.657-1.373,1.412-2.064,2.155s-1.47,1.433-2.187,2.216l-.418.8-.185.174a4.4,4.4,0,0,1-.788,1.37c-.537.337-.39-.359-1.6,1.363a15.244,15.244,0,0,0-1.861,2.669l-1.695,3.217c.627-.986.539-.6.34-.138a21.883,21.883,0,0,0-1.241,2.11l-.3-.041c.213-.121-.039.517-.352,1.233a11.516,11.516,0,0,0-.648,1.74c-.422.46.467-1.565.487-1.848-.9,1.893-1.062,2.4-1.285,2.87-.185.49-.478.937-1.159,2.919-.567,2.169.389-.287.255.8-.673,1.844-.967,3.743-1.775,5.846l.442-.615c-.41,1.784-.623,3.233-.95,4.5-.267,1.282-.49,2.422-.822,3.621-.138,1.7-.086,3.229-.119,4.563.031,1.339.145,2.5.214,3.5a20.484,20.484,0,0,0,.348,2.542c.127.7.243,1.26.35,1.7.443,1.757.753,1.614.887.617a39.933,39.933,0,0,0,.33-4.258c.147-1.525.229-2.806.229-2.806a116.086,116.086,0,0,1,2.145-12.969l.788-3.08c.294-1.051.671-2.117,1.03-3.257a53.709,53.709,0,0,1,3.2-7.432" transform="translate(-61.023 -58.519)" fill="#3a552a"/>
      </g>
    </g>
    <g id="Grupo_1212461" data-name="Grupo 1212461" transform="translate(1120 8013.017)">
      <g id="Grupo_1212460" data-name="Grupo 1212460" clip-path="url(#clip-path-2)">
        <path id="Trazado_1274348" data-name="Trazado 1274348" d="M38.473,62.012a1.266,1.266,0,0,1-1.785-.682l-1.63-4.019a26.551,26.551,0,0,1-8.41-.067l-1.811,4.273c-.31.731-1.174.718-1.808.439L14.4,58.165a1.707,1.707,0,0,1-.909-.98A7.34,7.34,0,0,1,5.07,48.171a1.256,1.256,0,0,1-1.281-.707L.117,38.417a1.291,1.291,0,0,1,.794-1.775L4.825,35.07a27.781,27.781,0,0,1,.082-8.432L.86,24.917A1.22,1.22,0,0,1,.2,23.347L4.027,14.3a1.212,1.212,0,0,1,1.605-.679L9.68,15.353a26.277,26.277,0,0,1,6.026-5.9l-1.632-4.1a1.208,1.208,0,0,1,.706-1.6L23.847.1a1.213,1.213,0,0,1,1.6.711l1.671,4.053a20.347,20.347,0,0,1,2.137-.232,20.066,20.066,0,0,1,32.074,9.744,1.207,1.207,0,0,1-2.338.583,17.844,17.844,0,0,0-4.966-7.867A17.571,17.571,0,1,0,59.013,25a1.207,1.207,0,0,1,1.426-.814,1.223,1.223,0,0,1,.881,1.558,20.444,20.444,0,0,1-3.8,7.089,21.26,21.26,0,0,1-.308,2.677l3.955,1.677a1.25,1.25,0,0,1,.76,1.618L58.1,47.845a1.193,1.193,0,0,1-1.48.721L52.449,46.8a26.751,26.751,0,0,1-6.019,5.9l1.628,4.1a1.255,1.255,0,0,1-.808,1.662ZM7.405,35.676a1.179,1.179,0,0,1-.752,1.273L2.785,38.532l2.774,6.833c1.721-.473,2.691-1.832,4.475-2.38,1.063-.537,2.041-1.15,3.112-1.822A20.566,20.566,0,0,1,23.891,11.8a17.935,17.935,0,0,1,2.594-4.327,1.388,1.388,0,0,1-1.3-.82L23.612,2.8,16.764,5.569,18.3,9.343a1.276,1.276,0,0,1-.51,1.632,23.213,23.213,0,0,0-6.642,6.539,1.205,1.205,0,0,1-1.479.452L5.8,16.386,2.917,23.147l3.84,1.633a1.262,1.262,0,0,1,.7,1.488,23.723,23.723,0,0,0-.054,9.409m12.027-6.366a3.662,3.662,0,0,1,3.978-2.1A20.619,20.619,0,0,1,22.672,15a18.139,18.139,0,0,0-7.6,24.635l5.506-5.063c.159-.147.39-.214.331-.449-.084-.331-2.73-1.99-1.477-4.814M32.287,38.6l-8.875-8.845c-.447-.445-1.392-.049-1.625.305a1.238,1.238,0,0,0,.155,1.608l8.616,8.6a1.172,1.172,0,0,0,1.653-.044,1.215,1.215,0,0,0,.077-1.628M38.54,59.363l6.825-2.781-1.572-3.891a1.232,1.232,0,0,1,.549-1.515,23.445,23.445,0,0,0,6.644-6.543,1.156,1.156,0,0,1,1.354-.483L56.3,45.8l2.91-6.79-3.829-1.637c-.664-.284-.815-.907-.7-1.729A20.09,20.09,0,0,1,50.321,38.3a20.565,20.565,0,0,1-29.34,10.695,24.541,24.541,0,0,0-2.193,3.985,7.853,7.853,0,0,1-2.737,3.236l7.067,3.1L24.666,55.6a1.294,1.294,0,0,1,1.447-.924,23.845,23.845,0,0,0,9.494.073,1.244,1.244,0,0,1,1.386.869ZM16.525,52.046a24.546,24.546,0,0,1,4.138-6.522l5.578-6.134L22.748,35.9,16.694,41.4a24.139,24.139,0,0,1-6.546,4.179,4.785,4.785,0,0,0-2.8,5.238A4.892,4.892,0,0,0,11.326,54.8a4.782,4.782,0,0,0,5.2-2.752m6-4.978A18.12,18.12,0,0,0,47.155,39.43a19.923,19.923,0,0,1-12.213-.694,3.649,3.649,0,0,1-6.549,2.782.655.655,0,0,0-.478-.291c-.183.013-.228.21-.345.337Z" transform="translate(0 0)" fill="#12263f"/>
        <path id="Trazado_1274349" data-name="Trazado 1274349" d="M187.147,34.121a12.783,12.783,0,0,0-11.729,13.824,1.233,1.233,0,0,1-1.053,1.3,1.2,1.2,0,0,1-1.349-1.051A15.168,15.168,0,0,1,186.624,31.74a1.207,1.207,0,0,1,1.472.958,1.184,1.184,0,0,1-.948,1.423" transform="translate(-146.078 -26.799)" fill="#12263f"/>
        <path id="Trazado_1274350" data-name="Trazado 1274350" d="M272.183,130.819a1.274,1.274,0,0,1-1.528-1.035,1.2,1.2,0,0,1,1.2-1.383,12.728,12.728,0,0,0,11.468-13.772,1.224,1.224,0,1,1,2.441-.166,15.207,15.207,0,0,1-13.58,16.355" transform="translate(-228.584 -95.68)" fill="#12263f"/>
        <path id="Trazado_1274351" data-name="Trazado 1274351" d="M242.888,85.818c-2.066-.054-1.462-4.5,1.846-7.225a2.516,2.516,0,0,0,.514-3.175,2.667,2.667,0,0,0-3.008-1.283,2.7,2.7,0,0,0-2.01,2.6,1.207,1.207,0,1,1-2.413-.065,5.1,5.1,0,0,1,9.9-1.651,5,5,0,0,1-1.492,5.505,5.315,5.315,0,0,0-2.113,4.144,1.223,1.223,0,0,1-1.227,1.148" transform="translate(-200.863 -60.51)" fill="#12263f"/>
        <path id="Trazado_1274352" data-name="Trazado 1274352" d="M385.009,120.941a1.212,1.212,0,0,1,1.634.684,1.233,1.233,0,0,1-.667,1.527,1.207,1.207,0,0,1-.968-2.212" transform="translate(-324.576 -102.06)" fill="#12263f"/>
        <path id="Trazado_1274353" data-name="Trazado 1274353" d="M263.489,178.831a1.192,1.192,0,0,1,1.591.527,1.238,1.238,0,0,1-.551,1.644,1.213,1.213,0,0,1-1.611-.548,1.175,1.175,0,0,1,.571-1.622" transform="translate(-221.953 -150.949)" fill="#12263f"/>
      </g>
    </g>
  </g>
</svg>
