<svg xmlns="http://www.w3.org/2000/svg" xmlns:xlink="http://www.w3.org/1999/xlink" width="128" height="128" viewBox="0 0 128 128">
  <defs>
    <clipPath id="clip-path">
      <rect id="Rectángulo_459899" data-name="Rectángulo 459899" width="128" height="128" fill="none"/>
    </clipPath>
    <clipPath id="clip-path-2">
      <rect id="Rectángulo_465426" data-name="Rectángulo 465426" width="59.653" height="57.131" fill="#12263f"/>
    </clipPath>
  </defs>
  <g id="Grupo_1212514" data-name="Grupo 1212514" transform="translate(-6681.746 3575)">
    <g id="Grupo_1211330" data-name="Grupo 1211330" transform="translate(6681.746 -3575)">
      <g id="Grupo_1188515" data-name="Grupo 1188515" clip-path="url(#clip-path)">
        <path id="Trazado_1033015" data-name="Trazado 1033015" d="M128,64A64,64,0,1,1,64,0a64,64,0,0,1,64,64" fill="#fff"/>
        <path id="Trazado_1033016" data-name="Trazado 1033016" d="M154.441,185.937l.625-.59c-.045-.02-.215.119-.625.59" transform="translate(-131.184 -157.435)" fill="#e4cbc1"/>
        <path id="Trazado_1033017" data-name="Trazado 1033017" d="M374.691,757.713l-.2.008a.74.74,0,0,0,.2-.008" transform="translate(-318.095 -643.61)" fill="#e4cbc1"/>
        <path id="Trazado_1033018" data-name="Trazado 1033018" d="M342.621,99.876l-.041.008-.2.065Z" transform="translate(-290.823 -84.836)" fill="#e4cbc1"/>
        <path id="Trazado_1033019" data-name="Trazado 1033019" d="M81.364,97.171a46.672,46.672,0,0,1,3.779-5.711c1.133-1.6,2.359-2.8,3.473-4.1.6-.615,1.228-1.2,1.858-1.825l.97-.96,1.1-.927a47.547,47.547,0,0,1,5.5-4.2,46.375,46.375,0,0,1,14.737-5.883c2.322-.985,6.71-.887,9.606-1.239l1.123.269a11.86,11.86,0,0,1,3.182.125l-.069.054c1.5.046,3.178.288,3.916.385l-.072.049,1.79.338-.325.025c.647.092,1.3.178,1.95.3l1.9.5c.625.176,1.248.337,1.843.538l1.707.68-.095-.313c.586.256,1.127.482,1.636.685s.956.45,1.4.64c.875.4,1.663.733,2.437,1.063.743.389,1.473.772,2.258,1.217.39.226.8.452,1.22.731.4.3.829.621,1.28.979l-.087.017c.647.335,1.251.674,1.819,1.016.55.366,1.04.768,1.521,1.149s.933.772,1.375,1.157.817.833,1.223,1.245c1.618,1.661,3.114,3.436,5.222,5.6-.519-.547.09.338,0,.328l1.3,1.6c.419.52.765,1.051,1.108,1.479.671.868,1.2,1.425,1.432,1.308,1.071,1.738.7,1.516.678,1.837.172-.117,1.176,1.354,1.91,2.769-.137-.2-.255-.419-.406-.615.7,1.351,1.393,2.708,2.057,4.079.025-.338,0-.658.006-.99.887,2.273-.217.771.773,2.875l.313-.159a19.563,19.563,0,0,1,.732,2.189c.165.694.3,1.349.426,2s.257,1.3.371,1.981c.091.692.2,1.416.339,2.21a73.426,73.426,0,0,1,1.768,9.989,51.748,51.748,0,0,1-.063,10.205l-.136,1.264-.068.631-.127.619-.512,2.466a17.435,17.435,0,0,1-.677,2.4c-.26.785-.5,1.577-.779,2.345l-1.018,2.217a17.671,17.671,0,0,1-1.094,2.137,29.664,29.664,0,0,1-2.668,3.842l-.541.266c-.411-.047-1.68,2.982-2.322,3.054-.289.381-.56.782-.872,1.147-.34.231-1,.763-.546.208a16.966,16.966,0,0,0-1.6,1.672c-.4.26-.832.482-1.247.718a74.424,74.424,0,0,1-6.176,4.184,35.986,35.986,0,0,1-6.974,3.266,93.37,93.37,0,0,1-12.7,2.748,98.083,98.083,0,0,1-13.538.888,49.735,49.735,0,0,1-15.981-2.551A67.158,67.158,0,0,1,89.2,160.415a3.592,3.592,0,0,0-1.043-.6c-.607-.5-1.191-1.018-1.788-1.524l-.892-.764-.814-.843L83.038,155l-1.448-1.839-.312-.392-.37-.462-.431-.661a34.528,34.528,0,0,1-2.393-4.01,21.288,21.288,0,0,1-1.264-2.643c-.367-.945-.809-1.89-1.144-2.87-.6-1.985-1.275-3.931-1.646-5.694-.817-3.5-1.184-6.012-1.59-5.364a10.1,10.1,0,0,0-.38,3.632,36.74,36.74,0,0,0,.261,4.12c.111.827.29,1.722.463,2.705l.285,1.536c.1.534.292,1.062.445,1.627l-.169-.205L74,146.362l.315.882c.12.281.257.548.381.813.513,1.057.982,2.038,1.479,2.94a23.866,23.866,0,0,0,3.582,4.589,2,2,0,0,0,.442.92c.138.2.3.413.48.634l.634.637c.893.855,1.832,1.78,2.277,2.258l-.123-.049c1.44.94,2.657,2.2,4.065,3.215a21.712,21.712,0,0,0,2.08,1.531,20.226,20.226,0,0,0,2.212,1.179,1.586,1.586,0,0,1-.914-.312c.528.279,1.088.616,1.669.891l1.672.779a6.405,6.405,0,0,1,1.806,1.055,58.146,58.146,0,0,0,8.915,2.859,38.937,38.937,0,0,0,4.323.8,21.527,21.527,0,0,0,3.393.24l-.255.051c2.064-.038,2.637.242,4.926.254.122.048.282.081.255.1,2.224-.154,6.453.16,8.246-.044l.121.2c1.471-.063,2.943-.144,4.411-.283-.55.035-1.1.057-1.651.072.528-.57,3.368.143,6.519-.667,3.013-.374,5.76-2.2,8.767-2.816,1.338-.666-1.123.779.93-.058.158.256-.934.483-.32.533,2.031-.8,3.509-.855,5.925-2.117l.192.158c3.044-1.81,6.1-2.831,7.832-4.521a12.491,12.491,0,0,1,2.589-1.686,7.231,7.231,0,0,0,2.446-2.076l1.289-.82c1.182-1.163.579-1.085,1.894-2.356.081.221,1.608-1.677,1.065-.73a25.026,25.026,0,0,0,3.654-5.365l.793-1.559.736-1.663c.517-1.127,1.131-2.276,1.628-3.56a11.286,11.286,0,0,1,.554-2.482,9.248,9.248,0,0,0,.349-2.272,16.21,16.21,0,0,0,.622-2.336c.152-.953.277-1.513.255.045,0,.268-.128.724-.177.682l.135.4a8.52,8.52,0,0,0,.506-2.205c.091-.724.141-1.434.179-2.142a18.33,18.33,0,0,0,0-2.137c-.016-.721-.015-1.456.03-2.224-.107.909-.136,2.118-.254,1.3.024-.946.144-1.9.088-2.841l.208.59-.069-4.248-.2.6a16.372,16.372,0,0,0-.374-5.124c-.338-1.012-.031,1.981-.416-.161-.2-1.358-.356-3.084-.717-4.868a47.607,47.607,0,0,0-1.326-5.338c-.14.392-.431-.509-.79-1.414l.174-.182c-.748-1.716-.836-2.047-.821-2.419-.007-.362-.007-.729-.825-2.405l.267.242c-.262-.244-.534-.481-.824-.708a6.605,6.605,0,0,1-1.153-2.355,5.909,5.909,0,0,0-1.474-2.5c.758,1.259-.091.834-.892-.773l.412.289a17.513,17.513,0,0,1-1.063-1.687c.382.462.457.091-.4-1.112l.772.684L165.6,92.049A18.783,18.783,0,0,0,163.509,89c-.376-.488-.727-.946-1-1.338a5.175,5.175,0,0,1-.606-.9s-.743-.9-1.609-1.864a12.043,12.043,0,0,0-1.381-1.336,6.591,6.591,0,0,0-1.09-.81c.821.5-.989-1.34-.3-1.013-.495-.363-1.516-1.015-2.5-1.751-.491-.366-.978-.748-1.4-1.107s-.833-.633-1.091-.89l.241.13c-4.218-3.29-7.918-4.417-12.214-6.37.112.317-2.184-.685-1.71-.156-2.377-.551-4.454-1.343-6.252-1.734a13.7,13.7,0,0,0-2.393-.462,4.062,4.062,0,0,0-1.764.222c-2.186-.246-2.573-.514-3.715-.623l.531-.029-2.636-.075c-.744,0-1.38.051-1.982.066-1.2.058-2.278.029-3.809.226a11.52,11.52,0,0,0-1.761.507,19.819,19.819,0,0,1-2.645.594c.836-.354-.258-.107-1.266.089.637-.154.826-.261-.529-.127-.174.095-.456.176-.712.289-.014-.011-.069-.008-.047-.035-1.639.529-1.333.5-.561.314-.031.039.043.056.292.041a27.084,27.084,0,0,0-3.085.739c-.993.322-1.784.633-1.945.51A39.849,39.849,0,0,0,93.325,78.8c-.489.15.229-.557,1.2-1.347L92.1,79.3c-.129-.2,1.332-1.145,2.065-1.738a23.017,23.017,0,0,0-2.311,1.553c-.7.628-1.394,1.3-2.1,1.976-.724.657-1.373,1.412-2.064,2.155s-1.47,1.433-2.187,2.216l-.418.8-.185.174a4.4,4.4,0,0,1-.788,1.37c-.537.337-.39-.359-1.6,1.363a15.244,15.244,0,0,0-1.861,2.669l-1.695,3.217c.627-.986.539-.6.34-.138a21.883,21.883,0,0,0-1.241,2.11l-.3-.041c.213-.121-.039.517-.352,1.233a11.516,11.516,0,0,0-.648,1.74c-.422.46.467-1.565.487-1.848-.9,1.893-1.062,2.4-1.285,2.87-.185.49-.478.937-1.159,2.919-.567,2.169.389-.287.255.8-.673,1.844-.967,3.743-1.775,5.846l.442-.615c-.41,1.784-.623,3.233-.95,4.5-.267,1.282-.49,2.422-.822,3.621-.138,1.7-.086,3.229-.119,4.563.031,1.339.145,2.5.214,3.5a20.484,20.484,0,0,0,.348,2.542c.127.7.243,1.26.35,1.7.443,1.757.753,1.614.887.617a39.933,39.933,0,0,0,.33-4.258c.147-1.525.229-2.806.229-2.806a116.086,116.086,0,0,1,2.145-12.969l.788-3.08c.294-1.051.671-2.117,1.03-3.257a53.709,53.709,0,0,1,3.2-7.432" transform="translate(-61.023 -58.519)" fill="#3a552a"/>
      </g>
    </g>
    <g id="Grupo_1212465" data-name="Grupo 1212465" transform="translate(6715.419 -3539.566)">
      <g id="Grupo_1212464" data-name="Grupo 1212464" clip-path="url(#clip-path-2)">
        <path id="Trazado_1274359" data-name="Trazado 1274359" d="M20.857,26.919l.339,9.305a3.439,3.439,0,0,1-3.166,3.6,3.4,3.4,0,0,1-3.668-3.254l-.254-6.948c-.009-.237-.384-.4-.546-.416-.227-.02-.236.417-.348.58L6.141,40.1a3.356,3.356,0,0,1-4.805.713,3.48,3.48,0,0,1-.613-4.886l5.98-8.7.22-13.749a3.544,3.544,0,0,1,3.193-3.422A5.163,5.163,0,0,1,6.234,4.239a5.073,5.073,0,0,1,10.075.975,5.158,5.158,0,0,1-5.095,4.969L16.828,12.4l3.965-1.822a3.437,3.437,0,0,1,4.589,1.69,3.486,3.486,0,0,1-1.972,4.644L18.119,19.29a4.132,4.132,0,0,1-3.213-.315L13.662,18.5l-.006,3.211,5.178,2.409a3.257,3.257,0,0,1,2.024,2.8M10.575,1.984A3.123,3.123,0,0,0,8.2,5.89a3.152,3.152,0,0,0,6.119-1.509,3.126,3.126,0,0,0-3.742-2.4m8.385,25a1.455,1.455,0,0,0-.848-1.066l-5.67-2.645a1.2,1.2,0,0,1-.761-1.215l.11-4.926a.932.932,0,0,1,1.238-.927l3.357,1.277a1.484,1.484,0,0,0,1.24-.061l5.268-2.42a1.485,1.485,0,0,0,.779-1.824,1.392,1.392,0,0,0-1.843-.913l-4.945,2.183-5.973-2.272A1.485,1.485,0,0,0,8.841,13.6L8.631,27.8,2.14,37.333a1.458,1.458,0,0,0,.454,2.02,1.414,1.414,0,0,0,1.917-.279L11.39,29.058c.419-.61-.05-1.717.671-2.19a.909.909,0,0,1,.864-.069l2.425,1.109a1.08,1.08,0,0,1,.688.994l.28,7.755a1.472,1.472,0,0,0,2.926-.272Z" transform="translate(0 0)" fill="#12263f"/>
        <path id="Trazado_1274360" data-name="Trazado 1274360" d="M164.949,177l9.081-4.049c.656-.292,1.711-.433,2.02.319l1.168,2.847,8.677.016.926-2.41a1.454,1.454,0,0,1,.811-.9l9.475-4.187a1.176,1.176,0,0,1,1.019-.12,1.028,1.028,0,0,1,.605.878l0,29.173a1.055,1.055,0,0,1-1.136,1.068l-32.037,0c-.516,0-1.159-.357-1.159-.9l-.014-20.908a.891.891,0,0,1,.561-.832m10.678.322-1.006-2.513-8.289,3.7.012,19.173h30.438V170.9l-8.153,3.6-1.173,2.941a.964.964,0,0,1-.859.586l-10.157,0a.833.833,0,0,1-.813-.7" transform="translate(-139.08 -142.513)" fill="#12263f"/>
        <path id="Trazado_1274361" data-name="Trazado 1274361" d="M192.372,31.4l-3.719.009a1.022,1.022,0,0,1-.964-.566l-.8-2.007a12.731,12.731,0,0,1-2.93-1.248l-1.686.747a1.191,1.191,0,0,1-1.453-.179l-2.606-2.616a1.032,1.032,0,0,1-.249-1.206l.817-1.852a17.65,17.65,0,0,1-1.248-3l-1.8-.689a1.091,1.091,0,0,1-.763-1.055l.009-3.809a1.028,1.028,0,0,1,.7-.963l1.868-.748a15.932,15.932,0,0,1,1.227-2.931l-.8-1.844a1.042,1.042,0,0,1,.207-1.211l2.869-2.826c.5-.494,1.762.263,2.839.76a12.866,12.866,0,0,1,2.976-1.239L187.659.92a.881.881,0,0,1,.82-.552l4-.012a.949.949,0,0,1,.909.614l.741,1.927A13.9,13.9,0,0,1,197.1,4.144l1.786-.786a1.132,1.132,0,0,1,1.142.065l2.855,2.835a1.03,1.03,0,0,1,.189,1.122l-.817,1.9a15.5,15.5,0,0,1,1.237,2.986l1.9.725a.944.944,0,0,1,.649.9l-.012,4a.939.939,0,0,1-.673.879l-1.883.709a15.3,15.3,0,0,1-1.228,3l.8,1.8a.991.991,0,0,1-.066,1.046l-3.079,3.08a.89.89,0,0,1-.868.039l-1.923-.86a12.464,12.464,0,0,1-2.947,1.218l-.692,1.782a1.091,1.091,0,0,1-1.1.815M189.259,29.5l2.564-.053.709-1.792a1.259,1.259,0,0,1,1.017-.668,24.783,24.783,0,0,0,3.287-1.335c.738-.24,1.571.5,2.286.743l1.918-1.845-.918-2.216a15.157,15.157,0,0,0,1.72-4.132,8.8,8.8,0,0,1,2.254-.985l-.021-2.694a10.233,10.233,0,0,1-2.222-.936,14.437,14.437,0,0,0-1.727-4.143l.941-2.272-1.832-1.816-1.782.749c-.76.319-1.867-.848-4.2-1.429a1.1,1.1,0,0,1-.753-.641l-.727-1.759L189.24,2.25l-.782,1.95c-.232.578-1.993.613-3.982,1.855a1.026,1.026,0,0,1-.956.026l-1.675-.72L180,7.173l.685,1.58a1.355,1.355,0,0,1-.148,1.373,14.46,14.46,0,0,0-1.395,3.494,11.987,11.987,0,0,1-2.206.924l.056,2.662c.651.36,1.655.392,2.111.976a19.468,19.468,0,0,0,1.464,3.465,1.452,1.452,0,0,1,.052,1.494L180,24.61l1.833,1.795,1.527-.68a1.328,1.328,0,0,1,1.264.033c2.184,1.364,3.525,1.007,3.948,2.052Z" transform="translate(-148.038 -0.302)" fill="#12263f"/>
        <path id="Trazado_1274362" data-name="Trazado 1274362" d="M91.741,278.977l-7.972.016c-.481,0-1.1-.363-1.1-.893l-.009-14.907a.913.913,0,0,1,.77-.933l8.312-.021a1.006,1.006,0,0,1,1.046,1.1l-.006,14.6a1.008,1.008,0,0,1-1.044,1.038m-.9-1.96,0-12.863-6.243.014.01,12.87Z" transform="translate(-69.936 -221.867)" fill="#12263f"/>
        <path id="Trazado_1274363" data-name="Trazado 1274363" d="M9.944,309.786l-7.974.005a1.039,1.039,0,0,1-1.107-1.046v-9.058a1.012,1.012,0,0,1,1.055-1.041h7.99c.482,0,1.068.338,1.068.879l0,9.385a1.035,1.035,0,0,1-1.034.876m-.9-1.966L9.034,300.6H2.81v7.245Z" transform="translate(-0.729 -252.669)" fill="#12263f"/>
        <path id="Trazado_1274364" data-name="Trazado 1274364" d="M222.759,39.557a9.492,9.492,0,1,1-8.449,10.594,9.48,9.48,0,0,1,8.449-10.594m-.451,2.015a7.539,7.539,0,0,0-5.992,8.922,7.568,7.568,0,0,0,14.855-2.9,7.545,7.545,0,0,0-8.863-6.026" transform="translate(-181.256 -33.424)" fill="#12263f"/>
        <path id="Trazado_1274365" data-name="Trazado 1274365" d="M257.717,79.813a3.269,3.269,0,0,1,3.475,2.993,3.28,3.28,0,0,1-6.526.66,3.245,3.245,0,0,1,3.051-3.654m-.294,2.01a1.354,1.354,0,0,0-.746,1.808,1.381,1.381,0,0,0,1.627.752,1.34,1.34,0,0,0,.891-1.767,1.378,1.378,0,0,0-1.773-.792" transform="translate(-215.441 -67.52)" fill="#12263f"/>
      </g>
    </g>
  </g>
</svg>
