<svg xmlns="http://www.w3.org/2000/svg" xmlns:xlink="http://www.w3.org/1999/xlink" width="96" height="96" viewBox="0 0 96 96">
  <defs>
    <clipPath id="clip-path">
      <rect id="Rectángulo_465381" data-name="Rectángulo 465381" width="56.905" height="60.524" fill="#12263f"/>
    </clipPath>
  </defs>
  <g id="Grupo_1211214" data-name="Grupo 1211214" transform="translate(-735.745 -9122)">
    <g id="Grupo_1188527" data-name="Grupo 1188527" transform="translate(-728.818 -89.375)">
      <g id="Grupo_1188526" data-name="Grupo 1188526">
        <path id="Trazado_1033015" data-name="Trazado 1033015" d="M96,47.778A48,48,0,1,1,48,0,47.889,47.889,0,0,1,96,47.778" transform="translate(1464.564 9211.818)" fill="#ebffe0"/>
        <path id="Trazado_1033017" data-name="Trazado 1033017" d="M374.691,757.713l-.2.008a.74.74,0,0,0,.2-.008" transform="translate(1131.201 8546.583)" fill="#ffe4b3"/>
        <path id="Trazado_1033018" data-name="Trazado 1033018" d="M342.621,99.876l-.041.008-.2.065Z" transform="translate(1158.943 9116.164)" fill="#ffe4b3"/>
        <path id="Trazado_1033019" data-name="Trazado 1033019" d="M80.427,94.229a41.8,41.8,0,0,1,3.407-5.117c1.022-1.43,2.127-2.505,3.131-3.67.537-.551,1.107-1.071,1.675-1.635l.874-.861.988-.831a42.841,42.841,0,0,1,4.961-3.764,41.965,41.965,0,0,1,13.287-5.271c2.094-.883,6.05-.794,8.661-1.11l1.013.241a10.76,10.76,0,0,1,2.869.112l-.062.048c1.352.041,2.866.258,3.531.345l-.065.044,1.614.3-.293.022c.584.083,1.175.16,1.758.273l1.713.445c.563.158,1.125.3,1.661.482l1.539.609-.086-.28c.528.23,1.016.432,1.475.614s.862.4,1.26.574c.789.36,1.5.656,2.2.952.67.348,1.328.692,2.036,1.091.352.2.724.405,1.1.655.365.267.748.556,1.154.877l-.078.015c.584.3,1.128.6,1.64.91.5.328.937.688,1.371,1.03s.841.692,1.24,1.036.737.747,1.1,1.116c1.459,1.488,2.808,3.078,4.708,5.018-.468-.49.081.3,0,.294l1.17,1.437c.378.466.69.941,1,1.325.6.777,1.085,1.276,1.291,1.172.965,1.557.633,1.359.611,1.646.155-.1,1.06,1.213,1.723,2.481-.123-.183-.23-.375-.366-.551.629,1.21,1.256,2.426,1.855,3.655.022-.3,0-.59.006-.887.8,2.036-.2.691.7,2.576l.282-.142a17.451,17.451,0,0,1,.66,1.962c.149.622.27,1.209.384,1.792s.232,1.161.334,1.775c.082.62.178,1.269.306,1.981a65.415,65.415,0,0,1,1.594,8.95,46.076,46.076,0,0,1-.056,9.144l-.122,1.132-.061.566-.114.554-.461,2.21a15.544,15.544,0,0,1-.611,2.151c-.235.7-.447,1.413-.7,2.1l-.917,1.986a15.794,15.794,0,0,1-.986,1.915,26.575,26.575,0,0,1-2.405,3.442l-.488.238c-.371-.042-1.515,2.672-2.094,2.736-.26.341-.5.7-.786,1.028-.306.207-.9.684-.493.186a15.244,15.244,0,0,0-1.439,1.5c-.362.233-.75.432-1.124.643-1.886,1.387-3.667,2.621-5.568,3.749a32.54,32.54,0,0,1-6.288,2.926,84.641,84.641,0,0,1-11.452,2.462,88.983,88.983,0,0,1-12.206.8,45.1,45.1,0,0,1-14.409-2.286,60.716,60.716,0,0,1-13.085-6.251,3.245,3.245,0,0,0-.941-.534c-.547-.444-1.073-.912-1.612-1.366l-.8-.684-.734-.756-1.464-1.513-1.305-1.648-.282-.351-.334-.414-.388-.593a30.9,30.9,0,0,1-2.157-3.593,19.02,19.02,0,0,1-1.14-2.368c-.33-.847-.729-1.693-1.031-2.571-.537-1.779-1.15-3.522-1.484-5.1-.737-3.134-1.067-5.386-1.434-4.806a9,9,0,0,0-.342,3.254,32.714,32.714,0,0,0,.235,3.691c.1.741.261,1.543.417,2.424l.257,1.376c.089.478.263.952.4,1.458l-.152-.184.594,1.688.284.79c.108.251.231.491.344.729.463.947.885,1.826,1.333,2.634a21.4,21.4,0,0,0,3.229,4.111,1.784,1.784,0,0,0,.4.825c.125.176.269.37.433.568l.571.57c.805.766,1.652,1.595,2.053,2.023l-.111-.044c1.3.842,2.4,1.97,3.665,2.881a19.571,19.571,0,0,0,1.875,1.371,18.278,18.278,0,0,0,1.994,1.056,1.437,1.437,0,0,1-.824-.28c.476.25.981.552,1.5.8l1.508.7a5.782,5.782,0,0,1,1.629.945,52.663,52.663,0,0,0,8.038,2.562,35.3,35.3,0,0,0,3.9.714,19.528,19.528,0,0,0,3.059.215l-.23.046c1.861-.034,2.378.217,4.442.228.11.043.254.072.23.085,2-.138,5.818.144,7.435-.04l.109.175c1.327-.056,2.653-.129,3.977-.254-.5.032-.992.051-1.489.064.476-.511,3.037.128,5.877-.6,2.716-.335,5.194-1.969,7.9-2.523,1.207-.6-1.012.7.839-.052.142.229-.842.433-.288.478,1.831-.715,3.164-.766,5.342-1.9l.173.141c2.745-1.622,5.5-2.536,7.062-4.051a11.272,11.272,0,0,1,2.334-1.51,6.512,6.512,0,0,0,2.206-1.86l1.162-.735c1.066-1.042.522-.972,1.707-2.111.073.2,1.45-1.5.96-.654a22.416,22.416,0,0,0,3.295-4.807l.715-1.4.664-1.49c.466-1.01,1.02-2.039,1.468-3.189a10.057,10.057,0,0,1,.5-2.224,8.237,8.237,0,0,0,.315-2.036,14.452,14.452,0,0,0,.561-2.093c.137-.854.25-1.355.229.04,0,.241-.115.649-.159.611l.122.361a7.593,7.593,0,0,0,.456-1.976c.082-.649.127-1.285.161-1.92a16.32,16.32,0,0,0,0-1.915c-.014-.646-.014-1.3.027-1.992-.1.815-.122,1.9-.229,1.168.022-.848.129-1.7.079-2.545l.188.528-.062-3.806-.183.538a14.58,14.58,0,0,0-.338-4.591c-.305-.907-.028,1.775-.375-.144-.183-1.216-.321-2.764-.647-4.361a42.437,42.437,0,0,0-1.2-4.783c-.126.352-.389-.456-.712-1.267l.157-.163c-.675-1.538-.754-1.834-.74-2.168-.006-.324-.006-.654-.744-2.155l.24.217c-.236-.219-.481-.431-.743-.635a5.9,5.9,0,0,1-1.04-2.11,5.285,5.285,0,0,0-1.329-2.239c.683,1.128-.082.747-.8-.692l.371.259a15.676,15.676,0,0,1-.958-1.511c.344.414.412.082-.359-1l.7.612-1.683-1.893a16.825,16.825,0,0,0-1.884-2.73c-.339-.437-.656-.847-.9-1.2a4.635,4.635,0,0,1-.547-.809s-.67-.8-1.451-1.67a10.827,10.827,0,0,0-1.245-1.2,5.941,5.941,0,0,0-.983-.726c.74.447-.892-1.2-.267-.908-.446-.326-1.367-.909-2.25-1.569-.443-.328-.882-.67-1.265-.992s-.751-.567-.984-.8l.217.116c-3.8-2.948-7.139-3.957-11.012-5.707.1.284-1.969-.613-1.542-.14-2.143-.493-4.016-1.2-5.637-1.553a12.427,12.427,0,0,0-2.157-.414,3.684,3.684,0,0,0-1.59.2c-1.971-.22-2.32-.46-3.349-.558L120,68.96l-2.376-.067c-.671,0-1.244.046-1.787.059-1.085.052-2.054.026-3.435.2a10.437,10.437,0,0,0-1.587.454,17.964,17.964,0,0,1-2.385.532c.753-.317-.233-.1-1.141.079.574-.138.745-.234-.477-.114-.157.085-.412.158-.642.259-.013-.01-.062-.007-.042-.031-1.478.474-1.2.452-.506.282-.028.035.038.05.263.037a24.548,24.548,0,0,0-2.782.662c-.9.288-1.609.567-1.753.457a35.975,35.975,0,0,0-10.14,5.994c-.441.135.207-.5,1.084-1.207l-2.188,1.655c-.116-.182,1.2-1.026,1.862-1.557a20.761,20.761,0,0,0-2.084,1.392c-.634.562-1.257,1.161-1.889,1.77-.653.589-1.238,1.265-1.861,1.931s-1.326,1.284-1.972,1.985l-.377.716-.167.156c.076.049-.374.78-.71,1.228-.484.3-.352-.321-1.44,1.221a13.658,13.658,0,0,0-1.677,2.391L78.264,92.33c.565-.883.486-.537.307-.124a19.579,19.579,0,0,0-1.119,1.89l-.268-.036c.192-.109-.035.463-.317,1.1a10.276,10.276,0,0,0-.585,1.559c-.38.413.421-1.4.439-1.656-.814,1.7-.957,2.147-1.158,2.572a28.127,28.127,0,0,0-1.045,2.615c-.511,1.944.351-.257.23.716-.606,1.652-.872,3.353-1.6,5.238l.4-.551c-.37,1.6-.562,2.9-.856,4.034-.241,1.149-.442,2.17-.741,3.245-.124,1.526-.078,2.893-.107,4.088.028,1.2.131,2.242.193,3.139a18.244,18.244,0,0,0,.314,2.278c.114.628.22,1.129.316,1.523.4,1.574.679,1.446.8.552a35.559,35.559,0,0,0,.3-3.815c.133-1.366.207-2.514.207-2.514a103.412,103.412,0,0,1,1.934-11.62l.71-2.76c.265-.942.6-1.9.928-2.918a47.962,47.962,0,0,1,2.887-6.659" transform="translate(1392.723 9142.481)" fill="#3a552a"/>
      </g>
    </g>
    <g id="Grupo_1212372" data-name="Grupo 1212372" transform="translate(752.829 9139.477)">
      <g id="Grupo_1212371" data-name="Grupo 1212371" clip-path="url(#clip-path)">
        <path id="Trazado_1274065" data-name="Trazado 1274065" d="M31.528,55.917c-1.081-1.084,1.842-2.005.189-3.855-1.129-.426-2.307-.126-2.3-1.385l.007-3.216a.962.962,0,0,1,.852-.99l1.4-.268c.265-.051.362-.468.317-.705a19.538,19.538,0,0,1-5.31.95.85.85,0,0,0-.835.866L25.84,59.575a.9.9,0,0,1-.933.941l-23.763,0A.93.93,0,0,1,.3,59.6L.089,53.9a91.737,91.737,0,0,1,.164-11,5.091,5.091,0,0,1,3.3-4.4,35.389,35.389,0,0,1,5.757-1.719,3.055,3.055,0,0,0,2.568-2.214c-2.1-1.718-3.032-4.168-3.619-6.745a15.535,15.535,0,0,1-.638-6.147c.334-2,1.412-3.466,3.476-3.4,2.626-3.51,6.648.121,12-.486a.839.839,0,0,1,.916.652,16.255,16.255,0,0,1,.547,6.37,7.564,7.564,0,0,1-1.059,3.1,10.532,10.532,0,0,1-3.522,6.65A2.76,2.76,0,0,0,21.7,36.537c5.281,1.637,10.382,1.561,13.883-3.019a29.347,29.347,0,0,0,2.245-3.435c.077-.136.268-.277.3-.391a3.361,3.361,0,0,1-.7-2.757,2.541,2.541,0,0,1-2.317-2.525l-.015-2.616a5.387,5.387,0,0,0-1.005-3.01L32.1,15.868c-3.129-4.6-2.522-11.39,2.719-14.32a12.439,12.439,0,0,1,12.023,0c5.236,2.931,5.86,9.68,2.655,14.41l-2.042,3.015a5.76,5.76,0,0,0-.9,3.288l-.014,2.266c-.009,1.423-1.142,2.1-2.266,2.481-.018.938.044,2.186-1,2.738,2.465,2.414.146,5.032-1.417,7.922.736-.014,1.367-.006,1.508.577L43.788,40a2.016,2.016,0,0,0,1.378.534c.63-.1,1.721-1.442,2.38-.791l2.546,2.518c.758.749-.287,1.447-.708,2.494a2.4,2.4,0,0,0,.515,1.378c.989.436,2.333.179,2.324,1.2l-.035,3.752c0,.381-.548.6-.845.66l-1.44.3a2.513,2.513,0,0,0-.511,1.382c.08.761,1.592,1.636.659,2.575l-2.366,2.382c-.758.763-1.47-.281-2.519-.748a2.768,2.768,0,0,0-1.34.551c-.475.5-.009,2.337-1.379,2.34l-3.235.007a.919.919,0,0,1-.971-.729l-.337-1.655-1.432-.572-1.4.946a.853.853,0,0,1-1.095-.142Zm10.13-41.9c.12-2.237.953-5.148,2.753-5.907a1.785,1.785,0,0,1,1.866.226c1.862,1.561.031,5.936-3.023,7.015l.011,6.485,1.615-.029a7.809,7.809,0,0,1,1.468-4.247L47.982,15.2c2.925-4.227,2.343-10.094-2.369-12.4a10.916,10.916,0,0,0-9.458-.059c-4.826,2.272-5.4,8.24-2.541,12.372l1.7,2.448a7.942,7.942,0,0,1,1.474,4.247h1.625l-.022-6.473a5.843,5.843,0,0,1-3.741-5.328,2.052,2.052,0,0,1,1.008-1.857,1.967,1.967,0,0,1,2.167.3c1.551,1.278,1.987,3.563,2.216,5.587a3.4,3.4,0,0,0,1.621-.022M36.37,9.646a3.855,3.855,0,0,0,1.789,3.663c-.032-1.384-.7-3.45-1.789-3.663m8.623.034a4.967,4.967,0,0,0-1.51,3.619c2.062-1.237,2.078-4.041,1.51-3.619M41.585,21.762l-.015-5.985-1.486,0V21.8a3.374,3.374,0,0,0,1.5-.035m-24.706,2.2,3.127-.623a2.618,2.618,0,0,1,2.873,1.314,14.1,14.1,0,0,0-.321-5.12,17.288,17.288,0,0,1-2.793-.1l-4.942-1.012a2.247,2.247,0,0,0-2.633,1.235c-.232.481-.8.381-1.255.319-1.69-.232-2.084,3-1.491,5.275a3.122,3.122,0,0,1,1.284-1.675c1.407-.688,2.96,1.028,6.152.392m27.448,1.192c.586,0,.628-1.118.523-1.608l-8.036,0c-.128.58-.03,1.639.578,1.636ZM21.806,27.6a3.244,3.244,0,0,0-.787-2.46c-.823-.422-1.9.138-2.734.29a11.173,11.173,0,0,1-5.09.11,6.076,6.076,0,0,0-1.814-.445A15.571,15.571,0,0,1,10,27.675c.382,3.053,2.7,6.61,5.711,6.749,3.226.149,5.758-3.5,6.091-6.824m20.577.679c.341-.219.259-1.045.135-1.329l-3.366,0c-.179.341-.212,1.312.235,1.371a8.363,8.363,0,0,0,3-.046M31.716,43.82c-.368-.531-.612-1.046-.286-1.374l2.683-2.708c.649-.655,1.745.691,2.383.792A2.04,2.04,0,0,0,37.875,40l.415-1.761c.138-.585.838-.571,1.458-.527a22.333,22.333,0,0,0,2.891-5.236c.3-.868-.522-1.677-1.082-1.908a1.807,1.807,0,0,0-2.241.368,31.076,31.076,0,0,1-3.039,4.357c-3.953,4.5-9.318,4.571-14.874,2.911a7.355,7.355,0,0,1-4.628,2.687l0,17.94,7.393,0V47.3a2.542,2.542,0,0,1,2.419-2.517,18.675,18.675,0,0,0,5.131-.96M19.872,37.376a4.565,4.565,0,0,1-1.394-1.911,5.25,5.25,0,0,1-5.066.014,6.953,6.953,0,0,1-1.406,1.913,5.213,5.213,0,0,0,3.936,1.856,5.291,5.291,0,0,0,3.93-1.872m-13.807,8.8c0-.542.649-.722.934-.671a.878.878,0,0,1,.729.891V58.828h7.364V40.886A7.4,7.4,0,0,1,10.429,38.2L5.385,39.571A7.668,7.668,0,0,0,2.7,41.04a4.977,4.977,0,0,0-.858,2.9,145.767,145.767,0,0,0,.112,14.894l4.089-.012ZM39.731,58.8a9.513,9.513,0,0,0,2.194-.04c.142-.554.057-1.413.5-1.8a15.535,15.535,0,0,1,2.9-1.267,10.831,10.831,0,0,1,1.6,1.018l1.512-1.534c-.273-.513-.894-1-.919-1.6a9.825,9.825,0,0,1,1.179-2.932,4.535,4.535,0,0,1,1.842-.457l-.051-2.182c-.572-.139-1.521-.056-1.844-.6a8.713,8.713,0,0,1-1.107-2.728c-.106-.623.675-1.159.9-1.672l-1.506-1.53c-.54.26-1.078.987-1.716.932a10.069,10.069,0,0,1-2.732-1.156c-.545-.348-.39-1.3-.572-1.849H39.748c-.177.551-.025,1.5-.568,1.847a9.726,9.726,0,0,1-2.738,1.154c-.629.068-1.176-.663-1.719-.924l-1.509,1.494.859,1.32c.271.416-.016.9-.229,1.313-.7,1.355-.217,2.172-2.722,2.45v2.124c.568.153,1.376.055,1.809.479.407.4,1.4,2.789,1.159,3.181l-.858,1.387,1.505,1.476L36.317,55.7a12.442,12.442,0,0,1,2.915,1.286c.467.359.356,1.258.5,1.818" transform="translate(-0.001 0)" fill="#12263f"/>
        <path id="Trazado_1274066" data-name="Trazado 1274066" d="M178.581,7.857c.407.232.349.834.144,1.156a.833.833,0,0,1-1.135.2l-1.847-1.054a.886.886,0,0,1-.394-1.115.778.778,0,0,1,1.125-.388Z" transform="translate(-148.362 -5.542)" fill="#12263f"/>
        <path id="Trazado_1274067" data-name="Trazado 1274067" d="M334.238,9.184a.915.915,0,0,1-1.185-.159.889.889,0,0,1,.271-1.28l1.873-1.06a.83.83,0,0,1,1.125.154c.2.272.3.92-.118,1.17Z" transform="translate(-281.757 -5.532)" fill="#12263f"/>
        <path id="Trazado_1274068" data-name="Trazado 1274068" d="M164.126,61l-2.087,0c-.551,0-.9-.257-.95-.75a.813.813,0,0,1,.829-.928l2.109-.012a.865.865,0,0,1,.939.654.81.81,0,0,1-.84,1.032" transform="translate(-136.341 -50.205)" fill="#12263f"/>
        <path id="Trazado_1274069" data-name="Trazado 1274069" d="M348.045,61.011l-2.089.007a.86.86,0,0,1-.96-.755.835.835,0,0,1,.838-.929l2.112-.007a.864.864,0,0,1,.938.653.8.8,0,0,1-.838,1.032" transform="translate(-291.997 -50.213)" fill="#12263f"/>
        <path id="Trazado_1274070" data-name="Trazado 1274070" d="M176.469,107.644a.815.815,0,0,1-1.1-.259.84.84,0,0,1,.224-1.153l1.947-1.129a.9.9,0,0,1,1.086.1.85.85,0,0,1-.08,1.217Z" transform="translate(-148.317 -88.846)" fill="#12263f"/>
        <path id="Trazado_1274071" data-name="Trazado 1274071" d="M336.028,106.2a.828.828,0,0,1,.328,1.076.794.794,0,0,1-1.1.388l-2.213-1.31c-.347-.205-.244-.9,0-1.15a.9.9,0,0,1,1.093-.1Z" transform="translate(-281.696 -88.84)" fill="#12263f"/>
        <path id="Trazado_1274072" data-name="Trazado 1274072" d="M230.565,279.112a6.243,6.243,0,1,1-5.307,7.169,6.2,6.2,0,0,1,5.307-7.169m0,1.7a4.559,4.559,0,1,0,5.323,3.592,4.54,4.54,0,0,0-5.323-3.592" transform="translate(-190.592 -236.188)" fill="#12263f"/>
      </g>
    </g>
  </g>
</svg>
