<svg xmlns="http://www.w3.org/2000/svg" xmlns:xlink="http://www.w3.org/1999/xlink" width="128" height="128" viewBox="0 0 128 128">
  <defs>
    <clipPath id="clip-path">
      <rect id="Rectángulo_459899" data-name="Rectángulo 459899" width="128" height="128" fill="none"/>
    </clipPath>
    <clipPath id="clip-path-2">
      <rect id="Rectángulo_465357" data-name="Rectángulo 465357" width="56.11" height="56.154" fill="#12263f"/>
    </clipPath>
  </defs>
  <g id="Grupo_1212475" data-name="Grupo 1212475" transform="translate(-382.746 -10409.055)">
    <g id="Grupo_1188515" data-name="Grupo 1188515" transform="translate(382.746 10409.055)">
      <g id="Grupo_1188515-2" data-name="Grupo 1188515" clip-path="url(#clip-path)">
        <path id="Trazado_1033015" data-name="Trazado 1033015" d="M128,64A64,64,0,1,1,64,0a64,64,0,0,1,64,64" fill="#fff"/>
        <path id="Trazado_1033016" data-name="Trazado 1033016" d="M154.441,185.937l.625-.59c-.045-.02-.215.119-.625.59" transform="translate(-131.184 -157.435)" fill="#e4cbc1"/>
        <path id="Trazado_1033017" data-name="Trazado 1033017" d="M374.691,757.713l-.2.008a.74.74,0,0,0,.2-.008" transform="translate(-318.095 -643.61)" fill="#e4cbc1"/>
        <path id="Trazado_1033018" data-name="Trazado 1033018" d="M342.621,99.876l-.041.008-.2.065Z" transform="translate(-290.823 -84.836)" fill="#e4cbc1"/>
        <path id="Trazado_1033019" data-name="Trazado 1033019" d="M81.364,97.171a46.672,46.672,0,0,1,3.779-5.711c1.133-1.6,2.359-2.8,3.473-4.1.6-.615,1.228-1.2,1.858-1.825l.97-.96,1.1-.927a47.547,47.547,0,0,1,5.5-4.2,46.375,46.375,0,0,1,14.737-5.883c2.322-.985,6.71-.887,9.606-1.239l1.123.269a11.86,11.86,0,0,1,3.182.125l-.069.054c1.5.046,3.178.288,3.916.385l-.072.049,1.79.338-.325.025c.647.092,1.3.178,1.95.3l1.9.5c.625.176,1.248.337,1.843.538l1.707.68-.095-.313c.586.256,1.127.482,1.636.685s.956.45,1.4.64c.875.4,1.663.733,2.437,1.063.743.389,1.473.772,2.258,1.217.39.226.8.452,1.22.731.4.3.829.621,1.28.979l-.087.017c.647.335,1.251.674,1.819,1.016.55.366,1.04.768,1.521,1.149s.933.772,1.375,1.157.817.833,1.223,1.245c1.618,1.661,3.114,3.436,5.222,5.6-.519-.547.09.338,0,.328l1.3,1.6c.419.52.765,1.051,1.108,1.479.671.868,1.2,1.425,1.432,1.308,1.071,1.738.7,1.516.678,1.837.172-.117,1.176,1.354,1.91,2.769-.137-.2-.255-.419-.406-.615.7,1.351,1.393,2.708,2.057,4.079.025-.338,0-.658.006-.99.887,2.273-.217.771.773,2.875l.313-.159a19.563,19.563,0,0,1,.732,2.189c.165.694.3,1.349.426,2s.257,1.3.371,1.981c.091.692.2,1.416.339,2.21a73.426,73.426,0,0,1,1.768,9.989,51.748,51.748,0,0,1-.063,10.205l-.136,1.264-.068.631-.127.619-.512,2.466a17.435,17.435,0,0,1-.677,2.4c-.26.785-.5,1.577-.779,2.345l-1.018,2.217a17.671,17.671,0,0,1-1.094,2.137,29.664,29.664,0,0,1-2.668,3.842l-.541.266c-.411-.047-1.68,2.982-2.322,3.054-.289.381-.56.782-.872,1.147-.34.231-1,.763-.546.208a16.966,16.966,0,0,0-1.6,1.672c-.4.26-.832.482-1.247.718a74.424,74.424,0,0,1-6.176,4.184,35.986,35.986,0,0,1-6.974,3.266,93.37,93.37,0,0,1-12.7,2.748,98.083,98.083,0,0,1-13.538.888,49.735,49.735,0,0,1-15.981-2.551A67.158,67.158,0,0,1,89.2,160.415a3.592,3.592,0,0,0-1.043-.6c-.607-.5-1.191-1.018-1.788-1.524l-.892-.764-.814-.843L83.038,155l-1.448-1.839-.312-.392-.37-.462-.431-.661a34.528,34.528,0,0,1-2.393-4.01,21.288,21.288,0,0,1-1.264-2.643c-.367-.945-.809-1.89-1.144-2.87-.6-1.985-1.275-3.931-1.646-5.694-.817-3.5-1.184-6.012-1.59-5.364a10.1,10.1,0,0,0-.38,3.632,36.74,36.74,0,0,0,.261,4.12c.111.827.29,1.722.463,2.705l.285,1.536c.1.534.292,1.062.445,1.627l-.169-.205L74,146.362l.315.882c.12.281.257.548.381.813.513,1.057.982,2.038,1.479,2.94a23.866,23.866,0,0,0,3.582,4.589,2,2,0,0,0,.442.92c.138.2.3.413.48.634l.634.637c.893.855,1.832,1.78,2.277,2.258l-.123-.049c1.44.94,2.657,2.2,4.065,3.215a21.712,21.712,0,0,0,2.08,1.531,20.226,20.226,0,0,0,2.212,1.179,1.586,1.586,0,0,1-.914-.312c.528.279,1.088.616,1.669.891l1.672.779a6.405,6.405,0,0,1,1.806,1.055,58.146,58.146,0,0,0,8.915,2.859,38.937,38.937,0,0,0,4.323.8,21.527,21.527,0,0,0,3.393.24l-.255.051c2.064-.038,2.637.242,4.926.254.122.048.282.081.255.1,2.224-.154,6.453.16,8.246-.044l.121.2c1.471-.063,2.943-.144,4.411-.283-.55.035-1.1.057-1.651.072.528-.57,3.368.143,6.519-.667,3.013-.374,5.76-2.2,8.767-2.816,1.338-.666-1.123.779.93-.058.158.256-.934.483-.32.533,2.031-.8,3.509-.855,5.925-2.117l.192.158c3.044-1.81,6.1-2.831,7.832-4.521a12.491,12.491,0,0,1,2.589-1.686,7.231,7.231,0,0,0,2.446-2.076l1.289-.82c1.182-1.163.579-1.085,1.894-2.356.081.221,1.608-1.677,1.065-.73a25.026,25.026,0,0,0,3.654-5.365l.793-1.559.736-1.663c.517-1.127,1.131-2.276,1.628-3.56a11.286,11.286,0,0,1,.554-2.482,9.248,9.248,0,0,0,.349-2.272,16.21,16.21,0,0,0,.622-2.336c.152-.953.277-1.513.255.045,0,.268-.128.724-.177.682l.135.4a8.52,8.52,0,0,0,.506-2.205c.091-.724.141-1.434.179-2.142a18.33,18.33,0,0,0,0-2.137c-.016-.721-.015-1.456.03-2.224-.107.909-.136,2.118-.254,1.3.024-.946.144-1.9.088-2.841l.208.59-.069-4.248-.2.6a16.372,16.372,0,0,0-.374-5.124c-.338-1.012-.031,1.981-.416-.161-.2-1.358-.356-3.084-.717-4.868a47.607,47.607,0,0,0-1.326-5.338c-.14.392-.431-.509-.79-1.414l.174-.182c-.748-1.716-.836-2.047-.821-2.419-.007-.362-.007-.729-.825-2.405l.267.242c-.262-.244-.534-.481-.824-.708a6.605,6.605,0,0,1-1.153-2.355,5.909,5.909,0,0,0-1.474-2.5c.758,1.259-.091.834-.892-.773l.412.289a17.513,17.513,0,0,1-1.063-1.687c.382.462.457.091-.4-1.112l.772.684L165.6,92.049A18.783,18.783,0,0,0,163.509,89c-.376-.488-.727-.946-1-1.338a5.175,5.175,0,0,1-.606-.9s-.743-.9-1.609-1.864a12.043,12.043,0,0,0-1.381-1.336,6.591,6.591,0,0,0-1.09-.81c.821.5-.989-1.34-.3-1.013-.495-.363-1.516-1.015-2.5-1.751-.491-.366-.978-.748-1.4-1.107s-.833-.633-1.091-.89l.241.13c-4.218-3.29-7.918-4.417-12.214-6.37.112.317-2.184-.685-1.71-.156-2.377-.551-4.454-1.343-6.252-1.734a13.7,13.7,0,0,0-2.393-.462,4.062,4.062,0,0,0-1.764.222c-2.186-.246-2.573-.514-3.715-.623l.531-.029-2.636-.075c-.744,0-1.38.051-1.982.066-1.2.058-2.278.029-3.809.226a11.52,11.52,0,0,0-1.761.507,19.819,19.819,0,0,1-2.645.594c.836-.354-.258-.107-1.266.089.637-.154.826-.261-.529-.127-.174.095-.456.176-.712.289-.014-.011-.069-.008-.047-.035-1.639.529-1.333.5-.561.314-.031.039.043.056.292.041a27.084,27.084,0,0,0-3.085.739c-.993.322-1.784.633-1.945.51A39.849,39.849,0,0,0,93.325,78.8c-.489.15.229-.557,1.2-1.347L92.1,79.3c-.129-.2,1.332-1.145,2.065-1.738a23.017,23.017,0,0,0-2.311,1.553c-.7.628-1.394,1.3-2.1,1.976-.724.657-1.373,1.412-2.064,2.155s-1.47,1.433-2.187,2.216l-.418.8-.185.174a4.4,4.4,0,0,1-.788,1.37c-.537.337-.39-.359-1.6,1.363a15.244,15.244,0,0,0-1.861,2.669l-1.695,3.217c.627-.986.539-.6.34-.138a21.883,21.883,0,0,0-1.241,2.11l-.3-.041c.213-.121-.039.517-.352,1.233a11.516,11.516,0,0,0-.648,1.74c-.422.46.467-1.565.487-1.848-.9,1.893-1.062,2.4-1.285,2.87-.185.49-.478.937-1.159,2.919-.567,2.169.389-.287.255.8-.673,1.844-.967,3.743-1.775,5.846l.442-.615c-.41,1.784-.623,3.233-.95,4.5-.267,1.282-.49,2.422-.822,3.621-.138,1.7-.086,3.229-.119,4.563.031,1.339.145,2.5.214,3.5a20.484,20.484,0,0,0,.348,2.542c.127.7.243,1.26.35,1.7.443,1.757.753,1.614.887.617a39.933,39.933,0,0,0,.33-4.258c.147-1.525.229-2.806.229-2.806a116.086,116.086,0,0,1,2.145-12.969l.788-3.08c.294-1.051.671-2.117,1.03-3.257a53.709,53.709,0,0,1,3.2-7.432" transform="translate(-61.023 -58.519)" fill="#3a552a"/>
      </g>
    </g>
    <g id="Grupo_1188516" data-name="Grupo 1188516" transform="translate(-1.994 2008.058)">
      <rect id="Rectángulo_459838" data-name="Rectángulo 459838" width="66" height="66" transform="translate(415.74 8431.997)" fill="#fff"/>
      <g id="Grupo_1212321" data-name="Grupo 1212321" transform="translate(417.884 8435.386)">
        <g id="Grupo_1212320" data-name="Grupo 1212320" clip-path="url(#clip-path-2)">
          <path id="Trazado_1273894" data-name="Trazado 1273894" d="M21.481,28.44c-.079-.8.343-1.3.953-1.3.707,0,.952.521.973,1.209a7.153,7.153,0,0,1-2.015,5.372,6.445,6.445,0,0,1,5.715,6.312l.027,7.617a.959.959,0,0,1-.947.981.94.94,0,0,1-.946-.982l-.019-7.624a4.555,4.555,0,0,0-2.553-3.968l-1.16,4.3a.917.917,0,0,1-1.262.727l-3.3-1.61c-.21-.1-.58.107-.766.256a4.306,4.306,0,0,1,.637,2.1l.058,4.978a4.87,4.87,0,0,1,4.577,1.772l.056-4.654a.906.906,0,0,1,.941-.892.924.924,0,0,1,.938.894l.01,6.587L30.9,50.5a4.366,4.366,0,0,1-.971-2.755l.02-2.089c0-.522.46-.719.874-.732a.85.85,0,0,1,.951.8l.018,1.95A2.831,2.831,0,0,0,34.638,50.5l10.248.005-.018-8.537a2.738,2.738,0,0,0-2.743-2.69l-7.633.022A2.781,2.781,0,0,0,31.787,42.1a.915.915,0,0,1-.84.92c-.338.044-.96-.235-.992-.73a4.618,4.618,0,0,1,4.588-4.871l1.623-.023a6.666,6.666,0,0,1,5.1-3.685,6.824,6.824,0,0,1-2-5.009,8.527,8.527,0,0,1-2.816-6.177l0-5.683a.9.9,0,0,1,.877-.917h6.6l0-14.051H15.909L15.9,12.326a.944.944,0,1,1-1.887,0l0-11.342A.942.942,0,0,1,14.964,0H44.885a.913.913,0,0,1,.94.858l.016,15.059,3.469.037a6.506,6.506,0,0,1,5.857,6.4.936.936,0,1,1-1.858.006,4.543,4.543,0,0,0-4.338-4.546l-10.607-.07-.014,4.474a6.5,6.5,0,0,0,.882,3.488l.069-1.517a.83.83,0,0,1,.869-.785,4.536,4.536,0,0,0,3.849-2.279,1.092,1.092,0,0,1,.871-.51c1.005,0,1.751,2.758,4.431,2.772l2.089.011a.893.893,0,0,1,.95.858l0,5.029a6.617,6.617,0,0,1-1.953,4.43A6.484,6.484,0,0,1,56.1,40.1l.014,11.388c0,.6-.548.925-1.171.925H1.17a1.026,1.026,0,0,1-1.149-.8.976.976,0,0,1,.942-1.14A4.357,4.357,0,0,1,0,47.743l0-5.707a4.651,4.651,0,0,1,4.742-4.624l2.434,0a6.6,6.6,0,0,1,5.106-3.7,6.552,6.552,0,0,1-2-4.6l-.014-4.781a.893.893,0,0,1,.88-.913,4.555,4.555,0,0,0,3.857-2.265,1.02,1.02,0,0,1,1.814.045A4.357,4.357,0,0,0,20.564,23.4l1.806-.007a.917.917,0,0,1,1.01.856.884.884,0,0,1-.868.971L19.82,25.2a5.719,5.719,0,0,1-3.962-2.088,5.882,5.882,0,0,1-3.689,2.065l.015,4.09A4.583,4.583,0,0,0,17.2,33.65a4.681,4.681,0,0,0,4.276-5.21m29,.753.024-3.988a6.284,6.284,0,0,1-5.622-2.1,6.257,6.257,0,0,1-3.716,2.08l-.016,3.775a4.689,4.689,0,0,0,4.626,4.707,4.594,4.594,0,0,0,4.7-4.474M18,35.44a5.872,5.872,0,0,1-2.348-.027l1.178,1.407A9.675,9.675,0,0,0,18,35.44m28.973.008a5.748,5.748,0,0,1-2.307-.041l1.147,1.478ZM15.282,37.989l-1.954-2.373a.5.5,0,0,0-.524-.051l.6,2.029c1.037.307,1.483.93,1.88.4m4.7.851.885-3.28a.549.549,0,0,0-.523.047l-2.019,2.426Zm24.08-1.056-1.588-2a.518.518,0,0,0-.669-.2l.524,1.83Zm4.919,1.047.848-3.178c-.267-.236-.5-.093-.7.153l-1.8,2.228ZM11.33,37.379l-.35-1.318a4.4,4.4,0,0,0-1.532,1.281Zm28.988-.016a3.829,3.829,0,0,0-.378-1.282,3.836,3.836,0,0,0-1.475,1.252,6.067,6.067,0,0,0,1.853.03m10.15,10.3.026-3.607a.94.94,0,1,1,1.875-.087l.006,6.516,1.869,0-.015-10.316a4.609,4.609,0,0,0-2.574-4.136l-1.189,4.4a.963.963,0,0,1-1.291.634l-3.159-1.541a4.839,4.839,0,0,1,.741,2.584l.036,4.681a5.168,5.168,0,0,1,3.674.866M14.959,50.5l0-8.532a2.786,2.786,0,0,0-2.763-2.689l-7.63.023a2.755,2.755,0,0,0-2.693,2.8v5.565a2.78,2.78,0,0,0,2.695,2.813Zm5.438-.012a2.743,2.743,0,0,0-2.071-1.8l-1.487-.038v1.861Zm29.928,0a2.743,2.743,0,0,0-2.071-1.8l-1.487-.038v1.861Z" transform="translate(0 0.001)" fill="#12263f"/>
          <path id="Trazado_1273895" data-name="Trazado 1273895" d="M65.575,107.65a5.778,5.778,0,0,0-1.756-.057,10.344,10.344,0,0,1,.4,2.855l0,7.318a.948.948,0,0,1-.942.983.929.929,0,0,1-.941-.981l-.041-7.924a8.384,8.384,0,0,0-16.733-.148l-.058,8.07a.925.925,0,0,1-.939.982.957.957,0,0,1-.946-.98L43.644,110a10.141,10.141,0,0,1,7.911-9.668,10.294,10.294,0,0,1,11.517,5.317l2.98.016a.927.927,0,0,1,.846.491l1.985,3.954,1.338-2.665a.928.928,0,0,1,1.682.785l-2.181,4.4a.973.973,0,0,1-.774.508.943.943,0,0,1-.9-.508Z" transform="translate(-37.092 -85.083)" fill="#12263f"/>
          <path id="Trazado_1273896" data-name="Trazado 1273896" d="M55.035,364.434H1.221c-.662,0-1.062-.3-1.15-.8a.909.909,0,0,1,.836-1.1l54.249-.006a.911.911,0,0,1,.989.966.97.97,0,0,1-1.109.938" transform="translate(-0.05 -308.281)" fill="#12263f"/>
          <path id="Trazado_1273897" data-name="Trazado 1273897" d="M181.509,58.089a2.808,2.808,0,0,1-3.08,3.121,2.91,2.91,0,0,1-2.436-3.661,1.171,1.171,0,0,1-.952-.693.977.977,0,0,1,.5-1.17,3.737,3.737,0,1,1,6.378,0,.977.977,0,0,1,.527,1.036c-.132.852-1.025.428-.934,1.367m-1.926-2.515c.2,0,1.857-1.847.419-3.191a1.867,1.867,0,0,0-2.629.077c-1.308,1.385.322,3.139.547,3.136Zm.005,3.141a2.677,2.677,0,0,0,.072-1.184h-1.866a2.561,2.561,0,0,0,.084,1.246.99.99,0,0,0,.848.57.959.959,0,0,0,.861-.634" transform="translate(-148.803 -42.516)" fill="#12263f"/>
          <path id="Trazado_1273898" data-name="Trazado 1273898" d="M239.6,281.433a2.8,2.8,0,1,1-1.962,3.5,2.783,2.783,0,0,1,1.962-3.5m.518,1.781a.93.93,0,0,0-.641,1.308.914.914,0,0,0,1.154.5.993.993,0,0,0,.584-1.134.952.952,0,0,0-1.1-.672" transform="translate(-201.977 -239.237)" fill="#12263f"/>
          <path id="Trazado_1273899" data-name="Trazado 1273899" d="M164.431,37.4a.9.9,0,0,1,1.287.517.954.954,0,0,1-.483,1.168A.967.967,0,0,1,164,38.619a.91.91,0,0,1,.434-1.221" transform="translate(-139.384 -31.72)" fill="#12263f"/>
          <path id="Trazado_1273900" data-name="Trazado 1273900" d="M151.483,67.678a.93.93,0,1,1,.443,1.806.93.93,0,0,1-.443-1.806" transform="translate(-128.21 -57.517)" fill="#12263f"/>
          <path id="Trazado_1273901" data-name="Trazado 1273901" d="M238.124,68.794a.92.92,0,0,1,1.2.581.956.956,0,0,1-.609,1.2.916.916,0,0,1-1.13-.536.93.93,0,0,1,.539-1.246" transform="translate(-201.968 -58.447)" fill="#12263f"/>
          <path id="Trazado_1273902" data-name="Trazado 1273902" d="M94.236,181.459a.936.936,0,0,1,1.28.527.916.916,0,0,1-.505,1.149.956.956,0,0,1-1.234-.433.9.9,0,0,1,.46-1.243" transform="translate(-79.665 -154.237)" fill="#12263f"/>
          <path id="Trazado_1273903" data-name="Trazado 1273903" d="M119.236,181.459a.936.936,0,0,1,1.28.527.916.916,0,0,1-.505,1.149.956.956,0,0,1-1.234-.433.9.9,0,0,1,.46-1.243" transform="translate(-100.924 -154.237)" fill="#12263f"/>
          <path id="Trazado_1273904" data-name="Trazado 1273904" d="M195.489,24.9a.919.919,0,0,1,1.063.674.948.948,0,0,1-.669,1.138.927.927,0,1,1-.395-1.812" transform="translate(-165.586 -21.162)" fill="#12263f"/>
          <path id="Trazado_1273905" data-name="Trazado 1273905" d="M225.735,38.284a.929.929,0,1,1,.842,1.656.942.942,0,0,1-1.229-.359.9.9,0,0,1,.387-1.3" transform="translate(-191.52 -32.49)" fill="#12263f"/>
          <path id="Trazado_1273906" data-name="Trazado 1273906" d="M39.6,281.425a2.775,2.775,0,0,1,3.428,1.968,2.8,2.8,0,0,1-5.392,1.528,2.771,2.771,0,0,1,1.964-3.5m.516,1.781a.927.927,0,0,0-.641,1.31A.894.894,0,0,0,40.61,285a.962.962,0,0,0,.6-1.129.95.95,0,0,0-1.1-.669" transform="translate(-31.906 -239.229)" fill="#12263f"/>
          <path id="Trazado_1273907" data-name="Trazado 1273907" d="M288.013,181.47a.925.925,0,1,1-.3,1.318.936.936,0,0,1,.3-1.318" transform="translate(-244.528 -154.211)" fill="#12263f"/>
          <path id="Trazado_1273908" data-name="Trazado 1273908" d="M313.013,181.47a.925.925,0,1,1-.3,1.318.936.936,0,0,1,.3-1.318" transform="translate(-265.787 -154.211)" fill="#12263f"/>
        </g>
      </g>
    </g>
  </g>
</svg>
