<svg xmlns="http://www.w3.org/2000/svg" xmlns:xlink="http://www.w3.org/1999/xlink" width="84" height="84" viewBox="0 0 84 84">
  <defs>
    <clipPath id="clip-path">
      <rect id="Rectángulo_465380" data-name="Rectángulo 465380" width="51.529" height="51.385" fill="#12263f"/>
    </clipPath>
  </defs>
  <g id="Grupo_1211211" data-name="Grupo 1211211" transform="translate(-705.629 -410)">
    <g id="Grupo_1188476" data-name="Grupo 1188476" transform="translate(2.841 -1273.207)">
      <g id="Grupo_1185067" data-name="Grupo 1185067" transform="translate(719.227 1696)">
        <path id="Trazado_997620" data-name="Trazado 997620" d="M133.124,646.71a15.477,15.477,0,1,0-14.332-.01" transform="translate(-99.168 -604.804)" fill="#3a552a" stroke="#000" stroke-miterlimit="10" stroke-width="2"/>
        <rect id="Rectángulo_454823" data-name="Rectángulo 454823" width="14.333" height="4.288" transform="translate(19.625 41.893)" fill="#3a552a" stroke="#000" stroke-miterlimit="10" stroke-width="2"/>
        <rect id="Rectángulo_454824" data-name="Rectángulo 454824" width="14.333" height="4.288" transform="translate(19.625 46.181)" fill="#3a552a" stroke="#000" stroke-miterlimit="10" stroke-width="2"/>
        <path id="Trazado_997621" data-name="Trazado 997621" d="M135.492,688.628h-6.283a4.025,4.025,0,0,1-4.025-4.025v-.263h14.333v.263A4.025,4.025,0,0,1,135.492,688.628Z" transform="translate(-105.559 -633.871)" fill="#3a552a" stroke="#000" stroke-miterlimit="10" stroke-width="2"/>
        <line id="Línea_3231" data-name="Línea 3231" y1="7.578" transform="translate(26.797)" fill="none" stroke="#000" stroke-miterlimit="10" stroke-width="2"/>
        <line id="Línea_3232" data-name="Línea 3232" x1="4.454" y1="6.13" transform="translate(10.236 5.387)" fill="none" stroke="#000" stroke-miterlimit="10" stroke-width="2"/>
        <line id="Línea_3233" data-name="Línea 3233" x1="7.2" y1="2.336" transform="translate(0 19.477)" fill="none" stroke="#000" stroke-miterlimit="10" stroke-width="2"/>
        <line id="Línea_3234" data-name="Línea 3234" x1="7.2" y2="2.341" transform="translate(0 34.55)" fill="none" stroke="#000" stroke-miterlimit="10" stroke-width="2"/>
        <line id="Línea_3235" data-name="Línea 3235" x1="7.2" y1="2.341" transform="translate(46.398 34.55)" fill="none" stroke="#000" stroke-miterlimit="10" stroke-width="2"/>
        <line id="Línea_3236" data-name="Línea 3236" x1="7.2" y2="2.336" transform="translate(46.398 19.477)" fill="none" stroke="#000" stroke-miterlimit="10" stroke-width="2"/>
        <line id="Línea_3237" data-name="Línea 3237" x1="4.454" y2="6.125" transform="translate(38.91 5.387)" fill="none" stroke="#000" stroke-miterlimit="10" stroke-width="2"/>
        <path id="Trazado_997622" data-name="Trazado 997622" d="M119,638.208a10.647,10.647,0,0,1,4.484-8.693" transform="translate(-102.867 -610.025)" fill="#3a552a" stroke="#000" stroke-miterlimit="10" stroke-width="2"/>
        <line id="Línea_3238" data-name="Línea 3238" y2="8.634" transform="translate(26.797 33.258)" fill="none" stroke="#000" stroke-miterlimit="10" stroke-width="2"/>
        <path id="Trazado_997623" data-name="Trazado 997623" d="M133.157,647.74l2.669,3.47,3-3.47" transform="translate(-109.027 -617.951)" fill="#3a552a" stroke="#000" stroke-miterlimit="10" stroke-width="2"/>
        <path id="Trazado_997624" data-name="Trazado 997624" d="M132.431,691.931a3.07,3.07,0,1,0,6.14,0" transform="translate(-108.711 -637.173)" fill="#3a552a" stroke="#000" stroke-miterlimit="10" stroke-width="2"/>
      </g>
      <rect id="Rectángulo_459857" data-name="Rectángulo 459857" width="81" height="79" transform="translate(705.788 1688.207)" fill="#3a552a"/>
    </g>
    <g id="Grupo_1188599" data-name="Grupo 1188599" transform="translate(0.371 -1278)">
      <g id="Grupo_1185067-2" data-name="Grupo 1185067" transform="translate(718.472 1696)">
        <path id="Trazado_997620-2" data-name="Trazado 997620" d="M133.124,646.71a15.477,15.477,0,1,0-14.332-.01" transform="translate(-99.168 -604.804)" fill="#fff006" stroke="#000" stroke-miterlimit="10" stroke-width="2"/>
        <rect id="Rectángulo_454823-2" data-name="Rectángulo 454823" width="14.333" height="4.288" transform="translate(19.625 41.893)" fill="#fff006" stroke="#000" stroke-miterlimit="10" stroke-width="2"/>
        <rect id="Rectángulo_454824-2" data-name="Rectángulo 454824" width="14.333" height="4.288" transform="translate(19.625 46.181)" fill="#fff006" stroke="#000" stroke-miterlimit="10" stroke-width="2"/>
        <path id="Trazado_997621-2" data-name="Trazado 997621" d="M135.492,688.628h-6.283a4.025,4.025,0,0,1-4.025-4.025v-.263h14.333v.263A4.025,4.025,0,0,1,135.492,688.628Z" transform="translate(-105.559 -633.871)" fill="#fff006" stroke="#000" stroke-miterlimit="10" stroke-width="2"/>
        <line id="Línea_3231-2" data-name="Línea 3231" y1="7.578" transform="translate(26.797)" fill="none" stroke="#000" stroke-miterlimit="10" stroke-width="2"/>
        <line id="Línea_3232-2" data-name="Línea 3232" x1="4.454" y1="6.13" transform="translate(10.236 5.387)" fill="none" stroke="#000" stroke-miterlimit="10" stroke-width="2"/>
        <line id="Línea_3233-2" data-name="Línea 3233" x1="7.2" y1="2.336" transform="translate(0 19.477)" fill="none" stroke="#000" stroke-miterlimit="10" stroke-width="2"/>
        <line id="Línea_3234-2" data-name="Línea 3234" x1="7.2" y2="2.341" transform="translate(0 34.55)" fill="none" stroke="#000" stroke-miterlimit="10" stroke-width="2"/>
        <line id="Línea_3235-2" data-name="Línea 3235" x1="7.2" y1="2.341" transform="translate(46.398 34.55)" fill="none" stroke="#000" stroke-miterlimit="10" stroke-width="2"/>
        <line id="Línea_3236-2" data-name="Línea 3236" x1="7.2" y2="2.336" transform="translate(46.398 19.477)" fill="none" stroke="#000" stroke-miterlimit="10" stroke-width="2"/>
        <line id="Línea_3237-2" data-name="Línea 3237" x1="4.454" y2="6.125" transform="translate(38.91 5.387)" fill="none" stroke="#000" stroke-miterlimit="10" stroke-width="2"/>
        <path id="Trazado_997622-2" data-name="Trazado 997622" d="M119,638.208a10.647,10.647,0,0,1,4.484-8.693" transform="translate(-102.867 -610.025)" fill="#fff006" stroke="#000" stroke-miterlimit="10" stroke-width="2"/>
        <line id="Línea_3238-2" data-name="Línea 3238" y2="8.634" transform="translate(26.797 33.258)" fill="none" stroke="#000" stroke-miterlimit="10" stroke-width="2"/>
        <path id="Trazado_997623-2" data-name="Trazado 997623" d="M133.157,647.74l2.669,3.47,3-3.47" transform="translate(-109.027 -617.951)" fill="#fff006" stroke="#000" stroke-miterlimit="10" stroke-width="2"/>
        <path id="Trazado_997624-2" data-name="Trazado 997624" d="M132.431,691.931a3.07,3.07,0,1,0,6.14,0" transform="translate(-108.711 -637.173)" fill="#fff006" stroke="#000" stroke-miterlimit="10" stroke-width="2"/>
      </g>
      <rect id="Rectángulo_459857-2" data-name="Rectángulo 459857" width="80" height="80" transform="translate(705.258 1688)" fill="#fff006"/>
    </g>
    <g id="Grupo_1212370" data-name="Grupo 1212370" transform="translate(719.865 424.308)">
      <g id="Grupo_1212369" data-name="Grupo 1212369" clip-path="url(#clip-path)">
        <path id="Trazado_1274063" data-name="Trazado 1274063" d="M29.111,50.044l-3.219.878a25.287,25.287,0,0,1-12.914-.876A25.57,25.57,0,0,1,1.744,48.835a.8.8,0,0,1-.461-.739l.013-6.4c0-1.976,2.126-3.505,4.153-3.736a5.027,5.027,0,0,1,7.3-6.6l.033-4.913a7.358,7.358,0,0,1-5.378.232,3.319,3.319,0,0,1-1.758-2.223,2.368,2.368,0,0,1-2.085-2.706,2.257,2.257,0,0,1,.812-1.667c-1.179-2.914-3.9-6.255-4.281-9a9.849,9.849,0,1,1,19.558-.112c-.232,1.833-1.251,3.364-2.1,4.976l4.406.016L22,11.1a4.285,4.285,0,0,1,4.073-4.225l12.1-.009a4.411,4.411,0,0,1,4.171,4.51l-.007,4.586,6.653,0a2.472,2.472,0,0,1,2.532,2.432l.014,24a2.488,2.488,0,0,1-2.424,2.565l-8.121.04-.058,3.324c-.008.482-.6.583-.974.7a26.23,26.23,0,0,1-10.842,1.026m-15.252-30.4c1.251-3.213,3.589-5.762,4.294-8.952a8.312,8.312,0,1,0-16.542,0c.285,2.545,3.205,6.091,4.269,8.974Zm23.21-8.361a.789.789,0,0,1,.773.831l0,3.837,2.939,0-.033-4.838a2.853,2.853,0,0,0-2.589-2.735l-12.1.053a2.827,2.827,0,0,0-2.524,2.805l-.026,4.72,2.972,0L26.5,11.96a.753.753,0,0,1,.742-.662Zm-.786,4.664v-3.1H28.056v3.109Zm.751,11.219v1.719l3.926-.015,4.967-5.014,4.015-4.091-.017-1.525a.8.8,0,0,0-.849-.72H16.639c-.5.894-.894,1.66-1.291,2.552a2.334,2.334,0,0,1,.822,1.527L23.4,28.873l3.183-.012.009-1.7A1.6,1.6,0,0,1,28.081,25.5l7.376-.018a1.617,1.617,0,0,1,1.577,1.685m-22.623-4.4c.324-.426.317-1.285-.073-1.506l-8.963-.025a1.329,1.329,0,0,0-.04,1.534ZM40.967,41.832l.023,1.59,8.115,0a1.091,1.091,0,0,0,.868-1.179L49.96,22l-8.4,8.427-4.54.021a9.3,9.3,0,0,1-.141,2.577,5.118,5.118,0,0,1-.061,4.9c2.172.428,4.035,1.631,4.151,3.907m-12.847-3.9a5.033,5.033,0,0,1-.382-4.188,1.636,1.636,0,0,1-1.143-1.578V30.453l-3.874-.046-6.89-6.967a2.737,2.737,0,0,1-1.477.935l-.019,8.933a5.143,5.143,0,0,1-.227,4.656,10.4,10.4,0,0,1,2.224.652,5.024,5.024,0,1,1,9.013.42,7.821,7.821,0,0,1,2.774-1.105M12.349,24.339H7.328a.981.981,0,0,0,.768.929c1.661.482,4.352.279,4.254-.929m23.084,7.008.032-4.311-7.3.01.014,5.205a.4.4,0,0,0,.451-.1,5.114,5.114,0,0,1,6.8-.808M8.857,32.1a3.41,3.41,0,0,0-2.4,4.256,3.452,3.452,0,1,0,2.4-4.256m22.608.017a3.428,3.428,0,0,0-2.284,4.4,3.456,3.456,0,0,0,6.6-2.057,3.427,3.427,0,0,0-4.314-2.342m-11.238,1.11a3.449,3.449,0,1,0,4.081,2.616,3.42,3.42,0,0,0-4.081-2.616M6.151,48.356a23.34,23.34,0,0,0,6.278.179l.029-5.712a3.685,3.685,0,0,1,2.267-3.1,3.474,3.474,0,0,0-1.964-.27,5.173,5.173,0,0,1-5.976.037c-1.662-.26-3.93.713-3.929,2.332l0,5.781,1.681.4.007-4.337a.752.752,0,0,1,.819-.833.78.78,0,0,1,.743.869ZM37.7,48l1.713-.467,0-5.416c0-1.958-2.271-2.924-3.977-2.57a5.323,5.323,0,0,1-6-.108,4.62,4.62,0,0,0-2.1.33c1.013.729,2.048,1.6,2.061,2.829l.064,5.906a21.863,21.863,0,0,0,6.663-.183l.04-4.782a.734.734,0,0,1,.9-.686.775.775,0,0,1,.631.84ZM24.613,44.813a.776.776,0,0,1,.8-.789.755.755,0,0,1,.757.822l.015,4.376a5.992,5.992,0,0,0,1.69-.506l.009-5.607c0-1.71-2.254-2.694-3.957-2.434a5.123,5.123,0,0,1-6-.075c-1.779-.107-3.913.859-3.915,2.378L14,48.751l1.7.443-.005-4.236c0-.5.2-.866.677-.933a.743.743,0,0,1,.877.651l.019,4.844a22.8,22.8,0,0,0,7.347.039Z" transform="translate(-0.001 0)" fill="#12263f"/>
        <path id="Trazado_1274064" data-name="Trazado 1274064" d="M51.625,46.858c-.687-.017-.748-.763-.728-1.234a2.925,2.925,0,0,1-2.089-2,.944.944,0,0,1,.239-.973.819.819,0,0,1,.86-.06c.26.13.318.437.472.8a1.586,1.586,0,0,0,2.451.276.773.773,0,0,0,.194-.758.721.721,0,0,0-.543-.531l-1.844-.435a2.349,2.349,0,0,1-1.689-1.259,2.582,2.582,0,0,1,.172-2.344,3.462,3.462,0,0,1,1.813-1.237,1.067,1.067,0,0,1,.228-1.027.857.857,0,0,1,1.013-.01,1.086,1.086,0,0,1,.267,1.066A2.73,2.73,0,0,1,54.6,39.395a.818.818,0,0,1-.723.986c-.648.04-.724-.412-.9-.973-.286-.94-1.8-1-2.43-.354a.792.792,0,0,0-.228.733c.237,1.178,3.429.462,4.108,2.313a2.569,2.569,0,0,1-2,3.474c.12.591-.146,1.3-.811,1.285" transform="translate(-41.813 -30.802)" fill="#12263f"/>
      </g>
    </g>
  </g>
</svg>
