<svg xmlns="http://www.w3.org/2000/svg" xmlns:xlink="http://www.w3.org/1999/xlink" width="187.711" height="123.276" viewBox="0 0 187.711 123.276">
  <defs>
    <clipPath id="clip-path">
      <rect id="Rectángulo_465315" data-name="Rectángulo 465315" width="69.484" height="93.626" fill="#12263f"/>
    </clipPath>
  </defs>
  <g id="Grupo_1212236" data-name="Grupo 1212236" transform="translate(-290.289 -754.117)">
    <g id="Grupo_1211006" data-name="Grupo 1211006" transform="translate(6.024 -8108.629)">
      <g id="Grupo_1204518" data-name="Grupo 1204518" transform="translate(289.277 8868.039)">
        <rect id="Rectángulo_455283" data-name="Rectángulo 455283" width="182.698" height="117.983" fill="#3a552a"/>
      </g>
    </g>
    <g id="Grupo_1211005" data-name="Grupo 1211005" transform="translate(1.012 -8113.922)">
      <g id="Grupo_1204518-2" data-name="Grupo 1204518" transform="translate(289.277 8868.039)">
        <rect id="Rectángulo_455283-2" data-name="Rectángulo 455283" width="183.422" height="118.45" fill="#ceffb3"/>
      </g>
    </g>
    <g id="Grupo_1212235" data-name="Grupo 1212235" transform="translate(347.258 766.529)">
      <g id="Grupo_1212234" data-name="Grupo 1212234" clip-path="url(#clip-path)">
        <path id="Trazado_1273613" data-name="Trazado 1273613" d="M16.5,70C13.53,72.552,11.27,70.439,8.394,68A6.547,6.547,0,0,0,4.129,65.98c-3-1.752-5.616-5.194-3.147-7.516A3.134,3.134,0,0,1,3.35,54.277L6.482,53.7A7.373,7.373,0,0,0,8.568,47.22a1.863,1.863,0,0,1,1.67-2.235l52.738-.027L64.8,41.5a1.973,1.973,0,0,0-1.56-3.118l-6.171-.561c-3.777-.343-3-5.213-8.961-5.617a19.786,19.786,0,0,1-7.55-1.958,5.828,5.828,0,0,1-3.26-5.457,5.2,5.2,0,0,0-.365-2.181,5.341,5.341,0,0,1-2.876-7.188c1.8-4.689,6.764-9.06,11.994-9.8-.584-1.655-2.2-2.172-3.87-1.887-2.2.376-3.855,1.9-5.569,3.292a18.231,18.231,0,0,1-6.239,2.857l-5.4,1.689c-1.02,3.339-2.91,7.868-6.162,8.469A6.944,6.944,0,0,1,12.6,24.606a6.1,6.1,0,0,0-2.636,5.82,1.752,1.752,0,0,1-1.8,1.73c-2.753.009-2.475-5.127.331-8.762a7.722,7.722,0,0,1,5.084-2.744c.927-.178,1.764-1.613,2.082-2.452.555-1.468,1.675-1.644,2.863-2.258,1.485-.767,2.223-3.266,2.7-4.8.659-2.127,2.085-2.933,4.068-3.554,2.93-.917,6.067-1.549,8.687-3.22,1.639-1.046,2.87-2.476,4.688-3.27A9.863,9.863,0,0,1,44.243.088,6.246,6.246,0,0,1,49.71,5.58a3.361,3.361,0,0,1-3.3,3.759c-5.064.319-11.442,8.327-8.161,9.864a4.9,4.9,0,0,1,2.646,4.846,3.057,3.057,0,0,0,2.251,3.4A25.485,25.485,0,0,0,49.3,28.7a9.156,9.156,0,0,1,5.179,2.1l2.87,3.174c2.623.962,5.854-.02,8.738,1.6a5.238,5.238,0,0,1,2.6,5.629c-.266,1.752-1.255,3.172-2.028,4.75.26,2.774,2.74,4.705.739,7.808l1.36,3.513c.553,1.429,1.073,3.086.449,4.589A4.572,4.572,0,0,1,62.981,64c-2.3-1.09-3.917-2.867-5.085-2.2a7.32,7.32,0,0,1,.688,4.181c-.511,3.423-3.943,3.285-4.285,4-.424.892,2.829,4.417.968,8.813-2.115,5,1.2,11.256-2.7,13.867A4.606,4.606,0,0,1,48,93.25c-2.5-1.24-2.389-4.794-3.511-7.735-1.264-3.31-5.043-.114-9.252-.836a5.243,5.243,0,0,1-4.249-3.729,3.561,3.561,0,0,1-2.847-3.657c-2.072-.071-1.943-2.254-2.919-3.237C23.063,71.874,19.444,70.785,16.5,70M55,65.311c.206-1.173-1.473-3.547-.453-5.264,1.409-2.371,4.591-2.589,6.8-1.267L64.6,60.726a1.061,1.061,0,0,0,1.115-.128c.224-.23.106-.642-.017-.962l-1.631-4.25a4.06,4.06,0,0,1,.456-4.122,12.885,12.885,0,0,0-1.1-2.592l-51.091,0c-.388,4.772-2.694,9.248-7.766,8.976a3.738,3.738,0,0,1-.723,3.278L5.18,62.369a8.785,8.785,0,0,1,4.383,1.877l4.119,3.262c1.269-2.341,4.3-.945,7.065-.137l30.826.114c1.372-1.633,3.274-1.313,3.425-2.173M48.167,84.8c.555,1.672.655,3.506,1.464,4.99.474.485,1.367-.6,1.35-1.3l-.142-5.868a11.346,11.346,0,0,1,.9-4.762c1.085-2.548-.236-4.253-1.136-6.7l-22.7.013a4.02,4.02,0,0,1,1.206,2.6c3.59.425,1.841,3.536,3.235,3.75a2.519,2.519,0,0,1,2.184,2.257c.26,2.208,3.715,1.137,6.352.629A6.131,6.131,0,0,1,48.167,84.8" transform="translate(-0.001 0)" fill="#12263f"/>
        <path id="Trazado_1273614" data-name="Trazado 1273614" d="M37.4,157.113A1.79,1.79,0,0,1,39.72,158.3a1.869,1.869,0,0,1-1.194,2.3,1.849,1.849,0,0,1-2.2-1.036,1.78,1.78,0,0,1,1.069-2.453" transform="translate(-27.707 -120.255)" fill="#12263f"/>
      </g>
    </g>
  </g>
</svg>
