<svg xmlns="http://www.w3.org/2000/svg" xmlns:xlink="http://www.w3.org/1999/xlink" width="84" height="84" viewBox="0 0 84 84">
  <defs>
    <clipPath id="clip-path">
      <rect id="Rectángulo_465338" data-name="Rectángulo 465338" width="55.946" height="56.13" fill="#12263f"/>
    </clipPath>
  </defs>
  <g id="Grupo_1211083" data-name="Grupo 1211083" transform="translate(-705.629 -410)">
    <g id="Grupo_1188476" data-name="Grupo 1188476" transform="translate(2.841 -1273.207)">
      <g id="Grupo_1185067" data-name="Grupo 1185067" transform="translate(719.227 1696)">
        <path id="Trazado_997620" data-name="Trazado 997620" d="M133.124,646.71a15.477,15.477,0,1,0-14.332-.01" transform="translate(-99.168 -604.804)" fill="#3a552a" stroke="#000" stroke-miterlimit="10" stroke-width="2"/>
        <rect id="Rectángulo_454823" data-name="Rectángulo 454823" width="14.333" height="4.288" transform="translate(19.625 41.893)" fill="#3a552a" stroke="#000" stroke-miterlimit="10" stroke-width="2"/>
        <rect id="Rectángulo_454824" data-name="Rectángulo 454824" width="14.333" height="4.288" transform="translate(19.625 46.181)" fill="#3a552a" stroke="#000" stroke-miterlimit="10" stroke-width="2"/>
        <path id="Trazado_997621" data-name="Trazado 997621" d="M135.492,688.628h-6.283a4.025,4.025,0,0,1-4.025-4.025v-.263h14.333v.263A4.025,4.025,0,0,1,135.492,688.628Z" transform="translate(-105.559 -633.871)" fill="#3a552a" stroke="#000" stroke-miterlimit="10" stroke-width="2"/>
        <line id="Línea_3231" data-name="Línea 3231" y1="7.578" transform="translate(26.797)" fill="none" stroke="#000" stroke-miterlimit="10" stroke-width="2"/>
        <line id="Línea_3232" data-name="Línea 3232" x1="4.454" y1="6.13" transform="translate(10.236 5.387)" fill="none" stroke="#000" stroke-miterlimit="10" stroke-width="2"/>
        <line id="Línea_3233" data-name="Línea 3233" x1="7.2" y1="2.336" transform="translate(0 19.477)" fill="none" stroke="#000" stroke-miterlimit="10" stroke-width="2"/>
        <line id="Línea_3234" data-name="Línea 3234" x1="7.2" y2="2.341" transform="translate(0 34.55)" fill="none" stroke="#000" stroke-miterlimit="10" stroke-width="2"/>
        <line id="Línea_3235" data-name="Línea 3235" x1="7.2" y1="2.341" transform="translate(46.398 34.55)" fill="none" stroke="#000" stroke-miterlimit="10" stroke-width="2"/>
        <line id="Línea_3236" data-name="Línea 3236" x1="7.2" y2="2.336" transform="translate(46.398 19.477)" fill="none" stroke="#000" stroke-miterlimit="10" stroke-width="2"/>
        <line id="Línea_3237" data-name="Línea 3237" x1="4.454" y2="6.125" transform="translate(38.91 5.387)" fill="none" stroke="#000" stroke-miterlimit="10" stroke-width="2"/>
        <path id="Trazado_997622" data-name="Trazado 997622" d="M119,638.208a10.647,10.647,0,0,1,4.484-8.693" transform="translate(-102.867 -610.025)" fill="#3a552a" stroke="#000" stroke-miterlimit="10" stroke-width="2"/>
        <line id="Línea_3238" data-name="Línea 3238" y2="8.634" transform="translate(26.797 33.258)" fill="none" stroke="#000" stroke-miterlimit="10" stroke-width="2"/>
        <path id="Trazado_997623" data-name="Trazado 997623" d="M133.157,647.74l2.669,3.47,3-3.47" transform="translate(-109.027 -617.951)" fill="#3a552a" stroke="#000" stroke-miterlimit="10" stroke-width="2"/>
        <path id="Trazado_997624" data-name="Trazado 997624" d="M132.431,691.931a3.07,3.07,0,1,0,6.14,0" transform="translate(-108.711 -637.173)" fill="#3a552a" stroke="#000" stroke-miterlimit="10" stroke-width="2"/>
      </g>
      <rect id="Rectángulo_459857" data-name="Rectángulo 459857" width="81" height="79" transform="translate(705.788 1688.207)" fill="#3a552a"/>
    </g>
    <g id="Grupo_1188599" data-name="Grupo 1188599" transform="translate(0.371 -1278)">
      <g id="Grupo_1185067-2" data-name="Grupo 1185067" transform="translate(718.472 1696)">
        <path id="Trazado_997620-2" data-name="Trazado 997620" d="M133.124,646.71a15.477,15.477,0,1,0-14.332-.01" transform="translate(-99.168 -604.804)" fill="#fff006" stroke="#000" stroke-miterlimit="10" stroke-width="2"/>
        <rect id="Rectángulo_454823-2" data-name="Rectángulo 454823" width="14.333" height="4.288" transform="translate(19.625 41.893)" fill="#fff006" stroke="#000" stroke-miterlimit="10" stroke-width="2"/>
        <rect id="Rectángulo_454824-2" data-name="Rectángulo 454824" width="14.333" height="4.288" transform="translate(19.625 46.181)" fill="#fff006" stroke="#000" stroke-miterlimit="10" stroke-width="2"/>
        <path id="Trazado_997621-2" data-name="Trazado 997621" d="M135.492,688.628h-6.283a4.025,4.025,0,0,1-4.025-4.025v-.263h14.333v.263A4.025,4.025,0,0,1,135.492,688.628Z" transform="translate(-105.559 -633.871)" fill="#fff006" stroke="#000" stroke-miterlimit="10" stroke-width="2"/>
        <line id="Línea_3231-2" data-name="Línea 3231" y1="7.578" transform="translate(26.797)" fill="none" stroke="#000" stroke-miterlimit="10" stroke-width="2"/>
        <line id="Línea_3232-2" data-name="Línea 3232" x1="4.454" y1="6.13" transform="translate(10.236 5.387)" fill="none" stroke="#000" stroke-miterlimit="10" stroke-width="2"/>
        <line id="Línea_3233-2" data-name="Línea 3233" x1="7.2" y1="2.336" transform="translate(0 19.477)" fill="none" stroke="#000" stroke-miterlimit="10" stroke-width="2"/>
        <line id="Línea_3234-2" data-name="Línea 3234" x1="7.2" y2="2.341" transform="translate(0 34.55)" fill="none" stroke="#000" stroke-miterlimit="10" stroke-width="2"/>
        <line id="Línea_3235-2" data-name="Línea 3235" x1="7.2" y1="2.341" transform="translate(46.398 34.55)" fill="none" stroke="#000" stroke-miterlimit="10" stroke-width="2"/>
        <line id="Línea_3236-2" data-name="Línea 3236" x1="7.2" y2="2.336" transform="translate(46.398 19.477)" fill="none" stroke="#000" stroke-miterlimit="10" stroke-width="2"/>
        <line id="Línea_3237-2" data-name="Línea 3237" x1="4.454" y2="6.125" transform="translate(38.91 5.387)" fill="none" stroke="#000" stroke-miterlimit="10" stroke-width="2"/>
        <path id="Trazado_997622-2" data-name="Trazado 997622" d="M119,638.208a10.647,10.647,0,0,1,4.484-8.693" transform="translate(-102.867 -610.025)" fill="#fff006" stroke="#000" stroke-miterlimit="10" stroke-width="2"/>
        <line id="Línea_3238-2" data-name="Línea 3238" y2="8.634" transform="translate(26.797 33.258)" fill="none" stroke="#000" stroke-miterlimit="10" stroke-width="2"/>
        <path id="Trazado_997623-2" data-name="Trazado 997623" d="M133.157,647.74l2.669,3.47,3-3.47" transform="translate(-109.027 -617.951)" fill="#fff006" stroke="#000" stroke-miterlimit="10" stroke-width="2"/>
        <path id="Trazado_997624-2" data-name="Trazado 997624" d="M132.431,691.931a3.07,3.07,0,1,0,6.14,0" transform="translate(-108.711 -637.173)" fill="#fff006" stroke="#000" stroke-miterlimit="10" stroke-width="2"/>
      </g>
      <rect id="Rectángulo_459857-2" data-name="Rectángulo 459857" width="80" height="80" transform="translate(705.258 1688)" fill="#fff006"/>
    </g>
    <g id="Grupo_1212282" data-name="Grupo 1212282" transform="translate(717.656 421.935)">
      <g id="Grupo_1212281" data-name="Grupo 1212281" clip-path="url(#clip-path)">
        <path id="Trazado_1273756" data-name="Trazado 1273756" d="M65.515,21.679a6.685,6.685,0,0,1,2.348-.36,2.529,2.529,0,0,1,2.295,3.157l-.347,1.442a5.25,5.25,0,0,1,2.1.058,2.545,2.545,0,0,1,1.858,3.381L71.6,34.751a4.164,4.164,0,0,1-2.174,2.191l-2.832,1.365a.747.747,0,0,1-1-.47.813.813,0,0,1,.354-1.014l3.168-1.6a2.642,2.642,0,0,0,1.144-1.535l1.967-4.927a.883.883,0,0,0-.676-1.18,3.452,3.452,0,0,0-3.6,1.28l-2.421,3.353-9.812,3.8-8.489,1.071a2.309,2.309,0,0,1-2.315-1.18,28.654,28.654,0,0,0-2.1,2.343c-.313.4-.718.6-1.155.344-.309-.184-.653-.732-.326-1.138a48.886,48.886,0,0,1,4.635-4.9,68.624,68.624,0,0,0,5.508-5.986.812.812,0,0,0-.227-1.155,4.315,4.315,0,0,0-5.451.536,36.661,36.661,0,0,1-6.047,5.038,50.754,50.754,0,0,1-10.244,5.05,10.178,10.178,0,0,0-6.057,6.833L22.5,46.014a.846.846,0,0,1-.977.5A.854.854,0,0,1,21,45.352l.946-3.14a11.845,11.845,0,0,1,5.866-7.238A21.328,21.328,0,1,1,60.957,8.136a.815.815,0,0,1-.194,1.242.87.87,0,0,1-1.171-.292A19.662,19.662,0,0,0,24.584,22.764a7.72,7.72,0,0,1,2.177-.965l1.5.077.133-1.527a4.619,4.619,0,0,1,2.789-4.095,4.558,4.558,0,0,1-.591-4.849,4.363,4.363,0,0,1,4.2-2.38l-.2-1.6a1.575,1.575,0,0,1,.756-1.63l2.41-1.252a2.047,2.047,0,0,1,2.123-.156l2.432,1.773a1.85,1.85,0,0,1,.844,1.692l-.5,5.218,1.09,1.376a4.866,4.866,0,0,0,1.417-.391,2.394,2.394,0,0,1,.387-1.976c.878-.889,1.96-1.49,2.874-2.322a2.087,2.087,0,0,1,2.593-.35,13.634,13.634,0,0,1,2.053,1.157l.474.719a4.351,4.351,0,0,1,4.127,7.17,4.312,4.312,0,0,1,2.807,3.487l.508,5.553a1.646,1.646,0,0,1-.506,1.406,2.039,2.039,0,0,1-1.742.321l-.069,3.86,1.766-.657a19.7,19.7,0,0,0,1.268-20.1.818.818,0,0,1,.259-1.034c.307-.183.936-.224,1.145.176a21.145,21.145,0,0,1,2.406,10.208M51.23,18.474a4.412,4.412,0,0,1,.843-6.617l-2.161-1.14-3.067,2.376a1.306,1.306,0,0,0-.06.64,1.844,1.844,0,0,1-1.829,2.092,1.845,1.845,0,0,1-2.311-.182l-1.381-1.686a1.66,1.66,0,0,1-.225-1.2l.475-5.148L38.99,5.76,36.222,7.217l.312,2.313a4.395,4.395,0,0,1,2.186,2.879A4.332,4.332,0,0,1,37.7,16.293a4.147,4.147,0,0,1,2.8,3.465l.5,5.906c.093,1.1-1.243,1.656-2.267,1.36L38.7,29.692a32.333,32.333,0,0,0,5.945-4.9,5.761,5.761,0,0,1,3.678-1.706,4.536,4.536,0,0,1,2.9-4.609M33.886,10.737a2.7,2.7,0,1,0,3.22,1.985,2.689,2.689,0,0,0-3.22-1.985M53.67,12.978a2.678,2.678,0,0,0-1.806,3.363,2.7,2.7,0,1,0,1.806-3.363M35.3,26.3l0,5.413,1.747-.962.036-4.658a.77.77,0,0,1,.749-.659l1.533-.033-.487-5.435a2.562,2.562,0,0,0-2.6-2.26l-3.618.01a2.7,2.7,0,0,0-2.637,2.725l-.412,4.97,1.472.009a.814.814,0,0,1,.839.823l.007,7.041,1.722-.758.044-6.518c0-.492.586-.692.951-.62a.833.833,0,0,1,.66.911m19.976,2.245v5.847l1.745-.648.006-5.268a.819.819,0,0,1,.854-.844l1.446-.009-.434-5.183a2.608,2.608,0,0,0-2.547-2.522l-3.932.016a2.645,2.645,0,0,0-2.386,3.225,5.08,5.08,0,0,1,2.6,1.3,2.56,2.56,0,0,1-.1,3.427l-.652.791,0,6.137,1.77-.179-.013-6.157a.827.827,0,0,1,.821-.916c.489,0,.828.364.828.988m11.184-.471A4.833,4.833,0,0,1,67.909,26.7l.615-2.485a.9.9,0,0,0-.555-1.184,3.114,3.114,0,0,0-2.594.7,22.04,22.04,0,0,1-2.337,7.634c.442-.126,1.175-.2,1.475-.612Zm-36.244-1.03a1.961,1.961,0,0,1-1.773-.35,1.546,1.546,0,0,1-.5-1.293L28.1,23.58c-.363-.056-.847-.27-1.2-.107l-2.136.984a19.643,19.643,0,0,0,4.616,9.823,2.034,2.034,0,0,0,.942-.359Zm16.715,8.41,3.308-.439-.053-4.382-3.706,3.705a.653.653,0,0,0,.451,1.116" transform="translate(-17.995 0.001)" fill="#12263f"/>
        <path id="Trazado_1273757" data-name="Trazado 1273757" d="M120.794,291.062a.8.8,0,0,1-.854.811.86.86,0,0,1-.8-.975c.116-4.448,3.072-7.412,6.77-9.53a33.474,33.474,0,0,1,6-2.557c3.307-1.128,6.64-1.508,10.058-2.216,2.138-.443,5.087-3.127,5.94-2.148a.816.816,0,0,1-.173,1.242l-4.393,2.2a4.575,4.575,0,0,1-1.479.493c-7.223.932-20.966,3.955-21.072,12.679" transform="translate(-102.421 -235.747)" fill="#12263f"/>
        <path id="Trazado_1273758" data-name="Trazado 1273758" d="M1.6,353.5a.821.821,0,0,1-1.038.571.845.845,0,0,1-.523-1.063l1.811-5.914c.134-.438.692-.525,1.043-.429a.817.817,0,0,1,.467,1.088Z" transform="translate(0 -297.982)" fill="#12263f"/>
      </g>
    </g>
  </g>
</svg>
