<svg xmlns="http://www.w3.org/2000/svg" xmlns:xlink="http://www.w3.org/1999/xlink" width="84" height="84" viewBox="0 0 84 84">
  <defs>
    <clipPath id="clip-path">
      <rect id="Rectángulo_465321" data-name="Rectángulo 465321" width="59.978" height="59.967" fill="#12263f"/>
    </clipPath>
  </defs>
  <g id="Grupo_1211022" data-name="Grupo 1211022" transform="translate(-705.629 -410)">
    <g id="Grupo_1188476" data-name="Grupo 1188476" transform="translate(2.841 -1273.207)">
      <g id="Grupo_1185067" data-name="Grupo 1185067" transform="translate(719.227 1696)">
        <path id="Trazado_997620" data-name="Trazado 997620" d="M133.124,646.71a15.477,15.477,0,1,0-14.332-.01" transform="translate(-99.168 -604.804)" fill="#3a552a" stroke="#000" stroke-miterlimit="10" stroke-width="2"/>
        <rect id="Rectángulo_454823" data-name="Rectángulo 454823" width="14.333" height="4.288" transform="translate(19.625 41.893)" fill="#3a552a" stroke="#000" stroke-miterlimit="10" stroke-width="2"/>
        <rect id="Rectángulo_454824" data-name="Rectángulo 454824" width="14.333" height="4.288" transform="translate(19.625 46.181)" fill="#3a552a" stroke="#000" stroke-miterlimit="10" stroke-width="2"/>
        <path id="Trazado_997621" data-name="Trazado 997621" d="M135.492,688.628h-6.283a4.025,4.025,0,0,1-4.025-4.025v-.263h14.333v.263A4.025,4.025,0,0,1,135.492,688.628Z" transform="translate(-105.559 -633.871)" fill="#3a552a" stroke="#000" stroke-miterlimit="10" stroke-width="2"/>
        <line id="Línea_3231" data-name="Línea 3231" y1="7.578" transform="translate(26.797)" fill="none" stroke="#000" stroke-miterlimit="10" stroke-width="2"/>
        <line id="Línea_3232" data-name="Línea 3232" x1="4.454" y1="6.13" transform="translate(10.236 5.387)" fill="none" stroke="#000" stroke-miterlimit="10" stroke-width="2"/>
        <line id="Línea_3233" data-name="Línea 3233" x1="7.2" y1="2.336" transform="translate(0 19.477)" fill="none" stroke="#000" stroke-miterlimit="10" stroke-width="2"/>
        <line id="Línea_3234" data-name="Línea 3234" x1="7.2" y2="2.341" transform="translate(0 34.55)" fill="none" stroke="#000" stroke-miterlimit="10" stroke-width="2"/>
        <line id="Línea_3235" data-name="Línea 3235" x1="7.2" y1="2.341" transform="translate(46.398 34.55)" fill="none" stroke="#000" stroke-miterlimit="10" stroke-width="2"/>
        <line id="Línea_3236" data-name="Línea 3236" x1="7.2" y2="2.336" transform="translate(46.398 19.477)" fill="none" stroke="#000" stroke-miterlimit="10" stroke-width="2"/>
        <line id="Línea_3237" data-name="Línea 3237" x1="4.454" y2="6.125" transform="translate(38.91 5.387)" fill="none" stroke="#000" stroke-miterlimit="10" stroke-width="2"/>
        <path id="Trazado_997622" data-name="Trazado 997622" d="M119,638.208a10.647,10.647,0,0,1,4.484-8.693" transform="translate(-102.867 -610.025)" fill="#3a552a" stroke="#000" stroke-miterlimit="10" stroke-width="2"/>
        <line id="Línea_3238" data-name="Línea 3238" y2="8.634" transform="translate(26.797 33.258)" fill="none" stroke="#000" stroke-miterlimit="10" stroke-width="2"/>
        <path id="Trazado_997623" data-name="Trazado 997623" d="M133.157,647.74l2.669,3.47,3-3.47" transform="translate(-109.027 -617.951)" fill="#3a552a" stroke="#000" stroke-miterlimit="10" stroke-width="2"/>
        <path id="Trazado_997624" data-name="Trazado 997624" d="M132.431,691.931a3.07,3.07,0,1,0,6.14,0" transform="translate(-108.711 -637.173)" fill="#3a552a" stroke="#000" stroke-miterlimit="10" stroke-width="2"/>
      </g>
      <rect id="Rectángulo_459857" data-name="Rectángulo 459857" width="81" height="79" transform="translate(705.788 1688.207)" fill="#3a552a"/>
    </g>
    <g id="Grupo_1188599" data-name="Grupo 1188599" transform="translate(0.371 -1278)">
      <g id="Grupo_1185067-2" data-name="Grupo 1185067" transform="translate(718.472 1696)">
        <path id="Trazado_997620-2" data-name="Trazado 997620" d="M133.124,646.71a15.477,15.477,0,1,0-14.332-.01" transform="translate(-99.168 -604.804)" fill="#fff006" stroke="#000" stroke-miterlimit="10" stroke-width="2"/>
        <rect id="Rectángulo_454823-2" data-name="Rectángulo 454823" width="14.333" height="4.288" transform="translate(19.625 41.893)" fill="#fff006" stroke="#000" stroke-miterlimit="10" stroke-width="2"/>
        <rect id="Rectángulo_454824-2" data-name="Rectángulo 454824" width="14.333" height="4.288" transform="translate(19.625 46.181)" fill="#fff006" stroke="#000" stroke-miterlimit="10" stroke-width="2"/>
        <path id="Trazado_997621-2" data-name="Trazado 997621" d="M135.492,688.628h-6.283a4.025,4.025,0,0,1-4.025-4.025v-.263h14.333v.263A4.025,4.025,0,0,1,135.492,688.628Z" transform="translate(-105.559 -633.871)" fill="#fff006" stroke="#000" stroke-miterlimit="10" stroke-width="2"/>
        <line id="Línea_3231-2" data-name="Línea 3231" y1="7.578" transform="translate(26.797)" fill="none" stroke="#000" stroke-miterlimit="10" stroke-width="2"/>
        <line id="Línea_3232-2" data-name="Línea 3232" x1="4.454" y1="6.13" transform="translate(10.236 5.387)" fill="none" stroke="#000" stroke-miterlimit="10" stroke-width="2"/>
        <line id="Línea_3233-2" data-name="Línea 3233" x1="7.2" y1="2.336" transform="translate(0 19.477)" fill="none" stroke="#000" stroke-miterlimit="10" stroke-width="2"/>
        <line id="Línea_3234-2" data-name="Línea 3234" x1="7.2" y2="2.341" transform="translate(0 34.55)" fill="none" stroke="#000" stroke-miterlimit="10" stroke-width="2"/>
        <line id="Línea_3235-2" data-name="Línea 3235" x1="7.2" y1="2.341" transform="translate(46.398 34.55)" fill="none" stroke="#000" stroke-miterlimit="10" stroke-width="2"/>
        <line id="Línea_3236-2" data-name="Línea 3236" x1="7.2" y2="2.336" transform="translate(46.398 19.477)" fill="none" stroke="#000" stroke-miterlimit="10" stroke-width="2"/>
        <line id="Línea_3237-2" data-name="Línea 3237" x1="4.454" y2="6.125" transform="translate(38.91 5.387)" fill="none" stroke="#000" stroke-miterlimit="10" stroke-width="2"/>
        <path id="Trazado_997622-2" data-name="Trazado 997622" d="M119,638.208a10.647,10.647,0,0,1,4.484-8.693" transform="translate(-102.867 -610.025)" fill="#fff006" stroke="#000" stroke-miterlimit="10" stroke-width="2"/>
        <line id="Línea_3238-2" data-name="Línea 3238" y2="8.634" transform="translate(26.797 33.258)" fill="none" stroke="#000" stroke-miterlimit="10" stroke-width="2"/>
        <path id="Trazado_997623-2" data-name="Trazado 997623" d="M133.157,647.74l2.669,3.47,3-3.47" transform="translate(-109.027 -617.951)" fill="#fff006" stroke="#000" stroke-miterlimit="10" stroke-width="2"/>
        <path id="Trazado_997624-2" data-name="Trazado 997624" d="M132.431,691.931a3.07,3.07,0,1,0,6.14,0" transform="translate(-108.711 -637.173)" fill="#fff006" stroke="#000" stroke-miterlimit="10" stroke-width="2"/>
      </g>
      <rect id="Rectángulo_459857-2" data-name="Rectángulo 459857" width="80" height="80" transform="translate(705.258 1688)" fill="#fff006"/>
    </g>
    <g id="Grupo_1212248" data-name="Grupo 1212248" transform="translate(715.64 420.016)">
      <g id="Grupo_1212247" data-name="Grupo 1212247" clip-path="url(#clip-path)">
        <path id="Trazado_1273640" data-name="Trazado 1273640" d="M31.8,243.954c2.207.131,5.61,1.6,9.229,2.12a2.084,2.084,0,0,0,2.272-.845,3.174,3.174,0,0,0-.9-3.886c-2.9-2.624-8.7-3.151-12.79-3.53a23.071,23.071,0,0,1-3.6-.485,8.231,8.231,0,0,1-2.112-1.05,36.472,36.472,0,0,0-19.018-5.058,9.267,9.267,0,0,0-3.235.548,1,1,0,0,1-1.36-.45A.958.958,0,0,1,.916,230a20.654,20.654,0,0,1,8.848-.4,38.447,38.447,0,0,1,15.878,5.55,3.585,3.585,0,0,0,1.623.515l6.153.619c3.237-1.434,6.155-3.538,9.466-4.8,1.416-.541,3.268-.473,4.048.774L50.881,230c2.921-1.662,9.413-1.223,9.084,2.188-.047.485-.465.945-.535,1.383a4.973,4.973,0,0,1-1.5,2.909,51.246,51.246,0,0,1-6.916,5.809l-6.5,4.607c-.567.4-1.047.69-1.662,1.054a85.092,85.092,0,0,1-9.869,5.4c-3.812,1.627-4.7,1.716-8.711.418-2.839-.92-5.456-2.017-8.208-3.214-5.295-2.3-10.386-4.791-15.533-7.365a.955.955,0,0,1-.426-1.3.933.933,0,0,1,1.311-.351c5.158,2.59,10.264,5.055,15.564,7.372a89.3,89.3,0,0,0,9,3.465,6.913,6.913,0,0,0,4.994-.133,56.207,56.207,0,0,0,8.575-4.472L36.1,246.9a24.448,24.448,0,0,0-4.193-1.037,49.235,49.235,0,0,0-11.827.772.908.908,0,0,1-1.09-.585c-.112-.36-.007-1.1.549-1.2a50.312,50.312,0,0,1,12.256-.9M42.035,238.7c2.641-1.389,4.976-2.871,7.385-4.445,2.251-1.471,5.63-2.92,8.318-2.717a6.573,6.573,0,0,0-5.532-.038,41.349,41.349,0,0,0-5.257,2.982,48.257,48.257,0,0,1-6.529,3.463Zm-4.292-1.61a49.4,49.4,0,0,0,5.763-2.755l1.947-1.178a3.217,3.217,0,0,0-2.512.316c-2.2.96-4.2,2.157-6.271,3.285a2.171,2.171,0,0,0,1.073.333m18.833-1.827a2.721,2.721,0,0,0,.943-1.784c-2.114-.3-5.243,1.165-7.1,2.371-2.223,1.441-4.352,2.824-6.754,4.1a5.528,5.528,0,0,1,1.879,3.976c3.6-2.551,8.16-5.644,11.036-8.666" transform="translate(0 -194.703)" fill="#12263f"/>
        <path id="Trazado_1273641" data-name="Trazado 1273641" d="M98.149.067a16.015,16.015,0,1,1-14.5,17.5,16.007,16.007,0,0,1,14.5-17.5M97.7,2.024a14.136,14.136,0,1,0,15.929,12.25A14.138,14.138,0,0,0,97.7,2.024" transform="translate(-71.037 0)" fill="#12263f"/>
        <path id="Trazado_1273642" data-name="Trazado 1273642" d="M164.135,62.824a.98.98,0,0,1-.973,1.118c-1.244-.04-.794-1.669-1.021-1.948-.113-.139-3.539-.626-3.756-3.893a1.011,1.011,0,0,1,.747-1.194.9.9,0,0,1,1.076.754A2.453,2.453,0,0,0,162.1,60a3.591,3.591,0,0,0,3.285-.506,1.891,1.891,0,0,0,.694-1.75,1.782,1.782,0,0,0-1.123-1.381l-3.64-1.6a3.98,3.98,0,0,1-2.175-2.022,3.774,3.774,0,0,1,2.476-4.973,1.385,1.385,0,0,0,.5-.2c.321-.349-.262-1.819.9-1.968a.946.946,0,0,1,1.117.946l.031,1a3.784,3.784,0,0,1,3.591,3.626.972.972,0,0,1-.847,1.1c-1.352.12-.639-1.675-1.771-2.417a3.2,3.2,0,0,0-3.907.336,1.8,1.8,0,0,0-.464,1.438c.247,2.007,5.2,2.064,6.743,4.587a3.733,3.733,0,0,1-.936,4.748,5.508,5.508,0,0,1-2.393,1.049,2.579,2.579,0,0,0-.041.805" transform="translate(-134.622 -38.756)" fill="#12263f"/>
      </g>
    </g>
  </g>
</svg>
