<svg xmlns="http://www.w3.org/2000/svg" xmlns:xlink="http://www.w3.org/1999/xlink" width="128" height="128" viewBox="0 0 128 128">
  <defs>
    <clipPath id="clip-path">
      <rect id="Rectángulo_459899" data-name="Rectángulo 459899" width="128" height="128" fill="none"/>
    </clipPath>
    <clipPath id="clip-path-2">
      <rect id="Rectángulo_465390" data-name="Rectángulo 465390" width="58.995" height="59.013" fill="#12263f"/>
    </clipPath>
  </defs>
  <g id="Grupo_1212492" data-name="Grupo 1212492" transform="translate(-1088.574 -5612.31)">
    <g id="Grupo_1211246" data-name="Grupo 1211246" transform="translate(1088.574 5612.31)">
      <g id="Grupo_1188515" data-name="Grupo 1188515" clip-path="url(#clip-path)">
        <path id="Trazado_1033015" data-name="Trazado 1033015" d="M128,64A64,64,0,1,1,64,0a64,64,0,0,1,64,64" fill="#fff"/>
        <path id="Trazado_1033016" data-name="Trazado 1033016" d="M154.441,185.937l.625-.59c-.045-.02-.215.119-.625.59" transform="translate(-131.184 -157.435)" fill="#e4cbc1"/>
        <path id="Trazado_1033017" data-name="Trazado 1033017" d="M374.691,757.713l-.2.008a.74.74,0,0,0,.2-.008" transform="translate(-318.095 -643.61)" fill="#e4cbc1"/>
        <path id="Trazado_1033018" data-name="Trazado 1033018" d="M342.621,99.876l-.041.008-.2.065Z" transform="translate(-290.823 -84.836)" fill="#e4cbc1"/>
        <path id="Trazado_1033019" data-name="Trazado 1033019" d="M81.364,97.171a46.672,46.672,0,0,1,3.779-5.711c1.133-1.6,2.359-2.8,3.473-4.1.6-.615,1.228-1.2,1.858-1.825l.97-.96,1.1-.927a47.547,47.547,0,0,1,5.5-4.2,46.375,46.375,0,0,1,14.737-5.883c2.322-.985,6.71-.887,9.606-1.239l1.123.269a11.86,11.86,0,0,1,3.182.125l-.069.054c1.5.046,3.178.288,3.916.385l-.072.049,1.79.338-.325.025c.647.092,1.3.178,1.95.3l1.9.5c.625.176,1.248.337,1.843.538l1.707.68-.095-.313c.586.256,1.127.482,1.636.685s.956.45,1.4.64c.875.4,1.663.733,2.437,1.063.743.389,1.473.772,2.258,1.217.39.226.8.452,1.22.731.4.3.829.621,1.28.979l-.087.017c.647.335,1.251.674,1.819,1.016.55.366,1.04.768,1.521,1.149s.933.772,1.375,1.157.817.833,1.223,1.245c1.618,1.661,3.114,3.436,5.222,5.6-.519-.547.09.338,0,.328l1.3,1.6c.419.52.765,1.051,1.108,1.479.671.868,1.2,1.425,1.432,1.308,1.071,1.738.7,1.516.678,1.837.172-.117,1.176,1.354,1.91,2.769-.137-.2-.255-.419-.406-.615.7,1.351,1.393,2.708,2.057,4.079.025-.338,0-.658.006-.99.887,2.273-.217.771.773,2.875l.313-.159a19.563,19.563,0,0,1,.732,2.189c.165.694.3,1.349.426,2s.257,1.3.371,1.981c.091.692.2,1.416.339,2.21a73.426,73.426,0,0,1,1.768,9.989,51.748,51.748,0,0,1-.063,10.205l-.136,1.264-.068.631-.127.619-.512,2.466a17.435,17.435,0,0,1-.677,2.4c-.26.785-.5,1.577-.779,2.345l-1.018,2.217a17.671,17.671,0,0,1-1.094,2.137,29.664,29.664,0,0,1-2.668,3.842l-.541.266c-.411-.047-1.68,2.982-2.322,3.054-.289.381-.56.782-.872,1.147-.34.231-1,.763-.546.208a16.966,16.966,0,0,0-1.6,1.672c-.4.26-.832.482-1.247.718a74.424,74.424,0,0,1-6.176,4.184,35.986,35.986,0,0,1-6.974,3.266,93.37,93.37,0,0,1-12.7,2.748,98.083,98.083,0,0,1-13.538.888,49.735,49.735,0,0,1-15.981-2.551A67.158,67.158,0,0,1,89.2,160.415a3.592,3.592,0,0,0-1.043-.6c-.607-.5-1.191-1.018-1.788-1.524l-.892-.764-.814-.843L83.038,155l-1.448-1.839-.312-.392-.37-.462-.431-.661a34.528,34.528,0,0,1-2.393-4.01,21.288,21.288,0,0,1-1.264-2.643c-.367-.945-.809-1.89-1.144-2.87-.6-1.985-1.275-3.931-1.646-5.694-.817-3.5-1.184-6.012-1.59-5.364a10.1,10.1,0,0,0-.38,3.632,36.74,36.74,0,0,0,.261,4.12c.111.827.29,1.722.463,2.705l.285,1.536c.1.534.292,1.062.445,1.627l-.169-.205L74,146.362l.315.882c.12.281.257.548.381.813.513,1.057.982,2.038,1.479,2.94a23.866,23.866,0,0,0,3.582,4.589,2,2,0,0,0,.442.92c.138.2.3.413.48.634l.634.637c.893.855,1.832,1.78,2.277,2.258l-.123-.049c1.44.94,2.657,2.2,4.065,3.215a21.712,21.712,0,0,0,2.08,1.531,20.226,20.226,0,0,0,2.212,1.179,1.586,1.586,0,0,1-.914-.312c.528.279,1.088.616,1.669.891l1.672.779a6.405,6.405,0,0,1,1.806,1.055,58.146,58.146,0,0,0,8.915,2.859,38.937,38.937,0,0,0,4.323.8,21.527,21.527,0,0,0,3.393.24l-.255.051c2.064-.038,2.637.242,4.926.254.122.048.282.081.255.1,2.224-.154,6.453.16,8.246-.044l.121.2c1.471-.063,2.943-.144,4.411-.283-.55.035-1.1.057-1.651.072.528-.57,3.368.143,6.519-.667,3.013-.374,5.76-2.2,8.767-2.816,1.338-.666-1.123.779.93-.058.158.256-.934.483-.32.533,2.031-.8,3.509-.855,5.925-2.117l.192.158c3.044-1.81,6.1-2.831,7.832-4.521a12.491,12.491,0,0,1,2.589-1.686,7.231,7.231,0,0,0,2.446-2.076l1.289-.82c1.182-1.163.579-1.085,1.894-2.356.081.221,1.608-1.677,1.065-.73a25.026,25.026,0,0,0,3.654-5.365l.793-1.559.736-1.663c.517-1.127,1.131-2.276,1.628-3.56a11.286,11.286,0,0,1,.554-2.482,9.248,9.248,0,0,0,.349-2.272,16.21,16.21,0,0,0,.622-2.336c.152-.953.277-1.513.255.045,0,.268-.128.724-.177.682l.135.4a8.52,8.52,0,0,0,.506-2.205c.091-.724.141-1.434.179-2.142a18.33,18.33,0,0,0,0-2.137c-.016-.721-.015-1.456.03-2.224-.107.909-.136,2.118-.254,1.3.024-.946.144-1.9.088-2.841l.208.59-.069-4.248-.2.6a16.372,16.372,0,0,0-.374-5.124c-.338-1.012-.031,1.981-.416-.161-.2-1.358-.356-3.084-.717-4.868a47.607,47.607,0,0,0-1.326-5.338c-.14.392-.431-.509-.79-1.414l.174-.182c-.748-1.716-.836-2.047-.821-2.419-.007-.362-.007-.729-.825-2.405l.267.242c-.262-.244-.534-.481-.824-.708a6.605,6.605,0,0,1-1.153-2.355,5.909,5.909,0,0,0-1.474-2.5c.758,1.259-.091.834-.892-.773l.412.289a17.513,17.513,0,0,1-1.063-1.687c.382.462.457.091-.4-1.112l.772.684L165.6,92.049A18.783,18.783,0,0,0,163.509,89c-.376-.488-.727-.946-1-1.338a5.175,5.175,0,0,1-.606-.9s-.743-.9-1.609-1.864a12.043,12.043,0,0,0-1.381-1.336,6.591,6.591,0,0,0-1.09-.81c.821.5-.989-1.34-.3-1.013-.495-.363-1.516-1.015-2.5-1.751-.491-.366-.978-.748-1.4-1.107s-.833-.633-1.091-.89l.241.13c-4.218-3.29-7.918-4.417-12.214-6.37.112.317-2.184-.685-1.71-.156-2.377-.551-4.454-1.343-6.252-1.734a13.7,13.7,0,0,0-2.393-.462,4.062,4.062,0,0,0-1.764.222c-2.186-.246-2.573-.514-3.715-.623l.531-.029-2.636-.075c-.744,0-1.38.051-1.982.066-1.2.058-2.278.029-3.809.226a11.52,11.52,0,0,0-1.761.507,19.819,19.819,0,0,1-2.645.594c.836-.354-.258-.107-1.266.089.637-.154.826-.261-.529-.127-.174.095-.456.176-.712.289-.014-.011-.069-.008-.047-.035-1.639.529-1.333.5-.561.314-.031.039.043.056.292.041a27.084,27.084,0,0,0-3.085.739c-.993.322-1.784.633-1.945.51A39.849,39.849,0,0,0,93.325,78.8c-.489.15.229-.557,1.2-1.347L92.1,79.3c-.129-.2,1.332-1.145,2.065-1.738a23.017,23.017,0,0,0-2.311,1.553c-.7.628-1.394,1.3-2.1,1.976-.724.657-1.373,1.412-2.064,2.155s-1.47,1.433-2.187,2.216l-.418.8-.185.174a4.4,4.4,0,0,1-.788,1.37c-.537.337-.39-.359-1.6,1.363a15.244,15.244,0,0,0-1.861,2.669l-1.695,3.217c.627-.986.539-.6.34-.138a21.883,21.883,0,0,0-1.241,2.11l-.3-.041c.213-.121-.039.517-.352,1.233a11.516,11.516,0,0,0-.648,1.74c-.422.46.467-1.565.487-1.848-.9,1.893-1.062,2.4-1.285,2.87-.185.49-.478.937-1.159,2.919-.567,2.169.389-.287.255.8-.673,1.844-.967,3.743-1.775,5.846l.442-.615c-.41,1.784-.623,3.233-.95,4.5-.267,1.282-.49,2.422-.822,3.621-.138,1.7-.086,3.229-.119,4.563.031,1.339.145,2.5.214,3.5a20.484,20.484,0,0,0,.348,2.542c.127.7.243,1.26.35,1.7.443,1.757.753,1.614.887.617a39.933,39.933,0,0,0,.33-4.258c.147-1.525.229-2.806.229-2.806a116.086,116.086,0,0,1,2.145-12.969l.788-3.08c.294-1.051.671-2.117,1.03-3.257a53.709,53.709,0,0,1,3.2-7.432" transform="translate(-61.023 -58.519)" fill="#3a552a"/>
      </g>
    </g>
    <g id="Grupo_1212391" data-name="Grupo 1212391" transform="translate(1122.706 5645.432)">
      <g id="Grupo_1212390" data-name="Grupo 1212390" clip-path="url(#clip-path-2)">
        <path id="Trazado_1274141" data-name="Trazado 1274141" d="M133.01,217.98l-26.624.012v-4.432a13.389,13.389,0,0,1,9.124-12.072,7.606,7.606,0,1,1,8.358,0A13.4,13.4,0,0,1,133,213.69ZM119.073,189.47a5.7,5.7,0,1,0,6.282,5.025,5.66,5.66,0,0,0-6.282-5.025m.616,24.423L123.22,203.3a11.566,11.566,0,0,0-7.063,0Zm-3.342-3.819-1.93-6.01a8.205,8.205,0,0,0-1.947,1.276l.5,2.576Zm10.083-2.18.445-2.618a10.9,10.9,0,0,0-1.912-1.214L123,210.119Zm-14.724,4.322,1.69-1.716-2.2-1.516L110.8,207a11.049,11.049,0,0,0-2.527,7.028l0,2.021,7.19-.028Zm12.234,3.8,7.158.045-.016-2.483A10.587,10.587,0,0,0,128.569,207l-.443,2.058-2.139,1.45,1.681,1.72Zm-5.6.115-1.893-5.932-2.06,2.134Zm6.653-3.878-2.077-2.053-1.841,5.922Z" transform="translate(-90.191 -158.979)" fill="#12263f"/>
        <path id="Trazado_1274142" data-name="Trazado 1274142" d="M32.372,100.31l-6.991,6.99-3.941-4.089-4.113-4.32-3.261,3.2L10.784,85.712l16.385,3.282-3.19,3.223,4.3,4.15Zm-2.717.044-8.4-8.133,2.036-2.059L13.219,88.155l2.016,10.063,2.089-2.03,8.115,8.409Z" transform="translate(-9.142 -72.664)" fill="#12263f"/>
        <path id="Trazado_1274143" data-name="Trazado 1274143" d="M241.918,107.329l-7-6.97,4.089-3.946,4.317-4.119-3.2-3.247,16.377-3.281-3.268,16.35-3.245-3.15Zm-.054-2.7,8.137-8.4,2.065,2.041,2-10.071L244,90.208l2.03,2.087-8.406,8.117Z" transform="translate(-199.158 -72.71)" fill="#12263f"/>
        <path id="Trazado_1274144" data-name="Trazado 1274144" d="M146.354,32.864l-9.493.024,0-11.418-4.623-.03L141.6,7.383l9.37,14.053-4.627.033ZM144.475,31l0-11.407,2.948-.043L141.6,10.828l-5.826,8.753,2.96.015,0,11.424Z" transform="translate(-112.109 -6.259)" fill="#12263f"/>
        <path id="Trazado_1274145" data-name="Trazado 1274145" d="M2.4.039A2.827,2.827,0,0,1,5.675,2.385,2.856,2.856,0,0,1,.061,3.43,2.825,2.825,0,0,1,2.4.039m.015,1.984a.934.934,0,0,0-.322,1.366.941.941,0,0,0,1.594-1,.929.929,0,0,0-1.271-.369" transform="translate(-0.001 0)" fill="#12263f"/>
        <path id="Trazado_1274146" data-name="Trazado 1274146" d="M352.4.039a2.827,2.827,0,0,1,3.279,2.346,2.856,2.856,0,0,1-5.615,1.045A2.825,2.825,0,0,1,352.4.039m.015,1.984a.934.934,0,0,0-.322,1.366.941.941,0,0,0,1.594-1,.929.929,0,0,0-1.271-.369" transform="translate(-296.72 0)" fill="#12263f"/>
        <path id="Trazado_1274147" data-name="Trazado 1274147" d="M352.4,350.039a2.827,2.827,0,0,1,3.279,2.346,2.856,2.856,0,0,1-5.615,1.045,2.825,2.825,0,0,1,2.335-3.391m.015,1.984a.934.934,0,0,0-.322,1.366.941.941,0,0,0,1.594-1,.929.929,0,0,0-1.271-.369" transform="translate(-296.72 -296.72)" fill="#12263f"/>
        <path id="Trazado_1274148" data-name="Trazado 1274148" d="M2.4,350.039a2.827,2.827,0,0,1,3.279,2.346A2.856,2.856,0,0,1,.061,353.43,2.825,2.825,0,0,1,2.4,350.039m.015,1.984a.934.934,0,0,0-.322,1.366.941.941,0,0,0,1.594-1,.929.929,0,0,0-1.271-.369" transform="translate(-0.001 -296.72)" fill="#12263f"/>
        <path id="Trazado_1274149" data-name="Trazado 1274149" d="M2.686,231.255A2.832,2.832,0,0,1,5.7,233.873a2.878,2.878,0,0,1-2.642,3.07,2.88,2.88,0,0,1-3.047-2.537,2.833,2.833,0,0,1,2.671-3.151m-.14,1.959a.924.924,0,0,0-.532,1.308.937.937,0,0,0,1.19.449.946.946,0,0,0,.524-1.245.935.935,0,0,0-1.182-.512" transform="translate(0.001 -196.047)" fill="#12263f"/>
        <path id="Trazado_1274150" data-name="Trazado 1274150" d="M352.686,231.255a2.832,2.832,0,0,1,3.018,2.618,2.858,2.858,0,0,1-5.689.533,2.833,2.833,0,0,1,2.671-3.151m-.14,1.959a.924.924,0,0,0-.532,1.308.937.937,0,0,0,1.19.449.946.946,0,0,0,.524-1.245.935.935,0,0,0-1.182-.512" transform="translate(-296.719 -196.047)" fill="#12263f"/>
        <path id="Trazado_1274151" data-name="Trazado 1274151" d="M51.848,245.635a9.5,9.5,0,0,1-1.888,0l-.031-1.906h1.929Z" transform="translate(-42.328 -206.628)" fill="#12263f"/>
        <path id="Trazado_1274152" data-name="Trazado 1274152" d="M76.848,245.635a9.5,9.5,0,0,1-1.888,0l-.031-1.906h1.929Z" transform="translate(-63.523 -206.628)" fill="#12263f"/>
        <path id="Trazado_1274153" data-name="Trazado 1274153" d="M101.848,245.635a9.5,9.5,0,0,1-1.888,0l-.031-1.906h1.929Z" transform="translate(-84.717 -206.628)" fill="#12263f"/>
        <path id="Trazado_1274154" data-name="Trazado 1274154" d="M276.848,245.635a9.5,9.5,0,0,1-1.888,0l-.031-1.906h1.929Z" transform="translate(-233.077 -206.628)" fill="#12263f"/>
        <path id="Trazado_1274155" data-name="Trazado 1274155" d="M301.849,245.635l-1.888,0-.031-1.906h1.929Z" transform="translate(-254.271 -206.628)" fill="#12263f"/>
        <path id="Trazado_1274156" data-name="Trazado 1274156" d="M326.849,245.635l-1.888,0-.031-1.906h1.929Z" transform="translate(-275.466 -206.628)" fill="#12263f"/>
        <path id="Trazado_1274157" data-name="Trazado 1274157" d="M34.655,339.414l-1.321-1.29,1.364-1.348,1.274,1.272Z" transform="translate(-28.26 -285.51)" fill="#12263f"/>
        <path id="Trazado_1274158" data-name="Trazado 1274158" d="M338.169,339.4l-1.383-1.331,1.285-1.308,1.358,1.345Z" transform="translate(-285.517 -285.499)" fill="#12263f"/>
        <path id="Trazado_1274159" data-name="Trazado 1274159" d="M52.236,53.417l-1.377-1.33,1.277-1.307L53.5,52.125Z" transform="translate(-43.117 -43.05)" fill="#12263f"/>
        <path id="Trazado_1274160" data-name="Trazado 1274160" d="M52.226,321.84a6.621,6.621,0,0,1-1.373-1.258l1.344-1.334,1.292,1.285Z" transform="translate(-43.113 -270.649)" fill="#12263f"/>
        <path id="Trazado_1274161" data-name="Trazado 1274161" d="M338.15,35.928l-1.319-1.279,1.35-1.358,1.287,1.284Z" transform="translate(-285.556 -28.223)" fill="#12263f"/>
        <path id="Trazado_1274162" data-name="Trazado 1274162" d="M34.716,35.907l-1.374-1.343,1.289-1.29,1.355,1.334Z" transform="translate(-28.266 -28.208)" fill="#12263f"/>
        <path id="Trazado_1274163" data-name="Trazado 1274163" d="M320.816,321.844a5.8,5.8,0,0,1-1.412-1.222l1.276-1.358,1.31,1.3Z" transform="translate(-270.781 -270.664)" fill="#12263f"/>
        <path id="Trazado_1274164" data-name="Trazado 1274164" d="M320.641,53.629l-1.319-1.29,1.309-1.313,1.285,1.221Z" transform="translate(-270.712 -43.259)" fill="#12263f"/>
        <path id="Trazado_1274165" data-name="Trazado 1274165" d="M303.135,71.2l-1.32-1.305,1.276-1.284,1.317,1.315Z" transform="translate(-255.87 -58.166)" fill="#12263f"/>
        <path id="Trazado_1274166" data-name="Trazado 1274166" d="M304.411,303.239l-1.291,1.311-1.3-1.276,1.334-1.27Z" transform="translate(-255.878 -256.03)" fill="#12263f"/>
        <path id="Trazado_1274167" data-name="Trazado 1274167" d="M69.955,71.155l-1.288-1.248,1.318-1.3L71.2,69.857Z" transform="translate(-58.214 -58.166)" fill="#12263f"/>
        <path id="Trazado_1274168" data-name="Trazado 1274168" d="M69.987,304.655l-1.315-1.315,1.24-1.22a5.657,5.657,0,0,1,1.292,1.29Z" transform="translate(-58.218 -256.129)" fill="#12263f"/>
      </g>
    </g>
  </g>
</svg>
