<svg xmlns="http://www.w3.org/2000/svg" xmlns:xlink="http://www.w3.org/1999/xlink" width="96" height="96" viewBox="0 0 96 96">
  <defs>
    <clipPath id="clip-path">
      <rect id="Rectángulo_465323" data-name="Rectángulo 465323" width="59.039" height="59.048" fill="#12263f"/>
    </clipPath>
  </defs>
  <g id="Grupo_1211027" data-name="Grupo 1211027" transform="translate(-735.745 -9122)">
    <g id="Grupo_1188527" data-name="Grupo 1188527" transform="translate(-728.818 -89.375)">
      <g id="Grupo_1188526" data-name="Grupo 1188526">
        <path id="Trazado_1033015" data-name="Trazado 1033015" d="M96,47.778A48,48,0,1,1,48,0,47.889,47.889,0,0,1,96,47.778" transform="translate(1464.564 9211.818)" fill="#ebffe0"/>
        <path id="Trazado_1033017" data-name="Trazado 1033017" d="M374.691,757.713l-.2.008a.74.74,0,0,0,.2-.008" transform="translate(1131.201 8546.583)" fill="#ffe4b3"/>
        <path id="Trazado_1033018" data-name="Trazado 1033018" d="M342.621,99.876l-.041.008-.2.065Z" transform="translate(1158.943 9116.164)" fill="#ffe4b3"/>
        <path id="Trazado_1033019" data-name="Trazado 1033019" d="M80.427,94.229a41.8,41.8,0,0,1,3.407-5.117c1.022-1.43,2.127-2.505,3.131-3.67.537-.551,1.107-1.071,1.675-1.635l.874-.861.988-.831a42.841,42.841,0,0,1,4.961-3.764,41.965,41.965,0,0,1,13.287-5.271c2.094-.883,6.05-.794,8.661-1.11l1.013.241a10.76,10.76,0,0,1,2.869.112l-.062.048c1.352.041,2.866.258,3.531.345l-.065.044,1.614.3-.293.022c.584.083,1.175.16,1.758.273l1.713.445c.563.158,1.125.3,1.661.482l1.539.609-.086-.28c.528.23,1.016.432,1.475.614s.862.4,1.26.574c.789.36,1.5.656,2.2.952.67.348,1.328.692,2.036,1.091.352.2.724.405,1.1.655.365.267.748.556,1.154.877l-.078.015c.584.3,1.128.6,1.64.91.5.328.937.688,1.371,1.03s.841.692,1.24,1.036.737.747,1.1,1.116c1.459,1.488,2.808,3.078,4.708,5.018-.468-.49.081.3,0,.294l1.17,1.437c.378.466.69.941,1,1.325.6.777,1.085,1.276,1.291,1.172.965,1.557.633,1.359.611,1.646.155-.1,1.06,1.213,1.723,2.481-.123-.183-.23-.375-.366-.551.629,1.21,1.256,2.426,1.855,3.655.022-.3,0-.59.006-.887.8,2.036-.2.691.7,2.576l.282-.142a17.451,17.451,0,0,1,.66,1.962c.149.622.27,1.209.384,1.792s.232,1.161.334,1.775c.082.62.178,1.269.306,1.981a65.415,65.415,0,0,1,1.594,8.95,46.076,46.076,0,0,1-.056,9.144l-.122,1.132-.061.566-.114.554-.461,2.21a15.544,15.544,0,0,1-.611,2.151c-.235.7-.447,1.413-.7,2.1l-.917,1.986a15.794,15.794,0,0,1-.986,1.915,26.575,26.575,0,0,1-2.405,3.442l-.488.238c-.371-.042-1.515,2.672-2.094,2.736-.26.341-.5.7-.786,1.028-.306.207-.9.684-.493.186a15.244,15.244,0,0,0-1.439,1.5c-.362.233-.75.432-1.124.643-1.886,1.387-3.667,2.621-5.568,3.749a32.54,32.54,0,0,1-6.288,2.926,84.641,84.641,0,0,1-11.452,2.462,88.983,88.983,0,0,1-12.206.8,45.1,45.1,0,0,1-14.409-2.286,60.716,60.716,0,0,1-13.085-6.251,3.245,3.245,0,0,0-.941-.534c-.547-.444-1.073-.912-1.612-1.366l-.8-.684-.734-.756-1.464-1.513-1.305-1.648-.282-.351-.334-.414-.388-.593a30.9,30.9,0,0,1-2.157-3.593,19.02,19.02,0,0,1-1.14-2.368c-.33-.847-.729-1.693-1.031-2.571-.537-1.779-1.15-3.522-1.484-5.1-.737-3.134-1.067-5.386-1.434-4.806a9,9,0,0,0-.342,3.254,32.714,32.714,0,0,0,.235,3.691c.1.741.261,1.543.417,2.424l.257,1.376c.089.478.263.952.4,1.458l-.152-.184.594,1.688.284.79c.108.251.231.491.344.729.463.947.885,1.826,1.333,2.634a21.4,21.4,0,0,0,3.229,4.111,1.784,1.784,0,0,0,.4.825c.125.176.269.37.433.568l.571.57c.805.766,1.652,1.595,2.053,2.023l-.111-.044c1.3.842,2.4,1.97,3.665,2.881a19.571,19.571,0,0,0,1.875,1.371,18.278,18.278,0,0,0,1.994,1.056,1.437,1.437,0,0,1-.824-.28c.476.25.981.552,1.5.8l1.508.7a5.782,5.782,0,0,1,1.629.945,52.663,52.663,0,0,0,8.038,2.562,35.3,35.3,0,0,0,3.9.714,19.528,19.528,0,0,0,3.059.215l-.23.046c1.861-.034,2.378.217,4.442.228.11.043.254.072.23.085,2-.138,5.818.144,7.435-.04l.109.175c1.327-.056,2.653-.129,3.977-.254-.5.032-.992.051-1.489.064.476-.511,3.037.128,5.877-.6,2.716-.335,5.194-1.969,7.9-2.523,1.207-.6-1.012.7.839-.052.142.229-.842.433-.288.478,1.831-.715,3.164-.766,5.342-1.9l.173.141c2.745-1.622,5.5-2.536,7.062-4.051a11.272,11.272,0,0,1,2.334-1.51,6.512,6.512,0,0,0,2.206-1.86l1.162-.735c1.066-1.042.522-.972,1.707-2.111.073.2,1.45-1.5.96-.654a22.416,22.416,0,0,0,3.295-4.807l.715-1.4.664-1.49c.466-1.01,1.02-2.039,1.468-3.189a10.057,10.057,0,0,1,.5-2.224,8.237,8.237,0,0,0,.315-2.036,14.452,14.452,0,0,0,.561-2.093c.137-.854.25-1.355.229.04,0,.241-.115.649-.159.611l.122.361a7.593,7.593,0,0,0,.456-1.976c.082-.649.127-1.285.161-1.92a16.32,16.32,0,0,0,0-1.915c-.014-.646-.014-1.3.027-1.992-.1.815-.122,1.9-.229,1.168.022-.848.129-1.7.079-2.545l.188.528-.062-3.806-.183.538a14.58,14.58,0,0,0-.338-4.591c-.305-.907-.028,1.775-.375-.144-.183-1.216-.321-2.764-.647-4.361a42.437,42.437,0,0,0-1.2-4.783c-.126.352-.389-.456-.712-1.267l.157-.163c-.675-1.538-.754-1.834-.74-2.168-.006-.324-.006-.654-.744-2.155l.24.217c-.236-.219-.481-.431-.743-.635a5.9,5.9,0,0,1-1.04-2.11,5.285,5.285,0,0,0-1.329-2.239c.683,1.128-.082.747-.8-.692l.371.259a15.676,15.676,0,0,1-.958-1.511c.344.414.412.082-.359-1l.7.612-1.683-1.893a16.825,16.825,0,0,0-1.884-2.73c-.339-.437-.656-.847-.9-1.2a4.635,4.635,0,0,1-.547-.809s-.67-.8-1.451-1.67a10.827,10.827,0,0,0-1.245-1.2,5.941,5.941,0,0,0-.983-.726c.74.447-.892-1.2-.267-.908-.446-.326-1.367-.909-2.25-1.569-.443-.328-.882-.67-1.265-.992s-.751-.567-.984-.8l.217.116c-3.8-2.948-7.139-3.957-11.012-5.707.1.284-1.969-.613-1.542-.14-2.143-.493-4.016-1.2-5.637-1.553a12.427,12.427,0,0,0-2.157-.414,3.684,3.684,0,0,0-1.59.2c-1.971-.22-2.32-.46-3.349-.558L120,68.96l-2.376-.067c-.671,0-1.244.046-1.787.059-1.085.052-2.054.026-3.435.2a10.437,10.437,0,0,0-1.587.454,17.964,17.964,0,0,1-2.385.532c.753-.317-.233-.1-1.141.079.574-.138.745-.234-.477-.114-.157.085-.412.158-.642.259-.013-.01-.062-.007-.042-.031-1.478.474-1.2.452-.506.282-.028.035.038.05.263.037a24.548,24.548,0,0,0-2.782.662c-.9.288-1.609.567-1.753.457a35.975,35.975,0,0,0-10.14,5.994c-.441.135.207-.5,1.084-1.207l-2.188,1.655c-.116-.182,1.2-1.026,1.862-1.557a20.761,20.761,0,0,0-2.084,1.392c-.634.562-1.257,1.161-1.889,1.77-.653.589-1.238,1.265-1.861,1.931s-1.326,1.284-1.972,1.985l-.377.716-.167.156c.076.049-.374.78-.71,1.228-.484.3-.352-.321-1.44,1.221a13.658,13.658,0,0,0-1.677,2.391L78.264,92.33c.565-.883.486-.537.307-.124a19.579,19.579,0,0,0-1.119,1.89l-.268-.036c.192-.109-.035.463-.317,1.1a10.276,10.276,0,0,0-.585,1.559c-.38.413.421-1.4.439-1.656-.814,1.7-.957,2.147-1.158,2.572a28.127,28.127,0,0,0-1.045,2.615c-.511,1.944.351-.257.23.716-.606,1.652-.872,3.353-1.6,5.238l.4-.551c-.37,1.6-.562,2.9-.856,4.034-.241,1.149-.442,2.17-.741,3.245-.124,1.526-.078,2.893-.107,4.088.028,1.2.131,2.242.193,3.139a18.244,18.244,0,0,0,.314,2.278c.114.628.22,1.129.316,1.523.4,1.574.679,1.446.8.552a35.559,35.559,0,0,0,.3-3.815c.133-1.366.207-2.514.207-2.514a103.412,103.412,0,0,1,1.934-11.62l.71-2.76c.265-.942.6-1.9.928-2.918a47.962,47.962,0,0,1,2.887-6.659" transform="translate(1392.723 9142.481)" fill="#3a552a"/>
      </g>
    </g>
    <g id="Grupo_1212252" data-name="Grupo 1212252" transform="translate(752.51 9140.477)">
      <g id="Grupo_1212251" data-name="Grupo 1212251" clip-path="url(#clip-path)">
        <path id="Trazado_1273646" data-name="Trazado 1273646" d="M40.555,53.2l7.212-10.979a1.769,1.769,0,0,0,.353-1L48.128,28.4l-1.491-.811a1.693,1.693,0,0,0-.757,1.393L45.844,39.56a3.054,3.054,0,0,1-1,2.084l-5.513,5.987a.878.878,0,1,1-1.292-1.146l5.583-6.064a1.309,1.309,0,0,0,.239-1.8,1.24,1.24,0,0,0-1.756-.152l-8.5,8.447A5.822,5.822,0,0,0,32.454,53.5a7.274,7.274,0,0,1,.516,5.068.83.83,0,0,1-.972.512c-1.408-.3.2-2.114-1.08-4.769a7.612,7.612,0,0,1-.643-4.395l-4.269-.01a.889.889,0,0,1-.907-.792.8.8,0,0,1,.736-.922l4.861-.023.8-1.469a1.6,1.6,0,0,0-1.39-.749L19.53,45.911a3.093,3.093,0,0,1-2.084-1.026L11.457,39.37A.907.907,0,0,1,11.289,38a.9.9,0,0,1,1.315.08l6.064,5.584a1.294,1.294,0,0,0,1.8.237,1.243,1.243,0,0,0,.152-1.756l-8.443-8.5a5.87,5.87,0,0,0-6.687-1.108,7.3,7.3,0,0,1-4.736.56.875.875,0,0,1-.75-.938A.829.829,0,0,1,1,31.386a5.809,5.809,0,0,0,3.681-.38A7.878,7.878,0,0,1,9.2,30.334l.008-12.408a3.223,3.223,0,0,1,.523-1.806l2.339-3.566a.876.876,0,0,1,1.168-.3.842.842,0,0,1,.306,1.18l-2.6,4.076L10.915,30.73l1.481.811a1.707,1.707,0,0,0,.768-1.4L13.2,19.571a3.053,3.053,0,0,1,1-2.083l5.516-5.982a.917.917,0,0,1,.979-.376.836.836,0,0,1,.64.675,1.1,1.1,0,0,1-.4.917l-5.51,5.991a1.306,1.306,0,0,0-.239,1.8,1.24,1.24,0,0,0,1.756.151l8.5-8.445a5.828,5.828,0,0,0,1.148-6.579A7.589,7.589,0,0,1,26,.793.871.871,0,0,1,27.05.072a.848.848,0,0,1,.64,1.084,5.781,5.781,0,0,0,.439,3.668,7.689,7.689,0,0,1,.642,4.419l12.519.02a3.215,3.215,0,0,1,1.783.575l11.111,7.292c2.184,1.434,4.76.061,4.858,1.589.038.584-.419.932-1.01.956a8.8,8.8,0,0,1-5.382-1.439l-10.47-6.919a1.984,1.984,0,0,0-1.144-.35l-12.679,0c-.218.49-.667.951-.72,1.485.041.443.83.764,1.3.766l10.58.037a2.938,2.938,0,0,1,2.009.921l6.059,5.587a.927.927,0,0,1,.385.983.906.906,0,0,1-.684.659c-.331.067-.621-.154-.916-.426l-5.994-5.506a1.323,1.323,0,0,0-1.714-.307,1.2,1.2,0,0,0-.292,1.726l3.132,3.2a.868.868,0,0,1,.048,1.2.913.913,0,0,1-1.207.109L37.323,18.37a3.112,3.112,0,0,1-.683-3.4l-7.855-.022a3.578,3.578,0,0,1-2.432-1.166l-8.1,8.049a3.092,3.092,0,0,1-3.333.641L14.9,30.159a3.767,3.767,0,0,1-1.166,2.578l8.114,8.176a3.051,3.051,0,0,1,.557,3.255l7.706.024a3.813,3.813,0,0,1,2.589,1.16l8.008-7.981a3.193,3.193,0,0,1,3.419-.688v-7.56A3.73,3.73,0,0,1,45.31,26.4l-2.233-2.268A.885.885,0,0,1,43.113,23,.939.939,0,0,1,44.3,22.93L46.868,25.5a5.847,5.847,0,0,0,6.7,1.094,7.225,7.225,0,0,1,4.946-.477.834.834,0,0,1,.474,1.083.855.855,0,0,1-1.058.539,5.826,5.826,0,0,0-3.669.432,7.617,7.617,0,0,1-4.417.641l-.012,12.391a3.237,3.237,0,0,1-.526,1.816L42.064,54.044c-1.58,2.4-.155,4.957-1.695,5.043a.91.91,0,0,1-.943-1.026A8.448,8.448,0,0,1,40.555,53.2" transform="translate(-0.003 -0.046)" fill="#12263f"/>
        <path id="Trazado_1273647" data-name="Trazado 1273647" d="M134.376,144.336h-3.761c-1.057,0-.822-1.1-.966-2.152a6.578,6.578,0,0,1-1.876-.819l-.974.936a.823.823,0,0,1-1.1,0l-2.743-2.727a.882.882,0,0,1,0-1.274l.867-.867a10.773,10.773,0,0,1-.838-1.886c-.159-.175-.7-.1-.921-.083a1,1,0,0,1-1.208-1.027v-3.551a1.034,1.034,0,0,1,.317-.8c.514-.421,1.241-.061,1.81-.323a11.026,11.026,0,0,1,.842-1.871l-.867-.877a.864.864,0,0,1-.067-1.18l2.809-2.812a.833.833,0,0,1,1.107-.006l.986.935a11.46,11.46,0,0,1,1.845-.835c.244-.909-.136-2.106.978-2.106h3.827c1.1,0,.786,1.137.987,2.106a10.9,10.9,0,0,1,1.871.844l.878-.872a.862.862,0,0,1,1.18-.064l2.812,2.807a.819.819,0,0,1,0,1.1l-.93.912a9.582,9.582,0,0,1,.8,1.947c1,.189,2.148-.124,2.147.955v3.826c0,1.1-1.144.8-2.111.985a11.163,11.163,0,0,1-.844,1.873l.867.877a.864.864,0,0,1,.067,1.18l-2.807,2.81a.848.848,0,0,1-1.191-.06l-.87-.871a10.919,10.919,0,0,1-1.884.844c-.232.936.146,2.12-1.04,2.12m-.768-1.814c-.087-.574-.154-1.459.306-1.647a14.334,14.334,0,0,0,3.034-1.289.831.831,0,0,1,.924-.02l.972.865,1.429-1.537c-.4-.313-1.083-.832-.989-1.358a22.217,22.217,0,0,0,1.465-3.572c.4-.345,1.156-.23,1.666-.225l-.006-2.125c-.452.025-1.349.161-1.633-.266a16.478,16.478,0,0,0-1.437-3.3.755.755,0,0,1,.084-.722l.872-.975a10.22,10.22,0,0,0-1.552-1.409c-.306.4-.937,1.2-1.437.931a29,29,0,0,0-3.391-1.427c-.491-.187-.315-1.209-.308-1.647l-2.161.035c.093.54.158,1.426-.307,1.62a16.486,16.486,0,0,0-3.233,1.4c-.523.36-1.062-.519-1.7-.947l-1.416,1.531c.376.3,1.1.845.978,1.352a30.165,30.165,0,0,0-1.456,3.484c-.174.508-1.218.356-1.646.309l-.011,2.147c.483-.021,1.442-.186,1.661.321a14.877,14.877,0,0,0,1.3,3.032c.538.749-.344,1.186-.837,1.907l1.544,1.412c.3-.42.916-1.184,1.45-.924a22.178,22.178,0,0,0,3.46,1.413c.356.38.237,1.159.228,1.664a9.318,9.318,0,0,0,2.154-.032" transform="translate(-103.009 -103.144)" fill="#12263f"/>
        <path id="Trazado_1273648" data-name="Trazado 1273648" d="M22.02,277.457l-4.152.015a3.27,3.27,0,0,1-1.8-.547L5.041,269.678c-2.383-1.567-4.958-.152-5.039-1.7a.9.9,0,0,1,1.026-.94,8.64,8.64,0,0,1,4.81,1.1l11.587,7.58,4.562.033a.826.826,0,0,1,.8.806.848.848,0,0,1-.767.9" transform="translate(0 -227.616)" fill="#12263f"/>
        <path id="Trazado_1273649" data-name="Trazado 1273649" d="M97.592,10.068a.863.863,0,0,1-1.2.24.889.889,0,0,1-.2-1.274l2.626-4c1.574-2.4.153-4.948,1.691-5.032.584-.032.935.4.944,1.024a8.38,8.38,0,0,1-1.091,4.807Z" transform="translate(-81.834 0)" fill="#12263f"/>
        <path id="Trazado_1273650" data-name="Trazado 1273650" d="M173.495,168.937a3.374,3.374,0,1,0,.032,3.119.87.87,0,0,1,1.106-.27.848.848,0,0,1,.367,1.148,5.094,5.094,0,1,1,0-4.828.86.86,0,0,1-1.506.831" transform="translate(-140.992 -141.001)" fill="#12263f"/>
      </g>
    </g>
  </g>
</svg>
