<svg xmlns="http://www.w3.org/2000/svg" xmlns:xlink="http://www.w3.org/1999/xlink" width="187.711" height="123.275" viewBox="0 0 187.711 123.275">
  <defs>
    <clipPath id="clip-path">
      <rect id="Rectángulo_465387" data-name="Rectángulo 465387" width="86.623" height="86.638" fill="#12263f"/>
    </clipPath>
  </defs>
  <g id="Grupo_1212385" data-name="Grupo 1212385" transform="translate(-290 -5016.189)">
    <g id="Grupo_1211237" data-name="Grupo 1211237" transform="translate(5.735 -3846.557)">
      <g id="Grupo_1204518" data-name="Grupo 1204518" transform="translate(289.277 8868.039)">
        <rect id="Rectángulo_455283" data-name="Rectángulo 455283" width="182.698" height="117.983" fill="#3a552a"/>
      </g>
    </g>
    <g id="Grupo_1211238" data-name="Grupo 1211238" transform="translate(0.723 -3851.85)">
      <g id="Grupo_1204518-2" data-name="Grupo 1204518" transform="translate(289.277 8868.039)">
        <rect id="Rectángulo_455283-2" data-name="Rectángulo 455283" width="183.422" height="118.45" fill="#ffe4b3"/>
      </g>
    </g>
    <g id="Grupo_1212384" data-name="Grupo 1212384" transform="translate(338.399 5032.096)">
      <g id="Grupo_1212383" data-name="Grupo 1212383" clip-path="url(#clip-path)">
        <path id="Trazado_1274111" data-name="Trazado 1274111" d="M134.8,48.046l-3.654-.011c-2.574-.3-3.732-2.294-4.345-4.493-.841-.867-2.186-1.705-2.185-3.439l0-4.193a2.156,2.156,0,0,0-1.025-1.842,18.323,18.323,0,1,1,18.916-.08c-.488.3-1.15.849-1.153,1.524l-.02,4.1a3.928,3.928,0,0,1-2.353,3.832,4.825,4.825,0,0,1-4.185,4.6m-2.388-25.6a2.7,2.7,0,0,0,1.137.047l.026-3.56a4.366,4.366,0,0,1,3.139-4.017,4.467,4.467,0,0,1,4.75,1.373,4.278,4.278,0,0,1,.429,5.045,8.664,8.664,0,0,1-5.576,3.536l.006,12.016,2.359.066a4.951,4.951,0,0,1,2.278-5.217,15.6,15.6,0,1,0-15.539.292c1.65.949,2.007,3.165,1.913,4.884a7.535,7.535,0,0,0,2.312-.028L129.639,24.9a10.554,10.554,0,0,1-4.813-2.529,4.427,4.427,0,0,1-.786-5.471,4.477,4.477,0,0,1,4.89-2.065,4.243,4.243,0,0,1,3.423,3.906Zm-2.8-.423.016-2.963a1.745,1.745,0,0,0-1.34-1.6,1.8,1.8,0,0,0-1.915.872c-.826,1.569.968,3.026,3.238,3.7m6.732-.005a6.287,6.287,0,0,0,2.9-1.617,1.737,1.737,0,0,0-1.7-2.919,1.748,1.748,0,0,0-1.226,1.691ZM133.557,36.81,133.548,25.4a1.316,1.316,0,0,0-1.136-.144l-.019,11.679a1.347,1.347,0,0,0,1.164-.124m4.128,4.153a.981.981,0,0,0,.9-1.268L127.4,39.689a.871.871,0,0,0,.143.917,1.151,1.151,0,0,0,.885.382Zm-1.449,2.776-6.519,0a2.129,2.129,0,0,0,1.371,1.482c2.153.42,4.712.345,5.147-1.477" transform="translate(-89.712 0)" fill="#12263f"/>
        <path id="Trazado_1274112" data-name="Trazado 1274112" d="M152.606,268.458l-32.025.005c-.713,0-1.534-.333-1.545-1.155a17.421,17.421,0,0,1,11.685-16.653,10.036,10.036,0,1,1,11.435,0,17.525,17.525,0,0,1,11.707,16.238,1.373,1.373,0,0,1-1.257,1.568M134.9,235.26a7.262,7.262,0,0,0-5.6,8.673,7.31,7.31,0,0,0,14.337-2.853,7.266,7.266,0,0,0-8.735-5.82m16.176,30.522a14.69,14.69,0,0,0-29.259.014Z" transform="translate(-93.145 -181.825)" fill="#12263f"/>
        <path id="Trazado_1274113" data-name="Trazado 1274113" d="M18.624,193.753l-4.7.018a1.472,1.472,0,0,1-1.572-1.623,3.485,3.485,0,0,0-.068-1.193,14.886,14.886,0,0,1-2.869-1.181l-1.017.981a1.363,1.363,0,0,1-1.83.055l-3.773-3.833c-.974-.989.947-2.2,1.076-2.6.081-.245-.172-.538-.281-.788l-.967-2.215c-.8.181-2.469.1-2.492-.858L0,174.977c-.032-1.376,1.328-1.248,2.746-1.39a24.192,24.192,0,0,1,1.161-2.763,1.892,1.892,0,0,0-.7-.807,1.465,1.465,0,0,1-.295-2.156l3.459-3.5a1.5,1.5,0,0,1,2.272.2c1,1.255,1.252.192,3.583-.439.2-.171.163-.824.129-1.1a1.387,1.387,0,0,1,1.373-1.713l4.754-.009a1.481,1.481,0,0,1,1.537,1.726c-.023.259-.089.978.139,1.122a24.143,24.143,0,0,1,2.529,1.025c.642.314,1.052-1.039,2.066-1.236a1.39,1.39,0,0,1,1.246.5l3.671,3.905c.65.691-.538,1.852-1.232,2.285l1.147,2.872c.177.444,2.79-.358,2.769,1.512l-.06,5.332c-.012,1.059-1.561,1.283-2.51,1.007l-1.074,2.322c-.112.243-.281.482-.2.712.138.382,2.072,1.607,1,2.683l-3.8,3.819a1.337,1.337,0,0,1-1.595,0l-1.2-1.105a12.945,12.945,0,0,1-2.859,1.158l-.057,1.427a1.381,1.381,0,0,1-1.388,1.389m-1.249-2.926c-.255-.9-.017-1.963.673-2.133a15.3,15.3,0,0,0,4.518-1.838c.812-.5,1.8.181,2.273.979l1.628-1.616c-.676-.46-1.527-1.4-1.061-2.15,2.321-3.722,1.159-5.866,4.141-5.385a4.674,4.674,0,0,0,.03-2.3c-.83.185-2.063.053-2.264-.823-.971-4.233-3.405-4.915-.775-6.72l-1.4-1.432c-.465-.476-1.387,1.657-2.68.784-3.219-2.175-5.721-1.005-5.087-3.99a5.637,5.637,0,0,0-2.4-.09c.2.882.109,2.105-.842,2.327a15.44,15.44,0,0,0-4.5,1.853c-.777.461-1.663-.411-2.154-1.036A9.143,9.143,0,0,0,5.86,168.84c.66.427,1.514,1.4,1.08,2.133a18.462,18.462,0,0,0-1.947,4.667c-.234.857-1.566.878-2.28.79a8.619,8.619,0,0,0,.019,2.28c3.079-.585,1.866,1.678,4.1,5.095.865,1.324-1.138,2.2-.843,2.583a6.177,6.177,0,0,0,1.534,1.468,3.04,3.04,0,0,1,1.165-1.079,1.758,1.758,0,0,1,1.6.313c1.253.952,2.769,1.144,4.186,1.716.738.3.6,1.541.533,2.172a3.956,3.956,0,0,0,2.375-.152" transform="translate(0 -126.216)" fill="#12263f"/>
        <path id="Trazado_1274114" data-name="Trazado 1274114" d="M264.178,161.512a16.21,16.21,0,1,1-14.915,17.542,16.2,16.2,0,0,1,14.915-17.542m-.669,2.817a13.483,13.483,0,1,0,15.271,11.5,13.45,13.45,0,0,0-15.271-11.5" transform="translate(-195.004 -126.345)" fill="#12263f"/>
        <path id="Trazado_1274115" data-name="Trazado 1274115" d="M80.3,80.01l-4.617.017a1.373,1.373,0,0,1-1.259-1.36,1.4,1.4,0,0,1,1.453-1.373l4.123-.013a1.4,1.4,0,0,1,1.524,1.193A1.327,1.327,0,0,1,80.3,80.01" transform="translate(-58.233 -60.473)" fill="#12263f"/>
        <path id="Trazado_1274116" data-name="Trazado 1274116" d="M296.925,80.231h-4.413a1.408,1.408,0,0,1-1.527-1.206,1.336,1.336,0,0,1,1.355-1.525l4.478,0a1.336,1.336,0,0,1,1.256,1.168,1.46,1.46,0,0,1-1.15,1.56" transform="translate(-227.686 -60.646)" fill="#12263f"/>
        <path id="Trazado_1274117" data-name="Trazado 1274117" d="M96.236,20.634a1.376,1.376,0,0,1,.232,1.868,1.433,1.433,0,0,1-1.867.3l-3.57-2.073a1.437,1.437,0,0,1-.733-1.774,1.319,1.319,0,0,1,1.743-.747Z" transform="translate(-70.588 -14.144)" fill="#12263f"/>
        <path id="Trazado_1274118" data-name="Trazado 1274118" d="M92.312,130.929a1.426,1.426,0,0,1-1.922-.329,1.313,1.313,0,0,1,.427-1.943l4.006-2.287a1.255,1.255,0,0,1,1.658.554,1.378,1.378,0,0,1-.37,1.8Z" transform="translate(-70.523 -98.777)" fill="#12263f"/>
        <path id="Trazado_1274119" data-name="Trazado 1274119" d="M283.492,128.759a1.267,1.267,0,0,1,.355,1.815,1.391,1.391,0,0,1-1.851.447l-3.705-2.161a1.376,1.376,0,0,1-.671-1.675,1.318,1.318,0,0,1,1.823-.776Z" transform="translate(-217.173 -98.797)" fill="#12263f"/>
        <path id="Trazado_1274120" data-name="Trazado 1274120" d="M279.665,22.935a1.378,1.378,0,0,1-1.958-.519,1.437,1.437,0,0,1,.731-1.92l3.568-2.057a1.369,1.369,0,1,1,1.316,2.4Z" transform="translate(-217.192 -14.276)" fill="#12263f"/>
        <path id="Trazado_1274121" data-name="Trazado 1274121" d="M40.359,194.353A9.068,9.068,0,1,1,32.8,204.9a9.033,9.033,0,0,1,7.561-10.548m-.228,2.837a6.287,6.287,0,0,0-4.535,7.774,6.357,6.357,0,0,0,12.345-3.035,6.309,6.309,0,0,0-7.81-4.739" transform="translate(-25.557 -151.992)" fill="#12263f"/>
        <path id="Trazado_1274122" data-name="Trazado 1274122" d="M277.792,180.153a12.184,12.184,0,1,1-9.85,14.351,12.161,12.161,0,0,1,9.85-14.351m1.29,2.582a9.453,9.453,0,1,0,10.236,8.507,9.446,9.446,0,0,0-10.236-8.507" transform="translate(-209.488 -140.823)" fill="#12263f"/>
        <path id="Trazado_1274123" data-name="Trazado 1274123" d="M310.885,214.574a1.423,1.423,0,0,1-1.169,1.69c-1.048.123-1.359-.57-1.631-1.464-.575-.524-1.7-.823-2.094-1.725a1.461,1.461,0,0,1,.25-1.635,1.4,1.4,0,0,1,1.793.012,1.785,1.785,0,0,0,1.572.651c.679-.021,1.108-.378,1.117-1a.949.949,0,0,0-1.123-.953,3.731,3.731,0,0,1-3.9-2.78,3.9,3.9,0,0,1,2.365-4.478c.223-.765.529-1.637,1.429-1.663,1.083-.031,1.078.881,1.6,1.564.49.64,1.787.782,2.047,1.839a1.473,1.473,0,0,1-.435,1.565c-1.335.921-1.773-.788-3.34-.677-.6.042-.976.283-1.053.826a1.016,1.016,0,0,0,.979,1.076,3.7,3.7,0,0,1,4.051,2.775,3.589,3.589,0,0,1-2.455,4.378" transform="translate(-239.115 -157.46)" fill="#12263f"/>
      </g>
    </g>
  </g>
</svg>
