<svg xmlns="http://www.w3.org/2000/svg" xmlns:xlink="http://www.w3.org/1999/xlink" width="128" height="128" viewBox="0 0 128 128">
  <defs>
    <clipPath id="clip-path">
      <rect id="Rectángulo_459899" data-name="Rectángulo 459899" width="128" height="128" fill="none"/>
    </clipPath>
    <clipPath id="clip-path-2">
      <rect id="Rectángulo_465409" data-name="Rectángulo 465409" width="63.058" height="62.345" fill="#12263f"/>
    </clipPath>
  </defs>
  <g id="Grupo_1212502" data-name="Grupo 1212502" transform="translate(-735.746 -2930.48)">
    <g id="Grupo_1211289" data-name="Grupo 1211289" transform="translate(735.746 2930.48)">
      <g id="Grupo_1188515" data-name="Grupo 1188515" clip-path="url(#clip-path)">
        <path id="Trazado_1033015" data-name="Trazado 1033015" d="M128,64A64,64,0,1,1,64,0a64,64,0,0,1,64,64" fill="#fff"/>
        <path id="Trazado_1033016" data-name="Trazado 1033016" d="M154.441,185.937l.625-.59c-.045-.02-.215.119-.625.59" transform="translate(-131.184 -157.435)" fill="#e4cbc1"/>
        <path id="Trazado_1033017" data-name="Trazado 1033017" d="M374.691,757.713l-.2.008a.74.74,0,0,0,.2-.008" transform="translate(-318.095 -643.61)" fill="#e4cbc1"/>
        <path id="Trazado_1033018" data-name="Trazado 1033018" d="M342.621,99.876l-.041.008-.2.065Z" transform="translate(-290.823 -84.836)" fill="#e4cbc1"/>
        <path id="Trazado_1033019" data-name="Trazado 1033019" d="M81.364,97.171a46.672,46.672,0,0,1,3.779-5.711c1.133-1.6,2.359-2.8,3.473-4.1.6-.615,1.228-1.2,1.858-1.825l.97-.96,1.1-.927a47.547,47.547,0,0,1,5.5-4.2,46.375,46.375,0,0,1,14.737-5.883c2.322-.985,6.71-.887,9.606-1.239l1.123.269a11.86,11.86,0,0,1,3.182.125l-.069.054c1.5.046,3.178.288,3.916.385l-.072.049,1.79.338-.325.025c.647.092,1.3.178,1.95.3l1.9.5c.625.176,1.248.337,1.843.538l1.707.68-.095-.313c.586.256,1.127.482,1.636.685s.956.45,1.4.64c.875.4,1.663.733,2.437,1.063.743.389,1.473.772,2.258,1.217.39.226.8.452,1.22.731.4.3.829.621,1.28.979l-.087.017c.647.335,1.251.674,1.819,1.016.55.366,1.04.768,1.521,1.149s.933.772,1.375,1.157.817.833,1.223,1.245c1.618,1.661,3.114,3.436,5.222,5.6-.519-.547.09.338,0,.328l1.3,1.6c.419.52.765,1.051,1.108,1.479.671.868,1.2,1.425,1.432,1.308,1.071,1.738.7,1.516.678,1.837.172-.117,1.176,1.354,1.91,2.769-.137-.2-.255-.419-.406-.615.7,1.351,1.393,2.708,2.057,4.079.025-.338,0-.658.006-.99.887,2.273-.217.771.773,2.875l.313-.159a19.563,19.563,0,0,1,.732,2.189c.165.694.3,1.349.426,2s.257,1.3.371,1.981c.091.692.2,1.416.339,2.21a73.426,73.426,0,0,1,1.768,9.989,51.748,51.748,0,0,1-.063,10.205l-.136,1.264-.068.631-.127.619-.512,2.466a17.435,17.435,0,0,1-.677,2.4c-.26.785-.5,1.577-.779,2.345l-1.018,2.217a17.671,17.671,0,0,1-1.094,2.137,29.664,29.664,0,0,1-2.668,3.842l-.541.266c-.411-.047-1.68,2.982-2.322,3.054-.289.381-.56.782-.872,1.147-.34.231-1,.763-.546.208a16.966,16.966,0,0,0-1.6,1.672c-.4.26-.832.482-1.247.718a74.424,74.424,0,0,1-6.176,4.184,35.986,35.986,0,0,1-6.974,3.266,93.37,93.37,0,0,1-12.7,2.748,98.083,98.083,0,0,1-13.538.888,49.735,49.735,0,0,1-15.981-2.551A67.158,67.158,0,0,1,89.2,160.415a3.592,3.592,0,0,0-1.043-.6c-.607-.5-1.191-1.018-1.788-1.524l-.892-.764-.814-.843L83.038,155l-1.448-1.839-.312-.392-.37-.462-.431-.661a34.528,34.528,0,0,1-2.393-4.01,21.288,21.288,0,0,1-1.264-2.643c-.367-.945-.809-1.89-1.144-2.87-.6-1.985-1.275-3.931-1.646-5.694-.817-3.5-1.184-6.012-1.59-5.364a10.1,10.1,0,0,0-.38,3.632,36.74,36.74,0,0,0,.261,4.12c.111.827.29,1.722.463,2.705l.285,1.536c.1.534.292,1.062.445,1.627l-.169-.205L74,146.362l.315.882c.12.281.257.548.381.813.513,1.057.982,2.038,1.479,2.94a23.866,23.866,0,0,0,3.582,4.589,2,2,0,0,0,.442.92c.138.2.3.413.48.634l.634.637c.893.855,1.832,1.78,2.277,2.258l-.123-.049c1.44.94,2.657,2.2,4.065,3.215a21.712,21.712,0,0,0,2.08,1.531,20.226,20.226,0,0,0,2.212,1.179,1.586,1.586,0,0,1-.914-.312c.528.279,1.088.616,1.669.891l1.672.779a6.405,6.405,0,0,1,1.806,1.055,58.146,58.146,0,0,0,8.915,2.859,38.937,38.937,0,0,0,4.323.8,21.527,21.527,0,0,0,3.393.24l-.255.051c2.064-.038,2.637.242,4.926.254.122.048.282.081.255.1,2.224-.154,6.453.16,8.246-.044l.121.2c1.471-.063,2.943-.144,4.411-.283-.55.035-1.1.057-1.651.072.528-.57,3.368.143,6.519-.667,3.013-.374,5.76-2.2,8.767-2.816,1.338-.666-1.123.779.93-.058.158.256-.934.483-.32.533,2.031-.8,3.509-.855,5.925-2.117l.192.158c3.044-1.81,6.1-2.831,7.832-4.521a12.491,12.491,0,0,1,2.589-1.686,7.231,7.231,0,0,0,2.446-2.076l1.289-.82c1.182-1.163.579-1.085,1.894-2.356.081.221,1.608-1.677,1.065-.73a25.026,25.026,0,0,0,3.654-5.365l.793-1.559.736-1.663c.517-1.127,1.131-2.276,1.628-3.56a11.286,11.286,0,0,1,.554-2.482,9.248,9.248,0,0,0,.349-2.272,16.21,16.21,0,0,0,.622-2.336c.152-.953.277-1.513.255.045,0,.268-.128.724-.177.682l.135.4a8.52,8.52,0,0,0,.506-2.205c.091-.724.141-1.434.179-2.142a18.33,18.33,0,0,0,0-2.137c-.016-.721-.015-1.456.03-2.224-.107.909-.136,2.118-.254,1.3.024-.946.144-1.9.088-2.841l.208.59-.069-4.248-.2.6a16.372,16.372,0,0,0-.374-5.124c-.338-1.012-.031,1.981-.416-.161-.2-1.358-.356-3.084-.717-4.868a47.607,47.607,0,0,0-1.326-5.338c-.14.392-.431-.509-.79-1.414l.174-.182c-.748-1.716-.836-2.047-.821-2.419-.007-.362-.007-.729-.825-2.405l.267.242c-.262-.244-.534-.481-.824-.708a6.605,6.605,0,0,1-1.153-2.355,5.909,5.909,0,0,0-1.474-2.5c.758,1.259-.091.834-.892-.773l.412.289a17.513,17.513,0,0,1-1.063-1.687c.382.462.457.091-.4-1.112l.772.684L165.6,92.049A18.783,18.783,0,0,0,163.509,89c-.376-.488-.727-.946-1-1.338a5.175,5.175,0,0,1-.606-.9s-.743-.9-1.609-1.864a12.043,12.043,0,0,0-1.381-1.336,6.591,6.591,0,0,0-1.09-.81c.821.5-.989-1.34-.3-1.013-.495-.363-1.516-1.015-2.5-1.751-.491-.366-.978-.748-1.4-1.107s-.833-.633-1.091-.89l.241.13c-4.218-3.29-7.918-4.417-12.214-6.37.112.317-2.184-.685-1.71-.156-2.377-.551-4.454-1.343-6.252-1.734a13.7,13.7,0,0,0-2.393-.462,4.062,4.062,0,0,0-1.764.222c-2.186-.246-2.573-.514-3.715-.623l.531-.029-2.636-.075c-.744,0-1.38.051-1.982.066-1.2.058-2.278.029-3.809.226a11.52,11.52,0,0,0-1.761.507,19.819,19.819,0,0,1-2.645.594c.836-.354-.258-.107-1.266.089.637-.154.826-.261-.529-.127-.174.095-.456.176-.712.289-.014-.011-.069-.008-.047-.035-1.639.529-1.333.5-.561.314-.031.039.043.056.292.041a27.084,27.084,0,0,0-3.085.739c-.993.322-1.784.633-1.945.51A39.849,39.849,0,0,0,93.325,78.8c-.489.15.229-.557,1.2-1.347L92.1,79.3c-.129-.2,1.332-1.145,2.065-1.738a23.017,23.017,0,0,0-2.311,1.553c-.7.628-1.394,1.3-2.1,1.976-.724.657-1.373,1.412-2.064,2.155s-1.47,1.433-2.187,2.216l-.418.8-.185.174a4.4,4.4,0,0,1-.788,1.37c-.537.337-.39-.359-1.6,1.363a15.244,15.244,0,0,0-1.861,2.669l-1.695,3.217c.627-.986.539-.6.34-.138a21.883,21.883,0,0,0-1.241,2.11l-.3-.041c.213-.121-.039.517-.352,1.233a11.516,11.516,0,0,0-.648,1.74c-.422.46.467-1.565.487-1.848-.9,1.893-1.062,2.4-1.285,2.87-.185.49-.478.937-1.159,2.919-.567,2.169.389-.287.255.8-.673,1.844-.967,3.743-1.775,5.846l.442-.615c-.41,1.784-.623,3.233-.95,4.5-.267,1.282-.49,2.422-.822,3.621-.138,1.7-.086,3.229-.119,4.563.031,1.339.145,2.5.214,3.5a20.484,20.484,0,0,0,.348,2.542c.127.7.243,1.26.35,1.7.443,1.757.753,1.614.887.617a39.933,39.933,0,0,0,.33-4.258c.147-1.525.229-2.806.229-2.806a116.086,116.086,0,0,1,2.145-12.969l.788-3.08c.294-1.051.671-2.117,1.03-3.257a53.709,53.709,0,0,1,3.2-7.432" transform="translate(-61.023 -58.519)" fill="#3a552a"/>
      </g>
    </g>
    <g id="Grupo_1212430" data-name="Grupo 1212430" transform="translate(767.146 2958)">
      <g id="Grupo_1212429" data-name="Grupo 1212429" clip-path="url(#clip-path-2)">
        <path id="Trazado_1274277" data-name="Trazado 1274277" d="M88.106,142.53l-.018-12.353a1.443,1.443,0,1,0-2.884,0L85.118,142.4a3.321,3.321,0,0,1-1.79,2.911,2.876,2.876,0,0,1-2.921-.213,2.937,2.937,0,0,1-1.453-2.363l-.016-29.014L68.191,104.7a3.223,3.223,0,1,1,3.955-5.082l8.135,6.839,12.465.06a6.116,6.116,0,0,1,5.874,6.064l.022,9.1a3.1,3.1,0,0,1-1.316,2.436,3.194,3.194,0,0,1-2.983.356l-.059,18.266a3.048,3.048,0,0,1-3.044,2.863,3.1,3.1,0,0,1-3.134-3.069m4.262-.1.012-29.467c0-.752.419-1.152,1.057-1.122a.983.983,0,0,1,.917,1.1l.04,8.757a1.113,1.113,0,0,0,1.236,1.025,1.179,1.179,0,0,0,1.038-1.115l-.025-8.977a4.238,4.238,0,0,0-4.267-4.184L79.529,108.4l-8.51-7.176a1.267,1.267,0,0,0-1.827-.044,1.252,1.252,0,0,0,.157,1.881L80.9,112.806l0,29.448a1.278,1.278,0,0,0,.548,1.181,1.046,1.046,0,0,0,1.224-.022,2.126,2.126,0,0,0,.509-1.577l.1-11.991a3.325,3.325,0,0,1,3.506-3.129,3.407,3.407,0,0,1,3.271,3.417l.026,12.424a1.121,1.121,0,0,0,1.164,1.057,1.179,1.179,0,0,0,1.13-1.182" transform="translate(-56.306 -83.267)" fill="#12263f"/>
        <path id="Trazado_1274278" data-name="Trazado 1274278" d="M299.674,243.995l-.043-8.713a.691.691,0,1,0-1.377,0l-.05,8.707a2.451,2.451,0,0,1-2.462,2.292,2.482,2.482,0,0,1-2.466-2.477l-.008-12.087a2.443,2.443,0,0,1-2.93-2.277V222.2a3.864,3.864,0,0,1,4.258-3.721,7.747,7.747,0,0,0,5.29,1.492,8.2,8.2,0,0,0,3.416-1.5,3.935,3.935,0,0,1,4.276,4.029l.021,6.476a2.61,2.61,0,0,1-2.982,2.741l-.039,12.213a2.445,2.445,0,0,1-2.408,2.347,2.413,2.413,0,0,1-2.5-2.285m1.964-.132a.45.45,0,0,0,.545.427.505.505,0,0,0,.45-.511V223.167a.985.985,0,1,1,1.964-.162l.022,6.284a.486.486,0,0,0,.972,0l-.005-7.131c0-.67-.935-1.9-1.655-1.6a12.618,12.618,0,0,1-4.522,1.464c-1.986.093-3.637-.728-5.425-1.455-.9-.365-1.738,1.137-1.736,1.9l.024,6.828a.47.47,0,0,0,.453.455c.154.016.528-.029.529-.325l.015-6.295a1,1,0,0,1,1.029-1.048.981.981,0,0,1,.951.97l.012,20.726a.5.5,0,0,0,.606.511.485.485,0,0,0,.366-.525l.037-8.637a2.612,2.612,0,0,1,2.753-2.568,2.663,2.663,0,0,1,2.6,2.724Z" transform="translate(-244.542 -184.001)" fill="#12263f"/>
        <path id="Trazado_1274279" data-name="Trazado 1274279" d="M9.357,243.883l-.016-8.6a.7.7,0,1,0-1.39-.093L7.922,243.8a2.469,2.469,0,1,1-4.937,0V231.709a2.47,2.47,0,0,1-2.973-2.423L0,222.5a3.969,3.969,0,0,1,4.3-4.027,8.859,8.859,0,0,0,3.589,1.5,6.764,6.764,0,0,0,5.036-1.469,3.926,3.926,0,0,1,4.357,4.008l-.035,6.877a2.473,2.473,0,0,1-2.931,2.333l-.039,12.225a2.462,2.462,0,0,1-4.92-.056m1.986-.09a.462.462,0,0,0,.556.5.487.487,0,0,0,.412-.52l.019-20.751a1,1,0,0,1,1.1-.93,1.041,1.041,0,0,1,.89,1.054l.025,6.285c0,.29.365.368.527.316.145-.047.445-.2.445-.471l.005-6.952c0-.793-.886-1.989-1.714-1.8a9.977,9.977,0,0,1-5.379,1.479,14.946,14.946,0,0,1-4.513-1.438c-.875-.341-1.734.976-1.735,1.752l-.006,6.82c0,.335.154.607.458.624a.537.537,0,0,0,.547-.495l.015-6.291a.947.947,0,0,1,1.02-.89.916.916,0,0,1,.917.9l.008,20.763a.5.5,0,0,0,.5.53.545.545,0,0,0,.517-.52l.053-8.8a2.548,2.548,0,0,1,2.731-2.407,2.615,2.615,0,0,1,2.574,2.574Z" transform="translate(0 -183.998)" fill="#12263f"/>
        <path id="Trazado_1274280" data-name="Trazado 1274280" d="M157.673,65.157a6.01,6.01,0,0,1,7.089,4.868,6.048,6.048,0,1,1-7.089-4.868m.794,1.885a4.016,4.016,0,0,0-3.706,4.475,4.071,4.071,0,0,0,8.1-.818,4.021,4.021,0,0,0-4.394-3.657" transform="translate(-128.662 -54.783)" fill="#12263f"/>
        <path id="Trazado_1274281" data-name="Trazado 1274281" d="M317.9,158.14a4.768,4.768,0,1,1-3.64,5.686,4.731,4.731,0,0,1,3.64-5.686m.623,1.892a2.769,2.769,0,0,0-2.363,3.278,2.8,2.8,0,0,0,5.519-.9,2.757,2.757,0,0,0-3.157-2.376" transform="translate(-264.6 -133.103)" fill="#12263f"/>
        <path id="Trazado_1274282" data-name="Trazado 1274282" d="M27.755,158.116a4.768,4.768,0,1,1-3.65,5.726,4.749,4.749,0,0,1,3.65-5.726m.63,1.9a2.745,2.745,0,0,0-2.376,3.268,2.8,2.8,0,0,0,5.521-.884,2.756,2.756,0,0,0-3.146-2.384" transform="translate(-20.198 -133.084)" fill="#12263f"/>
        <path id="Trazado_1274283" data-name="Trazado 1274283" d="M203.4,17.085a1.022,1.022,0,0,1-1.363.228.989.989,0,0,1-.227-1.42l4.781-4.807a1.019,1.019,0,0,1,1.378-.017.968.968,0,0,1,.021,1.409Z" transform="translate(-169.796 -9.104)" fill="#12263f"/>
        <path id="Trazado_1274284" data-name="Trazado 1274284" d="M185.555,7.352a.987.987,0,0,1-.892,1.033.962.962,0,0,1-1.049-.945l0-6.475A.957.957,0,0,1,184.528,0a.94.94,0,0,1,1.021.974Z" transform="translate(-154.648 -0.001)" fill="#12263f"/>
        <path id="Trazado_1274285" data-name="Trazado 1274285" d="M143.992,17.938a1.051,1.051,0,0,1,.188,1.363c-.193.315-.908.641-1.271.278l-4.65-4.652c-.367-.367-.11-.98.174-1.225a.956.956,0,0,1,1.339.03Z" transform="translate(-116.298 -11.323)" fill="#12263f"/>
      </g>
    </g>
  </g>
</svg>
