<svg xmlns="http://www.w3.org/2000/svg" xmlns:xlink="http://www.w3.org/1999/xlink" width="128" height="128" viewBox="0 0 128 128">
  <defs>
    <clipPath id="clip-path">
      <rect id="Rectángulo_459899" data-name="Rectángulo 459899" width="128" height="128" fill="none"/>
    </clipPath>
    <clipPath id="clip-path-2">
      <rect id="Rectángulo_465396" data-name="Rectángulo 465396" width="46.36" height="68.02" fill="#12263f"/>
    </clipPath>
  </defs>
  <g id="Grupo_1212498" data-name="Grupo 1212498" transform="translate(-3008.574 5607.281)">
    <g id="Grupo_1211262" data-name="Grupo 1211262" transform="translate(3008.574 -5607.281)">
      <g id="Grupo_1188515" data-name="Grupo 1188515" clip-path="url(#clip-path)">
        <path id="Trazado_1033015" data-name="Trazado 1033015" d="M128,64A64,64,0,1,1,64,0a64,64,0,0,1,64,64" fill="#fff"/>
        <path id="Trazado_1033016" data-name="Trazado 1033016" d="M154.441,185.937l.625-.59c-.045-.02-.215.119-.625.59" transform="translate(-131.184 -157.435)" fill="#e4cbc1"/>
        <path id="Trazado_1033017" data-name="Trazado 1033017" d="M374.691,757.713l-.2.008a.74.74,0,0,0,.2-.008" transform="translate(-318.095 -643.61)" fill="#e4cbc1"/>
        <path id="Trazado_1033018" data-name="Trazado 1033018" d="M342.621,99.876l-.041.008-.2.065Z" transform="translate(-290.823 -84.836)" fill="#e4cbc1"/>
        <path id="Trazado_1033019" data-name="Trazado 1033019" d="M81.364,97.171a46.672,46.672,0,0,1,3.779-5.711c1.133-1.6,2.359-2.8,3.473-4.1.6-.615,1.228-1.2,1.858-1.825l.97-.96,1.1-.927a47.547,47.547,0,0,1,5.5-4.2,46.375,46.375,0,0,1,14.737-5.883c2.322-.985,6.71-.887,9.606-1.239l1.123.269a11.86,11.86,0,0,1,3.182.125l-.069.054c1.5.046,3.178.288,3.916.385l-.072.049,1.79.338-.325.025c.647.092,1.3.178,1.95.3l1.9.5c.625.176,1.248.337,1.843.538l1.707.68-.095-.313c.586.256,1.127.482,1.636.685s.956.45,1.4.64c.875.4,1.663.733,2.437,1.063.743.389,1.473.772,2.258,1.217.39.226.8.452,1.22.731.4.3.829.621,1.28.979l-.087.017c.647.335,1.251.674,1.819,1.016.55.366,1.04.768,1.521,1.149s.933.772,1.375,1.157.817.833,1.223,1.245c1.618,1.661,3.114,3.436,5.222,5.6-.519-.547.09.338,0,.328l1.3,1.6c.419.52.765,1.051,1.108,1.479.671.868,1.2,1.425,1.432,1.308,1.071,1.738.7,1.516.678,1.837.172-.117,1.176,1.354,1.91,2.769-.137-.2-.255-.419-.406-.615.7,1.351,1.393,2.708,2.057,4.079.025-.338,0-.658.006-.99.887,2.273-.217.771.773,2.875l.313-.159a19.563,19.563,0,0,1,.732,2.189c.165.694.3,1.349.426,2s.257,1.3.371,1.981c.091.692.2,1.416.339,2.21a73.426,73.426,0,0,1,1.768,9.989,51.748,51.748,0,0,1-.063,10.205l-.136,1.264-.068.631-.127.619-.512,2.466a17.435,17.435,0,0,1-.677,2.4c-.26.785-.5,1.577-.779,2.345l-1.018,2.217a17.671,17.671,0,0,1-1.094,2.137,29.664,29.664,0,0,1-2.668,3.842l-.541.266c-.411-.047-1.68,2.982-2.322,3.054-.289.381-.56.782-.872,1.147-.34.231-1,.763-.546.208a16.966,16.966,0,0,0-1.6,1.672c-.4.26-.832.482-1.247.718a74.424,74.424,0,0,1-6.176,4.184,35.986,35.986,0,0,1-6.974,3.266,93.37,93.37,0,0,1-12.7,2.748,98.083,98.083,0,0,1-13.538.888,49.735,49.735,0,0,1-15.981-2.551A67.158,67.158,0,0,1,89.2,160.415a3.592,3.592,0,0,0-1.043-.6c-.607-.5-1.191-1.018-1.788-1.524l-.892-.764-.814-.843L83.038,155l-1.448-1.839-.312-.392-.37-.462-.431-.661a34.528,34.528,0,0,1-2.393-4.01,21.288,21.288,0,0,1-1.264-2.643c-.367-.945-.809-1.89-1.144-2.87-.6-1.985-1.275-3.931-1.646-5.694-.817-3.5-1.184-6.012-1.59-5.364a10.1,10.1,0,0,0-.38,3.632,36.74,36.74,0,0,0,.261,4.12c.111.827.29,1.722.463,2.705l.285,1.536c.1.534.292,1.062.445,1.627l-.169-.205L74,146.362l.315.882c.12.281.257.548.381.813.513,1.057.982,2.038,1.479,2.94a23.866,23.866,0,0,0,3.582,4.589,2,2,0,0,0,.442.92c.138.2.3.413.48.634l.634.637c.893.855,1.832,1.78,2.277,2.258l-.123-.049c1.44.94,2.657,2.2,4.065,3.215a21.712,21.712,0,0,0,2.08,1.531,20.226,20.226,0,0,0,2.212,1.179,1.586,1.586,0,0,1-.914-.312c.528.279,1.088.616,1.669.891l1.672.779a6.405,6.405,0,0,1,1.806,1.055,58.146,58.146,0,0,0,8.915,2.859,38.937,38.937,0,0,0,4.323.8,21.527,21.527,0,0,0,3.393.24l-.255.051c2.064-.038,2.637.242,4.926.254.122.048.282.081.255.1,2.224-.154,6.453.16,8.246-.044l.121.2c1.471-.063,2.943-.144,4.411-.283-.55.035-1.1.057-1.651.072.528-.57,3.368.143,6.519-.667,3.013-.374,5.76-2.2,8.767-2.816,1.338-.666-1.123.779.93-.058.158.256-.934.483-.32.533,2.031-.8,3.509-.855,5.925-2.117l.192.158c3.044-1.81,6.1-2.831,7.832-4.521a12.491,12.491,0,0,1,2.589-1.686,7.231,7.231,0,0,0,2.446-2.076l1.289-.82c1.182-1.163.579-1.085,1.894-2.356.081.221,1.608-1.677,1.065-.73a25.026,25.026,0,0,0,3.654-5.365l.793-1.559.736-1.663c.517-1.127,1.131-2.276,1.628-3.56a11.286,11.286,0,0,1,.554-2.482,9.248,9.248,0,0,0,.349-2.272,16.21,16.21,0,0,0,.622-2.336c.152-.953.277-1.513.255.045,0,.268-.128.724-.177.682l.135.4a8.52,8.52,0,0,0,.506-2.205c.091-.724.141-1.434.179-2.142a18.33,18.33,0,0,0,0-2.137c-.016-.721-.015-1.456.03-2.224-.107.909-.136,2.118-.254,1.3.024-.946.144-1.9.088-2.841l.208.59-.069-4.248-.2.6a16.372,16.372,0,0,0-.374-5.124c-.338-1.012-.031,1.981-.416-.161-.2-1.358-.356-3.084-.717-4.868a47.607,47.607,0,0,0-1.326-5.338c-.14.392-.431-.509-.79-1.414l.174-.182c-.748-1.716-.836-2.047-.821-2.419-.007-.362-.007-.729-.825-2.405l.267.242c-.262-.244-.534-.481-.824-.708a6.605,6.605,0,0,1-1.153-2.355,5.909,5.909,0,0,0-1.474-2.5c.758,1.259-.091.834-.892-.773l.412.289a17.513,17.513,0,0,1-1.063-1.687c.382.462.457.091-.4-1.112l.772.684L165.6,92.049A18.783,18.783,0,0,0,163.509,89c-.376-.488-.727-.946-1-1.338a5.175,5.175,0,0,1-.606-.9s-.743-.9-1.609-1.864a12.043,12.043,0,0,0-1.381-1.336,6.591,6.591,0,0,0-1.09-.81c.821.5-.989-1.34-.3-1.013-.495-.363-1.516-1.015-2.5-1.751-.491-.366-.978-.748-1.4-1.107s-.833-.633-1.091-.89l.241.13c-4.218-3.29-7.918-4.417-12.214-6.37.112.317-2.184-.685-1.71-.156-2.377-.551-4.454-1.343-6.252-1.734a13.7,13.7,0,0,0-2.393-.462,4.062,4.062,0,0,0-1.764.222c-2.186-.246-2.573-.514-3.715-.623l.531-.029-2.636-.075c-.744,0-1.38.051-1.982.066-1.2.058-2.278.029-3.809.226a11.52,11.52,0,0,0-1.761.507,19.819,19.819,0,0,1-2.645.594c.836-.354-.258-.107-1.266.089.637-.154.826-.261-.529-.127-.174.095-.456.176-.712.289-.014-.011-.069-.008-.047-.035-1.639.529-1.333.5-.561.314-.031.039.043.056.292.041a27.084,27.084,0,0,0-3.085.739c-.993.322-1.784.633-1.945.51A39.849,39.849,0,0,0,93.325,78.8c-.489.15.229-.557,1.2-1.347L92.1,79.3c-.129-.2,1.332-1.145,2.065-1.738a23.017,23.017,0,0,0-2.311,1.553c-.7.628-1.394,1.3-2.1,1.976-.724.657-1.373,1.412-2.064,2.155s-1.47,1.433-2.187,2.216l-.418.8-.185.174a4.4,4.4,0,0,1-.788,1.37c-.537.337-.39-.359-1.6,1.363a15.244,15.244,0,0,0-1.861,2.669l-1.695,3.217c.627-.986.539-.6.34-.138a21.883,21.883,0,0,0-1.241,2.11l-.3-.041c.213-.121-.039.517-.352,1.233a11.516,11.516,0,0,0-.648,1.74c-.422.46.467-1.565.487-1.848-.9,1.893-1.062,2.4-1.285,2.87-.185.49-.478.937-1.159,2.919-.567,2.169.389-.287.255.8-.673,1.844-.967,3.743-1.775,5.846l.442-.615c-.41,1.784-.623,3.233-.95,4.5-.267,1.282-.49,2.422-.822,3.621-.138,1.7-.086,3.229-.119,4.563.031,1.339.145,2.5.214,3.5a20.484,20.484,0,0,0,.348,2.542c.127.7.243,1.26.35,1.7.443,1.757.753,1.614.887.617a39.933,39.933,0,0,0,.33-4.258c.147-1.525.229-2.806.229-2.806a116.086,116.086,0,0,1,2.145-12.969l.788-3.08c.294-1.051.671-2.117,1.03-3.257a53.709,53.709,0,0,1,3.2-7.432" transform="translate(-61.023 -58.519)" fill="#3a552a"/>
      </g>
    </g>
    <g id="Grupo_1212403" data-name="Grupo 1212403" transform="translate(3049 -5577.291)">
      <g id="Grupo_1212402" data-name="Grupo 1212402" clip-path="url(#clip-path-2)">
        <path id="Trazado_1274208" data-name="Trazado 1274208" d="M2.679,111.553c-1.281,6.918-1.027,14.277,3.4,19.929.378.483-.057,1.111-.4,1.309a1.01,1.01,0,0,1-1.394-.384,19.9,19.9,0,0,1-3.707-8.369,31.9,31.9,0,0,1,.438-14c.14-.554,1.284-.44,1.743-.371l-1.475-4.616L3.344,95.005a1.066,1.066,0,0,1,.62-.844,1.037,1.037,0,0,1,1.113.231l7.74,6.519,2.954,8.7,4.142.028.032-6.239a.936.936,0,0,1,1.042-.846,1.022,1.022,0,0,1,.956,1.159l-.008,5.916h1.694l.007-6.081a.985.985,0,0,1,1.089-.992,1.027,1.027,0,0,1,.938,1.157l0,5.923,2.9-.01L35.5,95.512a3.354,3.354,0,0,1,4.556-1.258l4.451,2.223a3.157,3.157,0,0,1,1.32,4.107l-4.369,9.035a1.049,1.049,0,0,1,1.223,1.075,20.645,20.645,0,0,0,3.084,10.7,3.131,3.131,0,0,1,.253,3.234,3.064,3.064,0,0,1-2.6,1.7,15.07,15.07,0,0,1-15.7,14.179l-1.829.026-.021,4.362a1,1,0,0,1-1.05,1.02L9.2,145.9a1.009,1.009,0,0,1-.941-1.017l0-9.352c0-.628.391-.742.836-.954a15.887,15.887,0,0,0,7.335-7.186,5.613,5.613,0,0,1-3.977-6.75A5.5,5.5,0,0,1,19.1,116.6a6.335,6.335,0,0,1,2.762,1.574,9.672,9.672,0,0,0,3.095-6.613Zm39.657-8.3-1.942-.987c-.5-.253-.414-.923-.174-1.273a.89.89,0,0,1,1.168-.4l1.82.848.807-1.661a1.3,1.3,0,0,0-.755-1.743l-4.5-2.125a1.248,1.248,0,0,0-1.575.624l-6.367,13.076,8.361,0,.765-1.43-2.866-1.418a.992.992,0,0,1-.328-1.428,1.021,1.021,0,0,1,1.4-.291l2.683,1.319Zm-34.789,1.02,2.912-2.778L6.59,98.249l-2.023.671-1.094,5.134c1.443.168,2.651.191,4.073.223m6.107,5.268-2.167-6.274L8.96,105.716l1.364,3.926Zm-5.48.028L7.085,106.3l-3.358-.214,1.179,3.554c1.15-.007,2.091.05,3.269-.064M23.9,143.909l.02-4.485a.884.884,0,0,1,.844-.9l4.318-.046a13.035,13.035,0,0,0,12.38-13c.013-1.875,2.123-.645,2.722-1.632a1.247,1.247,0,0,0-.067-1.33,23.23,23.23,0,0,1-3.432-10.97l-13.716.015a12.022,12.022,0,0,1-4.263,8.545c-1.733,1.543-2-1.541-4.718-1.689A3.534,3.534,0,0,0,14.271,122a3.6,3.6,0,0,0,3.683,3.564.945.945,0,0,1,.814.483,1.138,1.138,0,0,1,.052.917,18.257,18.257,0,0,1-8.583,9.31l-.012,7.627Z" transform="translate(0 -77.888)" fill="#12263f"/>
        <path id="Trazado_1274209" data-name="Trazado 1274209" d="M89.051,24.453a.983.983,0,0,1-1.093.277.968.968,0,0,1-.623-.98l.037-6.262a2.942,2.942,0,0,1,1.838-2.676l.011-3.939a12.527,12.527,0,0,1,1.925-6.688A1.006,1.006,0,0,1,92.531,3.8a.966.966,0,0,1,.32,1.4,9.839,9.839,0,0,0-1.346,3.257l7.559-.086A12.422,12.422,0,0,0,94.87,1.909c-.517-.447-.718-.945-.373-1.436A1.009,1.009,0,0,1,96.105.331c2.848,2.323,5.162,6.134,5.179,9.845l.022,4.625a2.987,2.987,0,0,1,1.766,2.52l-.034,6.6c0,.393-.385.619-.613.711A1.009,1.009,0,0,1,101.3,24.4l-1.957-2.569a6.047,6.047,0,0,1-8.229.046Zm9.1-4.292a7.512,7.512,0,0,1-1.116-2.054,2.94,2.94,0,0,1,2.251-3.5l.008-4.206-8.081.035L91.2,14.63a2.917,2.917,0,0,1,2.227,3.4,9.7,9.7,0,0,1-1.15,2.189,3.975,3.975,0,0,0,5.879-.054m2.839.573.1-3.076a1.042,1.042,0,0,0-1.14-1.128c-.494.011-1.2.474-.949,1.1a18.422,18.422,0,0,0,1.987,3.107m-11.609.049a14.118,14.118,0,0,0,2.084-3.306c.195-.616-.788-.973-1.2-.9a1.127,1.127,0,0,0-.941,1.256Z" transform="translate(-72.48 0)" fill="#12263f"/>
        <path id="Trazado_1274210" data-name="Trazado 1274210" d="M185.717,4.161c-.264.137.158,1.2-.383,1.681a1.135,1.135,0,0,1-1.233.114c-.7-.35-.335-1.461-.49-1.705-.217-.343-1.205.2-1.753-.5a1.055,1.055,0,0,1-.025-1.235c.441-.674,1.592-.194,1.758-.483.19-.331-.177-1.367.448-1.728a1.183,1.183,0,0,1,1.138-.027c.741.424.317,1.356.466,1.758.112.3,1.373-.241,1.83.532a1.132,1.132,0,0,1-.019,1.156c-.388.608-1.422.279-1.737.443" transform="translate(-150.748 -0.117)" fill="#12263f"/>
        <path id="Trazado_1274211" data-name="Trazado 1274211" d="M226.413,47.707c-.4.082.135,1.337-.542,1.811a1.018,1.018,0,0,1-1.181.022c-.712-.5-.284-1.537-.437-1.766s-1.269.217-1.77-.438a1.094,1.094,0,0,1-.079-1.117c.367-.717,1.283-.359,1.712-.522.375-.141-.154-1.357.553-1.8a1.166,1.166,0,0,1,1.221.02c.583.4.216,1.494.415,1.762.165.223,1.3-.149,1.711.361a1.227,1.227,0,0,1,.067,1.27c-.325.606-1.2.3-1.67.4" transform="translate(-184.478 -36.295)" fill="#12263f"/>
        <path id="Trazado_1274212" data-name="Trazado 1274212" d="M33.546,32.956c-.321.042.166,1.312-.526,1.818a1.06,1.06,0,0,1-1.206,0c-.692-.479-.268-1.587-.431-1.766-.183-.2-1.292.231-1.772-.446a1.1,1.1,0,0,1-.06-1.085c.371-.742,1.261-.337,1.742-.5.325-.11-.2-1.359.545-1.808A1.169,1.169,0,0,1,33,29.168c.669.413.3,1.492.449,1.757.169.3,1.4-.277,1.834.56a1.073,1.073,0,0,1-.066,1.083c-.416.594-1.122.317-1.67.389" transform="translate(-24.428 -24.08)" fill="#12263f"/>
        <path id="Trazado_1274213" data-name="Trazado 1274213" d="M183.209,220.673c-1.665.153-.526-2.54-2.728-2.608a1.646,1.646,0,0,0-1.652,1.495c-.049.7-.43,1.151-1.063,1.12-.668-.032-1.017-.528-.953-1.263a3.657,3.657,0,0,1,3.678-3.348,3.7,3.7,0,0,1,3.626,3.532.992.992,0,0,1-.909,1.073" transform="translate(-146.733 -179.316)" fill="#12263f"/>
        <path id="Trazado_1274214" data-name="Trazado 1274214" d="M98.314,253.126a.977.977,0,0,1,1.286.53,1.066,1.066,0,0,1-.482,1.3.929.929,0,0,1-1.258-.432,1,1,0,0,1,.455-1.4" transform="translate(-81.113 -210.003)" fill="#12263f"/>
      </g>
    </g>
  </g>
</svg>
