<svg xmlns="http://www.w3.org/2000/svg" xmlns:xlink="http://www.w3.org/1999/xlink" width="96" height="96" viewBox="0 0 96 96">
  <defs>
    <clipPath id="clip-path">
      <rect id="Rectángulo_465382" data-name="Rectángulo 465382" width="64.321" height="55.236" fill="#12263f"/>
    </clipPath>
  </defs>
  <g id="Grupo_1211215" data-name="Grupo 1211215" transform="translate(-735.745 -9122)">
    <g id="Grupo_1188527" data-name="Grupo 1188527" transform="translate(-728.818 -89.375)">
      <g id="Grupo_1188526" data-name="Grupo 1188526">
        <path id="Trazado_1033015" data-name="Trazado 1033015" d="M96,47.778A48,48,0,1,1,48,0,47.889,47.889,0,0,1,96,47.778" transform="translate(1464.564 9211.818)" fill="#ebffe0"/>
        <path id="Trazado_1033017" data-name="Trazado 1033017" d="M374.691,757.713l-.2.008a.74.74,0,0,0,.2-.008" transform="translate(1131.201 8546.583)" fill="#ffe4b3"/>
        <path id="Trazado_1033018" data-name="Trazado 1033018" d="M342.621,99.876l-.041.008-.2.065Z" transform="translate(1158.943 9116.164)" fill="#ffe4b3"/>
        <path id="Trazado_1033019" data-name="Trazado 1033019" d="M80.427,94.229a41.8,41.8,0,0,1,3.407-5.117c1.022-1.43,2.127-2.505,3.131-3.67.537-.551,1.107-1.071,1.675-1.635l.874-.861.988-.831a42.841,42.841,0,0,1,4.961-3.764,41.965,41.965,0,0,1,13.287-5.271c2.094-.883,6.05-.794,8.661-1.11l1.013.241a10.76,10.76,0,0,1,2.869.112l-.062.048c1.352.041,2.866.258,3.531.345l-.065.044,1.614.3-.293.022c.584.083,1.175.16,1.758.273l1.713.445c.563.158,1.125.3,1.661.482l1.539.609-.086-.28c.528.23,1.016.432,1.475.614s.862.4,1.26.574c.789.36,1.5.656,2.2.952.67.348,1.328.692,2.036,1.091.352.2.724.405,1.1.655.365.267.748.556,1.154.877l-.078.015c.584.3,1.128.6,1.64.91.5.328.937.688,1.371,1.03s.841.692,1.24,1.036.737.747,1.1,1.116c1.459,1.488,2.808,3.078,4.708,5.018-.468-.49.081.3,0,.294l1.17,1.437c.378.466.69.941,1,1.325.6.777,1.085,1.276,1.291,1.172.965,1.557.633,1.359.611,1.646.155-.1,1.06,1.213,1.723,2.481-.123-.183-.23-.375-.366-.551.629,1.21,1.256,2.426,1.855,3.655.022-.3,0-.59.006-.887.8,2.036-.2.691.7,2.576l.282-.142a17.451,17.451,0,0,1,.66,1.962c.149.622.27,1.209.384,1.792s.232,1.161.334,1.775c.082.62.178,1.269.306,1.981a65.415,65.415,0,0,1,1.594,8.95,46.076,46.076,0,0,1-.056,9.144l-.122,1.132-.061.566-.114.554-.461,2.21a15.544,15.544,0,0,1-.611,2.151c-.235.7-.447,1.413-.7,2.1l-.917,1.986a15.794,15.794,0,0,1-.986,1.915,26.575,26.575,0,0,1-2.405,3.442l-.488.238c-.371-.042-1.515,2.672-2.094,2.736-.26.341-.5.7-.786,1.028-.306.207-.9.684-.493.186a15.244,15.244,0,0,0-1.439,1.5c-.362.233-.75.432-1.124.643-1.886,1.387-3.667,2.621-5.568,3.749a32.54,32.54,0,0,1-6.288,2.926,84.641,84.641,0,0,1-11.452,2.462,88.983,88.983,0,0,1-12.206.8,45.1,45.1,0,0,1-14.409-2.286,60.716,60.716,0,0,1-13.085-6.251,3.245,3.245,0,0,0-.941-.534c-.547-.444-1.073-.912-1.612-1.366l-.8-.684-.734-.756-1.464-1.513-1.305-1.648-.282-.351-.334-.414-.388-.593a30.9,30.9,0,0,1-2.157-3.593,19.02,19.02,0,0,1-1.14-2.368c-.33-.847-.729-1.693-1.031-2.571-.537-1.779-1.15-3.522-1.484-5.1-.737-3.134-1.067-5.386-1.434-4.806a9,9,0,0,0-.342,3.254,32.714,32.714,0,0,0,.235,3.691c.1.741.261,1.543.417,2.424l.257,1.376c.089.478.263.952.4,1.458l-.152-.184.594,1.688.284.79c.108.251.231.491.344.729.463.947.885,1.826,1.333,2.634a21.4,21.4,0,0,0,3.229,4.111,1.784,1.784,0,0,0,.4.825c.125.176.269.37.433.568l.571.57c.805.766,1.652,1.595,2.053,2.023l-.111-.044c1.3.842,2.4,1.97,3.665,2.881a19.571,19.571,0,0,0,1.875,1.371,18.278,18.278,0,0,0,1.994,1.056,1.437,1.437,0,0,1-.824-.28c.476.25.981.552,1.5.8l1.508.7a5.782,5.782,0,0,1,1.629.945,52.663,52.663,0,0,0,8.038,2.562,35.3,35.3,0,0,0,3.9.714,19.528,19.528,0,0,0,3.059.215l-.23.046c1.861-.034,2.378.217,4.442.228.11.043.254.072.23.085,2-.138,5.818.144,7.435-.04l.109.175c1.327-.056,2.653-.129,3.977-.254-.5.032-.992.051-1.489.064.476-.511,3.037.128,5.877-.6,2.716-.335,5.194-1.969,7.9-2.523,1.207-.6-1.012.7.839-.052.142.229-.842.433-.288.478,1.831-.715,3.164-.766,5.342-1.9l.173.141c2.745-1.622,5.5-2.536,7.062-4.051a11.272,11.272,0,0,1,2.334-1.51,6.512,6.512,0,0,0,2.206-1.86l1.162-.735c1.066-1.042.522-.972,1.707-2.111.073.2,1.45-1.5.96-.654a22.416,22.416,0,0,0,3.295-4.807l.715-1.4.664-1.49c.466-1.01,1.02-2.039,1.468-3.189a10.057,10.057,0,0,1,.5-2.224,8.237,8.237,0,0,0,.315-2.036,14.452,14.452,0,0,0,.561-2.093c.137-.854.25-1.355.229.04,0,.241-.115.649-.159.611l.122.361a7.593,7.593,0,0,0,.456-1.976c.082-.649.127-1.285.161-1.92a16.32,16.32,0,0,0,0-1.915c-.014-.646-.014-1.3.027-1.992-.1.815-.122,1.9-.229,1.168.022-.848.129-1.7.079-2.545l.188.528-.062-3.806-.183.538a14.58,14.58,0,0,0-.338-4.591c-.305-.907-.028,1.775-.375-.144-.183-1.216-.321-2.764-.647-4.361a42.437,42.437,0,0,0-1.2-4.783c-.126.352-.389-.456-.712-1.267l.157-.163c-.675-1.538-.754-1.834-.74-2.168-.006-.324-.006-.654-.744-2.155l.24.217c-.236-.219-.481-.431-.743-.635a5.9,5.9,0,0,1-1.04-2.11,5.285,5.285,0,0,0-1.329-2.239c.683,1.128-.082.747-.8-.692l.371.259a15.676,15.676,0,0,1-.958-1.511c.344.414.412.082-.359-1l.7.612-1.683-1.893a16.825,16.825,0,0,0-1.884-2.73c-.339-.437-.656-.847-.9-1.2a4.635,4.635,0,0,1-.547-.809s-.67-.8-1.451-1.67a10.827,10.827,0,0,0-1.245-1.2,5.941,5.941,0,0,0-.983-.726c.74.447-.892-1.2-.267-.908-.446-.326-1.367-.909-2.25-1.569-.443-.328-.882-.67-1.265-.992s-.751-.567-.984-.8l.217.116c-3.8-2.948-7.139-3.957-11.012-5.707.1.284-1.969-.613-1.542-.14-2.143-.493-4.016-1.2-5.637-1.553a12.427,12.427,0,0,0-2.157-.414,3.684,3.684,0,0,0-1.59.2c-1.971-.22-2.32-.46-3.349-.558L120,68.96l-2.376-.067c-.671,0-1.244.046-1.787.059-1.085.052-2.054.026-3.435.2a10.437,10.437,0,0,0-1.587.454,17.964,17.964,0,0,1-2.385.532c.753-.317-.233-.1-1.141.079.574-.138.745-.234-.477-.114-.157.085-.412.158-.642.259-.013-.01-.062-.007-.042-.031-1.478.474-1.2.452-.506.282-.028.035.038.05.263.037a24.548,24.548,0,0,0-2.782.662c-.9.288-1.609.567-1.753.457a35.975,35.975,0,0,0-10.14,5.994c-.441.135.207-.5,1.084-1.207l-2.188,1.655c-.116-.182,1.2-1.026,1.862-1.557a20.761,20.761,0,0,0-2.084,1.392c-.634.562-1.257,1.161-1.889,1.77-.653.589-1.238,1.265-1.861,1.931s-1.326,1.284-1.972,1.985l-.377.716-.167.156c.076.049-.374.78-.71,1.228-.484.3-.352-.321-1.44,1.221a13.658,13.658,0,0,0-1.677,2.391L78.264,92.33c.565-.883.486-.537.307-.124a19.579,19.579,0,0,0-1.119,1.89l-.268-.036c.192-.109-.035.463-.317,1.1a10.276,10.276,0,0,0-.585,1.559c-.38.413.421-1.4.439-1.656-.814,1.7-.957,2.147-1.158,2.572a28.127,28.127,0,0,0-1.045,2.615c-.511,1.944.351-.257.23.716-.606,1.652-.872,3.353-1.6,5.238l.4-.551c-.37,1.6-.562,2.9-.856,4.034-.241,1.149-.442,2.17-.741,3.245-.124,1.526-.078,2.893-.107,4.088.028,1.2.131,2.242.193,3.139a18.244,18.244,0,0,0,.314,2.278c.114.628.22,1.129.316,1.523.4,1.574.679,1.446.8.552a35.559,35.559,0,0,0,.3-3.815c.133-1.366.207-2.514.207-2.514a103.412,103.412,0,0,1,1.934-11.62l.71-2.76c.265-.942.6-1.9.928-2.918a47.962,47.962,0,0,1,2.887-6.659" transform="translate(1392.723 9142.481)" fill="#3a552a"/>
      </g>
    </g>
    <g id="Grupo_1212374" data-name="Grupo 1212374" transform="translate(754.304 9139.887)">
      <g id="Grupo_1212373" data-name="Grupo 1212373" clip-path="url(#clip-path)">
        <path id="Trazado_1274073" data-name="Trazado 1274073" d="M37.932,115.215l-4.687-.014a4.734,4.734,0,0,0-4.687-3.873h-.074a4.785,4.785,0,0,0-4.594,3.894l-3.649-.05v-4.441a.972.972,0,0,0-.281-.691.841.841,0,0,0-.613-.243,2.943,2.943,0,0,1-2.171-.883,2.972,2.972,0,0,1,2.19-5.075.932.932,0,0,0,.887-.969l-.01-5.254a.922.922,0,0,0-.919-.92L.848,96.7A.841.841,0,0,0,0,97.622l0,36.892a.915.915,0,0,0,.292.707,1.05,1.05,0,0,0,.714.245l36.7,0c.443,0,.977-.347.978-.778l.013-18.675a.772.772,0,0,0-.763-.794m-23.384-8.5a4.716,4.716,0,0,0,3.887,4.776l.005,3.717H13.908a.839.839,0,0,0-.816.736,2.973,2.973,0,0,1-5.015,2.269,3.073,3.073,0,0,1-.958-2.19.837.837,0,0,0-.251-.622.774.774,0,0,0-.538-.2l-.069,0-4.52,0,0-16.708,16.693,0,0,3.637a4.812,4.812,0,0,0-3.887,4.578M1.739,116.934l3.721.008a4.735,4.735,0,0,0,9.3.026l3.678-.037-.006,4.347a.941.941,0,0,0,.906,1.031,3.009,3.009,0,0,1,3.044,2.957,2.921,2.921,0,0,1-.849,2.109,3.076,3.076,0,0,1-2.214.9h-.007a.928.928,0,0,0-.866.853l-.017,4.5-16.7,0Zm22.406,8.48a4.685,4.685,0,0,0-3.874-4.772l-.025-3.712,4.4,0h0a.908.908,0,0,0,.972-.936,2.99,2.99,0,0,1,2.878-2.91h.063a3.018,3.018,0,0,1,3,2.879.938.938,0,0,0,.239.7.907.907,0,0,0,.675.266l4.465.006,0,16.694-16.637,0-.057-3.655a4.789,4.789,0,0,0,3.891-4.565" transform="translate(0 -80.23)" fill="#12263f"/>
        <path id="Trazado_1274074" data-name="Trazado 1274074" d="M171.084,35.051l-7.471-7.566a3.179,3.179,0,0,1-.074-.856v-.063l-2.148-2.157a.949.949,0,0,0-.835-.249,1.1,1.1,0,0,0-.458.293c-.065.056-.131.113-.194.16a5.61,5.61,0,0,1-1.151-1.109,15.53,15.53,0,1,0-5.2,5.206l1.133,1.176a1.176,1.176,0,0,0-.486.678.955.955,0,0,0,.324.9l1.7,1.7a1,1,0,0,0,1.183.3l7.532,7.5a4.1,4.1,0,0,0,2.905,1.181,4.311,4.311,0,0,0,2.989-1.2,4.492,4.492,0,0,0,1.351-3.117,3.828,3.828,0,0,0-1.1-2.763m-9.641-8.086-4.422,4.442-.72-.677,4.447-4.447a2.872,2.872,0,0,1,.695.682m-5.135-3.047A13.723,13.723,0,0,1,134.631,7.086a13.6,13.6,0,0,1,9.128-5.212,14.023,14.023,0,0,1,1.775-.113,13.711,13.711,0,0,1,10.775,22.157m1.363,1.118.931.917-2.569,2.584a2.578,2.578,0,0,1-.939-.872l-.019-.025a12.886,12.886,0,0,0,2.6-2.6M170.4,37.84a2.636,2.636,0,0,1-.816,1.845,2.457,2.457,0,0,1-3.456-.02l-7.44-7.4,3.562-3.574,7.54,7.587a2.14,2.14,0,0,1,.61,1.567" transform="translate(-107.862 0)" fill="#12263f"/>
        <path id="Trazado_1274075" data-name="Trazado 1274075" d="M169.652,22.282a12.263,12.263,0,1,0-8.388,21.2c.17,0,.341,0,.512-.011a12.275,12.275,0,0,0,7.876-21.194m.009,15.2a10.458,10.458,0,0,1-8.4,4.235A10.491,10.491,0,0,1,152.809,25,10.485,10.485,0,1,1,169.661,37.48" transform="translate(-123.623 -15.739)" fill="#12263f"/>
        <path id="Trazado_1274076" data-name="Trazado 1274076" d="M198.621,44.31a6.2,6.2,0,0,0-5.408-.131,4.421,4.421,0,0,0-2.606,4.068.708.708,0,0,0,.254.534.958.958,0,0,0,.694.241c.629-.071.733-.555.854-1.116a2.577,2.577,0,0,1,1.292-1.98,4.13,4.13,0,0,1,4.5.223,2.438,2.438,0,0,1-.091,3.985l-1.619,1.182a4.279,4.279,0,0,0-1.841,3.76.782.782,0,0,0,.286.572.928.928,0,0,0,.582.2.967.967,0,0,0,.133-.009c.576-.08.666-.584.769-1.167a2.451,2.451,0,0,1,.876-1.748l1.772-1.292a4.215,4.215,0,0,0,1.879-3.943,4.262,4.262,0,0,0-2.323-3.38" transform="translate(-158.148 -36.194)" fill="#12263f"/>
        <path id="Trazado_1274077" data-name="Trazado 1274077" d="M215.585,127.892a.9.9,0,0,0-.721-.086.838.838,0,0,0-.553.476.877.877,0,0,0,.013.744.934.934,0,0,0,.806.539.721.721,0,0,0,.255-.046.911.911,0,0,0,.556-1.124.775.775,0,0,0-.356-.5" transform="translate(-177.751 -106.009)" fill="#12263f"/>
      </g>
    </g>
  </g>
</svg>
