<svg xmlns="http://www.w3.org/2000/svg" xmlns:xlink="http://www.w3.org/1999/xlink" width="84" height="84" viewBox="0 0 84 84">
  <defs>
    <clipPath id="clip-path">
      <rect id="Rectángulo_465370" data-name="Rectángulo 465370" width="53.185" height="53.195" fill="#12263f"/>
    </clipPath>
  </defs>
  <g id="Grupo_1211169" data-name="Grupo 1211169" transform="translate(-705.629 -410)">
    <g id="Grupo_1188476" data-name="Grupo 1188476" transform="translate(2.841 -1273.207)">
      <g id="Grupo_1185067" data-name="Grupo 1185067" transform="translate(719.227 1696)">
        <path id="Trazado_997620" data-name="Trazado 997620" d="M133.124,646.71a15.477,15.477,0,1,0-14.332-.01" transform="translate(-99.168 -604.804)" fill="#3a552a" stroke="#000" stroke-miterlimit="10" stroke-width="2"/>
        <rect id="Rectángulo_454823" data-name="Rectángulo 454823" width="14.333" height="4.288" transform="translate(19.625 41.893)" fill="#3a552a" stroke="#000" stroke-miterlimit="10" stroke-width="2"/>
        <rect id="Rectángulo_454824" data-name="Rectángulo 454824" width="14.333" height="4.288" transform="translate(19.625 46.181)" fill="#3a552a" stroke="#000" stroke-miterlimit="10" stroke-width="2"/>
        <path id="Trazado_997621" data-name="Trazado 997621" d="M135.492,688.628h-6.283a4.025,4.025,0,0,1-4.025-4.025v-.263h14.333v.263A4.025,4.025,0,0,1,135.492,688.628Z" transform="translate(-105.559 -633.871)" fill="#3a552a" stroke="#000" stroke-miterlimit="10" stroke-width="2"/>
        <line id="Línea_3231" data-name="Línea 3231" y1="7.578" transform="translate(26.797)" fill="none" stroke="#000" stroke-miterlimit="10" stroke-width="2"/>
        <line id="Línea_3232" data-name="Línea 3232" x1="4.454" y1="6.13" transform="translate(10.236 5.387)" fill="none" stroke="#000" stroke-miterlimit="10" stroke-width="2"/>
        <line id="Línea_3233" data-name="Línea 3233" x1="7.2" y1="2.336" transform="translate(0 19.477)" fill="none" stroke="#000" stroke-miterlimit="10" stroke-width="2"/>
        <line id="Línea_3234" data-name="Línea 3234" x1="7.2" y2="2.341" transform="translate(0 34.55)" fill="none" stroke="#000" stroke-miterlimit="10" stroke-width="2"/>
        <line id="Línea_3235" data-name="Línea 3235" x1="7.2" y1="2.341" transform="translate(46.398 34.55)" fill="none" stroke="#000" stroke-miterlimit="10" stroke-width="2"/>
        <line id="Línea_3236" data-name="Línea 3236" x1="7.2" y2="2.336" transform="translate(46.398 19.477)" fill="none" stroke="#000" stroke-miterlimit="10" stroke-width="2"/>
        <line id="Línea_3237" data-name="Línea 3237" x1="4.454" y2="6.125" transform="translate(38.91 5.387)" fill="none" stroke="#000" stroke-miterlimit="10" stroke-width="2"/>
        <path id="Trazado_997622" data-name="Trazado 997622" d="M119,638.208a10.647,10.647,0,0,1,4.484-8.693" transform="translate(-102.867 -610.025)" fill="#3a552a" stroke="#000" stroke-miterlimit="10" stroke-width="2"/>
        <line id="Línea_3238" data-name="Línea 3238" y2="8.634" transform="translate(26.797 33.258)" fill="none" stroke="#000" stroke-miterlimit="10" stroke-width="2"/>
        <path id="Trazado_997623" data-name="Trazado 997623" d="M133.157,647.74l2.669,3.47,3-3.47" transform="translate(-109.027 -617.951)" fill="#3a552a" stroke="#000" stroke-miterlimit="10" stroke-width="2"/>
        <path id="Trazado_997624" data-name="Trazado 997624" d="M132.431,691.931a3.07,3.07,0,1,0,6.14,0" transform="translate(-108.711 -637.173)" fill="#3a552a" stroke="#000" stroke-miterlimit="10" stroke-width="2"/>
      </g>
      <rect id="Rectángulo_459857" data-name="Rectángulo 459857" width="81" height="79" transform="translate(705.788 1688.207)" fill="#3a552a"/>
    </g>
    <g id="Grupo_1188599" data-name="Grupo 1188599" transform="translate(0.371 -1278)">
      <g id="Grupo_1185067-2" data-name="Grupo 1185067" transform="translate(718.472 1696)">
        <path id="Trazado_997620-2" data-name="Trazado 997620" d="M133.124,646.71a15.477,15.477,0,1,0-14.332-.01" transform="translate(-99.168 -604.804)" fill="#fff006" stroke="#000" stroke-miterlimit="10" stroke-width="2"/>
        <rect id="Rectángulo_454823-2" data-name="Rectángulo 454823" width="14.333" height="4.288" transform="translate(19.625 41.893)" fill="#fff006" stroke="#000" stroke-miterlimit="10" stroke-width="2"/>
        <rect id="Rectángulo_454824-2" data-name="Rectángulo 454824" width="14.333" height="4.288" transform="translate(19.625 46.181)" fill="#fff006" stroke="#000" stroke-miterlimit="10" stroke-width="2"/>
        <path id="Trazado_997621-2" data-name="Trazado 997621" d="M135.492,688.628h-6.283a4.025,4.025,0,0,1-4.025-4.025v-.263h14.333v.263A4.025,4.025,0,0,1,135.492,688.628Z" transform="translate(-105.559 -633.871)" fill="#fff006" stroke="#000" stroke-miterlimit="10" stroke-width="2"/>
        <line id="Línea_3231-2" data-name="Línea 3231" y1="7.578" transform="translate(26.797)" fill="none" stroke="#000" stroke-miterlimit="10" stroke-width="2"/>
        <line id="Línea_3232-2" data-name="Línea 3232" x1="4.454" y1="6.13" transform="translate(10.236 5.387)" fill="none" stroke="#000" stroke-miterlimit="10" stroke-width="2"/>
        <line id="Línea_3233-2" data-name="Línea 3233" x1="7.2" y1="2.336" transform="translate(0 19.477)" fill="none" stroke="#000" stroke-miterlimit="10" stroke-width="2"/>
        <line id="Línea_3234-2" data-name="Línea 3234" x1="7.2" y2="2.341" transform="translate(0 34.55)" fill="none" stroke="#000" stroke-miterlimit="10" stroke-width="2"/>
        <line id="Línea_3235-2" data-name="Línea 3235" x1="7.2" y1="2.341" transform="translate(46.398 34.55)" fill="none" stroke="#000" stroke-miterlimit="10" stroke-width="2"/>
        <line id="Línea_3236-2" data-name="Línea 3236" x1="7.2" y2="2.336" transform="translate(46.398 19.477)" fill="none" stroke="#000" stroke-miterlimit="10" stroke-width="2"/>
        <line id="Línea_3237-2" data-name="Línea 3237" x1="4.454" y2="6.125" transform="translate(38.91 5.387)" fill="none" stroke="#000" stroke-miterlimit="10" stroke-width="2"/>
        <path id="Trazado_997622-2" data-name="Trazado 997622" d="M119,638.208a10.647,10.647,0,0,1,4.484-8.693" transform="translate(-102.867 -610.025)" fill="#fff006" stroke="#000" stroke-miterlimit="10" stroke-width="2"/>
        <line id="Línea_3238-2" data-name="Línea 3238" y2="8.634" transform="translate(26.797 33.258)" fill="none" stroke="#000" stroke-miterlimit="10" stroke-width="2"/>
        <path id="Trazado_997623-2" data-name="Trazado 997623" d="M133.157,647.74l2.669,3.47,3-3.47" transform="translate(-109.027 -617.951)" fill="#fff006" stroke="#000" stroke-miterlimit="10" stroke-width="2"/>
        <path id="Trazado_997624-2" data-name="Trazado 997624" d="M132.431,691.931a3.07,3.07,0,1,0,6.14,0" transform="translate(-108.711 -637.173)" fill="#fff006" stroke="#000" stroke-miterlimit="10" stroke-width="2"/>
      </g>
      <rect id="Rectángulo_459857-2" data-name="Rectángulo 459857" width="80" height="80" transform="translate(705.258 1688)" fill="#fff006"/>
    </g>
    <g id="Grupo_1212349" data-name="Grupo 1212349" transform="translate(719.036 423.402)">
      <g id="Grupo_1212348" data-name="Grupo 1212348" clip-path="url(#clip-path)">
        <path id="Trazado_1273978" data-name="Trazado 1273978" d="M25.09,145.587l-1.827,9.945a.8.8,0,0,1-.8.694l-10.09.006a.8.8,0,0,1-.833-.8l.025-3.594a2.5,2.5,0,0,0-.832-1.71L1.756,140A6.256,6.256,0,0,1,.177,135.87L0,122.187a3.2,3.2,0,0,1,2.76-3.318,3.083,3.083,0,0,1,3.535,2.574l.83,10.777a2.572,2.572,0,0,0,.732,1.535l5.911,6.428a1.082,1.082,0,0,0,1.6.211,1.116,1.116,0,0,0-.011-1.66l-5.23-5.788a2.77,2.77,0,0,1,.317-3.85,2.876,2.876,0,0,1,4.026.288l3.592,3.728,5.117,5.259a8.048,8.048,0,0,1,1.907,7.215m-3.441-6.554-5.481-5.616-3.033-3.092a1.212,1.212,0,0,0-1.7.02,1.173,1.173,0,0,0-.121,1.549l5.5,6.174a2.582,2.582,0,0,1-.6,3.681,2.718,2.718,0,0,1-3.71-.572l-5.655-6.152a5.037,5.037,0,0,1-1.38-3.281L4.781,121.8A1.6,1.6,0,0,0,2.9,120.454c-.952.177-1.319.9-1.31,1.87l.126,12.87a5.973,5.973,0,0,0,1.581,4.2l8.691,9.752a3.973,3.973,0,0,1,1.155,2.831l0,2.661,8.694,0,1.764-9.912a6.3,6.3,0,0,0-1.948-5.692" transform="translate(0 -103.037)" fill="#12263f"/>
        <path id="Trazado_1273979" data-name="Trazado 1273979" d="M221.863,154.632l.028-2.934a3.63,3.63,0,0,1,.915-2.275l4.736-5.345a.816.816,0,0,1,1.046-.2.775.775,0,0,1,.2,1.179l-4.612,5.208a2.076,2.076,0,0,0-.689,1.308l-.021,3.982a.764.764,0,0,1-.8.668H212.576a.835.835,0,0,1-.817-.685l-1.915-10.667a8.071,8.071,0,0,1,2.5-7.085l5.214-5.3L221,129.019a2.7,2.7,0,0,1,3.729.212,2.8,2.8,0,0,1,.128,3.77l-5.235,5.787a1.063,1.063,0,0,0-.008,1.556,1.049,1.049,0,0,0,1.589-.107l5.918-6.427a2.855,2.855,0,0,0,.812-1.746l.664-9.884a3.3,3.3,0,0,1,3.2-3.345,3.216,3.216,0,0,1,3.235,3.344l-.139,12.885a7.43,7.43,0,0,1-1.78,5.136l-2.231,2.534a.827.827,0,0,1-1.23.192.836.836,0,0,1,.024-1.257l2.314-2.6a5.315,5.315,0,0,0,1.315-3.605l.153-13.281a1.627,1.627,0,0,0-1.419-1.746,1.6,1.6,0,0,0-1.81,1.482l-.68,9.922a5.138,5.138,0,0,1-1.489,3.305l-5.945,6.4a2.563,2.563,0,0,1-3.691-.153,2.723,2.723,0,0,1,.131-3.8l5.177-5.709a1.219,1.219,0,0,0-.245-1.65,1.24,1.24,0,0,0-1.648.143l-3.685,3.763-4.8,4.9a6.415,6.415,0,0,0-1.9,5.808l1.758,9.779Z" transform="translate(-181.841 -103.031)" fill="#12263f"/>
        <path id="Trazado_1273980" data-name="Trazado 1273980" d="M106.151,31.495l3.928-2.1a3.4,3.4,0,0,1,3.332-.055l4.461,2.315c.831.431,1.942-.542,1.8-1.41l-.887-5.473a3.128,3.128,0,0,1,1.219-2.621c1.146-1.109,2.294-2.107,3.368-3.282a1.357,1.357,0,0,0,.242-1.264,1.208,1.208,0,0,0-.88-.925l-4.844-.731a3.1,3.1,0,0,1-2.489-1.512L113.05,9.75a1.411,1.411,0,0,0-2.521,0l-2.1,4.27a3.272,3.272,0,0,1-2.528,1.894l-4.74.687a1.338,1.338,0,0,0-1.134.822c-.565,1.394,1.123,1.8.336,2.7a.809.809,0,0,1-1.231-.061,3.039,3.039,0,0,1-.586-3.182,3.108,3.108,0,0,1,2.478-1.877l4.527-.65a1.5,1.5,0,0,0,1.285-.737l2.4-4.769a2.879,2.879,0,0,1,2.757-1.436,3.048,3.048,0,0,1,2.6,1.848l2.1,4.274a1.421,1.421,0,0,0,1.106.772l5.189.8a2.814,2.814,0,0,1,2.119,1.976,2.861,2.861,0,0,1-.676,2.987L121,23.412c-.314.306-.718.724-.634,1.229l.837,5.021a3.021,3.021,0,0,1-4.532,3.2L112.58,30.7a1.652,1.652,0,0,0-1.666.048l-4,2.127a3.087,3.087,0,0,1-3.413-.182,3.169,3.169,0,0,1-1.105-3.139l.782-4.545a1.439,1.439,0,0,0-.276-1.26l-1.852-1.872a.731.731,0,0,1,.135-1.037.789.789,0,0,1,1.095.071l1.431,1.376a2.971,2.971,0,0,1,1.082,2.486l-.846,5.143a1.452,1.452,0,0,0,2.2,1.58" transform="translate(-85.252 -6.427)" fill="#12263f"/>
        <path id="Trazado_1273981" data-name="Trazado 1273981" d="M36.752,51.671,31.875,50.1a.8.8,0,0,1-.552-1.061.833.833,0,0,1,1.093-.44l4.708,1.551a.794.794,0,0,1,.564.866.754.754,0,0,1-.936.659" transform="translate(-27.106 -42.082)" fill="#12263f"/>
        <path id="Trazado_1273982" data-name="Trazado 1273982" d="M320.82,51.667a.826.826,0,0,1-1.107-.451.79.79,0,0,1,.5-1.035l4.828-1.556a.776.776,0,0,1,1.007.522.792.792,0,0,1-.485.949Z" transform="translate(-277.158 -42.121)" fill="#12263f"/>
        <path id="Trazado_1273983" data-name="Trazado 1273983" d="M295.1,5.5a.811.811,0,0,1-1.171.407.844.844,0,0,1-.266-1.086L295.494.528a.806.806,0,0,1,1.062-.47.782.782,0,0,1,.423,1.018Z" transform="translate(-254.532 0)" fill="#12263f"/>
        <path id="Trazado_1273984" data-name="Trazado 1273984" d="M83.037,4.943a.778.778,0,0,1-.4,1.013.8.8,0,0,1-1.055-.412l-1.9-4.495a.781.781,0,0,1,.5-1.005.8.8,0,0,1,.981.486Z" transform="translate(-69.037 -0.006)" fill="#12263f"/>
        <path id="Trazado_1273985" data-name="Trazado 1273985" d="M50.546,103.5a.761.761,0,0,1-1.037-.542.78.78,0,0,1,.455-.918l3.229-1.151a.806.806,0,0,1,1.056.379.78.78,0,0,1-.4,1.063Z" transform="translate(-42.905 -87.415)" fill="#12263f"/>
        <path id="Trazado_1273986" data-name="Trazado 1273986" d="M317.548,101.963a.781.781,0,0,1,.5.942.748.748,0,0,1-.978.551l-3.336-1.19a.775.775,0,0,1,.519-1.461Z" transform="translate(-271.578 -87.36)" fill="#12263f"/>
      </g>
    </g>
  </g>
</svg>
