<svg xmlns="http://www.w3.org/2000/svg" xmlns:xlink="http://www.w3.org/1999/xlink" width="128" height="128" viewBox="0 0 128 128">
  <defs>
    <clipPath id="clip-path">
      <rect id="Rectángulo_459899" data-name="Rectángulo 459899" width="128" height="128" fill="none"/>
    </clipPath>
    <clipPath id="clip-path-2">
      <rect id="Rectángulo_465411" data-name="Rectángulo 465411" width="62.02" height="58.161" fill="#12263f"/>
    </clipPath>
  </defs>
  <g id="Grupo_1212504" data-name="Grupo 1212504" transform="translate(-6415.746 8769.52)">
    <g id="Grupo_1211301" data-name="Grupo 1211301" transform="translate(6415.746 -8769.52)">
      <g id="Grupo_1188515" data-name="Grupo 1188515" clip-path="url(#clip-path)">
        <path id="Trazado_1033015" data-name="Trazado 1033015" d="M128,64A64,64,0,1,1,64,0a64,64,0,0,1,64,64" fill="#fff"/>
        <path id="Trazado_1033016" data-name="Trazado 1033016" d="M154.441,185.937l.625-.59c-.045-.02-.215.119-.625.59" transform="translate(-131.184 -157.435)" fill="#e4cbc1"/>
        <path id="Trazado_1033017" data-name="Trazado 1033017" d="M374.691,757.713l-.2.008a.74.74,0,0,0,.2-.008" transform="translate(-318.095 -643.61)" fill="#e4cbc1"/>
        <path id="Trazado_1033018" data-name="Trazado 1033018" d="M342.621,99.876l-.041.008-.2.065Z" transform="translate(-290.823 -84.836)" fill="#e4cbc1"/>
        <path id="Trazado_1033019" data-name="Trazado 1033019" d="M81.364,97.171a46.672,46.672,0,0,1,3.779-5.711c1.133-1.6,2.359-2.8,3.473-4.1.6-.615,1.228-1.2,1.858-1.825l.97-.96,1.1-.927a47.547,47.547,0,0,1,5.5-4.2,46.375,46.375,0,0,1,14.737-5.883c2.322-.985,6.71-.887,9.606-1.239l1.123.269a11.86,11.86,0,0,1,3.182.125l-.069.054c1.5.046,3.178.288,3.916.385l-.072.049,1.79.338-.325.025c.647.092,1.3.178,1.95.3l1.9.5c.625.176,1.248.337,1.843.538l1.707.68-.095-.313c.586.256,1.127.482,1.636.685s.956.45,1.4.64c.875.4,1.663.733,2.437,1.063.743.389,1.473.772,2.258,1.217.39.226.8.452,1.22.731.4.3.829.621,1.28.979l-.087.017c.647.335,1.251.674,1.819,1.016.55.366,1.04.768,1.521,1.149s.933.772,1.375,1.157.817.833,1.223,1.245c1.618,1.661,3.114,3.436,5.222,5.6-.519-.547.09.338,0,.328l1.3,1.6c.419.52.765,1.051,1.108,1.479.671.868,1.2,1.425,1.432,1.308,1.071,1.738.7,1.516.678,1.837.172-.117,1.176,1.354,1.91,2.769-.137-.2-.255-.419-.406-.615.7,1.351,1.393,2.708,2.057,4.079.025-.338,0-.658.006-.99.887,2.273-.217.771.773,2.875l.313-.159a19.563,19.563,0,0,1,.732,2.189c.165.694.3,1.349.426,2s.257,1.3.371,1.981c.091.692.2,1.416.339,2.21a73.426,73.426,0,0,1,1.768,9.989,51.748,51.748,0,0,1-.063,10.205l-.136,1.264-.068.631-.127.619-.512,2.466a17.435,17.435,0,0,1-.677,2.4c-.26.785-.5,1.577-.779,2.345l-1.018,2.217a17.671,17.671,0,0,1-1.094,2.137,29.664,29.664,0,0,1-2.668,3.842l-.541.266c-.411-.047-1.68,2.982-2.322,3.054-.289.381-.56.782-.872,1.147-.34.231-1,.763-.546.208a16.966,16.966,0,0,0-1.6,1.672c-.4.26-.832.482-1.247.718a74.424,74.424,0,0,1-6.176,4.184,35.986,35.986,0,0,1-6.974,3.266,93.37,93.37,0,0,1-12.7,2.748,98.083,98.083,0,0,1-13.538.888,49.735,49.735,0,0,1-15.981-2.551A67.158,67.158,0,0,1,89.2,160.415a3.592,3.592,0,0,0-1.043-.6c-.607-.5-1.191-1.018-1.788-1.524l-.892-.764-.814-.843L83.038,155l-1.448-1.839-.312-.392-.37-.462-.431-.661a34.528,34.528,0,0,1-2.393-4.01,21.288,21.288,0,0,1-1.264-2.643c-.367-.945-.809-1.89-1.144-2.87-.6-1.985-1.275-3.931-1.646-5.694-.817-3.5-1.184-6.012-1.59-5.364a10.1,10.1,0,0,0-.38,3.632,36.74,36.74,0,0,0,.261,4.12c.111.827.29,1.722.463,2.705l.285,1.536c.1.534.292,1.062.445,1.627l-.169-.205L74,146.362l.315.882c.12.281.257.548.381.813.513,1.057.982,2.038,1.479,2.94a23.866,23.866,0,0,0,3.582,4.589,2,2,0,0,0,.442.92c.138.2.3.413.48.634l.634.637c.893.855,1.832,1.78,2.277,2.258l-.123-.049c1.44.94,2.657,2.2,4.065,3.215a21.712,21.712,0,0,0,2.08,1.531,20.226,20.226,0,0,0,2.212,1.179,1.586,1.586,0,0,1-.914-.312c.528.279,1.088.616,1.669.891l1.672.779a6.405,6.405,0,0,1,1.806,1.055,58.146,58.146,0,0,0,8.915,2.859,38.937,38.937,0,0,0,4.323.8,21.527,21.527,0,0,0,3.393.24l-.255.051c2.064-.038,2.637.242,4.926.254.122.048.282.081.255.1,2.224-.154,6.453.16,8.246-.044l.121.2c1.471-.063,2.943-.144,4.411-.283-.55.035-1.1.057-1.651.072.528-.57,3.368.143,6.519-.667,3.013-.374,5.76-2.2,8.767-2.816,1.338-.666-1.123.779.93-.058.158.256-.934.483-.32.533,2.031-.8,3.509-.855,5.925-2.117l.192.158c3.044-1.81,6.1-2.831,7.832-4.521a12.491,12.491,0,0,1,2.589-1.686,7.231,7.231,0,0,0,2.446-2.076l1.289-.82c1.182-1.163.579-1.085,1.894-2.356.081.221,1.608-1.677,1.065-.73a25.026,25.026,0,0,0,3.654-5.365l.793-1.559.736-1.663c.517-1.127,1.131-2.276,1.628-3.56a11.286,11.286,0,0,1,.554-2.482,9.248,9.248,0,0,0,.349-2.272,16.21,16.21,0,0,0,.622-2.336c.152-.953.277-1.513.255.045,0,.268-.128.724-.177.682l.135.4a8.52,8.52,0,0,0,.506-2.205c.091-.724.141-1.434.179-2.142a18.33,18.33,0,0,0,0-2.137c-.016-.721-.015-1.456.03-2.224-.107.909-.136,2.118-.254,1.3.024-.946.144-1.9.088-2.841l.208.59-.069-4.248-.2.6a16.372,16.372,0,0,0-.374-5.124c-.338-1.012-.031,1.981-.416-.161-.2-1.358-.356-3.084-.717-4.868a47.607,47.607,0,0,0-1.326-5.338c-.14.392-.431-.509-.79-1.414l.174-.182c-.748-1.716-.836-2.047-.821-2.419-.007-.362-.007-.729-.825-2.405l.267.242c-.262-.244-.534-.481-.824-.708a6.605,6.605,0,0,1-1.153-2.355,5.909,5.909,0,0,0-1.474-2.5c.758,1.259-.091.834-.892-.773l.412.289a17.513,17.513,0,0,1-1.063-1.687c.382.462.457.091-.4-1.112l.772.684L165.6,92.049A18.783,18.783,0,0,0,163.509,89c-.376-.488-.727-.946-1-1.338a5.175,5.175,0,0,1-.606-.9s-.743-.9-1.609-1.864a12.043,12.043,0,0,0-1.381-1.336,6.591,6.591,0,0,0-1.09-.81c.821.5-.989-1.34-.3-1.013-.495-.363-1.516-1.015-2.5-1.751-.491-.366-.978-.748-1.4-1.107s-.833-.633-1.091-.89l.241.13c-4.218-3.29-7.918-4.417-12.214-6.37.112.317-2.184-.685-1.71-.156-2.377-.551-4.454-1.343-6.252-1.734a13.7,13.7,0,0,0-2.393-.462,4.062,4.062,0,0,0-1.764.222c-2.186-.246-2.573-.514-3.715-.623l.531-.029-2.636-.075c-.744,0-1.38.051-1.982.066-1.2.058-2.278.029-3.809.226a11.52,11.52,0,0,0-1.761.507,19.819,19.819,0,0,1-2.645.594c.836-.354-.258-.107-1.266.089.637-.154.826-.261-.529-.127-.174.095-.456.176-.712.289-.014-.011-.069-.008-.047-.035-1.639.529-1.333.5-.561.314-.031.039.043.056.292.041a27.084,27.084,0,0,0-3.085.739c-.993.322-1.784.633-1.945.51A39.849,39.849,0,0,0,93.325,78.8c-.489.15.229-.557,1.2-1.347L92.1,79.3c-.129-.2,1.332-1.145,2.065-1.738a23.017,23.017,0,0,0-2.311,1.553c-.7.628-1.394,1.3-2.1,1.976-.724.657-1.373,1.412-2.064,2.155s-1.47,1.433-2.187,2.216l-.418.8-.185.174a4.4,4.4,0,0,1-.788,1.37c-.537.337-.39-.359-1.6,1.363a15.244,15.244,0,0,0-1.861,2.669l-1.695,3.217c.627-.986.539-.6.34-.138a21.883,21.883,0,0,0-1.241,2.11l-.3-.041c.213-.121-.039.517-.352,1.233a11.516,11.516,0,0,0-.648,1.74c-.422.46.467-1.565.487-1.848-.9,1.893-1.062,2.4-1.285,2.87-.185.49-.478.937-1.159,2.919-.567,2.169.389-.287.255.8-.673,1.844-.967,3.743-1.775,5.846l.442-.615c-.41,1.784-.623,3.233-.95,4.5-.267,1.282-.49,2.422-.822,3.621-.138,1.7-.086,3.229-.119,4.563.031,1.339.145,2.5.214,3.5a20.484,20.484,0,0,0,.348,2.542c.127.7.243,1.26.35,1.7.443,1.757.753,1.614.887.617a39.933,39.933,0,0,0,.33-4.258c.147-1.525.229-2.806.229-2.806a116.086,116.086,0,0,1,2.145-12.969l.788-3.08c.294-1.051.671-2.117,1.03-3.257a53.709,53.709,0,0,1,3.2-7.432" transform="translate(-61.023 -58.519)" fill="#3a552a"/>
      </g>
    </g>
    <g id="Grupo_1212434" data-name="Grupo 1212434" transform="translate(6445 -8736.402)">
      <g id="Grupo_1212433" data-name="Grupo 1212433" clip-path="url(#clip-path-2)">
        <path id="Trazado_1274291" data-name="Trazado 1274291" d="M77.325,40.135l-3.463.011a.776.776,0,0,1-.791-.759l-.034-1.558-2.465-.976c-.385.479-1.178,1.513-1.855,1.148-1.089-.588-1.787-1.744-2.712-2.5a.9.9,0,0,1-.085-1.356l1.027-1.1a7.748,7.748,0,0,1-.91-2.232L64.6,30.769a.972.972,0,0,1-1-1.013l0-3.1a1.159,1.159,0,0,1,.251-.846c.558-.541,1.509-.084,2.132-.428a6.082,6.082,0,0,0,.59-1.735,12.784,12.784,0,0,1-10.479,1.047,5.984,5.984,0,0,1,1.147,1.8,3.166,3.166,0,0,1,2.152,2.075,2.841,2.841,0,0,1-1.406,2.98l.939,2.168a2.394,2.394,0,0,1-.26,2.608l-2.709,2.684c-.938.929-3.079.065-4.6-.778a3.942,3.942,0,0,1-2.166,1.548,2.85,2.85,0,0,1-2.893-2.315,2.8,2.8,0,0,1-2.241-3.315,20.918,20.918,0,0,1-6.985-2.089,10.692,10.692,0,0,1-4.029-14.334,10.833,10.833,0,0,1,14.537-4.47A12.688,12.688,0,0,1,61.541.059,12.511,12.511,0,0,1,71.33,6.522a12.571,12.571,0,0,1-.181,12.626l1.9-.616.013-1.514a.83.83,0,0,1,.837-.886l3.394,0c1.152,0,.912,1.138,1.025,2.408l2.447.849c.333-.471,1.1-1.452,1.722-1.143,1.134.565,1.847,1.77,2.807,2.56a.864.864,0,0,1,.105,1.21L84.346,23.2a18.309,18.309,0,0,1,.91,2.275l1.328.038a1,1,0,0,1,1.072,1l0,3.208c0,.7-.573,1.055-1.265,1.061l-1.13.01-.837,2.259c-.162.437,1.9,1.394.9,2.408l-2.288,2.319c-1.126,1.142-2.041-1.04-2.581-.858a21.759,21.759,0,0,1-2.127.821c-.153,1.209.128,2.4-1.01,2.4M65.881,20.913l2.632-2.677,1.105-.067a10.869,10.869,0,1,0-20.073-3.595,11.537,11.537,0,0,1,3.6,6.264,10.7,10.7,0,0,0,12.584,1.208c-.027-.357-.109-.869.15-1.133m-16.894,7.8-5.4-5.47a2.877,2.877,0,0,1,.343-4.08,3.05,3.05,0,0,1,4.119.128,3.007,3.007,0,0,1-.036,4.254.9.9,0,0,1-1.313-.052c-.741-.913,1.1-1.844.042-2.919a1.177,1.177,0,0,0-1.8,1.509l5.4,5.44L52.3,25.535c-.665-3.4-1.2-7.153-3.75-9.4a8.99,8.99,0,0,0-9.537-1.585,8.958,8.958,0,0,0,.88,16.815,28.586,28.586,0,0,0,5.446,1.158L46.88,31,41.64,25.753a1.213,1.213,0,0,0-1.729.012,1.119,1.119,0,0,0,.1,1.7c1.148.959,2.157-1.066,2.984.075a.925.925,0,0,1-.2,1.225,2.956,2.956,0,0,1-4.191-.109,3.01,3.01,0,0,1-.088-4.082,2.912,2.912,0,0,1,4.062-.348l5.476,5.406a1.287,1.287,0,0,0,.93-.921m28.2,7.448a16.524,16.524,0,0,0,3.466-1.369c.57-.222,1.194.722,1.52,1.11A4.565,4.565,0,0,0,83.4,34.8l-.75-.773c-.226-.233-.565-.81-.313-1.165a14.473,14.473,0,0,0,1.554-3.678c.4-.383,1.351-.216,1.863-.212A1.875,1.875,0,0,0,85.7,27.3a1.942,1.942,0,0,1-1.62-.127,1.766,1.766,0,0,1-.553-1.1A9.993,9.993,0,0,0,82.35,23.34c-.321-.673.413-1.338.99-1.708a1.728,1.728,0,0,0-1.183-1.186c-.31.481-1.108,1.335-1.68,1.006a21.852,21.852,0,0,0-3.705-1.568c-.511-.269-.314-1.391-.314-1.85a3.322,3.322,0,0,0-1.628.007c.021.461.216,1.533-.264,1.82-.97.58-2.2.589-3.124,1.3a1.4,1.4,0,0,1-1.12.314c-.607-.107-.961-1.029-1.372-1.02-.206,0-1.041.8-.983,1.068.1.46,1.659,1.112.83,2.194a14.525,14.525,0,0,0-1.378,3.259c-.253.572-1.313.47-1.87.341a1.769,1.769,0,0,0,.043,1.661c.545-.029,1.5-.149,1.853.217a19.335,19.335,0,0,0,1.531,3.883c.287.6-.69,1.328-1.075,1.689a4.042,4.042,0,0,0,1.122,1.137c.348-.415,1.087-1.39,1.69-1.1a19.822,19.822,0,0,0,3.878,1.551c.425.4.283,1.452.252,1.993l1.521.039c.156-1.05-.12-2.08.825-2.227M46.963,35.5l8.245-8.215c.3-.3.07-.816-.132-1a.72.72,0,0,0-1.007.056l-7.892,7.881c-.353.353-.465.65-.255,1.008.175.3.612.7,1.04.271m2.427,2.211,8.018-8.025a.74.74,0,0,0-.941-1.14L48.2,36.85c-.279.28-.02.681.144.837a.757.757,0,0,0,1.043.028m5.432-.135a13.234,13.234,0,0,0,2.446-2.442c.189-.741-.4-1.548-.658-2.1L52.768,36.9c.544.3,1.37.912,2.054.685" transform="translate(-25.637 0)" fill="#12263f"/>
        <path id="Trazado_1274292" data-name="Trazado 1274292" d="M76.38,211.011a22.473,22.473,0,0,1-5.562-2.993c-4.293-2.775-8.354-5.684-12.467-8.662a2.568,2.568,0,0,1-.988-2.17c.2-1.917,2.8-2.51,5.131-1.847.79-2.368,4.091-2.207,6.167-.742l6.322,4.462a41.851,41.851,0,0,0,4.7,1.7c2.163-.288,4.179-.431,6.459-.517-2.7-2.244-7.444-3.1-7.486-6.483a2.918,2.918,0,0,1,2.9-2.751,7.61,7.61,0,0,1,4.3,1.035c3.361,1.933,6.647,3.345,9.88,5.442a2.065,2.065,0,0,1,1.924-1.315l4,.047a2.05,2.05,0,0,1,2.22,2.033l.007,12.041a2,2,0,0,1-2.035,2.064l-4.249-.03a2.171,2.171,0,0,1-1.775-1l-15.743-.075a12.673,12.673,0,0,1-3.707-.233m-17.073-13.83c-.317.214.128.777.292.891l9.3,6.483c2.042,1.423,7.032,4.8,8.495,4.815l18.264.169-.007-9.89a39.5,39.5,0,0,0-5.619-3.316,49.826,49.826,0,0,1-5.239-2.842,5.654,5.654,0,0,0-3.484-.624,1,1,0,0,0-.778,1.41A2.982,2.982,0,0,0,82,195.695c1.676.906,3.281,1.784,4.862,2.839,1.2.8,2.245,1.771,1.681,2.627-.211.321-.523.328-.9.388-1.58.249-3.056.588-4.675.711-3.157.239-10,.874-11.573,0l-8.912-4.951a3.157,3.157,0,0,0-3.173-.125m15,3.613-6.844-4.81a3.024,3.024,0,0,0-3.232-.312,1.753,1.753,0,0,0,1.062,1.144l7.063,3.9a2.936,2.936,0,0,0,1.951.077m27.745,9.707-.011-12.475-4.607-.015.016,12.513Z" transform="translate(-46.304 -154.191)" fill="#12263f"/>
        <path id="Trazado_1274293" data-name="Trazado 1274293" d="M48.61,180.883a.948.948,0,0,1-1.293.6.984.984,0,0,1-.372-1.38l1.562-3.27a.818.818,0,0,1,1.108-.369.9.9,0,0,1,.474,1.19Z" transform="translate(-37.793 -142.401)" fill="#12263f"/>
        <path id="Trazado_1274294" data-name="Trazado 1274294" d="M56.9,31.663a.813.813,0,0,1-.585,1.015.977.977,0,0,1-1.2-.645l-1.225-3.457a.854.854,0,0,1,.562-1.088.92.92,0,0,1,1.167.573Z" transform="translate(-43.467 -22.156)" fill="#12263f"/>
        <path id="Trazado_1274295" data-name="Trazado 1274295" d="M1.4,139.418a.961.961,0,0,1-1.322-.437.893.893,0,0,1,.545-1.216l3.366-1.25a.909.909,0,1,1,.7,1.672Z" transform="translate(0 -110.149)" fill="#12263f"/>
        <path id="Trazado_1274296" data-name="Trazado 1274296" d="M7.636,75.771A.9.9,0,0,1,8.2,76.884a.884.884,0,0,1-1.151.573L3.591,75.89a.93.93,0,0,1-.447-1.155.9.9,0,0,1,1.275-.453Z" transform="translate(-2.497 -59.887)" fill="#12263f"/>
        <path id="Trazado_1274297" data-name="Trazado 1274297" d="M165.692,38.677c-.382.141.193,1.819-1.038,1.911a.918.918,0,0,1-.978-1.065c.02-.207.067-.744-.148-.823a3.61,3.61,0,0,1-2.481-3.392.889.889,0,0,1,.906-.9c1.351.008.419,2.288,2.353,2.623a1.761,1.761,0,0,0,1.891-1.149,1.523,1.523,0,0,0-.94-2.059c-1.078-.363-2.314-.445-3.237-1.206a3.392,3.392,0,0,1-.853-3.424,3.768,3.768,0,0,1,2.322-2.507c.413-.166-.192-1.8,1-1.9a.935.935,0,0,1,1.016,1.1c-.021.172-.04.735.138.791a3.535,3.535,0,0,1,2.491,3.122.979.979,0,0,1-.615,1.12c-1.676.426-.679-1.987-2.354-2.491a1.74,1.74,0,0,0-2.037.732,1.558,1.558,0,0,0,.292,2.093c1.294.965,4.364.376,4.68,3.457a3.647,3.647,0,0,1-2.412,3.97" transform="translate(-130.015 -20.008)" fill="#12263f"/>
        <path id="Trazado_1274298" data-name="Trazado 1274298" d="M231.528,112.008a6.585,6.585,0,1,1-6.131,7.084,6.551,6.551,0,0,1,6.131-7.084m-.587,1.893a4.776,4.776,0,0,0,2.006,9.339,4.836,4.836,0,0,0,3.7-5.61,4.781,4.781,0,0,0-5.7-3.729" transform="translate(-181.954 -90.417)" fill="#12263f"/>
      </g>
    </g>
  </g>
</svg>
