<svg xmlns="http://www.w3.org/2000/svg" xmlns:xlink="http://www.w3.org/1999/xlink" width="84" height="84" viewBox="0 0 84 84">
  <defs>
    <clipPath id="clip-path">
      <rect id="Rectángulo_465313" data-name="Rectángulo 465313" width="47.88" height="56.161" fill="#12263f"/>
    </clipPath>
  </defs>
  <g id="Grupo_1188705" data-name="Grupo 1188705" transform="translate(-705.629 -410)">
    <g id="Grupo_1188476" data-name="Grupo 1188476" transform="translate(2.841 -1273.207)">
      <g id="Grupo_1185067" data-name="Grupo 1185067" transform="translate(719.227 1696)">
        <path id="Trazado_997620" data-name="Trazado 997620" d="M133.124,646.71a15.477,15.477,0,1,0-14.332-.01" transform="translate(-99.168 -604.804)" fill="#3a552a" stroke="#000" stroke-miterlimit="10" stroke-width="2"/>
        <rect id="Rectángulo_454823" data-name="Rectángulo 454823" width="14.333" height="4.288" transform="translate(19.625 41.893)" fill="#3a552a" stroke="#000" stroke-miterlimit="10" stroke-width="2"/>
        <rect id="Rectángulo_454824" data-name="Rectángulo 454824" width="14.333" height="4.288" transform="translate(19.625 46.181)" fill="#3a552a" stroke="#000" stroke-miterlimit="10" stroke-width="2"/>
        <path id="Trazado_997621" data-name="Trazado 997621" d="M135.492,688.628h-6.283a4.025,4.025,0,0,1-4.025-4.025v-.263h14.333v.263A4.025,4.025,0,0,1,135.492,688.628Z" transform="translate(-105.559 -633.871)" fill="#3a552a" stroke="#000" stroke-miterlimit="10" stroke-width="2"/>
        <line id="Línea_3231" data-name="Línea 3231" y1="7.578" transform="translate(26.797)" fill="none" stroke="#000" stroke-miterlimit="10" stroke-width="2"/>
        <line id="Línea_3232" data-name="Línea 3232" x1="4.454" y1="6.13" transform="translate(10.236 5.387)" fill="none" stroke="#000" stroke-miterlimit="10" stroke-width="2"/>
        <line id="Línea_3233" data-name="Línea 3233" x1="7.2" y1="2.336" transform="translate(0 19.477)" fill="none" stroke="#000" stroke-miterlimit="10" stroke-width="2"/>
        <line id="Línea_3234" data-name="Línea 3234" x1="7.2" y2="2.341" transform="translate(0 34.55)" fill="none" stroke="#000" stroke-miterlimit="10" stroke-width="2"/>
        <line id="Línea_3235" data-name="Línea 3235" x1="7.2" y1="2.341" transform="translate(46.398 34.55)" fill="none" stroke="#000" stroke-miterlimit="10" stroke-width="2"/>
        <line id="Línea_3236" data-name="Línea 3236" x1="7.2" y2="2.336" transform="translate(46.398 19.477)" fill="none" stroke="#000" stroke-miterlimit="10" stroke-width="2"/>
        <line id="Línea_3237" data-name="Línea 3237" x1="4.454" y2="6.125" transform="translate(38.91 5.387)" fill="none" stroke="#000" stroke-miterlimit="10" stroke-width="2"/>
        <path id="Trazado_997622" data-name="Trazado 997622" d="M119,638.208a10.647,10.647,0,0,1,4.484-8.693" transform="translate(-102.867 -610.025)" fill="#3a552a" stroke="#000" stroke-miterlimit="10" stroke-width="2"/>
        <line id="Línea_3238" data-name="Línea 3238" y2="8.634" transform="translate(26.797 33.258)" fill="none" stroke="#000" stroke-miterlimit="10" stroke-width="2"/>
        <path id="Trazado_997623" data-name="Trazado 997623" d="M133.157,647.74l2.669,3.47,3-3.47" transform="translate(-109.027 -617.951)" fill="#3a552a" stroke="#000" stroke-miterlimit="10" stroke-width="2"/>
        <path id="Trazado_997624" data-name="Trazado 997624" d="M132.431,691.931a3.07,3.07,0,1,0,6.14,0" transform="translate(-108.711 -637.173)" fill="#3a552a" stroke="#000" stroke-miterlimit="10" stroke-width="2"/>
      </g>
      <rect id="Rectángulo_459857" data-name="Rectángulo 459857" width="81" height="79" transform="translate(705.788 1688.207)" fill="#3a552a"/>
    </g>
    <g id="Grupo_1188599" data-name="Grupo 1188599" transform="translate(0.371 -1278)">
      <g id="Grupo_1185067-2" data-name="Grupo 1185067" transform="translate(718.472 1696)">
        <path id="Trazado_997620-2" data-name="Trazado 997620" d="M133.124,646.71a15.477,15.477,0,1,0-14.332-.01" transform="translate(-99.168 -604.804)" fill="#fff006" stroke="#000" stroke-miterlimit="10" stroke-width="2"/>
        <rect id="Rectángulo_454823-2" data-name="Rectángulo 454823" width="14.333" height="4.288" transform="translate(19.625 41.893)" fill="#fff006" stroke="#000" stroke-miterlimit="10" stroke-width="2"/>
        <rect id="Rectángulo_454824-2" data-name="Rectángulo 454824" width="14.333" height="4.288" transform="translate(19.625 46.181)" fill="#fff006" stroke="#000" stroke-miterlimit="10" stroke-width="2"/>
        <path id="Trazado_997621-2" data-name="Trazado 997621" d="M135.492,688.628h-6.283a4.025,4.025,0,0,1-4.025-4.025v-.263h14.333v.263A4.025,4.025,0,0,1,135.492,688.628Z" transform="translate(-105.559 -633.871)" fill="#fff006" stroke="#000" stroke-miterlimit="10" stroke-width="2"/>
        <line id="Línea_3231-2" data-name="Línea 3231" y1="7.578" transform="translate(26.797)" fill="none" stroke="#000" stroke-miterlimit="10" stroke-width="2"/>
        <line id="Línea_3232-2" data-name="Línea 3232" x1="4.454" y1="6.13" transform="translate(10.236 5.387)" fill="none" stroke="#000" stroke-miterlimit="10" stroke-width="2"/>
        <line id="Línea_3233-2" data-name="Línea 3233" x1="7.2" y1="2.336" transform="translate(0 19.477)" fill="none" stroke="#000" stroke-miterlimit="10" stroke-width="2"/>
        <line id="Línea_3234-2" data-name="Línea 3234" x1="7.2" y2="2.341" transform="translate(0 34.55)" fill="none" stroke="#000" stroke-miterlimit="10" stroke-width="2"/>
        <line id="Línea_3235-2" data-name="Línea 3235" x1="7.2" y1="2.341" transform="translate(46.398 34.55)" fill="none" stroke="#000" stroke-miterlimit="10" stroke-width="2"/>
        <line id="Línea_3236-2" data-name="Línea 3236" x1="7.2" y2="2.336" transform="translate(46.398 19.477)" fill="none" stroke="#000" stroke-miterlimit="10" stroke-width="2"/>
        <line id="Línea_3237-2" data-name="Línea 3237" x1="4.454" y2="6.125" transform="translate(38.91 5.387)" fill="none" stroke="#000" stroke-miterlimit="10" stroke-width="2"/>
        <path id="Trazado_997622-2" data-name="Trazado 997622" d="M119,638.208a10.647,10.647,0,0,1,4.484-8.693" transform="translate(-102.867 -610.025)" fill="#fff006" stroke="#000" stroke-miterlimit="10" stroke-width="2"/>
        <line id="Línea_3238-2" data-name="Línea 3238" y2="8.634" transform="translate(26.797 33.258)" fill="none" stroke="#000" stroke-miterlimit="10" stroke-width="2"/>
        <path id="Trazado_997623-2" data-name="Trazado 997623" d="M133.157,647.74l2.669,3.47,3-3.47" transform="translate(-109.027 -617.951)" fill="#fff006" stroke="#000" stroke-miterlimit="10" stroke-width="2"/>
        <path id="Trazado_997624-2" data-name="Trazado 997624" d="M132.431,691.931a3.07,3.07,0,1,0,6.14,0" transform="translate(-108.711 -637.173)" fill="#fff006" stroke="#000" stroke-miterlimit="10" stroke-width="2"/>
      </g>
      <rect id="Rectángulo_459857-2" data-name="Rectángulo 459857" width="80" height="80" transform="translate(705.258 1688)" fill="#fff006"/>
    </g>
    <g id="Grupo_1212231" data-name="Grupo 1212231" transform="translate(721.689 421.919)">
      <g id="Grupo_1212230" data-name="Grupo 1212230" clip-path="url(#clip-path)">
        <path id="Trazado_1273588" data-name="Trazado 1273588" d="M26.593,38.068c1-4.407,1.559-8.787-.6-12.71-.639-1.16-1.291-2.2-2.057-3.372-2.039,3.121-3.558,5.457-3.547,9.259a30.845,30.845,0,0,0,.885,6.822l1.809,7.979A1.821,1.821,0,0,1,21.812,48a1.883,1.883,0,0,1-2.352-.63l-2.795-4.862c.106,1.526.547,2.877.538,4.334a1.969,1.969,0,0,1-1.7,1.866,2.07,2.07,0,0,1-2.382-1.174,139.35,139.35,0,0,1-5.64-16.8,5.585,5.585,0,0,0-.75-1.774c-2.288-3.343-4.38-6.714-6.382-10.24a2.252,2.252,0,0,1,.879-3.209A2.141,2.141,0,0,1,2.8,13.6l2.161-.032a3.807,3.807,0,0,1,.261-5.642A3.849,3.849,0,0,1,11.01,9.008L13.9,2.763A2.056,2.056,0,0,1,15.187.125a2.19,2.19,0,0,1,2.705,1.217,17.312,17.312,0,0,0,2.2,3.147,3.852,3.852,0,0,1,7.675,0A18.59,18.59,0,0,0,30.04,1.239,2.146,2.146,0,0,1,32.676.126a2.063,2.063,0,0,1,1.3,2.637l2.885,6.246a3.832,3.832,0,1,1,6.132,4.5l2.073.1a2.132,2.132,0,0,1,1.587,1.9,2.284,2.284,0,0,1,1.1,2.77c-2.033,3.694-4.24,7.192-6.6,10.68a5.6,5.6,0,0,0-.759,1.771A143.874,143.874,0,0,1,34.857,47.3,2.119,2.119,0,0,1,32.5,48.73a1.994,1.994,0,0,1-1.839-1.891c-.01-1.453.432-2.808.537-4.333l-2.793,4.86a1.855,1.855,0,0,1-2.222.676,1.835,1.835,0,0,1-1.4-2ZM28.925,9.349l3.383-7.007a.41.41,0,0,0-.041-.5c-.122-.132-.516-.156-.611.02a20.508,20.508,0,0,1-3.963,5.15,5.223,5.223,0,0,1-7.521,0,20.726,20.726,0,0,1-3.966-5.149c-.121-.223-.6-.137-.681.055a.623.623,0,0,0,.086.536c2.493,4.974,5.3,10.03,5.634,15.716a2.2,2.2,0,0,1,2.687.126,2.218,2.218,0,0,1,2.7-.128,22.938,22.938,0,0,1,2.3-8.818M23.745,2.7a2.088,2.088,0,0,0-1.9,2.405,2.114,2.114,0,0,0,4.195-.522A2.1,2.1,0,0,0,23.745,2.7M3.907,15.989A37.854,37.854,0,0,0,8.72,21.695a3.8,3.8,0,0,1,4.5-3.6A67.852,67.852,0,0,1,15.444,6.263c.13-.509-.386-.993-.589-1.474l-3.212,6.98c-1.51,3.282-5,3.793-8.55,3.478.2.366.539.481.815.742m40.148-.131a1.437,1.437,0,0,0,.709-.611c-3.5.331-7.049-.24-8.539-3.475L33.011,4.788c-.2.482-.717.964-.588,1.474a68.419,68.419,0,0,1,2.22,11.832A3.841,3.841,0,0,1,39.167,21.7a41.056,41.056,0,0,0,4.888-5.844M19.649,19.82a25.219,25.219,0,0,0-3-11.3,57.028,57.028,0,0,0-1.8,10.251,4.016,4.016,0,0,1,1.405,4.277Zm11.893,3.136A4.114,4.114,0,0,1,33.01,18.77,57.953,57.953,0,0,0,31.216,8.526,24.389,24.389,0,0,0,28.253,19.84ZM6.957,8.868a2.116,2.116,0,1,0,2.731,1.416A2.113,2.113,0,0,0,6.957,8.868m32.619,0a2.072,2.072,0,0,0-1.361,2.683,2.111,2.111,0,0,0,4.044-1.206,2.049,2.049,0,0,0-2.683-1.478M19.395,37.356a26.827,26.827,0,0,1-.708-6.4c.046-4.451,2.036-7.1,4.3-10.641a.535.535,0,0,0-.833-.666l-4.5,4.48c-2.533,2.524-6.4,1.992-9.119-.314A35.444,35.444,0,0,1,2.761,17.3a.619.619,0,0,0-.643-.31c-.174.028-.558.334-.427.575,1.947,3.589,4.1,6.977,6.393,10.361a6.993,6.993,0,0,1,1,2.2,138.336,138.336,0,0,0,5.579,16.689.457.457,0,0,0,.645.16.559.559,0,0,0,.188-.6L14.22,37.741c-.059-.4.428-.658.667-.689a.834.834,0,0,1,.905.34l4.879,8.753c.143.258.338.379.611.176.1-.077.111-.227.053-.479ZM26.516,45.9c-.074.321.06.451.183.5.233.088.378-.043.495-.251l4.948-8.851c.179-.32.717-.278.968-.207.2.056.592.307.541.654l-1.278,8.637c-.049.33.019.571.313.646a.461.461,0,0,0,.573-.318,141.124,141.124,0,0,0,5.526-16.577,6.977,6.977,0,0,1,1-2.2c2.287-3.387,4.444-6.774,6.391-10.363.131-.242-.253-.546-.427-.574a.617.617,0,0,0-.642.309,35.522,35.522,0,0,1-5.779,6.511c-2.695,2.286-6.549,2.862-9.114.309l-4.5-4.478a.534.534,0,0,0-.832.666c2.279,3.562,4.254,6.2,4.3,10.67a27.2,27.2,0,0,1-.721,6.441ZM11.8,19.877a2.075,2.075,0,0,0-1.16,2.8,2.115,2.115,0,0,0,3.909-1.612A2.087,2.087,0,0,0,11.8,19.877m22.774-.028A2.1,2.1,0,1,0,36.019,23.8a2.1,2.1,0,1,0-1.449-3.948" transform="translate(0 0)" fill="#12263f"/>
        <path id="Trazado_1273589" data-name="Trazado 1273589" d="M136.632,328.887l-1.669.01a.82.82,0,0,1-.806-.87.833.833,0,0,1,.938-.837h1.333a.831.831,0,0,1,.929.711.812.812,0,0,1-.725.985" transform="translate(-111.829 -272.736)" fill="#12263f"/>
        <path id="Trazado_1273590" data-name="Trazado 1273590" d="M101.939,325.616l-1.452-.2a.867.867,0,0,1-.815-.964.825.825,0,0,1,1.017-.736l1.432.232a.837.837,0,0,1,.707.839.8.8,0,0,1-.889.834" transform="translate(-83.081 -269.824)" fill="#12263f"/>
        <path id="Trazado_1273591" data-name="Trazado 1273591" d="M169.954,325.609a.845.845,0,1,1-.293-1.665l1.434-.233a.852.852,0,1,1,.335,1.671Z" transform="translate(-140.836 -269.824)" fill="#12263f"/>
        <path id="Trazado_1273592" data-name="Trazado 1273592" d="M69.613,317l-1.277-.476a.817.817,0,0,1-.43-1.121.891.891,0,0,1,1.145-.413l1.12.375a.887.887,0,0,1,.635,1.1.821.821,0,0,1-1.193.54" transform="translate(-56.534 -262.51)" fill="#12263f"/>
        <path id="Trazado_1273593" data-name="Trazado 1273593" d="M202.913,316.993a.831.831,0,0,1-1.193-.538.886.886,0,0,1,.636-1.1l1.119-.377a.89.89,0,0,1,1.145.413.818.818,0,0,1-.43,1.121Z" transform="translate(-168.127 -262.507)" fill="#12263f"/>
        <path id="Trazado_1273594" data-name="Trazado 1273594" d="M42.769,303.6c-1.039-.344-2.061-1.109-1.673-1.9a.8.8,0,0,1,1.156-.309l1.247.755a.789.789,0,0,1,.181.977.8.8,0,0,1-.911.476" transform="translate(-34.187 -251.123)" fill="#12263f"/>
        <path id="Trazado_1273595" data-name="Trazado 1273595" d="M231.289,303.5a.811.811,0,0,1-1.13-.4.872.872,0,0,1,.366-1.13l1.062-.612a.808.808,0,0,1,1.155.318.865.865,0,0,1-.258,1.093Z" transform="translate(-191.787 -251.102)" fill="#12263f"/>
        <path id="Trazado_1273596" data-name="Trazado 1273596" d="M22.922,202.946c-.408.975-1.5,1.827-2.14,1.268a.843.843,0,0,1-.15-1.093l.866-.951a.848.848,0,0,1,.995-.173.786.786,0,0,1,.429.95" transform="translate(-17.077 -168.305)" fill="#12263f"/>
        <path id="Trazado_1273597" data-name="Trazado 1273597" d="M254.387,204.2c-.657.57-1.75-.319-2.145-1.268a.8.8,0,0,1,.326-.891.857.857,0,0,1,1.1.114l.867.954a.843.843,0,0,1-.148,1.091" transform="translate(-210.225 -168.291)" fill="#12263f"/>
        <path id="Trazado_1273598" data-name="Trazado 1273598" d="M253.83,285.929a.846.846,0,0,1-1.27.1.888.888,0,0,1,.042-1.245l.807-.843a.884.884,0,0,1,1.062.006.782.782,0,0,1,.183,1.071Z" transform="translate(-210.331 -236.537)" fill="#12263f"/>
        <path id="Trazado_1273599" data-name="Trazado 1273599" d="M22.822,286.068c-.552.658-1.39,0-2.108-1a.814.814,0,0,1,1.125-1.127c.924.678,1.529,1.474.982,2.126" transform="translate(-17.169 -236.586)" fill="#12263f"/>
        <path id="Trazado_1273600" data-name="Trazado 1273600" d="M10.142,223.5a.8.8,0,0,1-1.045.394c-.773-.307-.53-1.5.087-2.258a.886.886,0,0,1,1.112-.139.827.827,0,0,1,.294,1.033Z" transform="translate(-7.178 -184.52)" fill="#12263f"/>
        <path id="Trazado_1273601" data-name="Trazado 1273601" d="M268.088,221.525a2.024,2.024,0,0,1,.726,2.137.764.764,0,0,1-1.042.268,2.052,2.052,0,0,1-.806-2c.147-.485.737-.536,1.122-.4" transform="translate(-222.492 -184.603)" fill="#12263f"/>
        <path id="Trazado_1273602" data-name="Trazado 1273602" d="M9.68,263.735a2.2,2.2,0,0,1,.895,2.1.922.922,0,0,1-.811.469c-.718-.023-1.385-1.564-1.06-2.208a.813.813,0,0,1,.976-.358" transform="translate(-7.185 -219.809)" fill="#12263f"/>
        <path id="Trazado_1273603" data-name="Trazado 1273603" d="M268.7,264.693c-.216,1.072-.808,1.858-1.492,1.55a.819.819,0,0,1-.472-1.15l.414-.9a.812.812,0,0,1,.926-.475.786.786,0,0,1,.623.977" transform="translate(-222.266 -219.813)" fill="#12263f"/>
        <path id="Trazado_1273604" data-name="Trazado 1273604" d="M6.018,242.531c.7.262.772,2,.041,2.463a.765.765,0,0,1-1.088-.338,2.66,2.66,0,0,1,.009-1.817c.167-.427.724-.426,1.038-.308" transform="translate(-4.014 -202.11)" fill="#12263f"/>
        <path id="Trazado_1273605" data-name="Trazado 1273605" d="M273.684,242.579c.538.375.6,2.5-.471,2.49-.736,0-.964-.767-.9-1.427.043-.412.016-.766.306-1.012a.889.889,0,0,1,1.06-.051" transform="translate(-226.986 -202.08)" fill="#12263f"/>
      </g>
    </g>
  </g>
</svg>
