<svg xmlns="http://www.w3.org/2000/svg" width="84.541" height="84.541" viewBox="0 0 84.541 84.541">
  <g id="Grupo_1188693" data-name="Grupo 1188693" transform="translate(-862.469 -470.786)">
    <path id="Trazado_1033182" data-name="Trazado 1033182" d="M42.271,0A42.271,42.271,0,1,1,0,42.271,42.271,42.271,0,0,1,42.271,0Z" transform="translate(947.01 555.327) rotate(180)" fill="#fff"/>
    <g id="Grupo_1180003" data-name="Grupo 1180003" transform="translate(942.682 551) rotate(180)">
      <path id="Trazado_998918" data-name="Trazado 998918" d="M37.943,0A37.943,37.943,0,1,1,0,37.943,37.943,37.943,0,0,1,37.943,0Z" transform="translate(0 0)" fill="#7a4f1e"/>
      <g id="Grupo_1180002" data-name="Grupo 1180002" transform="translate(12.109 9.688)">
        <g id="intercambio" transform="translate(0 0)">
          <path id="Trazado_998911" data-name="Trazado 998911" d="M46.56,12.959v11A1.264,1.264,0,0,1,45.3,25.226H19.722v10.43a1.263,1.263,0,0,1-2.157.893L.37,19.354a1.263,1.263,0,0,1,0-1.787l17.2-17.2a1.263,1.263,0,0,1,2.157.893V11.7H45.3a1.264,1.264,0,0,1,1.263,1.263Zm0,0" transform="translate(0 19.343)" fill="#ffce84"/>
          <path id="Trazado_998912" data-name="Trazado 998912" d="M3.98,1.263v11a1.263,1.263,0,0,1-1.263,1.263H0a1.264,1.264,0,0,0,1.263-1.263v-11A1.264,1.264,0,0,0,0,0H2.717A1.264,1.264,0,0,1,3.98,1.263Zm0,0" transform="translate(42.579 31.039)" fill="#e6a748"/>
          <path id="Trazado_998913" data-name="Trazado 998913" d="M11.768,0,5.056,6.712a2.937,2.937,0,0,1-2.085.87A2.97,2.97,0,0,1,0,4.618V0Zm0,0" transform="translate(30.432 31.039)" fill="#e6a748"/>
          <path id="Trazado_998914" data-name="Trazado 998914" d="M46.189,19.354l-17.2,17.2a1.263,1.263,0,0,1-2.157-.893V25.226H1.263A1.264,1.264,0,0,1,0,23.963v-11A1.264,1.264,0,0,1,1.263,11.7H26.837V1.266A1.263,1.263,0,0,1,28.994.373l17.2,17.2a1.263,1.263,0,0,1,0,1.787Zm0,0" transform="translate(5.293 0)" fill="#fff"/>
          <path id="Trazado_998915" data-name="Trazado 998915" d="M19.352,19.354l-17.2,17.2A1.263,1.263,0,0,1,0,35.656v-.723L16.472,18.461,0,1.989V1.266A1.263,1.263,0,0,1,2.157.373l17.2,17.2a1.263,1.263,0,0,1,0,1.787Zm0,0" transform="translate(32.13)" fill="#d2e1f1"/>
          <path id="Trazado_998916" data-name="Trazado 998916" d="M11.767,2.964V7.582H0L6.712.87A2.931,2.931,0,0,1,8.8,0a2.97,2.97,0,0,1,2.971,2.964Zm0,0" transform="translate(9.654 17.645)" fill="#d2e1f1"/>
          <path id="Trazado_998917" data-name="Trazado 998917" d="M9.328,7.544V1.266A1.263,1.263,0,0,0,7.171.373L0,7.544Zm0,0" transform="translate(10.394 19.343)" fill="#f6bb61"/>
        </g>
      </g>
    </g>
  </g>
</svg>
